{
	"asset":{
		"generator":"Khronos glTF Blender I/O v4.0.44",
		"version":"2.0"
	},
	"extensionsUsed":[
		"KHR_materials_specular",
		"KHR_materials_ior"
	],
	"scene":0,
	"scenes":[
		{
			"name":"Scene",
			"nodes":[
				0,
				1,
				2,
				3,
				4,
				5
			]
		}
	],
	"nodes":[
		{
			"mesh":0,
			"name":"Door_Frame_Square_Side"
		},
		{
			"mesh":1,
			"name":"Door_Frame_Square_Side_01_convcolonly"
		},
		{
			"mesh":2,
			"name":"Door_Frame_Square_Side_02_convcolonly"
		},
		{
			"mesh":3,
			"name":"Door_Frame_Square_Side_03_convcolonly"
		},
		{
			"mesh":4,
			"name":"Door_Frame_Square_Side_04_convcolonly"
		},
		{
			"mesh":5,
			"name":"Door_Frame_Square_Side_05_convcolonly"
		}
	],
	"materials":[
		{
			"doubleSided":true,
			"extensions":{
				"KHR_materials_specular":{
					"specularFactor":0
				},
				"KHR_materials_ior":{
					"ior":1.4500000476837158
				}
			},
			"name":"MI_Trim_01",
			"normalTexture":{
				"index":0
			},
			"pbrMetallicRoughness":{
				"baseColorTexture":{
					"index":1
				},
				"metallicRoughnessTexture":{
					"index":2
				}
			}
		},
		{
			"doubleSided":true,
			"name":"MI_Trim_02",
			"normalTexture":{
				"index":3
			},
			"pbrMetallicRoughness":{
				"baseColorTexture":{
					"index":4
				},
				"metallicRoughnessTexture":{
					"index":5
				}
			}
		}
	],
	"meshes":[
		{
			"name":"Cube.013",
			"primitives":[
				{
					"attributes":{
						"POSITION":0,
						"NORMAL":1,
						"TEXCOORD_0":2
					},
					"indices":3,
					"material":0
				},
				{
					"attributes":{
						"POSITION":4,
						"NORMAL":5,
						"TEXCOORD_0":6
					},
					"indices":7,
					"material":1
				}
			]
		},
		{
			"name":"Cube.434",
			"primitives":[
				{
					"attributes":{
						"POSITION":8,
						"NORMAL":9,
						"TEXCOORD_0":10
					},
					"indices":11
				}
			]
		},
		{
			"name":"Cube.435",
			"primitives":[
				{
					"attributes":{
						"POSITION":12,
						"NORMAL":13,
						"TEXCOORD_0":14
					},
					"indices":15
				}
			]
		},
		{
			"name":"Cube.437",
			"primitives":[
				{
					"attributes":{
						"POSITION":16,
						"NORMAL":17,
						"TEXCOORD_0":18
					},
					"indices":19
				}
			]
		},
		{
			"name":"Cube.436",
			"primitives":[
				{
					"attributes":{
						"POSITION":20,
						"NORMAL":21,
						"TEXCOORD_0":22
					},
					"indices":23
				}
			]
		},
		{
			"name":"Cube.438",
			"primitives":[
				{
					"attributes":{
						"POSITION":24,
						"NORMAL":25,
						"TEXCOORD_0":26
					},
					"indices":27
				}
			]
		}
	],
	"textures":[
		{
			"sampler":0,
			"source":0
		},
		{
			"sampler":0,
			"source":1
		},
		{
			"sampler":0,
			"source":2
		},
		{
			"sampler":0,
			"source":3
		},
		{
			"sampler":0,
			"source":4
		},
		{
			"sampler":0,
			"source":5
		}
	],
	"images":[
		{
			"mimeType":"image/png",
			"name":"T_Trim_01_Normal",
			"uri":"T_Trim_01_Normal.png"
		},
		{
			"mimeType":"image/png",
			"name":"T_Trim_01_BaseColor_Red",
			"uri":"T_Trim_01_BaseColor_Red.png"
		},
		{
			"mimeType":"image/png",
			"name":"T_Trim_01_ORM",
			"uri":"T_Trim_01_ORM.png"
		},
		{
			"mimeType":"image/png",
			"name":"T_Trim_02_Normal",
			"uri":"T_Trim_02_Normal.png"
		},
		{
			"mimeType":"image/png",
			"name":"T_Trim_02_BaseColor_Red",
			"uri":"T_Trim_02_BaseColor_Red.png"
		},
		{
			"mimeType":"image/png",
			"name":"T_Trim_02_ORM",
			"uri":"T_Trim_02_ORM.png"
		}
	],
	"accessors":[
		{
			"bufferView":0,
			"componentType":5126,
			"count":202,
			"max":[
				1,
				5,
				0.25342464447021484
			],
			"min":[
				-1.2000000476837158,
				-0.013425212353467941,
				-0.25342464447021484
			],
			"type":"VEC3"
		},
		{
			"bufferView":1,
			"componentType":5126,
			"count":202,
			"type":"VEC3"
		},
		{
			"bufferView":2,
			"componentType":5126,
			"count":202,
			"type":"VEC2"
		},
		{
			"bufferView":3,
			"componentType":5123,
			"count":432,
			"type":"SCALAR"
		},
		{
			"bufferView":4,
			"componentType":5126,
			"count":30,
			"max":[
				1,
				3.7211947441101074,
				0.25342464447021484
			],
			"min":[
				-0.6066446900367737,
				0,
				-0.25342464447021484
			],
			"type":"VEC3"
		},
		{
			"bufferView":5,
			"componentType":5126,
			"count":30,
			"type":"VEC3"
		},
		{
			"bufferView":6,
			"componentType":5126,
			"count":30,
			"type":"VEC2"
		},
		{
			"bufferView":7,
			"componentType":5123,
			"count":54,
			"type":"SCALAR"
		},
		{
			"bufferView":8,
			"componentType":5126,
			"count":24,
			"max":[
				1,
				0.05906692519783974,
				0.31664782762527466
			],
			"min":[
				-0.6836779117584229,
				-0.018005751073360443,
				-0.31664782762527466
			],
			"type":"VEC3"
		},
		{
			"bufferView":9,
			"componentType":5126,
			"count":24,
			"type":"VEC3"
		},
		{
			"bufferView":10,
			"componentType":5126,
			"count":24,
			"type":"VEC2"
		},
		{
			"bufferView":11,
			"componentType":5123,
			"count":36,
			"type":"SCALAR"
		},
		{
			"bufferView":12,
			"componentType":5126,
			"count":24,
			"max":[
				1,
				5.038220405578613,
				0.28202641010284424
			],
			"min":[
				-1.1779077053070068,
				3.481788396835327,
				-0.28202641010284424
			],
			"type":"VEC3"
		},
		{
			"bufferView":13,
			"componentType":5126,
			"count":24,
			"type":"VEC3"
		},
		{
			"bufferView":14,
			"componentType":5126,
			"count":24,
			"type":"VEC2"
		},
		{
			"bufferView":15,
			"componentType":5123,
			"count":36,
			"type":"SCALAR"
		},
		{
			"bufferView":16,
			"componentType":5126,
			"count":24,
			"max":[
				-0.3159903287887573,
				3.679753065109253,
				0.18085485696792603
			],
			"min":[
				-1.1511008739471436,
				0,
				-0.18085485696792603
			],
			"type":"VEC3"
		},
		{
			"bufferView":17,
			"componentType":5126,
			"count":24,
			"type":"VEC3"
		},
		{
			"bufferView":18,
			"componentType":5126,
			"count":24,
			"type":"VEC2"
		},
		{
			"bufferView":19,
			"componentType":5123,
			"count":36,
			"type":"SCALAR"
		},
		{
			"bufferView":20,
			"componentType":5126,
			"count":24,
			"max":[
				-0.5835987329483032,
				5.038220405578613,
				0.28202641010284424
			],
			"min":[
				-1.1779077053070068,
				0,
				-0.28202641010284424
			],
			"type":"VEC3"
		},
		{
			"bufferView":21,
			"componentType":5126,
			"count":24,
			"type":"VEC3"
		},
		{
			"bufferView":22,
			"componentType":5126,
			"count":24,
			"type":"VEC2"
		},
		{
			"bufferView":23,
			"componentType":5123,
			"count":36,
			"type":"SCALAR"
		},
		{
			"bufferView":24,
			"componentType":5126,
			"count":24,
			"max":[
				-0.1795111894607544,
				1.208080530166626,
				0.25755664706230164
			],
			"min":[
				-1.0146217346191406,
				0,
				-0.25755664706230164
			],
			"type":"VEC3"
		},
		{
			"bufferView":25,
			"componentType":5126,
			"count":24,
			"type":"VEC3"
		},
		{
			"bufferView":26,
			"componentType":5126,
			"count":24,
			"type":"VEC2"
		},
		{
			"bufferView":27,
			"componentType":5123,
			"count":36,
			"type":"SCALAR"
		}
	],
	"bufferViews":[
		{
			"buffer":0,
			"byteLength":2424,
			"byteOffset":0,
			"target":34962
		},
		{
			"buffer":0,
			"byteLength":2424,
			"byteOffset":2424,
			"target":34962
		},
		{
			"buffer":0,
			"byteLength":1616,
			"byteOffset":4848,
			"target":34962
		},
		{
			"buffer":0,
			"byteLength":864,
			"byteOffset":6464,
			"target":34963
		},
		{
			"buffer":0,
			"byteLength":360,
			"byteOffset":7328,
			"target":34962
		},
		{
			"buffer":0,
			"byteLength":360,
			"byteOffset":7688,
			"target":34962
		},
		{
			"buffer":0,
			"byteLength":240,
			"byteOffset":8048,
			"target":34962
		},
		{
			"buffer":0,
			"byteLength":108,
			"byteOffset":8288,
			"target":34963
		},
		{
			"buffer":0,
			"byteLength":288,
			"byteOffset":8396,
			"target":34962
		},
		{
			"buffer":0,
			"byteLength":288,
			"byteOffset":8684,
			"target":34962
		},
		{
			"buffer":0,
			"byteLength":192,
			"byteOffset":8972,
			"target":34962
		},
		{
			"buffer":0,
			"byteLength":72,
			"byteOffset":9164,
			"target":34963
		},
		{
			"buffer":0,
			"byteLength":288,
			"byteOffset":9236,
			"target":34962
		},
		{
			"buffer":0,
			"byteLength":288,
			"byteOffset":9524,
			"target":34962
		},
		{
			"buffer":0,
			"byteLength":192,
			"byteOffset":9812,
			"target":34962
		},
		{
			"buffer":0,
			"byteLength":72,
			"byteOffset":10004,
			"target":34963
		},
		{
			"buffer":0,
			"byteLength":288,
			"byteOffset":10076,
			"target":34962
		},
		{
			"buffer":0,
			"byteLength":288,
			"byteOffset":10364,
			"target":34962
		},
		{
			"buffer":0,
			"byteLength":192,
			"byteOffset":10652,
			"target":34962
		},
		{
			"buffer":0,
			"byteLength":72,
			"byteOffset":10844,
			"target":34963
		},
		{
			"buffer":0,
			"byteLength":288,
			"byteOffset":10916,
			"target":34962
		},
		{
			"buffer":0,
			"byteLength":288,
			"byteOffset":11204,
			"target":34962
		},
		{
			"buffer":0,
			"byteLength":192,
			"byteOffset":11492,
			"target":34962
		},
		{
			"buffer":0,
			"byteLength":72,
			"byteOffset":11684,
			"target":34963
		},
		{
			"buffer":0,
			"byteLength":288,
			"byteOffset":11756,
			"target":34962
		},
		{
			"buffer":0,
			"byteLength":288,
			"byteOffset":12044,
			"target":34962
		},
		{
			"buffer":0,
			"byteLength":192,
			"byteOffset":12332,
			"target":34962
		},
		{
			"buffer":0,
			"byteLength":72,
			"byteOffset":12524,
			"target":34963
		}
	],
	"samplers":[
		{
			"magFilter":9729,
			"minFilter":9987
		}
	],
	"buffers":[
		{
			"byteLength":12596,
			"uri":"Door_Frame_Square_Side.bin"
		}
	]
}
