{
	"asset":{
		"generator":"Khronos glTF Blender I/O v4.0.44",
		"version":"2.0"
	},
	"extensionsUsed":[
		"KHR_materials_specular",
		"KHR_materials_ior"
	],
	"scene":0,
	"scenes":[
		{
			"name":"Scene",
			"nodes":[
				0,
				1,
				2,
				3,
				4,
				5,
				6,
				7,
				8
			]
		}
	],
	"nodes":[
		{
			"mesh":0,
			"name":"Door_Frame_SquareTall"
		},
		{
			"mesh":1,
			"name":"Door_Frame_SquareTall_08_convcolonly"
		},
		{
			"mesh":2,
			"name":"Door_Frame_SquareTall_01_convcolonly"
		},
		{
			"mesh":3,
			"name":"Door_Frame_SquareTall_03_convcolonly"
		},
		{
			"mesh":4,
			"name":"Door_Frame_SquareTall_02_convcolonly"
		},
		{
			"mesh":5,
			"name":"Door_Frame_SquareTall_04_convcolonly"
		},
		{
			"mesh":6,
			"name":"Door_Frame_SquareTall_07_convcolonly"
		},
		{
			"mesh":7,
			"name":"Door_Frame_SquareTall_05_convcolonly"
		},
		{
			"mesh":8,
			"name":"Door_Frame_SquareTall_06_convcolonly"
		}
	],
	"materials":[
		{
			"doubleSided":true,
			"extensions":{
				"KHR_materials_specular":{
					"specularFactor":0
				},
				"KHR_materials_ior":{
					"ior":1.4500000476837158
				}
			},
			"name":"MI_Trim_01",
			"normalTexture":{
				"index":0
			},
			"pbrMetallicRoughness":{
				"baseColorTexture":{
					"index":1
				},
				"metallicRoughnessTexture":{
					"index":2
				}
			}
		}
	],
	"meshes":[
		{
			"name":"Cube.002",
			"primitives":[
				{
					"attributes":{
						"POSITION":0,
						"NORMAL":1,
						"TEXCOORD_0":2
					},
					"indices":3,
					"material":0
				}
			]
		},
		{
			"name":"Cube.395",
			"primitives":[
				{
					"attributes":{
						"POSITION":4,
						"NORMAL":5,
						"TEXCOORD_0":6
					},
					"indices":7
				}
			]
		},
		{
			"name":"Cube.387",
			"primitives":[
				{
					"attributes":{
						"POSITION":8,
						"NORMAL":9,
						"TEXCOORD_0":10
					},
					"indices":11
				}
			]
		},
		{
			"name":"Cube.389",
			"primitives":[
				{
					"attributes":{
						"POSITION":12,
						"NORMAL":13,
						"TEXCOORD_0":14
					},
					"indices":15
				}
			]
		},
		{
			"name":"Cube.388",
			"primitives":[
				{
					"attributes":{
						"POSITION":16,
						"NORMAL":17,
						"TEXCOORD_0":18
					},
					"indices":19
				}
			]
		},
		{
			"name":"Cube.390",
			"primitives":[
				{
					"attributes":{
						"POSITION":20,
						"NORMAL":21,
						"TEXCOORD_0":22
					},
					"indices":23
				}
			]
		},
		{
			"name":"Cube.394",
			"primitives":[
				{
					"attributes":{
						"POSITION":24,
						"NORMAL":25,
						"TEXCOORD_0":26
					},
					"indices":27
				}
			]
		},
		{
			"name":"Cube.392",
			"primitives":[
				{
					"attributes":{
						"POSITION":28,
						"NORMAL":29,
						"TEXCOORD_0":30
					},
					"indices":31
				}
			]
		},
		{
			"name":"Cube.393",
			"primitives":[
				{
					"attributes":{
						"POSITION":32,
						"NORMAL":33,
						"TEXCOORD_0":34
					},
					"indices":35
				}
			]
		}
	],
	"textures":[
		{
			"sampler":0,
			"source":0
		},
		{
			"sampler":0,
			"source":1
		},
		{
			"sampler":0,
			"source":2
		}
	],
	"images":[
		{
			"mimeType":"image/png",
			"name":"T_Trim_01_Normal",
			"uri":"T_Trim_01_Normal.png"
		},
		{
			"mimeType":"image/png",
			"name":"T_Trim_01_BaseColor_Red",
			"uri":"T_Trim_01_BaseColor_Red.png"
		},
		{
			"mimeType":"image/png",
			"name":"T_Trim_01_ORM",
			"uri":"T_Trim_01_ORM.png"
		}
	],
	"accessors":[
		{
			"bufferView":0,
			"componentType":5126,
			"count":386,
			"max":[
				2.4218735694885254,
				5,
				0.25342464447021484
			],
			"min":[
				-2.4218735694885254,
				-0.013425212353467941,
				-0.25342464447021484
			],
			"type":"VEC3"
		},
		{
			"bufferView":1,
			"componentType":5126,
			"count":386,
			"type":"VEC3"
		},
		{
			"bufferView":2,
			"componentType":5126,
			"count":386,
			"type":"VEC2"
		},
		{
			"bufferView":3,
			"componentType":5123,
			"count":816,
			"type":"SCALAR"
		},
		{
			"bufferView":4,
			"componentType":5126,
			"count":24,
			"max":[
				-1.195912480354309,
				1.208080530166626,
				0.25755664706230164
			],
			"min":[
				-2.0310230255126953,
				0,
				-0.25755664706230164
			],
			"type":"VEC3"
		},
		{
			"bufferView":5,
			"componentType":5126,
			"count":24,
			"type":"VEC3"
		},
		{
			"bufferView":6,
			"componentType":5126,
			"count":24,
			"type":"VEC2"
		},
		{
			"bufferView":7,
			"componentType":5123,
			"count":36,
			"type":"SCALAR"
		},
		{
			"bufferView":8,
			"componentType":5126,
			"count":24,
			"max":[
				2.0310230255126953,
				1.208080530166626,
				0.25755664706230164
			],
			"min":[
				1.195912480354309,
				0,
				-0.25755664706230164
			],
			"type":"VEC3"
		},
		{
			"bufferView":9,
			"componentType":5126,
			"count":24,
			"type":"VEC3"
		},
		{
			"bufferView":10,
			"componentType":5126,
			"count":24,
			"type":"VEC2"
		},
		{
			"bufferView":11,
			"componentType":5123,
			"count":36,
			"type":"SCALAR"
		},
		{
			"bufferView":12,
			"componentType":5126,
			"count":24,
			"max":[
				2.4189200401306152,
				5.038220405578613,
				0.28202641010284424
			],
			"min":[
				-2.435110569000244,
				4.323186874389648,
				-0.28202641010284424
			],
			"type":"VEC3"
		},
		{
			"bufferView":13,
			"componentType":5126,
			"count":24,
			"type":"VEC3"
		},
		{
			"bufferView":14,
			"componentType":5126,
			"count":24,
			"type":"VEC2"
		},
		{
			"bufferView":15,
			"componentType":5123,
			"count":36,
			"type":"SCALAR"
		},
		{
			"bufferView":16,
			"componentType":5126,
			"count":24,
			"max":[
				1.7428886890411377,
				0.05906692519783974,
				0.31664782762527466
			],
			"min":[
				-1.7000792026519775,
				-0.018005751073360443,
				-0.31664782762527466
			],
			"type":"VEC3"
		},
		{
			"bufferView":17,
			"componentType":5126,
			"count":24,
			"type":"VEC3"
		},
		{
			"bufferView":18,
			"componentType":5126,
			"count":24,
			"type":"VEC2"
		},
		{
			"bufferView":19,
			"componentType":5123,
			"count":36,
			"type":"SCALAR"
		},
		{
			"bufferView":20,
			"componentType":5126,
			"count":24,
			"max":[
				-1.600000023841858,
				5.038220405578613,
				0.28202641010284424
			],
			"min":[
				-2.435110569000244,
				0,
				-0.28202641010284424
			],
			"type":"VEC3"
		},
		{
			"bufferView":21,
			"componentType":5126,
			"count":24,
			"type":"VEC3"
		},
		{
			"bufferView":22,
			"componentType":5126,
			"count":24,
			"type":"VEC2"
		},
		{
			"bufferView":23,
			"componentType":5123,
			"count":36,
			"type":"SCALAR"
		},
		{
			"bufferView":24,
			"componentType":5126,
			"count":24,
			"max":[
				2.1675021648406982,
				4.4276628494262695,
				0.18085485696792603
			],
			"min":[
				1.332391619682312,
				0,
				-0.18085485696792603
			],
			"type":"VEC3"
		},
		{
			"bufferView":25,
			"componentType":5126,
			"count":24,
			"type":"VEC3"
		},
		{
			"bufferView":26,
			"componentType":5126,
			"count":24,
			"type":"VEC2"
		},
		{
			"bufferView":27,
			"componentType":5123,
			"count":36,
			"type":"SCALAR"
		},
		{
			"bufferView":28,
			"componentType":5126,
			"count":24,
			"max":[
				2.435110569000244,
				5.038220405578613,
				0.28202641010284424
			],
			"min":[
				1.600000023841858,
				0,
				-0.28202641010284424
			],
			"type":"VEC3"
		},
		{
			"bufferView":29,
			"componentType":5126,
			"count":24,
			"type":"VEC3"
		},
		{
			"bufferView":30,
			"componentType":5126,
			"count":24,
			"type":"VEC2"
		},
		{
			"bufferView":31,
			"componentType":5123,
			"count":36,
			"type":"SCALAR"
		},
		{
			"bufferView":32,
			"componentType":5126,
			"count":24,
			"max":[
				-1.332391619682312,
				4.4276628494262695,
				0.18085485696792603
			],
			"min":[
				-2.1675021648406982,
				0,
				-0.18085485696792603
			],
			"type":"VEC3"
		},
		{
			"bufferView":33,
			"componentType":5126,
			"count":24,
			"type":"VEC3"
		},
		{
			"bufferView":34,
			"componentType":5126,
			"count":24,
			"type":"VEC2"
		},
		{
			"bufferView":35,
			"componentType":5123,
			"count":36,
			"type":"SCALAR"
		}
	],
	"bufferViews":[
		{
			"buffer":0,
			"byteLength":4632,
			"byteOffset":0,
			"target":34962
		},
		{
			"buffer":0,
			"byteLength":4632,
			"byteOffset":4632,
			"target":34962
		},
		{
			"buffer":0,
			"byteLength":3088,
			"byteOffset":9264,
			"target":34962
		},
		{
			"buffer":0,
			"byteLength":1632,
			"byteOffset":12352,
			"target":34963
		},
		{
			"buffer":0,
			"byteLength":288,
			"byteOffset":13984,
			"target":34962
		},
		{
			"buffer":0,
			"byteLength":288,
			"byteOffset":14272,
			"target":34962
		},
		{
			"buffer":0,
			"byteLength":192,
			"byteOffset":14560,
			"target":34962
		},
		{
			"buffer":0,
			"byteLength":72,
			"byteOffset":14752,
			"target":34963
		},
		{
			"buffer":0,
			"byteLength":288,
			"byteOffset":14824,
			"target":34962
		},
		{
			"buffer":0,
			"byteLength":288,
			"byteOffset":15112,
			"target":34962
		},
		{
			"buffer":0,
			"byteLength":192,
			"byteOffset":15400,
			"target":34962
		},
		{
			"buffer":0,
			"byteLength":72,
			"byteOffset":15592,
			"target":34963
		},
		{
			"buffer":0,
			"byteLength":288,
			"byteOffset":15664,
			"target":34962
		},
		{
			"buffer":0,
			"byteLength":288,
			"byteOffset":15952,
			"target":34962
		},
		{
			"buffer":0,
			"byteLength":192,
			"byteOffset":16240,
			"target":34962
		},
		{
			"buffer":0,
			"byteLength":72,
			"byteOffset":16432,
			"target":34963
		},
		{
			"buffer":0,
			"byteLength":288,
			"byteOffset":16504,
			"target":34962
		},
		{
			"buffer":0,
			"byteLength":288,
			"byteOffset":16792,
			"target":34962
		},
		{
			"buffer":0,
			"byteLength":192,
			"byteOffset":17080,
			"target":34962
		},
		{
			"buffer":0,
			"byteLength":72,
			"byteOffset":17272,
			"target":34963
		},
		{
			"buffer":0,
			"byteLength":288,
			"byteOffset":17344,
			"target":34962
		},
		{
			"buffer":0,
			"byteLength":288,
			"byteOffset":17632,
			"target":34962
		},
		{
			"buffer":0,
			"byteLength":192,
			"byteOffset":17920,
			"target":34962
		},
		{
			"buffer":0,
			"byteLength":72,
			"byteOffset":18112,
			"target":34963
		},
		{
			"buffer":0,
			"byteLength":288,
			"byteOffset":18184,
			"target":34962
		},
		{
			"buffer":0,
			"byteLength":288,
			"byteOffset":18472,
			"target":34962
		},
		{
			"buffer":0,
			"byteLength":192,
			"byteOffset":18760,
			"target":34962
		},
		{
			"buffer":0,
			"byteLength":72,
			"byteOffset":18952,
			"target":34963
		},
		{
			"buffer":0,
			"byteLength":288,
			"byteOffset":19024,
			"target":34962
		},
		{
			"buffer":0,
			"byteLength":288,
			"byteOffset":19312,
			"target":34962
		},
		{
			"buffer":0,
			"byteLength":192,
			"byteOffset":19600,
			"target":34962
		},
		{
			"buffer":0,
			"byteLength":72,
			"byteOffset":19792,
			"target":34963
		},
		{
			"buffer":0,
			"byteLength":288,
			"byteOffset":19864,
			"target":34962
		},
		{
			"buffer":0,
			"byteLength":288,
			"byteOffset":20152,
			"target":34962
		},
		{
			"buffer":0,
			"byteLength":192,
			"byteOffset":20440,
			"target":34962
		},
		{
			"buffer":0,
			"byteLength":72,
			"byteOffset":20632,
			"target":34963
		}
	],
	"samplers":[
		{
			"magFilter":9729,
			"minFilter":9987
		}
	],
	"buffers":[
		{
			"byteLength":20704,
			"uri":"Door_Frame_SquareTall.bin"
		}
	]
}
