{
	"asset":{
		"generator":"Khronos glTF Blender I/O v4.0.44",
		"version":"2.0"
	},
	"extensionsUsed":[
		"KHR_materials_specular",
		"KHR_materials_ior"
	],
	"scene":0,
	"scenes":[
		{
			"name":"Scene",
			"nodes":[
				0,
				1
			]
		}
	],
	"nodes":[
		{
			"mesh":0,
			"name":"Door_Frame_Square_Blocked"
		},
		{
			"mesh":1,
			"name":"Door_Frame_Square_Blocked_1_convcolonly"
		}
	],
	"materials":[
		{
			"doubleSided":true,
			"extensions":{
				"KHR_materials_specular":{
					"specularFactor":0
				},
				"KHR_materials_ior":{
					"ior":1.4500000476837158
				}
			},
			"name":"MI_Trim_01",
			"normalTexture":{
				"index":0
			},
			"pbrMetallicRoughness":{
				"baseColorTexture":{
					"index":1
				},
				"metallicRoughnessTexture":{
					"index":2
				}
			}
		}
	],
	"meshes":[
		{
			"name":"Cube.213",
			"primitives":[
				{
					"attributes":{
						"POSITION":0,
						"NORMAL":1,
						"TEXCOORD_0":2
					},
					"indices":3,
					"material":0
				}
			]
		},
		{
			"name":"Cube.214",
			"primitives":[
				{
					"attributes":{
						"POSITION":4,
						"NORMAL":5,
						"TEXCOORD_0":6
					},
					"indices":7
				}
			]
		}
	],
	"textures":[
		{
			"sampler":0,
			"source":0
		},
		{
			"sampler":0,
			"source":1
		},
		{
			"sampler":0,
			"source":2
		}
	],
	"images":[
		{
			"mimeType":"image/png",
			"name":"T_Trim_01_Normal",
			"uri":"T_Trim_01_Normal.png"
		},
		{
			"mimeType":"image/png",
			"name":"T_Trim_01_BaseColor_Red",
			"uri":"T_Trim_01_BaseColor_Red.png"
		},
		{
			"mimeType":"image/png",
			"name":"T_Trim_01_ORM",
			"uri":"T_Trim_01_ORM.png"
		}
	],
	"accessors":[
		{
			"bufferView":0,
			"componentType":5126,
			"count":54,
			"max":[
				2.426724910736084,
				4.999999523162842,
				0.25342464447021484
			],
			"min":[
				-2.426724910736084,
				0,
				-0.25342464447021484
			],
			"type":"VEC3"
		},
		{
			"bufferView":1,
			"componentType":5126,
			"count":54,
			"type":"VEC3"
		},
		{
			"bufferView":2,
			"componentType":5126,
			"count":54,
			"type":"VEC2"
		},
		{
			"bufferView":3,
			"componentType":5123,
			"count":144,
			"type":"SCALAR"
		},
		{
			"bufferView":4,
			"componentType":5126,
			"count":24,
			"max":[
				2.4244775772094727,
				5,
				0.2532278597354889
			],
			"min":[
				-2.4244775772094727,
				-5.960464477539063e-08,
				-0.2532278597354889
			],
			"type":"VEC3"
		},
		{
			"bufferView":5,
			"componentType":5126,
			"count":24,
			"type":"VEC3"
		},
		{
			"bufferView":6,
			"componentType":5126,
			"count":24,
			"type":"VEC2"
		},
		{
			"bufferView":7,
			"componentType":5123,
			"count":36,
			"type":"SCALAR"
		}
	],
	"bufferViews":[
		{
			"buffer":0,
			"byteLength":648,
			"byteOffset":0,
			"target":34962
		},
		{
			"buffer":0,
			"byteLength":648,
			"byteOffset":648,
			"target":34962
		},
		{
			"buffer":0,
			"byteLength":432,
			"byteOffset":1296,
			"target":34962
		},
		{
			"buffer":0,
			"byteLength":288,
			"byteOffset":1728,
			"target":34963
		},
		{
			"buffer":0,
			"byteLength":288,
			"byteOffset":2016,
			"target":34962
		},
		{
			"buffer":0,
			"byteLength":288,
			"byteOffset":2304,
			"target":34962
		},
		{
			"buffer":0,
			"byteLength":192,
			"byteOffset":2592,
			"target":34962
		},
		{
			"buffer":0,
			"byteLength":72,
			"byteOffset":2784,
			"target":34963
		}
	],
	"samplers":[
		{
			"magFilter":9729,
			"minFilter":9987
		}
	],
	"buffers":[
		{
			"byteLength":2856,
			"uri":"Door_Frame_Square_Blocked.bin"
		}
	]
}
