{
	"asset":{
		"generator":"Khronos glTF Blender I/O v4.0.44",
		"version":"2.0"
	},
	"extensionsUsed":[
		"KHR_materials_specular",
		"KHR_materials_ior"
	],
	"scene":0,
	"scenes":[
		{
			"name":"Scene",
			"nodes":[
				0,
				1,
				2,
				3,
				4,
				5,
				6,
				7,
				8,
				9,
				10,
				11
			]
		}
	],
	"nodes":[
		{
			"mesh":0,
			"name":"Door_Frame_Square_Symmetric"
		},
		{
			"mesh":1,
			"name":"Door_Frame_Square_Symmetric_03_convcolonly"
		},
		{
			"mesh":2,
			"name":"Door_Frame_Square_Symmetric_05_convcolonly"
		},
		{
			"mesh":3,
			"name":"Door_Frame_Square_Symmetric_07_convcolonly"
		},
		{
			"mesh":4,
			"name":"Door_Frame_Square_Symmetric_01_convcolonly"
		},
		{
			"mesh":5,
			"name":"Door_Frame_Square_Symmetric_08_convcolonly"
		},
		{
			"mesh":6,
			"name":"Door_Frame_Square_Symmetric_09_convcolonly"
		},
		{
			"mesh":7,
			"name":"Door_Frame_Square_Symmetric_02_convcolonly"
		},
		{
			"mesh":8,
			"name":"Door_Frame_Square_Symmetric_10_convcolonly"
		},
		{
			"mesh":9,
			"name":"Door_Frame_Square_Symmetric_04_convcolonly"
		},
		{
			"mesh":10,
			"name":"Door_Frame_Square_Symmetric_06_convcolonly"
		},
		{
			"mesh":11,
			"name":"Door_Frame_Square_Symmetric_11_convcolonly"
		}
	],
	"materials":[
		{
			"doubleSided":true,
			"extensions":{
				"KHR_materials_specular":{
					"specularFactor":0
				},
				"KHR_materials_ior":{
					"ior":1.4500000476837158
				}
			},
			"name":"MI_Trim_01",
			"normalTexture":{
				"index":0
			},
			"pbrMetallicRoughness":{
				"baseColorTexture":{
					"index":1
				},
				"metallicRoughnessTexture":{
					"index":2
				}
			}
		}
	],
	"meshes":[
		{
			"name":"Cube.014",
			"primitives":[
				{
					"attributes":{
						"POSITION":0,
						"NORMAL":1,
						"TEXCOORD_0":2
					},
					"indices":3,
					"material":0
				}
			]
		},
		{
			"name":"Cube.377",
			"primitives":[
				{
					"attributes":{
						"POSITION":4,
						"NORMAL":5,
						"TEXCOORD_0":6
					},
					"indices":7
				}
			]
		},
		{
			"name":"Cube.379",
			"primitives":[
				{
					"attributes":{
						"POSITION":8,
						"NORMAL":9,
						"TEXCOORD_0":10
					},
					"indices":11
				}
			]
		},
		{
			"name":"Cube.382",
			"primitives":[
				{
					"attributes":{
						"POSITION":12,
						"NORMAL":13,
						"TEXCOORD_0":14
					},
					"indices":15
				}
			]
		},
		{
			"name":"Cube.375",
			"primitives":[
				{
					"attributes":{
						"POSITION":16,
						"NORMAL":17,
						"TEXCOORD_0":18
					},
					"indices":19
				}
			]
		},
		{
			"name":"Cube.383",
			"primitives":[
				{
					"attributes":{
						"POSITION":20,
						"NORMAL":21,
						"TEXCOORD_0":22
					},
					"indices":23
				}
			]
		},
		{
			"name":"Cube.384",
			"primitives":[
				{
					"attributes":{
						"POSITION":24,
						"NORMAL":25,
						"TEXCOORD_0":26
					},
					"indices":27
				}
			]
		},
		{
			"name":"Cube.376",
			"primitives":[
				{
					"attributes":{
						"POSITION":28,
						"NORMAL":29,
						"TEXCOORD_0":30
					},
					"indices":31
				}
			]
		},
		{
			"name":"Cube.385",
			"primitives":[
				{
					"attributes":{
						"POSITION":32,
						"NORMAL":33,
						"TEXCOORD_0":34
					},
					"indices":35
				}
			]
		},
		{
			"name":"Cube.378",
			"primitives":[
				{
					"attributes":{
						"POSITION":36,
						"NORMAL":37,
						"TEXCOORD_0":38
					},
					"indices":39
				}
			]
		},
		{
			"name":"Cube.380",
			"primitives":[
				{
					"attributes":{
						"POSITION":40,
						"NORMAL":41,
						"TEXCOORD_0":42
					},
					"indices":43
				}
			]
		},
		{
			"name":"Cube.386",
			"primitives":[
				{
					"attributes":{
						"POSITION":44,
						"NORMAL":45,
						"TEXCOORD_0":46
					},
					"indices":47
				}
			]
		}
	],
	"textures":[
		{
			"sampler":0,
			"source":0
		},
		{
			"sampler":0,
			"source":1
		},
		{
			"sampler":0,
			"source":2
		}
	],
	"images":[
		{
			"mimeType":"image/png",
			"name":"T_Trim_01_Normal",
			"uri":"T_Trim_01_Normal.png"
		},
		{
			"mimeType":"image/png",
			"name":"T_Trim_01_BaseColor_Red",
			"uri":"T_Trim_01_BaseColor_Red.png"
		},
		{
			"mimeType":"image/png",
			"name":"T_Trim_01_ORM",
			"uri":"T_Trim_01_ORM.png"
		}
	],
	"accessors":[
		{
			"bufferView":0,
			"componentType":5126,
			"count":602,
			"max":[
				2.4218735694885254,
				5,
				0.25342464447021484
			],
			"min":[
				-2.4218735694885254,
				0.010051965713500977,
				-0.25342464447021484
			],
			"type":"VEC3"
		},
		{
			"bufferView":1,
			"componentType":5126,
			"count":602,
			"type":"VEC3"
		},
		{
			"bufferView":2,
			"componentType":5126,
			"count":602,
			"type":"VEC2"
		},
		{
			"bufferView":3,
			"componentType":5123,
			"count":1296,
			"type":"SCALAR"
		},
		{
			"bufferView":4,
			"componentType":5126,
			"count":24,
			"max":[
				-1.600000023841858,
				5.038220405578613,
				0.28202641010284424
			],
			"min":[
				-2.435110569000244,
				0,
				-0.28202641010284424
			],
			"type":"VEC3"
		},
		{
			"bufferView":5,
			"componentType":5126,
			"count":24,
			"type":"VEC3"
		},
		{
			"bufferView":6,
			"componentType":5126,
			"count":24,
			"type":"VEC2"
		},
		{
			"bufferView":7,
			"componentType":5123,
			"count":36,
			"type":"SCALAR"
		},
		{
			"bufferView":8,
			"componentType":5126,
			"count":24,
			"max":[
				-1.332391619682312,
				4.4406328201293945,
				0.18085485696792603
			],
			"min":[
				-2.1675021648406982,
				0,
				-0.18085485696792603
			],
			"type":"VEC3"
		},
		{
			"bufferView":9,
			"componentType":5126,
			"count":24,
			"type":"VEC3"
		},
		{
			"bufferView":10,
			"componentType":5126,
			"count":24,
			"type":"VEC2"
		},
		{
			"bufferView":11,
			"componentType":5123,
			"count":36,
			"type":"SCALAR"
		},
		{
			"bufferView":12,
			"componentType":5126,
			"count":24,
			"max":[
				1.9840177297592163,
				4.959571838378906,
				0.1808549463748932
			],
			"min":[
				0.7415125370025635,
				3.950835943222046,
				-0.1808548867702484
			],
			"type":"VEC3"
		},
		{
			"bufferView":13,
			"componentType":5126,
			"count":24,
			"type":"VEC3"
		},
		{
			"bufferView":14,
			"componentType":5126,
			"count":24,
			"type":"VEC2"
		},
		{
			"bufferView":15,
			"componentType":5123,
			"count":36,
			"type":"SCALAR"
		},
		{
			"bufferView":16,
			"componentType":5126,
			"count":24,
			"max":[
				1.7428886890411377,
				0.05906692519783974,
				0.31664782762527466
			],
			"min":[
				-1.7000792026519775,
				-0.018005751073360443,
				-0.31664782762527466
			],
			"type":"VEC3"
		},
		{
			"bufferView":17,
			"componentType":5126,
			"count":24,
			"type":"VEC3"
		},
		{
			"bufferView":18,
			"componentType":5126,
			"count":24,
			"type":"VEC2"
		},
		{
			"bufferView":19,
			"componentType":5123,
			"count":36,
			"type":"SCALAR"
		},
		{
			"bufferView":20,
			"componentType":5126,
			"count":24,
			"max":[
				-0.7415125370025635,
				4.959571838378906,
				0.1808549463748932
			],
			"min":[
				-1.9840177297592163,
				3.950835943222046,
				-0.1808548867702484
			],
			"type":"VEC3"
		},
		{
			"bufferView":21,
			"componentType":5126,
			"count":24,
			"type":"VEC3"
		},
		{
			"bufferView":22,
			"componentType":5126,
			"count":24,
			"type":"VEC2"
		},
		{
			"bufferView":23,
			"componentType":5123,
			"count":36,
			"type":"SCALAR"
		},
		{
			"bufferView":24,
			"componentType":5126,
			"count":24,
			"max":[
				1.9840177297592163,
				0.7485140562057495,
				0.1808549463748932
			],
			"min":[
				0.7415125370025635,
				-0.001641988754272461,
				-0.1808548867702484
			],
			"type":"VEC3"
		},
		{
			"bufferView":25,
			"componentType":5126,
			"count":24,
			"type":"VEC3"
		},
		{
			"bufferView":26,
			"componentType":5126,
			"count":24,
			"type":"VEC2"
		},
		{
			"bufferView":27,
			"componentType":5123,
			"count":36,
			"type":"SCALAR"
		},
		{
			"bufferView":28,
			"componentType":5126,
			"count":24,
			"max":[
				2.4189200401306152,
				5.038220405578613,
				0.28202641010284424
			],
			"min":[
				-2.435110569000244,
				4.315842628479004,
				-0.28202641010284424
			],
			"type":"VEC3"
		},
		{
			"bufferView":29,
			"componentType":5126,
			"count":24,
			"type":"VEC3"
		},
		{
			"bufferView":30,
			"componentType":5126,
			"count":24,
			"type":"VEC2"
		},
		{
			"bufferView":31,
			"componentType":5123,
			"count":36,
			"type":"SCALAR"
		},
		{
			"bufferView":32,
			"componentType":5126,
			"count":24,
			"max":[
				-0.7415125370025635,
				0.7485140562057495,
				0.18085496127605438
			],
			"min":[
				-1.9840177297592163,
				0.024743705987930298,
				-0.1808548867702484
			],
			"type":"VEC3"
		},
		{
			"bufferView":33,
			"componentType":5126,
			"count":24,
			"type":"VEC3"
		},
		{
			"bufferView":34,
			"componentType":5126,
			"count":24,
			"type":"VEC2"
		},
		{
			"bufferView":35,
			"componentType":5123,
			"count":36,
			"type":"SCALAR"
		},
		{
			"bufferView":36,
			"componentType":5126,
			"count":24,
			"max":[
				2.435110569000244,
				5.038220405578613,
				0.28202641010284424
			],
			"min":[
				1.600000023841858,
				0,
				-0.28202641010284424
			],
			"type":"VEC3"
		},
		{
			"bufferView":37,
			"componentType":5126,
			"count":24,
			"type":"VEC3"
		},
		{
			"bufferView":38,
			"componentType":5126,
			"count":24,
			"type":"VEC2"
		},
		{
			"bufferView":39,
			"componentType":5123,
			"count":36,
			"type":"SCALAR"
		},
		{
			"bufferView":40,
			"componentType":5126,
			"count":24,
			"max":[
				2.1675021648406982,
				4.4406328201293945,
				0.18085485696792603
			],
			"min":[
				1.332391619682312,
				0,
				-0.18085485696792603
			],
			"type":"VEC3"
		},
		{
			"bufferView":41,
			"componentType":5126,
			"count":24,
			"type":"VEC3"
		},
		{
			"bufferView":42,
			"componentType":5126,
			"count":24,
			"type":"VEC2"
		},
		{
			"bufferView":43,
			"componentType":5123,
			"count":36,
			"type":"SCALAR"
		},
		{
			"bufferView":44,
			"componentType":5126,
			"count":48,
			"max":[
				2.4189200401306152,
				0.3946208953857422,
				0.286706805229187
			],
			"min":[
				-2.436718225479126,
				0,
				-0.286706805229187
			],
			"type":"VEC3"
		},
		{
			"bufferView":45,
			"componentType":5126,
			"count":48,
			"type":"VEC3"
		},
		{
			"bufferView":46,
			"componentType":5126,
			"count":48,
			"type":"VEC2"
		},
		{
			"bufferView":47,
			"componentType":5123,
			"count":72,
			"type":"SCALAR"
		}
	],
	"bufferViews":[
		{
			"buffer":0,
			"byteLength":7224,
			"byteOffset":0,
			"target":34962
		},
		{
			"buffer":0,
			"byteLength":7224,
			"byteOffset":7224,
			"target":34962
		},
		{
			"buffer":0,
			"byteLength":4816,
			"byteOffset":14448,
			"target":34962
		},
		{
			"buffer":0,
			"byteLength":2592,
			"byteOffset":19264,
			"target":34963
		},
		{
			"buffer":0,
			"byteLength":288,
			"byteOffset":21856,
			"target":34962
		},
		{
			"buffer":0,
			"byteLength":288,
			"byteOffset":22144,
			"target":34962
		},
		{
			"buffer":0,
			"byteLength":192,
			"byteOffset":22432,
			"target":34962
		},
		{
			"buffer":0,
			"byteLength":72,
			"byteOffset":22624,
			"target":34963
		},
		{
			"buffer":0,
			"byteLength":288,
			"byteOffset":22696,
			"target":34962
		},
		{
			"buffer":0,
			"byteLength":288,
			"byteOffset":22984,
			"target":34962
		},
		{
			"buffer":0,
			"byteLength":192,
			"byteOffset":23272,
			"target":34962
		},
		{
			"buffer":0,
			"byteLength":72,
			"byteOffset":23464,
			"target":34963
		},
		{
			"buffer":0,
			"byteLength":288,
			"byteOffset":23536,
			"target":34962
		},
		{
			"buffer":0,
			"byteLength":288,
			"byteOffset":23824,
			"target":34962
		},
		{
			"buffer":0,
			"byteLength":192,
			"byteOffset":24112,
			"target":34962
		},
		{
			"buffer":0,
			"byteLength":72,
			"byteOffset":24304,
			"target":34963
		},
		{
			"buffer":0,
			"byteLength":288,
			"byteOffset":24376,
			"target":34962
		},
		{
			"buffer":0,
			"byteLength":288,
			"byteOffset":24664,
			"target":34962
		},
		{
			"buffer":0,
			"byteLength":192,
			"byteOffset":24952,
			"target":34962
		},
		{
			"buffer":0,
			"byteLength":72,
			"byteOffset":25144,
			"target":34963
		},
		{
			"buffer":0,
			"byteLength":288,
			"byteOffset":25216,
			"target":34962
		},
		{
			"buffer":0,
			"byteLength":288,
			"byteOffset":25504,
			"target":34962
		},
		{
			"buffer":0,
			"byteLength":192,
			"byteOffset":25792,
			"target":34962
		},
		{
			"buffer":0,
			"byteLength":72,
			"byteOffset":25984,
			"target":34963
		},
		{
			"buffer":0,
			"byteLength":288,
			"byteOffset":26056,
			"target":34962
		},
		{
			"buffer":0,
			"byteLength":288,
			"byteOffset":26344,
			"target":34962
		},
		{
			"buffer":0,
			"byteLength":192,
			"byteOffset":26632,
			"target":34962
		},
		{
			"buffer":0,
			"byteLength":72,
			"byteOffset":26824,
			"target":34963
		},
		{
			"buffer":0,
			"byteLength":288,
			"byteOffset":26896,
			"target":34962
		},
		{
			"buffer":0,
			"byteLength":288,
			"byteOffset":27184,
			"target":34962
		},
		{
			"buffer":0,
			"byteLength":192,
			"byteOffset":27472,
			"target":34962
		},
		{
			"buffer":0,
			"byteLength":72,
			"byteOffset":27664,
			"target":34963
		},
		{
			"buffer":0,
			"byteLength":288,
			"byteOffset":27736,
			"target":34962
		},
		{
			"buffer":0,
			"byteLength":288,
			"byteOffset":28024,
			"target":34962
		},
		{
			"buffer":0,
			"byteLength":192,
			"byteOffset":28312,
			"target":34962
		},
		{
			"buffer":0,
			"byteLength":72,
			"byteOffset":28504,
			"target":34963
		},
		{
			"buffer":0,
			"byteLength":288,
			"byteOffset":28576,
			"target":34962
		},
		{
			"buffer":0,
			"byteLength":288,
			"byteOffset":28864,
			"target":34962
		},
		{
			"buffer":0,
			"byteLength":192,
			"byteOffset":29152,
			"target":34962
		},
		{
			"buffer":0,
			"byteLength":72,
			"byteOffset":29344,
			"target":34963
		},
		{
			"buffer":0,
			"byteLength":288,
			"byteOffset":29416,
			"target":34962
		},
		{
			"buffer":0,
			"byteLength":288,
			"byteOffset":29704,
			"target":34962
		},
		{
			"buffer":0,
			"byteLength":192,
			"byteOffset":29992,
			"target":34962
		},
		{
			"buffer":0,
			"byteLength":72,
			"byteOffset":30184,
			"target":34963
		},
		{
			"buffer":0,
			"byteLength":576,
			"byteOffset":30256,
			"target":34962
		},
		{
			"buffer":0,
			"byteLength":576,
			"byteOffset":30832,
			"target":34962
		},
		{
			"buffer":0,
			"byteLength":384,
			"byteOffset":31408,
			"target":34962
		},
		{
			"buffer":0,
			"byteLength":144,
			"byteOffset":31792,
			"target":34963
		}
	],
	"samplers":[
		{
			"magFilter":9729,
			"minFilter":9987
		}
	],
	"buffers":[
		{
			"byteLength":31936,
			"uri":"Door_Frame_Square_Symmetric.bin"
		}
	]
}
