{
	"asset":{
		"generator":"Khronos glTF Blender I/O v4.0.44",
		"version":"2.0"
	},
	"extensionsUsed":[
		"KHR_materials_specular",
		"KHR_materials_ior"
	],
	"scene":0,
	"scenes":[
		{
			"name":"Scene",
			"nodes":[
				0,
				1,
				2,
				3,
				4,
				5,
				6,
				7,
				8
			]
		}
	],
	"nodes":[
		{
			"mesh":0,
			"name":"Door_Frame_A"
		},
		{
			"mesh":1,
			"name":"Door_Frame_A_02_convcolonly"
		},
		{
			"mesh":2,
			"name":"Door_Frame_A_08_convcolonly"
		},
		{
			"mesh":3,
			"name":"Door_Frame_A_07_convcolonly"
		},
		{
			"mesh":4,
			"name":"Door_Frame_A_01_convcolonly"
		},
		{
			"mesh":5,
			"name":"Door_Frame_A_04_convcolonly"
		},
		{
			"mesh":6,
			"name":"Door_Frame_A_03_convcolonly"
		},
		{
			"mesh":7,
			"name":"Door_Frame_A_06_convcolonly"
		},
		{
			"mesh":8,
			"name":"Door_Frame_A_05_convcolonly"
		}
	],
	"materials":[
		{
			"doubleSided":true,
			"extensions":{
				"KHR_materials_specular":{
					"specularFactor":0
				},
				"KHR_materials_ior":{
					"ior":1.4500000476837158
				}
			},
			"name":"MI_Trim_01",
			"normalTexture":{
				"index":0
			},
			"pbrMetallicRoughness":{
				"baseColorTexture":{
					"index":1
				},
				"metallicRoughnessTexture":{
					"index":2
				}
			}
		},
		{
			"doubleSided":true,
			"name":"MI_Trim_02",
			"normalTexture":{
				"index":3
			},
			"pbrMetallicRoughness":{
				"baseColorTexture":{
					"index":4
				},
				"metallicRoughnessTexture":{
					"index":5
				}
			}
		},
		{
			"doubleSided":true,
			"name":"M_Decal_White",
			"pbrMetallicRoughness":{
				"baseColorTexture":{
					"index":6
				},
				"metallicFactor":0,
				"roughnessFactor":0.5
			}
		}
	],
	"meshes":[
		{
			"name":"Cube.004",
			"primitives":[
				{
					"attributes":{
						"POSITION":0,
						"NORMAL":1,
						"TEXCOORD_0":2
					},
					"indices":3,
					"material":0
				},
				{
					"attributes":{
						"POSITION":4,
						"NORMAL":5,
						"TEXCOORD_0":6
					},
					"indices":7,
					"material":1
				},
				{
					"attributes":{
						"POSITION":8,
						"NORMAL":9,
						"TEXCOORD_0":10
					},
					"indices":11,
					"material":2
				}
			]
		},
		{
			"name":"Cube.340",
			"primitives":[
				{
					"attributes":{
						"POSITION":12,
						"NORMAL":13,
						"TEXCOORD_0":14
					},
					"indices":15
				}
			]
		},
		{
			"name":"Cube.361",
			"primitives":[
				{
					"attributes":{
						"POSITION":16,
						"NORMAL":17,
						"TEXCOORD_0":18
					},
					"indices":19
				}
			]
		},
		{
			"name":"Cube.360",
			"primitives":[
				{
					"attributes":{
						"POSITION":20,
						"NORMAL":21,
						"TEXCOORD_0":22
					},
					"indices":23
				}
			]
		},
		{
			"name":"Cube.338",
			"primitives":[
				{
					"attributes":{
						"POSITION":24,
						"NORMAL":25,
						"TEXCOORD_0":26
					},
					"indices":27
				}
			]
		},
		{
			"name":"Cube.347",
			"primitives":[
				{
					"attributes":{
						"POSITION":28,
						"NORMAL":29,
						"TEXCOORD_0":30
					},
					"indices":31
				}
			]
		},
		{
			"name":"Cube.346",
			"primitives":[
				{
					"attributes":{
						"POSITION":32,
						"NORMAL":33,
						"TEXCOORD_0":34
					},
					"indices":35
				}
			]
		},
		{
			"name":"Cube.349",
			"primitives":[
				{
					"attributes":{
						"POSITION":36,
						"NORMAL":37,
						"TEXCOORD_0":38
					},
					"indices":39
				}
			]
		},
		{
			"name":"Cube.348",
			"primitives":[
				{
					"attributes":{
						"POSITION":40,
						"NORMAL":41,
						"TEXCOORD_0":42
					},
					"indices":39
				}
			]
		}
	],
	"textures":[
		{
			"sampler":0,
			"source":0
		},
		{
			"sampler":0,
			"source":1
		},
		{
			"sampler":0,
			"source":2
		},
		{
			"sampler":0,
			"source":3
		},
		{
			"sampler":0,
			"source":4
		},
		{
			"sampler":0,
			"source":5
		},
		{
			"sampler":0,
			"source":6
		}
	],
	"images":[
		{
			"mimeType":"image/png",
			"name":"T_Trim_01_Normal",
			"uri":"T_Trim_01_Normal.png"
		},
		{
			"mimeType":"image/png",
			"name":"T_Trim_01_BaseColor_Red",
			"uri":"T_Trim_01_BaseColor_Red.png"
		},
		{
			"mimeType":"image/png",
			"name":"T_Trim_01_ORM",
			"uri":"T_Trim_01_ORM.png"
		},
		{
			"mimeType":"image/png",
			"name":"T_Trim_02_Normal",
			"uri":"T_Trim_02_Normal.png"
		},
		{
			"mimeType":"image/png",
			"name":"T_Trim_02_BaseColor_Red",
			"uri":"T_Trim_02_BaseColor_Red.png"
		},
		{
			"mimeType":"image/png",
			"name":"T_Trim_02_ORM",
			"uri":"T_Trim_02_ORM.png"
		},
		{
			"mimeType":"image/png",
			"name":"T_Decals",
			"uri":"T_Decals.png"
		}
	],
	"accessors":[
		{
			"bufferView":0,
			"componentType":5126,
			"count":118,
			"max":[
				2.1057209968566895,
				3.834150552749634,
				0.4597216248512268
			],
			"min":[
				-2.1057209968566895,
				-0.11896121501922607,
				-0.44741290807724
			],
			"type":"VEC3"
		},
		{
			"bufferView":1,
			"componentType":5126,
			"count":118,
			"type":"VEC3"
		},
		{
			"bufferView":2,
			"componentType":5126,
			"count":118,
			"type":"VEC2"
		},
		{
			"bufferView":3,
			"componentType":5123,
			"count":216,
			"type":"SCALAR"
		},
		{
			"bufferView":4,
			"componentType":5126,
			"count":140,
			"max":[
				2.4353232383728027,
				5.039759159088135,
				0.45972204208374023
			],
			"min":[
				-2.43532133102417,
				-0.11896121501922607,
				-0.44741290807724
			],
			"type":"VEC3"
		},
		{
			"bufferView":5,
			"componentType":5126,
			"count":140,
			"type":"VEC3"
		},
		{
			"bufferView":6,
			"componentType":5126,
			"count":140,
			"type":"VEC2"
		},
		{
			"bufferView":7,
			"componentType":5123,
			"count":360,
			"type":"SCALAR"
		},
		{
			"bufferView":8,
			"componentType":5126,
			"count":8,
			"max":[
				0.6936212778091431,
				4.833722114562988,
				0.46368831396102905
			],
			"min":[
				-0.6936212778091431,
				3.967651605606079,
				-0.46368831396102905
			],
			"type":"VEC3"
		},
		{
			"bufferView":9,
			"componentType":5126,
			"count":8,
			"type":"VEC3"
		},
		{
			"bufferView":10,
			"componentType":5126,
			"count":8,
			"type":"VEC2"
		},
		{
			"bufferView":11,
			"componentType":5123,
			"count":12,
			"type":"SCALAR"
		},
		{
			"bufferView":12,
			"componentType":5126,
			"count":24,
			"max":[
				-1.5812629461288452,
				0.7707695960998535,
				0.46718573570251465
			],
			"min":[
				-2.435110569000244,
				-0.07898485660552979,
				-0.46718573570251465
			],
			"type":"VEC3"
		},
		{
			"bufferView":13,
			"componentType":5126,
			"count":24,
			"type":"VEC3"
		},
		{
			"bufferView":14,
			"componentType":5126,
			"count":24,
			"type":"VEC2"
		},
		{
			"bufferView":15,
			"componentType":5123,
			"count":36,
			"type":"SCALAR"
		},
		{
			"bufferView":16,
			"componentType":5126,
			"count":24,
			"max":[
				1.7428886890411377,
				0.037098661065101624,
				0.41906294226646423
			],
			"min":[
				-1.7000792026519775,
				-0.03389684855937958,
				-0.41906294226646423
			],
			"type":"VEC3"
		},
		{
			"bufferView":17,
			"componentType":5126,
			"count":24,
			"type":"VEC3"
		},
		{
			"bufferView":18,
			"componentType":5126,
			"count":24,
			"type":"VEC2"
		},
		{
			"bufferView":19,
			"componentType":5123,
			"count":36,
			"type":"SCALAR"
		},
		{
			"bufferView":20,
			"componentType":5126,
			"count":34,
			"max":[
				2.435110569000244,
				5.038220405578613,
				0.46718573570251465
			],
			"min":[
				0.37829476594924927,
				0.7707695960998535,
				-0.46718573570251465
			],
			"type":"VEC3"
		},
		{
			"bufferView":21,
			"componentType":5126,
			"count":34,
			"type":"VEC3"
		},
		{
			"bufferView":22,
			"componentType":5126,
			"count":34,
			"type":"VEC2"
		},
		{
			"bufferView":23,
			"componentType":5123,
			"count":60,
			"type":"SCALAR"
		},
		{
			"bufferView":24,
			"componentType":5126,
			"count":24,
			"max":[
				0.43514567613601685,
				5.038220405578613,
				0.46718573570251465
			],
			"min":[
				-0.4006734788417816,
				3.840902805328369,
				-0.46718573570251465
			],
			"type":"VEC3"
		},
		{
			"bufferView":25,
			"componentType":5126,
			"count":24,
			"type":"VEC3"
		},
		{
			"bufferView":26,
			"componentType":5126,
			"count":24,
			"type":"VEC2"
		},
		{
			"bufferView":27,
			"componentType":5123,
			"count":36,
			"type":"SCALAR"
		},
		{
			"bufferView":28,
			"componentType":5126,
			"count":34,
			"max":[
				-0.37829476594924927,
				5.038220405578613,
				0.46718573570251465
			],
			"min":[
				-2.435110569000244,
				0.7707695960998535,
				-0.46718573570251465
			],
			"type":"VEC3"
		},
		{
			"bufferView":29,
			"componentType":5126,
			"count":34,
			"type":"VEC3"
		},
		{
			"bufferView":30,
			"componentType":5126,
			"count":34,
			"type":"VEC2"
		},
		{
			"bufferView":31,
			"componentType":5123,
			"count":60,
			"type":"SCALAR"
		},
		{
			"bufferView":32,
			"componentType":5126,
			"count":24,
			"max":[
				-1.4748345613479614,
				1.0245604515075684,
				0.3568759858608246
			],
			"min":[
				-2.0298638343811035,
				-0.005303680896759033,
				-0.3568759262561798
			],
			"type":"VEC3"
		},
		{
			"bufferView":33,
			"componentType":5126,
			"count":24,
			"type":"VEC3"
		},
		{
			"bufferView":34,
			"componentType":5126,
			"count":24,
			"type":"VEC2"
		},
		{
			"bufferView":35,
			"componentType":5123,
			"count":36,
			"type":"SCALAR"
		},
		{
			"bufferView":36,
			"componentType":5126,
			"count":24,
			"max":[
				2.0298638343811035,
				1.0245604515075684,
				0.3568759858608246
			],
			"min":[
				1.4748345613479614,
				-0.005303680896759033,
				-0.3568759262561798
			],
			"type":"VEC3"
		},
		{
			"bufferView":37,
			"componentType":5126,
			"count":24,
			"type":"VEC3"
		},
		{
			"bufferView":38,
			"componentType":5126,
			"count":24,
			"type":"VEC2"
		},
		{
			"bufferView":39,
			"componentType":5123,
			"count":36,
			"type":"SCALAR"
		},
		{
			"bufferView":40,
			"componentType":5126,
			"count":24,
			"max":[
				2.435110569000244,
				0.7707695960998535,
				0.46718573570251465
			],
			"min":[
				1.5812629461288452,
				-0.07898485660552979,
				-0.46718573570251465
			],
			"type":"VEC3"
		},
		{
			"bufferView":41,
			"componentType":5126,
			"count":24,
			"type":"VEC3"
		},
		{
			"bufferView":42,
			"componentType":5126,
			"count":24,
			"type":"VEC2"
		}
	],
	"bufferViews":[
		{
			"buffer":0,
			"byteLength":1416,
			"byteOffset":0,
			"target":34962
		},
		{
			"buffer":0,
			"byteLength":1416,
			"byteOffset":1416,
			"target":34962
		},
		{
			"buffer":0,
			"byteLength":944,
			"byteOffset":2832,
			"target":34962
		},
		{
			"buffer":0,
			"byteLength":432,
			"byteOffset":3776,
			"target":34963
		},
		{
			"buffer":0,
			"byteLength":1680,
			"byteOffset":4208,
			"target":34962
		},
		{
			"buffer":0,
			"byteLength":1680,
			"byteOffset":5888,
			"target":34962
		},
		{
			"buffer":0,
			"byteLength":1120,
			"byteOffset":7568,
			"target":34962
		},
		{
			"buffer":0,
			"byteLength":720,
			"byteOffset":8688,
			"target":34963
		},
		{
			"buffer":0,
			"byteLength":96,
			"byteOffset":9408,
			"target":34962
		},
		{
			"buffer":0,
			"byteLength":96,
			"byteOffset":9504,
			"target":34962
		},
		{
			"buffer":0,
			"byteLength":64,
			"byteOffset":9600,
			"target":34962
		},
		{
			"buffer":0,
			"byteLength":24,
			"byteOffset":9664,
			"target":34963
		},
		{
			"buffer":0,
			"byteLength":288,
			"byteOffset":9688,
			"target":34962
		},
		{
			"buffer":0,
			"byteLength":288,
			"byteOffset":9976,
			"target":34962
		},
		{
			"buffer":0,
			"byteLength":192,
			"byteOffset":10264,
			"target":34962
		},
		{
			"buffer":0,
			"byteLength":72,
			"byteOffset":10456,
			"target":34963
		},
		{
			"buffer":0,
			"byteLength":288,
			"byteOffset":10528,
			"target":34962
		},
		{
			"buffer":0,
			"byteLength":288,
			"byteOffset":10816,
			"target":34962
		},
		{
			"buffer":0,
			"byteLength":192,
			"byteOffset":11104,
			"target":34962
		},
		{
			"buffer":0,
			"byteLength":72,
			"byteOffset":11296,
			"target":34963
		},
		{
			"buffer":0,
			"byteLength":408,
			"byteOffset":11368,
			"target":34962
		},
		{
			"buffer":0,
			"byteLength":408,
			"byteOffset":11776,
			"target":34962
		},
		{
			"buffer":0,
			"byteLength":272,
			"byteOffset":12184,
			"target":34962
		},
		{
			"buffer":0,
			"byteLength":120,
			"byteOffset":12456,
			"target":34963
		},
		{
			"buffer":0,
			"byteLength":288,
			"byteOffset":12576,
			"target":34962
		},
		{
			"buffer":0,
			"byteLength":288,
			"byteOffset":12864,
			"target":34962
		},
		{
			"buffer":0,
			"byteLength":192,
			"byteOffset":13152,
			"target":34962
		},
		{
			"buffer":0,
			"byteLength":72,
			"byteOffset":13344,
			"target":34963
		},
		{
			"buffer":0,
			"byteLength":408,
			"byteOffset":13416,
			"target":34962
		},
		{
			"buffer":0,
			"byteLength":408,
			"byteOffset":13824,
			"target":34962
		},
		{
			"buffer":0,
			"byteLength":272,
			"byteOffset":14232,
			"target":34962
		},
		{
			"buffer":0,
			"byteLength":120,
			"byteOffset":14504,
			"target":34963
		},
		{
			"buffer":0,
			"byteLength":288,
			"byteOffset":14624,
			"target":34962
		},
		{
			"buffer":0,
			"byteLength":288,
			"byteOffset":14912,
			"target":34962
		},
		{
			"buffer":0,
			"byteLength":192,
			"byteOffset":15200,
			"target":34962
		},
		{
			"buffer":0,
			"byteLength":72,
			"byteOffset":15392,
			"target":34963
		},
		{
			"buffer":0,
			"byteLength":288,
			"byteOffset":15464,
			"target":34962
		},
		{
			"buffer":0,
			"byteLength":288,
			"byteOffset":15752,
			"target":34962
		},
		{
			"buffer":0,
			"byteLength":192,
			"byteOffset":16040,
			"target":34962
		},
		{
			"buffer":0,
			"byteLength":72,
			"byteOffset":16232,
			"target":34963
		},
		{
			"buffer":0,
			"byteLength":288,
			"byteOffset":16304,
			"target":34962
		},
		{
			"buffer":0,
			"byteLength":288,
			"byteOffset":16592,
			"target":34962
		},
		{
			"buffer":0,
			"byteLength":192,
			"byteOffset":16880,
			"target":34962
		}
	],
	"samplers":[
		{
			"magFilter":9729,
			"minFilter":9987
		}
	],
	"buffers":[
		{
			"byteLength":17072,
			"uri":"Door_Frame_A.bin"
		}
	]
}
