{
	"asset":{
		"generator":"Khronos glTF Blender I/O v4.0.44",
		"version":"2.0"
	},
	"extensionsUsed":[
		"KHR_materials_specular",
		"KHR_materials_ior"
	],
	"scene":0,
	"scenes":[
		{
			"name":"Scene",
			"nodes":[
				0,
				1,
				2,
				3,
				4,
				5
			]
		}
	],
	"nodes":[
		{
			"mesh":0,
			"name":"Door_Frame_A_Side"
		},
		{
			"mesh":1,
			"name":"Door_Frame_A_Side_01_convcolonly"
		},
		{
			"mesh":2,
			"name":"Door_Frame_A_Side_04_convcolonly"
		},
		{
			"mesh":3,
			"name":"Door_Frame_A_Side_03_convcolonly"
		},
		{
			"mesh":4,
			"name":"Door_Frame_A_Middle_2.001_convcolonly"
		},
		{
			"mesh":5,
			"name":"Door_Frame_A_Side_02_convcolonly"
		}
	],
	"materials":[
		{
			"doubleSided":true,
			"extensions":{
				"KHR_materials_specular":{
					"specularFactor":0
				},
				"KHR_materials_ior":{
					"ior":1.4500000476837158
				}
			},
			"name":"MI_Trim_01",
			"normalTexture":{
				"index":0
			},
			"pbrMetallicRoughness":{
				"baseColorTexture":{
					"index":1
				},
				"metallicRoughnessTexture":{
					"index":2
				}
			}
		},
		{
			"doubleSided":true,
			"name":"MI_Trim_02",
			"normalTexture":{
				"index":3
			},
			"pbrMetallicRoughness":{
				"baseColorTexture":{
					"index":4
				},
				"metallicRoughnessTexture":{
					"index":5
				}
			}
		}
	],
	"meshes":[
		{
			"name":"Cube.028",
			"primitives":[
				{
					"attributes":{
						"POSITION":0,
						"NORMAL":1,
						"TEXCOORD_0":2
					},
					"indices":3,
					"material":0
				},
				{
					"attributes":{
						"POSITION":4,
						"NORMAL":5,
						"TEXCOORD_0":6
					},
					"indices":7,
					"material":1
				}
			]
		},
		{
			"name":"Cube.396",
			"primitives":[
				{
					"attributes":{
						"POSITION":8,
						"NORMAL":9,
						"TEXCOORD_0":10
					},
					"indices":11
				}
			]
		},
		{
			"name":"Cube.399",
			"primitives":[
				{
					"attributes":{
						"POSITION":12,
						"NORMAL":13,
						"TEXCOORD_0":14
					},
					"indices":15
				}
			]
		},
		{
			"name":"Cube.398",
			"primitives":[
				{
					"attributes":{
						"POSITION":16,
						"NORMAL":17,
						"TEXCOORD_0":18
					},
					"indices":19
				}
			]
		},
		{
			"name":"Cube.433",
			"primitives":[
				{
					"attributes":{
						"POSITION":20,
						"NORMAL":21,
						"TEXCOORD_0":22
					},
					"indices":23
				}
			]
		},
		{
			"name":"Cube.397",
			"primitives":[
				{
					"attributes":{
						"POSITION":24,
						"NORMAL":25,
						"TEXCOORD_0":26
					},
					"indices":27
				}
			]
		}
	],
	"textures":[
		{
			"sampler":0,
			"source":0
		},
		{
			"sampler":0,
			"source":1
		},
		{
			"sampler":0,
			"source":2
		},
		{
			"sampler":0,
			"source":3
		},
		{
			"sampler":0,
			"source":4
		},
		{
			"sampler":0,
			"source":5
		}
	],
	"images":[
		{
			"mimeType":"image/png",
			"name":"T_Trim_01_Normal",
			"uri":"T_Trim_01_Normal.png"
		},
		{
			"mimeType":"image/png",
			"name":"T_Trim_01_BaseColor_Red",
			"uri":"T_Trim_01_BaseColor_Red.png"
		},
		{
			"mimeType":"image/png",
			"name":"T_Trim_01_ORM",
			"uri":"T_Trim_01_ORM.png"
		},
		{
			"mimeType":"image/png",
			"name":"T_Trim_02_Normal",
			"uri":"T_Trim_02_Normal.png"
		},
		{
			"mimeType":"image/png",
			"name":"T_Trim_02_BaseColor_Red",
			"uri":"T_Trim_02_BaseColor_Red.png"
		},
		{
			"mimeType":"image/png",
			"name":"T_Trim_02_ORM",
			"uri":"T_Trim_02_ORM.png"
		}
	],
	"accessors":[
		{
			"bufferView":0,
			"componentType":5126,
			"count":85,
			"max":[
				1,
				3.834150791168213,
				0.4000000059604645
			],
			"min":[
				-1.1057209968566895,
				-0.11896133422851562,
				-0.4000000059604645
			],
			"type":"VEC3"
		},
		{
			"bufferView":1,
			"componentType":5126,
			"count":85,
			"type":"VEC3"
		},
		{
			"bufferView":2,
			"componentType":5126,
			"count":85,
			"type":"VEC2"
		},
		{
			"bufferView":3,
			"componentType":5123,
			"count":168,
			"type":"SCALAR"
		},
		{
			"bufferView":4,
			"componentType":5126,
			"count":98,
			"max":[
				1,
				5.039759159088135,
				0.4000000059604645
			],
			"min":[
				-1.399999976158142,
				-0.11896133422851562,
				-0.4000000059604645
			],
			"type":"VEC3"
		},
		{
			"bufferView":5,
			"componentType":5126,
			"count":98,
			"type":"VEC3"
		},
		{
			"bufferView":6,
			"componentType":5126,
			"count":98,
			"type":"VEC2"
		},
		{
			"bufferView":7,
			"componentType":5123,
			"count":276,
			"type":"SCALAR"
		},
		{
			"bufferView":8,
			"componentType":5126,
			"count":24,
			"max":[
				1,
				5.038220405578613,
				0.46718573570251465
			],
			"min":[
				0.599326491355896,
				3.840902805328369,
				-0.46718573570251465
			],
			"type":"VEC3"
		},
		{
			"bufferView":9,
			"componentType":5126,
			"count":24,
			"type":"VEC3"
		},
		{
			"bufferView":10,
			"componentType":5126,
			"count":24,
			"type":"VEC2"
		},
		{
			"bufferView":11,
			"componentType":5123,
			"count":36,
			"type":"SCALAR"
		},
		{
			"bufferView":12,
			"componentType":5126,
			"count":34,
			"max":[
				0.6217052340507507,
				5.038220405578613,
				0.46718573570251465
			],
			"min":[
				-1.4351105690002441,
				0.7707695960998535,
				-0.46718573570251465
			],
			"type":"VEC3"
		},
		{
			"bufferView":13,
			"componentType":5126,
			"count":34,
			"type":"VEC3"
		},
		{
			"bufferView":14,
			"componentType":5126,
			"count":34,
			"type":"VEC2"
		},
		{
			"bufferView":15,
			"componentType":5123,
			"count":60,
			"type":"SCALAR"
		},
		{
			"bufferView":16,
			"componentType":5126,
			"count":24,
			"max":[
				-0.4748345613479614,
				1.0245604515075684,
				0.3568759858608246
			],
			"min":[
				-1.0298638343811035,
				-0.005303680896759033,
				-0.3568759262561798
			],
			"type":"VEC3"
		},
		{
			"bufferView":17,
			"componentType":5126,
			"count":24,
			"type":"VEC3"
		},
		{
			"bufferView":18,
			"componentType":5126,
			"count":24,
			"type":"VEC2"
		},
		{
			"bufferView":19,
			"componentType":5123,
			"count":36,
			"type":"SCALAR"
		},
		{
			"bufferView":20,
			"componentType":5126,
			"count":24,
			"max":[
				1,
				0.056715767830610275,
				0.41906294226646423
			],
			"min":[
				-1,
				-0.03389684855937958,
				-0.41906294226646423
			],
			"type":"VEC3"
		},
		{
			"bufferView":21,
			"componentType":5126,
			"count":24,
			"type":"VEC3"
		},
		{
			"bufferView":22,
			"componentType":5126,
			"count":24,
			"type":"VEC2"
		},
		{
			"bufferView":23,
			"componentType":5123,
			"count":36,
			"type":"SCALAR"
		},
		{
			"bufferView":24,
			"componentType":5126,
			"count":24,
			"max":[
				-0.5812629461288452,
				0.7707695960998535,
				0.46718573570251465
			],
			"min":[
				-1.4351105690002441,
				-0.07898485660552979,
				-0.46718573570251465
			],
			"type":"VEC3"
		},
		{
			"bufferView":25,
			"componentType":5126,
			"count":24,
			"type":"VEC3"
		},
		{
			"bufferView":26,
			"componentType":5126,
			"count":24,
			"type":"VEC2"
		},
		{
			"bufferView":27,
			"componentType":5123,
			"count":36,
			"type":"SCALAR"
		}
	],
	"bufferViews":[
		{
			"buffer":0,
			"byteLength":1020,
			"byteOffset":0,
			"target":34962
		},
		{
			"buffer":0,
			"byteLength":1020,
			"byteOffset":1020,
			"target":34962
		},
		{
			"buffer":0,
			"byteLength":680,
			"byteOffset":2040,
			"target":34962
		},
		{
			"buffer":0,
			"byteLength":336,
			"byteOffset":2720,
			"target":34963
		},
		{
			"buffer":0,
			"byteLength":1176,
			"byteOffset":3056,
			"target":34962
		},
		{
			"buffer":0,
			"byteLength":1176,
			"byteOffset":4232,
			"target":34962
		},
		{
			"buffer":0,
			"byteLength":784,
			"byteOffset":5408,
			"target":34962
		},
		{
			"buffer":0,
			"byteLength":552,
			"byteOffset":6192,
			"target":34963
		},
		{
			"buffer":0,
			"byteLength":288,
			"byteOffset":6744,
			"target":34962
		},
		{
			"buffer":0,
			"byteLength":288,
			"byteOffset":7032,
			"target":34962
		},
		{
			"buffer":0,
			"byteLength":192,
			"byteOffset":7320,
			"target":34962
		},
		{
			"buffer":0,
			"byteLength":72,
			"byteOffset":7512,
			"target":34963
		},
		{
			"buffer":0,
			"byteLength":408,
			"byteOffset":7584,
			"target":34962
		},
		{
			"buffer":0,
			"byteLength":408,
			"byteOffset":7992,
			"target":34962
		},
		{
			"buffer":0,
			"byteLength":272,
			"byteOffset":8400,
			"target":34962
		},
		{
			"buffer":0,
			"byteLength":120,
			"byteOffset":8672,
			"target":34963
		},
		{
			"buffer":0,
			"byteLength":288,
			"byteOffset":8792,
			"target":34962
		},
		{
			"buffer":0,
			"byteLength":288,
			"byteOffset":9080,
			"target":34962
		},
		{
			"buffer":0,
			"byteLength":192,
			"byteOffset":9368,
			"target":34962
		},
		{
			"buffer":0,
			"byteLength":72,
			"byteOffset":9560,
			"target":34963
		},
		{
			"buffer":0,
			"byteLength":288,
			"byteOffset":9632,
			"target":34962
		},
		{
			"buffer":0,
			"byteLength":288,
			"byteOffset":9920,
			"target":34962
		},
		{
			"buffer":0,
			"byteLength":192,
			"byteOffset":10208,
			"target":34962
		},
		{
			"buffer":0,
			"byteLength":72,
			"byteOffset":10400,
			"target":34963
		},
		{
			"buffer":0,
			"byteLength":288,
			"byteOffset":10472,
			"target":34962
		},
		{
			"buffer":0,
			"byteLength":288,
			"byteOffset":10760,
			"target":34962
		},
		{
			"buffer":0,
			"byteLength":192,
			"byteOffset":11048,
			"target":34962
		},
		{
			"buffer":0,
			"byteLength":72,
			"byteOffset":11240,
			"target":34963
		}
	],
	"samplers":[
		{
			"magFilter":9729,
			"minFilter":9987
		}
	],
	"buffers":[
		{
			"byteLength":11312,
			"uri":"Door_Frame_A_Side.bin"
		}
	]
}
