{
	"asset":{
		"generator":"Khronos glTF Blender I/O v4.0.44",
		"version":"2.0"
	},
	"scene":0,
	"scenes":[
		{
			"name":"Scene",
			"nodes":[
				0,
				1,
				2,
				3,
				4
			]
		}
	],
	"nodes":[
		{
			"mesh":0,
			"name":"Platform_Rails_4"
		},
		{
			"mesh":1,
			"name":"Platform_Rails_4_1_convcolonly"
		},
		{
			"mesh":2,
			"name":"Platform_Rails_4_2_convcolonly"
		},
		{
			"mesh":3,
			"name":"Platform_Rails_4_3_convcolonly"
		},
		{
			"mesh":4,
			"name":"Platform_Rails_4_4_convcolonly"
		}
	],
	"materials":[
		{
			"doubleSided":true,
			"name":"MI_Trim_02_Rails",
			"normalTexture":{
				"index":0
			},
			"pbrMetallicRoughness":{
				"baseColorTexture":{
					"index":1
				},
				"metallicRoughnessTexture":{
					"index":2
				}
			}
		}
	],
	"meshes":[
		{
			"name":"Cylinder.013",
			"primitives":[
				{
					"attributes":{
						"POSITION":0,
						"NORMAL":1,
						"TEXCOORD_0":2
					},
					"indices":3,
					"material":0
				}
			]
		},
		{
			"name":"UCX_Prop_Rail_Incline_Short_1.003",
			"primitives":[
				{
					"attributes":{
						"POSITION":4,
						"NORMAL":5,
						"TEXCOORD_0":6
					},
					"indices":7
				}
			]
		},
		{
			"name":"UCX_Prop_Rail_Incline_Short_2.003",
			"primitives":[
				{
					"attributes":{
						"POSITION":8,
						"NORMAL":9,
						"TEXCOORD_0":10
					},
					"indices":11
				}
			]
		},
		{
			"name":"UCX_Prop_Rail_Incline_Short_1.005",
			"primitives":[
				{
					"attributes":{
						"POSITION":12,
						"NORMAL":13,
						"TEXCOORD_0":14
					},
					"indices":15
				}
			]
		},
		{
			"name":"UCX_Prop_Rail_Incline_Short_2.005",
			"primitives":[
				{
					"attributes":{
						"POSITION":16,
						"NORMAL":17,
						"TEXCOORD_0":18
					},
					"indices":19
				}
			]
		}
	],
	"textures":[
		{
			"sampler":0,
			"source":0
		},
		{
			"sampler":0,
			"source":1
		},
		{
			"sampler":0,
			"source":2
		}
	],
	"images":[
		{
			"mimeType":"image/png",
			"name":"T_Trim_02_Normal",
			"uri":"T_Trim_02_Normal.png"
		},
		{
			"mimeType":"image/png",
			"name":"T_Trim_02_BaseColor_Red",
			"uri":"T_Trim_02_BaseColor_Red.png"
		},
		{
			"mimeType":"image/png",
			"name":"T_Trim_02_ORM",
			"uri":"T_Trim_02_ORM.png"
		}
	],
	"accessors":[
		{
			"bufferView":0,
			"componentType":5126,
			"count":754,
			"max":[
				1.1792110204696655,
				2.7197914123535156,
				3.9015612602233887
			],
			"min":[
				-1.1792110204696655,
				0.002967238426208496,
				0.09897005558013916
			],
			"type":"VEC3"
		},
		{
			"bufferView":1,
			"componentType":5126,
			"count":754,
			"type":"VEC3"
		},
		{
			"bufferView":2,
			"componentType":5126,
			"count":754,
			"type":"VEC2"
		},
		{
			"bufferView":3,
			"componentType":5123,
			"count":3672,
			"type":"SCALAR"
		},
		{
			"bufferView":4,
			"componentType":5126,
			"count":24,
			"max":[
				1.0107157230377197,
				2.268871307373047,
				3.908336639404297
			],
			"min":[
				0.9207682609558105,
				-0.011477470397949219,
				0.03050195425748825
			],
			"type":"VEC3"
		},
		{
			"bufferView":5,
			"componentType":5126,
			"count":24,
			"type":"VEC3"
		},
		{
			"bufferView":6,
			"componentType":5126,
			"count":24,
			"type":"VEC2"
		},
		{
			"bufferView":7,
			"componentType":5123,
			"count":36,
			"type":"SCALAR"
		},
		{
			"bufferView":8,
			"componentType":5126,
			"count":24,
			"max":[
				1.2033628225326538,
				2.849202871322632,
				3.909198760986328
			],
			"min":[
				0.9207682609558105,
				0.30718564987182617,
				0.029639899730682373
			],
			"type":"VEC3"
		},
		{
			"bufferView":9,
			"componentType":5126,
			"count":24,
			"type":"VEC3"
		},
		{
			"bufferView":10,
			"componentType":5126,
			"count":24,
			"type":"VEC2"
		},
		{
			"bufferView":11,
			"componentType":5123,
			"count":36,
			"type":"SCALAR"
		},
		{
			"bufferView":12,
			"componentType":5126,
			"count":24,
			"max":[
				-0.9207682609558105,
				2.268871307373047,
				3.908336639404297
			],
			"min":[
				-1.0107157230377197,
				-0.011477470397949219,
				0.03050195425748825
			],
			"type":"VEC3"
		},
		{
			"bufferView":13,
			"componentType":5126,
			"count":24,
			"type":"VEC3"
		},
		{
			"bufferView":14,
			"componentType":5126,
			"count":24,
			"type":"VEC2"
		},
		{
			"bufferView":15,
			"componentType":5123,
			"count":36,
			"type":"SCALAR"
		},
		{
			"bufferView":16,
			"componentType":5126,
			"count":24,
			"max":[
				-0.9207682609558105,
				2.849202871322632,
				3.909198760986328
			],
			"min":[
				-1.2033628225326538,
				0.30718564987182617,
				0.029639899730682373
			],
			"type":"VEC3"
		},
		{
			"bufferView":17,
			"componentType":5126,
			"count":24,
			"type":"VEC3"
		},
		{
			"bufferView":18,
			"componentType":5126,
			"count":24,
			"type":"VEC2"
		},
		{
			"bufferView":19,
			"componentType":5123,
			"count":36,
			"type":"SCALAR"
		}
	],
	"bufferViews":[
		{
			"buffer":0,
			"byteLength":9048,
			"byteOffset":0,
			"target":34962
		},
		{
			"buffer":0,
			"byteLength":9048,
			"byteOffset":9048,
			"target":34962
		},
		{
			"buffer":0,
			"byteLength":6032,
			"byteOffset":18096,
			"target":34962
		},
		{
			"buffer":0,
			"byteLength":7344,
			"byteOffset":24128,
			"target":34963
		},
		{
			"buffer":0,
			"byteLength":288,
			"byteOffset":31472,
			"target":34962
		},
		{
			"buffer":0,
			"byteLength":288,
			"byteOffset":31760,
			"target":34962
		},
		{
			"buffer":0,
			"byteLength":192,
			"byteOffset":32048,
			"target":34962
		},
		{
			"buffer":0,
			"byteLength":72,
			"byteOffset":32240,
			"target":34963
		},
		{
			"buffer":0,
			"byteLength":288,
			"byteOffset":32312,
			"target":34962
		},
		{
			"buffer":0,
			"byteLength":288,
			"byteOffset":32600,
			"target":34962
		},
		{
			"buffer":0,
			"byteLength":192,
			"byteOffset":32888,
			"target":34962
		},
		{
			"buffer":0,
			"byteLength":72,
			"byteOffset":33080,
			"target":34963
		},
		{
			"buffer":0,
			"byteLength":288,
			"byteOffset":33152,
			"target":34962
		},
		{
			"buffer":0,
			"byteLength":288,
			"byteOffset":33440,
			"target":34962
		},
		{
			"buffer":0,
			"byteLength":192,
			"byteOffset":33728,
			"target":34962
		},
		{
			"buffer":0,
			"byteLength":72,
			"byteOffset":33920,
			"target":34963
		},
		{
			"buffer":0,
			"byteLength":288,
			"byteOffset":33992,
			"target":34962
		},
		{
			"buffer":0,
			"byteLength":288,
			"byteOffset":34280,
			"target":34962
		},
		{
			"buffer":0,
			"byteLength":192,
			"byteOffset":34568,
			"target":34962
		},
		{
			"buffer":0,
			"byteLength":72,
			"byteOffset":34760,
			"target":34963
		}
	],
	"samplers":[
		{
			"magFilter":9729,
			"minFilter":9987
		}
	],
	"buffers":[
		{
			"byteLength":34832,
			"uri":"Platform_Rails_4.bin"
		}
	]
}
