{
	"asset":{
		"generator":"Khronos glTF Blender I/O v4.0.44",
		"version":"2.0"
	},
	"extensionsUsed":[
		"KHR_materials_specular",
		"KHR_materials_ior"
	],
	"scene":0,
	"scenes":[
		{
			"name":"Scene",
			"nodes":[
				0,
				1,
				2,
				3,
				4,
				5,
				6,
				7,
				8,
				9,
				10
			]
		}
	],
	"nodes":[
		{
			"mesh":0,
			"name":"Prop_Pipe_Thick_Curve"
		},
		{
			"mesh":1,
			"name":"Prop_Pipe_Thick_Curve_01_convcolonly"
		},
		{
			"mesh":2,
			"name":"Prop_Pipe_Thick_Curve_02_convcolonly"
		},
		{
			"mesh":3,
			"name":"Prop_Pipe_Thick_Curve_03_convcolonly"
		},
		{
			"mesh":4,
			"name":"Prop_Pipe_Thick_Curve_04_convcolonly"
		},
		{
			"mesh":5,
			"name":"Prop_Pipe_Thick_Curve_05_convcolonly"
		},
		{
			"mesh":6,
			"name":"Prop_Pipe_Thick_Curve_06_convcolonly"
		},
		{
			"mesh":7,
			"name":"Prop_Pipe_Thick_Curve_07_convcolonly"
		},
		{
			"mesh":8,
			"name":"Prop_Pipe_Thick_Curve_08_convcolonly"
		},
		{
			"mesh":9,
			"name":"Prop_Pipe_Thick_Curve_09_convcolonly"
		},
		{
			"mesh":10,
			"name":"Prop_Pipe_Thick_Curve_10_convcolonly"
		}
	],
	"materials":[
		{
			"doubleSided":true,
			"extensions":{
				"KHR_materials_specular":{
					"specularFactor":0
				},
				"KHR_materials_ior":{
					"ior":1.4500000476837158
				}
			},
			"name":"MI_Trim_01",
			"normalTexture":{
				"index":0
			},
			"pbrMetallicRoughness":{
				"baseColorTexture":{
					"index":1
				},
				"metallicRoughnessTexture":{
					"index":2
				}
			}
		},
		{
			"doubleSided":true,
			"name":"MI_Trim_02",
			"normalTexture":{
				"index":3
			},
			"pbrMetallicRoughness":{
				"baseColorTexture":{
					"index":4
				},
				"metallicRoughnessTexture":{
					"index":5
				}
			}
		}
	],
	"meshes":[
		{
			"name":"Cylinder.003",
			"primitives":[
				{
					"attributes":{
						"POSITION":0,
						"NORMAL":1,
						"TEXCOORD_0":2
					},
					"indices":3,
					"material":0
				},
				{
					"attributes":{
						"POSITION":4,
						"NORMAL":5,
						"TEXCOORD_0":6
					},
					"indices":7,
					"material":1
				}
			]
		},
		{
			"name":"Cylinder.068",
			"primitives":[
				{
					"attributes":{
						"POSITION":8,
						"NORMAL":9,
						"TEXCOORD_0":10
					},
					"indices":11
				}
			]
		},
		{
			"name":"Cylinder.069",
			"primitives":[
				{
					"attributes":{
						"POSITION":12,
						"NORMAL":13,
						"TEXCOORD_0":14
					},
					"indices":15
				}
			]
		},
		{
			"name":"Cylinder.070",
			"primitives":[
				{
					"attributes":{
						"POSITION":16,
						"NORMAL":17,
						"TEXCOORD_0":18
					},
					"indices":19
				}
			]
		},
		{
			"name":"Cylinder.071",
			"primitives":[
				{
					"attributes":{
						"POSITION":20,
						"NORMAL":21,
						"TEXCOORD_0":22
					},
					"indices":23
				}
			]
		},
		{
			"name":"Cylinder.072",
			"primitives":[
				{
					"attributes":{
						"POSITION":24,
						"NORMAL":25,
						"TEXCOORD_0":26
					},
					"indices":23
				}
			]
		},
		{
			"name":"Cylinder.073",
			"primitives":[
				{
					"attributes":{
						"POSITION":27,
						"NORMAL":28,
						"TEXCOORD_0":29
					},
					"indices":30
				}
			]
		},
		{
			"name":"Cylinder.074",
			"primitives":[
				{
					"attributes":{
						"POSITION":31,
						"NORMAL":32,
						"TEXCOORD_0":33
					},
					"indices":34
				}
			]
		},
		{
			"name":"Cylinder.075",
			"primitives":[
				{
					"attributes":{
						"POSITION":35,
						"NORMAL":36,
						"TEXCOORD_0":37
					},
					"indices":23
				}
			]
		},
		{
			"name":"Cylinder.076",
			"primitives":[
				{
					"attributes":{
						"POSITION":38,
						"NORMAL":39,
						"TEXCOORD_0":40
					},
					"indices":23
				}
			]
		},
		{
			"name":"Cylinder.077",
			"primitives":[
				{
					"attributes":{
						"POSITION":41,
						"NORMAL":42,
						"TEXCOORD_0":43
					},
					"indices":23
				}
			]
		}
	],
	"textures":[
		{
			"sampler":0,
			"source":0
		},
		{
			"sampler":0,
			"source":1
		},
		{
			"sampler":0,
			"source":2
		},
		{
			"sampler":0,
			"source":3
		},
		{
			"sampler":0,
			"source":4
		},
		{
			"sampler":0,
			"source":5
		}
	],
	"images":[
		{
			"mimeType":"image/png",
			"name":"T_Trim_01_Normal",
			"uri":"T_Trim_01_Normal.png"
		},
		{
			"mimeType":"image/png",
			"name":"T_Trim_01_BaseColor_Red",
			"uri":"T_Trim_01_BaseColor_Red.png"
		},
		{
			"mimeType":"image/png",
			"name":"T_Trim_01_ORM",
			"uri":"T_Trim_01_ORM.png"
		},
		{
			"mimeType":"image/png",
			"name":"T_Trim_02_Normal",
			"uri":"T_Trim_02_Normal.png"
		},
		{
			"mimeType":"image/png",
			"name":"T_Trim_02_BaseColor_Red",
			"uri":"T_Trim_02_BaseColor_Red.png"
		},
		{
			"mimeType":"image/png",
			"name":"T_Trim_02_ORM",
			"uri":"T_Trim_02_ORM.png"
		}
	],
	"accessors":[
		{
			"bufferView":0,
			"componentType":5126,
			"count":1496,
			"max":[
				9.685754776000977e-08,
				0.2674848437309265,
				4.26748514175415
			],
			"min":[
				-4.267446517944336,
				-0.2674848735332489,
				-0.0005969924968667328
			],
			"type":"VEC3"
		},
		{
			"bufferView":1,
			"componentType":5126,
			"count":1496,
			"type":"VEC3"
		},
		{
			"bufferView":2,
			"componentType":5126,
			"count":1496,
			"type":"VEC2"
		},
		{
			"bufferView":3,
			"componentType":5123,
			"count":5664,
			"type":"SCALAR"
		},
		{
			"bufferView":4,
			"componentType":5126,
			"count":672,
			"max":[
				-0.17120493948459625,
				0.26270991563796997,
				4.250113010406494
			],
			"min":[
				-4.250152111053467,
				-0.26270994544029236,
				0.1706811934709549
			],
			"type":"VEC3"
		},
		{
			"bufferView":5,
			"componentType":5126,
			"count":672,
			"type":"VEC3"
		},
		{
			"bufferView":6,
			"componentType":5126,
			"count":672,
			"type":"VEC2"
		},
		{
			"bufferView":7,
			"componentType":5123,
			"count":2304,
			"type":"SCALAR"
		},
		{
			"bufferView":8,
			"componentType":5126,
			"count":48,
			"max":[
				-3.6778674125671387,
				0.275885671377182,
				0.6711562871932983
			],
			"min":[
				-4.275845527648926,
				-0.27588433027267456,
				0.002293770434334874
			],
			"type":"VEC3"
		},
		{
			"bufferView":9,
			"componentType":5126,
			"count":48,
			"type":"VEC3"
		},
		{
			"bufferView":10,
			"componentType":5126,
			"count":48,
			"type":"VEC2"
		},
		{
			"bufferView":11,
			"componentType":5123,
			"count":84,
			"type":"SCALAR"
		},
		{
			"bufferView":12,
			"componentType":5126,
			"count":48,
			"max":[
				-3.317134141921997,
				0.27588561177253723,
				1.9432404041290283
			],
			"min":[
				-4.065861701965332,
				-0.2758843004703522,
				1.1529864072799683
			],
			"type":"VEC3"
		},
		{
			"bufferView":13,
			"componentType":5126,
			"count":48,
			"type":"VEC3"
		},
		{
			"bufferView":14,
			"componentType":5126,
			"count":48,
			"type":"VEC2"
		},
		{
			"bufferView":15,
			"componentType":5123,
			"count":84,
			"type":"SCALAR"
		},
		{
			"bufferView":16,
			"componentType":5126,
			"count":48,
			"max":[
				-2.6316962242126465,
				0.27588558197021484,
				3.02510666847229
			],
			"min":[
				-3.4578826427459717,
				-0.2758842706680298,
				2.190816879272461
			],
			"type":"VEC3"
		},
		{
			"bufferView":17,
			"componentType":5126,
			"count":48,
			"type":"VEC3"
		},
		{
			"bufferView":18,
			"componentType":5126,
			"count":48,
			"type":"VEC2"
		},
		{
			"bufferView":19,
			"componentType":5123,
			"count":84,
			"type":"SCALAR"
		},
		{
			"bufferView":20,
			"componentType":5126,
			"count":48,
			"max":[
				-1.6886484622955322,
				0.27588555216789246,
				3.810854434967041
			],
			"min":[
				-2.5114212036132812,
				-0.275884211063385,
				3.014195442199707
			],
			"type":"VEC3"
		},
		{
			"bufferView":21,
			"componentType":5126,
			"count":48,
			"type":"VEC3"
		},
		{
			"bufferView":22,
			"componentType":5126,
			"count":48,
			"type":"VEC2"
		},
		{
			"bufferView":23,
			"componentType":5123,
			"count":84,
			"type":"SCALAR"
		},
		{
			"bufferView":24,
			"componentType":5126,
			"count":48,
			"max":[
				-0.5803032517433167,
				0.27588552236557007,
				4.223569393157959
			],
			"min":[
				-1.319123387336731,
				-0.2758841812610626,
				3.542523145675659
			],
			"type":"VEC3"
		},
		{
			"bufferView":25,
			"componentType":5126,
			"count":48,
			"type":"VEC3"
		},
		{
			"bufferView":26,
			"componentType":5126,
			"count":48,
			"type":"VEC2"
		},
		{
			"bufferView":27,
			"componentType":5126,
			"count":48,
			"max":[
				-3.54109787940979,
				0.2758856415748596,
				1.3234926462173462
			],
			"min":[
				-4.222844123840332,
				-0.2758843004703522,
				0.5848404765129089
			],
			"type":"VEC3"
		},
		{
			"bufferView":28,
			"componentType":5126,
			"count":48,
			"type":"VEC3"
		},
		{
			"bufferView":29,
			"componentType":5126,
			"count":48,
			"type":"VEC2"
		},
		{
			"bufferView":30,
			"componentType":5123,
			"count":84,
			"type":"SCALAR"
		},
		{
			"bufferView":31,
			"componentType":5126,
			"count":48,
			"max":[
				-3.0114920139312744,
				0.27588561177253723,
				2.515139102935791
			],
			"min":[
				-3.8087644577026367,
				-0.2758842706680298,
				1.692742109298706
			],
			"type":"VEC3"
		},
		{
			"bufferView":32,
			"componentType":5126,
			"count":48,
			"type":"VEC3"
		},
		{
			"bufferView":33,
			"componentType":5126,
			"count":48,
			"type":"VEC2"
		},
		{
			"bufferView":34,
			"componentType":5123,
			"count":84,
			"type":"SCALAR"
		},
		{
			"bufferView":35,
			"componentType":5126,
			"count":48,
			"max":[
				-2.1870992183685303,
				0.27588558197021484,
				3.4605860710144043
			],
			"min":[
				-3.0218558311462402,
				-0.2758842408657074,
				2.634946823120117
			],
			"type":"VEC3"
		},
		{
			"bufferView":36,
			"componentType":5126,
			"count":48,
			"type":"VEC3"
		},
		{
			"bufferView":37,
			"componentType":5126,
			"count":48,
			"type":"VEC2"
		},
		{
			"bufferView":38,
			"componentType":5126,
			"count":48,
			"max":[
				-1.1486172676086426,
				0.27588552236557007,
				4.067286968231201
			],
			"min":[
				-1.9391465187072754,
				-0.275884211063385,
				3.3192245960235596
			],
			"type":"VEC3"
		},
		{
			"bufferView":39,
			"componentType":5126,
			"count":48,
			"type":"VEC3"
		},
		{
			"bufferView":40,
			"componentType":5126,
			"count":48,
			"type":"VEC2"
		},
		{
			"bufferView":41,
			"componentType":5126,
			"count":48,
			"max":[
				0.0023003453388810158,
				0.27588552236557007,
				4.275853633880615
			],
			"min":[
				-0.6666189432144165,
				-0.27588415145874023,
				3.678593397140503
			],
			"type":"VEC3"
		},
		{
			"bufferView":42,
			"componentType":5126,
			"count":48,
			"type":"VEC3"
		},
		{
			"bufferView":43,
			"componentType":5126,
			"count":48,
			"type":"VEC2"
		}
	],
	"bufferViews":[
		{
			"buffer":0,
			"byteLength":17952,
			"byteOffset":0,
			"target":34962
		},
		{
			"buffer":0,
			"byteLength":17952,
			"byteOffset":17952,
			"target":34962
		},
		{
			"buffer":0,
			"byteLength":11968,
			"byteOffset":35904,
			"target":34962
		},
		{
			"buffer":0,
			"byteLength":11328,
			"byteOffset":47872,
			"target":34963
		},
		{
			"buffer":0,
			"byteLength":8064,
			"byteOffset":59200,
			"target":34962
		},
		{
			"buffer":0,
			"byteLength":8064,
			"byteOffset":67264,
			"target":34962
		},
		{
			"buffer":0,
			"byteLength":5376,
			"byteOffset":75328,
			"target":34962
		},
		{
			"buffer":0,
			"byteLength":4608,
			"byteOffset":80704,
			"target":34963
		},
		{
			"buffer":0,
			"byteLength":576,
			"byteOffset":85312,
			"target":34962
		},
		{
			"buffer":0,
			"byteLength":576,
			"byteOffset":85888,
			"target":34962
		},
		{
			"buffer":0,
			"byteLength":384,
			"byteOffset":86464,
			"target":34962
		},
		{
			"buffer":0,
			"byteLength":168,
			"byteOffset":86848,
			"target":34963
		},
		{
			"buffer":0,
			"byteLength":576,
			"byteOffset":87016,
			"target":34962
		},
		{
			"buffer":0,
			"byteLength":576,
			"byteOffset":87592,
			"target":34962
		},
		{
			"buffer":0,
			"byteLength":384,
			"byteOffset":88168,
			"target":34962
		},
		{
			"buffer":0,
			"byteLength":168,
			"byteOffset":88552,
			"target":34963
		},
		{
			"buffer":0,
			"byteLength":576,
			"byteOffset":88720,
			"target":34962
		},
		{
			"buffer":0,
			"byteLength":576,
			"byteOffset":89296,
			"target":34962
		},
		{
			"buffer":0,
			"byteLength":384,
			"byteOffset":89872,
			"target":34962
		},
		{
			"buffer":0,
			"byteLength":168,
			"byteOffset":90256,
			"target":34963
		},
		{
			"buffer":0,
			"byteLength":576,
			"byteOffset":90424,
			"target":34962
		},
		{
			"buffer":0,
			"byteLength":576,
			"byteOffset":91000,
			"target":34962
		},
		{
			"buffer":0,
			"byteLength":384,
			"byteOffset":91576,
			"target":34962
		},
		{
			"buffer":0,
			"byteLength":168,
			"byteOffset":91960,
			"target":34963
		},
		{
			"buffer":0,
			"byteLength":576,
			"byteOffset":92128,
			"target":34962
		},
		{
			"buffer":0,
			"byteLength":576,
			"byteOffset":92704,
			"target":34962
		},
		{
			"buffer":0,
			"byteLength":384,
			"byteOffset":93280,
			"target":34962
		},
		{
			"buffer":0,
			"byteLength":576,
			"byteOffset":93664,
			"target":34962
		},
		{
			"buffer":0,
			"byteLength":576,
			"byteOffset":94240,
			"target":34962
		},
		{
			"buffer":0,
			"byteLength":384,
			"byteOffset":94816,
			"target":34962
		},
		{
			"buffer":0,
			"byteLength":168,
			"byteOffset":95200,
			"target":34963
		},
		{
			"buffer":0,
			"byteLength":576,
			"byteOffset":95368,
			"target":34962
		},
		{
			"buffer":0,
			"byteLength":576,
			"byteOffset":95944,
			"target":34962
		},
		{
			"buffer":0,
			"byteLength":384,
			"byteOffset":96520,
			"target":34962
		},
		{
			"buffer":0,
			"byteLength":168,
			"byteOffset":96904,
			"target":34963
		},
		{
			"buffer":0,
			"byteLength":576,
			"byteOffset":97072,
			"target":34962
		},
		{
			"buffer":0,
			"byteLength":576,
			"byteOffset":97648,
			"target":34962
		},
		{
			"buffer":0,
			"byteLength":384,
			"byteOffset":98224,
			"target":34962
		},
		{
			"buffer":0,
			"byteLength":576,
			"byteOffset":98608,
			"target":34962
		},
		{
			"buffer":0,
			"byteLength":576,
			"byteOffset":99184,
			"target":34962
		},
		{
			"buffer":0,
			"byteLength":384,
			"byteOffset":99760,
			"target":34962
		},
		{
			"buffer":0,
			"byteLength":576,
			"byteOffset":100144,
			"target":34962
		},
		{
			"buffer":0,
			"byteLength":576,
			"byteOffset":100720,
			"target":34962
		},
		{
			"buffer":0,
			"byteLength":384,
			"byteOffset":101296,
			"target":34962
		}
	],
	"samplers":[
		{
			"magFilter":9729,
			"minFilter":9987
		}
	],
	"buffers":[
		{
			"byteLength":101680,
			"uri":"Prop_Pipe_Thick_Curve.bin"
		}
	]
}
