{
	"asset":{
		"generator":"Khronos glTF Blender I/O v4.0.44",
		"version":"2.0"
	},
	"scene":0,
	"scenes":[
		{
			"name":"Scene",
			"nodes":[
				0,
				1,
				2,
				3
			]
		}
	],
	"nodes":[
		{
			"mesh":0,
			"name":"Prop_Cable_3"
		},
		{
			"mesh":1,
			"name":"Prop_Cable_1"
		},
		{
			"mesh":2,
			"name":"Prop_Cable_2"
		},
		{
			"mesh":3,
			"name":"Prop_Cable_4"
		}
	],
	"materials":[
		{
			"doubleSided":true,
			"name":"MI_Trim_03_Cables",
			"normalTexture":{
				"index":0
			},
			"pbrMetallicRoughness":{
				"baseColorTexture":{
					"index":1
				},
				"metallicRoughnessTexture":{
					"index":2
				}
			}
		},
		{
			"doubleSided":true,
			"name":"MI_Trim_02",
			"normalTexture":{
				"index":3
			},
			"pbrMetallicRoughness":{
				"baseColorTexture":{
					"index":4
				},
				"metallicRoughnessTexture":{
					"index":5
				}
			}
		}
	],
	"meshes":[
		{
			"name":"BezierCurve.008",
			"primitives":[
				{
					"attributes":{
						"POSITION":0,
						"NORMAL":1,
						"TEXCOORD_0":2
					},
					"indices":3,
					"material":0
				},
				{
					"attributes":{
						"POSITION":4,
						"NORMAL":5,
						"TEXCOORD_0":6
					},
					"indices":7,
					"material":1
				}
			]
		},
		{
			"name":"Plane.148",
			"primitives":[
				{
					"attributes":{
						"POSITION":8,
						"NORMAL":9,
						"TEXCOORD_0":10
					},
					"indices":11,
					"material":0
				},
				{
					"attributes":{
						"POSITION":12,
						"NORMAL":13,
						"TEXCOORD_0":14
					},
					"indices":15,
					"material":1
				}
			]
		},
		{
			"name":"Plane.146",
			"primitives":[
				{
					"attributes":{
						"POSITION":16,
						"NORMAL":17,
						"TEXCOORD_0":18
					},
					"indices":19,
					"material":0
				},
				{
					"attributes":{
						"POSITION":20,
						"NORMAL":21,
						"TEXCOORD_0":22
					},
					"indices":23,
					"material":1
				}
			]
		},
		{
			"name":"BezierCurve.009",
			"primitives":[
				{
					"attributes":{
						"POSITION":24,
						"NORMAL":25,
						"TEXCOORD_0":26
					},
					"indices":27,
					"material":0
				},
				{
					"attributes":{
						"POSITION":28,
						"NORMAL":29,
						"TEXCOORD_0":30
					},
					"indices":31,
					"material":1
				}
			]
		}
	],
	"textures":[
		{
			"sampler":0,
			"source":0
		},
		{
			"sampler":0,
			"source":1
		},
		{
			"sampler":0,
			"source":2
		},
		{
			"sampler":0,
			"source":3
		},
		{
			"sampler":0,
			"source":4
		},
		{
			"sampler":0,
			"source":5
		}
	],
	"images":[
		{
			"mimeType":"image/png",
			"name":"T_Trim_03_Normal",
			"uri":"T_Trim_03_Normal.png"
		},
		{
			"mimeType":"image/png",
			"name":"T_Trim_03_Cables",
			"uri":"T_Trim_03_Cables.png"
		},
		{
			"mimeType":"image/png",
			"name":"T_Trim_03_ORM",
			"uri":"T_Trim_03_ORM.png"
		},
		{
			"mimeType":"image/png",
			"name":"T_Trim_02_Normal",
			"uri":"T_Trim_02_Normal.png"
		},
		{
			"mimeType":"image/png",
			"name":"T_Trim_02_BaseColor_Red",
			"uri":"T_Trim_02_BaseColor_Red.png"
		},
		{
			"mimeType":"image/png",
			"name":"T_Trim_02_ORM",
			"uri":"T_Trim_02_ORM.png"
		}
	],
	"accessors":[
		{
			"bufferView":0,
			"componentType":5126,
			"count":2482,
			"max":[
				1.4041962623596191,
				0.1039402112364769,
				2.855494260787964
			],
			"min":[
				-0.1523417830467224,
				-0.00889551267027855,
				-2.74999737739563
			],
			"type":"VEC3"
		},
		{
			"bufferView":1,
			"componentType":5126,
			"count":2482,
			"type":"VEC3"
		},
		{
			"bufferView":2,
			"componentType":5126,
			"count":2482,
			"type":"VEC2"
		},
		{
			"bufferView":3,
			"componentType":5123,
			"count":13824,
			"type":"SCALAR"
		},
		{
			"bufferView":4,
			"componentType":5126,
			"count":648,
			"max":[
				1.407554030418396,
				0.09222282469272614,
				2.907241106033325
			],
			"min":[
				0.3865782916545868,
				-0.01304243691265583,
				-2.8273069858551025
			],
			"type":"VEC3"
		},
		{
			"bufferView":5,
			"componentType":5126,
			"count":648,
			"type":"VEC3"
		},
		{
			"bufferView":6,
			"componentType":5126,
			"count":648,
			"type":"VEC2"
		},
		{
			"bufferView":7,
			"componentType":5123,
			"count":1968,
			"type":"SCALAR"
		},
		{
			"bufferView":8,
			"componentType":5126,
			"count":1241,
			"max":[
				0.5298477411270142,
				0.12994162738323212,
				0.976235032081604
			],
			"min":[
				-0.4886114299297333,
				-0.014547169208526611,
				-0.5750444531440735
			],
			"type":"VEC3"
		},
		{
			"bufferView":9,
			"componentType":5126,
			"count":1241,
			"type":"VEC3"
		},
		{
			"bufferView":10,
			"componentType":5126,
			"count":1241,
			"type":"VEC2"
		},
		{
			"bufferView":11,
			"componentType":5123,
			"count":6912,
			"type":"SCALAR"
		},
		{
			"bufferView":12,
			"componentType":5126,
			"count":324,
			"max":[
				-0.0679108127951622,
				0.08996552973985672,
				1.071864366531372
			],
			"min":[
				-0.21306964755058289,
				-0.01830253005027771,
				0.12268165498971939
			],
			"type":"VEC3"
		},
		{
			"bufferView":13,
			"componentType":5126,
			"count":324,
			"type":"VEC3"
		},
		{
			"bufferView":14,
			"componentType":5126,
			"count":324,
			"type":"VEC2"
		},
		{
			"bufferView":15,
			"componentType":5123,
			"count":984,
			"type":"SCALAR"
		},
		{
			"bufferView":16,
			"componentType":5126,
			"count":1037,
			"max":[
				0.48660463094711304,
				0.1228494718670845,
				1.964662790298462
			],
			"min":[
				-0.35685083270072937,
				0.008430473506450653,
				-2.0542712211608887
			],
			"type":"VEC3"
		},
		{
			"bufferView":17,
			"componentType":5126,
			"count":1037,
			"type":"VEC3"
		},
		{
			"bufferView":18,
			"componentType":5126,
			"count":1037,
			"type":"VEC2"
		},
		{
			"bufferView":19,
			"componentType":5123,
			"count":5760,
			"type":"SCALAR"
		},
		{
			"bufferView":20,
			"componentType":5126,
			"count":324,
			"max":[
				0.045342445373535156,
				0.07575764507055283,
				2.0390942096710205
			],
			"min":[
				-0.14967310428619385,
				0.00043538957834243774,
				-2.137239694595337
			],
			"type":"VEC3"
		},
		{
			"bufferView":21,
			"componentType":5126,
			"count":324,
			"type":"VEC3"
		},
		{
			"bufferView":22,
			"componentType":5126,
			"count":324,
			"type":"VEC2"
		},
		{
			"bufferView":23,
			"componentType":5123,
			"count":984,
			"type":"SCALAR"
		},
		{
			"bufferView":24,
			"componentType":5126,
			"count":1870,
			"max":[
				0.0858631506562233,
				0.10393030941486359,
				2.4477124214172363
			],
			"min":[
				-0.39713892340660095,
				-0.00889551267027855,
				-2.4691460132598877
			],
			"type":"VEC3"
		},
		{
			"bufferView":25,
			"componentType":5126,
			"count":1870,
			"type":"VEC3"
		},
		{
			"bufferView":26,
			"componentType":5126,
			"count":1870,
			"type":"VEC2"
		},
		{
			"bufferView":27,
			"componentType":5123,
			"count":10368,
			"type":"SCALAR"
		},
		{
			"bufferView":28,
			"componentType":5126,
			"count":648,
			"max":[
				0.059805404394865036,
				0.06813313066959381,
				2.533797264099121
			],
			"min":[
				-0.46003568172454834,
				-0.011487964540719986,
				-2.5287628173828125
			],
			"type":"VEC3"
		},
		{
			"bufferView":29,
			"componentType":5126,
			"count":648,
			"type":"VEC3"
		},
		{
			"bufferView":30,
			"componentType":5126,
			"count":648,
			"type":"VEC2"
		},
		{
			"bufferView":31,
			"componentType":5123,
			"count":1968,
			"type":"SCALAR"
		}
	],
	"bufferViews":[
		{
			"buffer":0,
			"byteLength":29784,
			"byteOffset":0,
			"target":34962
		},
		{
			"buffer":0,
			"byteLength":29784,
			"byteOffset":29784,
			"target":34962
		},
		{
			"buffer":0,
			"byteLength":19856,
			"byteOffset":59568,
			"target":34962
		},
		{
			"buffer":0,
			"byteLength":27648,
			"byteOffset":79424,
			"target":34963
		},
		{
			"buffer":0,
			"byteLength":7776,
			"byteOffset":107072,
			"target":34962
		},
		{
			"buffer":0,
			"byteLength":7776,
			"byteOffset":114848,
			"target":34962
		},
		{
			"buffer":0,
			"byteLength":5184,
			"byteOffset":122624,
			"target":34962
		},
		{
			"buffer":0,
			"byteLength":3936,
			"byteOffset":127808,
			"target":34963
		},
		{
			"buffer":0,
			"byteLength":14892,
			"byteOffset":131744,
			"target":34962
		},
		{
			"buffer":0,
			"byteLength":14892,
			"byteOffset":146636,
			"target":34962
		},
		{
			"buffer":0,
			"byteLength":9928,
			"byteOffset":161528,
			"target":34962
		},
		{
			"buffer":0,
			"byteLength":13824,
			"byteOffset":171456,
			"target":34963
		},
		{
			"buffer":0,
			"byteLength":3888,
			"byteOffset":185280,
			"target":34962
		},
		{
			"buffer":0,
			"byteLength":3888,
			"byteOffset":189168,
			"target":34962
		},
		{
			"buffer":0,
			"byteLength":2592,
			"byteOffset":193056,
			"target":34962
		},
		{
			"buffer":0,
			"byteLength":1968,
			"byteOffset":195648,
			"target":34963
		},
		{
			"buffer":0,
			"byteLength":12444,
			"byteOffset":197616,
			"target":34962
		},
		{
			"buffer":0,
			"byteLength":12444,
			"byteOffset":210060,
			"target":34962
		},
		{
			"buffer":0,
			"byteLength":8296,
			"byteOffset":222504,
			"target":34962
		},
		{
			"buffer":0,
			"byteLength":11520,
			"byteOffset":230800,
			"target":34963
		},
		{
			"buffer":0,
			"byteLength":3888,
			"byteOffset":242320,
			"target":34962
		},
		{
			"buffer":0,
			"byteLength":3888,
			"byteOffset":246208,
			"target":34962
		},
		{
			"buffer":0,
			"byteLength":2592,
			"byteOffset":250096,
			"target":34962
		},
		{
			"buffer":0,
			"byteLength":1968,
			"byteOffset":252688,
			"target":34963
		},
		{
			"buffer":0,
			"byteLength":22440,
			"byteOffset":254656,
			"target":34962
		},
		{
			"buffer":0,
			"byteLength":22440,
			"byteOffset":277096,
			"target":34962
		},
		{
			"buffer":0,
			"byteLength":14960,
			"byteOffset":299536,
			"target":34962
		},
		{
			"buffer":0,
			"byteLength":20736,
			"byteOffset":314496,
			"target":34963
		},
		{
			"buffer":0,
			"byteLength":7776,
			"byteOffset":335232,
			"target":34962
		},
		{
			"buffer":0,
			"byteLength":7776,
			"byteOffset":343008,
			"target":34962
		},
		{
			"buffer":0,
			"byteLength":5184,
			"byteOffset":350784,
			"target":34962
		},
		{
			"buffer":0,
			"byteLength":3936,
			"byteOffset":355968,
			"target":34963
		}
	],
	"samplers":[
		{
			"magFilter":9729,
			"minFilter":9987
		}
	],
	"buffers":[
		{
			"byteLength":359904,
			"uri":"Prop_Cable.bin"
		}
	]
}
