{
	"asset":{
		"generator":"Khronos glTF Blender I/O v4.0.44",
		"version":"2.0"
	},
	"scene":0,
	"scenes":[
		{
			"name":"Scene",
			"nodes":[
				0,
				1,
				2,
				3,
				4,
				5,
				6
			]
		}
	],
	"nodes":[
		{
			"mesh":0,
			"name":"Prop_Rail_Round_Big"
		},
		{
			"mesh":1,
			"name":"Prop_Rail_Round_Big_01_convcolonly"
		},
		{
			"mesh":2,
			"name":"Prop_Rail_Round_Big_02_convcolonly"
		},
		{
			"mesh":3,
			"name":"Prop_Rail_Round_Big_03_convcolonly"
		},
		{
			"mesh":4,
			"name":"Prop_Rail_Round_Big_04_convcolonly"
		},
		{
			"mesh":5,
			"name":"Prop_Rail_Round_Big_05_convcolonly"
		},
		{
			"mesh":6,
			"name":"Prop_Rail_Round_Big_06_convcolonly"
		}
	],
	"materials":[
		{
			"doubleSided":true,
			"name":"MI_Trim_02_Rails",
			"normalTexture":{
				"index":0
			},
			"pbrMetallicRoughness":{
				"baseColorTexture":{
					"index":1
				},
				"metallicRoughnessTexture":{
					"index":2
				}
			}
		}
	],
	"meshes":[
		{
			"name":"Cylinder.024",
			"primitives":[
				{
					"attributes":{
						"POSITION":0,
						"NORMAL":1,
						"TEXCOORD_0":2
					},
					"indices":3,
					"material":0
				}
			]
		},
		{
			"name":"UCX_Prop_Rail_Round_Big_01",
			"primitives":[
				{
					"attributes":{
						"POSITION":4,
						"NORMAL":5,
						"TEXCOORD_0":6
					},
					"indices":7
				}
			]
		},
		{
			"name":"UCX_Prop_Rail_Round_Big_02",
			"primitives":[
				{
					"attributes":{
						"POSITION":8,
						"NORMAL":9,
						"TEXCOORD_0":10
					},
					"indices":11
				}
			]
		},
		{
			"name":"UCX_Prop_Rail_Round_Big_03",
			"primitives":[
				{
					"attributes":{
						"POSITION":12,
						"NORMAL":13,
						"TEXCOORD_0":14
					},
					"indices":15
				}
			]
		},
		{
			"name":"UCX_Prop_Rail_Round_Big_04",
			"primitives":[
				{
					"attributes":{
						"POSITION":16,
						"NORMAL":17,
						"TEXCOORD_0":18
					},
					"indices":19
				}
			]
		},
		{
			"name":"UCX_Prop_Rail_Round_Big_05",
			"primitives":[
				{
					"attributes":{
						"POSITION":20,
						"NORMAL":21,
						"TEXCOORD_0":22
					},
					"indices":23
				}
			]
		},
		{
			"name":"UCX_Prop_Rail_Round_Big_06",
			"primitives":[
				{
					"attributes":{
						"POSITION":24,
						"NORMAL":25,
						"TEXCOORD_0":26
					},
					"indices":11
				}
			]
		}
	],
	"textures":[
		{
			"sampler":0,
			"source":0
		},
		{
			"sampler":0,
			"source":1
		},
		{
			"sampler":0,
			"source":2
		}
	],
	"images":[
		{
			"mimeType":"image/png",
			"name":"T_Trim_02_Normal",
			"uri":"T_Trim_02_Normal.png"
		},
		{
			"mimeType":"image/png",
			"name":"T_Trim_02_BaseColor_Red",
			"uri":"T_Trim_02_BaseColor_Red.png"
		},
		{
			"mimeType":"image/png",
			"name":"T_Trim_02_ORM",
			"uri":"T_Trim_02_ORM.png"
		}
	],
	"accessors":[
		{
			"bufferView":0,
			"componentType":5126,
			"count":1098,
			"max":[
				4.033443927764893,
				0.8623678684234619,
				0.01924305409193039
			],
			"min":[
				0.03705131635069847,
				5.820766091346741e-08,
				-4.0296502113342285
			],
			"type":"VEC3"
		},
		{
			"bufferView":1,
			"componentType":5126,
			"count":1098,
			"type":"VEC3"
		},
		{
			"bufferView":2,
			"componentType":5126,
			"count":1098,
			"type":"VEC2"
		},
		{
			"bufferView":3,
			"componentType":5123,
			"count":5616,
			"type":"SCALAR"
		},
		{
			"bufferView":4,
			"componentType":5126,
			"count":24,
			"max":[
				3.9380807876586914,
				0.8816236853599548,
				-0.9934912919998169
			],
			"min":[
				3.416365623474121,
				-0.013017060235142708,
				-2.0138285160064697
			],
			"type":"VEC3"
		},
		{
			"bufferView":5,
			"componentType":5126,
			"count":24,
			"type":"VEC3"
		},
		{
			"bufferView":6,
			"componentType":5126,
			"count":24,
			"type":"VEC2"
		},
		{
			"bufferView":7,
			"componentType":5123,
			"count":36,
			"type":"SCALAR"
		},
		{
			"bufferView":8,
			"componentType":5126,
			"count":24,
			"max":[
				2.895646333694458,
				0.8816236853599548,
				-2.7619333267211914
			],
			"min":[
				1.9866833686828613,
				-0.013017060235142708,
				-3.512726306915283
			],
			"type":"VEC3"
		},
		{
			"bufferView":9,
			"componentType":5126,
			"count":24,
			"type":"VEC3"
		},
		{
			"bufferView":10,
			"componentType":5126,
			"count":24,
			"type":"VEC2"
		},
		{
			"bufferView":11,
			"componentType":5123,
			"count":36,
			"type":"SCALAR"
		},
		{
			"bufferView":12,
			"componentType":5126,
			"count":24,
			"max":[
				1.0773252248764038,
				0.8816236853599548,
				-3.7903172969818115
			],
			"min":[
				0.0246705524623394,
				-0.013017060235142708,
				-4.07039213180542
			],
			"type":"VEC3"
		},
		{
			"bufferView":13,
			"componentType":5126,
			"count":24,
			"type":"VEC3"
		},
		{
			"bufferView":14,
			"componentType":5126,
			"count":24,
			"type":"VEC2"
		},
		{
			"bufferView":15,
			"componentType":5123,
			"count":36,
			"type":"SCALAR"
		},
		{
			"bufferView":16,
			"componentType":5126,
			"count":24,
			"max":[
				4.070389747619629,
				0.8816236853599548,
				0.02467332035303116
			],
			"min":[
				3.8030874729156494,
				-0.013017060235142708,
				-1.0296624898910522
			],
			"type":"VEC3"
		},
		{
			"bufferView":17,
			"componentType":5126,
			"count":24,
			"type":"VEC3"
		},
		{
			"bufferView":18,
			"componentType":5126,
			"count":24,
			"type":"VEC2"
		},
		{
			"bufferView":19,
			"componentType":5123,
			"count":36,
			"type":"SCALAR"
		},
		{
			"bufferView":20,
			"componentType":5126,
			"count":24,
			"max":[
				3.5373973846435547,
				0.8816236853599548,
				-1.943950891494751
			],
			"min":[
				2.7968239784240723,
				-0.013017060235142708,
				-2.860755205154419
			],
			"type":"VEC3"
		},
		{
			"bufferView":21,
			"componentType":5126,
			"count":24,
			"type":"VEC3"
		},
		{
			"bufferView":22,
			"componentType":5126,
			"count":24,
			"type":"VEC2"
		},
		{
			"bufferView":23,
			"componentType":5123,
			"count":36,
			"type":"SCALAR"
		},
		{
			"bufferView":24,
			"componentType":5126,
			"count":24,
			"max":[
				2.0565614700317383,
				0.8816236853599548,
				-3.3916945457458496
			],
			"min":[
				1.0411534309387207,
				-0.013017060235142708,
				-3.9253108501434326
			],
			"type":"VEC3"
		},
		{
			"bufferView":25,
			"componentType":5126,
			"count":24,
			"type":"VEC3"
		},
		{
			"bufferView":26,
			"componentType":5126,
			"count":24,
			"type":"VEC2"
		}
	],
	"bufferViews":[
		{
			"buffer":0,
			"byteLength":13176,
			"byteOffset":0,
			"target":34962
		},
		{
			"buffer":0,
			"byteLength":13176,
			"byteOffset":13176,
			"target":34962
		},
		{
			"buffer":0,
			"byteLength":8784,
			"byteOffset":26352,
			"target":34962
		},
		{
			"buffer":0,
			"byteLength":11232,
			"byteOffset":35136,
			"target":34963
		},
		{
			"buffer":0,
			"byteLength":288,
			"byteOffset":46368,
			"target":34962
		},
		{
			"buffer":0,
			"byteLength":288,
			"byteOffset":46656,
			"target":34962
		},
		{
			"buffer":0,
			"byteLength":192,
			"byteOffset":46944,
			"target":34962
		},
		{
			"buffer":0,
			"byteLength":72,
			"byteOffset":47136,
			"target":34963
		},
		{
			"buffer":0,
			"byteLength":288,
			"byteOffset":47208,
			"target":34962
		},
		{
			"buffer":0,
			"byteLength":288,
			"byteOffset":47496,
			"target":34962
		},
		{
			"buffer":0,
			"byteLength":192,
			"byteOffset":47784,
			"target":34962
		},
		{
			"buffer":0,
			"byteLength":72,
			"byteOffset":47976,
			"target":34963
		},
		{
			"buffer":0,
			"byteLength":288,
			"byteOffset":48048,
			"target":34962
		},
		{
			"buffer":0,
			"byteLength":288,
			"byteOffset":48336,
			"target":34962
		},
		{
			"buffer":0,
			"byteLength":192,
			"byteOffset":48624,
			"target":34962
		},
		{
			"buffer":0,
			"byteLength":72,
			"byteOffset":48816,
			"target":34963
		},
		{
			"buffer":0,
			"byteLength":288,
			"byteOffset":48888,
			"target":34962
		},
		{
			"buffer":0,
			"byteLength":288,
			"byteOffset":49176,
			"target":34962
		},
		{
			"buffer":0,
			"byteLength":192,
			"byteOffset":49464,
			"target":34962
		},
		{
			"buffer":0,
			"byteLength":72,
			"byteOffset":49656,
			"target":34963
		},
		{
			"buffer":0,
			"byteLength":288,
			"byteOffset":49728,
			"target":34962
		},
		{
			"buffer":0,
			"byteLength":288,
			"byteOffset":50016,
			"target":34962
		},
		{
			"buffer":0,
			"byteLength":192,
			"byteOffset":50304,
			"target":34962
		},
		{
			"buffer":0,
			"byteLength":72,
			"byteOffset":50496,
			"target":34963
		},
		{
			"buffer":0,
			"byteLength":288,
			"byteOffset":50568,
			"target":34962
		},
		{
			"buffer":0,
			"byteLength":288,
			"byteOffset":50856,
			"target":34962
		},
		{
			"buffer":0,
			"byteLength":192,
			"byteOffset":51144,
			"target":34962
		}
	],
	"samplers":[
		{
			"magFilter":9729,
			"minFilter":9987
		}
	],
	"buffers":[
		{
			"byteLength":51336,
			"uri":"Prop_Rail_Round_Big.bin"
		}
	]
}
