{
	"asset":{
		"generator":"Khronos glTF Blender I/O v4.0.44",
		"version":"2.0"
	},
	"extensionsUsed":[
		"KHR_materials_specular",
		"KHR_materials_ior"
	],
	"scene":0,
	"scenes":[
		{
			"name":"Scene",
			"nodes":[
				0,
				1,
				2,
				3,
				4,
				5,
				6,
				7,
				8,
				9,
				10
			]
		}
	],
	"nodes":[
		{
			"mesh":0,
			"name":"Prop_Pipe_Small_Curve"
		},
		{
			"mesh":1,
			"name":"Prop_Pipe_Small_Curve_01_convcolonly"
		},
		{
			"mesh":2,
			"name":"Prop_Pipe_Small_Curve_02_convcolonly"
		},
		{
			"mesh":3,
			"name":"Prop_Pipe_Small_Curve_03_convcolonly"
		},
		{
			"mesh":4,
			"name":"Prop_Pipe_Small_Curve_04_convcolonly"
		},
		{
			"mesh":5,
			"name":"Prop_Pipe_Small_Curve_05_convcolonly"
		},
		{
			"mesh":6,
			"name":"Prop_Pipe_Small_Curve_06_convcolonly"
		},
		{
			"mesh":7,
			"name":"Prop_Pipe_Small_Curve_07_convcolonly"
		},
		{
			"mesh":8,
			"name":"Prop_Pipe_Small_Curve_08_convcolonly"
		},
		{
			"mesh":9,
			"name":"Prop_Pipe_Small_Curve_09_convcolonly"
		},
		{
			"mesh":10,
			"name":"Prop_Pipe_Small_Curve_10_convcolonly"
		}
	],
	"materials":[
		{
			"doubleSided":true,
			"extensions":{
				"KHR_materials_specular":{
					"specularFactor":0
				},
				"KHR_materials_ior":{
					"ior":1.4500000476837158
				}
			},
			"name":"MI_Trim_01",
			"normalTexture":{
				"index":0
			},
			"pbrMetallicRoughness":{
				"baseColorTexture":{
					"index":1
				},
				"metallicRoughnessTexture":{
					"index":2
				}
			}
		},
		{
			"doubleSided":true,
			"name":"MI_Trim_02",
			"normalTexture":{
				"index":3
			},
			"pbrMetallicRoughness":{
				"baseColorTexture":{
					"index":4
				},
				"metallicRoughnessTexture":{
					"index":5
				}
			}
		}
	],
	"meshes":[
		{
			"name":"Cylinder.005",
			"primitives":[
				{
					"attributes":{
						"POSITION":0,
						"NORMAL":1,
						"TEXCOORD_0":2
					},
					"indices":3,
					"material":0
				},
				{
					"attributes":{
						"POSITION":4,
						"NORMAL":5,
						"TEXCOORD_0":6
					},
					"indices":7,
					"material":1
				}
			]
		},
		{
			"name":"Cylinder.047",
			"primitives":[
				{
					"attributes":{
						"POSITION":8,
						"NORMAL":9,
						"TEXCOORD_0":10
					},
					"indices":11
				}
			]
		},
		{
			"name":"Cylinder.048",
			"primitives":[
				{
					"attributes":{
						"POSITION":12,
						"NORMAL":13,
						"TEXCOORD_0":14
					},
					"indices":15
				}
			]
		},
		{
			"name":"Cylinder.049",
			"primitives":[
				{
					"attributes":{
						"POSITION":16,
						"NORMAL":17,
						"TEXCOORD_0":18
					},
					"indices":19
				}
			]
		},
		{
			"name":"Cylinder.050",
			"primitives":[
				{
					"attributes":{
						"POSITION":20,
						"NORMAL":21,
						"TEXCOORD_0":22
					},
					"indices":23
				}
			]
		},
		{
			"name":"Cylinder.051",
			"primitives":[
				{
					"attributes":{
						"POSITION":24,
						"NORMAL":25,
						"TEXCOORD_0":26
					},
					"indices":23
				}
			]
		},
		{
			"name":"Cylinder.052",
			"primitives":[
				{
					"attributes":{
						"POSITION":27,
						"NORMAL":28,
						"TEXCOORD_0":29
					},
					"indices":30
				}
			]
		},
		{
			"name":"Cylinder.053",
			"primitives":[
				{
					"attributes":{
						"POSITION":31,
						"NORMAL":32,
						"TEXCOORD_0":33
					},
					"indices":34
				}
			]
		},
		{
			"name":"Cylinder.054",
			"primitives":[
				{
					"attributes":{
						"POSITION":35,
						"NORMAL":36,
						"TEXCOORD_0":37
					},
					"indices":23
				}
			]
		},
		{
			"name":"Cylinder.055",
			"primitives":[
				{
					"attributes":{
						"POSITION":38,
						"NORMAL":39,
						"TEXCOORD_0":40
					},
					"indices":23
				}
			]
		},
		{
			"name":"Cylinder.056",
			"primitives":[
				{
					"attributes":{
						"POSITION":41,
						"NORMAL":42,
						"TEXCOORD_0":43
					},
					"indices":23
				}
			]
		}
	],
	"textures":[
		{
			"sampler":0,
			"source":0
		},
		{
			"sampler":0,
			"source":1
		},
		{
			"sampler":0,
			"source":2
		},
		{
			"sampler":0,
			"source":3
		},
		{
			"sampler":0,
			"source":4
		},
		{
			"sampler":0,
			"source":5
		}
	],
	"images":[
		{
			"mimeType":"image/png",
			"name":"T_Trim_01_Normal",
			"uri":"T_Trim_01_Normal.png"
		},
		{
			"mimeType":"image/png",
			"name":"T_Trim_01_BaseColor_Red",
			"uri":"T_Trim_01_BaseColor_Red.png"
		},
		{
			"mimeType":"image/png",
			"name":"T_Trim_01_ORM",
			"uri":"T_Trim_01_ORM.png"
		},
		{
			"mimeType":"image/png",
			"name":"T_Trim_02_Normal",
			"uri":"T_Trim_02_Normal.png"
		},
		{
			"mimeType":"image/png",
			"name":"T_Trim_02_BaseColor_Red",
			"uri":"T_Trim_02_BaseColor_Red.png"
		},
		{
			"mimeType":"image/png",
			"name":"T_Trim_02_ORM",
			"uri":"T_Trim_02_ORM.png"
		}
	],
	"accessors":[
		{
			"bufferView":0,
			"componentType":5126,
			"count":660,
			"max":[
				-1.57758961449872e-07,
				0.06999771296977997,
				4.069997787475586
			],
			"min":[
				-4.069960594177246,
				-0.06999734044075012,
				-0.0005469080060720444
			],
			"type":"VEC3"
		},
		{
			"bufferView":1,
			"componentType":5126,
			"count":660,
			"type":"VEC3"
		},
		{
			"bufferView":2,
			"componentType":5126,
			"count":660,
			"type":"VEC2"
		},
		{
			"bufferView":3,
			"componentType":5123,
			"count":2736,
			"type":"SCALAR"
		},
		{
			"bufferView":4,
			"componentType":5126,
			"count":192,
			"max":[
				-0.1776285022497177,
				0.06999769061803818,
				4.057759761810303
			],
			"min":[
				-4.057795524597168,
				-0.06999732553958893,
				0.1771005094051361
			],
			"type":"VEC3"
		},
		{
			"bufferView":5,
			"componentType":5126,
			"count":192,
			"type":"VEC3"
		},
		{
			"bufferView":6,
			"componentType":5126,
			"count":192,
			"type":"VEC2"
		},
		{
			"bufferView":7,
			"componentType":5123,
			"count":576,
			"type":"SCALAR"
		},
		{
			"bufferView":8,
			"componentType":5126,
			"count":48,
			"max":[
				-3.8784842491149902,
				0.07277003675699234,
				0.6393816471099854
			],
			"min":[
				-4.072730541229248,
				-0.07276874035596848,
				0.0022939660120755434
			],
			"type":"VEC3"
		},
		{
			"bufferView":9,
			"componentType":5126,
			"count":48,
			"type":"VEC3"
		},
		{
			"bufferView":10,
			"componentType":5126,
			"count":48,
			"type":"VEC2"
		},
		{
			"bufferView":11,
			"componentType":5123,
			"count":84,
			"type":"SCALAR"
		},
		{
			"bufferView":12,
			"componentType":5126,
			"count":48,
			"max":[
				-3.4981167316436768,
				0.07277002930641174,
				1.8510271310806274
			],
			"min":[
				-3.8726911544799805,
				-0.07276872545480728,
				1.2157520055770874
			],
			"type":"VEC3"
		},
		{
			"bufferView":13,
			"componentType":5126,
			"count":48,
			"type":"VEC3"
		},
		{
			"bufferView":14,
			"componentType":5126,
			"count":48,
			"type":"VEC2"
		},
		{
			"bufferView":15,
			"componentType":5123,
			"count":84,
			"type":"SCALAR"
		},
		{
			"bufferView":16,
			"componentType":5126,
			"count":48,
			"max":[
				-2.7753286361694336,
				0.07277002185583115,
				2.8814823627471924
			],
			"min":[
				-3.2935657501220703,
				-0.07276871055364609,
				2.3102047443389893
			],
			"type":"VEC3"
		},
		{
			"bufferView":17,
			"componentType":5126,
			"count":48,
			"type":"VEC3"
		},
		{
			"bufferView":18,
			"componentType":5126,
			"count":48,
			"type":"VEC2"
		},
		{
			"bufferView":19,
			"componentType":5123,
			"count":84,
			"type":"SCALAR"
		},
		{
			"bufferView":20,
			"componentType":5126,
			"count":48,
			"max":[
				-1.780871868133545,
				0.07277001440525055,
				3.6298789978027344
			],
			"min":[
				-2.392042636871338,
				-0.0727686882019043,
				3.1785197257995605
			],
			"type":"VEC3"
		},
		{
			"bufferView":21,
			"componentType":5126,
			"count":48,
			"type":"VEC3"
		},
		{
			"bufferView":22,
			"componentType":5126,
			"count":48,
			"type":"VEC2"
		},
		{
			"bufferView":23,
			"componentType":5123,
			"count":84,
			"type":"SCALAR"
		},
		{
			"bufferView":24,
			"componentType":5126,
			"count":48,
			"max":[
				-0.6120907664299011,
				0.07277000695466995,
				4.022958755493164
			],
			"min":[
				-1.2563695907592773,
				-0.0727686807513237,
				3.7357003688812256
			],
			"type":"VEC3"
		},
		{
			"bufferView":25,
			"componentType":5126,
			"count":48,
			"type":"VEC3"
		},
		{
			"bufferView":26,
			"componentType":5126,
			"count":48,
			"type":"VEC2"
		},
		{
			"bufferView":27,
			"componentType":5126,
			"count":48,
			"max":[
				-3.7342758178710938,
				0.07277003675699234,
				1.2607258558273315
			],
			"min":[
				-4.022231578826904,
				-0.07276873290538788,
				0.6166144013404846
			],
			"type":"VEC3"
		},
		{
			"bufferView":28,
			"componentType":5126,
			"count":48,
			"type":"VEC3"
		},
		{
			"bufferView":29,
			"componentType":5126,
			"count":48,
			"type":"VEC2"
		},
		{
			"bufferView":30,
			"componentType":5123,
			"count":84,
			"type":"SCALAR"
		},
		{
			"bufferView":31,
			"componentType":5126,
			"count":48,
			"max":[
				-3.1758222579956055,
				0.07277002930641174,
				2.3957502841949463
			],
			"min":[
				-3.6277925968170166,
				-0.07276871800422668,
				1.7849540710449219
			],
			"type":"VEC3"
		},
		{
			"bufferView":32,
			"componentType":5126,
			"count":48,
			"type":"VEC3"
		},
		{
			"bufferView":33,
			"componentType":5126,
			"count":48,
			"type":"VEC2"
		},
		{
			"bufferView":34,
			"componentType":5123,
			"count":84,
			"type":"SCALAR"
		},
		{
			"bufferView":35,
			"componentType":5126,
			"count":48,
			"max":[
				-2.306497097015381,
				0.07277002185583115,
				3.2962629795074463
			],
			"min":[
				-2.878239870071411,
				-0.0727686956524849,
				2.7785708904266357
			],
			"type":"VEC3"
		},
		{
			"bufferView":36,
			"componentType":5126,
			"count":48,
			"type":"VEC3"
		},
		{
			"bufferView":37,
			"componentType":5126,
			"count":48,
			"type":"VEC2"
		},
		{
			"bufferView":38,
			"componentType":5126,
			"count":48,
			"max":[
				-1.2113956212997437,
				0.07277001440525055,
				3.874115467071533
			],
			"min":[
				-1.8469451665878296,
				-0.0727686882019043,
				3.5002033710479736
			],
			"type":"VEC3"
		},
		{
			"bufferView":39,
			"componentType":5126,
			"count":48,
			"type":"VEC3"
		},
		{
			"bufferView":40,
			"componentType":5126,
			"count":48,
			"type":"VEC2"
		},
		{
			"bufferView":41,
			"componentType":5126,
			"count":48,
			"max":[
				0.002286257455125451,
				0.07276999205350876,
				4.0727434158325195
			],
			"min":[
				-0.6348578333854675,
				-0.0727686733007431,
				3.8792123794555664
			],
			"type":"VEC3"
		},
		{
			"bufferView":42,
			"componentType":5126,
			"count":48,
			"type":"VEC3"
		},
		{
			"bufferView":43,
			"componentType":5126,
			"count":48,
			"type":"VEC2"
		}
	],
	"bufferViews":[
		{
			"buffer":0,
			"byteLength":7920,
			"byteOffset":0,
			"target":34962
		},
		{
			"buffer":0,
			"byteLength":7920,
			"byteOffset":7920,
			"target":34962
		},
		{
			"buffer":0,
			"byteLength":5280,
			"byteOffset":15840,
			"target":34962
		},
		{
			"buffer":0,
			"byteLength":5472,
			"byteOffset":21120,
			"target":34963
		},
		{
			"buffer":0,
			"byteLength":2304,
			"byteOffset":26592,
			"target":34962
		},
		{
			"buffer":0,
			"byteLength":2304,
			"byteOffset":28896,
			"target":34962
		},
		{
			"buffer":0,
			"byteLength":1536,
			"byteOffset":31200,
			"target":34962
		},
		{
			"buffer":0,
			"byteLength":1152,
			"byteOffset":32736,
			"target":34963
		},
		{
			"buffer":0,
			"byteLength":576,
			"byteOffset":33888,
			"target":34962
		},
		{
			"buffer":0,
			"byteLength":576,
			"byteOffset":34464,
			"target":34962
		},
		{
			"buffer":0,
			"byteLength":384,
			"byteOffset":35040,
			"target":34962
		},
		{
			"buffer":0,
			"byteLength":168,
			"byteOffset":35424,
			"target":34963
		},
		{
			"buffer":0,
			"byteLength":576,
			"byteOffset":35592,
			"target":34962
		},
		{
			"buffer":0,
			"byteLength":576,
			"byteOffset":36168,
			"target":34962
		},
		{
			"buffer":0,
			"byteLength":384,
			"byteOffset":36744,
			"target":34962
		},
		{
			"buffer":0,
			"byteLength":168,
			"byteOffset":37128,
			"target":34963
		},
		{
			"buffer":0,
			"byteLength":576,
			"byteOffset":37296,
			"target":34962
		},
		{
			"buffer":0,
			"byteLength":576,
			"byteOffset":37872,
			"target":34962
		},
		{
			"buffer":0,
			"byteLength":384,
			"byteOffset":38448,
			"target":34962
		},
		{
			"buffer":0,
			"byteLength":168,
			"byteOffset":38832,
			"target":34963
		},
		{
			"buffer":0,
			"byteLength":576,
			"byteOffset":39000,
			"target":34962
		},
		{
			"buffer":0,
			"byteLength":576,
			"byteOffset":39576,
			"target":34962
		},
		{
			"buffer":0,
			"byteLength":384,
			"byteOffset":40152,
			"target":34962
		},
		{
			"buffer":0,
			"byteLength":168,
			"byteOffset":40536,
			"target":34963
		},
		{
			"buffer":0,
			"byteLength":576,
			"byteOffset":40704,
			"target":34962
		},
		{
			"buffer":0,
			"byteLength":576,
			"byteOffset":41280,
			"target":34962
		},
		{
			"buffer":0,
			"byteLength":384,
			"byteOffset":41856,
			"target":34962
		},
		{
			"buffer":0,
			"byteLength":576,
			"byteOffset":42240,
			"target":34962
		},
		{
			"buffer":0,
			"byteLength":576,
			"byteOffset":42816,
			"target":34962
		},
		{
			"buffer":0,
			"byteLength":384,
			"byteOffset":43392,
			"target":34962
		},
		{
			"buffer":0,
			"byteLength":168,
			"byteOffset":43776,
			"target":34963
		},
		{
			"buffer":0,
			"byteLength":576,
			"byteOffset":43944,
			"target":34962
		},
		{
			"buffer":0,
			"byteLength":576,
			"byteOffset":44520,
			"target":34962
		},
		{
			"buffer":0,
			"byteLength":384,
			"byteOffset":45096,
			"target":34962
		},
		{
			"buffer":0,
			"byteLength":168,
			"byteOffset":45480,
			"target":34963
		},
		{
			"buffer":0,
			"byteLength":576,
			"byteOffset":45648,
			"target":34962
		},
		{
			"buffer":0,
			"byteLength":576,
			"byteOffset":46224,
			"target":34962
		},
		{
			"buffer":0,
			"byteLength":384,
			"byteOffset":46800,
			"target":34962
		},
		{
			"buffer":0,
			"byteLength":576,
			"byteOffset":47184,
			"target":34962
		},
		{
			"buffer":0,
			"byteLength":576,
			"byteOffset":47760,
			"target":34962
		},
		{
			"buffer":0,
			"byteLength":384,
			"byteOffset":48336,
			"target":34962
		},
		{
			"buffer":0,
			"byteLength":576,
			"byteOffset":48720,
			"target":34962
		},
		{
			"buffer":0,
			"byteLength":576,
			"byteOffset":49296,
			"target":34962
		},
		{
			"buffer":0,
			"byteLength":384,
			"byteOffset":49872,
			"target":34962
		}
	],
	"samplers":[
		{
			"magFilter":9729,
			"minFilter":9987
		}
	],
	"buffers":[
		{
			"byteLength":50256,
			"uri":"Prop_Pipe_Small_Curve.bin"
		}
	]
}
