{
	"asset":{
		"generator":"Khronos glTF Blender I/O v4.0.44",
		"version":"2.0"
	},
	"scene":0,
	"scenes":[
		{
			"name":"Scene",
			"nodes":[
				0,
				1,
				2,
				3,
				4,
				5,
				6
			]
		}
	],
	"nodes":[
		{
			"mesh":0,
			"name":"Prop_Rail_Round_Small"
		},
		{
			"mesh":1,
			"name":"Prop_Rail_Round_Small_01_convcolonly"
		},
		{
			"mesh":2,
			"name":"Prop_Rail_Round_Small_02_convcolonly"
		},
		{
			"mesh":3,
			"name":"Prop_Rail_Round_Small_03_convcolonly"
		},
		{
			"mesh":4,
			"name":"Prop_Rail_Round_Small_04_convcolonly"
		},
		{
			"mesh":5,
			"name":"Prop_Rail_Round_Small_05_convcolonly"
		},
		{
			"mesh":6,
			"name":"Prop_Rail_Round_Small_06_convcolonly"
		}
	],
	"materials":[
		{
			"doubleSided":true,
			"name":"MI_Trim_02_Rails",
			"normalTexture":{
				"index":0
			},
			"pbrMetallicRoughness":{
				"baseColorTexture":{
					"index":1
				},
				"metallicRoughnessTexture":{
					"index":2
				}
			}
		}
	],
	"meshes":[
		{
			"name":"Cylinder.026",
			"primitives":[
				{
					"attributes":{
						"POSITION":0,
						"NORMAL":1,
						"TEXCOORD_0":2
					},
					"indices":3,
					"material":0
				}
			]
		},
		{
			"name":"UCX_Prop_Rail_Round_Small_01",
			"primitives":[
				{
					"attributes":{
						"POSITION":4,
						"NORMAL":5,
						"TEXCOORD_0":6
					},
					"indices":7
				}
			]
		},
		{
			"name":"UCX_Prop_Rail_Round_Small_02",
			"primitives":[
				{
					"attributes":{
						"POSITION":8,
						"NORMAL":9,
						"TEXCOORD_0":10
					},
					"indices":11
				}
			]
		},
		{
			"name":"UCX_Prop_Rail_Round_Small_03",
			"primitives":[
				{
					"attributes":{
						"POSITION":12,
						"NORMAL":13,
						"TEXCOORD_0":14
					},
					"indices":15
				}
			]
		},
		{
			"name":"UCX_Prop_Rail_Round_Small_04",
			"primitives":[
				{
					"attributes":{
						"POSITION":16,
						"NORMAL":17,
						"TEXCOORD_0":18
					},
					"indices":19
				}
			]
		},
		{
			"name":"UCX_Prop_Rail_Round_Small_05",
			"primitives":[
				{
					"attributes":{
						"POSITION":20,
						"NORMAL":21,
						"TEXCOORD_0":22
					},
					"indices":23
				}
			]
		},
		{
			"name":"UCX_Prop_Rail_Round_Small_06",
			"primitives":[
				{
					"attributes":{
						"POSITION":24,
						"NORMAL":25,
						"TEXCOORD_0":26
					},
					"indices":11
				}
			]
		}
	],
	"textures":[
		{
			"sampler":0,
			"source":0
		},
		{
			"sampler":0,
			"source":1
		},
		{
			"sampler":0,
			"source":2
		}
	],
	"images":[
		{
			"mimeType":"image/png",
			"name":"T_Trim_02_Normal",
			"uri":"T_Trim_02_Normal.png"
		},
		{
			"mimeType":"image/png",
			"name":"T_Trim_02_BaseColor_Red",
			"uri":"T_Trim_02_BaseColor_Red.png"
		},
		{
			"mimeType":"image/png",
			"name":"T_Trim_02_ORM",
			"uri":"T_Trim_02_ORM.png"
		}
	],
	"accessors":[
		{
			"bufferView":0,
			"componentType":5126,
			"count":952,
			"max":[
				2.0278232097625732,
				0.8623189926147461,
				-0.06363175809383392
			],
			"min":[
				0.034122273325920105,
				5.681067705154419e-08,
				-2.029832601547241
			],
			"type":"VEC3"
		},
		{
			"bufferView":1,
			"componentType":5126,
			"count":952,
			"type":"VEC3"
		},
		{
			"bufferView":2,
			"componentType":5126,
			"count":952,
			"type":"VEC2"
		},
		{
			"bufferView":3,
			"componentType":5123,
			"count":4776,
			"type":"SCALAR"
		},
		{
			"bufferView":4,
			"componentType":5126,
			"count":24,
			"max":[
				1.974398136138916,
				0.8816236853599548,
				-0.4980972707271576
			],
			"min":[
				1.7128307819366455,
				-0.013017060235142708,
				-1.009653925895691
			],
			"type":"VEC3"
		},
		{
			"bufferView":5,
			"componentType":5126,
			"count":24,
			"type":"VEC3"
		},
		{
			"bufferView":6,
			"componentType":5126,
			"count":24,
			"type":"VEC2"
		},
		{
			"bufferView":7,
			"componentType":5123,
			"count":36,
			"type":"SCALAR"
		},
		{
			"bufferView":8,
			"componentType":5126,
			"count":24,
			"max":[
				1.4517627954483032,
				0.8816236853599548,
				-1.3847241401672363
			],
			"min":[
				0.9960446357727051,
				-0.013017060235142708,
				-1.7611421346664429
			],
			"type":"VEC3"
		},
		{
			"bufferView":9,
			"componentType":5126,
			"count":24,
			"type":"VEC3"
		},
		{
			"bufferView":10,
			"componentType":5126,
			"count":24,
			"type":"VEC2"
		},
		{
			"bufferView":11,
			"componentType":5123,
			"count":36,
			"type":"SCALAR"
		},
		{
			"bufferView":12,
			"componentType":5126,
			"count":24,
			"max":[
				0.5401283502578735,
				0.8816236853599548,
				-1.9003151655197144
			],
			"min":[
				0.012368840165436268,
				-0.013017060235142708,
				-2.040733575820923
			],
			"type":"VEC3"
		},
		{
			"bufferView":13,
			"componentType":5126,
			"count":24,
			"type":"VEC3"
		},
		{
			"bufferView":14,
			"componentType":5126,
			"count":24,
			"type":"VEC2"
		},
		{
			"bufferView":15,
			"componentType":5123,
			"count":36,
			"type":"SCALAR"
		},
		{
			"bufferView":16,
			"componentType":5126,
			"count":24,
			"max":[
				2.0407328605651855,
				0.8816236853599548,
				0.012370227836072445
			],
			"min":[
				1.9067178964614868,
				-0.013017060235142708,
				-0.5162320733070374
			],
			"type":"VEC3"
		},
		{
			"bufferView":17,
			"componentType":5126,
			"count":24,
			"type":"VEC3"
		},
		{
			"bufferView":18,
			"componentType":5126,
			"count":24,
			"type":"VEC2"
		},
		{
			"bufferView":19,
			"componentType":5123,
			"count":36,
			"type":"SCALAR"
		},
		{
			"bufferView":20,
			"componentType":5126,
			"count":24,
			"max":[
				1.7735114097595215,
				0.8816236853599548,
				-0.9746201038360596
			],
			"min":[
				1.402217149734497,
				-0.013017060235142708,
				-1.4342695474624634
			],
			"type":"VEC3"
		},
		{
			"bufferView":21,
			"componentType":5126,
			"count":24,
			"type":"VEC3"
		},
		{
			"bufferView":22,
			"componentType":5126,
			"count":24,
			"type":"VEC2"
		},
		{
			"bufferView":23,
			"componentType":5123,
			"count":36,
			"type":"SCALAR"
		},
		{
			"bufferView":24,
			"componentType":5126,
			"count":24,
			"max":[
				1.0310786962509155,
				0.8816236853599548,
				-1.7004616260528564
			],
			"min":[
				0.5219932198524475,
				-0.013017060235142708,
				-1.9679956436157227
			],
			"type":"VEC3"
		},
		{
			"bufferView":25,
			"componentType":5126,
			"count":24,
			"type":"VEC3"
		},
		{
			"bufferView":26,
			"componentType":5126,
			"count":24,
			"type":"VEC2"
		}
	],
	"bufferViews":[
		{
			"buffer":0,
			"byteLength":11424,
			"byteOffset":0,
			"target":34962
		},
		{
			"buffer":0,
			"byteLength":11424,
			"byteOffset":11424,
			"target":34962
		},
		{
			"buffer":0,
			"byteLength":7616,
			"byteOffset":22848,
			"target":34962
		},
		{
			"buffer":0,
			"byteLength":9552,
			"byteOffset":30464,
			"target":34963
		},
		{
			"buffer":0,
			"byteLength":288,
			"byteOffset":40016,
			"target":34962
		},
		{
			"buffer":0,
			"byteLength":288,
			"byteOffset":40304,
			"target":34962
		},
		{
			"buffer":0,
			"byteLength":192,
			"byteOffset":40592,
			"target":34962
		},
		{
			"buffer":0,
			"byteLength":72,
			"byteOffset":40784,
			"target":34963
		},
		{
			"buffer":0,
			"byteLength":288,
			"byteOffset":40856,
			"target":34962
		},
		{
			"buffer":0,
			"byteLength":288,
			"byteOffset":41144,
			"target":34962
		},
		{
			"buffer":0,
			"byteLength":192,
			"byteOffset":41432,
			"target":34962
		},
		{
			"buffer":0,
			"byteLength":72,
			"byteOffset":41624,
			"target":34963
		},
		{
			"buffer":0,
			"byteLength":288,
			"byteOffset":41696,
			"target":34962
		},
		{
			"buffer":0,
			"byteLength":288,
			"byteOffset":41984,
			"target":34962
		},
		{
			"buffer":0,
			"byteLength":192,
			"byteOffset":42272,
			"target":34962
		},
		{
			"buffer":0,
			"byteLength":72,
			"byteOffset":42464,
			"target":34963
		},
		{
			"buffer":0,
			"byteLength":288,
			"byteOffset":42536,
			"target":34962
		},
		{
			"buffer":0,
			"byteLength":288,
			"byteOffset":42824,
			"target":34962
		},
		{
			"buffer":0,
			"byteLength":192,
			"byteOffset":43112,
			"target":34962
		},
		{
			"buffer":0,
			"byteLength":72,
			"byteOffset":43304,
			"target":34963
		},
		{
			"buffer":0,
			"byteLength":288,
			"byteOffset":43376,
			"target":34962
		},
		{
			"buffer":0,
			"byteLength":288,
			"byteOffset":43664,
			"target":34962
		},
		{
			"buffer":0,
			"byteLength":192,
			"byteOffset":43952,
			"target":34962
		},
		{
			"buffer":0,
			"byteLength":72,
			"byteOffset":44144,
			"target":34963
		},
		{
			"buffer":0,
			"byteLength":288,
			"byteOffset":44216,
			"target":34962
		},
		{
			"buffer":0,
			"byteLength":288,
			"byteOffset":44504,
			"target":34962
		},
		{
			"buffer":0,
			"byteLength":192,
			"byteOffset":44792,
			"target":34962
		}
	],
	"samplers":[
		{
			"magFilter":9729,
			"minFilter":9987
		}
	],
	"buffers":[
		{
			"byteLength":44984,
			"uri":"Prop_Rail_Round_Small.bin"
		}
	]
}
