{
	"asset":{
		"generator":"Khronos glTF Blender I/O v4.0.44",
		"version":"2.0"
	},
	"extensionsUsed":[
		"KHR_materials_specular",
		"KHR_materials_ior"
	],
	"scene":0,
	"scenes":[
		{
			"name":"Scene",
			"nodes":[
				0,
				1,
				2,
				3,
				4,
				5,
				6
			]
		}
	],
	"nodes":[
		{
			"mesh":0,
			"name":"Prop_Light_Corner"
		},
		{
			"mesh":1,
			"name":"Prop_Light_Corner_1_convcolonly"
		},
		{
			"mesh":2,
			"name":"Prop_Light_Corner_2_convcolonly"
		},
		{
			"mesh":3,
			"name":"Prop_Light_Corner_3_convcolonly"
		},
		{
			"mesh":4,
			"name":"Prop_Light_Corner_4_convcolonly"
		},
		{
			"mesh":5,
			"name":"Prop_Light_Corner_5_convcolonly"
		},
		{
			"mesh":6,
			"name":"Prop_Light_Corner_6_convcolonly"
		}
	],
	"materials":[
		{
			"doubleSided":true,
			"extensions":{
				"KHR_materials_specular":{
					"specularFactor":0
				},
				"KHR_materials_ior":{
					"ior":1.4500000476837158
				}
			},
			"name":"MI_Trim_01",
			"normalTexture":{
				"index":0
			},
			"pbrMetallicRoughness":{
				"baseColorTexture":{
					"index":1
				},
				"metallicRoughnessTexture":{
					"index":2
				}
			}
		},
		{
			"doubleSided":true,
			"emissiveFactor":[
				1,
				1,
				1
			],
			"name":"M_Light",
			"pbrMetallicRoughness":{
				"baseColorFactor":[
					0,
					0,
					0,
					1
				]
			}
		}
	],
	"meshes":[
		{
			"name":"Cube.056",
			"primitives":[
				{
					"attributes":{
						"POSITION":0,
						"NORMAL":1,
						"TEXCOORD_0":2
					},
					"indices":3,
					"material":0
				},
				{
					"attributes":{
						"POSITION":4,
						"NORMAL":5,
						"TEXCOORD_0":6
					},
					"indices":7,
					"material":1
				}
			]
		},
		{
			"name":"Cube.308",
			"primitives":[
				{
					"attributes":{
						"POSITION":8,
						"NORMAL":9,
						"TEXCOORD_0":10
					},
					"indices":11
				}
			]
		},
		{
			"name":"Cube.309",
			"primitives":[
				{
					"attributes":{
						"POSITION":12,
						"NORMAL":13,
						"TEXCOORD_0":14
					},
					"indices":15
				}
			]
		},
		{
			"name":"Cube.310",
			"primitives":[
				{
					"attributes":{
						"POSITION":16,
						"NORMAL":17,
						"TEXCOORD_0":18
					},
					"indices":19
				}
			]
		},
		{
			"name":"Cube.311",
			"primitives":[
				{
					"attributes":{
						"POSITION":20,
						"NORMAL":21,
						"TEXCOORD_0":22
					},
					"indices":15
				}
			]
		},
		{
			"name":"Cube.312",
			"primitives":[
				{
					"attributes":{
						"POSITION":23,
						"NORMAL":24,
						"TEXCOORD_0":25
					},
					"indices":19
				}
			]
		},
		{
			"name":"Cube.313",
			"primitives":[
				{
					"attributes":{
						"POSITION":26,
						"NORMAL":27,
						"TEXCOORD_0":28
					},
					"indices":29
				}
			]
		}
	],
	"textures":[
		{
			"sampler":0,
			"source":0
		},
		{
			"sampler":0,
			"source":1
		},
		{
			"sampler":0,
			"source":2
		}
	],
	"images":[
		{
			"mimeType":"image/png",
			"name":"T_Trim_01_Normal",
			"uri":"T_Trim_01_Normal.png"
		},
		{
			"mimeType":"image/png",
			"name":"T_Trim_01_BaseColor_Red",
			"uri":"T_Trim_01_BaseColor_Red.png"
		},
		{
			"mimeType":"image/png",
			"name":"T_Trim_01_ORM",
			"uri":"T_Trim_01_ORM.png"
		}
	],
	"accessors":[
		{
			"bufferView":0,
			"componentType":5126,
			"count":764,
			"max":[
				-0.0969557836651802,
				0.034225158393383026,
				-0.004988536704331636
			],
			"min":[
				-4.21993350982666,
				-0.14768467843532562,
				-4.213313102722168
			],
			"type":"VEC3"
		},
		{
			"bufferView":1,
			"componentType":5126,
			"count":764,
			"type":"VEC3"
		},
		{
			"bufferView":2,
			"componentType":5126,
			"count":764,
			"type":"VEC2"
		},
		{
			"bufferView":3,
			"componentType":5123,
			"count":1812,
			"type":"SCALAR"
		},
		{
			"bufferView":4,
			"componentType":5126,
			"count":684,
			"max":[
				-0.2855697274208069,
				-0.011374921537935734,
				-0.19072221219539642
			],
			"min":[
				-4.085394859313965,
				-0.09701956808567047,
				-4.078701019287109
			],
			"type":"VEC3"
		},
		{
			"bufferView":5,
			"componentType":5126,
			"count":684,
			"type":"VEC3"
		},
		{
			"bufferView":6,
			"componentType":5126,
			"count":684,
			"type":"VEC2"
		},
		{
			"bufferView":7,
			"componentType":5123,
			"count":2304,
			"type":"SCALAR"
		},
		{
			"bufferView":8,
			"componentType":5126,
			"count":24,
			"max":[
				-3.6018404960632324,
				0.05451027303934097,
				-0.004924221895635128
			],
			"min":[
				-4.2690749168396,
				-0.16797415912151337,
				-1.1103544235229492
			],
			"type":"VEC3"
		},
		{
			"bufferView":9,
			"componentType":5126,
			"count":24,
			"type":"VEC3"
		},
		{
			"bufferView":10,
			"componentType":5126,
			"count":24,
			"type":"VEC2"
		},
		{
			"bufferView":11,
			"componentType":5123,
			"count":36,
			"type":"SCALAR"
		},
		{
			"bufferView":12,
			"componentType":5126,
			"count":24,
			"max":[
				-2.6341822147369385,
				0.054510269314050674,
				-1.8693737983703613
			],
			"min":[
				-3.6943132877349854,
				-0.16797417402267456,
				-3.022671937942505
			],
			"type":"VEC3"
		},
		{
			"bufferView":13,
			"componentType":5126,
			"count":24,
			"type":"VEC3"
		},
		{
			"bufferView":14,
			"componentType":5126,
			"count":24,
			"type":"VEC2"
		},
		{
			"bufferView":15,
			"componentType":5123,
			"count":36,
			"type":"SCALAR"
		},
		{
			"bufferView":16,
			"componentType":5126,
			"count":24,
			"max":[
				-0.9606963396072388,
				0.05451027303934097,
				-3.232926607131958
			],
			"min":[
				-2.1296634674072266,
				-0.16797415912151337,
				-4.12506628036499
			],
			"type":"VEC3"
		},
		{
			"bufferView":17,
			"componentType":5126,
			"count":24,
			"type":"VEC3"
		},
		{
			"bufferView":18,
			"componentType":5126,
			"count":24,
			"type":"VEC2"
		},
		{
			"bufferView":19,
			"componentType":5123,
			"count":36,
			"type":"SCALAR"
		},
		{
			"bufferView":20,
			"componentType":5126,
			"count":24,
			"max":[
				-3.2280030250549316,
				0.05451027303934097,
				-0.9702081084251404
			],
			"min":[
				-4.122153282165527,
				-0.16797415912151337,
				-2.139411687850952
			],
			"type":"VEC3"
		},
		{
			"bufferView":21,
			"componentType":5126,
			"count":24,
			"type":"VEC3"
		},
		{
			"bufferView":22,
			"componentType":5126,
			"count":24,
			"type":"VEC2"
		},
		{
			"bufferView":23,
			"componentType":5126,
			"count":24,
			"max":[
				-1.860845923423767,
				0.05451027303934097,
				-2.6411449909210205
			],
			"min":[
				-3.014712333679199,
				-0.16797417402267456,
				-3.699941396713257
			],
			"type":"VEC3"
		},
		{
			"bufferView":24,
			"componentType":5126,
			"count":24,
			"type":"VEC3"
		},
		{
			"bufferView":25,
			"componentType":5126,
			"count":24,
			"type":"VEC2"
		},
		{
			"bufferView":26,
			"componentType":5126,
			"count":24,
			"max":[
				0.005627524107694626,
				0.05451027303934097,
				-3.6043894290924072
			],
			"min":[
				-1.0994818210601807,
				-0.16797415912151337,
				-4.269075393676758
			],
			"type":"VEC3"
		},
		{
			"bufferView":27,
			"componentType":5126,
			"count":24,
			"type":"VEC3"
		},
		{
			"bufferView":28,
			"componentType":5126,
			"count":24,
			"type":"VEC2"
		},
		{
			"bufferView":29,
			"componentType":5123,
			"count":36,
			"type":"SCALAR"
		}
	],
	"bufferViews":[
		{
			"buffer":0,
			"byteLength":9168,
			"byteOffset":0,
			"target":34962
		},
		{
			"buffer":0,
			"byteLength":9168,
			"byteOffset":9168,
			"target":34962
		},
		{
			"buffer":0,
			"byteLength":6112,
			"byteOffset":18336,
			"target":34962
		},
		{
			"buffer":0,
			"byteLength":3624,
			"byteOffset":24448,
			"target":34963
		},
		{
			"buffer":0,
			"byteLength":8208,
			"byteOffset":28072,
			"target":34962
		},
		{
			"buffer":0,
			"byteLength":8208,
			"byteOffset":36280,
			"target":34962
		},
		{
			"buffer":0,
			"byteLength":5472,
			"byteOffset":44488,
			"target":34962
		},
		{
			"buffer":0,
			"byteLength":4608,
			"byteOffset":49960,
			"target":34963
		},
		{
			"buffer":0,
			"byteLength":288,
			"byteOffset":54568,
			"target":34962
		},
		{
			"buffer":0,
			"byteLength":288,
			"byteOffset":54856,
			"target":34962
		},
		{
			"buffer":0,
			"byteLength":192,
			"byteOffset":55144,
			"target":34962
		},
		{
			"buffer":0,
			"byteLength":72,
			"byteOffset":55336,
			"target":34963
		},
		{
			"buffer":0,
			"byteLength":288,
			"byteOffset":55408,
			"target":34962
		},
		{
			"buffer":0,
			"byteLength":288,
			"byteOffset":55696,
			"target":34962
		},
		{
			"buffer":0,
			"byteLength":192,
			"byteOffset":55984,
			"target":34962
		},
		{
			"buffer":0,
			"byteLength":72,
			"byteOffset":56176,
			"target":34963
		},
		{
			"buffer":0,
			"byteLength":288,
			"byteOffset":56248,
			"target":34962
		},
		{
			"buffer":0,
			"byteLength":288,
			"byteOffset":56536,
			"target":34962
		},
		{
			"buffer":0,
			"byteLength":192,
			"byteOffset":56824,
			"target":34962
		},
		{
			"buffer":0,
			"byteLength":72,
			"byteOffset":57016,
			"target":34963
		},
		{
			"buffer":0,
			"byteLength":288,
			"byteOffset":57088,
			"target":34962
		},
		{
			"buffer":0,
			"byteLength":288,
			"byteOffset":57376,
			"target":34962
		},
		{
			"buffer":0,
			"byteLength":192,
			"byteOffset":57664,
			"target":34962
		},
		{
			"buffer":0,
			"byteLength":288,
			"byteOffset":57856,
			"target":34962
		},
		{
			"buffer":0,
			"byteLength":288,
			"byteOffset":58144,
			"target":34962
		},
		{
			"buffer":0,
			"byteLength":192,
			"byteOffset":58432,
			"target":34962
		},
		{
			"buffer":0,
			"byteLength":288,
			"byteOffset":58624,
			"target":34962
		},
		{
			"buffer":0,
			"byteLength":288,
			"byteOffset":58912,
			"target":34962
		},
		{
			"buffer":0,
			"byteLength":192,
			"byteOffset":59200,
			"target":34962
		},
		{
			"buffer":0,
			"byteLength":72,
			"byteOffset":59392,
			"target":34963
		}
	],
	"samplers":[
		{
			"magFilter":9729,
			"minFilter":9987
		}
	],
	"buffers":[
		{
			"byteLength":59464,
			"uri":"Prop_Light_Corner.bin"
		}
	]
}
