{
	"asset":{
		"generator":"Khronos glTF Blender I/O v4.0.44",
		"version":"2.0"
	},
	"extensionsUsed":[
		"KHR_materials_specular",
		"KHR_materials_ior"
	],
	"scene":0,
	"scenes":[
		{
			"name":"Scene",
			"nodes":[
				0,
				1,
				2,
				3,
				4,
				5,
				6,
				7,
				8,
				9,
				10
			]
		}
	],
	"nodes":[
		{
			"mesh":0,
			"name":"Prop_Pipe_Medium_Curve"
		},
		{
			"mesh":1,
			"name":"Prop_Pipe_Medium_Curve_01_convcolonly"
		},
		{
			"mesh":2,
			"name":"Prop_Pipe_Medium_Curve_02_convcolonly"
		},
		{
			"mesh":3,
			"name":"Prop_Pipe_Medium_Curve_03_convcolonly"
		},
		{
			"mesh":4,
			"name":"Prop_Pipe_Medium_Curve_04_convcolonly"
		},
		{
			"mesh":5,
			"name":"Prop_Pipe_Medium_Curve_05_convcolonly"
		},
		{
			"mesh":6,
			"name":"Prop_Pipe_Medium_Curve_06_convcolonly"
		},
		{
			"mesh":7,
			"name":"Prop_Pipe_Medium_Curve_07_convcolonly"
		},
		{
			"mesh":8,
			"name":"Prop_Pipe_Medium_Curve_08_convcolonly"
		},
		{
			"mesh":9,
			"name":"Prop_Pipe_Medium_Curve_09_convcolonly"
		},
		{
			"mesh":10,
			"name":"Prop_Pipe_Medium_Curve_10_convcolonly"
		}
	],
	"materials":[
		{
			"doubleSided":true,
			"extensions":{
				"KHR_materials_specular":{
					"specularFactor":0
				},
				"KHR_materials_ior":{
					"ior":1.4500000476837158
				}
			},
			"name":"MI_Trim_01",
			"normalTexture":{
				"index":0
			},
			"pbrMetallicRoughness":{
				"baseColorTexture":{
					"index":1
				},
				"metallicRoughnessTexture":{
					"index":2
				}
			}
		},
		{
			"doubleSided":true,
			"name":"MI_Trim_02",
			"normalTexture":{
				"index":3
			},
			"pbrMetallicRoughness":{
				"baseColorTexture":{
					"index":4
				},
				"metallicRoughnessTexture":{
					"index":5
				}
			}
		}
	],
	"meshes":[
		{
			"name":"Cylinder.001",
			"primitives":[
				{
					"attributes":{
						"POSITION":0,
						"NORMAL":1,
						"TEXCOORD_0":2
					},
					"indices":3,
					"material":0
				},
				{
					"attributes":{
						"POSITION":4,
						"NORMAL":5,
						"TEXCOORD_0":6
					},
					"indices":7,
					"material":1
				}
			]
		},
		{
			"name":"Cylinder.058",
			"primitives":[
				{
					"attributes":{
						"POSITION":8,
						"NORMAL":9,
						"TEXCOORD_0":10
					},
					"indices":11
				}
			]
		},
		{
			"name":"Cylinder.059",
			"primitives":[
				{
					"attributes":{
						"POSITION":12,
						"NORMAL":13,
						"TEXCOORD_0":14
					},
					"indices":15
				}
			]
		},
		{
			"name":"Cylinder.060",
			"primitives":[
				{
					"attributes":{
						"POSITION":16,
						"NORMAL":17,
						"TEXCOORD_0":18
					},
					"indices":19
				}
			]
		},
		{
			"name":"Cylinder.061",
			"primitives":[
				{
					"attributes":{
						"POSITION":20,
						"NORMAL":21,
						"TEXCOORD_0":22
					},
					"indices":23
				}
			]
		},
		{
			"name":"Cylinder.062",
			"primitives":[
				{
					"attributes":{
						"POSITION":24,
						"NORMAL":25,
						"TEXCOORD_0":26
					},
					"indices":23
				}
			]
		},
		{
			"name":"Cylinder.063",
			"primitives":[
				{
					"attributes":{
						"POSITION":27,
						"NORMAL":28,
						"TEXCOORD_0":29
					},
					"indices":30
				}
			]
		},
		{
			"name":"Cylinder.064",
			"primitives":[
				{
					"attributes":{
						"POSITION":31,
						"NORMAL":32,
						"TEXCOORD_0":33
					},
					"indices":34
				}
			]
		},
		{
			"name":"Cylinder.065",
			"primitives":[
				{
					"attributes":{
						"POSITION":35,
						"NORMAL":36,
						"TEXCOORD_0":37
					},
					"indices":38
				}
			]
		},
		{
			"name":"Cylinder.066",
			"primitives":[
				{
					"attributes":{
						"POSITION":39,
						"NORMAL":40,
						"TEXCOORD_0":41
					},
					"indices":38
				}
			]
		},
		{
			"name":"Cylinder.067",
			"primitives":[
				{
					"attributes":{
						"POSITION":42,
						"NORMAL":43,
						"TEXCOORD_0":44
					},
					"indices":38
				}
			]
		}
	],
	"textures":[
		{
			"sampler":0,
			"source":0
		},
		{
			"sampler":0,
			"source":1
		},
		{
			"sampler":0,
			"source":2
		},
		{
			"sampler":0,
			"source":3
		},
		{
			"sampler":0,
			"source":4
		},
		{
			"sampler":0,
			"source":5
		}
	],
	"images":[
		{
			"mimeType":"image/png",
			"name":"T_Trim_01_Normal",
			"uri":"T_Trim_01_Normal.png"
		},
		{
			"mimeType":"image/png",
			"name":"T_Trim_01_BaseColor_Red",
			"uri":"T_Trim_01_BaseColor_Red.png"
		},
		{
			"mimeType":"image/png",
			"name":"T_Trim_01_ORM",
			"uri":"T_Trim_01_ORM.png"
		},
		{
			"mimeType":"image/png",
			"name":"T_Trim_02_Normal",
			"uri":"T_Trim_02_Normal.png"
		},
		{
			"mimeType":"image/png",
			"name":"T_Trim_02_BaseColor_Red",
			"uri":"T_Trim_02_BaseColor_Red.png"
		},
		{
			"mimeType":"image/png",
			"name":"T_Trim_02_ORM",
			"uri":"T_Trim_02_ORM.png"
		}
	],
	"accessors":[
		{
			"bufferView":0,
			"componentType":5126,
			"count":598,
			"max":[
				-0.3287665545940399,
				0.13548235595226288,
				4.111605644226074
			],
			"min":[
				-4.111645221710205,
				-0.13548237085342407,
				0.32820460200309753
			],
			"type":"VEC3"
		},
		{
			"bufferView":1,
			"componentType":5126,
			"count":598,
			"type":"VEC3"
		},
		{
			"bufferView":2,
			"componentType":5126,
			"count":598,
			"type":"VEC2"
		},
		{
			"bufferView":3,
			"componentType":5123,
			"count":2304,
			"type":"SCALAR"
		},
		{
			"bufferView":4,
			"componentType":5126,
			"count":299,
			"max":[
				-1.330160728230112e-07,
				0.13999414443969727,
				4.139994144439697
			],
			"min":[
				-4.139954566955566,
				-0.13999414443969727,
				-0.0006000128923915327
			],
			"type":"VEC3"
		},
		{
			"bufferView":5,
			"componentType":5126,
			"count":299,
			"type":"VEC3"
		},
		{
			"bufferView":6,
			"componentType":5126,
			"count":299,
			"type":"VEC2"
		},
		{
			"bufferView":7,
			"componentType":5123,
			"count":864,
			"type":"SCALAR"
		},
		{
			"bufferView":8,
			"componentType":5126,
			"count":48,
			"max":[
				-3.809577226638794,
				0.14253395795822144,
				0.6502943634986877
			],
			"min":[
				-4.142494201660156,
				-0.14253264665603638,
				0.002294969279319048
			],
			"type":"VEC3"
		},
		{
			"bufferView":9,
			"componentType":5126,
			"count":48,
			"type":"VEC3"
		},
		{
			"bufferView":10,
			"componentType":5126,
			"count":48,
			"type":"VEC2"
		},
		{
			"bufferView":11,
			"componentType":5123,
			"count":84,
			"type":"SCALAR"
		},
		{
			"bufferView":12,
			"componentType":5126,
			"count":48,
			"max":[
				-3.4359521865844727,
				0.14253395795822144,
				1.8826946020126343
			],
			"min":[
				-3.939037322998047,
				-0.14253263175487518,
				1.1941910982131958
			],
			"type":"VEC3"
		},
		{
			"bufferView":13,
			"componentType":5126,
			"count":48,
			"type":"VEC3"
		},
		{
			"bufferView":14,
			"componentType":5126,
			"count":48,
			"type":"VEC2"
		},
		{
			"bufferView":15,
			"componentType":5123,
			"count":84,
			"type":"SCALAR"
		},
		{
			"bufferView":16,
			"componentType":5126,
			"count":48,
			"max":[
				-2.7259926795959473,
				0.14253392815589905,
				2.9308037757873535
			],
			"min":[
				-3.3500006198883057,
				-0.142532616853714,
				2.2691915035247803
			],
			"type":"VEC3"
		},
		{
			"bufferView":17,
			"componentType":5126,
			"count":48,
			"type":"VEC3"
		},
		{
			"bufferView":18,
			"componentType":5126,
			"count":48,
			"type":"VEC2"
		},
		{
			"bufferView":19,
			"componentType":5123,
			"count":84,
			"type":"SCALAR"
		},
		{
			"bufferView":20,
			"componentType":5126,
			"count":48,
			"max":[
				-1.749194622039795,
				0.14253389835357666,
				3.692025661468506
			],
			"min":[
				-2.4330432415008545,
				-0.142532616853714,
				3.122067928314209
			],
			"type":"VEC3"
		},
		{
			"bufferView":21,
			"componentType":5126,
			"count":48,
			"type":"VEC3"
		},
		{
			"bufferView":22,
			"componentType":5126,
			"count":48,
			"type":"VEC2"
		},
		{
			"bufferView":23,
			"componentType":5123,
			"count":84,
			"type":"SCALAR"
		},
		{
			"bufferView":24,
			"componentType":5126,
			"count":48,
			"max":[
				-0.6011738777160645,
				0.14253388345241547,
				4.091846466064453
			],
			"min":[
				-1.2779229879379272,
				-0.1425325870513916,
				3.6693344116210938
			],
			"type":"VEC3"
		},
		{
			"bufferView":25,
			"componentType":5126,
			"count":48,
			"type":"VEC3"
		},
		{
			"bufferView":26,
			"componentType":5126,
			"count":48,
			"type":"VEC2"
		},
		{
			"bufferView":27,
			"componentType":5126,
			"count":48,
			"max":[
				-3.6679229736328125,
				0.14253395795822144,
				1.282281517982483
			],
			"min":[
				-4.091134071350098,
				-0.14253263175487518,
				0.6057001352310181
			],
			"type":"VEC3"
		},
		{
			"bufferView":28,
			"componentType":5126,
			"count":48,
			"type":"VEC3"
		},
		{
			"bufferView":29,
			"componentType":5126,
			"count":48,
			"type":"VEC2"
		},
		{
			"bufferView":30,
			"componentType":5123,
			"count":84,
			"type":"SCALAR"
		},
		{
			"bufferView":31,
			"componentType":5126,
			"count":48,
			"max":[
				-3.1193771362304688,
				0.14253392815589905,
				2.4367496967315674
			],
			"min":[
				-3.689948320388794,
				-0.14253263175487518,
				1.753277063369751
			],
			"type":"VEC3"
		},
		{
			"bufferView":32,
			"componentType":5126,
			"count":48,
			"type":"VEC3"
		},
		{
			"bufferView":33,
			"componentType":5126,
			"count":48,
			"type":"VEC2"
		},
		{
			"bufferView":34,
			"componentType":5123,
			"count":84,
			"type":"SCALAR"
		},
		{
			"bufferView":35,
			"componentType":5126,
			"count":48,
			"max":[
				-2.2654855251312256,
				0.14253391325473785,
				3.352691888809204
			],
			"min":[
				-2.927565097808838,
				-0.142532616853714,
				2.7292308807373047
			],
			"type":"VEC3"
		},
		{
			"bufferView":36,
			"componentType":5126,
			"count":48,
			"type":"VEC3"
		},
		{
			"bufferView":37,
			"componentType":5126,
			"count":48,
			"type":"VEC2"
		},
		{
			"bufferView":38,
			"componentType":5123,
			"count":84,
			"type":"SCALAR"
		},
		{
			"bufferView":39,
			"componentType":5126,
			"count":48,
			"max":[
				-1.1898329257965088,
				0.14253388345241547,
				3.9404494762420654
			],
			"min":[
				-1.8786119222640991,
				-0.1425326019525528,
				3.4380288124084473
			],
			"type":"VEC3"
		},
		{
			"bufferView":40,
			"componentType":5126,
			"count":48,
			"type":"VEC3"
		},
		{
			"bufferView":41,
			"componentType":5126,
			"count":48,
			"type":"VEC2"
		},
		{
			"bufferView":42,
			"componentType":5126,
			"count":48,
			"max":[
				0.0022886169608682394,
				0.14253388345241547,
				4.1424880027771
			],
			"min":[
				-0.6457676291465759,
				-0.1425325721502304,
				3.810288667678833
			],
			"type":"VEC3"
		},
		{
			"bufferView":43,
			"componentType":5126,
			"count":48,
			"type":"VEC3"
		},
		{
			"bufferView":44,
			"componentType":5126,
			"count":48,
			"type":"VEC2"
		}
	],
	"bufferViews":[
		{
			"buffer":0,
			"byteLength":7176,
			"byteOffset":0,
			"target":34962
		},
		{
			"buffer":0,
			"byteLength":7176,
			"byteOffset":7176,
			"target":34962
		},
		{
			"buffer":0,
			"byteLength":4784,
			"byteOffset":14352,
			"target":34962
		},
		{
			"buffer":0,
			"byteLength":4608,
			"byteOffset":19136,
			"target":34963
		},
		{
			"buffer":0,
			"byteLength":3588,
			"byteOffset":23744,
			"target":34962
		},
		{
			"buffer":0,
			"byteLength":3588,
			"byteOffset":27332,
			"target":34962
		},
		{
			"buffer":0,
			"byteLength":2392,
			"byteOffset":30920,
			"target":34962
		},
		{
			"buffer":0,
			"byteLength":1728,
			"byteOffset":33312,
			"target":34963
		},
		{
			"buffer":0,
			"byteLength":576,
			"byteOffset":35040,
			"target":34962
		},
		{
			"buffer":0,
			"byteLength":576,
			"byteOffset":35616,
			"target":34962
		},
		{
			"buffer":0,
			"byteLength":384,
			"byteOffset":36192,
			"target":34962
		},
		{
			"buffer":0,
			"byteLength":168,
			"byteOffset":36576,
			"target":34963
		},
		{
			"buffer":0,
			"byteLength":576,
			"byteOffset":36744,
			"target":34962
		},
		{
			"buffer":0,
			"byteLength":576,
			"byteOffset":37320,
			"target":34962
		},
		{
			"buffer":0,
			"byteLength":384,
			"byteOffset":37896,
			"target":34962
		},
		{
			"buffer":0,
			"byteLength":168,
			"byteOffset":38280,
			"target":34963
		},
		{
			"buffer":0,
			"byteLength":576,
			"byteOffset":38448,
			"target":34962
		},
		{
			"buffer":0,
			"byteLength":576,
			"byteOffset":39024,
			"target":34962
		},
		{
			"buffer":0,
			"byteLength":384,
			"byteOffset":39600,
			"target":34962
		},
		{
			"buffer":0,
			"byteLength":168,
			"byteOffset":39984,
			"target":34963
		},
		{
			"buffer":0,
			"byteLength":576,
			"byteOffset":40152,
			"target":34962
		},
		{
			"buffer":0,
			"byteLength":576,
			"byteOffset":40728,
			"target":34962
		},
		{
			"buffer":0,
			"byteLength":384,
			"byteOffset":41304,
			"target":34962
		},
		{
			"buffer":0,
			"byteLength":168,
			"byteOffset":41688,
			"target":34963
		},
		{
			"buffer":0,
			"byteLength":576,
			"byteOffset":41856,
			"target":34962
		},
		{
			"buffer":0,
			"byteLength":576,
			"byteOffset":42432,
			"target":34962
		},
		{
			"buffer":0,
			"byteLength":384,
			"byteOffset":43008,
			"target":34962
		},
		{
			"buffer":0,
			"byteLength":576,
			"byteOffset":43392,
			"target":34962
		},
		{
			"buffer":0,
			"byteLength":576,
			"byteOffset":43968,
			"target":34962
		},
		{
			"buffer":0,
			"byteLength":384,
			"byteOffset":44544,
			"target":34962
		},
		{
			"buffer":0,
			"byteLength":168,
			"byteOffset":44928,
			"target":34963
		},
		{
			"buffer":0,
			"byteLength":576,
			"byteOffset":45096,
			"target":34962
		},
		{
			"buffer":0,
			"byteLength":576,
			"byteOffset":45672,
			"target":34962
		},
		{
			"buffer":0,
			"byteLength":384,
			"byteOffset":46248,
			"target":34962
		},
		{
			"buffer":0,
			"byteLength":168,
			"byteOffset":46632,
			"target":34963
		},
		{
			"buffer":0,
			"byteLength":576,
			"byteOffset":46800,
			"target":34962
		},
		{
			"buffer":0,
			"byteLength":576,
			"byteOffset":47376,
			"target":34962
		},
		{
			"buffer":0,
			"byteLength":384,
			"byteOffset":47952,
			"target":34962
		},
		{
			"buffer":0,
			"byteLength":168,
			"byteOffset":48336,
			"target":34963
		},
		{
			"buffer":0,
			"byteLength":576,
			"byteOffset":48504,
			"target":34962
		},
		{
			"buffer":0,
			"byteLength":576,
			"byteOffset":49080,
			"target":34962
		},
		{
			"buffer":0,
			"byteLength":384,
			"byteOffset":49656,
			"target":34962
		},
		{
			"buffer":0,
			"byteLength":576,
			"byteOffset":50040,
			"target":34962
		},
		{
			"buffer":0,
			"byteLength":576,
			"byteOffset":50616,
			"target":34962
		},
		{
			"buffer":0,
			"byteLength":384,
			"byteOffset":51192,
			"target":34962
		}
	],
	"samplers":[
		{
			"magFilter":9729,
			"minFilter":9987
		}
	],
	"buffers":[
		{
			"byteLength":51576,
			"uri":"Prop_Pipe_Medium_Curve.bin"
		}
	]
}
