{
	"asset":{
		"generator":"Khronos glTF Blender I/O v4.0.44",
		"version":"2.0"
	},
	"extensionsUsed":[
		"KHR_materials_specular",
		"KHR_materials_ior"
	],
	"scene":0,
	"scenes":[
		{
			"name":"Scene",
			"nodes":[
				0,
				1,
				2,
				3
			]
		}
	],
	"nodes":[
		{
			"mesh":0,
			"name":"Prop_Pod_Short"
		},
		{
			"mesh":1,
			"name":"Prop_Pod_Short_01_convcolonly"
		},
		{
			"mesh":2,
			"name":"Prop_Pod_Short_02_convcolonly"
		},
		{
			"mesh":3,
			"name":"Prop_Pod_Short_03_convcolonly"
		}
	],
	"materials":[
		{
			"doubleSided":true,
			"extensions":{
				"KHR_materials_specular":{
					"specularFactor":0
				},
				"KHR_materials_ior":{
					"ior":1.4500000476837158
				}
			},
			"name":"MI_Trim_01",
			"normalTexture":{
				"index":0
			},
			"pbrMetallicRoughness":{
				"baseColorTexture":{
					"index":1
				},
				"metallicRoughnessTexture":{
					"index":2
				}
			}
		},
		{
			"doubleSided":true,
			"name":"MI_Trim_02",
			"normalTexture":{
				"index":3
			},
			"pbrMetallicRoughness":{
				"baseColorTexture":{
					"index":4
				},
				"metallicRoughnessTexture":{
					"index":5
				}
			}
		},
		{
			"doubleSided":true,
			"name":"M_Glass",
			"pbrMetallicRoughness":{
				"baseColorFactor":[
					0.800000011920929,
					0.800000011920929,
					0.800000011920929,
					1
				],
				"metallicFactor":0,
				"roughnessFactor":0.5
			}
		},
		{
			"doubleSided":true,
			"name":"MI_Trim_02_Rails",
			"normalTexture":{
				"index":6
			},
			"pbrMetallicRoughness":{
				"baseColorTexture":{
					"index":7
				},
				"metallicRoughnessTexture":{
					"index":8
				}
			}
		}
	],
	"meshes":[
		{
			"name":"Cylinder.082",
			"primitives":[
				{
					"attributes":{
						"POSITION":0,
						"NORMAL":1,
						"TEXCOORD_0":2
					},
					"indices":3,
					"material":0
				},
				{
					"attributes":{
						"POSITION":4,
						"NORMAL":5,
						"TEXCOORD_0":6
					},
					"indices":7,
					"material":1
				},
				{
					"attributes":{
						"POSITION":8,
						"NORMAL":9,
						"TEXCOORD_0":10
					},
					"indices":11,
					"material":2
				},
				{
					"attributes":{
						"POSITION":12,
						"NORMAL":13,
						"TEXCOORD_0":14
					},
					"indices":15,
					"material":3
				}
			]
		},
		{
			"name":"Cylinder.083",
			"primitives":[
				{
					"attributes":{
						"POSITION":16,
						"NORMAL":17,
						"TEXCOORD_0":18
					},
					"indices":19
				}
			]
		},
		{
			"name":"Cylinder.084",
			"primitives":[
				{
					"attributes":{
						"POSITION":20,
						"NORMAL":21,
						"TEXCOORD_0":22
					},
					"indices":23
				}
			]
		},
		{
			"name":"Cylinder.085",
			"primitives":[
				{
					"attributes":{
						"POSITION":24,
						"NORMAL":25,
						"TEXCOORD_0":26
					},
					"indices":23
				}
			]
		}
	],
	"textures":[
		{
			"sampler":0,
			"source":0
		},
		{
			"sampler":0,
			"source":1
		},
		{
			"sampler":0,
			"source":2
		},
		{
			"sampler":0,
			"source":3
		},
		{
			"sampler":0,
			"source":4
		},
		{
			"sampler":0,
			"source":5
		},
		{
			"sampler":0,
			"source":3
		},
		{
			"sampler":0,
			"source":4
		},
		{
			"sampler":0,
			"source":5
		}
	],
	"images":[
		{
			"mimeType":"image/png",
			"name":"T_Trim_01_Normal",
			"uri":"T_Trim_01_Normal.png"
		},
		{
			"mimeType":"image/png",
			"name":"T_Trim_01_BaseColor_Red",
			"uri":"T_Trim_01_BaseColor_Red.png"
		},
		{
			"mimeType":"image/png",
			"name":"T_Trim_01_ORM",
			"uri":"T_Trim_01_ORM.png"
		},
		{
			"mimeType":"image/png",
			"name":"T_Trim_02_Normal",
			"uri":"T_Trim_02_Normal.png"
		},
		{
			"mimeType":"image/png",
			"name":"T_Trim_02_BaseColor_Red",
			"uri":"T_Trim_02_BaseColor_Red.png"
		},
		{
			"mimeType":"image/png",
			"name":"T_Trim_02_ORM",
			"uri":"T_Trim_02_ORM.png"
		}
	],
	"accessors":[
		{
			"bufferView":0,
			"componentType":5126,
			"count":1844,
			"max":[
				1.0638362169265747,
				3.441269636154175,
				1.0638362169265747
			],
			"min":[
				-1.0638362169265747,
				-0.0012321642134338617,
				-1.0638362169265747
			],
			"type":"VEC3"
		},
		{
			"bufferView":1,
			"componentType":5126,
			"count":1844,
			"type":"VEC3"
		},
		{
			"bufferView":2,
			"componentType":5126,
			"count":1844,
			"type":"VEC2"
		},
		{
			"bufferView":3,
			"componentType":5123,
			"count":6144,
			"type":"SCALAR"
		},
		{
			"bufferView":4,
			"componentType":5126,
			"count":1947,
			"max":[
				1.0638362169265747,
				3.441269636154175,
				1.0638362169265747
			],
			"min":[
				-1.0638362169265747,
				-0.0012321642134338617,
				-1.0638362169265747
			],
			"type":"VEC3"
		},
		{
			"bufferView":5,
			"componentType":5126,
			"count":1947,
			"type":"VEC3"
		},
		{
			"bufferView":6,
			"componentType":5126,
			"count":1947,
			"type":"VEC2"
		},
		{
			"bufferView":7,
			"componentType":5123,
			"count":5376,
			"type":"SCALAR"
		},
		{
			"bufferView":8,
			"componentType":5126,
			"count":72,
			"max":[
				0.6337574124336243,
				2.9271957874298096,
				0.7157844305038452
			],
			"min":[
				-0.633757472038269,
				1.421268343925476,
				-0.7160764336585999
			],
			"type":"VEC3"
		},
		{
			"bufferView":9,
			"componentType":5126,
			"count":72,
			"type":"VEC3"
		},
		{
			"bufferView":10,
			"componentType":5126,
			"count":72,
			"type":"VEC2"
		},
		{
			"bufferView":11,
			"componentType":5123,
			"count":192,
			"type":"SCALAR"
		},
		{
			"bufferView":12,
			"componentType":5126,
			"count":1440,
			"max":[
				0.6409316062927246,
				3.3732993602752686,
				0.6409316658973694
			],
			"min":[
				-0.6409316062927246,
				0.649370014667511,
				-0.6381291151046753
			],
			"type":"VEC3"
		},
		{
			"bufferView":13,
			"componentType":5126,
			"count":1440,
			"type":"VEC3"
		},
		{
			"bufferView":14,
			"componentType":5126,
			"count":1440,
			"type":"VEC2"
		},
		{
			"bufferView":15,
			"componentType":5123,
			"count":7392,
			"type":"SCALAR"
		},
		{
			"bufferView":16,
			"componentType":5126,
			"count":72,
			"max":[
				0.8472525477409363,
				3.501035213470459,
				0.8472525477409363
			],
			"min":[
				-0.8472525477409363,
				0,
				-0.8472525477409363
			],
			"type":"VEC3"
		},
		{
			"bufferView":17,
			"componentType":5126,
			"count":72,
			"type":"VEC3"
		},
		{
			"bufferView":18,
			"componentType":5126,
			"count":72,
			"type":"VEC2"
		},
		{
			"bufferView":19,
			"componentType":5123,
			"count":132,
			"type":"SCALAR"
		},
		{
			"bufferView":20,
			"componentType":5126,
			"count":72,
			"max":[
				1.1099919080734253,
				0.06605429202318192,
				1.1099919080734253
			],
			"min":[
				-1.1099919080734253,
				-0.019060330465435982,
				-1.1099919080734253
			],
			"type":"VEC3"
		},
		{
			"bufferView":21,
			"componentType":5126,
			"count":72,
			"type":"VEC3"
		},
		{
			"bufferView":22,
			"componentType":5126,
			"count":72,
			"type":"VEC2"
		},
		{
			"bufferView":23,
			"componentType":5123,
			"count":132,
			"type":"SCALAR"
		},
		{
			"bufferView":24,
			"componentType":5126,
			"count":72,
			"max":[
				0.9490648508071899,
				0.3158789873123169,
				0.9490648508071899
			],
			"min":[
				-0.9490648508071899,
				0.054714564234018326,
				-0.9490648508071899
			],
			"type":"VEC3"
		},
		{
			"bufferView":25,
			"componentType":5126,
			"count":72,
			"type":"VEC3"
		},
		{
			"bufferView":26,
			"componentType":5126,
			"count":72,
			"type":"VEC2"
		}
	],
	"bufferViews":[
		{
			"buffer":0,
			"byteLength":22128,
			"byteOffset":0,
			"target":34962
		},
		{
			"buffer":0,
			"byteLength":22128,
			"byteOffset":22128,
			"target":34962
		},
		{
			"buffer":0,
			"byteLength":14752,
			"byteOffset":44256,
			"target":34962
		},
		{
			"buffer":0,
			"byteLength":12288,
			"byteOffset":59008,
			"target":34963
		},
		{
			"buffer":0,
			"byteLength":23364,
			"byteOffset":71296,
			"target":34962
		},
		{
			"buffer":0,
			"byteLength":23364,
			"byteOffset":94660,
			"target":34962
		},
		{
			"buffer":0,
			"byteLength":15576,
			"byteOffset":118024,
			"target":34962
		},
		{
			"buffer":0,
			"byteLength":10752,
			"byteOffset":133600,
			"target":34963
		},
		{
			"buffer":0,
			"byteLength":864,
			"byteOffset":144352,
			"target":34962
		},
		{
			"buffer":0,
			"byteLength":864,
			"byteOffset":145216,
			"target":34962
		},
		{
			"buffer":0,
			"byteLength":576,
			"byteOffset":146080,
			"target":34962
		},
		{
			"buffer":0,
			"byteLength":384,
			"byteOffset":146656,
			"target":34963
		},
		{
			"buffer":0,
			"byteLength":17280,
			"byteOffset":147040,
			"target":34962
		},
		{
			"buffer":0,
			"byteLength":17280,
			"byteOffset":164320,
			"target":34962
		},
		{
			"buffer":0,
			"byteLength":11520,
			"byteOffset":181600,
			"target":34962
		},
		{
			"buffer":0,
			"byteLength":14784,
			"byteOffset":193120,
			"target":34963
		},
		{
			"buffer":0,
			"byteLength":864,
			"byteOffset":207904,
			"target":34962
		},
		{
			"buffer":0,
			"byteLength":864,
			"byteOffset":208768,
			"target":34962
		},
		{
			"buffer":0,
			"byteLength":576,
			"byteOffset":209632,
			"target":34962
		},
		{
			"buffer":0,
			"byteLength":264,
			"byteOffset":210208,
			"target":34963
		},
		{
			"buffer":0,
			"byteLength":864,
			"byteOffset":210472,
			"target":34962
		},
		{
			"buffer":0,
			"byteLength":864,
			"byteOffset":211336,
			"target":34962
		},
		{
			"buffer":0,
			"byteLength":576,
			"byteOffset":212200,
			"target":34962
		},
		{
			"buffer":0,
			"byteLength":264,
			"byteOffset":212776,
			"target":34963
		},
		{
			"buffer":0,
			"byteLength":864,
			"byteOffset":213040,
			"target":34962
		},
		{
			"buffer":0,
			"byteLength":864,
			"byteOffset":213904,
			"target":34962
		},
		{
			"buffer":0,
			"byteLength":576,
			"byteOffset":214768,
			"target":34962
		}
	],
	"samplers":[
		{
			"magFilter":9729,
			"minFilter":9987
		}
	],
	"buffers":[
		{
			"byteLength":215344,
			"uri":"Prop_Pod_Short.bin"
		}
	]
}
