{
	"asset":{
		"generator":"Khronos glTF Blender I/O v4.0.44",
		"version":"2.0"
	},
	"extensionsUsed":[
		"KHR_materials_specular",
		"KHR_materials_ior"
	],
	"scene":0,
	"scenes":[
		{
			"name":"Scene",
			"nodes":[
				0,
				1,
				2,
				3
			]
		}
	],
	"nodes":[
		{
			"mesh":0,
			"name":"Prop_Barrel_Small"
		},
		{
			"mesh":1,
			"name":"Prop_Barrel_Small_1_convcolonly"
		},
		{
			"mesh":2,
			"name":"Prop_Barrel_Small_2_convcolonly"
		},
		{
			"mesh":3,
			"name":"Prop_Barrel_Small_3_convcolonly"
		}
	],
	"materials":[
		{
			"doubleSided":true,
			"extensions":{
				"KHR_materials_specular":{
					"specularFactor":0
				},
				"KHR_materials_ior":{
					"ior":1.4500000476837158
				}
			},
			"name":"MI_Trim_01",
			"normalTexture":{
				"index":0
			},
			"pbrMetallicRoughness":{
				"baseColorTexture":{
					"index":1
				},
				"metallicRoughnessTexture":{
					"index":2
				}
			}
		},
		{
			"doubleSided":true,
			"name":"MI_Trim_02",
			"normalTexture":{
				"index":3
			},
			"pbrMetallicRoughness":{
				"baseColorTexture":{
					"index":4
				},
				"metallicRoughnessTexture":{
					"index":5
				}
			}
		}
	],
	"meshes":[
		{
			"name":"Cylinder.037",
			"primitives":[
				{
					"attributes":{
						"POSITION":0,
						"NORMAL":1,
						"TEXCOORD_0":2
					},
					"indices":3,
					"material":0
				},
				{
					"attributes":{
						"POSITION":4,
						"NORMAL":5,
						"TEXCOORD_0":6
					},
					"indices":7,
					"material":1
				}
			]
		},
		{
			"name":"Cylinder.034",
			"primitives":[
				{
					"attributes":{
						"POSITION":8,
						"NORMAL":9,
						"TEXCOORD_0":10
					},
					"indices":11
				}
			]
		},
		{
			"name":"Cylinder.035",
			"primitives":[
				{
					"attributes":{
						"POSITION":12,
						"NORMAL":13,
						"TEXCOORD_0":14
					},
					"indices":15
				}
			]
		},
		{
			"name":"Cylinder.036",
			"primitives":[
				{
					"attributes":{
						"POSITION":16,
						"NORMAL":17,
						"TEXCOORD_0":18
					},
					"indices":19
				}
			]
		}
	],
	"textures":[
		{
			"sampler":0,
			"source":0
		},
		{
			"sampler":0,
			"source":1
		},
		{
			"sampler":0,
			"source":2
		},
		{
			"sampler":0,
			"source":3
		},
		{
			"sampler":0,
			"source":4
		},
		{
			"sampler":0,
			"source":5
		}
	],
	"images":[
		{
			"mimeType":"image/png",
			"name":"T_Trim_01_Normal",
			"uri":"T_Trim_01_Normal.png"
		},
		{
			"mimeType":"image/png",
			"name":"T_Trim_01_BaseColor_Red",
			"uri":"T_Trim_01_BaseColor_Red.png"
		},
		{
			"mimeType":"image/png",
			"name":"T_Trim_01_ORM",
			"uri":"T_Trim_01_ORM.png"
		},
		{
			"mimeType":"image/png",
			"name":"T_Trim_02_Normal",
			"uri":"T_Trim_02_Normal.png"
		},
		{
			"mimeType":"image/png",
			"name":"T_Trim_02_BaseColor_Red",
			"uri":"T_Trim_02_BaseColor_Red.png"
		},
		{
			"mimeType":"image/png",
			"name":"T_Trim_02_ORM",
			"uri":"T_Trim_02_ORM.png"
		}
	],
	"accessors":[
		{
			"bufferView":0,
			"componentType":5126,
			"count":739,
			"max":[
				0.20100122690200806,
				0.7836129069328308,
				0.20100124180316925
			],
			"min":[
				-0.20100124180316925,
				0.011485816910862923,
				-0.20100122690200806
			],
			"type":"VEC3"
		},
		{
			"bufferView":1,
			"componentType":5126,
			"count":739,
			"type":"VEC3"
		},
		{
			"bufferView":2,
			"componentType":5126,
			"count":739,
			"type":"VEC2"
		},
		{
			"bufferView":3,
			"componentType":5123,
			"count":2394,
			"type":"SCALAR"
		},
		{
			"bufferView":4,
			"componentType":5126,
			"count":801,
			"max":[
				0.20100122690200806,
				0.7928669452667236,
				0.2882329225540161
			],
			"min":[
				-0.20100124180316925,
				0.002231730381026864,
				-0.2882329523563385
			],
			"type":"VEC3"
		},
		{
			"bufferView":5,
			"componentType":5126,
			"count":801,
			"type":"VEC3"
		},
		{
			"bufferView":6,
			"componentType":5126,
			"count":801,
			"type":"VEC2"
		},
		{
			"bufferView":7,
			"componentType":5123,
			"count":2580,
			"type":"SCALAR"
		},
		{
			"bufferView":8,
			"componentType":5126,
			"count":48,
			"max":[
				0.2149481624364853,
				0.7908635139465332,
				0.21495062112808228
			],
			"min":[
				-0.21495144069194794,
				0.00505021121352911,
				-0.21494898200035095
			],
			"type":"VEC3"
		},
		{
			"bufferView":9,
			"componentType":5126,
			"count":48,
			"type":"VEC3"
		},
		{
			"bufferView":10,
			"componentType":5126,
			"count":48,
			"type":"VEC2"
		},
		{
			"bufferView":11,
			"componentType":5123,
			"count":84,
			"type":"SCALAR"
		},
		{
			"bufferView":12,
			"componentType":5126,
			"count":24,
			"max":[
				0.11463946104049683,
				0.7165945768356323,
				-0.15169930458068848
			],
			"min":[
				-0.11464206874370575,
				0.576824426651001,
				-0.3061239719390869
			],
			"type":"VEC3"
		},
		{
			"bufferView":13,
			"componentType":5126,
			"count":24,
			"type":"VEC3"
		},
		{
			"bufferView":14,
			"componentType":5126,
			"count":24,
			"type":"VEC2"
		},
		{
			"bufferView":15,
			"componentType":5123,
			"count":36,
			"type":"SCALAR"
		},
		{
			"bufferView":16,
			"componentType":5126,
			"count":24,
			"max":[
				0.11463946104049683,
				0.7165945768356323,
				0.3061239719390869
			],
			"min":[
				-0.11464206874370575,
				0.576824426651001,
				0.15169930458068848
			],
			"type":"VEC3"
		},
		{
			"bufferView":17,
			"componentType":5126,
			"count":24,
			"type":"VEC3"
		},
		{
			"bufferView":18,
			"componentType":5126,
			"count":24,
			"type":"VEC2"
		},
		{
			"bufferView":19,
			"componentType":5123,
			"count":36,
			"type":"SCALAR"
		}
	],
	"bufferViews":[
		{
			"buffer":0,
			"byteLength":8868,
			"byteOffset":0,
			"target":34962
		},
		{
			"buffer":0,
			"byteLength":8868,
			"byteOffset":8868,
			"target":34962
		},
		{
			"buffer":0,
			"byteLength":5912,
			"byteOffset":17736,
			"target":34962
		},
		{
			"buffer":0,
			"byteLength":4788,
			"byteOffset":23648,
			"target":34963
		},
		{
			"buffer":0,
			"byteLength":9612,
			"byteOffset":28436,
			"target":34962
		},
		{
			"buffer":0,
			"byteLength":9612,
			"byteOffset":38048,
			"target":34962
		},
		{
			"buffer":0,
			"byteLength":6408,
			"byteOffset":47660,
			"target":34962
		},
		{
			"buffer":0,
			"byteLength":5160,
			"byteOffset":54068,
			"target":34963
		},
		{
			"buffer":0,
			"byteLength":576,
			"byteOffset":59228,
			"target":34962
		},
		{
			"buffer":0,
			"byteLength":576,
			"byteOffset":59804,
			"target":34962
		},
		{
			"buffer":0,
			"byteLength":384,
			"byteOffset":60380,
			"target":34962
		},
		{
			"buffer":0,
			"byteLength":168,
			"byteOffset":60764,
			"target":34963
		},
		{
			"buffer":0,
			"byteLength":288,
			"byteOffset":60932,
			"target":34962
		},
		{
			"buffer":0,
			"byteLength":288,
			"byteOffset":61220,
			"target":34962
		},
		{
			"buffer":0,
			"byteLength":192,
			"byteOffset":61508,
			"target":34962
		},
		{
			"buffer":0,
			"byteLength":72,
			"byteOffset":61700,
			"target":34963
		},
		{
			"buffer":0,
			"byteLength":288,
			"byteOffset":61772,
			"target":34962
		},
		{
			"buffer":0,
			"byteLength":288,
			"byteOffset":62060,
			"target":34962
		},
		{
			"buffer":0,
			"byteLength":192,
			"byteOffset":62348,
			"target":34962
		},
		{
			"buffer":0,
			"byteLength":72,
			"byteOffset":62540,
			"target":34963
		}
	],
	"samplers":[
		{
			"magFilter":9729,
			"minFilter":9987
		}
	],
	"buffers":[
		{
			"byteLength":62612,
			"uri":"Prop_Barrel_Small.bin"
		}
	]
}
