{
	"asset":{
		"generator":"Khronos glTF Blender I/O v4.0.44",
		"version":"2.0"
	},
	"extensionsUsed":[
		"KHR_materials_specular",
		"KHR_materials_ior"
	],
	"scene":0,
	"scenes":[
		{
			"name":"Scene",
			"nodes":[
				0,
				1,
				2,
				3
			]
		}
	],
	"nodes":[
		{
			"mesh":0,
			"name":"Prop_ItemHolder",
			"rotation":[
				0,
				0.8660253882408142,
				0,
				0.5
			]
		},
		{
			"mesh":1,
			"name":"Prop_ItemHolder_01_convcolonly"
		},
		{
			"mesh":2,
			"name":"Prop_ItemHolder_02_convcolonly"
		},
		{
			"mesh":3,
			"name":"Prop_ItemHolder_03_convcolonly"
		}
	],
	"materials":[
		{
			"doubleSided":true,
			"name":"M_LightFade_Red",
			"pbrMetallicRoughness":{
				"baseColorFactor":[
					0.800000011920929,
					0.800000011920929,
					0.800000011920929,
					1
				],
				"metallicFactor":0,
				"roughnessFactor":0.5
			}
		},
		{
			"doubleSided":true,
			"extensions":{
				"KHR_materials_specular":{
					"specularFactor":0
				},
				"KHR_materials_ior":{
					"ior":1.4500000476837158
				}
			},
			"name":"MI_Trim_01",
			"normalTexture":{
				"index":0
			},
			"pbrMetallicRoughness":{
				"baseColorTexture":{
					"index":1
				},
				"metallicRoughnessTexture":{
					"index":2
				}
			}
		},
		{
			"doubleSided":true,
			"name":"MI_Decal_Red",
			"pbrMetallicRoughness":{
				"baseColorTexture":{
					"index":3
				},
				"metallicFactor":0,
				"roughnessFactor":0.5
			}
		}
	],
	"meshes":[
		{
			"name":"Plane.144",
			"primitives":[
				{
					"attributes":{
						"POSITION":0,
						"NORMAL":1,
						"TEXCOORD_0":2
					},
					"indices":3,
					"material":0
				},
				{
					"attributes":{
						"POSITION":4,
						"NORMAL":5,
						"TEXCOORD_0":6
					},
					"indices":7,
					"material":1
				},
				{
					"attributes":{
						"POSITION":8,
						"NORMAL":9,
						"TEXCOORD_0":10
					},
					"indices":11,
					"material":2
				}
			]
		},
		{
			"name":"Cube.258",
			"primitives":[
				{
					"attributes":{
						"POSITION":12,
						"NORMAL":13,
						"TEXCOORD_0":14
					},
					"indices":15
				}
			]
		},
		{
			"name":"Cube.259",
			"primitives":[
				{
					"attributes":{
						"POSITION":16,
						"NORMAL":17,
						"TEXCOORD_0":18
					},
					"indices":19
				}
			]
		},
		{
			"name":"Cube.260",
			"primitives":[
				{
					"attributes":{
						"POSITION":20,
						"NORMAL":21,
						"TEXCOORD_0":22
					},
					"indices":23
				}
			]
		}
	],
	"textures":[
		{
			"sampler":0,
			"source":0
		},
		{
			"sampler":0,
			"source":1
		},
		{
			"sampler":0,
			"source":2
		},
		{
			"sampler":0,
			"source":3
		}
	],
	"images":[
		{
			"mimeType":"image/png",
			"name":"T_Trim_01_Normal",
			"uri":"T_Trim_01_Normal.png"
		},
		{
			"mimeType":"image/png",
			"name":"T_Trim_01_BaseColor_Red",
			"uri":"T_Trim_01_BaseColor_Red.png"
		},
		{
			"mimeType":"image/png",
			"name":"T_Trim_01_ORM",
			"uri":"T_Trim_01_ORM.png"
		},
		{
			"mimeType":"image/png",
			"name":"T_Decals",
			"uri":"T_Decals.png"
		}
	],
	"accessors":[
		{
			"bufferView":0,
			"componentType":5126,
			"count":12,
			"max":[
				0.2680157423019409,
				0.431729257106781,
				0.18990515172481537
			],
			"min":[
				-0.26461291313171387,
				0.10592769831418991,
				-0.2657400369644165
			],
			"type":"VEC3"
		},
		{
			"bufferView":1,
			"componentType":5126,
			"count":12,
			"type":"VEC3"
		},
		{
			"bufferView":2,
			"componentType":5126,
			"count":12,
			"type":"VEC2"
		},
		{
			"bufferView":3,
			"componentType":5123,
			"count":36,
			"type":"SCALAR"
		},
		{
			"bufferView":4,
			"componentType":5126,
			"count":174,
			"max":[
				0.4093092679977417,
				0.14551828801631927,
				0.30919504165649414
			],
			"min":[
				-0.4093092679977417,
				-0.004088744521141052,
				-0.41747236251831055
			],
			"type":"VEC3"
		},
		{
			"bufferView":5,
			"componentType":5126,
			"count":174,
			"type":"VEC3"
		},
		{
			"bufferView":6,
			"componentType":5126,
			"count":174,
			"type":"VEC2"
		},
		{
			"bufferView":7,
			"componentType":5123,
			"count":522,
			"type":"SCALAR"
		},
		{
			"bufferView":8,
			"componentType":5126,
			"count":13,
			"max":[
				0.14785289764404297,
				0.10592770576477051,
				0.10603022575378418
			],
			"min":[
				-0.14785288274288177,
				0.10592770576477051,
				-0.15095581114292145
			],
			"type":"VEC3"
		},
		{
			"bufferView":9,
			"componentType":5126,
			"count":13,
			"type":"VEC3"
		},
		{
			"bufferView":10,
			"componentType":5126,
			"count":13,
			"type":"VEC2"
		},
		{
			"bufferView":11,
			"componentType":5123,
			"count":36,
			"type":"SCALAR"
		},
		{
			"bufferView":12,
			"componentType":5126,
			"count":24,
			"max":[
				0.2975273132324219,
				0.1656448245048523,
				0.3228845000267029
			],
			"min":[
				-0.2975273132324219,
				-0.0067328400909900665,
				-0.4286847412586212
			],
			"type":"VEC3"
		},
		{
			"bufferView":13,
			"componentType":5126,
			"count":24,
			"type":"VEC3"
		},
		{
			"bufferView":14,
			"componentType":5126,
			"count":24,
			"type":"VEC2"
		},
		{
			"bufferView":15,
			"componentType":5123,
			"count":36,
			"type":"SCALAR"
		},
		{
			"bufferView":16,
			"componentType":5126,
			"count":24,
			"max":[
				-0.09414761513471603,
				0.1656448245048523,
				0.3228845000267029
			],
			"min":[
				-0.44823309779167175,
				-0.0067328400909900665,
				-0.4286847412586212
			],
			"type":"VEC3"
		},
		{
			"bufferView":17,
			"componentType":5126,
			"count":24,
			"type":"VEC3"
		},
		{
			"bufferView":18,
			"componentType":5126,
			"count":24,
			"type":"VEC2"
		},
		{
			"bufferView":19,
			"componentType":5123,
			"count":36,
			"type":"SCALAR"
		},
		{
			"bufferView":20,
			"componentType":5126,
			"count":24,
			"max":[
				0.44823309779167175,
				0.1656448245048523,
				0.3228845000267029
			],
			"min":[
				0.09414761513471603,
				-0.0067328400909900665,
				-0.4286847412586212
			],
			"type":"VEC3"
		},
		{
			"bufferView":21,
			"componentType":5126,
			"count":24,
			"type":"VEC3"
		},
		{
			"bufferView":22,
			"componentType":5126,
			"count":24,
			"type":"VEC2"
		},
		{
			"bufferView":23,
			"componentType":5123,
			"count":36,
			"type":"SCALAR"
		}
	],
	"bufferViews":[
		{
			"buffer":0,
			"byteLength":144,
			"byteOffset":0,
			"target":34962
		},
		{
			"buffer":0,
			"byteLength":144,
			"byteOffset":144,
			"target":34962
		},
		{
			"buffer":0,
			"byteLength":96,
			"byteOffset":288,
			"target":34962
		},
		{
			"buffer":0,
			"byteLength":72,
			"byteOffset":384,
			"target":34963
		},
		{
			"buffer":0,
			"byteLength":2088,
			"byteOffset":456,
			"target":34962
		},
		{
			"buffer":0,
			"byteLength":2088,
			"byteOffset":2544,
			"target":34962
		},
		{
			"buffer":0,
			"byteLength":1392,
			"byteOffset":4632,
			"target":34962
		},
		{
			"buffer":0,
			"byteLength":1044,
			"byteOffset":6024,
			"target":34963
		},
		{
			"buffer":0,
			"byteLength":156,
			"byteOffset":7068,
			"target":34962
		},
		{
			"buffer":0,
			"byteLength":156,
			"byteOffset":7224,
			"target":34962
		},
		{
			"buffer":0,
			"byteLength":104,
			"byteOffset":7380,
			"target":34962
		},
		{
			"buffer":0,
			"byteLength":72,
			"byteOffset":7484,
			"target":34963
		},
		{
			"buffer":0,
			"byteLength":288,
			"byteOffset":7556,
			"target":34962
		},
		{
			"buffer":0,
			"byteLength":288,
			"byteOffset":7844,
			"target":34962
		},
		{
			"buffer":0,
			"byteLength":192,
			"byteOffset":8132,
			"target":34962
		},
		{
			"buffer":0,
			"byteLength":72,
			"byteOffset":8324,
			"target":34963
		},
		{
			"buffer":0,
			"byteLength":288,
			"byteOffset":8396,
			"target":34962
		},
		{
			"buffer":0,
			"byteLength":288,
			"byteOffset":8684,
			"target":34962
		},
		{
			"buffer":0,
			"byteLength":192,
			"byteOffset":8972,
			"target":34962
		},
		{
			"buffer":0,
			"byteLength":72,
			"byteOffset":9164,
			"target":34963
		},
		{
			"buffer":0,
			"byteLength":288,
			"byteOffset":9236,
			"target":34962
		},
		{
			"buffer":0,
			"byteLength":288,
			"byteOffset":9524,
			"target":34962
		},
		{
			"buffer":0,
			"byteLength":192,
			"byteOffset":9812,
			"target":34962
		},
		{
			"buffer":0,
			"byteLength":72,
			"byteOffset":10004,
			"target":34963
		}
	],
	"samplers":[
		{
			"magFilter":9729,
			"minFilter":9987
		}
	],
	"buffers":[
		{
			"byteLength":10076,
			"uri":"Prop_ItemHolder.bin"
		}
	]
}
