{
	"asset":{
		"generator":"Khronos glTF Blender I/O v4.0.44",
		"version":"2.0"
	},
	"scene":0,
	"scenes":[
		{
			"name":"Scene",
			"nodes":[
				0,
				1,
				2
			]
		}
	],
	"nodes":[
		{
			"mesh":0,
			"name":"Prop_Rail_Incline_Short_R",
			"rotation":[
				-0.4502224624156952,
				0,
				0,
				0.8929164409637451
			],
			"scale":[
				0.03067789599299431,
				1.8732908964157104,
				0.030677897855639458
			]
		},
		{
			"mesh":1,
			"name":"Prop_Rail_Incline_Short_R_01_convcolonly"
		},
		{
			"mesh":2,
			"name":"Prop_Rail_Incline_Short_R_02_convcolonly"
		}
	],
	"materials":[
		{
			"doubleSided":true,
			"name":"MI_Trim_02_Rails",
			"normalTexture":{
				"index":0
			},
			"pbrMetallicRoughness":{
				"baseColorTexture":{
					"index":1
				},
				"metallicRoughnessTexture":{
					"index":2
				}
			}
		}
	],
	"meshes":[
		{
			"name":"Cylinder.017",
			"primitives":[
				{
					"attributes":{
						"POSITION":0,
						"NORMAL":1,
						"TEXCOORD_0":2
					},
					"indices":3,
					"material":0
				}
			]
		},
		{
			"name":"UCX_Prop_Rail_Incline_Short_1",
			"primitives":[
				{
					"attributes":{
						"POSITION":4,
						"NORMAL":5,
						"TEXCOORD_0":6
					},
					"indices":7
				}
			]
		},
		{
			"name":"UCX_Prop_Rail_Incline_Short_2",
			"primitives":[
				{
					"attributes":{
						"POSITION":8,
						"NORMAL":9,
						"TEXCOORD_0":10
					},
					"indices":11
				}
			]
		}
	],
	"textures":[
		{
			"sampler":0,
			"source":0
		},
		{
			"sampler":0,
			"source":1
		},
		{
			"sampler":0,
			"source":2
		}
	],
	"images":[
		{
			"mimeType":"image/png",
			"name":"T_Trim_02_Normal",
			"uri":"T_Trim_02_Normal.png"
		},
		{
			"mimeType":"image/png",
			"name":"T_Trim_02_BaseColor_Red",
			"uri":"T_Trim_02_BaseColor_Red.png"
		},
		{
			"mimeType":"image/png",
			"name":"T_Trim_02_ORM",
			"uri":"T_Trim_02_ORM.png"
		}
	],
	"accessors":[
		{
			"bufferView":0,
			"componentType":5126,
			"count":417,
			"max":[
				7.374843597412109,
				0.49164068698883057,
				57.974098205566406
			],
			"min":[
				-0.9223194122314453,
				-0.8294799327850342,
				24.446149826049805
			],
			"type":"VEC3"
		},
		{
			"bufferView":1,
			"componentType":5126,
			"count":417,
			"type":"VEC3"
		},
		{
			"bufferView":2,
			"componentType":5126,
			"count":417,
			"type":"VEC2"
		},
		{
			"bufferView":3,
			"componentType":5123,
			"count":1836,
			"type":"SCALAR"
		},
		{
			"bufferView":4,
			"componentType":5126,
			"count":24,
			"max":[
				0.04452759027481079,
				1.1657359600067139,
				1.9507980346679688
			],
			"min":[
				-0.04541989415884018,
				-0.012632787227630615,
				0.03050195425748825
			],
			"type":"VEC3"
		},
		{
			"bufferView":5,
			"componentType":5126,
			"count":24,
			"type":"VEC3"
		},
		{
			"bufferView":6,
			"componentType":5126,
			"count":24,
			"type":"VEC2"
		},
		{
			"bufferView":7,
			"componentType":5123,
			"count":36,
			"type":"SCALAR"
		},
		{
			"bufferView":8,
			"componentType":5126,
			"count":24,
			"max":[
				0.23717468976974487,
				1.7941678762435913,
				1.95166015625
			],
			"min":[
				-0.04541989415884018,
				0.3060302138328552,
				0.029639899730682373
			],
			"type":"VEC3"
		},
		{
			"bufferView":9,
			"componentType":5126,
			"count":24,
			"type":"VEC3"
		},
		{
			"bufferView":10,
			"componentType":5126,
			"count":24,
			"type":"VEC2"
		},
		{
			"bufferView":11,
			"componentType":5123,
			"count":36,
			"type":"SCALAR"
		}
	],
	"bufferViews":[
		{
			"buffer":0,
			"byteLength":5004,
			"byteOffset":0,
			"target":34962
		},
		{
			"buffer":0,
			"byteLength":5004,
			"byteOffset":5004,
			"target":34962
		},
		{
			"buffer":0,
			"byteLength":3336,
			"byteOffset":10008,
			"target":34962
		},
		{
			"buffer":0,
			"byteLength":3672,
			"byteOffset":13344,
			"target":34963
		},
		{
			"buffer":0,
			"byteLength":288,
			"byteOffset":17016,
			"target":34962
		},
		{
			"buffer":0,
			"byteLength":288,
			"byteOffset":17304,
			"target":34962
		},
		{
			"buffer":0,
			"byteLength":192,
			"byteOffset":17592,
			"target":34962
		},
		{
			"buffer":0,
			"byteLength":72,
			"byteOffset":17784,
			"target":34963
		},
		{
			"buffer":0,
			"byteLength":288,
			"byteOffset":17856,
			"target":34962
		},
		{
			"buffer":0,
			"byteLength":288,
			"byteOffset":18144,
			"target":34962
		},
		{
			"buffer":0,
			"byteLength":192,
			"byteOffset":18432,
			"target":34962
		},
		{
			"buffer":0,
			"byteLength":72,
			"byteOffset":18624,
			"target":34963
		}
	],
	"samplers":[
		{
			"magFilter":9729,
			"minFilter":9987
		}
	],
	"buffers":[
		{
			"byteLength":18696,
			"uri":"Prop_Rail_Incline_Short_R.bin"
		}
	]
}
