{
	"asset":{
		"generator":"Khronos glTF Blender I/O v4.0.44",
		"version":"2.0"
	},
	"scene":0,
	"scenes":[
		{
			"name":"Scene",
			"nodes":[
				0,
				1,
				2
			]
		}
	],
	"nodes":[
		{
			"mesh":0,
			"name":"Prop_WallBand_BrokenPlate"
		},
		{
			"mesh":1,
			"name":"Prop_WallBand_BrokenPlate_1_convcolonly"
		},
		{
			"mesh":2,
			"name":"Prop_WallBand_BrokenPlate_2_convcolonly"
		}
	],
	"materials":[
		{
			"doubleSided":true,
			"name":"MI_Trim_02",
			"normalTexture":{
				"index":0
			},
			"pbrMetallicRoughness":{
				"baseColorTexture":{
					"index":1
				},
				"metallicRoughnessTexture":{
					"index":2
				}
			}
		},
		{
			"doubleSided":true,
			"name":"M_Decal_White",
			"pbrMetallicRoughness":{
				"baseColorTexture":{
					"index":3
				},
				"metallicFactor":0,
				"roughnessFactor":0.5
			}
		}
	],
	"meshes":[
		{
			"name":"Plane.099",
			"primitives":[
				{
					"attributes":{
						"POSITION":0,
						"NORMAL":1,
						"TEXCOORD_0":2
					},
					"indices":3,
					"material":0
				},
				{
					"attributes":{
						"POSITION":4,
						"NORMAL":5,
						"TEXCOORD_0":6
					},
					"indices":7,
					"material":1
				}
			]
		},
		{
			"name":"Cube.303",
			"primitives":[
				{
					"attributes":{
						"POSITION":8,
						"NORMAL":9,
						"TEXCOORD_0":10
					},
					"indices":11
				}
			]
		},
		{
			"name":"Cube.304",
			"primitives":[
				{
					"attributes":{
						"POSITION":12,
						"NORMAL":13,
						"TEXCOORD_0":14
					},
					"indices":15
				}
			]
		}
	],
	"textures":[
		{
			"sampler":0,
			"source":0
		},
		{
			"sampler":0,
			"source":1
		},
		{
			"sampler":0,
			"source":2
		},
		{
			"sampler":0,
			"source":3
		}
	],
	"images":[
		{
			"mimeType":"image/png",
			"name":"T_Trim_02_Normal",
			"uri":"T_Trim_02_Normal.png"
		},
		{
			"mimeType":"image/png",
			"name":"T_Trim_02_BaseColor_Red",
			"uri":"T_Trim_02_BaseColor_Red.png"
		},
		{
			"mimeType":"image/png",
			"name":"T_Trim_02_ORM",
			"uri":"T_Trim_02_ORM.png"
		},
		{
			"mimeType":"image/png",
			"name":"T_Decals",
			"uri":"T_Decals.png"
		}
	],
	"accessors":[
		{
			"bufferView":0,
			"componentType":5126,
			"count":151,
			"max":[
				1.0302170515060425,
				0.2334083616733551,
				2.123128652572632
			],
			"min":[
				-0.981791615486145,
				-0.09581449627876282,
				-1.8776490688323975
			],
			"type":"VEC3"
		},
		{
			"bufferView":1,
			"componentType":5126,
			"count":151,
			"type":"VEC3"
		},
		{
			"bufferView":2,
			"componentType":5126,
			"count":151,
			"type":"VEC2"
		},
		{
			"bufferView":3,
			"componentType":5123,
			"count":492,
			"type":"SCALAR"
		},
		{
			"bufferView":4,
			"componentType":5126,
			"count":4,
			"max":[
				-0.5836413502693176,
				0.012334011495113373,
				2.062875986099243
			],
			"min":[
				-0.82658451795578,
				0.005268871784210205,
				1.6736525297164917
			],
			"type":"VEC3"
		},
		{
			"bufferView":5,
			"componentType":5126,
			"count":4,
			"type":"VEC3"
		},
		{
			"bufferView":6,
			"componentType":5126,
			"count":4,
			"type":"VEC2"
		},
		{
			"bufferView":7,
			"componentType":5123,
			"count":6,
			"type":"SCALAR"
		},
		{
			"bufferView":8,
			"componentType":5126,
			"count":24,
			"max":[
				1,
				0.04500795155763626,
				2.1421897411346436
			],
			"min":[
				-1,
				-0.04500795155763626,
				-1.888461947441101
			],
			"type":"VEC3"
		},
		{
			"bufferView":9,
			"componentType":5126,
			"count":24,
			"type":"VEC3"
		},
		{
			"bufferView":10,
			"componentType":5126,
			"count":24,
			"type":"VEC2"
		},
		{
			"bufferView":11,
			"componentType":5123,
			"count":36,
			"type":"SCALAR"
		},
		{
			"bufferView":12,
			"componentType":5126,
			"count":24,
			"max":[
				1.0381768941879272,
				0.22751837968826294,
				-1.0728464126586914
			],
			"min":[
				0.6430333852767944,
				-0.07309990376234055,
				-1.8672033548355103
			],
			"type":"VEC3"
		},
		{
			"bufferView":13,
			"componentType":5126,
			"count":24,
			"type":"VEC3"
		},
		{
			"bufferView":14,
			"componentType":5126,
			"count":24,
			"type":"VEC2"
		},
		{
			"bufferView":15,
			"componentType":5123,
			"count":36,
			"type":"SCALAR"
		}
	],
	"bufferViews":[
		{
			"buffer":0,
			"byteLength":1812,
			"byteOffset":0,
			"target":34962
		},
		{
			"buffer":0,
			"byteLength":1812,
			"byteOffset":1812,
			"target":34962
		},
		{
			"buffer":0,
			"byteLength":1208,
			"byteOffset":3624,
			"target":34962
		},
		{
			"buffer":0,
			"byteLength":984,
			"byteOffset":4832,
			"target":34963
		},
		{
			"buffer":0,
			"byteLength":48,
			"byteOffset":5816,
			"target":34962
		},
		{
			"buffer":0,
			"byteLength":48,
			"byteOffset":5864,
			"target":34962
		},
		{
			"buffer":0,
			"byteLength":32,
			"byteOffset":5912,
			"target":34962
		},
		{
			"buffer":0,
			"byteLength":12,
			"byteOffset":5944,
			"target":34963
		},
		{
			"buffer":0,
			"byteLength":288,
			"byteOffset":5956,
			"target":34962
		},
		{
			"buffer":0,
			"byteLength":288,
			"byteOffset":6244,
			"target":34962
		},
		{
			"buffer":0,
			"byteLength":192,
			"byteOffset":6532,
			"target":34962
		},
		{
			"buffer":0,
			"byteLength":72,
			"byteOffset":6724,
			"target":34963
		},
		{
			"buffer":0,
			"byteLength":288,
			"byteOffset":6796,
			"target":34962
		},
		{
			"buffer":0,
			"byteLength":288,
			"byteOffset":7084,
			"target":34962
		},
		{
			"buffer":0,
			"byteLength":192,
			"byteOffset":7372,
			"target":34962
		},
		{
			"buffer":0,
			"byteLength":72,
			"byteOffset":7564,
			"target":34963
		}
	],
	"samplers":[
		{
			"magFilter":9729,
			"minFilter":9987
		}
	],
	"buffers":[
		{
			"byteLength":7636,
			"uri":"Prop_WallBand_BrokenPlate.bin"
		}
	]
}
