{
	"asset":{
		"generator":"Khronos glTF Blender I/O v4.0.44",
		"version":"2.0"
	},
	"extensionsUsed":[
		"KHR_materials_specular",
		"KHR_materials_ior"
	],
	"scene":0,
	"scenes":[
		{
			"name":"Scene",
			"nodes":[
				0,
				1,
				2,
				3,
				4,
				5
			]
		}
	],
	"nodes":[
		{
			"mesh":0,
			"name":"Prop_Teleporter"
		},
		{
			"mesh":1,
			"name":"Prop_Teleporter_1_convcolonly"
		},
		{
			"mesh":2,
			"name":"Prop_Teleporter_2_convcolonly"
		},
		{
			"mesh":3,
			"name":"Prop_Teleporter_3_convcolonly"
		},
		{
			"mesh":4,
			"name":"Prop_Teleporter_4_convcolonly"
		},
		{
			"mesh":5,
			"name":"Prop_Teleporter_5_convcolonly"
		}
	],
	"materials":[
		{
			"doubleSided":true,
			"name":"MI_Trim_02",
			"normalTexture":{
				"index":0
			},
			"pbrMetallicRoughness":{
				"baseColorTexture":{
					"index":1
				},
				"metallicRoughnessTexture":{
					"index":2
				}
			}
		},
		{
			"doubleSided":true,
			"extensions":{
				"KHR_materials_specular":{
					"specularFactor":0
				},
				"KHR_materials_ior":{
					"ior":1.4500000476837158
				}
			},
			"name":"MI_Trim_01_Teleporter",
			"normalTexture":{
				"index":3
			},
			"pbrMetallicRoughness":{
				"baseColorTexture":{
					"index":4
				},
				"metallicRoughnessTexture":{
					"index":5
				}
			}
		},
		{
			"doubleSided":true,
			"name":"M_LightFade",
			"pbrMetallicRoughness":{
				"baseColorFactor":[
					0.800000011920929,
					0.800000011920929,
					0.800000011920929,
					1
				],
				"metallicFactor":0,
				"roughnessFactor":0.5
			}
		}
	],
	"meshes":[
		{
			"name":"Cylinder.006",
			"primitives":[
				{
					"attributes":{
						"POSITION":0,
						"NORMAL":1,
						"TEXCOORD_0":2
					},
					"indices":3,
					"material":0
				},
				{
					"attributes":{
						"POSITION":4,
						"NORMAL":5,
						"TEXCOORD_0":6
					},
					"indices":7,
					"material":1
				},
				{
					"attributes":{
						"POSITION":8,
						"NORMAL":9,
						"TEXCOORD_0":10
					},
					"indices":11,
					"material":2
				}
			]
		},
		{
			"name":"Cylinder.041",
			"primitives":[
				{
					"attributes":{
						"POSITION":12,
						"NORMAL":13,
						"TEXCOORD_0":14
					},
					"indices":15
				}
			]
		},
		{
			"name":"Cube.299",
			"primitives":[
				{
					"attributes":{
						"POSITION":16,
						"NORMAL":17,
						"TEXCOORD_0":18
					},
					"indices":19
				}
			]
		},
		{
			"name":"Cube.300",
			"primitives":[
				{
					"attributes":{
						"POSITION":20,
						"NORMAL":21,
						"TEXCOORD_0":22
					},
					"indices":23
				}
			]
		},
		{
			"name":"Cube.301",
			"primitives":[
				{
					"attributes":{
						"POSITION":24,
						"NORMAL":25,
						"TEXCOORD_0":26
					},
					"indices":27
				}
			]
		},
		{
			"name":"Cube.302",
			"primitives":[
				{
					"attributes":{
						"POSITION":28,
						"NORMAL":29,
						"TEXCOORD_0":30
					},
					"indices":31
				}
			]
		}
	],
	"textures":[
		{
			"sampler":0,
			"source":0
		},
		{
			"sampler":0,
			"source":1
		},
		{
			"sampler":0,
			"source":2
		},
		{
			"sampler":0,
			"source":3
		},
		{
			"sampler":0,
			"source":4
		},
		{
			"sampler":0,
			"source":5
		}
	],
	"images":[
		{
			"mimeType":"image/png",
			"name":"T_Trim_02_Normal",
			"uri":"T_Trim_02_Normal.png"
		},
		{
			"mimeType":"image/png",
			"name":"T_Trim_02_BaseColor_Red",
			"uri":"T_Trim_02_BaseColor_Red.png"
		},
		{
			"mimeType":"image/png",
			"name":"T_Trim_02_ORM",
			"uri":"T_Trim_02_ORM.png"
		},
		{
			"mimeType":"image/png",
			"name":"T_Trim_01_Normal",
			"uri":"T_Trim_01_Normal.png"
		},
		{
			"mimeType":"image/png",
			"name":"T_Trim_01_BaseColor_Red",
			"uri":"T_Trim_01_BaseColor_Red.png"
		},
		{
			"mimeType":"image/png",
			"name":"T_Trim_01_ORM",
			"uri":"T_Trim_01_ORM.png"
		}
	],
	"accessors":[
		{
			"bufferView":0,
			"componentType":5126,
			"count":704,
			"max":[
				1.9997848272323608,
				0.35239696502685547,
				1.9997848272323608
			],
			"min":[
				-1.9997848272323608,
				-0.016027435660362244,
				-1.9997848272323608
			],
			"type":"VEC3"
		},
		{
			"bufferView":1,
			"componentType":5126,
			"count":704,
			"type":"VEC3"
		},
		{
			"bufferView":2,
			"componentType":5126,
			"count":704,
			"type":"VEC2"
		},
		{
			"bufferView":3,
			"componentType":5123,
			"count":2376,
			"type":"SCALAR"
		},
		{
			"bufferView":4,
			"componentType":5126,
			"count":353,
			"max":[
				2.188666343688965,
				0.35239696502685547,
				2.188666343688965
			],
			"min":[
				-2.188666343688965,
				-0.03645368665456772,
				-2.188666343688965
			],
			"type":"VEC3"
		},
		{
			"bufferView":5,
			"componentType":5126,
			"count":353,
			"type":"VEC3"
		},
		{
			"bufferView":6,
			"componentType":5126,
			"count":353,
			"type":"VEC2"
		},
		{
			"bufferView":7,
			"componentType":5123,
			"count":864,
			"type":"SCALAR"
		},
		{
			"bufferView":8,
			"componentType":5126,
			"count":389,
			"max":[
				0.9240002632141113,
				0.7679887413978577,
				0.9209510684013367
			],
			"min":[
				-0.9184504747390747,
				0.1605464220046997,
				-0.915370762348175
			],
			"type":"VEC3"
		},
		{
			"bufferView":9,
			"componentType":5126,
			"count":389,
			"type":"VEC3"
		},
		{
			"bufferView":10,
			"componentType":5126,
			"count":389,
			"type":"VEC2"
		},
		{
			"bufferView":11,
			"componentType":5123,
			"count":1728,
			"type":"SCALAR"
		},
		{
			"bufferView":12,
			"componentType":5126,
			"count":160,
			"max":[
				2.1239349842071533,
				0.3256233334541321,
				2.123934030532837
			],
			"min":[
				-2.1239330768585205,
				0,
				-2.123934030532837
			],
			"type":"VEC3"
		},
		{
			"bufferView":13,
			"componentType":5126,
			"count":160,
			"type":"VEC3"
		},
		{
			"bufferView":14,
			"componentType":5126,
			"count":160,
			"type":"VEC2"
		},
		{
			"bufferView":15,
			"componentType":5123,
			"count":276,
			"type":"SCALAR"
		},
		{
			"bufferView":16,
			"componentType":5126,
			"count":24,
			"max":[
				0.08709754794836044,
				0.22187012434005737,
				2.20381498336792
			],
			"min":[
				-0.08709825575351715,
				-4.470348358154297e-08,
				1.2389520406723022
			],
			"type":"VEC3"
		},
		{
			"bufferView":17,
			"componentType":5126,
			"count":24,
			"type":"VEC3"
		},
		{
			"bufferView":18,
			"componentType":5126,
			"count":24,
			"type":"VEC2"
		},
		{
			"bufferView":19,
			"componentType":5123,
			"count":36,
			"type":"SCALAR"
		},
		{
			"bufferView":20,
			"componentType":5126,
			"count":24,
			"max":[
				-1.2389520406723022,
				0.22187012434005737,
				0.08709749579429626
			],
			"min":[
				-2.20381498336792,
				-4.470348358154297e-08,
				-0.08709835261106491
			],
			"type":"VEC3"
		},
		{
			"bufferView":21,
			"componentType":5126,
			"count":24,
			"type":"VEC3"
		},
		{
			"bufferView":22,
			"componentType":5126,
			"count":24,
			"type":"VEC2"
		},
		{
			"bufferView":23,
			"componentType":5123,
			"count":36,
			"type":"SCALAR"
		},
		{
			"bufferView":24,
			"componentType":5126,
			"count":24,
			"max":[
				0.08709897100925446,
				0.22187012434005737,
				-1.2389520406723022
			],
			"min":[
				-0.08709714561700821,
				-4.470348358154297e-08,
				-2.20381498336792
			],
			"type":"VEC3"
		},
		{
			"bufferView":25,
			"componentType":5126,
			"count":24,
			"type":"VEC3"
		},
		{
			"bufferView":26,
			"componentType":5126,
			"count":24,
			"type":"VEC2"
		},
		{
			"bufferView":27,
			"componentType":5123,
			"count":36,
			"type":"SCALAR"
		},
		{
			"bufferView":28,
			"componentType":5126,
			"count":24,
			"max":[
				2.20381498336792,
				0.22187012434005737,
				0.0870993360877037
			],
			"min":[
				1.2389520406723022,
				-4.470348358154297e-08,
				-0.08709694445133209
			],
			"type":"VEC3"
		},
		{
			"bufferView":29,
			"componentType":5126,
			"count":24,
			"type":"VEC3"
		},
		{
			"bufferView":30,
			"componentType":5126,
			"count":24,
			"type":"VEC2"
		},
		{
			"bufferView":31,
			"componentType":5123,
			"count":36,
			"type":"SCALAR"
		}
	],
	"bufferViews":[
		{
			"buffer":0,
			"byteLength":8448,
			"byteOffset":0,
			"target":34962
		},
		{
			"buffer":0,
			"byteLength":8448,
			"byteOffset":8448,
			"target":34962
		},
		{
			"buffer":0,
			"byteLength":5632,
			"byteOffset":16896,
			"target":34962
		},
		{
			"buffer":0,
			"byteLength":4752,
			"byteOffset":22528,
			"target":34963
		},
		{
			"buffer":0,
			"byteLength":4236,
			"byteOffset":27280,
			"target":34962
		},
		{
			"buffer":0,
			"byteLength":4236,
			"byteOffset":31516,
			"target":34962
		},
		{
			"buffer":0,
			"byteLength":2824,
			"byteOffset":35752,
			"target":34962
		},
		{
			"buffer":0,
			"byteLength":1728,
			"byteOffset":38576,
			"target":34963
		},
		{
			"buffer":0,
			"byteLength":4668,
			"byteOffset":40304,
			"target":34962
		},
		{
			"buffer":0,
			"byteLength":4668,
			"byteOffset":44972,
			"target":34962
		},
		{
			"buffer":0,
			"byteLength":3112,
			"byteOffset":49640,
			"target":34962
		},
		{
			"buffer":0,
			"byteLength":3456,
			"byteOffset":52752,
			"target":34963
		},
		{
			"buffer":0,
			"byteLength":1920,
			"byteOffset":56208,
			"target":34962
		},
		{
			"buffer":0,
			"byteLength":1920,
			"byteOffset":58128,
			"target":34962
		},
		{
			"buffer":0,
			"byteLength":1280,
			"byteOffset":60048,
			"target":34962
		},
		{
			"buffer":0,
			"byteLength":552,
			"byteOffset":61328,
			"target":34963
		},
		{
			"buffer":0,
			"byteLength":288,
			"byteOffset":61880,
			"target":34962
		},
		{
			"buffer":0,
			"byteLength":288,
			"byteOffset":62168,
			"target":34962
		},
		{
			"buffer":0,
			"byteLength":192,
			"byteOffset":62456,
			"target":34962
		},
		{
			"buffer":0,
			"byteLength":72,
			"byteOffset":62648,
			"target":34963
		},
		{
			"buffer":0,
			"byteLength":288,
			"byteOffset":62720,
			"target":34962
		},
		{
			"buffer":0,
			"byteLength":288,
			"byteOffset":63008,
			"target":34962
		},
		{
			"buffer":0,
			"byteLength":192,
			"byteOffset":63296,
			"target":34962
		},
		{
			"buffer":0,
			"byteLength":72,
			"byteOffset":63488,
			"target":34963
		},
		{
			"buffer":0,
			"byteLength":288,
			"byteOffset":63560,
			"target":34962
		},
		{
			"buffer":0,
			"byteLength":288,
			"byteOffset":63848,
			"target":34962
		},
		{
			"buffer":0,
			"byteLength":192,
			"byteOffset":64136,
			"target":34962
		},
		{
			"buffer":0,
			"byteLength":72,
			"byteOffset":64328,
			"target":34963
		},
		{
			"buffer":0,
			"byteLength":288,
			"byteOffset":64400,
			"target":34962
		},
		{
			"buffer":0,
			"byteLength":288,
			"byteOffset":64688,
			"target":34962
		},
		{
			"buffer":0,
			"byteLength":192,
			"byteOffset":64976,
			"target":34962
		},
		{
			"buffer":0,
			"byteLength":72,
			"byteOffset":65168,
			"target":34963
		}
	],
	"samplers":[
		{
			"magFilter":9729,
			"minFilter":9987
		}
	],
	"buffers":[
		{
			"byteLength":65240,
			"uri":"Prop_Teleporter.bin"
		}
	]
}
