{
	"asset":{
		"generator":"Khronos glTF Blender I/O v4.0.44",
		"version":"2.0"
	},
	"extensionsUsed":[
		"KHR_materials_specular",
		"KHR_materials_ior"
	],
	"scene":0,
	"scenes":[
		{
			"name":"Scene",
			"nodes":[
				0,
				1,
				2,
				3
			]
		}
	],
	"nodes":[
		{
			"mesh":0,
			"name":"Prop_Barrel_Large"
		},
		{
			"mesh":1,
			"name":"Prop_Barrel_Large_1_convcolonly"
		},
		{
			"mesh":2,
			"name":"Prop_Barrel_Large_2_convcolonly"
		},
		{
			"mesh":3,
			"name":"Prop_Barrel_Large_3_convcolonly"
		}
	],
	"materials":[
		{
			"doubleSided":true,
			"extensions":{
				"KHR_materials_specular":{
					"specularFactor":0
				},
				"KHR_materials_ior":{
					"ior":1.4500000476837158
				}
			},
			"name":"MI_Trim_01",
			"normalTexture":{
				"index":0
			},
			"pbrMetallicRoughness":{
				"baseColorTexture":{
					"index":1
				},
				"metallicRoughnessTexture":{
					"index":2
				}
			}
		},
		{
			"doubleSided":true,
			"name":"MI_Trim_02",
			"normalTexture":{
				"index":3
			},
			"pbrMetallicRoughness":{
				"baseColorTexture":{
					"index":4
				},
				"metallicRoughnessTexture":{
					"index":5
				}
			}
		}
	],
	"meshes":[
		{
			"name":"Cylinder.021",
			"primitives":[
				{
					"attributes":{
						"POSITION":0,
						"NORMAL":1,
						"TEXCOORD_0":2
					},
					"indices":3,
					"material":0
				},
				{
					"attributes":{
						"POSITION":4,
						"NORMAL":5,
						"TEXCOORD_0":6
					},
					"indices":7,
					"material":1
				}
			]
		},
		{
			"name":"Cylinder.029",
			"primitives":[
				{
					"attributes":{
						"POSITION":8,
						"NORMAL":9,
						"TEXCOORD_0":10
					},
					"indices":11
				}
			]
		},
		{
			"name":"Cylinder.030",
			"primitives":[
				{
					"attributes":{
						"POSITION":12,
						"NORMAL":13,
						"TEXCOORD_0":14
					},
					"indices":15
				}
			]
		},
		{
			"name":"Cylinder.033",
			"primitives":[
				{
					"attributes":{
						"POSITION":16,
						"NORMAL":17,
						"TEXCOORD_0":18
					},
					"indices":19
				}
			]
		}
	],
	"textures":[
		{
			"sampler":0,
			"source":0
		},
		{
			"sampler":0,
			"source":1
		},
		{
			"sampler":0,
			"source":2
		},
		{
			"sampler":0,
			"source":3
		},
		{
			"sampler":0,
			"source":4
		},
		{
			"sampler":0,
			"source":5
		}
	],
	"images":[
		{
			"mimeType":"image/png",
			"name":"T_Trim_01_Normal",
			"uri":"T_Trim_01_Normal.png"
		},
		{
			"mimeType":"image/png",
			"name":"T_Trim_01_BaseColor_Red",
			"uri":"T_Trim_01_BaseColor_Red.png"
		},
		{
			"mimeType":"image/png",
			"name":"T_Trim_01_ORM",
			"uri":"T_Trim_01_ORM.png"
		},
		{
			"mimeType":"image/png",
			"name":"T_Trim_02_Normal",
			"uri":"T_Trim_02_Normal.png"
		},
		{
			"mimeType":"image/png",
			"name":"T_Trim_02_BaseColor_Red",
			"uri":"T_Trim_02_BaseColor_Red.png"
		},
		{
			"mimeType":"image/png",
			"name":"T_Trim_02_ORM",
			"uri":"T_Trim_02_ORM.png"
		}
	],
	"accessors":[
		{
			"bufferView":0,
			"componentType":5126,
			"count":404,
			"max":[
				0.25392207503318787,
				1.05525803565979,
				0.25392207503318787
			],
			"min":[
				-0.25392207503318787,
				0.008179725147783756,
				-0.25392207503318787
			],
			"type":"VEC3"
		},
		{
			"bufferView":1,
			"componentType":5126,
			"count":404,
			"type":"VEC3"
		},
		{
			"bufferView":2,
			"componentType":5126,
			"count":404,
			"type":"VEC2"
		},
		{
			"bufferView":3,
			"componentType":5123,
			"count":1092,
			"type":"SCALAR"
		},
		{
			"bufferView":4,
			"componentType":5126,
			"count":202,
			"max":[
				0.25392207503318787,
				1.1107845306396484,
				0.2659945487976074
			],
			"min":[
				-0.25392207503318787,
				0.16806669533252716,
				-0.2659945487976074
			],
			"type":"VEC3"
		},
		{
			"bufferView":5,
			"componentType":5126,
			"count":202,
			"type":"VEC3"
		},
		{
			"bufferView":6,
			"componentType":5126,
			"count":202,
			"type":"VEC2"
		},
		{
			"bufferView":7,
			"componentType":5123,
			"count":414,
			"type":"SCALAR"
		},
		{
			"bufferView":8,
			"componentType":5126,
			"count":48,
			"max":[
				0.2758735418319702,
				1.061753749847412,
				0.2758735418319702
			],
			"min":[
				-0.2758735418319702,
				0.0031128237023949623,
				-0.2758735418319702
			],
			"type":"VEC3"
		},
		{
			"bufferView":9,
			"componentType":5126,
			"count":48,
			"type":"VEC3"
		},
		{
			"bufferView":10,
			"componentType":5126,
			"count":48,
			"type":"VEC2"
		},
		{
			"bufferView":11,
			"componentType":5123,
			"count":84,
			"type":"SCALAR"
		},
		{
			"bufferView":12,
			"componentType":5126,
			"count":24,
			"max":[
				0.10018225759267807,
				1.1174660921096802,
				0.27268093824386597
			],
			"min":[
				-0.10018627345561981,
				1.0141220092773438,
				0.16109143197536469
			],
			"type":"VEC3"
		},
		{
			"bufferView":13,
			"componentType":5126,
			"count":24,
			"type":"VEC3"
		},
		{
			"bufferView":14,
			"componentType":5126,
			"count":24,
			"type":"VEC2"
		},
		{
			"bufferView":15,
			"componentType":5123,
			"count":36,
			"type":"SCALAR"
		},
		{
			"bufferView":16,
			"componentType":5126,
			"count":24,
			"max":[
				0.10018225759267807,
				1.1174660921096802,
				-0.16109143197536469
			],
			"min":[
				-0.10018627345561981,
				1.0141220092773438,
				-0.27268093824386597
			],
			"type":"VEC3"
		},
		{
			"bufferView":17,
			"componentType":5126,
			"count":24,
			"type":"VEC3"
		},
		{
			"bufferView":18,
			"componentType":5126,
			"count":24,
			"type":"VEC2"
		},
		{
			"bufferView":19,
			"componentType":5123,
			"count":36,
			"type":"SCALAR"
		}
	],
	"bufferViews":[
		{
			"buffer":0,
			"byteLength":4848,
			"byteOffset":0,
			"target":34962
		},
		{
			"buffer":0,
			"byteLength":4848,
			"byteOffset":4848,
			"target":34962
		},
		{
			"buffer":0,
			"byteLength":3232,
			"byteOffset":9696,
			"target":34962
		},
		{
			"buffer":0,
			"byteLength":2184,
			"byteOffset":12928,
			"target":34963
		},
		{
			"buffer":0,
			"byteLength":2424,
			"byteOffset":15112,
			"target":34962
		},
		{
			"buffer":0,
			"byteLength":2424,
			"byteOffset":17536,
			"target":34962
		},
		{
			"buffer":0,
			"byteLength":1616,
			"byteOffset":19960,
			"target":34962
		},
		{
			"buffer":0,
			"byteLength":828,
			"byteOffset":21576,
			"target":34963
		},
		{
			"buffer":0,
			"byteLength":576,
			"byteOffset":22404,
			"target":34962
		},
		{
			"buffer":0,
			"byteLength":576,
			"byteOffset":22980,
			"target":34962
		},
		{
			"buffer":0,
			"byteLength":384,
			"byteOffset":23556,
			"target":34962
		},
		{
			"buffer":0,
			"byteLength":168,
			"byteOffset":23940,
			"target":34963
		},
		{
			"buffer":0,
			"byteLength":288,
			"byteOffset":24108,
			"target":34962
		},
		{
			"buffer":0,
			"byteLength":288,
			"byteOffset":24396,
			"target":34962
		},
		{
			"buffer":0,
			"byteLength":192,
			"byteOffset":24684,
			"target":34962
		},
		{
			"buffer":0,
			"byteLength":72,
			"byteOffset":24876,
			"target":34963
		},
		{
			"buffer":0,
			"byteLength":288,
			"byteOffset":24948,
			"target":34962
		},
		{
			"buffer":0,
			"byteLength":288,
			"byteOffset":25236,
			"target":34962
		},
		{
			"buffer":0,
			"byteLength":192,
			"byteOffset":25524,
			"target":34962
		},
		{
			"buffer":0,
			"byteLength":72,
			"byteOffset":25716,
			"target":34963
		}
	],
	"samplers":[
		{
			"magFilter":9729,
			"minFilter":9987
		}
	],
	"buffers":[
		{
			"byteLength":25788,
			"uri":"Prop_Barrel_Large.bin"
		}
	]
}
