{
	"asset":{
		"generator":"Khronos glTF Blender I/O v4.0.44",
		"version":"2.0"
	},
	"scene":0,
	"scenes":[
		{
			"name":"Scene",
			"nodes":[
				0,
				1,
				2
			]
		}
	],
	"nodes":[
		{
			"mesh":0,
			"name":"Prop_Rail_Incline_Long_L"
		},
		{
			"mesh":1,
			"name":"Prop_Rail_Incline_Long_L_1_convcolonly"
		},
		{
			"mesh":2,
			"name":"Prop_Rail_Incline_Long_L_2_convcolonly"
		}
	],
	"materials":[
		{
			"doubleSided":true,
			"name":"MI_Trim_02_Rails",
			"normalTexture":{
				"index":0
			},
			"pbrMetallicRoughness":{
				"baseColorTexture":{
					"index":1
				},
				"metallicRoughnessTexture":{
					"index":2
				}
			}
		}
	],
	"meshes":[
		{
			"name":"Cylinder.057",
			"primitives":[
				{
					"attributes":{
						"POSITION":0,
						"NORMAL":1,
						"TEXCOORD_0":2
					},
					"indices":3,
					"material":0
				}
			]
		},
		{
			"name":"UCX_Prop_Rail_Incline_Short_1.009",
			"primitives":[
				{
					"attributes":{
						"POSITION":4,
						"NORMAL":5,
						"TEXCOORD_0":6
					},
					"indices":7
				}
			]
		},
		{
			"name":"UCX_Prop_Rail_Incline_Short_2.009",
			"primitives":[
				{
					"attributes":{
						"POSITION":8,
						"NORMAL":9,
						"TEXCOORD_0":10
					},
					"indices":11
				}
			]
		}
	],
	"textures":[
		{
			"sampler":0,
			"source":0
		},
		{
			"sampler":0,
			"source":1
		},
		{
			"sampler":0,
			"source":2
		}
	],
	"images":[
		{
			"mimeType":"image/png",
			"name":"T_Trim_02_Normal",
			"uri":"T_Trim_02_Normal.png"
		},
		{
			"mimeType":"image/png",
			"name":"T_Trim_02_BaseColor_Red",
			"uri":"T_Trim_02_BaseColor_Red.png"
		},
		{
			"mimeType":"image/png",
			"name":"T_Trim_02_ORM",
			"uri":"T_Trim_02_ORM.png"
		}
	],
	"accessors":[
		{
			"bufferView":0,
			"componentType":5126,
			"count":423,
			"max":[
				0.031191760674118996,
				2.7197914123535156,
				3.9015610218048096
			],
			"min":[
				-0.2233477383852005,
				0.0029671192169189453,
				0.09897005558013916
			],
			"type":"VEC3"
		},
		{
			"bufferView":1,
			"componentType":5126,
			"count":423,
			"type":"VEC3"
		},
		{
			"bufferView":2,
			"componentType":5126,
			"count":423,
			"type":"VEC2"
		},
		{
			"bufferView":3,
			"componentType":5123,
			"count":1836,
			"type":"SCALAR"
		},
		{
			"bufferView":4,
			"componentType":5126,
			"count":24,
			"max":[
				0.03268532454967499,
				2.268871307373047,
				3.908336639404297
			],
			"min":[
				-0.05726215988397598,
				-0.011477470397949219,
				0.03050195425748825
			],
			"type":"VEC3"
		},
		{
			"bufferView":5,
			"componentType":5126,
			"count":24,
			"type":"VEC3"
		},
		{
			"bufferView":6,
			"componentType":5126,
			"count":24,
			"type":"VEC2"
		},
		{
			"bufferView":7,
			"componentType":5123,
			"count":36,
			"type":"SCALAR"
		},
		{
			"bufferView":8,
			"componentType":5126,
			"count":24,
			"max":[
				0.03268532454967499,
				2.849202871322632,
				3.909198760986328
			],
			"min":[
				-0.24990926682949066,
				0.30718564987182617,
				0.029639899730682373
			],
			"type":"VEC3"
		},
		{
			"bufferView":9,
			"componentType":5126,
			"count":24,
			"type":"VEC3"
		},
		{
			"bufferView":10,
			"componentType":5126,
			"count":24,
			"type":"VEC2"
		},
		{
			"bufferView":11,
			"componentType":5123,
			"count":36,
			"type":"SCALAR"
		}
	],
	"bufferViews":[
		{
			"buffer":0,
			"byteLength":5076,
			"byteOffset":0,
			"target":34962
		},
		{
			"buffer":0,
			"byteLength":5076,
			"byteOffset":5076,
			"target":34962
		},
		{
			"buffer":0,
			"byteLength":3384,
			"byteOffset":10152,
			"target":34962
		},
		{
			"buffer":0,
			"byteLength":3672,
			"byteOffset":13536,
			"target":34963
		},
		{
			"buffer":0,
			"byteLength":288,
			"byteOffset":17208,
			"target":34962
		},
		{
			"buffer":0,
			"byteLength":288,
			"byteOffset":17496,
			"target":34962
		},
		{
			"buffer":0,
			"byteLength":192,
			"byteOffset":17784,
			"target":34962
		},
		{
			"buffer":0,
			"byteLength":72,
			"byteOffset":17976,
			"target":34963
		},
		{
			"buffer":0,
			"byteLength":288,
			"byteOffset":18048,
			"target":34962
		},
		{
			"buffer":0,
			"byteLength":288,
			"byteOffset":18336,
			"target":34962
		},
		{
			"buffer":0,
			"byteLength":192,
			"byteOffset":18624,
			"target":34962
		},
		{
			"buffer":0,
			"byteLength":72,
			"byteOffset":18816,
			"target":34963
		}
	],
	"samplers":[
		{
			"magFilter":9729,
			"minFilter":9987
		}
	],
	"buffers":[
		{
			"byteLength":18888,
			"uri":"Prop_Rail_Incline_Long_L.bin"
		}
	]
}
