{
	"asset":{
		"generator":"Khronos glTF Blender I/O v4.0.44",
		"version":"2.0"
	},
	"extensionsUsed":[
		"KHR_materials_specular",
		"KHR_materials_ior"
	],
	"scene":0,
	"scenes":[
		{
			"name":"Scene",
			"nodes":[
				0,
				1
			]
		}
	],
	"nodes":[
		{
			"mesh":0,
			"name":"Column_MetalSupports"
		},
		{
			"mesh":1,
			"name":"Column_MetalSupports_1_convcolonly"
		}
	],
	"materials":[
		{
			"doubleSided":true,
			"extensions":{
				"KHR_materials_specular":{
					"specularFactor":0
				},
				"KHR_materials_ior":{
					"ior":1.4500000476837158
				}
			},
			"name":"MI_PaddedWall",
			"pbrMetallicRoughness":{
				"baseColorFactor":[
					0.800000011920929,
					0.800000011920929,
					0.800000011920929,
					1
				],
				"metallicFactor":0,
				"roughnessFactor":0.5
			}
		},
		{
			"doubleSided":true,
			"name":"MI_Trim_02",
			"pbrMetallicRoughness":{
				"baseColorFactor":[
					0.800000011920929,
					0.800000011920929,
					0.800000011920929,
					1
				],
				"metallicFactor":0,
				"roughnessFactor":0.5
			}
		}
	],
	"meshes":[
		{
			"name":"Plane.010",
			"primitives":[
				{
					"attributes":{
						"POSITION":0,
						"NORMAL":1,
						"TEXCOORD_0":2
					},
					"indices":3,
					"material":0
				},
				{
					"attributes":{
						"POSITION":4,
						"NORMAL":5,
						"TEXCOORD_0":6
					},
					"indices":7,
					"material":1
				}
			]
		},
		{
			"name":"Cube.470",
			"primitives":[
				{
					"attributes":{
						"POSITION":8,
						"NORMAL":9,
						"TEXCOORD_0":10
					},
					"indices":11
				}
			]
		}
	],
	"accessors":[
		{
			"bufferView":0,
			"componentType":5126,
			"count":546,
			"max":[
				0.43735116720199585,
				5,
				0.43727707862854004
			],
			"min":[
				-0.43714869022369385,
				0,
				0.4006129205226898
			],
			"type":"VEC3"
		},
		{
			"bufferView":1,
			"componentType":5126,
			"count":546,
			"type":"VEC3"
		},
		{
			"bufferView":2,
			"componentType":5126,
			"count":546,
			"type":"VEC2"
		},
		{
			"bufferView":3,
			"componentType":5123,
			"count":1752,
			"type":"SCALAR"
		},
		{
			"bufferView":4,
			"componentType":5126,
			"count":574,
			"max":[
				0.43735116720199585,
				5,
				0.43727707862854004
			],
			"min":[
				-0.43714869022369385,
				0,
				0.4006129205226898
			],
			"type":"VEC3"
		},
		{
			"bufferView":5,
			"componentType":5126,
			"count":574,
			"type":"VEC3"
		},
		{
			"bufferView":6,
			"componentType":5126,
			"count":574,
			"type":"VEC2"
		},
		{
			"bufferView":7,
			"componentType":5123,
			"count":1614,
			"type":"SCALAR"
		},
		{
			"bufferView":8,
			"componentType":5126,
			"count":24,
			"max":[
				0.45020461082458496,
				5,
				0.45020461082458496
			],
			"min":[
				-0.45020461082458496,
				0,
				-0.45020461082458496
			],
			"type":"VEC3"
		},
		{
			"bufferView":9,
			"componentType":5126,
			"count":24,
			"type":"VEC3"
		},
		{
			"bufferView":10,
			"componentType":5126,
			"count":24,
			"type":"VEC2"
		},
		{
			"bufferView":11,
			"componentType":5123,
			"count":36,
			"type":"SCALAR"
		}
	],
	"bufferViews":[
		{
			"buffer":0,
			"byteLength":6552,
			"byteOffset":0,
			"target":34962
		},
		{
			"buffer":0,
			"byteLength":6552,
			"byteOffset":6552,
			"target":34962
		},
		{
			"buffer":0,
			"byteLength":4368,
			"byteOffset":13104,
			"target":34962
		},
		{
			"buffer":0,
			"byteLength":3504,
			"byteOffset":17472,
			"target":34963
		},
		{
			"buffer":0,
			"byteLength":6888,
			"byteOffset":20976,
			"target":34962
		},
		{
			"buffer":0,
			"byteLength":6888,
			"byteOffset":27864,
			"target":34962
		},
		{
			"buffer":0,
			"byteLength":4592,
			"byteOffset":34752,
			"target":34962
		},
		{
			"buffer":0,
			"byteLength":3228,
			"byteOffset":39344,
			"target":34963
		},
		{
			"buffer":0,
			"byteLength":288,
			"byteOffset":42572,
			"target":34962
		},
		{
			"buffer":0,
			"byteLength":288,
			"byteOffset":42860,
			"target":34962
		},
		{
			"buffer":0,
			"byteLength":192,
			"byteOffset":43148,
			"target":34962
		},
		{
			"buffer":0,
			"byteLength":72,
			"byteOffset":43340,
			"target":34963
		}
	],
	"buffers":[
		{
			"byteLength":43412,
			"uri":"Column_MetalSupports.bin"
		}
	]
}
