{
	"asset":{
		"generator":"Khronos glTF Blender I/O v4.0.44",
		"version":"2.0"
	},
	"extensionsUsed":[
		"KHR_materials_specular",
		"KHR_materials_ior"
	],
	"scene":0,
	"scenes":[
		{
			"name":"Scene",
			"nodes":[
				0,
				1,
				2,
				3
			]
		}
	],
	"nodes":[
		{
			"mesh":0,
			"name":"Column_Large3"
		},
		{
			"mesh":1,
			"name":"Column_Large3_3_convcolonly"
		},
		{
			"mesh":2,
			"name":"Column_Large3_1_convcolonly"
		},
		{
			"mesh":3,
			"name":"Column_Large3_2_convcolonly"
		}
	],
	"materials":[
		{
			"doubleSided":true,
			"name":"MI_Trim_03",
			"pbrMetallicRoughness":{
				"baseColorFactor":[
					0.800000011920929,
					0.800000011920929,
					0.800000011920929,
					1
				],
				"metallicFactor":0,
				"roughnessFactor":0.5
			}
		},
		{
			"doubleSided":true,
			"extensions":{
				"KHR_materials_specular":{
					"specularFactor":0
				},
				"KHR_materials_ior":{
					"ior":1.4500000476837158
				}
			},
			"name":"MI_Trim_01",
			"pbrMetallicRoughness":{
				"baseColorFactor":[
					0.800000011920929,
					0.800000011920929,
					0.800000011920929,
					1
				],
				"metallicFactor":0,
				"roughnessFactor":0.5
			}
		},
		{
			"doubleSided":true,
			"name":"MI_Trim_03_Dark",
			"pbrMetallicRoughness":{
				"baseColorFactor":[
					0.800000011920929,
					0.800000011920929,
					0.800000011920929,
					1
				],
				"metallicFactor":0,
				"roughnessFactor":0.5
			}
		},
		{
			"doubleSided":true,
			"name":"MI_Trim_02",
			"pbrMetallicRoughness":{
				"baseColorFactor":[
					0.800000011920929,
					0.800000011920929,
					0.800000011920929,
					1
				],
				"metallicFactor":0,
				"roughnessFactor":0.5
			}
		}
	],
	"meshes":[
		{
			"name":"Cube.038",
			"primitives":[
				{
					"attributes":{
						"POSITION":0,
						"NORMAL":1,
						"TEXCOORD_0":2
					},
					"indices":3,
					"material":0
				},
				{
					"attributes":{
						"POSITION":4,
						"NORMAL":5,
						"TEXCOORD_0":6
					},
					"indices":7,
					"material":1
				},
				{
					"attributes":{
						"POSITION":8,
						"NORMAL":9,
						"TEXCOORD_0":10
					},
					"indices":11,
					"material":2
				},
				{
					"attributes":{
						"POSITION":12,
						"NORMAL":13,
						"TEXCOORD_0":14
					},
					"indices":15,
					"material":3
				}
			]
		},
		{
			"name":"Cube.079",
			"primitives":[
				{
					"attributes":{
						"POSITION":16,
						"NORMAL":17,
						"TEXCOORD_0":18
					},
					"indices":19
				}
			]
		},
		{
			"name":"Cube.077",
			"primitives":[
				{
					"attributes":{
						"POSITION":20,
						"NORMAL":21,
						"TEXCOORD_0":22
					},
					"indices":23
				}
			]
		},
		{
			"name":"Cube.078",
			"primitives":[
				{
					"attributes":{
						"POSITION":24,
						"NORMAL":25,
						"TEXCOORD_0":26
					},
					"indices":27
				}
			]
		}
	],
	"accessors":[
		{
			"bufferView":0,
			"componentType":5126,
			"count":9,
			"max":[
				0.3248805105686188,
				-0.003150014206767082,
				5.706658363342285
			],
			"min":[
				-0.3248805105686188,
				-0.003150014206767082,
				5.306655406951904
			],
			"type":"VEC3"
		},
		{
			"bufferView":1,
			"componentType":5126,
			"count":9,
			"type":"VEC3"
		},
		{
			"bufferView":2,
			"componentType":5126,
			"count":9,
			"type":"VEC2"
		},
		{
			"bufferView":3,
			"componentType":5123,
			"count":24,
			"type":"SCALAR"
		},
		{
			"bufferView":4,
			"componentType":5126,
			"count":422,
			"max":[
				0.7693601846694946,
				9.954154968261719,
				5.706658363342285
			],
			"min":[
				-0.7693601846694946,
				-0.003150014206767082,
				-0.03125476837158203
			],
			"type":"VEC3"
		},
		{
			"bufferView":5,
			"componentType":5126,
			"count":422,
			"type":"VEC3"
		},
		{
			"bufferView":6,
			"componentType":5126,
			"count":422,
			"type":"VEC2"
		},
		{
			"bufferView":7,
			"componentType":5123,
			"count":1128,
			"type":"SCALAR"
		},
		{
			"bufferView":8,
			"componentType":5126,
			"count":287,
			"max":[
				0.7656645178794861,
				9.954741477966309,
				5.447216987609863
			],
			"min":[
				-0.7656645178794861,
				-0.0031500160694122314,
				0.16593456268310547
			],
			"type":"VEC3"
		},
		{
			"bufferView":9,
			"componentType":5126,
			"count":287,
			"type":"VEC3"
		},
		{
			"bufferView":10,
			"componentType":5126,
			"count":287,
			"type":"VEC2"
		},
		{
			"bufferView":11,
			"componentType":5123,
			"count":864,
			"type":"SCALAR"
		},
		{
			"bufferView":12,
			"componentType":5126,
			"count":132,
			"max":[
				0.48536109924316406,
				8.214872360229492,
				4.222834587097168
			],
			"min":[
				-0.48536109924316406,
				1.5862165689468384,
				0.4080536365509033
			],
			"type":"VEC3"
		},
		{
			"bufferView":13,
			"componentType":5126,
			"count":132,
			"type":"VEC3"
		},
		{
			"bufferView":14,
			"componentType":5126,
			"count":132,
			"type":"VEC2"
		},
		{
			"bufferView":15,
			"componentType":5123,
			"count":480,
			"type":"SCALAR"
		},
		{
			"bufferView":16,
			"componentType":5126,
			"count":36,
			"max":[
				0.8184726238250732,
				9.993755340576172,
				1.5101275444030762
			],
			"min":[
				-0.8184726238250732,
				6.390530109405518,
				-0.07382345199584961
			],
			"type":"VEC3"
		},
		{
			"bufferView":17,
			"componentType":5126,
			"count":36,
			"type":"VEC3"
		},
		{
			"bufferView":18,
			"componentType":5126,
			"count":36,
			"type":"VEC2"
		},
		{
			"bufferView":19,
			"componentType":5123,
			"count":60,
			"type":"SCALAR"
		},
		{
			"bufferView":20,
			"componentType":5126,
			"count":24,
			"max":[
				0.3374576270580292,
				0.7678770422935486,
				5.7217254638671875
			],
			"min":[
				-0.3374576270580292,
				-0.007608965039253235,
				5.030674934387207
			],
			"type":"VEC3"
		},
		{
			"bufferView":21,
			"componentType":5126,
			"count":24,
			"type":"VEC3"
		},
		{
			"bufferView":22,
			"componentType":5126,
			"count":24,
			"type":"VEC2"
		},
		{
			"bufferView":23,
			"componentType":5123,
			"count":36,
			"type":"SCALAR"
		},
		{
			"bufferView":24,
			"componentType":5126,
			"count":38,
			"max":[
				0.7326997518539429,
				9.013612747192383,
				5.438802242279053
			],
			"min":[
				-0.7326997518539429,
				0.0002767543192021549,
				0.028310298919677734
			],
			"type":"VEC3"
		},
		{
			"bufferView":25,
			"componentType":5126,
			"count":38,
			"type":"VEC3"
		},
		{
			"bufferView":26,
			"componentType":5126,
			"count":38,
			"type":"VEC2"
		},
		{
			"bufferView":27,
			"componentType":5123,
			"count":60,
			"type":"SCALAR"
		}
	],
	"bufferViews":[
		{
			"buffer":0,
			"byteLength":108,
			"byteOffset":0,
			"target":34962
		},
		{
			"buffer":0,
			"byteLength":108,
			"byteOffset":108,
			"target":34962
		},
		{
			"buffer":0,
			"byteLength":72,
			"byteOffset":216,
			"target":34962
		},
		{
			"buffer":0,
			"byteLength":48,
			"byteOffset":288,
			"target":34963
		},
		{
			"buffer":0,
			"byteLength":5064,
			"byteOffset":336,
			"target":34962
		},
		{
			"buffer":0,
			"byteLength":5064,
			"byteOffset":5400,
			"target":34962
		},
		{
			"buffer":0,
			"byteLength":3376,
			"byteOffset":10464,
			"target":34962
		},
		{
			"buffer":0,
			"byteLength":2256,
			"byteOffset":13840,
			"target":34963
		},
		{
			"buffer":0,
			"byteLength":3444,
			"byteOffset":16096,
			"target":34962
		},
		{
			"buffer":0,
			"byteLength":3444,
			"byteOffset":19540,
			"target":34962
		},
		{
			"buffer":0,
			"byteLength":2296,
			"byteOffset":22984,
			"target":34962
		},
		{
			"buffer":0,
			"byteLength":1728,
			"byteOffset":25280,
			"target":34963
		},
		{
			"buffer":0,
			"byteLength":1584,
			"byteOffset":27008,
			"target":34962
		},
		{
			"buffer":0,
			"byteLength":1584,
			"byteOffset":28592,
			"target":34962
		},
		{
			"buffer":0,
			"byteLength":1056,
			"byteOffset":30176,
			"target":34962
		},
		{
			"buffer":0,
			"byteLength":960,
			"byteOffset":31232,
			"target":34963
		},
		{
			"buffer":0,
			"byteLength":432,
			"byteOffset":32192,
			"target":34962
		},
		{
			"buffer":0,
			"byteLength":432,
			"byteOffset":32624,
			"target":34962
		},
		{
			"buffer":0,
			"byteLength":288,
			"byteOffset":33056,
			"target":34962
		},
		{
			"buffer":0,
			"byteLength":120,
			"byteOffset":33344,
			"target":34963
		},
		{
			"buffer":0,
			"byteLength":288,
			"byteOffset":33464,
			"target":34962
		},
		{
			"buffer":0,
			"byteLength":288,
			"byteOffset":33752,
			"target":34962
		},
		{
			"buffer":0,
			"byteLength":192,
			"byteOffset":34040,
			"target":34962
		},
		{
			"buffer":0,
			"byteLength":72,
			"byteOffset":34232,
			"target":34963
		},
		{
			"buffer":0,
			"byteLength":456,
			"byteOffset":34304,
			"target":34962
		},
		{
			"buffer":0,
			"byteLength":456,
			"byteOffset":34760,
			"target":34962
		},
		{
			"buffer":0,
			"byteLength":304,
			"byteOffset":35216,
			"target":34962
		},
		{
			"buffer":0,
			"byteLength":120,
			"byteOffset":35520,
			"target":34963
		}
	],
	"buffers":[
		{
			"byteLength":35640,
			"uri":"Column_Large3.bin"
		}
	]
}
