{
	"asset":{
		"generator":"Khronos glTF Blender I/O v4.0.44",
		"version":"2.0"
	},
	"extensionsUsed":[
		"KHR_materials_specular",
		"KHR_materials_ior"
	],
	"scene":0,
	"scenes":[
		{
			"name":"Scene",
			"nodes":[
				0,
				1
			]
		}
	],
	"nodes":[
		{
			"mesh":0,
			"name":"Column_Astra"
		},
		{
			"mesh":1,
			"name":"Column_Astra_1_convcolonly"
		}
	],
	"materials":[
		{
			"doubleSided":true,
			"name":"MI_Trim_03",
			"pbrMetallicRoughness":{
				"baseColorFactor":[
					0.800000011920929,
					0.800000011920929,
					0.800000011920929,
					1
				],
				"metallicFactor":0,
				"roughnessFactor":0.5
			}
		},
		{
			"doubleSided":true,
			"name":"MI_Trim_02",
			"pbrMetallicRoughness":{
				"baseColorFactor":[
					0.800000011920929,
					0.800000011920929,
					0.800000011920929,
					1
				],
				"metallicFactor":0,
				"roughnessFactor":0.5
			}
		},
		{
			"doubleSided":true,
			"extensions":{
				"KHR_materials_specular":{
					"specularFactor":0
				},
				"KHR_materials_ior":{
					"ior":1.4500000476837158
				}
			},
			"name":"MI_Trim_01",
			"pbrMetallicRoughness":{
				"baseColorFactor":[
					0.800000011920929,
					0.800000011920929,
					0.800000011920929,
					1
				],
				"metallicFactor":0,
				"roughnessFactor":0.5
			}
		}
	],
	"meshes":[
		{
			"name":"Plane.108",
			"primitives":[
				{
					"attributes":{
						"POSITION":0,
						"NORMAL":1,
						"TEXCOORD_0":2
					},
					"indices":3,
					"material":0
				},
				{
					"attributes":{
						"POSITION":4,
						"NORMAL":5,
						"TEXCOORD_0":6
					},
					"indices":7,
					"material":1
				},
				{
					"attributes":{
						"POSITION":8,
						"NORMAL":9,
						"TEXCOORD_0":10
					},
					"indices":11,
					"material":2
				}
			]
		},
		{
			"name":"Cube.452",
			"primitives":[
				{
					"attributes":{
						"POSITION":12,
						"NORMAL":13,
						"TEXCOORD_0":14
					},
					"indices":15
				}
			]
		}
	],
	"accessors":[
		{
			"bufferView":0,
			"componentType":5126,
			"count":78,
			"max":[
				0.1638854742050171,
				3.021496057510376,
				0.3328913450241089
			],
			"min":[
				-0.1638854593038559,
				0.19871610403060913,
				-0.8398617506027222
			],
			"type":"VEC3"
		},
		{
			"bufferView":1,
			"componentType":5126,
			"count":78,
			"type":"VEC3"
		},
		{
			"bufferView":2,
			"componentType":5126,
			"count":78,
			"type":"VEC2"
		},
		{
			"bufferView":3,
			"componentType":5123,
			"count":249,
			"type":"SCALAR"
		},
		{
			"bufferView":4,
			"componentType":5126,
			"count":38,
			"max":[
				0.1401015967130661,
				0.31367969512939453,
				0.33474111557006836
			],
			"min":[
				-0.1401015967130661,
				-0.006465137004852295,
				-0.3265289068222046
			],
			"type":"VEC3"
		},
		{
			"bufferView":5,
			"componentType":5126,
			"count":38,
			"type":"VEC3"
		},
		{
			"bufferView":6,
			"componentType":5126,
			"count":38,
			"type":"VEC2"
		},
		{
			"bufferView":7,
			"componentType":5123,
			"count":132,
			"type":"SCALAR"
		},
		{
			"bufferView":8,
			"componentType":5126,
			"count":26,
			"max":[
				0.07137904316186905,
				0.08160063624382019,
				0.3694068193435669
			],
			"min":[
				-0.07137907296419144,
				0.006236732006072998,
				0.32071971893310547
			],
			"type":"VEC3"
		},
		{
			"bufferView":9,
			"componentType":5126,
			"count":26,
			"type":"VEC3"
		},
		{
			"bufferView":10,
			"componentType":5126,
			"count":26,
			"type":"VEC2"
		},
		{
			"bufferView":11,
			"componentType":5123,
			"count":48,
			"type":"SCALAR"
		},
		{
			"bufferView":12,
			"componentType":5126,
			"count":24,
			"max":[
				0.1884220540523529,
				3.0081684589385986,
				0.3999999761581421
			],
			"min":[
				-0.1884220540523529,
				0,
				-0.8729007840156555
			],
			"type":"VEC3"
		},
		{
			"bufferView":13,
			"componentType":5126,
			"count":24,
			"type":"VEC3"
		},
		{
			"bufferView":14,
			"componentType":5126,
			"count":24,
			"type":"VEC2"
		},
		{
			"bufferView":15,
			"componentType":5123,
			"count":36,
			"type":"SCALAR"
		}
	],
	"bufferViews":[
		{
			"buffer":0,
			"byteLength":936,
			"byteOffset":0,
			"target":34962
		},
		{
			"buffer":0,
			"byteLength":936,
			"byteOffset":936,
			"target":34962
		},
		{
			"buffer":0,
			"byteLength":624,
			"byteOffset":1872,
			"target":34962
		},
		{
			"buffer":0,
			"byteLength":498,
			"byteOffset":2496,
			"target":34963
		},
		{
			"buffer":0,
			"byteLength":456,
			"byteOffset":2996,
			"target":34962
		},
		{
			"buffer":0,
			"byteLength":456,
			"byteOffset":3452,
			"target":34962
		},
		{
			"buffer":0,
			"byteLength":304,
			"byteOffset":3908,
			"target":34962
		},
		{
			"buffer":0,
			"byteLength":264,
			"byteOffset":4212,
			"target":34963
		},
		{
			"buffer":0,
			"byteLength":312,
			"byteOffset":4476,
			"target":34962
		},
		{
			"buffer":0,
			"byteLength":312,
			"byteOffset":4788,
			"target":34962
		},
		{
			"buffer":0,
			"byteLength":208,
			"byteOffset":5100,
			"target":34962
		},
		{
			"buffer":0,
			"byteLength":96,
			"byteOffset":5308,
			"target":34963
		},
		{
			"buffer":0,
			"byteLength":288,
			"byteOffset":5404,
			"target":34962
		},
		{
			"buffer":0,
			"byteLength":288,
			"byteOffset":5692,
			"target":34962
		},
		{
			"buffer":0,
			"byteLength":192,
			"byteOffset":5980,
			"target":34962
		},
		{
			"buffer":0,
			"byteLength":72,
			"byteOffset":6172,
			"target":34963
		}
	],
	"buffers":[
		{
			"byteLength":6244,
			"uri":"Column_Astra.bin"
		}
	]
}
