{
	"asset":{
		"generator":"Khronos glTF Blender I/O v4.0.44",
		"version":"2.0"
	},
	"scene":0,
	"scenes":[
		{
			"name":"Scene",
			"nodes":[
				0,
				1
			]
		}
	],
	"nodes":[
		{
			"mesh":0,
			"name":"BottomSimple_Corner_Square_Outer_2"
		},
		{
			"mesh":1,
			"name":"BottomSimple_Corner_Square_Outer_2_1_convcolonly"
		}
	],
	"materials":[
		{
			"doubleSided":true,
			"name":"MI_Trim_03_Dark",
			"normalTexture":{
				"index":0
			},
			"pbrMetallicRoughness":{
				"baseColorTexture":{
					"index":1
				},
				"metallicRoughnessTexture":{
					"index":2
				}
			}
		}
	],
	"meshes":[
		{
			"name":"Plane.199",
			"primitives":[
				{
					"attributes":{
						"POSITION":0,
						"NORMAL":1,
						"TEXCOORD_0":2
					},
					"indices":3,
					"material":0
				}
			]
		},
		{
			"name":"Plane.207",
			"primitives":[
				{
					"attributes":{
						"POSITION":4,
						"NORMAL":5,
						"TEXCOORD_0":6
					},
					"indices":7,
					"material":0
				}
			]
		}
	],
	"textures":[
		{
			"sampler":0,
			"source":0
		},
		{
			"sampler":0,
			"source":1
		},
		{
			"sampler":0,
			"source":2
		}
	],
	"images":[
		{
			"mimeType":"image/png",
			"name":"T_Trim_03_Normal",
			"uri":"T_Trim_03_Normal.png"
		},
		{
			"mimeType":"image/png",
			"name":"T_Trim_03_Cables",
			"uri":"T_Trim_03_Cables.png"
		},
		{
			"mimeType":"image/png",
			"name":"T_Trim_03_ORM",
			"uri":"T_Trim_03_ORM.png"
		}
	],
	"accessors":[
		{
			"bufferView":0,
			"componentType":5126,
			"count":13,
			"max":[
				-4.000000953674316,
				0.02000032551586628,
				-3.9999983310699463
			],
			"min":[
				-4.600000858306885,
				2.514569814593415e-07,
				-4.599998474121094
			],
			"type":"VEC3"
		},
		{
			"bufferView":1,
			"componentType":5126,
			"count":13,
			"type":"VEC3"
		},
		{
			"bufferView":2,
			"componentType":5126,
			"count":13,
			"type":"VEC2"
		},
		{
			"bufferView":3,
			"componentType":5123,
			"count":30,
			"type":"SCALAR"
		},
		{
			"bufferView":4,
			"componentType":5126,
			"count":24,
			"max":[
				-4.000000476837158,
				0.02000032551586628,
				-4
			],
			"min":[
				-4.599999904632568,
				3.2584142672931193e-07,
				-4.599999904632568
			],
			"type":"VEC3"
		},
		{
			"bufferView":5,
			"componentType":5126,
			"count":24,
			"type":"VEC3"
		},
		{
			"bufferView":6,
			"componentType":5126,
			"count":24,
			"type":"VEC2"
		},
		{
			"bufferView":7,
			"componentType":5123,
			"count":36,
			"type":"SCALAR"
		}
	],
	"bufferViews":[
		{
			"buffer":0,
			"byteLength":156,
			"byteOffset":0,
			"target":34962
		},
		{
			"buffer":0,
			"byteLength":156,
			"byteOffset":156,
			"target":34962
		},
		{
			"buffer":0,
			"byteLength":104,
			"byteOffset":312,
			"target":34962
		},
		{
			"buffer":0,
			"byteLength":60,
			"byteOffset":416,
			"target":34963
		},
		{
			"buffer":0,
			"byteLength":288,
			"byteOffset":476,
			"target":34962
		},
		{
			"buffer":0,
			"byteLength":288,
			"byteOffset":764,
			"target":34962
		},
		{
			"buffer":0,
			"byteLength":192,
			"byteOffset":1052,
			"target":34962
		},
		{
			"buffer":0,
			"byteLength":72,
			"byteOffset":1244,
			"target":34963
		}
	],
	"samplers":[
		{
			"magFilter":9729,
			"minFilter":9987
		}
	],
	"buffers":[
		{
			"byteLength":1316,
			"uri":"BottomSimple_Corner_Square_Outer_2.bin"
		}
	]
}
