{
	"asset":{
		"generator":"Khronos glTF Blender I/O v4.0.44",
		"version":"2.0"
	},
	"extensionsUsed":[
		"KHR_materials_specular",
		"KHR_materials_ior"
	],
	"scene":0,
	"scenes":[
		{
			"name":"Scene",
			"nodes":[
				0,
				1,
				2,
				3,
				4,
				5,
				6,
				7,
				8,
				9,
				10
			]
		}
	],
	"nodes":[
		{
			"mesh":0,
			"name":"BottomAccent_Corner_Round_Outer"
		},
		{
			"mesh":1,
			"name":"BottomAccent_Corner_Round_Outer_01_convcolonly"
		},
		{
			"mesh":2,
			"name":"BottomAccent_Corner_Round_Outer_02_convcolonly"
		},
		{
			"mesh":3,
			"name":"BottomAccent_Corner_Round_Outer_03_convcolonly"
		},
		{
			"mesh":4,
			"name":"BottomAccent_Corner_Round_Outer_04_convcolonly"
		},
		{
			"mesh":5,
			"name":"BottomAccent_Corner_Round_Outer_05_convcolonly"
		},
		{
			"mesh":6,
			"name":"BottomAccent_Corner_Round_Outer_06_convcolonly"
		},
		{
			"mesh":7,
			"name":"BottomAccent_Corner_Round_Outer_07_convcolonly"
		},
		{
			"mesh":8,
			"name":"BottomAccent_Corner_Round_Outer_08_convcolonly"
		},
		{
			"mesh":9,
			"name":"BottomAccent_Corner_Round_Outer_09_convcolonly"
		},
		{
			"mesh":10,
			"name":"BottomAccent_Corner_Round_Outer_10_convcolonly"
		}
	],
	"materials":[
		{
			"doubleSided":true,
			"name":"MI_Trim_02",
			"normalTexture":{
				"index":0
			},
			"pbrMetallicRoughness":{
				"baseColorTexture":{
					"index":1
				},
				"metallicRoughnessTexture":{
					"index":2
				}
			}
		},
		{
			"doubleSided":true,
			"extensions":{
				"KHR_materials_specular":{
					"specularFactor":0
				},
				"KHR_materials_ior":{
					"ior":1.4500000476837158
				}
			},
			"name":"MI_Trim_01",
			"normalTexture":{
				"index":3
			},
			"pbrMetallicRoughness":{
				"baseColorTexture":{
					"index":4
				},
				"metallicRoughnessTexture":{
					"index":5
				}
			}
		},
		{
			"doubleSided":true,
			"name":"MI_Trim_03_Dark",
			"normalTexture":{
				"index":6
			},
			"pbrMetallicRoughness":{
				"baseColorTexture":{
					"index":7
				},
				"metallicRoughnessTexture":{
					"index":8
				}
			}
		}
	],
	"meshes":[
		{
			"name":"Plane.064",
			"primitives":[
				{
					"attributes":{
						"POSITION":0,
						"NORMAL":1,
						"TEXCOORD_0":2
					},
					"indices":3,
					"material":0
				},
				{
					"attributes":{
						"POSITION":4,
						"NORMAL":5,
						"TEXCOORD_0":6
					},
					"indices":7,
					"material":1
				}
			]
		},
		{
			"name":"Plane.179",
			"primitives":[
				{
					"attributes":{
						"POSITION":8,
						"NORMAL":9,
						"TEXCOORD_0":10
					},
					"indices":11,
					"material":2
				}
			]
		},
		{
			"name":"Plane.186",
			"primitives":[
				{
					"attributes":{
						"POSITION":12,
						"NORMAL":13,
						"TEXCOORD_0":14
					},
					"indices":15,
					"material":2
				}
			]
		},
		{
			"name":"Plane.187",
			"primitives":[
				{
					"attributes":{
						"POSITION":16,
						"NORMAL":17,
						"TEXCOORD_0":18
					},
					"indices":19,
					"material":2
				}
			]
		},
		{
			"name":"Plane.188",
			"primitives":[
				{
					"attributes":{
						"POSITION":20,
						"NORMAL":21,
						"TEXCOORD_0":22
					},
					"indices":19,
					"material":2
				}
			]
		},
		{
			"name":"Plane.189",
			"primitives":[
				{
					"attributes":{
						"POSITION":23,
						"NORMAL":24,
						"TEXCOORD_0":25
					},
					"indices":19,
					"material":2
				}
			]
		},
		{
			"name":"Plane.196",
			"primitives":[
				{
					"attributes":{
						"POSITION":26,
						"NORMAL":27,
						"TEXCOORD_0":28
					},
					"indices":29,
					"material":2
				}
			]
		},
		{
			"name":"Plane.197",
			"primitives":[
				{
					"attributes":{
						"POSITION":30,
						"NORMAL":31,
						"TEXCOORD_0":32
					},
					"indices":15,
					"material":2
				}
			]
		},
		{
			"name":"Plane.200",
			"primitives":[
				{
					"attributes":{
						"POSITION":33,
						"NORMAL":34,
						"TEXCOORD_0":35
					},
					"indices":15,
					"material":2
				}
			]
		},
		{
			"name":"Plane.201",
			"primitives":[
				{
					"attributes":{
						"POSITION":36,
						"NORMAL":37,
						"TEXCOORD_0":38
					},
					"indices":19,
					"material":2
				}
			]
		},
		{
			"name":"Plane.202",
			"primitives":[
				{
					"attributes":{
						"POSITION":39,
						"NORMAL":40,
						"TEXCOORD_0":41
					},
					"indices":19,
					"material":2
				}
			]
		}
	],
	"textures":[
		{
			"sampler":0,
			"source":0
		},
		{
			"sampler":0,
			"source":1
		},
		{
			"sampler":0,
			"source":2
		},
		{
			"sampler":0,
			"source":3
		},
		{
			"sampler":0,
			"source":4
		},
		{
			"sampler":0,
			"source":5
		},
		{
			"sampler":0,
			"source":6
		},
		{
			"sampler":0,
			"source":7
		},
		{
			"sampler":0,
			"source":8
		}
	],
	"images":[
		{
			"mimeType":"image/png",
			"name":"T_Trim_02_Normal",
			"uri":"T_Trim_02_Normal.png"
		},
		{
			"mimeType":"image/png",
			"name":"T_Trim_02_BaseColor_Red",
			"uri":"T_Trim_02_BaseColor_Red.png"
		},
		{
			"mimeType":"image/png",
			"name":"T_Trim_02_ORM",
			"uri":"T_Trim_02_ORM.png"
		},
		{
			"mimeType":"image/png",
			"name":"T_Trim_01_Normal",
			"uri":"T_Trim_01_Normal.png"
		},
		{
			"mimeType":"image/png",
			"name":"T_Trim_01_BaseColor_Red",
			"uri":"T_Trim_01_BaseColor_Red.png"
		},
		{
			"mimeType":"image/png",
			"name":"T_Trim_01_ORM",
			"uri":"T_Trim_01_ORM.png"
		},
		{
			"mimeType":"image/png",
			"name":"T_Trim_03_Normal",
			"uri":"T_Trim_03_Normal.png"
		},
		{
			"mimeType":"image/png",
			"name":"T_Trim_03_Cables",
			"uri":"T_Trim_03_Cables.png"
		},
		{
			"mimeType":"image/png",
			"name":"T_Trim_03_ORM",
			"uri":"T_Trim_03_ORM.png"
		}
	],
	"accessors":[
		{
			"bufferView":0,
			"componentType":5126,
			"count":108,
			"max":[
				2.753304215730168e-07,
				0.020000457763671875,
				-1.890683051897213e-05
			],
			"min":[
				-4.600003242492676,
				-8.344650268554688e-07,
				-4.600000381469727
			],
			"type":"VEC3"
		},
		{
			"bufferView":1,
			"componentType":5126,
			"count":108,
			"type":"VEC3"
		},
		{
			"bufferView":2,
			"componentType":5126,
			"count":108,
			"type":"VEC2"
		},
		{
			"bufferView":3,
			"componentType":5123,
			"count":288,
			"type":"SCALAR"
		},
		{
			"bufferView":4,
			"componentType":5126,
			"count":70,
			"max":[
				2.753304215730168e-07,
				0.020000457763671875,
				-1.890683051897213e-05
			],
			"min":[
				-4.600003242492676,
				0.019998662173748016,
				-4.600000381469727
			],
			"type":"VEC3"
		},
		{
			"bufferView":5,
			"componentType":5126,
			"count":70,
			"type":"VEC3"
		},
		{
			"bufferView":6,
			"componentType":5126,
			"count":70,
			"type":"VEC2"
		},
		{
			"bufferView":7,
			"componentType":5123,
			"count":192,
			"type":"SCALAR"
		},
		{
			"bufferView":8,
			"componentType":5126,
			"count":24,
			"max":[
				-3.755997657775879,
				0.019999265670776367,
				-0.6178246736526489
			],
			"min":[
				-4.543366432189941,
				-7.152405601118517e-07,
				-1.421500563621521
			],
			"type":"VEC3"
		},
		{
			"bufferView":9,
			"componentType":5126,
			"count":24,
			"type":"VEC3"
		},
		{
			"bufferView":10,
			"componentType":5126,
			"count":24,
			"type":"VEC2"
		},
		{
			"bufferView":11,
			"componentType":5123,
			"count":36,
			"type":"SCALAR"
		},
		{
			"bufferView":12,
			"componentType":5126,
			"count":24,
			"max":[
				-3.1950366497039795,
				0.019999265670776367,
				-1.7929596900939941
			],
			"min":[
				-4.098623275756836,
				-7.152405601118517e-07,
				-2.7038326263427734
			],
			"type":"VEC3"
		},
		{
			"bufferView":13,
			"componentType":5126,
			"count":24,
			"type":"VEC3"
		},
		{
			"bufferView":14,
			"componentType":5126,
			"count":24,
			"type":"VEC2"
		},
		{
			"bufferView":15,
			"componentType":5123,
			"count":36,
			"type":"SCALAR"
		},
		{
			"bufferView":16,
			"componentType":5126,
			"count":24,
			"max":[
				-2.3213229179382324,
				0.019999265670776367,
				-2.7925875186920166
			],
			"min":[
				-3.252678155899048,
				-7.152405601118517e-07,
				-3.721494674682617
			],
			"type":"VEC3"
		},
		{
			"bufferView":17,
			"componentType":5126,
			"count":24,
			"type":"VEC3"
		},
		{
			"bufferView":18,
			"componentType":5126,
			"count":24,
			"type":"VEC2"
		},
		{
			"bufferView":19,
			"componentType":5123,
			"count":36,
			"type":"SCALAR"
		},
		{
			"bufferView":20,
			"componentType":5126,
			"count":24,
			"max":[
				-1.2203818559646606,
				0.019999265670776367,
				-3.51885724067688
			],
			"min":[
				-2.0883381366729736,
				-7.152405601118517e-07,
				-4.374871730804443
			],
			"type":"VEC3"
		},
		{
			"bufferView":21,
			"componentType":5126,
			"count":24,
			"type":"VEC3"
		},
		{
			"bufferView":22,
			"componentType":5126,
			"count":24,
			"type":"VEC2"
		},
		{
			"bufferView":23,
			"componentType":5126,
			"count":24,
			"max":[
				2.294778823852539e-05,
				0.019999265670776367,
				-3.90067720413208
			],
			"min":[
				-0.7195767760276794,
				-7.152405601118517e-07,
				-4.600005149841309
			],
			"type":"VEC3"
		},
		{
			"bufferView":24,
			"componentType":5126,
			"count":24,
			"type":"VEC3"
		},
		{
			"bufferView":25,
			"componentType":5126,
			"count":24,
			"type":"VEC2"
		},
		{
			"bufferView":26,
			"componentType":5126,
			"count":24,
			"max":[
				-3.9006705284118652,
				0.019999265670776367,
				-1.890683051897213e-05
			],
			"min":[
				-4.600003242492676,
				-7.152405601118517e-07,
				-0.7196211218833923
			],
			"type":"VEC3"
		},
		{
			"bufferView":27,
			"componentType":5126,
			"count":24,
			"type":"VEC3"
		},
		{
			"bufferView":28,
			"componentType":5126,
			"count":24,
			"type":"VEC2"
		},
		{
			"bufferView":29,
			"componentType":5123,
			"count":36,
			"type":"SCALAR"
		},
		{
			"bufferView":30,
			"componentType":5126,
			"count":24,
			"max":[
				-3.5188398361206055,
				0.019999265670776367,
				-1.2204174995422363
			],
			"min":[
				-4.374856472015381,
				-7.152405601118517e-07,
				-2.0883779525756836
			],
			"type":"VEC3"
		},
		{
			"bufferView":31,
			"componentType":5126,
			"count":24,
			"type":"VEC3"
		},
		{
			"bufferView":32,
			"componentType":5126,
			"count":24,
			"type":"VEC2"
		},
		{
			"bufferView":33,
			"componentType":5126,
			"count":24,
			"max":[
				-2.7925608158111572,
				0.019999265670776367,
				-2.3213534355163574
			],
			"min":[
				-3.721468210220337,
				-7.152405601118517e-07,
				-3.2527098655700684
			],
			"type":"VEC3"
		},
		{
			"bufferView":34,
			"componentType":5126,
			"count":24,
			"type":"VEC3"
		},
		{
			"bufferView":35,
			"componentType":5126,
			"count":24,
			"type":"VEC2"
		},
		{
			"bufferView":36,
			"componentType":5126,
			"count":24,
			"max":[
				-1.79292631149292,
				0.019999265670776367,
				-3.195058822631836
			],
			"min":[
				-2.70379638671875,
				-7.152405601118517e-07,
				-4.098644256591797
			],
			"type":"VEC3"
		},
		{
			"bufferView":37,
			"componentType":5126,
			"count":24,
			"type":"VEC3"
		},
		{
			"bufferView":38,
			"componentType":5126,
			"count":24,
			"type":"VEC2"
		},
		{
			"bufferView":39,
			"componentType":5126,
			"count":24,
			"max":[
				-0.6177874803543091,
				0.019999265670776367,
				-3.756010055541992
			],
			"min":[
				-1.4214580059051514,
				-7.152405601118517e-07,
				-4.543375015258789
			],
			"type":"VEC3"
		},
		{
			"bufferView":40,
			"componentType":5126,
			"count":24,
			"type":"VEC3"
		},
		{
			"bufferView":41,
			"componentType":5126,
			"count":24,
			"type":"VEC2"
		}
	],
	"bufferViews":[
		{
			"buffer":0,
			"byteLength":1296,
			"byteOffset":0,
			"target":34962
		},
		{
			"buffer":0,
			"byteLength":1296,
			"byteOffset":1296,
			"target":34962
		},
		{
			"buffer":0,
			"byteLength":864,
			"byteOffset":2592,
			"target":34962
		},
		{
			"buffer":0,
			"byteLength":576,
			"byteOffset":3456,
			"target":34963
		},
		{
			"buffer":0,
			"byteLength":840,
			"byteOffset":4032,
			"target":34962
		},
		{
			"buffer":0,
			"byteLength":840,
			"byteOffset":4872,
			"target":34962
		},
		{
			"buffer":0,
			"byteLength":560,
			"byteOffset":5712,
			"target":34962
		},
		{
			"buffer":0,
			"byteLength":384,
			"byteOffset":6272,
			"target":34963
		},
		{
			"buffer":0,
			"byteLength":288,
			"byteOffset":6656,
			"target":34962
		},
		{
			"buffer":0,
			"byteLength":288,
			"byteOffset":6944,
			"target":34962
		},
		{
			"buffer":0,
			"byteLength":192,
			"byteOffset":7232,
			"target":34962
		},
		{
			"buffer":0,
			"byteLength":72,
			"byteOffset":7424,
			"target":34963
		},
		{
			"buffer":0,
			"byteLength":288,
			"byteOffset":7496,
			"target":34962
		},
		{
			"buffer":0,
			"byteLength":288,
			"byteOffset":7784,
			"target":34962
		},
		{
			"buffer":0,
			"byteLength":192,
			"byteOffset":8072,
			"target":34962
		},
		{
			"buffer":0,
			"byteLength":72,
			"byteOffset":8264,
			"target":34963
		},
		{
			"buffer":0,
			"byteLength":288,
			"byteOffset":8336,
			"target":34962
		},
		{
			"buffer":0,
			"byteLength":288,
			"byteOffset":8624,
			"target":34962
		},
		{
			"buffer":0,
			"byteLength":192,
			"byteOffset":8912,
			"target":34962
		},
		{
			"buffer":0,
			"byteLength":72,
			"byteOffset":9104,
			"target":34963
		},
		{
			"buffer":0,
			"byteLength":288,
			"byteOffset":9176,
			"target":34962
		},
		{
			"buffer":0,
			"byteLength":288,
			"byteOffset":9464,
			"target":34962
		},
		{
			"buffer":0,
			"byteLength":192,
			"byteOffset":9752,
			"target":34962
		},
		{
			"buffer":0,
			"byteLength":288,
			"byteOffset":9944,
			"target":34962
		},
		{
			"buffer":0,
			"byteLength":288,
			"byteOffset":10232,
			"target":34962
		},
		{
			"buffer":0,
			"byteLength":192,
			"byteOffset":10520,
			"target":34962
		},
		{
			"buffer":0,
			"byteLength":288,
			"byteOffset":10712,
			"target":34962
		},
		{
			"buffer":0,
			"byteLength":288,
			"byteOffset":11000,
			"target":34962
		},
		{
			"buffer":0,
			"byteLength":192,
			"byteOffset":11288,
			"target":34962
		},
		{
			"buffer":0,
			"byteLength":72,
			"byteOffset":11480,
			"target":34963
		},
		{
			"buffer":0,
			"byteLength":288,
			"byteOffset":11552,
			"target":34962
		},
		{
			"buffer":0,
			"byteLength":288,
			"byteOffset":11840,
			"target":34962
		},
		{
			"buffer":0,
			"byteLength":192,
			"byteOffset":12128,
			"target":34962
		},
		{
			"buffer":0,
			"byteLength":288,
			"byteOffset":12320,
			"target":34962
		},
		{
			"buffer":0,
			"byteLength":288,
			"byteOffset":12608,
			"target":34962
		},
		{
			"buffer":0,
			"byteLength":192,
			"byteOffset":12896,
			"target":34962
		},
		{
			"buffer":0,
			"byteLength":288,
			"byteOffset":13088,
			"target":34962
		},
		{
			"buffer":0,
			"byteLength":288,
			"byteOffset":13376,
			"target":34962
		},
		{
			"buffer":0,
			"byteLength":192,
			"byteOffset":13664,
			"target":34962
		},
		{
			"buffer":0,
			"byteLength":288,
			"byteOffset":13856,
			"target":34962
		},
		{
			"buffer":0,
			"byteLength":288,
			"byteOffset":14144,
			"target":34962
		},
		{
			"buffer":0,
			"byteLength":192,
			"byteOffset":14432,
			"target":34962
		}
	],
	"samplers":[
		{
			"magFilter":9729,
			"minFilter":9987
		}
	],
	"buffers":[
		{
			"byteLength":14624,
			"uri":"BottomAccent_Corner_Round_Outer.bin"
		}
	]
}
