{
	"asset":{
		"generator":"Khronos glTF Blender I/O v4.0.44",
		"version":"2.0"
	},
	"scene":0,
	"scenes":[
		{
			"name":"Scene",
			"nodes":[
				0,
				1,
				2
			]
		}
	],
	"nodes":[
		{
			"mesh":0,
			"name":"BottomSimple_Corner_Square_Inner"
		},
		{
			"mesh":1,
			"name":"BottomSimple_Corner_Square_Inner_1_convcolonly"
		},
		{
			"mesh":2,
			"name":"BottomSimple_Corner_Square_Inner_2_convcolonly"
		}
	],
	"materials":[
		{
			"doubleSided":true,
			"name":"MI_Trim_03_Dark",
			"normalTexture":{
				"index":0
			},
			"pbrMetallicRoughness":{
				"baseColorTexture":{
					"index":1
				},
				"metallicRoughnessTexture":{
					"index":2
				}
			}
		}
	],
	"meshes":[
		{
			"name":"Plane.183",
			"primitives":[
				{
					"attributes":{
						"POSITION":0,
						"NORMAL":1,
						"TEXCOORD_0":2
					},
					"indices":3,
					"material":0
				}
			]
		},
		{
			"name":"Plane.203",
			"primitives":[
				{
					"attributes":{
						"POSITION":4,
						"NORMAL":5,
						"TEXCOORD_0":6
					},
					"indices":7,
					"material":0
				}
			]
		},
		{
			"name":"Plane.204",
			"primitives":[
				{
					"attributes":{
						"POSITION":8,
						"NORMAL":9,
						"TEXCOORD_0":10
					},
					"indices":11,
					"material":0
				}
			]
		}
	],
	"textures":[
		{
			"sampler":0,
			"source":0
		},
		{
			"sampler":0,
			"source":1
		},
		{
			"sampler":0,
			"source":2
		}
	],
	"images":[
		{
			"mimeType":"image/png",
			"name":"T_Trim_03_Normal",
			"uri":"T_Trim_03_Normal.png"
		},
		{
			"mimeType":"image/png",
			"name":"T_Trim_03_Cables",
			"uri":"T_Trim_03_Cables.png"
		},
		{
			"mimeType":"image/png",
			"name":"T_Trim_03_ORM",
			"uri":"T_Trim_03_ORM.png"
		}
	],
	"accessors":[
		{
			"bufferView":0,
			"componentType":5126,
			"count":50,
			"max":[
				-3.5762786865234375e-07,
				0.02000032551586628,
				4.7683710135970614e-07
			],
			"min":[
				-4.000000476837158,
				-3.2584125619905535e-07,
				-4
			],
			"type":"VEC3"
		},
		{
			"bufferView":1,
			"componentType":5126,
			"count":50,
			"type":"VEC3"
		},
		{
			"bufferView":2,
			"componentType":5126,
			"count":50,
			"type":"VEC2"
		},
		{
			"bufferView":3,
			"componentType":5123,
			"count":108,
			"type":"SCALAR"
		},
		{
			"bufferView":4,
			"componentType":5126,
			"count":24,
			"max":[
				6.516826260849484e-07,
				0.02000032551586628,
				-3.4000000953674316
			],
			"min":[
				-3.999999761581421,
				3.2584142672931193e-07,
				-3.999999761581421
			],
			"type":"VEC3"
		},
		{
			"bufferView":5,
			"componentType":5126,
			"count":24,
			"type":"VEC3"
		},
		{
			"bufferView":6,
			"componentType":5126,
			"count":24,
			"type":"VEC2"
		},
		{
			"bufferView":7,
			"componentType":5123,
			"count":36,
			"type":"SCALAR"
		},
		{
			"bufferView":8,
			"componentType":5126,
			"count":24,
			"max":[
				-3.4000000953674316,
				0.02000032551586628,
				4.7683710135970614e-07
			],
			"min":[
				-3.999999523162842,
				3.2584142672931193e-07,
				-4
			],
			"type":"VEC3"
		},
		{
			"bufferView":9,
			"componentType":5126,
			"count":24,
			"type":"VEC3"
		},
		{
			"bufferView":10,
			"componentType":5126,
			"count":24,
			"type":"VEC2"
		},
		{
			"bufferView":11,
			"componentType":5123,
			"count":36,
			"type":"SCALAR"
		}
	],
	"bufferViews":[
		{
			"buffer":0,
			"byteLength":600,
			"byteOffset":0,
			"target":34962
		},
		{
			"buffer":0,
			"byteLength":600,
			"byteOffset":600,
			"target":34962
		},
		{
			"buffer":0,
			"byteLength":400,
			"byteOffset":1200,
			"target":34962
		},
		{
			"buffer":0,
			"byteLength":216,
			"byteOffset":1600,
			"target":34963
		},
		{
			"buffer":0,
			"byteLength":288,
			"byteOffset":1816,
			"target":34962
		},
		{
			"buffer":0,
			"byteLength":288,
			"byteOffset":2104,
			"target":34962
		},
		{
			"buffer":0,
			"byteLength":192,
			"byteOffset":2392,
			"target":34962
		},
		{
			"buffer":0,
			"byteLength":72,
			"byteOffset":2584,
			"target":34963
		},
		{
			"buffer":0,
			"byteLength":288,
			"byteOffset":2656,
			"target":34962
		},
		{
			"buffer":0,
			"byteLength":288,
			"byteOffset":2944,
			"target":34962
		},
		{
			"buffer":0,
			"byteLength":192,
			"byteOffset":3232,
			"target":34962
		},
		{
			"buffer":0,
			"byteLength":72,
			"byteOffset":3424,
			"target":34963
		}
	],
	"samplers":[
		{
			"magFilter":9729,
			"minFilter":9987
		}
	],
	"buffers":[
		{
			"byteLength":3496,
			"uri":"BottomSimple_Corner_Square_Inner.bin"
		}
	]
}
