{
	"asset":{
		"generator":"Khronos glTF Blender I/O v4.0.44",
		"version":"2.0"
	},
	"scene":0,
	"scenes":[
		{
			"name":"Scene",
			"nodes":[
				0,
				1,
				2,
				3,
				4,
				5,
				6,
				7,
				8,
				9,
				10
			]
		}
	],
	"nodes":[
		{
			"mesh":0,
			"name":"ShortWall_WhitePlate2_Corner_Outer"
		},
		{
			"mesh":1,
			"name":"ShortWall_WhitePlate2_Corner_Outer_01_convcolonly"
		},
		{
			"mesh":2,
			"name":"ShortWall_WhitePlate2_Corner_Outer_02_convcolonly"
		},
		{
			"mesh":3,
			"name":"ShortWall_WhitePlate2_Corner_Outer_03_convcolonly"
		},
		{
			"mesh":4,
			"name":"ShortWall_WhitePlate2_Corner_Outer_04_convcolonly"
		},
		{
			"mesh":5,
			"name":"ShortWall_WhitePlate2_Corner_Outer_05_convcolonly"
		},
		{
			"mesh":6,
			"name":"ShortWall_WhitePlate2_Corner_Outer_06_convcolonly"
		},
		{
			"mesh":7,
			"name":"ShortWall_WhitePlate2_Corner_Outer_07_convcolonly"
		},
		{
			"mesh":8,
			"name":"ShortWall_WhitePlate2_Corner_Outer_08_convcolonly"
		},
		{
			"mesh":9,
			"name":"ShortWall_WhitePlate2_Corner_Outer_09_convcolonly"
		},
		{
			"mesh":10,
			"name":"ShortWall_WhitePlate2_Corner_Outer_10_convcolonly"
		}
	],
	"materials":[
		{
			"doubleSided":true,
			"name":"MI_Trim_03",
			"normalTexture":{
				"index":0
			},
			"pbrMetallicRoughness":{
				"baseColorTexture":{
					"index":1
				},
				"metallicRoughnessTexture":{
					"index":2
				}
			}
		},
		{
			"doubleSided":true,
			"name":"Collision",
			"pbrMetallicRoughness":{
				"baseColorFactor":[
					0.11006110906600952,
					0.2556236684322357,
					0.8000785112380981,
					1
				],
				"metallicFactor":0,
				"roughnessFactor":0.5
			}
		}
	],
	"meshes":[
		{
			"name":"Plane.274",
			"primitives":[
				{
					"attributes":{
						"POSITION":0,
						"NORMAL":1,
						"TEXCOORD_0":2
					},
					"indices":3,
					"material":0
				}
			]
		},
		{
			"name":"UCX_ShortWall_WhitePlate2_Corner_Outer_01",
			"primitives":[
				{
					"attributes":{
						"POSITION":4,
						"NORMAL":5,
						"TEXCOORD_0":6
					},
					"indices":7,
					"material":1
				}
			]
		},
		{
			"name":"UCX_ShortWall_WhitePlate2_Corner_Outer_02",
			"primitives":[
				{
					"attributes":{
						"POSITION":8,
						"NORMAL":9,
						"TEXCOORD_0":10
					},
					"indices":11,
					"material":1
				}
			]
		},
		{
			"name":"UCX_ShortWall_WhitePlate2_Corner_Outer_03",
			"primitives":[
				{
					"attributes":{
						"POSITION":12,
						"NORMAL":13,
						"TEXCOORD_0":14
					},
					"indices":11,
					"material":1
				}
			]
		},
		{
			"name":"UCX_ShortWall_WhitePlate2_Corner_Outer_04",
			"primitives":[
				{
					"attributes":{
						"POSITION":15,
						"NORMAL":16,
						"TEXCOORD_0":17
					},
					"indices":18,
					"material":1
				}
			]
		},
		{
			"name":"UCX_ShortWall_WhitePlate2_Corner_Outer_05",
			"primitives":[
				{
					"attributes":{
						"POSITION":19,
						"NORMAL":20,
						"TEXCOORD_0":21
					},
					"indices":18,
					"material":1
				}
			]
		},
		{
			"name":"UCX_ShortWall_WhitePlate2_Corner_Outer_06",
			"primitives":[
				{
					"attributes":{
						"POSITION":22,
						"NORMAL":23,
						"TEXCOORD_0":24
					},
					"indices":11,
					"material":1
				}
			]
		},
		{
			"name":"UCX_ShortWall_WhitePlate2_Corner_Outer_07",
			"primitives":[
				{
					"attributes":{
						"POSITION":25,
						"NORMAL":26,
						"TEXCOORD_0":27
					},
					"indices":11,
					"material":1
				}
			]
		},
		{
			"name":"UCX_ShortWall_WhitePlate2_Corner_Outer_08",
			"primitives":[
				{
					"attributes":{
						"POSITION":28,
						"NORMAL":29,
						"TEXCOORD_0":30
					},
					"indices":18,
					"material":1
				}
			]
		},
		{
			"name":"UCX_ShortWall_WhitePlate2_Corner_Outer_09",
			"primitives":[
				{
					"attributes":{
						"POSITION":31,
						"NORMAL":32,
						"TEXCOORD_0":33
					},
					"indices":18,
					"material":1
				}
			]
		},
		{
			"name":"UCX_ShortWall_WhitePlate2_Corner_Outer_10",
			"primitives":[
				{
					"attributes":{
						"POSITION":34,
						"NORMAL":35,
						"TEXCOORD_0":36
					},
					"indices":37,
					"material":1
				}
			]
		}
	],
	"textures":[
		{
			"sampler":0,
			"source":0
		},
		{
			"sampler":0,
			"source":1
		},
		{
			"sampler":0,
			"source":2
		}
	],
	"images":[
		{
			"mimeType":"image/png",
			"name":"T_Trim_03_Normal",
			"uri":"T_Trim_03_Normal.png"
		},
		{
			"mimeType":"image/png",
			"name":"T_Trim_03_BaseColor",
			"uri":"T_Trim_03_BaseColor.png"
		},
		{
			"mimeType":"image/png",
			"name":"T_Trim_03_ORM",
			"uri":"T_Trim_03_ORM.png"
		}
	],
	"accessors":[
		{
			"bufferView":0,
			"componentType":5126,
			"count":52,
			"max":[
				-1.6466672605019994e-05,
				2.001852512359619,
				-1.1285200116617489e-06
			],
			"min":[
				-4.000000476837158,
				3.323063140214799e-07,
				-4.000001430511475
			],
			"type":"VEC3"
		},
		{
			"bufferView":1,
			"componentType":5126,
			"count":52,
			"type":"VEC3"
		},
		{
			"bufferView":2,
			"componentType":5126,
			"count":52,
			"type":"VEC2"
		},
		{
			"bufferView":3,
			"componentType":5123,
			"count":120,
			"type":"SCALAR"
		},
		{
			"bufferView":4,
			"componentType":5126,
			"count":24,
			"max":[
				-3.753216028213501,
				2,
				0
			],
			"min":[
				-4,
				0,
				-0.6257379055023193
			],
			"type":"VEC3"
		},
		{
			"bufferView":5,
			"componentType":5126,
			"count":24,
			"type":"VEC3"
		},
		{
			"bufferView":6,
			"componentType":5126,
			"count":24,
			"type":"VEC2"
		},
		{
			"bufferView":7,
			"componentType":5123,
			"count":36,
			"type":"SCALAR"
		},
		{
			"bufferView":8,
			"componentType":5126,
			"count":24,
			"max":[
				-3.3858253955841064,
				2,
				-1.1742647886276245
			],
			"min":[
				-3.8042261600494385,
				0,
				-1.815962314605713
			],
			"type":"VEC3"
		},
		{
			"bufferView":9,
			"componentType":5126,
			"count":24,
			"type":"VEC3"
		},
		{
			"bufferView":10,
			"componentType":5126,
			"count":24,
			"type":"VEC2"
		},
		{
			"bufferView":11,
			"componentType":5123,
			"count":36,
			"type":"SCALAR"
		},
		{
			"bufferView":12,
			"componentType":5126,
			"count":24,
			"max":[
				-2.6870062351226807,
				2,
				-2.233584403991699
			],
			"min":[
				-3.2360682487487793,
				0,
				-2.828427791595459
			],
			"type":"VEC3"
		},
		{
			"bufferView":13,
			"componentType":5126,
			"count":24,
			"type":"VEC3"
		},
		{
			"bufferView":14,
			"componentType":5126,
			"count":24,
			"type":"VEC2"
		},
		{
			"bufferView":15,
			"componentType":5126,
			"count":24,
			"max":[
				-1.7251641750335693,
				2,
				-3.0742650032043457
			],
			"min":[
				-2.3511412143707275,
				0,
				-3.5640270709991455
			],
			"type":"VEC3"
		},
		{
			"bufferView":16,
			"componentType":5126,
			"count":24,
			"type":"VEC3"
		},
		{
			"bufferView":17,
			"componentType":5126,
			"count":24,
			"type":"VEC2"
		},
		{
			"bufferView":18,
			"componentType":5123,
			"count":36,
			"type":"SCALAR"
		},
		{
			"bufferView":19,
			"componentType":5126,
			"count":24,
			"max":[
				-0.5944509506225586,
				2,
				-3.614015579223633
			],
			"min":[
				-1.2360678911209106,
				0,
				-3.950754404067993
			],
			"type":"VEC3"
		},
		{
			"bufferView":20,
			"componentType":5126,
			"count":24,
			"type":"VEC3"
		},
		{
			"bufferView":21,
			"componentType":5126,
			"count":24,
			"type":"VEC2"
		},
		{
			"bufferView":22,
			"componentType":5126,
			"count":24,
			"max":[
				-3.6140153408050537,
				2,
				-0.5944510698318481
			],
			"min":[
				-3.9507534503936768,
				0,
				-1.2360681295394897
			],
			"type":"VEC3"
		},
		{
			"bufferView":23,
			"componentType":5126,
			"count":24,
			"type":"VEC3"
		},
		{
			"bufferView":24,
			"componentType":5126,
			"count":24,
			"type":"VEC2"
		},
		{
			"bufferView":25,
			"componentType":5126,
			"count":24,
			"max":[
				-3.0742650032043457,
				2,
				-1.7251642942428589
			],
			"min":[
				-3.564026355743408,
				0,
				-2.3511414527893066
			],
			"type":"VEC3"
		},
		{
			"bufferView":26,
			"componentType":5126,
			"count":24,
			"type":"VEC3"
		},
		{
			"bufferView":27,
			"componentType":5126,
			"count":24,
			"type":"VEC2"
		},
		{
			"bufferView":28,
			"componentType":5126,
			"count":24,
			"max":[
				-2.233584403991699,
				2,
				-2.6870062351226807
			],
			"min":[
				-2.828427314758301,
				0,
				-3.2360689640045166
			],
			"type":"VEC3"
		},
		{
			"bufferView":29,
			"componentType":5126,
			"count":24,
			"type":"VEC3"
		},
		{
			"bufferView":30,
			"componentType":5126,
			"count":24,
			"type":"VEC2"
		},
		{
			"bufferView":31,
			"componentType":5126,
			"count":24,
			"max":[
				-1.174264669418335,
				2,
				-3.3858253955841064
			],
			"min":[
				-1.8159620761871338,
				0,
				-3.804227113723755
			],
			"type":"VEC3"
		},
		{
			"bufferView":32,
			"componentType":5126,
			"count":24,
			"type":"VEC3"
		},
		{
			"bufferView":33,
			"componentType":5126,
			"count":24,
			"type":"VEC2"
		},
		{
			"bufferView":34,
			"componentType":5126,
			"count":24,
			"max":[
				4.172325134277344e-07,
				2,
				-3.7532167434692383
			],
			"min":[
				-0.6257376074790955,
				0,
				-4.000000953674316
			],
			"type":"VEC3"
		},
		{
			"bufferView":35,
			"componentType":5126,
			"count":24,
			"type":"VEC3"
		},
		{
			"bufferView":36,
			"componentType":5126,
			"count":24,
			"type":"VEC2"
		},
		{
			"bufferView":37,
			"componentType":5123,
			"count":36,
			"type":"SCALAR"
		}
	],
	"bufferViews":[
		{
			"buffer":0,
			"byteLength":624,
			"byteOffset":0,
			"target":34962
		},
		{
			"buffer":0,
			"byteLength":624,
			"byteOffset":624,
			"target":34962
		},
		{
			"buffer":0,
			"byteLength":416,
			"byteOffset":1248,
			"target":34962
		},
		{
			"buffer":0,
			"byteLength":240,
			"byteOffset":1664,
			"target":34963
		},
		{
			"buffer":0,
			"byteLength":288,
			"byteOffset":1904,
			"target":34962
		},
		{
			"buffer":0,
			"byteLength":288,
			"byteOffset":2192,
			"target":34962
		},
		{
			"buffer":0,
			"byteLength":192,
			"byteOffset":2480,
			"target":34962
		},
		{
			"buffer":0,
			"byteLength":72,
			"byteOffset":2672,
			"target":34963
		},
		{
			"buffer":0,
			"byteLength":288,
			"byteOffset":2744,
			"target":34962
		},
		{
			"buffer":0,
			"byteLength":288,
			"byteOffset":3032,
			"target":34962
		},
		{
			"buffer":0,
			"byteLength":192,
			"byteOffset":3320,
			"target":34962
		},
		{
			"buffer":0,
			"byteLength":72,
			"byteOffset":3512,
			"target":34963
		},
		{
			"buffer":0,
			"byteLength":288,
			"byteOffset":3584,
			"target":34962
		},
		{
			"buffer":0,
			"byteLength":288,
			"byteOffset":3872,
			"target":34962
		},
		{
			"buffer":0,
			"byteLength":192,
			"byteOffset":4160,
			"target":34962
		},
		{
			"buffer":0,
			"byteLength":288,
			"byteOffset":4352,
			"target":34962
		},
		{
			"buffer":0,
			"byteLength":288,
			"byteOffset":4640,
			"target":34962
		},
		{
			"buffer":0,
			"byteLength":192,
			"byteOffset":4928,
			"target":34962
		},
		{
			"buffer":0,
			"byteLength":72,
			"byteOffset":5120,
			"target":34963
		},
		{
			"buffer":0,
			"byteLength":288,
			"byteOffset":5192,
			"target":34962
		},
		{
			"buffer":0,
			"byteLength":288,
			"byteOffset":5480,
			"target":34962
		},
		{
			"buffer":0,
			"byteLength":192,
			"byteOffset":5768,
			"target":34962
		},
		{
			"buffer":0,
			"byteLength":288,
			"byteOffset":5960,
			"target":34962
		},
		{
			"buffer":0,
			"byteLength":288,
			"byteOffset":6248,
			"target":34962
		},
		{
			"buffer":0,
			"byteLength":192,
			"byteOffset":6536,
			"target":34962
		},
		{
			"buffer":0,
			"byteLength":288,
			"byteOffset":6728,
			"target":34962
		},
		{
			"buffer":0,
			"byteLength":288,
			"byteOffset":7016,
			"target":34962
		},
		{
			"buffer":0,
			"byteLength":192,
			"byteOffset":7304,
			"target":34962
		},
		{
			"buffer":0,
			"byteLength":288,
			"byteOffset":7496,
			"target":34962
		},
		{
			"buffer":0,
			"byteLength":288,
			"byteOffset":7784,
			"target":34962
		},
		{
			"buffer":0,
			"byteLength":192,
			"byteOffset":8072,
			"target":34962
		},
		{
			"buffer":0,
			"byteLength":288,
			"byteOffset":8264,
			"target":34962
		},
		{
			"buffer":0,
			"byteLength":288,
			"byteOffset":8552,
			"target":34962
		},
		{
			"buffer":0,
			"byteLength":192,
			"byteOffset":8840,
			"target":34962
		},
		{
			"buffer":0,
			"byteLength":288,
			"byteOffset":9032,
			"target":34962
		},
		{
			"buffer":0,
			"byteLength":288,
			"byteOffset":9320,
			"target":34962
		},
		{
			"buffer":0,
			"byteLength":192,
			"byteOffset":9608,
			"target":34962
		},
		{
			"buffer":0,
			"byteLength":72,
			"byteOffset":9800,
			"target":34963
		}
	],
	"samplers":[
		{
			"magFilter":9729,
			"minFilter":9987
		}
	],
	"buffers":[
		{
			"byteLength":9872,
			"uri":"ShortWall_WhitePlate2_Corner_Outer.bin"
		}
	]
}
