{
	"asset":{
		"generator":"Khronos glTF Blender I/O v4.0.44",
		"version":"2.0"
	},
	"extensionsUsed":[
		"KHR_materials_specular",
		"KHR_materials_ior"
	],
	"scene":0,
	"scenes":[
		{
			"name":"Scene",
			"nodes":[
				0,
				1,
				2,
				3,
				4,
				5
			]
		}
	],
	"nodes":[
		{
			"mesh":0,
			"name":"ShortWall_Triangles_Corner_Inner"
		},
		{
			"mesh":1,
			"name":"ShortWall_Triangles_Corner_Inner_1_convcolonly"
		},
		{
			"mesh":2,
			"name":"ShortWall_Triangles_Corner_Inner_2_convcolonly"
		},
		{
			"mesh":3,
			"name":"ShortWall_Triangles_Corner_Inner_3_convcolonly"
		},
		{
			"mesh":4,
			"name":"ShortWall_Triangles_Corner_Inner_4_convcolonly"
		},
		{
			"mesh":5,
			"name":"ShortWall_Triangles_Corner_Inner_5_convcolonly"
		}
	],
	"materials":[
		{
			"doubleSided":true,
			"extensions":{
				"KHR_materials_specular":{
					"specularFactor":0
				},
				"KHR_materials_ior":{
					"ior":1.4500000476837158
				}
			},
			"name":"MI_Trim_01",
			"normalTexture":{
				"index":0
			},
			"pbrMetallicRoughness":{
				"baseColorTexture":{
					"index":1
				},
				"metallicRoughnessTexture":{
					"index":2
				}
			}
		},
		{
			"doubleSided":true,
			"name":"Collision",
			"pbrMetallicRoughness":{
				"baseColorFactor":[
					0.11006110906600952,
					0.2556236684322357,
					0.8000785112380981,
					1
				],
				"metallicFactor":0,
				"roughnessFactor":0.5
			}
		}
	],
	"meshes":[
		{
			"name":"Plane.295",
			"primitives":[
				{
					"attributes":{
						"POSITION":0,
						"NORMAL":1,
						"TEXCOORD_0":2
					},
					"indices":3,
					"material":0
				}
			]
		},
		{
			"name":"UCX_ShortWall_Triangles_Corner_Inner_1",
			"primitives":[
				{
					"attributes":{
						"POSITION":4,
						"NORMAL":5,
						"TEXCOORD_0":6
					},
					"indices":7,
					"material":1
				}
			]
		},
		{
			"name":"UCX_ShortWall_Triangles_Corner_Inner_2",
			"primitives":[
				{
					"attributes":{
						"POSITION":8,
						"NORMAL":9,
						"TEXCOORD_0":10
					},
					"indices":11,
					"material":1
				}
			]
		},
		{
			"name":"UCX_ShortWall_Triangles_Corner_Inner_3",
			"primitives":[
				{
					"attributes":{
						"POSITION":12,
						"NORMAL":13,
						"TEXCOORD_0":14
					},
					"indices":15,
					"material":1
				}
			]
		},
		{
			"name":"UCX_ShortWall_Triangles_Corner_Inner_4",
			"primitives":[
				{
					"attributes":{
						"POSITION":16,
						"NORMAL":17,
						"TEXCOORD_0":18
					},
					"indices":19,
					"material":1
				}
			]
		},
		{
			"name":"UCX_ShortWall_Triangles_Corner_Inner_5",
			"primitives":[
				{
					"attributes":{
						"POSITION":20,
						"NORMAL":21,
						"TEXCOORD_0":22
					},
					"indices":23,
					"material":1
				}
			]
		}
	],
	"textures":[
		{
			"sampler":0,
			"source":0
		},
		{
			"sampler":0,
			"source":1
		},
		{
			"sampler":0,
			"source":2
		}
	],
	"images":[
		{
			"mimeType":"image/png",
			"name":"T_Trim_01_Normal",
			"uri":"T_Trim_01_Normal.png"
		},
		{
			"mimeType":"image/png",
			"name":"T_Trim_01_BaseColor_Red",
			"uri":"T_Trim_01_BaseColor_Red.png"
		},
		{
			"mimeType":"image/png",
			"name":"T_Trim_01_ORM",
			"uri":"T_Trim_01_ORM.png"
		}
	],
	"accessors":[
		{
			"bufferView":0,
			"componentType":5126,
			"count":72,
			"max":[
				-1.30336559323041e-06,
				1.0000015497207642,
				-1.629182770557236e-05
			],
			"min":[
				-4.000001430511475,
				0.00185164634604007,
				-4.000000476837158
			],
			"type":"VEC3"
		},
		{
			"bufferView":1,
			"componentType":5126,
			"count":72,
			"type":"VEC3"
		},
		{
			"bufferView":2,
			"componentType":5126,
			"count":72,
			"type":"VEC2"
		},
		{
			"bufferView":3,
			"componentType":5123,
			"count":192,
			"type":"SCALAR"
		},
		{
			"bufferView":4,
			"componentType":5126,
			"count":24,
			"max":[
				0,
				1,
				-3.8042263984680176
			],
			"min":[
				-1.2978715896606445,
				0,
				-4.200000762939453
			],
			"type":"VEC3"
		},
		{
			"bufferView":5,
			"componentType":5126,
			"count":24,
			"type":"VEC3"
		},
		{
			"bufferView":6,
			"componentType":5126,
			"count":24,
			"type":"VEC2"
		},
		{
			"bufferView":7,
			"componentType":5123,
			"count":36,
			"type":"SCALAR"
		},
		{
			"bufferView":8,
			"componentType":5126,
			"count":24,
			"max":[
				-1.2360681295394897,
				1,
				-3.2360682487487793
			],
			"min":[
				-2.468698501586914,
				0,
				-3.9944379329681396
			],
			"type":"VEC3"
		},
		{
			"bufferView":9,
			"componentType":5126,
			"count":24,
			"type":"VEC3"
		},
		{
			"bufferView":10,
			"componentType":5126,
			"count":24,
			"type":"VEC2"
		},
		{
			"bufferView":11,
			"componentType":5123,
			"count":36,
			"type":"SCALAR"
		},
		{
			"bufferView":12,
			"componentType":5126,
			"count":24,
			"max":[
				-2.3511412143707275,
				1,
				-2.3511409759521484
			],
			"min":[
				-3.397871732711792,
				0,
				-3.397871732711792
			],
			"type":"VEC3"
		},
		{
			"bufferView":13,
			"componentType":5126,
			"count":24,
			"type":"VEC3"
		},
		{
			"bufferView":14,
			"componentType":5126,
			"count":24,
			"type":"VEC2"
		},
		{
			"bufferView":15,
			"componentType":5123,
			"count":36,
			"type":"SCALAR"
		},
		{
			"bufferView":16,
			"componentType":5126,
			"count":24,
			"max":[
				-3.2360682487487793,
				1,
				-1.2360680103302002
			],
			"min":[
				-3.9944376945495605,
				0,
				-2.468698263168335
			],
			"type":"VEC3"
		},
		{
			"bufferView":17,
			"componentType":5126,
			"count":24,
			"type":"VEC3"
		},
		{
			"bufferView":18,
			"componentType":5126,
			"count":24,
			"type":"VEC2"
		},
		{
			"bufferView":19,
			"componentType":5123,
			"count":36,
			"type":"SCALAR"
		},
		{
			"bufferView":20,
			"componentType":5126,
			"count":24,
			"max":[
				-3.8042261600494385,
				1,
				0
			],
			"min":[
				-4.199999809265137,
				0,
				-1.2978713512420654
			],
			"type":"VEC3"
		},
		{
			"bufferView":21,
			"componentType":5126,
			"count":24,
			"type":"VEC3"
		},
		{
			"bufferView":22,
			"componentType":5126,
			"count":24,
			"type":"VEC2"
		},
		{
			"bufferView":23,
			"componentType":5123,
			"count":36,
			"type":"SCALAR"
		}
	],
	"bufferViews":[
		{
			"buffer":0,
			"byteLength":864,
			"byteOffset":0,
			"target":34962
		},
		{
			"buffer":0,
			"byteLength":864,
			"byteOffset":864,
			"target":34962
		},
		{
			"buffer":0,
			"byteLength":576,
			"byteOffset":1728,
			"target":34962
		},
		{
			"buffer":0,
			"byteLength":384,
			"byteOffset":2304,
			"target":34963
		},
		{
			"buffer":0,
			"byteLength":288,
			"byteOffset":2688,
			"target":34962
		},
		{
			"buffer":0,
			"byteLength":288,
			"byteOffset":2976,
			"target":34962
		},
		{
			"buffer":0,
			"byteLength":192,
			"byteOffset":3264,
			"target":34962
		},
		{
			"buffer":0,
			"byteLength":72,
			"byteOffset":3456,
			"target":34963
		},
		{
			"buffer":0,
			"byteLength":288,
			"byteOffset":3528,
			"target":34962
		},
		{
			"buffer":0,
			"byteLength":288,
			"byteOffset":3816,
			"target":34962
		},
		{
			"buffer":0,
			"byteLength":192,
			"byteOffset":4104,
			"target":34962
		},
		{
			"buffer":0,
			"byteLength":72,
			"byteOffset":4296,
			"target":34963
		},
		{
			"buffer":0,
			"byteLength":288,
			"byteOffset":4368,
			"target":34962
		},
		{
			"buffer":0,
			"byteLength":288,
			"byteOffset":4656,
			"target":34962
		},
		{
			"buffer":0,
			"byteLength":192,
			"byteOffset":4944,
			"target":34962
		},
		{
			"buffer":0,
			"byteLength":72,
			"byteOffset":5136,
			"target":34963
		},
		{
			"buffer":0,
			"byteLength":288,
			"byteOffset":5208,
			"target":34962
		},
		{
			"buffer":0,
			"byteLength":288,
			"byteOffset":5496,
			"target":34962
		},
		{
			"buffer":0,
			"byteLength":192,
			"byteOffset":5784,
			"target":34962
		},
		{
			"buffer":0,
			"byteLength":72,
			"byteOffset":5976,
			"target":34963
		},
		{
			"buffer":0,
			"byteLength":288,
			"byteOffset":6048,
			"target":34962
		},
		{
			"buffer":0,
			"byteLength":288,
			"byteOffset":6336,
			"target":34962
		},
		{
			"buffer":0,
			"byteLength":192,
			"byteOffset":6624,
			"target":34962
		},
		{
			"buffer":0,
			"byteLength":72,
			"byteOffset":6816,
			"target":34963
		}
	],
	"samplers":[
		{
			"magFilter":9729,
			"minFilter":9987
		}
	],
	"buffers":[
		{
			"byteLength":6888,
			"uri":"ShortWall_Triangles_Corner_Inner.bin"
		}
	]
}
