{
	"asset":{
		"generator":"Khronos glTF Blender I/O v4.0.44",
		"version":"2.0"
	},
	"scene":0,
	"scenes":[
		{
			"name":"Scene",
			"nodes":[
				0,
				1,
				2,
				3,
				4,
				5,
				6,
				7,
				8,
				9,
				10
			]
		}
	],
	"nodes":[
		{
			"mesh":0,
			"name":"ShortWall_Band2_Corner_Outer"
		},
		{
			"mesh":1,
			"name":"ShortWall_Band2_Corner_Outer_01_convcolonly"
		},
		{
			"mesh":2,
			"name":"ShortWall_Band2_Corner_Outer_02_convcolonly"
		},
		{
			"mesh":3,
			"name":"ShortWall_Band2_Corner_Outer_03_convcolonly"
		},
		{
			"mesh":4,
			"name":"ShortWall_Band2_Corner_Outer_04_convcolonly"
		},
		{
			"mesh":5,
			"name":"ShortWall_Band2_Corner_Outer_05_convcolonly"
		},
		{
			"mesh":6,
			"name":"ShortWall_Band2_Corner_Outer_06_convcolonly"
		},
		{
			"mesh":7,
			"name":"ShortWall_Band2_Corner_Outer_07_convcolonly"
		},
		{
			"mesh":8,
			"name":"ShortWall_Band2_Corner_Outer_08_convcolonly"
		},
		{
			"mesh":9,
			"name":"ShortWall_Band2_Corner_Outer_09_convcolonly"
		},
		{
			"mesh":10,
			"name":"ShortWall_Band2_Corner_Outer_10_convcolonly"
		}
	],
	"materials":[
		{
			"doubleSided":true,
			"name":"MI_Trim_02",
			"normalTexture":{
				"index":0
			},
			"pbrMetallicRoughness":{
				"baseColorTexture":{
					"index":1
				},
				"metallicRoughnessTexture":{
					"index":2
				}
			}
		},
		{
			"doubleSided":true,
			"name":"M_Decal_White",
			"pbrMetallicRoughness":{
				"baseColorTexture":{
					"index":3
				},
				"metallicFactor":0,
				"roughnessFactor":0.5
			}
		},
		{
			"doubleSided":true,
			"name":"Collision",
			"pbrMetallicRoughness":{
				"baseColorFactor":[
					0.11006110906600952,
					0.2556236684322357,
					0.8000785112380981,
					1
				],
				"metallicFactor":0,
				"roughnessFactor":0.5
			}
		}
	],
	"meshes":[
		{
			"name":"Plane.276",
			"primitives":[
				{
					"attributes":{
						"POSITION":0,
						"NORMAL":1,
						"TEXCOORD_0":2
					},
					"indices":3,
					"material":0
				},
				{
					"attributes":{
						"POSITION":4,
						"NORMAL":5,
						"TEXCOORD_0":6
					},
					"indices":7,
					"material":1
				}
			]
		},
		{
			"name":"UCX_ShortWall_Band2_Corner_Outer_01",
			"primitives":[
				{
					"attributes":{
						"POSITION":8,
						"NORMAL":9,
						"TEXCOORD_0":10
					},
					"indices":11,
					"material":2
				}
			]
		},
		{
			"name":"UCX_ShortWall_Band2_Corner_Outer_02",
			"primitives":[
				{
					"attributes":{
						"POSITION":12,
						"NORMAL":13,
						"TEXCOORD_0":14
					},
					"indices":15,
					"material":2
				}
			]
		},
		{
			"name":"UCX_ShortWall_Band2_Corner_Outer_03",
			"primitives":[
				{
					"attributes":{
						"POSITION":16,
						"NORMAL":17,
						"TEXCOORD_0":18
					},
					"indices":15,
					"material":2
				}
			]
		},
		{
			"name":"UCX_ShortWall_Band2_Corner_Outer_04",
			"primitives":[
				{
					"attributes":{
						"POSITION":19,
						"NORMAL":20,
						"TEXCOORD_0":21
					},
					"indices":22,
					"material":2
				}
			]
		},
		{
			"name":"UCX_ShortWall_Band2_Corner_Outer_05",
			"primitives":[
				{
					"attributes":{
						"POSITION":23,
						"NORMAL":24,
						"TEXCOORD_0":25
					},
					"indices":22,
					"material":2
				}
			]
		},
		{
			"name":"UCX_ShortWall_Band2_Corner_Outer_06",
			"primitives":[
				{
					"attributes":{
						"POSITION":26,
						"NORMAL":27,
						"TEXCOORD_0":28
					},
					"indices":15,
					"material":2
				}
			]
		},
		{
			"name":"UCX_ShortWall_Band2_Corner_Outer_07",
			"primitives":[
				{
					"attributes":{
						"POSITION":29,
						"NORMAL":30,
						"TEXCOORD_0":31
					},
					"indices":15,
					"material":2
				}
			]
		},
		{
			"name":"UCX_ShortWall_Band2_Corner_Outer_08",
			"primitives":[
				{
					"attributes":{
						"POSITION":32,
						"NORMAL":33,
						"TEXCOORD_0":34
					},
					"indices":22,
					"material":2
				}
			]
		},
		{
			"name":"UCX_ShortWall_Band2_Corner_Outer_09",
			"primitives":[
				{
					"attributes":{
						"POSITION":35,
						"NORMAL":36,
						"TEXCOORD_0":37
					},
					"indices":22,
					"material":2
				}
			]
		},
		{
			"name":"UCX_ShortWall_Band2_Corner_Outer_10",
			"primitives":[
				{
					"attributes":{
						"POSITION":38,
						"NORMAL":39,
						"TEXCOORD_0":40
					},
					"indices":41,
					"material":2
				}
			]
		}
	],
	"textures":[
		{
			"sampler":0,
			"source":0
		},
		{
			"sampler":0,
			"source":1
		},
		{
			"sampler":0,
			"source":2
		},
		{
			"sampler":0,
			"source":3
		}
	],
	"images":[
		{
			"mimeType":"image/png",
			"name":"T_Trim_02_Normal",
			"uri":"T_Trim_02_Normal.png"
		},
		{
			"mimeType":"image/png",
			"name":"T_Trim_02_BaseColor_Red",
			"uri":"T_Trim_02_BaseColor_Red.png"
		},
		{
			"mimeType":"image/png",
			"name":"T_Trim_02_ORM",
			"uri":"T_Trim_02_ORM.png"
		},
		{
			"mimeType":"image/png",
			"name":"T_Decals",
			"uri":"T_Decals.png"
		}
	],
	"accessors":[
		{
			"bufferView":0,
			"componentType":5126,
			"count":36,
			"max":[
				-1.6466672605019994e-05,
				2.0000011920928955,
				-1.1285200116617489e-06
			],
			"min":[
				-4.000000476837158,
				0.00185164634604007,
				-4.000001430511475
			],
			"type":"VEC3"
		},
		{
			"bufferView":1,
			"componentType":5126,
			"count":36,
			"type":"VEC3"
		},
		{
			"bufferView":2,
			"componentType":5126,
			"count":36,
			"type":"VEC2"
		},
		{
			"bufferView":3,
			"componentType":5123,
			"count":96,
			"type":"SCALAR"
		},
		{
			"bufferView":4,
			"componentType":5126,
			"count":8,
			"max":[
				-0.04717573523521423,
				1.8850562572479248,
				-2.5682802200317383
			],
			"min":[
				-3.0669589042663574,
				1.642072319984436,
				-4.004332542419434
			],
			"type":"VEC3"
		},
		{
			"bufferView":5,
			"componentType":5126,
			"count":8,
			"type":"VEC3"
		},
		{
			"bufferView":6,
			"componentType":5126,
			"count":8,
			"type":"VEC2"
		},
		{
			"bufferView":7,
			"componentType":5123,
			"count":12,
			"type":"SCALAR"
		},
		{
			"bufferView":8,
			"componentType":5126,
			"count":24,
			"max":[
				-3.753216028213501,
				2,
				0
			],
			"min":[
				-4,
				0,
				-0.6257379055023193
			],
			"type":"VEC3"
		},
		{
			"bufferView":9,
			"componentType":5126,
			"count":24,
			"type":"VEC3"
		},
		{
			"bufferView":10,
			"componentType":5126,
			"count":24,
			"type":"VEC2"
		},
		{
			"bufferView":11,
			"componentType":5123,
			"count":36,
			"type":"SCALAR"
		},
		{
			"bufferView":12,
			"componentType":5126,
			"count":24,
			"max":[
				-3.3858253955841064,
				2,
				-1.1742647886276245
			],
			"min":[
				-3.8042261600494385,
				0,
				-1.815962314605713
			],
			"type":"VEC3"
		},
		{
			"bufferView":13,
			"componentType":5126,
			"count":24,
			"type":"VEC3"
		},
		{
			"bufferView":14,
			"componentType":5126,
			"count":24,
			"type":"VEC2"
		},
		{
			"bufferView":15,
			"componentType":5123,
			"count":36,
			"type":"SCALAR"
		},
		{
			"bufferView":16,
			"componentType":5126,
			"count":24,
			"max":[
				-2.6870062351226807,
				2,
				-2.233584403991699
			],
			"min":[
				-3.2360682487487793,
				0,
				-2.828427791595459
			],
			"type":"VEC3"
		},
		{
			"bufferView":17,
			"componentType":5126,
			"count":24,
			"type":"VEC3"
		},
		{
			"bufferView":18,
			"componentType":5126,
			"count":24,
			"type":"VEC2"
		},
		{
			"bufferView":19,
			"componentType":5126,
			"count":24,
			"max":[
				-1.7251641750335693,
				2,
				-3.0742650032043457
			],
			"min":[
				-2.3511412143707275,
				0,
				-3.5640270709991455
			],
			"type":"VEC3"
		},
		{
			"bufferView":20,
			"componentType":5126,
			"count":24,
			"type":"VEC3"
		},
		{
			"bufferView":21,
			"componentType":5126,
			"count":24,
			"type":"VEC2"
		},
		{
			"bufferView":22,
			"componentType":5123,
			"count":36,
			"type":"SCALAR"
		},
		{
			"bufferView":23,
			"componentType":5126,
			"count":24,
			"max":[
				-0.5944509506225586,
				2,
				-3.614015579223633
			],
			"min":[
				-1.2360678911209106,
				0,
				-3.950754404067993
			],
			"type":"VEC3"
		},
		{
			"bufferView":24,
			"componentType":5126,
			"count":24,
			"type":"VEC3"
		},
		{
			"bufferView":25,
			"componentType":5126,
			"count":24,
			"type":"VEC2"
		},
		{
			"bufferView":26,
			"componentType":5126,
			"count":24,
			"max":[
				-3.6140153408050537,
				2,
				-0.5944510698318481
			],
			"min":[
				-3.9507534503936768,
				0,
				-1.2360681295394897
			],
			"type":"VEC3"
		},
		{
			"bufferView":27,
			"componentType":5126,
			"count":24,
			"type":"VEC3"
		},
		{
			"bufferView":28,
			"componentType":5126,
			"count":24,
			"type":"VEC2"
		},
		{
			"bufferView":29,
			"componentType":5126,
			"count":24,
			"max":[
				-3.0742650032043457,
				2,
				-1.7251642942428589
			],
			"min":[
				-3.564026355743408,
				0,
				-2.3511414527893066
			],
			"type":"VEC3"
		},
		{
			"bufferView":30,
			"componentType":5126,
			"count":24,
			"type":"VEC3"
		},
		{
			"bufferView":31,
			"componentType":5126,
			"count":24,
			"type":"VEC2"
		},
		{
			"bufferView":32,
			"componentType":5126,
			"count":24,
			"max":[
				-2.233584403991699,
				2,
				-2.6870062351226807
			],
			"min":[
				-2.828427314758301,
				0,
				-3.2360689640045166
			],
			"type":"VEC3"
		},
		{
			"bufferView":33,
			"componentType":5126,
			"count":24,
			"type":"VEC3"
		},
		{
			"bufferView":34,
			"componentType":5126,
			"count":24,
			"type":"VEC2"
		},
		{
			"bufferView":35,
			"componentType":5126,
			"count":24,
			"max":[
				-1.174264669418335,
				2,
				-3.3858253955841064
			],
			"min":[
				-1.8159620761871338,
				0,
				-3.804227113723755
			],
			"type":"VEC3"
		},
		{
			"bufferView":36,
			"componentType":5126,
			"count":24,
			"type":"VEC3"
		},
		{
			"bufferView":37,
			"componentType":5126,
			"count":24,
			"type":"VEC2"
		},
		{
			"bufferView":38,
			"componentType":5126,
			"count":24,
			"max":[
				4.172325134277344e-07,
				2,
				-3.7532167434692383
			],
			"min":[
				-0.6257376074790955,
				0,
				-4.000000953674316
			],
			"type":"VEC3"
		},
		{
			"bufferView":39,
			"componentType":5126,
			"count":24,
			"type":"VEC3"
		},
		{
			"bufferView":40,
			"componentType":5126,
			"count":24,
			"type":"VEC2"
		},
		{
			"bufferView":41,
			"componentType":5123,
			"count":36,
			"type":"SCALAR"
		}
	],
	"bufferViews":[
		{
			"buffer":0,
			"byteLength":432,
			"byteOffset":0,
			"target":34962
		},
		{
			"buffer":0,
			"byteLength":432,
			"byteOffset":432,
			"target":34962
		},
		{
			"buffer":0,
			"byteLength":288,
			"byteOffset":864,
			"target":34962
		},
		{
			"buffer":0,
			"byteLength":192,
			"byteOffset":1152,
			"target":34963
		},
		{
			"buffer":0,
			"byteLength":96,
			"byteOffset":1344,
			"target":34962
		},
		{
			"buffer":0,
			"byteLength":96,
			"byteOffset":1440,
			"target":34962
		},
		{
			"buffer":0,
			"byteLength":64,
			"byteOffset":1536,
			"target":34962
		},
		{
			"buffer":0,
			"byteLength":24,
			"byteOffset":1600,
			"target":34963
		},
		{
			"buffer":0,
			"byteLength":288,
			"byteOffset":1624,
			"target":34962
		},
		{
			"buffer":0,
			"byteLength":288,
			"byteOffset":1912,
			"target":34962
		},
		{
			"buffer":0,
			"byteLength":192,
			"byteOffset":2200,
			"target":34962
		},
		{
			"buffer":0,
			"byteLength":72,
			"byteOffset":2392,
			"target":34963
		},
		{
			"buffer":0,
			"byteLength":288,
			"byteOffset":2464,
			"target":34962
		},
		{
			"buffer":0,
			"byteLength":288,
			"byteOffset":2752,
			"target":34962
		},
		{
			"buffer":0,
			"byteLength":192,
			"byteOffset":3040,
			"target":34962
		},
		{
			"buffer":0,
			"byteLength":72,
			"byteOffset":3232,
			"target":34963
		},
		{
			"buffer":0,
			"byteLength":288,
			"byteOffset":3304,
			"target":34962
		},
		{
			"buffer":0,
			"byteLength":288,
			"byteOffset":3592,
			"target":34962
		},
		{
			"buffer":0,
			"byteLength":192,
			"byteOffset":3880,
			"target":34962
		},
		{
			"buffer":0,
			"byteLength":288,
			"byteOffset":4072,
			"target":34962
		},
		{
			"buffer":0,
			"byteLength":288,
			"byteOffset":4360,
			"target":34962
		},
		{
			"buffer":0,
			"byteLength":192,
			"byteOffset":4648,
			"target":34962
		},
		{
			"buffer":0,
			"byteLength":72,
			"byteOffset":4840,
			"target":34963
		},
		{
			"buffer":0,
			"byteLength":288,
			"byteOffset":4912,
			"target":34962
		},
		{
			"buffer":0,
			"byteLength":288,
			"byteOffset":5200,
			"target":34962
		},
		{
			"buffer":0,
			"byteLength":192,
			"byteOffset":5488,
			"target":34962
		},
		{
			"buffer":0,
			"byteLength":288,
			"byteOffset":5680,
			"target":34962
		},
		{
			"buffer":0,
			"byteLength":288,
			"byteOffset":5968,
			"target":34962
		},
		{
			"buffer":0,
			"byteLength":192,
			"byteOffset":6256,
			"target":34962
		},
		{
			"buffer":0,
			"byteLength":288,
			"byteOffset":6448,
			"target":34962
		},
		{
			"buffer":0,
			"byteLength":288,
			"byteOffset":6736,
			"target":34962
		},
		{
			"buffer":0,
			"byteLength":192,
			"byteOffset":7024,
			"target":34962
		},
		{
			"buffer":0,
			"byteLength":288,
			"byteOffset":7216,
			"target":34962
		},
		{
			"buffer":0,
			"byteLength":288,
			"byteOffset":7504,
			"target":34962
		},
		{
			"buffer":0,
			"byteLength":192,
			"byteOffset":7792,
			"target":34962
		},
		{
			"buffer":0,
			"byteLength":288,
			"byteOffset":7984,
			"target":34962
		},
		{
			"buffer":0,
			"byteLength":288,
			"byteOffset":8272,
			"target":34962
		},
		{
			"buffer":0,
			"byteLength":192,
			"byteOffset":8560,
			"target":34962
		},
		{
			"buffer":0,
			"byteLength":288,
			"byteOffset":8752,
			"target":34962
		},
		{
			"buffer":0,
			"byteLength":288,
			"byteOffset":9040,
			"target":34962
		},
		{
			"buffer":0,
			"byteLength":192,
			"byteOffset":9328,
			"target":34962
		},
		{
			"buffer":0,
			"byteLength":72,
			"byteOffset":9520,
			"target":34963
		}
	],
	"samplers":[
		{
			"magFilter":9729,
			"minFilter":9987
		}
	],
	"buffers":[
		{
			"byteLength":9592,
			"uri":"ShortWall_Band2_Corner_Outer.bin"
		}
	]
}
