{
	"asset":{
		"generator":"Khronos glTF Blender I/O v4.0.44",
		"version":"2.0"
	},
	"extensionsUsed":[
		"KHR_materials_specular",
		"KHR_materials_ior"
	],
	"scene":0,
	"scenes":[
		{
			"name":"Scene",
			"nodes":[
				0,
				1,
				2,
				3,
				4,
				5,
				6,
				7,
				8,
				9,
				10
			]
		}
	],
	"nodes":[
		{
			"mesh":0,
			"name":"ShortWall_AccentStrip_Corner_Outer"
		},
		{
			"mesh":1,
			"name":"ShortWall_AccentStrip_Corner_Outer_01_convcolonly"
		},
		{
			"mesh":2,
			"name":"ShortWall_AccentStrip_Corner_Outer_02_convcolonly"
		},
		{
			"mesh":3,
			"name":"ShortWall_AccentStrip_Corner_Outer_03_convcolonly"
		},
		{
			"mesh":4,
			"name":"ShortWall_AccentStrip_Corner_Outer_04_convcolonly"
		},
		{
			"mesh":5,
			"name":"ShortWall_AccentStrip_Corner_Outer_05_convcolonly"
		},
		{
			"mesh":6,
			"name":"ShortWall_AccentStrip_Corner_Outer_06_convcolonly"
		},
		{
			"mesh":7,
			"name":"ShortWall_AccentStrip_Corner_Outer_07_convcolonly"
		},
		{
			"mesh":8,
			"name":"ShortWall_AccentStrip_Corner_Outer_08_convcolonly"
		},
		{
			"mesh":9,
			"name":"ShortWall_AccentStrip_Corner_Outer_09_convcolonly"
		},
		{
			"mesh":10,
			"name":"ShortWall_AccentStrip_Corner_Outer_10_convcolonly"
		}
	],
	"materials":[
		{
			"doubleSided":true,
			"extensions":{
				"KHR_materials_specular":{
					"specularFactor":0
				},
				"KHR_materials_ior":{
					"ior":1.4500000476837158
				}
			},
			"name":"MI_Trim_01",
			"normalTexture":{
				"index":0
			},
			"pbrMetallicRoughness":{
				"baseColorTexture":{
					"index":1
				},
				"metallicRoughnessTexture":{
					"index":2
				}
			}
		},
		{
			"doubleSided":true,
			"name":"Collision",
			"pbrMetallicRoughness":{
				"baseColorFactor":[
					0.11006110906600952,
					0.2556236684322357,
					0.8000785112380981,
					1
				],
				"metallicFactor":0,
				"roughnessFactor":0.5
			}
		}
	],
	"meshes":[
		{
			"name":"Plane.281",
			"primitives":[
				{
					"attributes":{
						"POSITION":0,
						"NORMAL":1,
						"TEXCOORD_0":2
					},
					"indices":3,
					"material":0
				}
			]
		},
		{
			"name":"UCX_ShortWall_AccentStrip_Corner_Outer_01",
			"primitives":[
				{
					"attributes":{
						"POSITION":4,
						"NORMAL":5,
						"TEXCOORD_0":6
					},
					"indices":7,
					"material":1
				}
			]
		},
		{
			"name":"UCX_ShortWall_AccentStrip_Corner_Outer_02",
			"primitives":[
				{
					"attributes":{
						"POSITION":8,
						"NORMAL":9,
						"TEXCOORD_0":10
					},
					"indices":11,
					"material":1
				}
			]
		},
		{
			"name":"UCX_ShortWall_AccentStrip_Corner_Outer_03",
			"primitives":[
				{
					"attributes":{
						"POSITION":12,
						"NORMAL":13,
						"TEXCOORD_0":14
					},
					"indices":11,
					"material":1
				}
			]
		},
		{
			"name":"UCX_ShortWall_AccentStrip_Corner_Outer_04",
			"primitives":[
				{
					"attributes":{
						"POSITION":15,
						"NORMAL":16,
						"TEXCOORD_0":17
					},
					"indices":18,
					"material":1
				}
			]
		},
		{
			"name":"UCX_ShortWall_AccentStrip_Corner_Outer_05",
			"primitives":[
				{
					"attributes":{
						"POSITION":19,
						"NORMAL":20,
						"TEXCOORD_0":21
					},
					"indices":18,
					"material":1
				}
			]
		},
		{
			"name":"UCX_ShortWall_AccentStrip_Corner_Outer_06",
			"primitives":[
				{
					"attributes":{
						"POSITION":22,
						"NORMAL":23,
						"TEXCOORD_0":24
					},
					"indices":11,
					"material":1
				}
			]
		},
		{
			"name":"UCX_ShortWall_AccentStrip_Corner_Outer_07",
			"primitives":[
				{
					"attributes":{
						"POSITION":25,
						"NORMAL":26,
						"TEXCOORD_0":27
					},
					"indices":11,
					"material":1
				}
			]
		},
		{
			"name":"UCX_ShortWall_AccentStrip_Corner_Outer_08",
			"primitives":[
				{
					"attributes":{
						"POSITION":28,
						"NORMAL":29,
						"TEXCOORD_0":30
					},
					"indices":18,
					"material":1
				}
			]
		},
		{
			"name":"UCX_ShortWall_AccentStrip_Corner_Outer_09",
			"primitives":[
				{
					"attributes":{
						"POSITION":31,
						"NORMAL":32,
						"TEXCOORD_0":33
					},
					"indices":18,
					"material":1
				}
			]
		},
		{
			"name":"UCX_ShortWall_AccentStrip_Corner_Outer_10",
			"primitives":[
				{
					"attributes":{
						"POSITION":34,
						"NORMAL":35,
						"TEXCOORD_0":36
					},
					"indices":37,
					"material":1
				}
			]
		}
	],
	"textures":[
		{
			"sampler":0,
			"source":0
		},
		{
			"sampler":0,
			"source":1
		},
		{
			"sampler":0,
			"source":2
		}
	],
	"images":[
		{
			"mimeType":"image/png",
			"name":"T_Trim_01_Normal",
			"uri":"T_Trim_01_Normal.png"
		},
		{
			"mimeType":"image/png",
			"name":"T_Trim_01_BaseColor_Red",
			"uri":"T_Trim_01_BaseColor_Red.png"
		},
		{
			"mimeType":"image/png",
			"name":"T_Trim_01_ORM",
			"uri":"T_Trim_01_ORM.png"
		}
	],
	"accessors":[
		{
			"bufferView":0,
			"componentType":5126,
			"count":72,
			"max":[
				-1.6466672605019994e-05,
				1.0000015497207642,
				-1.1285200116617489e-06
			],
			"min":[
				-4.000000476837158,
				0.00185164634604007,
				-4.000001430511475
			],
			"type":"VEC3"
		},
		{
			"bufferView":1,
			"componentType":5126,
			"count":72,
			"type":"VEC3"
		},
		{
			"bufferView":2,
			"componentType":5126,
			"count":72,
			"type":"VEC2"
		},
		{
			"bufferView":3,
			"componentType":5123,
			"count":192,
			"type":"SCALAR"
		},
		{
			"bufferView":4,
			"componentType":5126,
			"count":24,
			"max":[
				-3.753216028213501,
				1,
				0
			],
			"min":[
				-4,
				0,
				-0.6257379055023193
			],
			"type":"VEC3"
		},
		{
			"bufferView":5,
			"componentType":5126,
			"count":24,
			"type":"VEC3"
		},
		{
			"bufferView":6,
			"componentType":5126,
			"count":24,
			"type":"VEC2"
		},
		{
			"bufferView":7,
			"componentType":5123,
			"count":36,
			"type":"SCALAR"
		},
		{
			"bufferView":8,
			"componentType":5126,
			"count":24,
			"max":[
				-3.3858253955841064,
				1,
				-1.1742647886276245
			],
			"min":[
				-3.8042261600494385,
				0,
				-1.815962314605713
			],
			"type":"VEC3"
		},
		{
			"bufferView":9,
			"componentType":5126,
			"count":24,
			"type":"VEC3"
		},
		{
			"bufferView":10,
			"componentType":5126,
			"count":24,
			"type":"VEC2"
		},
		{
			"bufferView":11,
			"componentType":5123,
			"count":36,
			"type":"SCALAR"
		},
		{
			"bufferView":12,
			"componentType":5126,
			"count":24,
			"max":[
				-2.6870062351226807,
				1,
				-2.233584403991699
			],
			"min":[
				-3.2360682487487793,
				0,
				-2.828427791595459
			],
			"type":"VEC3"
		},
		{
			"bufferView":13,
			"componentType":5126,
			"count":24,
			"type":"VEC3"
		},
		{
			"bufferView":14,
			"componentType":5126,
			"count":24,
			"type":"VEC2"
		},
		{
			"bufferView":15,
			"componentType":5126,
			"count":24,
			"max":[
				-1.7251641750335693,
				1,
				-3.0742650032043457
			],
			"min":[
				-2.3511412143707275,
				0,
				-3.5640270709991455
			],
			"type":"VEC3"
		},
		{
			"bufferView":16,
			"componentType":5126,
			"count":24,
			"type":"VEC3"
		},
		{
			"bufferView":17,
			"componentType":5126,
			"count":24,
			"type":"VEC2"
		},
		{
			"bufferView":18,
			"componentType":5123,
			"count":36,
			"type":"SCALAR"
		},
		{
			"bufferView":19,
			"componentType":5126,
			"count":24,
			"max":[
				-0.5944509506225586,
				1,
				-3.614015579223633
			],
			"min":[
				-1.2360678911209106,
				0,
				-3.950754404067993
			],
			"type":"VEC3"
		},
		{
			"bufferView":20,
			"componentType":5126,
			"count":24,
			"type":"VEC3"
		},
		{
			"bufferView":21,
			"componentType":5126,
			"count":24,
			"type":"VEC2"
		},
		{
			"bufferView":22,
			"componentType":5126,
			"count":24,
			"max":[
				-3.6140153408050537,
				1,
				-0.5944510698318481
			],
			"min":[
				-3.9507534503936768,
				0,
				-1.2360681295394897
			],
			"type":"VEC3"
		},
		{
			"bufferView":23,
			"componentType":5126,
			"count":24,
			"type":"VEC3"
		},
		{
			"bufferView":24,
			"componentType":5126,
			"count":24,
			"type":"VEC2"
		},
		{
			"bufferView":25,
			"componentType":5126,
			"count":24,
			"max":[
				-3.0742650032043457,
				1,
				-1.7251642942428589
			],
			"min":[
				-3.564026355743408,
				0,
				-2.3511414527893066
			],
			"type":"VEC3"
		},
		{
			"bufferView":26,
			"componentType":5126,
			"count":24,
			"type":"VEC3"
		},
		{
			"bufferView":27,
			"componentType":5126,
			"count":24,
			"type":"VEC2"
		},
		{
			"bufferView":28,
			"componentType":5126,
			"count":24,
			"max":[
				-2.233584403991699,
				1,
				-2.6870062351226807
			],
			"min":[
				-2.828427314758301,
				0,
				-3.2360689640045166
			],
			"type":"VEC3"
		},
		{
			"bufferView":29,
			"componentType":5126,
			"count":24,
			"type":"VEC3"
		},
		{
			"bufferView":30,
			"componentType":5126,
			"count":24,
			"type":"VEC2"
		},
		{
			"bufferView":31,
			"componentType":5126,
			"count":24,
			"max":[
				-1.174264669418335,
				1,
				-3.3858253955841064
			],
			"min":[
				-1.8159620761871338,
				0,
				-3.804227113723755
			],
			"type":"VEC3"
		},
		{
			"bufferView":32,
			"componentType":5126,
			"count":24,
			"type":"VEC3"
		},
		{
			"bufferView":33,
			"componentType":5126,
			"count":24,
			"type":"VEC2"
		},
		{
			"bufferView":34,
			"componentType":5126,
			"count":24,
			"max":[
				4.172325134277344e-07,
				1,
				-3.7532167434692383
			],
			"min":[
				-0.6257376074790955,
				0,
				-4.000000953674316
			],
			"type":"VEC3"
		},
		{
			"bufferView":35,
			"componentType":5126,
			"count":24,
			"type":"VEC3"
		},
		{
			"bufferView":36,
			"componentType":5126,
			"count":24,
			"type":"VEC2"
		},
		{
			"bufferView":37,
			"componentType":5123,
			"count":36,
			"type":"SCALAR"
		}
	],
	"bufferViews":[
		{
			"buffer":0,
			"byteLength":864,
			"byteOffset":0,
			"target":34962
		},
		{
			"buffer":0,
			"byteLength":864,
			"byteOffset":864,
			"target":34962
		},
		{
			"buffer":0,
			"byteLength":576,
			"byteOffset":1728,
			"target":34962
		},
		{
			"buffer":0,
			"byteLength":384,
			"byteOffset":2304,
			"target":34963
		},
		{
			"buffer":0,
			"byteLength":288,
			"byteOffset":2688,
			"target":34962
		},
		{
			"buffer":0,
			"byteLength":288,
			"byteOffset":2976,
			"target":34962
		},
		{
			"buffer":0,
			"byteLength":192,
			"byteOffset":3264,
			"target":34962
		},
		{
			"buffer":0,
			"byteLength":72,
			"byteOffset":3456,
			"target":34963
		},
		{
			"buffer":0,
			"byteLength":288,
			"byteOffset":3528,
			"target":34962
		},
		{
			"buffer":0,
			"byteLength":288,
			"byteOffset":3816,
			"target":34962
		},
		{
			"buffer":0,
			"byteLength":192,
			"byteOffset":4104,
			"target":34962
		},
		{
			"buffer":0,
			"byteLength":72,
			"byteOffset":4296,
			"target":34963
		},
		{
			"buffer":0,
			"byteLength":288,
			"byteOffset":4368,
			"target":34962
		},
		{
			"buffer":0,
			"byteLength":288,
			"byteOffset":4656,
			"target":34962
		},
		{
			"buffer":0,
			"byteLength":192,
			"byteOffset":4944,
			"target":34962
		},
		{
			"buffer":0,
			"byteLength":288,
			"byteOffset":5136,
			"target":34962
		},
		{
			"buffer":0,
			"byteLength":288,
			"byteOffset":5424,
			"target":34962
		},
		{
			"buffer":0,
			"byteLength":192,
			"byteOffset":5712,
			"target":34962
		},
		{
			"buffer":0,
			"byteLength":72,
			"byteOffset":5904,
			"target":34963
		},
		{
			"buffer":0,
			"byteLength":288,
			"byteOffset":5976,
			"target":34962
		},
		{
			"buffer":0,
			"byteLength":288,
			"byteOffset":6264,
			"target":34962
		},
		{
			"buffer":0,
			"byteLength":192,
			"byteOffset":6552,
			"target":34962
		},
		{
			"buffer":0,
			"byteLength":288,
			"byteOffset":6744,
			"target":34962
		},
		{
			"buffer":0,
			"byteLength":288,
			"byteOffset":7032,
			"target":34962
		},
		{
			"buffer":0,
			"byteLength":192,
			"byteOffset":7320,
			"target":34962
		},
		{
			"buffer":0,
			"byteLength":288,
			"byteOffset":7512,
			"target":34962
		},
		{
			"buffer":0,
			"byteLength":288,
			"byteOffset":7800,
			"target":34962
		},
		{
			"buffer":0,
			"byteLength":192,
			"byteOffset":8088,
			"target":34962
		},
		{
			"buffer":0,
			"byteLength":288,
			"byteOffset":8280,
			"target":34962
		},
		{
			"buffer":0,
			"byteLength":288,
			"byteOffset":8568,
			"target":34962
		},
		{
			"buffer":0,
			"byteLength":192,
			"byteOffset":8856,
			"target":34962
		},
		{
			"buffer":0,
			"byteLength":288,
			"byteOffset":9048,
			"target":34962
		},
		{
			"buffer":0,
			"byteLength":288,
			"byteOffset":9336,
			"target":34962
		},
		{
			"buffer":0,
			"byteLength":192,
			"byteOffset":9624,
			"target":34962
		},
		{
			"buffer":0,
			"byteLength":288,
			"byteOffset":9816,
			"target":34962
		},
		{
			"buffer":0,
			"byteLength":288,
			"byteOffset":10104,
			"target":34962
		},
		{
			"buffer":0,
			"byteLength":192,
			"byteOffset":10392,
			"target":34962
		},
		{
			"buffer":0,
			"byteLength":72,
			"byteOffset":10584,
			"target":34963
		}
	],
	"samplers":[
		{
			"magFilter":9729,
			"minFilter":9987
		}
	],
	"buffers":[
		{
			"byteLength":10656,
			"uri":"ShortWall_AccentStrip_Corner_Outer.bin"
		}
	]
}
