{
	"asset":{
		"generator":"Khronos glTF Blender I/O v4.0.44",
		"version":"2.0"
	},
	"scene":0,
	"scenes":[
		{
			"name":"Scene",
			"nodes":[
				0,
				1,
				2,
				3,
				4,
				5,
				6,
				7
			]
		}
	],
	"nodes":[
		{
			"mesh":0,
			"name":"TopAstra_Corner_Round_Inner"
		},
		{
			"mesh":1,
			"name":"TopAstra_Corner_Round_Inner_01_convcolonly"
		},
		{
			"mesh":2,
			"name":"TopAstra_Corner_Round_Inner_02_convcolonly"
		},
		{
			"mesh":3,
			"name":"TopAstra_Corner_Round_Inner_03_convcolonly"
		},
		{
			"mesh":4,
			"name":"TopAstra_Corner_Round_Inner_04_convcolonly"
		},
		{
			"mesh":5,
			"name":"TopAstra_Corner_Round_Inner_05_convcolonly"
		},
		{
			"mesh":6,
			"name":"TopAstra_Corner_Round_Inner_06_convcolonly"
		},
		{
			"mesh":7,
			"name":"TopAstra_Corner_Round_Inner_07_convcolonly"
		}
	],
	"materials":[
		{
			"doubleSided":true,
			"name":"MI_Trim_03",
			"normalTexture":{
				"index":0
			},
			"pbrMetallicRoughness":{
				"baseColorTexture":{
					"index":1
				},
				"metallicRoughnessTexture":{
					"index":2
				}
			}
		},
		{
			"doubleSided":true,
			"name":"M_Decal_White",
			"pbrMetallicRoughness":{
				"baseColorTexture":{
					"index":3
				},
				"metallicFactor":0,
				"roughnessFactor":0.5
			}
		},
		{
			"doubleSided":true,
			"name":"MI_Trim_03_Dark",
			"normalTexture":{
				"index":4
			},
			"pbrMetallicRoughness":{
				"baseColorTexture":{
					"index":5
				},
				"metallicRoughnessTexture":{
					"index":6
				}
			}
		},
		{
			"doubleSided":true,
			"name":"Collision",
			"pbrMetallicRoughness":{
				"baseColorFactor":[
					0.11006110906600952,
					0.2556236684322357,
					0.8000785112380981,
					1
				],
				"metallicFactor":0,
				"roughnessFactor":0.5
			}
		}
	],
	"meshes":[
		{
			"name":"Plane.143",
			"primitives":[
				{
					"attributes":{
						"POSITION":0,
						"NORMAL":1,
						"TEXCOORD_0":2
					},
					"indices":3,
					"material":0
				},
				{
					"attributes":{
						"POSITION":4,
						"NORMAL":5,
						"TEXCOORD_0":6
					},
					"indices":7,
					"material":1
				},
				{
					"attributes":{
						"POSITION":8,
						"NORMAL":9,
						"TEXCOORD_0":10
					},
					"indices":11,
					"material":2
				}
			]
		},
		{
			"name":"Cube.223",
			"primitives":[
				{
					"attributes":{
						"POSITION":12,
						"NORMAL":13,
						"TEXCOORD_0":14
					},
					"indices":15,
					"material":3
				}
			]
		},
		{
			"name":"Cube.224",
			"primitives":[
				{
					"attributes":{
						"POSITION":16,
						"NORMAL":17,
						"TEXCOORD_0":18
					},
					"indices":19,
					"material":3
				}
			]
		},
		{
			"name":"Cube.225",
			"primitives":[
				{
					"attributes":{
						"POSITION":20,
						"NORMAL":21,
						"TEXCOORD_0":22
					},
					"indices":23,
					"material":3
				}
			]
		},
		{
			"name":"Cube.226",
			"primitives":[
				{
					"attributes":{
						"POSITION":24,
						"NORMAL":25,
						"TEXCOORD_0":26
					},
					"indices":27,
					"material":3
				}
			]
		},
		{
			"name":"Cube.227",
			"primitives":[
				{
					"attributes":{
						"POSITION":28,
						"NORMAL":29,
						"TEXCOORD_0":30
					},
					"indices":31,
					"material":3
				}
			]
		},
		{
			"name":"Cube.228",
			"primitives":[
				{
					"attributes":{
						"POSITION":32,
						"NORMAL":33,
						"TEXCOORD_0":34
					},
					"indices":35,
					"material":3
				}
			]
		},
		{
			"name":"Cube.229",
			"primitives":[
				{
					"attributes":{
						"POSITION":36,
						"NORMAL":37,
						"TEXCOORD_0":38
					},
					"indices":39,
					"material":3
				}
			]
		}
	],
	"textures":[
		{
			"sampler":0,
			"source":0
		},
		{
			"sampler":0,
			"source":1
		},
		{
			"sampler":0,
			"source":2
		},
		{
			"sampler":0,
			"source":3
		},
		{
			"sampler":0,
			"source":0
		},
		{
			"sampler":0,
			"source":4
		},
		{
			"sampler":0,
			"source":2
		}
	],
	"images":[
		{
			"mimeType":"image/png",
			"name":"T_Trim_03_Normal",
			"uri":"T_Trim_03_Normal.png"
		},
		{
			"mimeType":"image/png",
			"name":"T_Trim_03_BaseColor",
			"uri":"T_Trim_03_BaseColor.png"
		},
		{
			"mimeType":"image/png",
			"name":"T_Trim_03_ORM",
			"uri":"T_Trim_03_ORM.png"
		},
		{
			"mimeType":"image/png",
			"name":"T_Decals",
			"uri":"T_Decals.png"
		},
		{
			"mimeType":"image/png",
			"name":"T_Trim_03_Cables",
			"uri":"T_Trim_03_Cables.png"
		}
	],
	"accessors":[
		{
			"bufferView":0,
			"componentType":5126,
			"count":66,
			"max":[
				-1.366122841835022,
				5.000000953674316,
				-1.3661432266235352
			],
			"min":[
				-3.7462236881256104,
				3,
				-3.7462306022644043
			],
			"type":"VEC3"
		},
		{
			"bufferView":1,
			"componentType":5126,
			"count":66,
			"type":"VEC3"
		},
		{
			"bufferView":2,
			"componentType":5126,
			"count":66,
			"type":"VEC2"
		},
		{
			"bufferView":3,
			"componentType":5123,
			"count":144,
			"type":"SCALAR"
		},
		{
			"bufferView":4,
			"componentType":5126,
			"count":28,
			"max":[
				-0.28595295548439026,
				3.217202663421631,
				-0.29090750217437744
			],
			"min":[
				-3.977426528930664,
				3.0658836364746094,
				-3.977757692337036
			],
			"type":"VEC3"
		},
		{
			"bufferView":5,
			"componentType":5126,
			"count":28,
			"type":"VEC3"
		},
		{
			"bufferView":6,
			"componentType":5126,
			"count":28,
			"type":"VEC2"
		},
		{
			"bufferView":7,
			"componentType":5123,
			"count":60,
			"type":"SCALAR"
		},
		{
			"bufferView":8,
			"componentType":5126,
			"count":76,
			"max":[
				1.7802025240598596e-06,
				5.000000953674316,
				-2.224610398116056e-05
			],
			"min":[
				-4.000000476837158,
				2.999999761581421,
				-3.999999761581421
			],
			"type":"VEC3"
		},
		{
			"bufferView":9,
			"componentType":5126,
			"count":76,
			"type":"VEC3"
		},
		{
			"bufferView":10,
			"componentType":5126,
			"count":76,
			"type":"VEC2"
		},
		{
			"bufferView":11,
			"componentType":5123,
			"count":192,
			"type":"SCALAR"
		},
		{
			"bufferView":12,
			"componentType":5126,
			"count":24,
			"max":[
				-3.54689884185791,
				5,
				-1.3461108207702637
			],
			"min":[
				-3.8309788703918457,
				3,
				-1.7376000881195068
			],
			"type":"VEC3"
		},
		{
			"bufferView":13,
			"componentType":5126,
			"count":24,
			"type":"VEC3"
		},
		{
			"bufferView":14,
			"componentType":5126,
			"count":24,
			"type":"VEC2"
		},
		{
			"bufferView":15,
			"componentType":5123,
			"count":36,
			"type":"SCALAR"
		},
		{
			"bufferView":16,
			"componentType":5126,
			"count":24,
			"max":[
				-2.3511412143707275,
				5,
				-2.3511409759521484
			],
			"min":[
				-3.397871732711792,
				3,
				-3.397871732711792
			],
			"type":"VEC3"
		},
		{
			"bufferView":17,
			"componentType":5126,
			"count":24,
			"type":"VEC3"
		},
		{
			"bufferView":18,
			"componentType":5126,
			"count":24,
			"type":"VEC2"
		},
		{
			"bufferView":19,
			"componentType":5123,
			"count":36,
			"type":"SCALAR"
		},
		{
			"bufferView":20,
			"componentType":5126,
			"count":24,
			"max":[
				-1.2360681295394897,
				5,
				-3.2360682487487793
			],
			"min":[
				-2.468698501586914,
				3,
				-3.9944379329681396
			],
			"type":"VEC3"
		},
		{
			"bufferView":21,
			"componentType":5126,
			"count":24,
			"type":"VEC3"
		},
		{
			"bufferView":22,
			"componentType":5126,
			"count":24,
			"type":"VEC2"
		},
		{
			"bufferView":23,
			"componentType":5123,
			"count":36,
			"type":"SCALAR"
		},
		{
			"bufferView":24,
			"componentType":5126,
			"count":24,
			"max":[
				-3.2360682487487793,
				5,
				-1.2360680103302002
			],
			"min":[
				-3.9944376945495605,
				3,
				-2.468698263168335
			],
			"type":"VEC3"
		},
		{
			"bufferView":25,
			"componentType":5126,
			"count":24,
			"type":"VEC3"
		},
		{
			"bufferView":26,
			"componentType":5126,
			"count":24,
			"type":"VEC2"
		},
		{
			"bufferView":27,
			"componentType":5123,
			"count":36,
			"type":"SCALAR"
		},
		{
			"bufferView":28,
			"componentType":5126,
			"count":24,
			"max":[
				0,
				5,
				-3.8042263984680176
			],
			"min":[
				-1.2978715896606445,
				3,
				-4.200000762939453
			],
			"type":"VEC3"
		},
		{
			"bufferView":29,
			"componentType":5126,
			"count":24,
			"type":"VEC3"
		},
		{
			"bufferView":30,
			"componentType":5126,
			"count":24,
			"type":"VEC2"
		},
		{
			"bufferView":31,
			"componentType":5123,
			"count":36,
			"type":"SCALAR"
		},
		{
			"bufferView":32,
			"componentType":5126,
			"count":24,
			"max":[
				-3.8042261600494385,
				5,
				0
			],
			"min":[
				-4.199999809265137,
				3,
				-1.2978713512420654
			],
			"type":"VEC3"
		},
		{
			"bufferView":33,
			"componentType":5126,
			"count":24,
			"type":"VEC3"
		},
		{
			"bufferView":34,
			"componentType":5126,
			"count":24,
			"type":"VEC2"
		},
		{
			"bufferView":35,
			"componentType":5123,
			"count":36,
			"type":"SCALAR"
		},
		{
			"bufferView":36,
			"componentType":5126,
			"count":24,
			"max":[
				-1.3620407581329346,
				5,
				-3.5389339923858643
			],
			"min":[
				-1.7259916067123413,
				3,
				-3.846911668777466
			],
			"type":"VEC3"
		},
		{
			"bufferView":37,
			"componentType":5126,
			"count":24,
			"type":"VEC3"
		},
		{
			"bufferView":38,
			"componentType":5126,
			"count":24,
			"type":"VEC2"
		},
		{
			"bufferView":39,
			"componentType":5123,
			"count":36,
			"type":"SCALAR"
		}
	],
	"bufferViews":[
		{
			"buffer":0,
			"byteLength":792,
			"byteOffset":0,
			"target":34962
		},
		{
			"buffer":0,
			"byteLength":792,
			"byteOffset":792,
			"target":34962
		},
		{
			"buffer":0,
			"byteLength":528,
			"byteOffset":1584,
			"target":34962
		},
		{
			"buffer":0,
			"byteLength":288,
			"byteOffset":2112,
			"target":34963
		},
		{
			"buffer":0,
			"byteLength":336,
			"byteOffset":2400,
			"target":34962
		},
		{
			"buffer":0,
			"byteLength":336,
			"byteOffset":2736,
			"target":34962
		},
		{
			"buffer":0,
			"byteLength":224,
			"byteOffset":3072,
			"target":34962
		},
		{
			"buffer":0,
			"byteLength":120,
			"byteOffset":3296,
			"target":34963
		},
		{
			"buffer":0,
			"byteLength":912,
			"byteOffset":3416,
			"target":34962
		},
		{
			"buffer":0,
			"byteLength":912,
			"byteOffset":4328,
			"target":34962
		},
		{
			"buffer":0,
			"byteLength":608,
			"byteOffset":5240,
			"target":34962
		},
		{
			"buffer":0,
			"byteLength":384,
			"byteOffset":5848,
			"target":34963
		},
		{
			"buffer":0,
			"byteLength":288,
			"byteOffset":6232,
			"target":34962
		},
		{
			"buffer":0,
			"byteLength":288,
			"byteOffset":6520,
			"target":34962
		},
		{
			"buffer":0,
			"byteLength":192,
			"byteOffset":6808,
			"target":34962
		},
		{
			"buffer":0,
			"byteLength":72,
			"byteOffset":7000,
			"target":34963
		},
		{
			"buffer":0,
			"byteLength":288,
			"byteOffset":7072,
			"target":34962
		},
		{
			"buffer":0,
			"byteLength":288,
			"byteOffset":7360,
			"target":34962
		},
		{
			"buffer":0,
			"byteLength":192,
			"byteOffset":7648,
			"target":34962
		},
		{
			"buffer":0,
			"byteLength":72,
			"byteOffset":7840,
			"target":34963
		},
		{
			"buffer":0,
			"byteLength":288,
			"byteOffset":7912,
			"target":34962
		},
		{
			"buffer":0,
			"byteLength":288,
			"byteOffset":8200,
			"target":34962
		},
		{
			"buffer":0,
			"byteLength":192,
			"byteOffset":8488,
			"target":34962
		},
		{
			"buffer":0,
			"byteLength":72,
			"byteOffset":8680,
			"target":34963
		},
		{
			"buffer":0,
			"byteLength":288,
			"byteOffset":8752,
			"target":34962
		},
		{
			"buffer":0,
			"byteLength":288,
			"byteOffset":9040,
			"target":34962
		},
		{
			"buffer":0,
			"byteLength":192,
			"byteOffset":9328,
			"target":34962
		},
		{
			"buffer":0,
			"byteLength":72,
			"byteOffset":9520,
			"target":34963
		},
		{
			"buffer":0,
			"byteLength":288,
			"byteOffset":9592,
			"target":34962
		},
		{
			"buffer":0,
			"byteLength":288,
			"byteOffset":9880,
			"target":34962
		},
		{
			"buffer":0,
			"byteLength":192,
			"byteOffset":10168,
			"target":34962
		},
		{
			"buffer":0,
			"byteLength":72,
			"byteOffset":10360,
			"target":34963
		},
		{
			"buffer":0,
			"byteLength":288,
			"byteOffset":10432,
			"target":34962
		},
		{
			"buffer":0,
			"byteLength":288,
			"byteOffset":10720,
			"target":34962
		},
		{
			"buffer":0,
			"byteLength":192,
			"byteOffset":11008,
			"target":34962
		},
		{
			"buffer":0,
			"byteLength":72,
			"byteOffset":11200,
			"target":34963
		},
		{
			"buffer":0,
			"byteLength":288,
			"byteOffset":11272,
			"target":34962
		},
		{
			"buffer":0,
			"byteLength":288,
			"byteOffset":11560,
			"target":34962
		},
		{
			"buffer":0,
			"byteLength":192,
			"byteOffset":11848,
			"target":34962
		},
		{
			"buffer":0,
			"byteLength":72,
			"byteOffset":12040,
			"target":34963
		}
	],
	"samplers":[
		{
			"magFilter":9729,
			"minFilter":9987
		}
	],
	"buffers":[
		{
			"byteLength":12112,
			"uri":"TopAstra_Corner_Round_Inner.bin"
		}
	]
}
