{
	"asset":{
		"generator":"Khronos glTF Blender I/O v4.0.44",
		"version":"2.0"
	},
	"extensionsUsed":[
		"KHR_materials_specular",
		"KHR_materials_ior"
	],
	"scene":0,
	"scenes":[
		{
			"name":"Scene",
			"nodes":[
				0,
				1,
				2
			]
		}
	],
	"nodes":[
		{
			"mesh":0,
			"name":"TopCables_Corner_Square_Inner"
		},
		{
			"mesh":1,
			"name":"TopCables_Corner_Square_Inner_01_convcolonly"
		},
		{
			"mesh":2,
			"name":"TopCables_Corner_Square_Inner_02_convcolonly"
		}
	],
	"materials":[
		{
			"doubleSided":true,
			"name":"MI_Trim_02",
			"normalTexture":{
				"index":0
			},
			"pbrMetallicRoughness":{
				"baseColorTexture":{
					"index":1
				},
				"metallicRoughnessTexture":{
					"index":2
				}
			}
		},
		{
			"doubleSided":true,
			"extensions":{
				"KHR_materials_specular":{
					"specularFactor":0
				},
				"KHR_materials_ior":{
					"ior":1.4500000476837158
				}
			},
			"name":"MI_Trim_01",
			"normalTexture":{
				"index":3
			},
			"pbrMetallicRoughness":{
				"baseColorTexture":{
					"index":4
				},
				"metallicRoughnessTexture":{
					"index":5
				}
			}
		},
		{
			"doubleSided":true,
			"name":"MI_Trim_03_Dark",
			"normalTexture":{
				"index":6
			},
			"pbrMetallicRoughness":{
				"baseColorTexture":{
					"index":7
				},
				"metallicRoughnessTexture":{
					"index":8
				}
			}
		},
		{
			"doubleSided":true,
			"name":"MI_Trim_03_Cables_Blue",
			"normalTexture":{
				"index":9
			},
			"pbrMetallicRoughness":{
				"baseColorTexture":{
					"index":10
				},
				"metallicRoughnessTexture":{
					"index":11
				}
			}
		},
		{
			"doubleSided":true,
			"name":"Collision",
			"pbrMetallicRoughness":{
				"baseColorFactor":[
					0.11006110906600952,
					0.2556236684322357,
					0.8000785112380981,
					1
				],
				"metallicFactor":0,
				"roughnessFactor":0.5
			}
		}
	],
	"meshes":[
		{
			"name":"Plane.074",
			"primitives":[
				{
					"attributes":{
						"POSITION":0,
						"NORMAL":1,
						"TEXCOORD_0":2
					},
					"indices":3,
					"material":0
				},
				{
					"attributes":{
						"POSITION":4,
						"NORMAL":5,
						"TEXCOORD_0":6
					},
					"indices":7,
					"material":1
				},
				{
					"attributes":{
						"POSITION":8,
						"NORMAL":9,
						"TEXCOORD_0":10
					},
					"indices":11,
					"material":2
				},
				{
					"attributes":{
						"POSITION":12,
						"NORMAL":13,
						"TEXCOORD_0":14
					},
					"indices":15,
					"material":3
				}
			]
		},
		{
			"name":"UCX_TopCables_Corner_Square_Inner_0",
			"primitives":[
				{
					"attributes":{
						"POSITION":16,
						"NORMAL":17,
						"TEXCOORD_0":18
					},
					"indices":19,
					"material":4
				}
			]
		},
		{
			"name":"UCX_TopCables_Corner_Square_Inner_1",
			"primitives":[
				{
					"attributes":{
						"POSITION":20,
						"NORMAL":21,
						"TEXCOORD_0":22
					},
					"indices":23,
					"material":4
				}
			]
		}
	],
	"textures":[
		{
			"sampler":0,
			"source":0
		},
		{
			"sampler":0,
			"source":1
		},
		{
			"sampler":0,
			"source":2
		},
		{
			"sampler":0,
			"source":3
		},
		{
			"sampler":0,
			"source":4
		},
		{
			"sampler":0,
			"source":5
		},
		{
			"sampler":0,
			"source":6
		},
		{
			"sampler":0,
			"source":7
		},
		{
			"sampler":0,
			"source":8
		},
		{
			"sampler":0,
			"source":6
		},
		{
			"sampler":0,
			"source":7
		},
		{
			"sampler":0,
			"source":8
		}
	],
	"images":[
		{
			"mimeType":"image/png",
			"name":"T_Trim_02_Normal",
			"uri":"T_Trim_02_Normal.png"
		},
		{
			"mimeType":"image/png",
			"name":"T_Trim_02_BaseColor_Red",
			"uri":"T_Trim_02_BaseColor_Red.png"
		},
		{
			"mimeType":"image/png",
			"name":"T_Trim_02_ORM",
			"uri":"T_Trim_02_ORM.png"
		},
		{
			"mimeType":"image/png",
			"name":"T_Trim_01_Normal",
			"uri":"T_Trim_01_Normal.png"
		},
		{
			"mimeType":"image/png",
			"name":"T_Trim_01_BaseColor_Red",
			"uri":"T_Trim_01_BaseColor_Red.png"
		},
		{
			"mimeType":"image/png",
			"name":"T_Trim_01_ORM",
			"uri":"T_Trim_01_ORM.png"
		},
		{
			"mimeType":"image/png",
			"name":"T_Trim_03_Normal",
			"uri":"T_Trim_03_Normal.png"
		},
		{
			"mimeType":"image/png",
			"name":"T_Trim_03_Cables",
			"uri":"T_Trim_03_Cables.png"
		},
		{
			"mimeType":"image/png",
			"name":"T_Trim_03_ORM",
			"uri":"T_Trim_03_ORM.png"
		}
	],
	"accessors":[
		{
			"bufferView":0,
			"componentType":5126,
			"count":407,
			"max":[
				4.76837158203125e-07,
				5,
				4.76837158203125e-07
			],
			"min":[
				-4.160669326782227,
				3.3321964740753174,
				-4.160669326782227
			],
			"type":"VEC3"
		},
		{
			"bufferView":1,
			"componentType":5126,
			"count":407,
			"type":"VEC3"
		},
		{
			"bufferView":2,
			"componentType":5126,
			"count":407,
			"type":"VEC2"
		},
		{
			"bufferView":3,
			"componentType":5123,
			"count":1206,
			"type":"SCALAR"
		},
		{
			"bufferView":4,
			"componentType":5126,
			"count":1068,
			"max":[
				9.5367431640625e-07,
				5,
				9.5367431640625e-07
			],
			"min":[
				-4.168574810028076,
				3,
				-4.168574810028076
			],
			"type":"VEC3"
		},
		{
			"bufferView":5,
			"componentType":5126,
			"count":1068,
			"type":"VEC3"
		},
		{
			"bufferView":6,
			"componentType":5126,
			"count":1068,
			"type":"VEC2"
		},
		{
			"bufferView":7,
			"componentType":5123,
			"count":3132,
			"type":"SCALAR"
		},
		{
			"bufferView":8,
			"componentType":5126,
			"count":60,
			"max":[
				-0.8343502283096313,
				3.3322982788085938,
				-0.8343503475189209
			],
			"min":[
				-4.03416109085083,
				3.3322982788085938,
				-4.03416109085083
			],
			"type":"VEC3"
		},
		{
			"bufferView":9,
			"componentType":5126,
			"count":60,
			"type":"VEC3"
		},
		{
			"bufferView":10,
			"componentType":5126,
			"count":60,
			"type":"VEC2"
		},
		{
			"bufferView":11,
			"componentType":5123,
			"count":168,
			"type":"SCALAR"
		},
		{
			"bufferView":12,
			"componentType":5126,
			"count":1383,
			"max":[
				-0.23096120357513428,
				3.6931536197662354,
				-0.23096132278442383
			],
			"min":[
				-4.075721740722656,
				3.4643595218658447,
				-4.075721740722656
			],
			"type":"VEC3"
		},
		{
			"bufferView":13,
			"componentType":5126,
			"count":1383,
			"type":"VEC3"
		},
		{
			"bufferView":14,
			"componentType":5126,
			"count":1383,
			"type":"VEC2"
		},
		{
			"bufferView":15,
			"componentType":5123,
			"count":6834,
			"type":"SCALAR"
		},
		{
			"bufferView":16,
			"componentType":5126,
			"count":34,
			"max":[
				-3.7769007682800293,
				5,
				0
			],
			"min":[
				-4.199999809265137,
				3,
				-4
			],
			"type":"VEC3"
		},
		{
			"bufferView":17,
			"componentType":5126,
			"count":34,
			"type":"VEC3"
		},
		{
			"bufferView":18,
			"componentType":5126,
			"count":34,
			"type":"VEC2"
		},
		{
			"bufferView":19,
			"componentType":5123,
			"count":60,
			"type":"SCALAR"
		},
		{
			"bufferView":20,
			"componentType":5126,
			"count":34,
			"max":[
				1.8358782938321383e-07,
				5,
				-3.7769007682800293
			],
			"min":[
				-3.999999761581421,
				3,
				-4.199999809265137
			],
			"type":"VEC3"
		},
		{
			"bufferView":21,
			"componentType":5126,
			"count":34,
			"type":"VEC3"
		},
		{
			"bufferView":22,
			"componentType":5126,
			"count":34,
			"type":"VEC2"
		},
		{
			"bufferView":23,
			"componentType":5123,
			"count":60,
			"type":"SCALAR"
		}
	],
	"bufferViews":[
		{
			"buffer":0,
			"byteLength":4884,
			"byteOffset":0,
			"target":34962
		},
		{
			"buffer":0,
			"byteLength":4884,
			"byteOffset":4884,
			"target":34962
		},
		{
			"buffer":0,
			"byteLength":3256,
			"byteOffset":9768,
			"target":34962
		},
		{
			"buffer":0,
			"byteLength":2412,
			"byteOffset":13024,
			"target":34963
		},
		{
			"buffer":0,
			"byteLength":12816,
			"byteOffset":15436,
			"target":34962
		},
		{
			"buffer":0,
			"byteLength":12816,
			"byteOffset":28252,
			"target":34962
		},
		{
			"buffer":0,
			"byteLength":8544,
			"byteOffset":41068,
			"target":34962
		},
		{
			"buffer":0,
			"byteLength":6264,
			"byteOffset":49612,
			"target":34963
		},
		{
			"buffer":0,
			"byteLength":720,
			"byteOffset":55876,
			"target":34962
		},
		{
			"buffer":0,
			"byteLength":720,
			"byteOffset":56596,
			"target":34962
		},
		{
			"buffer":0,
			"byteLength":480,
			"byteOffset":57316,
			"target":34962
		},
		{
			"buffer":0,
			"byteLength":336,
			"byteOffset":57796,
			"target":34963
		},
		{
			"buffer":0,
			"byteLength":16596,
			"byteOffset":58132,
			"target":34962
		},
		{
			"buffer":0,
			"byteLength":16596,
			"byteOffset":74728,
			"target":34962
		},
		{
			"buffer":0,
			"byteLength":11064,
			"byteOffset":91324,
			"target":34962
		},
		{
			"buffer":0,
			"byteLength":13668,
			"byteOffset":102388,
			"target":34963
		},
		{
			"buffer":0,
			"byteLength":408,
			"byteOffset":116056,
			"target":34962
		},
		{
			"buffer":0,
			"byteLength":408,
			"byteOffset":116464,
			"target":34962
		},
		{
			"buffer":0,
			"byteLength":272,
			"byteOffset":116872,
			"target":34962
		},
		{
			"buffer":0,
			"byteLength":120,
			"byteOffset":117144,
			"target":34963
		},
		{
			"buffer":0,
			"byteLength":408,
			"byteOffset":117264,
			"target":34962
		},
		{
			"buffer":0,
			"byteLength":408,
			"byteOffset":117672,
			"target":34962
		},
		{
			"buffer":0,
			"byteLength":272,
			"byteOffset":118080,
			"target":34962
		},
		{
			"buffer":0,
			"byteLength":120,
			"byteOffset":118352,
			"target":34963
		}
	],
	"samplers":[
		{
			"magFilter":9729,
			"minFilter":9987
		}
	],
	"buffers":[
		{
			"byteLength":118472,
			"uri":"TopCables_Corner_Square_Inner.bin"
		}
	]
}
