{
	"asset":{
		"generator":"Khronos glTF Blender I/O v4.0.44",
		"version":"2.0"
	},
	"extensionsUsed":[
		"KHR_materials_specular",
		"KHR_materials_ior"
	],
	"scene":0,
	"scenes":[
		{
			"name":"Scene",
			"nodes":[
				0,
				1,
				2,
				3,
				4,
				5,
				6,
				7,
				8
			]
		}
	],
	"nodes":[
		{
			"mesh":0,
			"name":"TopCables_Corner_Round_Inner"
		},
		{
			"mesh":1,
			"name":"TopCables_Corner_Round_Inner_01_convcolonly"
		},
		{
			"mesh":2,
			"name":"TopCables_Corner_Round_Inner_02_convcolonly"
		},
		{
			"mesh":3,
			"name":"TopCables_Corner_Round_Inner_03_convcolonly"
		},
		{
			"mesh":4,
			"name":"TopCables_Corner_Round_Inner_04_convcolonly"
		},
		{
			"mesh":5,
			"name":"TopCables_Corner_Round_Inner_05_convcolonly"
		},
		{
			"mesh":6,
			"name":"TopCables_Corner_Round_Inner_06_convcolonly"
		},
		{
			"mesh":7,
			"name":"TopCables_Corner_Round_Inner_07_convcolonly"
		},
		{
			"mesh":8,
			"name":"TopCables_Corner_Round_Inner_08_convcolonly"
		}
	],
	"materials":[
		{
			"doubleSided":true,
			"name":"MI_Trim_02",
			"normalTexture":{
				"index":0
			},
			"pbrMetallicRoughness":{
				"baseColorTexture":{
					"index":1
				},
				"metallicRoughnessTexture":{
					"index":2
				}
			}
		},
		{
			"doubleSided":true,
			"extensions":{
				"KHR_materials_specular":{
					"specularFactor":0
				},
				"KHR_materials_ior":{
					"ior":1.4500000476837158
				}
			},
			"name":"MI_Trim_01",
			"normalTexture":{
				"index":3
			},
			"pbrMetallicRoughness":{
				"baseColorTexture":{
					"index":4
				},
				"metallicRoughnessTexture":{
					"index":5
				}
			}
		},
		{
			"doubleSided":true,
			"name":"MI_Trim_03_Dark",
			"normalTexture":{
				"index":6
			},
			"pbrMetallicRoughness":{
				"baseColorTexture":{
					"index":7
				},
				"metallicRoughnessTexture":{
					"index":8
				}
			}
		},
		{
			"doubleSided":true,
			"name":"MI_Trim_03_Cables_Blue",
			"normalTexture":{
				"index":9
			},
			"pbrMetallicRoughness":{
				"baseColorTexture":{
					"index":10
				},
				"metallicRoughnessTexture":{
					"index":11
				}
			}
		},
		{
			"doubleSided":true,
			"name":"Collision",
			"pbrMetallicRoughness":{
				"baseColorFactor":[
					0.11006110906600952,
					0.2556236684322357,
					0.8000785112380981,
					1
				],
				"metallicFactor":0,
				"roughnessFactor":0.5
			}
		}
	],
	"meshes":[
		{
			"name":"Plane.089",
			"primitives":[
				{
					"attributes":{
						"POSITION":0,
						"NORMAL":1,
						"TEXCOORD_0":2
					},
					"indices":3,
					"material":0
				},
				{
					"attributes":{
						"POSITION":4,
						"NORMAL":5,
						"TEXCOORD_0":6
					},
					"indices":7,
					"material":1
				},
				{
					"attributes":{
						"POSITION":8,
						"NORMAL":9,
						"TEXCOORD_0":10
					},
					"indices":11,
					"material":2
				},
				{
					"attributes":{
						"POSITION":12,
						"NORMAL":13,
						"TEXCOORD_0":14
					},
					"indices":15,
					"material":3
				}
			]
		},
		{
			"name":"UCX_TopPlastic_Straight_2.005",
			"primitives":[
				{
					"attributes":{
						"POSITION":16,
						"NORMAL":17,
						"TEXCOORD_0":18
					},
					"indices":19,
					"material":4
				}
			]
		},
		{
			"name":"UCX_TopPlastic_Straight_2.006",
			"primitives":[
				{
					"attributes":{
						"POSITION":20,
						"NORMAL":21,
						"TEXCOORD_0":22
					},
					"indices":23,
					"material":4
				}
			]
		},
		{
			"name":"UCX_TopPlastic_Straight_2.007",
			"primitives":[
				{
					"attributes":{
						"POSITION":24,
						"NORMAL":25,
						"TEXCOORD_0":26
					},
					"indices":27,
					"material":4
				}
			]
		},
		{
			"name":"UCX_TopPlastic_Straight_2.008",
			"primitives":[
				{
					"attributes":{
						"POSITION":28,
						"NORMAL":29,
						"TEXCOORD_0":30
					},
					"indices":27,
					"material":4
				}
			]
		},
		{
			"name":"UCX_TopPlastic_Straight_2.009",
			"primitives":[
				{
					"attributes":{
						"POSITION":31,
						"NORMAL":32,
						"TEXCOORD_0":33
					},
					"indices":23,
					"material":4
				}
			]
		},
		{
			"name":"UCX_TopPlastic_Straight_2.010",
			"primitives":[
				{
					"attributes":{
						"POSITION":34,
						"NORMAL":35,
						"TEXCOORD_0":36
					},
					"indices":23,
					"material":4
				}
			]
		},
		{
			"name":"UCX_TopPlastic_Straight_2.011",
			"primitives":[
				{
					"attributes":{
						"POSITION":37,
						"NORMAL":38,
						"TEXCOORD_0":39
					},
					"indices":27,
					"material":4
				}
			]
		},
		{
			"name":"UCX_TopPlastic_Straight_2.012",
			"primitives":[
				{
					"attributes":{
						"POSITION":40,
						"NORMAL":41,
						"TEXCOORD_0":42
					},
					"indices":43,
					"material":4
				}
			]
		}
	],
	"textures":[
		{
			"sampler":0,
			"source":0
		},
		{
			"sampler":0,
			"source":1
		},
		{
			"sampler":0,
			"source":2
		},
		{
			"sampler":0,
			"source":3
		},
		{
			"sampler":0,
			"source":4
		},
		{
			"sampler":0,
			"source":5
		},
		{
			"sampler":0,
			"source":6
		},
		{
			"sampler":0,
			"source":7
		},
		{
			"sampler":0,
			"source":8
		},
		{
			"sampler":0,
			"source":6
		},
		{
			"sampler":0,
			"source":7
		},
		{
			"sampler":0,
			"source":8
		}
	],
	"images":[
		{
			"mimeType":"image/png",
			"name":"T_Trim_02_Normal",
			"uri":"T_Trim_02_Normal.png"
		},
		{
			"mimeType":"image/png",
			"name":"T_Trim_02_BaseColor_Red",
			"uri":"T_Trim_02_BaseColor_Red.png"
		},
		{
			"mimeType":"image/png",
			"name":"T_Trim_02_ORM",
			"uri":"T_Trim_02_ORM.png"
		},
		{
			"mimeType":"image/png",
			"name":"T_Trim_01_Normal",
			"uri":"T_Trim_01_Normal.png"
		},
		{
			"mimeType":"image/png",
			"name":"T_Trim_01_BaseColor_Red",
			"uri":"T_Trim_01_BaseColor_Red.png"
		},
		{
			"mimeType":"image/png",
			"name":"T_Trim_01_ORM",
			"uri":"T_Trim_01_ORM.png"
		},
		{
			"mimeType":"image/png",
			"name":"T_Trim_03_Normal",
			"uri":"T_Trim_03_Normal.png"
		},
		{
			"mimeType":"image/png",
			"name":"T_Trim_03_Cables",
			"uri":"T_Trim_03_Cables.png"
		},
		{
			"mimeType":"image/png",
			"name":"T_Trim_03_ORM",
			"uri":"T_Trim_03_ORM.png"
		}
	],
	"accessors":[
		{
			"bufferView":0,
			"componentType":5126,
			"count":406,
			"max":[
				1.7100486502386048e-06,
				5.000000953674316,
				-2.113562004524283e-05
			],
			"min":[
				-4.160669326782227,
				3.3322980403900146,
				-4.160668849945068
			],
			"type":"VEC3"
		},
		{
			"bufferView":1,
			"componentType":5126,
			"count":406,
			"type":"VEC3"
		},
		{
			"bufferView":2,
			"componentType":5126,
			"count":406,
			"type":"VEC2"
		},
		{
			"bufferView":3,
			"componentType":5123,
			"count":1200,
			"type":"SCALAR"
		},
		{
			"bufferView":4,
			"componentType":5126,
			"count":1076,
			"max":[
				1.834683303059137e-06,
				5.000000953674316,
				-2.0381776266731322e-05
			],
			"min":[
				-4.080936908721924,
				2.999999761581421,
				-4.0809407234191895
			],
			"type":"VEC3"
		},
		{
			"bufferView":5,
			"componentType":5126,
			"count":1076,
			"type":"VEC3"
		},
		{
			"bufferView":6,
			"componentType":5126,
			"count":1076,
			"type":"VEC2"
		},
		{
			"bufferView":7,
			"componentType":5123,
			"count":3132,
			"type":"SCALAR"
		},
		{
			"bufferView":8,
			"componentType":5126,
			"count":60,
			"max":[
				-0.6514102220535278,
				3.332298994064331,
				-0.6514319777488708
			],
			"min":[
				-3.974947214126587,
				3.3322980403900146,
				-3.974949598312378
			],
			"type":"VEC3"
		},
		{
			"bufferView":9,
			"componentType":5126,
			"count":60,
			"type":"VEC3"
		},
		{
			"bufferView":10,
			"componentType":5126,
			"count":60,
			"type":"VEC2"
		},
		{
			"bufferView":11,
			"componentType":5123,
			"count":168,
			"type":"SCALAR"
		},
		{
			"bufferView":12,
			"componentType":5126,
			"count":1378,
			"max":[
				-0.13644421100616455,
				3.6935038566589355,
				-0.1821330040693283
			],
			"min":[
				-4.0632524490356445,
				3.4643595218658447,
				-4.0395708084106445
			],
			"type":"VEC3"
		},
		{
			"bufferView":13,
			"componentType":5126,
			"count":1378,
			"type":"VEC3"
		},
		{
			"bufferView":14,
			"componentType":5126,
			"count":1378,
			"type":"VEC2"
		},
		{
			"bufferView":15,
			"componentType":5123,
			"count":6912,
			"type":"SCALAR"
		},
		{
			"bufferView":16,
			"componentType":5126,
			"count":34,
			"max":[
				-3.7043285369873047,
				5,
				0
			],
			"min":[
				-4.199999809265137,
				3,
				-0.8193793296813965
			],
			"type":"VEC3"
		},
		{
			"bufferView":17,
			"componentType":5126,
			"count":34,
			"type":"VEC3"
		},
		{
			"bufferView":18,
			"componentType":5126,
			"count":34,
			"type":"VEC2"
		},
		{
			"bufferView":19,
			"componentType":5123,
			"count":60,
			"type":"SCALAR"
		},
		{
			"bufferView":20,
			"componentType":5126,
			"count":34,
			"max":[
				-3.1403777599334717,
				5,
				-1.445357322692871
			],
			"min":[
				-3.880293846130371,
				3,
				-2.333394765853882
			],
			"type":"VEC3"
		},
		{
			"bufferView":21,
			"componentType":5126,
			"count":34,
			"type":"VEC3"
		},
		{
			"bufferView":22,
			"componentType":5126,
			"count":34,
			"type":"VEC2"
		},
		{
			"bufferView":23,
			"componentType":5123,
			"count":60,
			"type":"SCALAR"
		},
		{
			"bufferView":24,
			"componentType":5126,
			"count":34,
			"max":[
				-2.0983328819274902,
				5,
				-2.6706719398498535
			],
			"min":[
				-2.969848155975342,
				3,
				-3.4921720027923584
			],
			"type":"VEC3"
		},
		{
			"bufferView":25,
			"componentType":5126,
			"count":34,
			"type":"VEC3"
		},
		{
			"bufferView":26,
			"componentType":5126,
			"count":34,
			"type":"VEC2"
		},
		{
			"bufferView":27,
			"componentType":5123,
			"count":60,
			"type":"SCALAR"
		},
		{
			"bufferView":28,
			"componentType":5126,
			"count":34,
			"max":[
				-0.7368361353874207,
				5,
				-3.489400625228882
			],
			"min":[
				-1.6072702407836914,
				3,
				-4.119297027587891
			],
			"type":"VEC3"
		},
		{
			"bufferView":29,
			"componentType":5126,
			"count":34,
			"type":"VEC3"
		},
		{
			"bufferView":30,
			"componentType":5126,
			"count":34,
			"type":"VEC2"
		},
		{
			"bufferView":31,
			"componentType":5126,
			"count":34,
			"max":[
				-3.48940110206604,
				5,
				-0.7368367910385132
			],
			"min":[
				-4.119297981262207,
				3,
				-1.607270359992981
			],
			"type":"VEC3"
		},
		{
			"bufferView":32,
			"componentType":5126,
			"count":34,
			"type":"VEC3"
		},
		{
			"bufferView":33,
			"componentType":5126,
			"count":34,
			"type":"VEC2"
		},
		{
			"bufferView":34,
			"componentType":5126,
			"count":34,
			"max":[
				-2.6706714630126953,
				5,
				-2.0983335971832275
			],
			"min":[
				-3.4921720027923584,
				3,
				-2.969848155975342
			],
			"type":"VEC3"
		},
		{
			"bufferView":35,
			"componentType":5126,
			"count":34,
			"type":"VEC3"
		},
		{
			"bufferView":36,
			"componentType":5126,
			"count":34,
			"type":"VEC2"
		},
		{
			"bufferView":37,
			"componentType":5126,
			"count":34,
			"max":[
				-1.4453566074371338,
				5,
				-3.1403777599334717
			],
			"min":[
				-2.333394765853882,
				3,
				-3.880293369293213
			],
			"type":"VEC3"
		},
		{
			"bufferView":38,
			"componentType":5126,
			"count":34,
			"type":"VEC3"
		},
		{
			"bufferView":39,
			"componentType":5126,
			"count":34,
			"type":"VEC2"
		},
		{
			"bufferView":40,
			"componentType":5126,
			"count":34,
			"max":[
				6.556510925292969e-07,
				5,
				-3.7043275833129883
			],
			"min":[
				-0.8193792104721069,
				3,
				-4.19999885559082
			],
			"type":"VEC3"
		},
		{
			"bufferView":41,
			"componentType":5126,
			"count":34,
			"type":"VEC3"
		},
		{
			"bufferView":42,
			"componentType":5126,
			"count":34,
			"type":"VEC2"
		},
		{
			"bufferView":43,
			"componentType":5123,
			"count":60,
			"type":"SCALAR"
		}
	],
	"bufferViews":[
		{
			"buffer":0,
			"byteLength":4872,
			"byteOffset":0,
			"target":34962
		},
		{
			"buffer":0,
			"byteLength":4872,
			"byteOffset":4872,
			"target":34962
		},
		{
			"buffer":0,
			"byteLength":3248,
			"byteOffset":9744,
			"target":34962
		},
		{
			"buffer":0,
			"byteLength":2400,
			"byteOffset":12992,
			"target":34963
		},
		{
			"buffer":0,
			"byteLength":12912,
			"byteOffset":15392,
			"target":34962
		},
		{
			"buffer":0,
			"byteLength":12912,
			"byteOffset":28304,
			"target":34962
		},
		{
			"buffer":0,
			"byteLength":8608,
			"byteOffset":41216,
			"target":34962
		},
		{
			"buffer":0,
			"byteLength":6264,
			"byteOffset":49824,
			"target":34963
		},
		{
			"buffer":0,
			"byteLength":720,
			"byteOffset":56088,
			"target":34962
		},
		{
			"buffer":0,
			"byteLength":720,
			"byteOffset":56808,
			"target":34962
		},
		{
			"buffer":0,
			"byteLength":480,
			"byteOffset":57528,
			"target":34962
		},
		{
			"buffer":0,
			"byteLength":336,
			"byteOffset":58008,
			"target":34963
		},
		{
			"buffer":0,
			"byteLength":16536,
			"byteOffset":58344,
			"target":34962
		},
		{
			"buffer":0,
			"byteLength":16536,
			"byteOffset":74880,
			"target":34962
		},
		{
			"buffer":0,
			"byteLength":11024,
			"byteOffset":91416,
			"target":34962
		},
		{
			"buffer":0,
			"byteLength":13824,
			"byteOffset":102440,
			"target":34963
		},
		{
			"buffer":0,
			"byteLength":408,
			"byteOffset":116264,
			"target":34962
		},
		{
			"buffer":0,
			"byteLength":408,
			"byteOffset":116672,
			"target":34962
		},
		{
			"buffer":0,
			"byteLength":272,
			"byteOffset":117080,
			"target":34962
		},
		{
			"buffer":0,
			"byteLength":120,
			"byteOffset":117352,
			"target":34963
		},
		{
			"buffer":0,
			"byteLength":408,
			"byteOffset":117472,
			"target":34962
		},
		{
			"buffer":0,
			"byteLength":408,
			"byteOffset":117880,
			"target":34962
		},
		{
			"buffer":0,
			"byteLength":272,
			"byteOffset":118288,
			"target":34962
		},
		{
			"buffer":0,
			"byteLength":120,
			"byteOffset":118560,
			"target":34963
		},
		{
			"buffer":0,
			"byteLength":408,
			"byteOffset":118680,
			"target":34962
		},
		{
			"buffer":0,
			"byteLength":408,
			"byteOffset":119088,
			"target":34962
		},
		{
			"buffer":0,
			"byteLength":272,
			"byteOffset":119496,
			"target":34962
		},
		{
			"buffer":0,
			"byteLength":120,
			"byteOffset":119768,
			"target":34963
		},
		{
			"buffer":0,
			"byteLength":408,
			"byteOffset":119888,
			"target":34962
		},
		{
			"buffer":0,
			"byteLength":408,
			"byteOffset":120296,
			"target":34962
		},
		{
			"buffer":0,
			"byteLength":272,
			"byteOffset":120704,
			"target":34962
		},
		{
			"buffer":0,
			"byteLength":408,
			"byteOffset":120976,
			"target":34962
		},
		{
			"buffer":0,
			"byteLength":408,
			"byteOffset":121384,
			"target":34962
		},
		{
			"buffer":0,
			"byteLength":272,
			"byteOffset":121792,
			"target":34962
		},
		{
			"buffer":0,
			"byteLength":408,
			"byteOffset":122064,
			"target":34962
		},
		{
			"buffer":0,
			"byteLength":408,
			"byteOffset":122472,
			"target":34962
		},
		{
			"buffer":0,
			"byteLength":272,
			"byteOffset":122880,
			"target":34962
		},
		{
			"buffer":0,
			"byteLength":408,
			"byteOffset":123152,
			"target":34962
		},
		{
			"buffer":0,
			"byteLength":408,
			"byteOffset":123560,
			"target":34962
		},
		{
			"buffer":0,
			"byteLength":272,
			"byteOffset":123968,
			"target":34962
		},
		{
			"buffer":0,
			"byteLength":408,
			"byteOffset":124240,
			"target":34962
		},
		{
			"buffer":0,
			"byteLength":408,
			"byteOffset":124648,
			"target":34962
		},
		{
			"buffer":0,
			"byteLength":272,
			"byteOffset":125056,
			"target":34962
		},
		{
			"buffer":0,
			"byteLength":120,
			"byteOffset":125328,
			"target":34963
		}
	],
	"samplers":[
		{
			"magFilter":9729,
			"minFilter":9987
		}
	],
	"buffers":[
		{
			"byteLength":125448,
			"uri":"TopCables_Corner_Round_Inner.bin"
		}
	]
}
