{
	"asset":{
		"generator":"Khronos glTF Blender I/O v4.0.44",
		"version":"2.0"
	},
	"extensionsUsed":[
		"KHR_materials_specular",
		"KHR_materials_ior"
	],
	"scene":0,
	"scenes":[
		{
			"name":"Scene",
			"nodes":[
				0,
				1,
				2,
				3,
				4,
				5,
				6,
				7,
				8,
				9,
				10,
				11,
				12
			]
		}
	],
	"nodes":[
		{
			"mesh":0,
			"name":"TopCables_Corner_Round_Outer"
		},
		{
			"mesh":1,
			"name":"TopCables_Corner_Round_Outer_01_convcolonly"
		},
		{
			"mesh":2,
			"name":"TopCables_Corner_Round_Outer_02_convcolonly"
		},
		{
			"mesh":3,
			"name":"TopCables_Corner_Round_Outer_03_convcolonly"
		},
		{
			"mesh":4,
			"name":"TopCables_Corner_Round_Outer_04_convcolonly"
		},
		{
			"mesh":5,
			"name":"TopCables_Corner_Round_Outer_05_convcolonly"
		},
		{
			"mesh":6,
			"name":"TopCables_Corner_Round_Outer_06_convcolonly"
		},
		{
			"mesh":7,
			"name":"TopCables_Corner_Round_Outer_07_convcolonly"
		},
		{
			"mesh":8,
			"name":"TopCables_Corner_Round_Outer_08_convcolonly"
		},
		{
			"mesh":9,
			"name":"TopCables_Corner_Round_Outer_09_convcolonly"
		},
		{
			"mesh":10,
			"name":"TopCables_Corner_Round_Outer_10_convcolonly"
		},
		{
			"mesh":11,
			"name":"TopCables_Corner_Round_Outer_11_convcolonly"
		},
		{
			"mesh":12,
			"name":"TopCables_Corner_Round_Outer_12_convcolonly"
		}
	],
	"materials":[
		{
			"doubleSided":true,
			"name":"MI_Trim_02",
			"normalTexture":{
				"index":0
			},
			"pbrMetallicRoughness":{
				"baseColorTexture":{
					"index":1
				},
				"metallicRoughnessTexture":{
					"index":2
				}
			}
		},
		{
			"doubleSided":true,
			"extensions":{
				"KHR_materials_specular":{
					"specularFactor":0
				},
				"KHR_materials_ior":{
					"ior":1.4500000476837158
				}
			},
			"name":"MI_Trim_01",
			"normalTexture":{
				"index":3
			},
			"pbrMetallicRoughness":{
				"baseColorTexture":{
					"index":4
				},
				"metallicRoughnessTexture":{
					"index":5
				}
			}
		},
		{
			"doubleSided":true,
			"name":"MI_Trim_03_Dark",
			"normalTexture":{
				"index":6
			},
			"pbrMetallicRoughness":{
				"baseColorTexture":{
					"index":7
				},
				"metallicRoughnessTexture":{
					"index":8
				}
			}
		},
		{
			"doubleSided":true,
			"name":"MI_Trim_03_Cables_Blue",
			"normalTexture":{
				"index":9
			},
			"pbrMetallicRoughness":{
				"baseColorTexture":{
					"index":10
				},
				"metallicRoughnessTexture":{
					"index":11
				}
			}
		},
		{
			"doubleSided":true,
			"name":"Collision",
			"pbrMetallicRoughness":{
				"baseColorFactor":[
					0.11006110906600952,
					0.2556236684322357,
					0.8000785112380981,
					1
				],
				"metallicFactor":0,
				"roughnessFactor":0.5
			}
		}
	],
	"meshes":[
		{
			"name":"Plane.080",
			"primitives":[
				{
					"attributes":{
						"POSITION":0,
						"NORMAL":1,
						"TEXCOORD_0":2
					},
					"indices":3,
					"material":0
				},
				{
					"attributes":{
						"POSITION":4,
						"NORMAL":5,
						"TEXCOORD_0":6
					},
					"indices":7,
					"material":1
				},
				{
					"attributes":{
						"POSITION":8,
						"NORMAL":9,
						"TEXCOORD_0":10
					},
					"indices":11,
					"material":2
				},
				{
					"attributes":{
						"POSITION":12,
						"NORMAL":13,
						"TEXCOORD_0":14
					},
					"indices":15,
					"material":3
				}
			]
		},
		{
			"name":"UCX_TopPlastic_Straight_2.001",
			"primitives":[
				{
					"attributes":{
						"POSITION":16,
						"NORMAL":17,
						"TEXCOORD_0":18
					},
					"indices":19,
					"material":4
				}
			]
		},
		{
			"name":"UCX_TopPlastic_Straight_2.002",
			"primitives":[
				{
					"attributes":{
						"POSITION":20,
						"NORMAL":21,
						"TEXCOORD_0":22
					},
					"indices":23,
					"material":4
				}
			]
		},
		{
			"name":"UCX_TopPlastic_Straight_2.013",
			"primitives":[
				{
					"attributes":{
						"POSITION":24,
						"NORMAL":25,
						"TEXCOORD_0":26
					},
					"indices":27,
					"material":4
				}
			]
		},
		{
			"name":"UCX_TopPlastic_Straight_2.014",
			"primitives":[
				{
					"attributes":{
						"POSITION":28,
						"NORMAL":29,
						"TEXCOORD_0":30
					},
					"indices":31,
					"material":4
				}
			]
		},
		{
			"name":"UCX_TopPlastic_Straight_2.015",
			"primitives":[
				{
					"attributes":{
						"POSITION":32,
						"NORMAL":33,
						"TEXCOORD_0":34
					},
					"indices":35,
					"material":4
				}
			]
		},
		{
			"name":"UCX_TopPlastic_Straight_2.016",
			"primitives":[
				{
					"attributes":{
						"POSITION":36,
						"NORMAL":37,
						"TEXCOORD_0":38
					},
					"indices":39,
					"material":4
				}
			]
		},
		{
			"name":"UCX_TopPlastic_Straight_2.017",
			"primitives":[
				{
					"attributes":{
						"POSITION":40,
						"NORMAL":41,
						"TEXCOORD_0":42
					},
					"indices":43,
					"material":4
				}
			]
		},
		{
			"name":"UCX_TopPlastic_Straight_2.018",
			"primitives":[
				{
					"attributes":{
						"POSITION":44,
						"NORMAL":45,
						"TEXCOORD_0":46
					},
					"indices":47,
					"material":4
				}
			]
		},
		{
			"name":"UCX_TopPlastic_Straight_2.019",
			"primitives":[
				{
					"attributes":{
						"POSITION":48,
						"NORMAL":49,
						"TEXCOORD_0":50
					},
					"indices":51,
					"material":4
				}
			]
		},
		{
			"name":"UCX_TopPlastic_Straight_2.020",
			"primitives":[
				{
					"attributes":{
						"POSITION":52,
						"NORMAL":53,
						"TEXCOORD_0":54
					},
					"indices":55,
					"material":4
				}
			]
		},
		{
			"name":"UCX_TopPlastic_Straight_2.021",
			"primitives":[
				{
					"attributes":{
						"POSITION":56,
						"NORMAL":57,
						"TEXCOORD_0":58
					},
					"indices":59,
					"material":4
				}
			]
		},
		{
			"name":"UCX_TopPlastic_Straight_2.022",
			"primitives":[
				{
					"attributes":{
						"POSITION":60,
						"NORMAL":61,
						"TEXCOORD_0":62
					},
					"indices":63,
					"material":4
				}
			]
		}
	],
	"textures":[
		{
			"sampler":0,
			"source":0
		},
		{
			"sampler":0,
			"source":1
		},
		{
			"sampler":0,
			"source":2
		},
		{
			"sampler":0,
			"source":3
		},
		{
			"sampler":0,
			"source":4
		},
		{
			"sampler":0,
			"source":5
		},
		{
			"sampler":0,
			"source":6
		},
		{
			"sampler":0,
			"source":7
		},
		{
			"sampler":0,
			"source":8
		},
		{
			"sampler":0,
			"source":6
		},
		{
			"sampler":0,
			"source":7
		},
		{
			"sampler":0,
			"source":8
		}
	],
	"images":[
		{
			"mimeType":"image/png",
			"name":"T_Trim_02_Normal",
			"uri":"T_Trim_02_Normal.png"
		},
		{
			"mimeType":"image/png",
			"name":"T_Trim_02_BaseColor_Red",
			"uri":"T_Trim_02_BaseColor_Red.png"
		},
		{
			"mimeType":"image/png",
			"name":"T_Trim_02_ORM",
			"uri":"T_Trim_02_ORM.png"
		},
		{
			"mimeType":"image/png",
			"name":"T_Trim_01_Normal",
			"uri":"T_Trim_01_Normal.png"
		},
		{
			"mimeType":"image/png",
			"name":"T_Trim_01_BaseColor_Red",
			"uri":"T_Trim_01_BaseColor_Red.png"
		},
		{
			"mimeType":"image/png",
			"name":"T_Trim_01_ORM",
			"uri":"T_Trim_01_ORM.png"
		},
		{
			"mimeType":"image/png",
			"name":"T_Trim_03_Normal",
			"uri":"T_Trim_03_Normal.png"
		},
		{
			"mimeType":"image/png",
			"name":"T_Trim_03_Cables",
			"uri":"T_Trim_03_Cables.png"
		},
		{
			"mimeType":"image/png",
			"name":"T_Trim_03_ORM",
			"uri":"T_Trim_03_ORM.png"
		}
	],
	"accessors":[
		{
			"bufferView":0,
			"componentType":5126,
			"count":406,
			"max":[
				1.6119379324663896e-06,
				5.000000476837158,
				-2.141705044778064e-05
			],
			"min":[
				-4.215300559997559,
				3.3322980403900146,
				-4.215300559997559
			],
			"type":"VEC3"
		},
		{
			"bufferView":1,
			"componentType":5126,
			"count":406,
			"type":"VEC3"
		},
		{
			"bufferView":2,
			"componentType":5126,
			"count":406,
			"type":"VEC2"
		},
		{
			"bufferView":3,
			"componentType":5123,
			"count":1200,
			"type":"SCALAR"
		},
		{
			"bufferView":4,
			"componentType":5126,
			"count":1076,
			"max":[
				1.6119379324663896e-06,
				5.000000953674316,
				-2.025390313065145e-05
			],
			"min":[
				-4.215300559997559,
				2.999999761581421,
				-4.215300559997559
			],
			"type":"VEC3"
		},
		{
			"bufferView":5,
			"componentType":5126,
			"count":1076,
			"type":"VEC3"
		},
		{
			"bufferView":6,
			"componentType":5126,
			"count":1076,
			"type":"VEC2"
		},
		{
			"bufferView":7,
			"componentType":5123,
			"count":3132,
			"type":"SCALAR"
		},
		{
			"bufferView":8,
			"componentType":5126,
			"count":60,
			"max":[
				-0.6458888053894043,
				3.33229923248291,
				-0.6459102034568787
			],
			"min":[
				-3.941235303878784,
				3.3322980403900146,
				-3.941237449645996
			],
			"type":"VEC3"
		},
		{
			"bufferView":9,
			"componentType":5126,
			"count":60,
			"type":"VEC3"
		},
		{
			"bufferView":10,
			"componentType":5126,
			"count":60,
			"type":"VEC2"
		},
		{
			"bufferView":11,
			"componentType":5123,
			"count":168,
			"type":"SCALAR"
		},
		{
			"bufferView":12,
			"componentType":5126,
			"count":1378,
			"max":[
				-0.13779190182685852,
				3.6935038566589355,
				-0.1787687987089157
			],
			"min":[
				-4.104592323303223,
				3.4643595218658447,
				-4.1002302169799805
			],
			"type":"VEC3"
		},
		{
			"bufferView":13,
			"componentType":5126,
			"count":1378,
			"type":"VEC3"
		},
		{
			"bufferView":14,
			"componentType":5126,
			"count":1378,
			"type":"VEC2"
		},
		{
			"bufferView":15,
			"componentType":5123,
			"count":6912,
			"type":"SCALAR"
		},
		{
			"bufferView":16,
			"componentType":5126,
			"count":34,
			"max":[
				-3.670518636703491,
				5,
				-0.4959995746612549
			],
			"min":[
				-4.186970233917236,
				3,
				-1.0930185317993164
			],
			"type":"VEC3"
		},
		{
			"bufferView":17,
			"componentType":5126,
			"count":34,
			"type":"VEC3"
		},
		{
			"bufferView":18,
			"componentType":5126,
			"count":34,
			"type":"VEC2"
		},
		{
			"bufferView":19,
			"componentType":5123,
			"count":60,
			"type":"SCALAR"
		},
		{
			"bufferView":20,
			"componentType":5126,
			"count":34,
			"max":[
				-0.4959997534751892,
				5,
				-3.670520067214966
			],
			"min":[
				-1.0930190086364746,
				3,
				-4.186972141265869
			],
			"type":"VEC3"
		},
		{
			"bufferView":21,
			"componentType":5126,
			"count":34,
			"type":"VEC3"
		},
		{
			"bufferView":22,
			"componentType":5126,
			"count":34,
			"type":"VEC2"
		},
		{
			"bufferView":23,
			"componentType":5123,
			"count":60,
			"type":"SCALAR"
		},
		{
			"bufferView":24,
			"componentType":5126,
			"count":34,
			"max":[
				-1.4541977643966675,
				5,
				-3.290897846221924
			],
			"min":[
				-2.1115503311157227,
				3,
				-3.9016361236572266
			],
			"type":"VEC3"
		},
		{
			"bufferView":25,
			"componentType":5126,
			"count":34,
			"type":"VEC3"
		},
		{
			"bufferView":26,
			"componentType":5126,
			"count":34,
			"type":"VEC2"
		},
		{
			"bufferView":27,
			"componentType":5123,
			"count":60,
			"type":"SCALAR"
		},
		{
			"bufferView":28,
			"componentType":5126,
			"count":34,
			"max":[
				-3.2908973693847656,
				5,
				-1.4541972875595093
			],
			"min":[
				-3.9016354084014893,
				3,
				-2.1115498542785645
			],
			"type":"VEC3"
		},
		{
			"bufferView":29,
			"componentType":5126,
			"count":34,
			"type":"VEC3"
		},
		{
			"bufferView":30,
			"componentType":5126,
			"count":34,
			"type":"VEC2"
		},
		{
			"bufferView":31,
			"componentType":5123,
			"count":60,
			"type":"SCALAR"
		},
		{
			"bufferView":32,
			"componentType":5126,
			"count":34,
			"max":[
				-2.3132944107055664,
				5,
				-2.687006711959839
			],
			"min":[
				-2.986182928085327,
				3,
				-3.3504106998443604
			],
			"type":"VEC3"
		},
		{
			"bufferView":33,
			"componentType":5126,
			"count":34,
			"type":"VEC3"
		},
		{
			"bufferView":34,
			"componentType":5126,
			"count":34,
			"type":"VEC2"
		},
		{
			"bufferView":35,
			"componentType":5123,
			"count":60,
			"type":"SCALAR"
		},
		{
			"bufferView":36,
			"componentType":5126,
			"count":34,
			"max":[
				-2.687006711959839,
				5,
				-2.3132941722869873
			],
			"min":[
				-3.3504106998443604,
				3,
				-2.986182689666748
			],
			"type":"VEC3"
		},
		{
			"bufferView":37,
			"componentType":5126,
			"count":34,
			"type":"VEC3"
		},
		{
			"bufferView":38,
			"componentType":5126,
			"count":34,
			"type":"VEC2"
		},
		{
			"bufferView":39,
			"componentType":5123,
			"count":60,
			"type":"SCALAR"
		},
		{
			"bufferView":40,
			"componentType":5126,
			"count":34,
			"max":[
				-3.0147435665130615,
				5,
				-1.9000004529953003
			],
			"min":[
				-3.6573119163513184,
				3,
				-2.5708603858947754
			],
			"type":"VEC3"
		},
		{
			"bufferView":41,
			"componentType":5126,
			"count":34,
			"type":"VEC3"
		},
		{
			"bufferView":42,
			"componentType":5126,
			"count":34,
			"type":"VEC2"
		},
		{
			"bufferView":43,
			"componentType":5123,
			"count":60,
			"type":"SCALAR"
		},
		{
			"bufferView":44,
			"componentType":5126,
			"count":34,
			"max":[
				-1.9000009298324585,
				5,
				-3.0147438049316406
			],
			"min":[
				-2.5708608627319336,
				3,
				-3.6573121547698975
			],
			"type":"VEC3"
		},
		{
			"bufferView":45,
			"componentType":5126,
			"count":34,
			"type":"VEC3"
		},
		{
			"bufferView":46,
			"componentType":5126,
			"count":34,
			"type":"VEC2"
		},
		{
			"bufferView":47,
			"componentType":5123,
			"count":60,
			"type":"SCALAR"
		},
		{
			"bufferView":48,
			"componentType":5126,
			"count":34,
			"max":[
				-3.5107429027557373,
				5,
				-0.9835125207901001
			],
			"min":[
				-4.079200744628906,
				3,
				-1.6161102056503296
			],
			"type":"VEC3"
		},
		{
			"bufferView":49,
			"componentType":5126,
			"count":34,
			"type":"VEC3"
		},
		{
			"bufferView":50,
			"componentType":5126,
			"count":34,
			"type":"VEC2"
		},
		{
			"bufferView":51,
			"componentType":5123,
			"count":60,
			"type":"SCALAR"
		},
		{
			"bufferView":52,
			"componentType":5126,
			"count":34,
			"max":[
				-3.767490863800049,
				5,
				0
			],
			"min":[
				-4.223099231719971,
				3,
				-0.5512250661849976
			],
			"type":"VEC3"
		},
		{
			"bufferView":53,
			"componentType":5126,
			"count":34,
			"type":"VEC3"
		},
		{
			"bufferView":54,
			"componentType":5126,
			"count":34,
			"type":"VEC2"
		},
		{
			"bufferView":55,
			"componentType":5123,
			"count":60,
			"type":"SCALAR"
		},
		{
			"bufferView":56,
			"componentType":5126,
			"count":34,
			"max":[
				-0.9835128784179688,
				5,
				-3.5107438564300537
			],
			"min":[
				-1.6161108016967773,
				3,
				-4.079202175140381
			],
			"type":"VEC3"
		},
		{
			"bufferView":57,
			"componentType":5126,
			"count":34,
			"type":"VEC3"
		},
		{
			"bufferView":58,
			"componentType":5126,
			"count":34,
			"type":"VEC2"
		},
		{
			"bufferView":59,
			"componentType":5123,
			"count":60,
			"type":"SCALAR"
		},
		{
			"bufferView":60,
			"componentType":5126,
			"count":34,
			"max":[
				2.980232238769531e-07,
				5,
				-3.7674925327301025
			],
			"min":[
				-0.5512253642082214,
				3,
				-4.223101615905762
			],
			"type":"VEC3"
		},
		{
			"bufferView":61,
			"componentType":5126,
			"count":34,
			"type":"VEC3"
		},
		{
			"bufferView":62,
			"componentType":5126,
			"count":34,
			"type":"VEC2"
		},
		{
			"bufferView":63,
			"componentType":5123,
			"count":60,
			"type":"SCALAR"
		}
	],
	"bufferViews":[
		{
			"buffer":0,
			"byteLength":4872,
			"byteOffset":0,
			"target":34962
		},
		{
			"buffer":0,
			"byteLength":4872,
			"byteOffset":4872,
			"target":34962
		},
		{
			"buffer":0,
			"byteLength":3248,
			"byteOffset":9744,
			"target":34962
		},
		{
			"buffer":0,
			"byteLength":2400,
			"byteOffset":12992,
			"target":34963
		},
		{
			"buffer":0,
			"byteLength":12912,
			"byteOffset":15392,
			"target":34962
		},
		{
			"buffer":0,
			"byteLength":12912,
			"byteOffset":28304,
			"target":34962
		},
		{
			"buffer":0,
			"byteLength":8608,
			"byteOffset":41216,
			"target":34962
		},
		{
			"buffer":0,
			"byteLength":6264,
			"byteOffset":49824,
			"target":34963
		},
		{
			"buffer":0,
			"byteLength":720,
			"byteOffset":56088,
			"target":34962
		},
		{
			"buffer":0,
			"byteLength":720,
			"byteOffset":56808,
			"target":34962
		},
		{
			"buffer":0,
			"byteLength":480,
			"byteOffset":57528,
			"target":34962
		},
		{
			"buffer":0,
			"byteLength":336,
			"byteOffset":58008,
			"target":34963
		},
		{
			"buffer":0,
			"byteLength":16536,
			"byteOffset":58344,
			"target":34962
		},
		{
			"buffer":0,
			"byteLength":16536,
			"byteOffset":74880,
			"target":34962
		},
		{
			"buffer":0,
			"byteLength":11024,
			"byteOffset":91416,
			"target":34962
		},
		{
			"buffer":0,
			"byteLength":13824,
			"byteOffset":102440,
			"target":34963
		},
		{
			"buffer":0,
			"byteLength":408,
			"byteOffset":116264,
			"target":34962
		},
		{
			"buffer":0,
			"byteLength":408,
			"byteOffset":116672,
			"target":34962
		},
		{
			"buffer":0,
			"byteLength":272,
			"byteOffset":117080,
			"target":34962
		},
		{
			"buffer":0,
			"byteLength":120,
			"byteOffset":117352,
			"target":34963
		},
		{
			"buffer":0,
			"byteLength":408,
			"byteOffset":117472,
			"target":34962
		},
		{
			"buffer":0,
			"byteLength":408,
			"byteOffset":117880,
			"target":34962
		},
		{
			"buffer":0,
			"byteLength":272,
			"byteOffset":118288,
			"target":34962
		},
		{
			"buffer":0,
			"byteLength":120,
			"byteOffset":118560,
			"target":34963
		},
		{
			"buffer":0,
			"byteLength":408,
			"byteOffset":118680,
			"target":34962
		},
		{
			"buffer":0,
			"byteLength":408,
			"byteOffset":119088,
			"target":34962
		},
		{
			"buffer":0,
			"byteLength":272,
			"byteOffset":119496,
			"target":34962
		},
		{
			"buffer":0,
			"byteLength":120,
			"byteOffset":119768,
			"target":34963
		},
		{
			"buffer":0,
			"byteLength":408,
			"byteOffset":119888,
			"target":34962
		},
		{
			"buffer":0,
			"byteLength":408,
			"byteOffset":120296,
			"target":34962
		},
		{
			"buffer":0,
			"byteLength":272,
			"byteOffset":120704,
			"target":34962
		},
		{
			"buffer":0,
			"byteLength":120,
			"byteOffset":120976,
			"target":34963
		},
		{
			"buffer":0,
			"byteLength":408,
			"byteOffset":121096,
			"target":34962
		},
		{
			"buffer":0,
			"byteLength":408,
			"byteOffset":121504,
			"target":34962
		},
		{
			"buffer":0,
			"byteLength":272,
			"byteOffset":121912,
			"target":34962
		},
		{
			"buffer":0,
			"byteLength":120,
			"byteOffset":122184,
			"target":34963
		},
		{
			"buffer":0,
			"byteLength":408,
			"byteOffset":122304,
			"target":34962
		},
		{
			"buffer":0,
			"byteLength":408,
			"byteOffset":122712,
			"target":34962
		},
		{
			"buffer":0,
			"byteLength":272,
			"byteOffset":123120,
			"target":34962
		},
		{
			"buffer":0,
			"byteLength":120,
			"byteOffset":123392,
			"target":34963
		},
		{
			"buffer":0,
			"byteLength":408,
			"byteOffset":123512,
			"target":34962
		},
		{
			"buffer":0,
			"byteLength":408,
			"byteOffset":123920,
			"target":34962
		},
		{
			"buffer":0,
			"byteLength":272,
			"byteOffset":124328,
			"target":34962
		},
		{
			"buffer":0,
			"byteLength":120,
			"byteOffset":124600,
			"target":34963
		},
		{
			"buffer":0,
			"byteLength":408,
			"byteOffset":124720,
			"target":34962
		},
		{
			"buffer":0,
			"byteLength":408,
			"byteOffset":125128,
			"target":34962
		},
		{
			"buffer":0,
			"byteLength":272,
			"byteOffset":125536,
			"target":34962
		},
		{
			"buffer":0,
			"byteLength":120,
			"byteOffset":125808,
			"target":34963
		},
		{
			"buffer":0,
			"byteLength":408,
			"byteOffset":125928,
			"target":34962
		},
		{
			"buffer":0,
			"byteLength":408,
			"byteOffset":126336,
			"target":34962
		},
		{
			"buffer":0,
			"byteLength":272,
			"byteOffset":126744,
			"target":34962
		},
		{
			"buffer":0,
			"byteLength":120,
			"byteOffset":127016,
			"target":34963
		},
		{
			"buffer":0,
			"byteLength":408,
			"byteOffset":127136,
			"target":34962
		},
		{
			"buffer":0,
			"byteLength":408,
			"byteOffset":127544,
			"target":34962
		},
		{
			"buffer":0,
			"byteLength":272,
			"byteOffset":127952,
			"target":34962
		},
		{
			"buffer":0,
			"byteLength":120,
			"byteOffset":128224,
			"target":34963
		},
		{
			"buffer":0,
			"byteLength":408,
			"byteOffset":128344,
			"target":34962
		},
		{
			"buffer":0,
			"byteLength":408,
			"byteOffset":128752,
			"target":34962
		},
		{
			"buffer":0,
			"byteLength":272,
			"byteOffset":129160,
			"target":34962
		},
		{
			"buffer":0,
			"byteLength":120,
			"byteOffset":129432,
			"target":34963
		},
		{
			"buffer":0,
			"byteLength":408,
			"byteOffset":129552,
			"target":34962
		},
		{
			"buffer":0,
			"byteLength":408,
			"byteOffset":129960,
			"target":34962
		},
		{
			"buffer":0,
			"byteLength":272,
			"byteOffset":130368,
			"target":34962
		},
		{
			"buffer":0,
			"byteLength":120,
			"byteOffset":130640,
			"target":34963
		}
	],
	"samplers":[
		{
			"magFilter":9729,
			"minFilter":9987
		}
	],
	"buffers":[
		{
			"byteLength":130760,
			"uri":"TopCables_Corner_Round_Outer.bin"
		}
	]
}
