{
	"asset":{
		"generator":"Khronos glTF Blender I/O v4.0.44",
		"version":"2.0"
	},
	"extensionsUsed":[
		"KHR_materials_specular",
		"KHR_materials_ior"
	],
	"scene":0,
	"scenes":[
		{
			"name":"Scene",
			"nodes":[
				0,
				1,
				2,
				3,
				4,
				5,
				6,
				7,
				8,
				9,
				10,
				11,
				12,
				13,
				14,
				15,
				16
			]
		}
	],
	"nodes":[
		{
			"mesh":0,
			"name":"TopPlastic_Corner_Round_Outer"
		},
		{
			"mesh":1,
			"name":"TopPlastic_Corner_Round_Outer_00_convcolonly"
		},
		{
			"mesh":2,
			"name":"TopPlastic_Corner_Round_Outer_01_convcolonly"
		},
		{
			"mesh":3,
			"name":"TopPlastic_Corner_Round_Outer_02_convcolonly"
		},
		{
			"mesh":4,
			"name":"TopPlastic_Corner_Round_Outer_03_convcolonly"
		},
		{
			"mesh":5,
			"name":"TopPlastic_Corner_Round_Outer_04_convcolonly"
		},
		{
			"mesh":6,
			"name":"TopPlastic_Corner_Round_Outer_05_convcolonly"
		},
		{
			"mesh":7,
			"name":"TopPlastic_Corner_Round_Outer_06_convcolonly"
		},
		{
			"mesh":8,
			"name":"TopPlastic_Corner_Round_Outer_07_convcolonly"
		},
		{
			"mesh":9,
			"name":"TopPlastic_Corner_Round_Outer_08_convcolonly"
		},
		{
			"mesh":10,
			"name":"TopPlastic_Corner_Round_Outer_09_convcolonly"
		},
		{
			"mesh":11,
			"name":"TopPlastic_Corner_Round_Outer_10_convcolonly"
		},
		{
			"mesh":12,
			"name":"TopPlastic_Corner_Round_Outer_11_convcolonly"
		},
		{
			"mesh":13,
			"name":"TopPlastic_Corner_Round_Outer_12_convcolonly"
		},
		{
			"mesh":14,
			"name":"TopPlastic_Corner_Round_Outer_13_convcolonly"
		},
		{
			"mesh":15,
			"name":"TopPlastic_Corner_Round_Outer_14_convcolonly"
		},
		{
			"mesh":16,
			"name":"TopPlastic_Corner_Round_Outer_15_convcolonly"
		}
	],
	"materials":[
		{
			"doubleSided":true,
			"name":"MI_Trim_02",
			"normalTexture":{
				"index":0
			},
			"pbrMetallicRoughness":{
				"baseColorTexture":{
					"index":1
				},
				"metallicRoughnessTexture":{
					"index":2
				}
			}
		},
		{
			"doubleSided":true,
			"extensions":{
				"KHR_materials_specular":{
					"specularFactor":0
				},
				"KHR_materials_ior":{
					"ior":1.4500000476837158
				}
			},
			"name":"MI_Trim_01",
			"normalTexture":{
				"index":3
			},
			"pbrMetallicRoughness":{
				"baseColorTexture":{
					"index":4
				},
				"metallicRoughnessTexture":{
					"index":5
				}
			}
		},
		{
			"doubleSided":true,
			"name":"MI_Trim_02_Variation",
			"normalTexture":{
				"index":6
			},
			"pbrMetallicRoughness":{
				"baseColorTexture":{
					"index":7
				},
				"metallicRoughnessTexture":{
					"index":8
				}
			}
		},
		{
			"doubleSided":true,
			"name":"Collision",
			"pbrMetallicRoughness":{
				"baseColorFactor":[
					0.11006110906600952,
					0.2556236684322357,
					0.8000785112380981,
					1
				],
				"metallicFactor":0,
				"roughnessFactor":0.5
			}
		}
	],
	"meshes":[
		{
			"name":"Plane.070",
			"primitives":[
				{
					"attributes":{
						"POSITION":0,
						"NORMAL":1,
						"TEXCOORD_0":2
					},
					"indices":3,
					"material":0
				},
				{
					"attributes":{
						"POSITION":4,
						"NORMAL":5,
						"TEXCOORD_0":6
					},
					"indices":7,
					"material":1
				},
				{
					"attributes":{
						"POSITION":8,
						"NORMAL":9,
						"TEXCOORD_0":10
					},
					"indices":11,
					"material":2
				}
			]
		},
		{
			"name":"UCX_TopPlastic_Corner_Round_Outer_00",
			"primitives":[
				{
					"attributes":{
						"POSITION":12,
						"NORMAL":13,
						"TEXCOORD_0":14
					},
					"indices":15,
					"material":3
				}
			]
		},
		{
			"name":"UCX_TopPlastic_Corner_Round_Outer_01",
			"primitives":[
				{
					"attributes":{
						"POSITION":16,
						"NORMAL":17,
						"TEXCOORD_0":18
					},
					"indices":19,
					"material":3
				}
			]
		},
		{
			"name":"UCX_TopPlastic_Corner_Round_Outer_02",
			"primitives":[
				{
					"attributes":{
						"POSITION":20,
						"NORMAL":21,
						"TEXCOORD_0":22
					},
					"indices":23,
					"material":3
				}
			]
		},
		{
			"name":"UCX_TopPlastic_Corner_Round_Outer_03",
			"primitives":[
				{
					"attributes":{
						"POSITION":24,
						"NORMAL":25,
						"TEXCOORD_0":26
					},
					"indices":27,
					"material":3
				}
			]
		},
		{
			"name":"UCX_TopPlastic_Corner_Round_Outer_04",
			"primitives":[
				{
					"attributes":{
						"POSITION":28,
						"NORMAL":29,
						"TEXCOORD_0":30
					},
					"indices":31,
					"material":3
				}
			]
		},
		{
			"name":"UCX_TopPlastic_Corner_Round_Outer_05",
			"primitives":[
				{
					"attributes":{
						"POSITION":32,
						"NORMAL":33,
						"TEXCOORD_0":34
					},
					"indices":35,
					"material":3
				}
			]
		},
		{
			"name":"UCX_TopPlastic_Corner_Round_Outer_06",
			"primitives":[
				{
					"attributes":{
						"POSITION":36,
						"NORMAL":37,
						"TEXCOORD_0":38
					},
					"indices":31,
					"material":3
				}
			]
		},
		{
			"name":"UCX_TopPlastic_Corner_Round_Outer_07",
			"primitives":[
				{
					"attributes":{
						"POSITION":39,
						"NORMAL":40,
						"TEXCOORD_0":41
					},
					"indices":35,
					"material":3
				}
			]
		},
		{
			"name":"UCX_TopPlastic_Corner_Round_Outer_08",
			"primitives":[
				{
					"attributes":{
						"POSITION":42,
						"NORMAL":43,
						"TEXCOORD_0":44
					},
					"indices":23,
					"material":3
				}
			]
		},
		{
			"name":"UCX_TopPlastic_Corner_Round_Outer_09",
			"primitives":[
				{
					"attributes":{
						"POSITION":45,
						"NORMAL":46,
						"TEXCOORD_0":47
					},
					"indices":27,
					"material":3
				}
			]
		},
		{
			"name":"UCX_TopPlastic_Corner_Round_Outer_10",
			"primitives":[
				{
					"attributes":{
						"POSITION":48,
						"NORMAL":49,
						"TEXCOORD_0":50
					},
					"indices":23,
					"material":3
				}
			]
		},
		{
			"name":"UCX_TopPlastic_Corner_Round_Outer_11",
			"primitives":[
				{
					"attributes":{
						"POSITION":51,
						"NORMAL":52,
						"TEXCOORD_0":53
					},
					"indices":27,
					"material":3
				}
			]
		},
		{
			"name":"UCX_TopPlastic_Corner_Round_Outer_12",
			"primitives":[
				{
					"attributes":{
						"POSITION":54,
						"NORMAL":55,
						"TEXCOORD_0":56
					},
					"indices":31,
					"material":3
				}
			]
		},
		{
			"name":"UCX_TopPlastic_Corner_Round_Outer_13",
			"primitives":[
				{
					"attributes":{
						"POSITION":57,
						"NORMAL":58,
						"TEXCOORD_0":59
					},
					"indices":35,
					"material":3
				}
			]
		},
		{
			"name":"UCX_TopPlastic_Corner_Round_Outer_14",
			"primitives":[
				{
					"attributes":{
						"POSITION":60,
						"NORMAL":61,
						"TEXCOORD_0":62
					},
					"indices":63,
					"material":3
				}
			]
		},
		{
			"name":"UCX_TopPlastic_Corner_Round_Outer_15",
			"primitives":[
				{
					"attributes":{
						"POSITION":64,
						"NORMAL":65,
						"TEXCOORD_0":66
					},
					"indices":67,
					"material":3
				}
			]
		}
	],
	"textures":[
		{
			"sampler":0,
			"source":0
		},
		{
			"sampler":0,
			"source":1
		},
		{
			"sampler":0,
			"source":2
		},
		{
			"sampler":0,
			"source":3
		},
		{
			"sampler":0,
			"source":4
		},
		{
			"sampler":0,
			"source":5
		},
		{
			"sampler":0,
			"source":0
		},
		{
			"sampler":0,
			"source":6
		},
		{
			"sampler":0,
			"source":2
		}
	],
	"images":[
		{
			"mimeType":"image/png",
			"name":"T_Trim_02_Normal",
			"uri":"T_Trim_02_Normal.png"
		},
		{
			"mimeType":"image/png",
			"name":"T_Trim_02_BaseColor_Red",
			"uri":"T_Trim_02_BaseColor_Red.png"
		},
		{
			"mimeType":"image/png",
			"name":"T_Trim_02_ORM",
			"uri":"T_Trim_02_ORM.png"
		},
		{
			"mimeType":"image/png",
			"name":"T_Trim_01_Normal",
			"uri":"T_Trim_01_Normal.png"
		},
		{
			"mimeType":"image/png",
			"name":"T_Trim_01_BaseColor_Red",
			"uri":"T_Trim_01_BaseColor_Red.png"
		},
		{
			"mimeType":"image/png",
			"name":"T_Trim_01_ORM",
			"uri":"T_Trim_01_ORM.png"
		},
		{
			"mimeType":"image/png",
			"name":"T_Trim_02_BaseColor",
			"uri":"T_Trim_02_BaseColor.png"
		}
	],
	"accessors":[
		{
			"bufferView":0,
			"componentType":5126,
			"count":72,
			"max":[
				1.4821793001829064e-06,
				3.5000007152557373,
				-2.224610398116056e-05
			],
			"min":[
				-4.000000476837158,
				3,
				-4
			],
			"type":"VEC3"
		},
		{
			"bufferView":1,
			"componentType":5126,
			"count":72,
			"type":"VEC3"
		},
		{
			"bufferView":2,
			"componentType":5126,
			"count":72,
			"type":"VEC2"
		},
		{
			"bufferView":3,
			"componentType":5123,
			"count":192,
			"type":"SCALAR"
		},
		{
			"bufferView":4,
			"componentType":5126,
			"count":81,
			"max":[
				1.5735154192952905e-06,
				3.5177481174468994,
				-2.224765376013238e-05
			],
			"min":[
				-4.097383499145508,
				3.499999523162842,
				-4.09738302230835
			],
			"type":"VEC3"
		},
		{
			"bufferView":5,
			"componentType":5126,
			"count":81,
			"type":"VEC3"
		},
		{
			"bufferView":6,
			"componentType":5126,
			"count":81,
			"type":"VEC2"
		},
		{
			"bufferView":7,
			"componentType":5123,
			"count":204,
			"type":"SCALAR"
		},
		{
			"bufferView":8,
			"componentType":5126,
			"count":400,
			"max":[
				1.7268174588025431e-06,
				5.017747402191162,
				-2.2741880457033403e-05
			],
			"min":[
				-4.567863464355469,
				3.499999761581421,
				-4.567863464355469
			],
			"type":"VEC3"
		},
		{
			"bufferView":9,
			"componentType":5126,
			"count":400,
			"type":"VEC3"
		},
		{
			"bufferView":10,
			"componentType":5126,
			"count":400,
			"type":"VEC2"
		},
		{
			"bufferView":11,
			"componentType":5123,
			"count":1296,
			"type":"SCALAR"
		},
		{
			"bufferView":12,
			"componentType":5126,
			"count":24,
			"max":[
				-3.7037220001220703,
				5,
				0
			],
			"min":[
				-4,
				3,
				-0.7803612947463989
			],
			"type":"VEC3"
		},
		{
			"bufferView":13,
			"componentType":5126,
			"count":24,
			"type":"VEC3"
		},
		{
			"bufferView":14,
			"componentType":5126,
			"count":24,
			"type":"VEC2"
		},
		{
			"bufferView":15,
			"componentType":5123,
			"count":36,
			"type":"SCALAR"
		},
		{
			"bufferView":16,
			"componentType":5126,
			"count":24,
			"max":[
				-3.7037220001220703,
				5,
				0
			],
			"min":[
				-4.598808288574219,
				3.468301773071289,
				-0.8971830010414124
			],
			"type":"VEC3"
		},
		{
			"bufferView":17,
			"componentType":5126,
			"count":24,
			"type":"VEC3"
		},
		{
			"bufferView":18,
			"componentType":5126,
			"count":24,
			"type":"VEC2"
		},
		{
			"bufferView":19,
			"componentType":5123,
			"count":36,
			"type":"SCALAR"
		},
		{
			"bufferView":20,
			"componentType":5126,
			"count":24,
			"max":[
				-3.1398637294769287,
				5,
				-1.4451206922531128
			],
			"min":[
				-3.6955177783966064,
				3,
				-2.222280979156494
			],
			"type":"VEC3"
		},
		{
			"bufferView":21,
			"componentType":5126,
			"count":24,
			"type":"VEC3"
		},
		{
			"bufferView":22,
			"componentType":5126,
			"count":24,
			"type":"VEC2"
		},
		{
			"bufferView":23,
			"componentType":5123,
			"count":36,
			"type":"SCALAR"
		},
		{
			"bufferView":24,
			"componentType":5126,
			"count":24,
			"max":[
				-3.1398637294769287,
				5,
				-1.4451206922531128
			],
			"min":[
				-4.248744487762451,
				3.468301773071289,
				-2.5549609661102295
			],
			"type":"VEC3"
		},
		{
			"bufferView":25,
			"componentType":5126,
			"count":24,
			"type":"VEC3"
		},
		{
			"bufferView":26,
			"componentType":5126,
			"count":24,
			"type":"VEC2"
		},
		{
			"bufferView":27,
			"componentType":5123,
			"count":36,
			"type":"SCALAR"
		},
		{
			"bufferView":28,
			"componentType":5126,
			"count":24,
			"max":[
				-2.097989797592163,
				5,
				-2.6702346801757812
			],
			"min":[
				-2.8284263610839844,
				3,
				-3.325878143310547
			],
			"type":"VEC3"
		},
		{
			"bufferView":29,
			"componentType":5126,
			"count":24,
			"type":"VEC3"
		},
		{
			"bufferView":30,
			"componentType":5126,
			"count":24,
			"type":"VEC2"
		},
		{
			"bufferView":31,
			"componentType":5123,
			"count":36,
			"type":"SCALAR"
		},
		{
			"bufferView":32,
			"componentType":5126,
			"count":24,
			"max":[
				-2.097989797592163,
				5,
				-2.6702346801757812
			],
			"min":[
				-3.2518482208251953,
				3.468301773071289,
				-3.8237688541412354
			],
			"type":"VEC3"
		},
		{
			"bufferView":33,
			"componentType":5126,
			"count":24,
			"type":"VEC3"
		},
		{
			"bufferView":34,
			"componentType":5126,
			"count":24,
			"type":"VEC2"
		},
		{
			"bufferView":35,
			"componentType":5123,
			"count":36,
			"type":"SCALAR"
		},
		{
			"bufferView":36,
			"componentType":5126,
			"count":24,
			"max":[
				-0.7367159128189087,
				5,
				-3.4888296127319336
			],
			"min":[
				-1.5307328701019287,
				3,
				-3.923140287399292
			],
			"type":"VEC3"
		},
		{
			"bufferView":37,
			"componentType":5126,
			"count":24,
			"type":"VEC3"
		},
		{
			"bufferView":38,
			"componentType":5126,
			"count":24,
			"type":"VEC2"
		},
		{
			"bufferView":39,
			"componentType":5126,
			"count":24,
			"max":[
				-0.7367159128189087,
				5,
				-3.4888296127319336
			],
			"min":[
				-1.7598872184753418,
				3.468301773071289,
				-4.510442733764648
			],
			"type":"VEC3"
		},
		{
			"bufferView":40,
			"componentType":5126,
			"count":24,
			"type":"VEC3"
		},
		{
			"bufferView":41,
			"componentType":5126,
			"count":24,
			"type":"VEC2"
		},
		{
			"bufferView":42,
			"componentType":5126,
			"count":24,
			"max":[
				-3.4888298511505127,
				5,
				-0.7367161512374878
			],
			"min":[
				-3.9231410026550293,
				3,
				-1.5307337045669556
			],
			"type":"VEC3"
		},
		{
			"bufferView":43,
			"componentType":5126,
			"count":24,
			"type":"VEC3"
		},
		{
			"bufferView":44,
			"componentType":5126,
			"count":24,
			"type":"VEC2"
		},
		{
			"bufferView":45,
			"componentType":5126,
			"count":24,
			"max":[
				-3.4888298511505127,
				5,
				-0.7367161512374878
			],
			"min":[
				-4.510443210601807,
				3.468301773071289,
				-1.7598876953125
			],
			"type":"VEC3"
		},
		{
			"bufferView":46,
			"componentType":5126,
			"count":24,
			"type":"VEC3"
		},
		{
			"bufferView":47,
			"componentType":5126,
			"count":24,
			"type":"VEC2"
		},
		{
			"bufferView":48,
			"componentType":5126,
			"count":24,
			"max":[
				-2.6702346801757812,
				5,
				-2.097990036010742
			],
			"min":[
				-3.3258779048919678,
				3,
				-2.8284270763397217
			],
			"type":"VEC3"
		},
		{
			"bufferView":49,
			"componentType":5126,
			"count":24,
			"type":"VEC3"
		},
		{
			"bufferView":50,
			"componentType":5126,
			"count":24,
			"type":"VEC2"
		},
		{
			"bufferView":51,
			"componentType":5126,
			"count":24,
			"max":[
				-2.6702346801757812,
				5,
				-2.097990036010742
			],
			"min":[
				-3.8237690925598145,
				3.468301773071289,
				-3.2518482208251953
			],
			"type":"VEC3"
		},
		{
			"bufferView":52,
			"componentType":5126,
			"count":24,
			"type":"VEC3"
		},
		{
			"bufferView":53,
			"componentType":5126,
			"count":24,
			"type":"VEC2"
		},
		{
			"bufferView":54,
			"componentType":5126,
			"count":24,
			"max":[
				-1.4451204538345337,
				5,
				-3.1398637294769287
			],
			"min":[
				-2.2222800254821777,
				3,
				-3.6955175399780273
			],
			"type":"VEC3"
		},
		{
			"bufferView":55,
			"componentType":5126,
			"count":24,
			"type":"VEC3"
		},
		{
			"bufferView":56,
			"componentType":5126,
			"count":24,
			"type":"VEC2"
		},
		{
			"bufferView":57,
			"componentType":5126,
			"count":24,
			"max":[
				-1.4451204538345337,
				5,
				-3.1398637294769287
			],
			"min":[
				-2.5549604892730713,
				3.468301773071289,
				-4.248744010925293
			],
			"type":"VEC3"
		},
		{
			"bufferView":58,
			"componentType":5126,
			"count":24,
			"type":"VEC3"
		},
		{
			"bufferView":59,
			"componentType":5126,
			"count":24,
			"type":"VEC2"
		},
		{
			"bufferView":60,
			"componentType":5126,
			"count":24,
			"max":[
				6.556510925292969e-07,
				5,
				-3.703721523284912
			],
			"min":[
				-0.7803605198860168,
				3,
				-3.9999988079071045
			],
			"type":"VEC3"
		},
		{
			"bufferView":61,
			"componentType":5126,
			"count":24,
			"type":"VEC3"
		},
		{
			"bufferView":62,
			"componentType":5126,
			"count":24,
			"type":"VEC2"
		},
		{
			"bufferView":63,
			"componentType":5123,
			"count":36,
			"type":"SCALAR"
		},
		{
			"bufferView":64,
			"componentType":5126,
			"count":24,
			"max":[
				2.384185791015625e-07,
				5,
				-3.703721523284912
			],
			"min":[
				-0.8971826434135437,
				3.468301773071289,
				-4.598807334899902
			],
			"type":"VEC3"
		},
		{
			"bufferView":65,
			"componentType":5126,
			"count":24,
			"type":"VEC3"
		},
		{
			"bufferView":66,
			"componentType":5126,
			"count":24,
			"type":"VEC2"
		},
		{
			"bufferView":67,
			"componentType":5123,
			"count":36,
			"type":"SCALAR"
		}
	],
	"bufferViews":[
		{
			"buffer":0,
			"byteLength":864,
			"byteOffset":0,
			"target":34962
		},
		{
			"buffer":0,
			"byteLength":864,
			"byteOffset":864,
			"target":34962
		},
		{
			"buffer":0,
			"byteLength":576,
			"byteOffset":1728,
			"target":34962
		},
		{
			"buffer":0,
			"byteLength":384,
			"byteOffset":2304,
			"target":34963
		},
		{
			"buffer":0,
			"byteLength":972,
			"byteOffset":2688,
			"target":34962
		},
		{
			"buffer":0,
			"byteLength":972,
			"byteOffset":3660,
			"target":34962
		},
		{
			"buffer":0,
			"byteLength":648,
			"byteOffset":4632,
			"target":34962
		},
		{
			"buffer":0,
			"byteLength":408,
			"byteOffset":5280,
			"target":34963
		},
		{
			"buffer":0,
			"byteLength":4800,
			"byteOffset":5688,
			"target":34962
		},
		{
			"buffer":0,
			"byteLength":4800,
			"byteOffset":10488,
			"target":34962
		},
		{
			"buffer":0,
			"byteLength":3200,
			"byteOffset":15288,
			"target":34962
		},
		{
			"buffer":0,
			"byteLength":2592,
			"byteOffset":18488,
			"target":34963
		},
		{
			"buffer":0,
			"byteLength":288,
			"byteOffset":21080,
			"target":34962
		},
		{
			"buffer":0,
			"byteLength":288,
			"byteOffset":21368,
			"target":34962
		},
		{
			"buffer":0,
			"byteLength":192,
			"byteOffset":21656,
			"target":34962
		},
		{
			"buffer":0,
			"byteLength":72,
			"byteOffset":21848,
			"target":34963
		},
		{
			"buffer":0,
			"byteLength":288,
			"byteOffset":21920,
			"target":34962
		},
		{
			"buffer":0,
			"byteLength":288,
			"byteOffset":22208,
			"target":34962
		},
		{
			"buffer":0,
			"byteLength":192,
			"byteOffset":22496,
			"target":34962
		},
		{
			"buffer":0,
			"byteLength":72,
			"byteOffset":22688,
			"target":34963
		},
		{
			"buffer":0,
			"byteLength":288,
			"byteOffset":22760,
			"target":34962
		},
		{
			"buffer":0,
			"byteLength":288,
			"byteOffset":23048,
			"target":34962
		},
		{
			"buffer":0,
			"byteLength":192,
			"byteOffset":23336,
			"target":34962
		},
		{
			"buffer":0,
			"byteLength":72,
			"byteOffset":23528,
			"target":34963
		},
		{
			"buffer":0,
			"byteLength":288,
			"byteOffset":23600,
			"target":34962
		},
		{
			"buffer":0,
			"byteLength":288,
			"byteOffset":23888,
			"target":34962
		},
		{
			"buffer":0,
			"byteLength":192,
			"byteOffset":24176,
			"target":34962
		},
		{
			"buffer":0,
			"byteLength":72,
			"byteOffset":24368,
			"target":34963
		},
		{
			"buffer":0,
			"byteLength":288,
			"byteOffset":24440,
			"target":34962
		},
		{
			"buffer":0,
			"byteLength":288,
			"byteOffset":24728,
			"target":34962
		},
		{
			"buffer":0,
			"byteLength":192,
			"byteOffset":25016,
			"target":34962
		},
		{
			"buffer":0,
			"byteLength":72,
			"byteOffset":25208,
			"target":34963
		},
		{
			"buffer":0,
			"byteLength":288,
			"byteOffset":25280,
			"target":34962
		},
		{
			"buffer":0,
			"byteLength":288,
			"byteOffset":25568,
			"target":34962
		},
		{
			"buffer":0,
			"byteLength":192,
			"byteOffset":25856,
			"target":34962
		},
		{
			"buffer":0,
			"byteLength":72,
			"byteOffset":26048,
			"target":34963
		},
		{
			"buffer":0,
			"byteLength":288,
			"byteOffset":26120,
			"target":34962
		},
		{
			"buffer":0,
			"byteLength":288,
			"byteOffset":26408,
			"target":34962
		},
		{
			"buffer":0,
			"byteLength":192,
			"byteOffset":26696,
			"target":34962
		},
		{
			"buffer":0,
			"byteLength":288,
			"byteOffset":26888,
			"target":34962
		},
		{
			"buffer":0,
			"byteLength":288,
			"byteOffset":27176,
			"target":34962
		},
		{
			"buffer":0,
			"byteLength":192,
			"byteOffset":27464,
			"target":34962
		},
		{
			"buffer":0,
			"byteLength":288,
			"byteOffset":27656,
			"target":34962
		},
		{
			"buffer":0,
			"byteLength":288,
			"byteOffset":27944,
			"target":34962
		},
		{
			"buffer":0,
			"byteLength":192,
			"byteOffset":28232,
			"target":34962
		},
		{
			"buffer":0,
			"byteLength":288,
			"byteOffset":28424,
			"target":34962
		},
		{
			"buffer":0,
			"byteLength":288,
			"byteOffset":28712,
			"target":34962
		},
		{
			"buffer":0,
			"byteLength":192,
			"byteOffset":29000,
			"target":34962
		},
		{
			"buffer":0,
			"byteLength":288,
			"byteOffset":29192,
			"target":34962
		},
		{
			"buffer":0,
			"byteLength":288,
			"byteOffset":29480,
			"target":34962
		},
		{
			"buffer":0,
			"byteLength":192,
			"byteOffset":29768,
			"target":34962
		},
		{
			"buffer":0,
			"byteLength":288,
			"byteOffset":29960,
			"target":34962
		},
		{
			"buffer":0,
			"byteLength":288,
			"byteOffset":30248,
			"target":34962
		},
		{
			"buffer":0,
			"byteLength":192,
			"byteOffset":30536,
			"target":34962
		},
		{
			"buffer":0,
			"byteLength":288,
			"byteOffset":30728,
			"target":34962
		},
		{
			"buffer":0,
			"byteLength":288,
			"byteOffset":31016,
			"target":34962
		},
		{
			"buffer":0,
			"byteLength":192,
			"byteOffset":31304,
			"target":34962
		},
		{
			"buffer":0,
			"byteLength":288,
			"byteOffset":31496,
			"target":34962
		},
		{
			"buffer":0,
			"byteLength":288,
			"byteOffset":31784,
			"target":34962
		},
		{
			"buffer":0,
			"byteLength":192,
			"byteOffset":32072,
			"target":34962
		},
		{
			"buffer":0,
			"byteLength":288,
			"byteOffset":32264,
			"target":34962
		},
		{
			"buffer":0,
			"byteLength":288,
			"byteOffset":32552,
			"target":34962
		},
		{
			"buffer":0,
			"byteLength":192,
			"byteOffset":32840,
			"target":34962
		},
		{
			"buffer":0,
			"byteLength":72,
			"byteOffset":33032,
			"target":34963
		},
		{
			"buffer":0,
			"byteLength":288,
			"byteOffset":33104,
			"target":34962
		},
		{
			"buffer":0,
			"byteLength":288,
			"byteOffset":33392,
			"target":34962
		},
		{
			"buffer":0,
			"byteLength":192,
			"byteOffset":33680,
			"target":34962
		},
		{
			"buffer":0,
			"byteLength":72,
			"byteOffset":33872,
			"target":34963
		}
	],
	"samplers":[
		{
			"magFilter":9729,
			"minFilter":9987
		}
	],
	"buffers":[
		{
			"byteLength":33944,
			"uri":"TopPlastic_Corner_Round_Outer.bin"
		}
	]
}
