{
	"asset":{
		"generator":"Khronos glTF Blender I/O v4.0.44",
		"version":"2.0"
	},
	"extensionsUsed":[
		"KHR_materials_specular",
		"KHR_materials_ior"
	],
	"scene":0,
	"scenes":[
		{
			"name":"Scene",
			"nodes":[
				0,
				1,
				2,
				3,
				4,
				5,
				6,
				7,
				8,
				9,
				10,
				11,
				12,
				13,
				14,
				15,
				16
			]
		}
	],
	"nodes":[
		{
			"mesh":0,
			"name":"TopPlates_Corner_Round_Outer"
		},
		{
			"mesh":1,
			"name":"TopPlates_Corner_Round_Outer_01_convcolonly"
		},
		{
			"mesh":2,
			"name":"TopPlates_Corner_Round_Outer_02_convcolonly"
		},
		{
			"mesh":3,
			"name":"TopPlates_Corner_Round_Outer_03_convcolonly"
		},
		{
			"mesh":4,
			"name":"TopPlates_Corner_Round_Outer_04_convcolonly"
		},
		{
			"mesh":5,
			"name":"TopPlates_Corner_Round_Outer_05_convcolonly"
		},
		{
			"mesh":6,
			"name":"TopPlates_Corner_Round_Outer_06_convcolonly"
		},
		{
			"mesh":7,
			"name":"TopPlates_Corner_Round_Outer_07_convcolonly"
		},
		{
			"mesh":8,
			"name":"TopPlates_Corner_Round_Outer_08_convcolonly"
		},
		{
			"mesh":9,
			"name":"TopPlates_Corner_Round_Outer_09_convcolonly"
		},
		{
			"mesh":10,
			"name":"TopPlates_Corner_Round_Outer_10_convcolonly"
		},
		{
			"mesh":11,
			"name":"TopPlates_Corner_Round_Outer_11_convcolonly"
		},
		{
			"mesh":12,
			"name":"TopPlates_Corner_Round_Outer_12_convcolonly"
		},
		{
			"mesh":13,
			"name":"TopPlates_Corner_Round_Outer_13_convcolonly"
		},
		{
			"mesh":14,
			"name":"TopPlates_Corner_Round_Outer_14_convcolonly"
		},
		{
			"mesh":15,
			"name":"TopPlates_Corner_Round_Outer_15_convcolonly"
		},
		{
			"mesh":16,
			"name":"TopPlates_Corner_Round_Outer_16_convcolonly"
		}
	],
	"materials":[
		{
			"doubleSided":true,
			"extensions":{
				"KHR_materials_specular":{
					"specularFactor":0
				},
				"KHR_materials_ior":{
					"ior":1.4500000476837158
				}
			},
			"name":"MI_Trim_01",
			"normalTexture":{
				"index":0
			},
			"pbrMetallicRoughness":{
				"baseColorTexture":{
					"index":1
				},
				"metallicRoughnessTexture":{
					"index":2
				}
			}
		},
		{
			"doubleSided":true,
			"name":"Collision",
			"pbrMetallicRoughness":{
				"baseColorFactor":[
					0.11006110906600952,
					0.2556236684322357,
					0.8000785112380981,
					1
				],
				"metallicFactor":0,
				"roughnessFactor":0.5
			}
		}
	],
	"meshes":[
		{
			"name":"Plane.250",
			"primitives":[
				{
					"attributes":{
						"POSITION":0,
						"NORMAL":1,
						"TEXCOORD_0":2
					},
					"indices":3,
					"material":0
				}
			]
		},
		{
			"name":"UCX_TopPlastic_Corner_Round_Outer_00.001",
			"primitives":[
				{
					"attributes":{
						"POSITION":4,
						"NORMAL":5,
						"TEXCOORD_0":6
					},
					"indices":7,
					"material":1
				}
			]
		},
		{
			"name":"UCX_TopPlastic_Corner_Round_Outer_02.001",
			"primitives":[
				{
					"attributes":{
						"POSITION":8,
						"NORMAL":9,
						"TEXCOORD_0":10
					},
					"indices":11,
					"material":1
				}
			]
		},
		{
			"name":"UCX_TopPlastic_Corner_Round_Outer_04.001",
			"primitives":[
				{
					"attributes":{
						"POSITION":12,
						"NORMAL":13,
						"TEXCOORD_0":14
					},
					"indices":15,
					"material":1
				}
			]
		},
		{
			"name":"UCX_TopPlastic_Corner_Round_Outer_06.001",
			"primitives":[
				{
					"attributes":{
						"POSITION":16,
						"NORMAL":17,
						"TEXCOORD_0":18
					},
					"indices":15,
					"material":1
				}
			]
		},
		{
			"name":"UCX_TopPlastic_Corner_Round_Outer_08.001",
			"primitives":[
				{
					"attributes":{
						"POSITION":19,
						"NORMAL":20,
						"TEXCOORD_0":21
					},
					"indices":11,
					"material":1
				}
			]
		},
		{
			"name":"UCX_TopPlastic_Corner_Round_Outer_10.001",
			"primitives":[
				{
					"attributes":{
						"POSITION":22,
						"NORMAL":23,
						"TEXCOORD_0":24
					},
					"indices":11,
					"material":1
				}
			]
		},
		{
			"name":"UCX_TopPlastic_Corner_Round_Outer_12.001",
			"primitives":[
				{
					"attributes":{
						"POSITION":25,
						"NORMAL":26,
						"TEXCOORD_0":27
					},
					"indices":15,
					"material":1
				}
			]
		},
		{
			"name":"UCX_TopPlastic_Corner_Round_Outer_14.001",
			"primitives":[
				{
					"attributes":{
						"POSITION":28,
						"NORMAL":29,
						"TEXCOORD_0":30
					},
					"indices":31,
					"material":1
				}
			]
		},
		{
			"name":"UCX_TopPlastic_Corner_Round_Outer_04.002",
			"primitives":[
				{
					"attributes":{
						"POSITION":32,
						"NORMAL":33,
						"TEXCOORD_0":34
					},
					"indices":15,
					"material":1
				}
			]
		},
		{
			"name":"UCX_TopPlastic_Corner_Round_Outer_04.003",
			"primitives":[
				{
					"attributes":{
						"POSITION":35,
						"NORMAL":36,
						"TEXCOORD_0":37
					},
					"indices":38,
					"material":1
				}
			]
		},
		{
			"name":"UCX_TopPlastic_Corner_Round_Outer_04.004",
			"primitives":[
				{
					"attributes":{
						"POSITION":39,
						"NORMAL":40,
						"TEXCOORD_0":41
					},
					"indices":42,
					"material":1
				}
			]
		},
		{
			"name":"UCX_TopPlastic_Corner_Round_Outer_04.005",
			"primitives":[
				{
					"attributes":{
						"POSITION":43,
						"NORMAL":44,
						"TEXCOORD_0":45
					},
					"indices":46,
					"material":1
				}
			]
		},
		{
			"name":"UCX_TopPlastic_Corner_Round_Outer_04.006",
			"primitives":[
				{
					"attributes":{
						"POSITION":47,
						"NORMAL":48,
						"TEXCOORD_0":49
					},
					"indices":42,
					"material":1
				}
			]
		},
		{
			"name":"UCX_TopPlastic_Corner_Round_Outer_04.007",
			"primitives":[
				{
					"attributes":{
						"POSITION":50,
						"NORMAL":51,
						"TEXCOORD_0":52
					},
					"indices":42,
					"material":1
				}
			]
		},
		{
			"name":"UCX_TopPlastic_Corner_Round_Outer_04.008",
			"primitives":[
				{
					"attributes":{
						"POSITION":53,
						"NORMAL":54,
						"TEXCOORD_0":55
					},
					"indices":46,
					"material":1
				}
			]
		},
		{
			"name":"UCX_TopPlastic_Corner_Round_Outer_04.009",
			"primitives":[
				{
					"attributes":{
						"POSITION":56,
						"NORMAL":57,
						"TEXCOORD_0":58
					},
					"indices":59,
					"material":1
				}
			]
		}
	],
	"textures":[
		{
			"sampler":0,
			"source":0
		},
		{
			"sampler":0,
			"source":1
		},
		{
			"sampler":0,
			"source":2
		}
	],
	"images":[
		{
			"mimeType":"image/png",
			"name":"T_Trim_01_Normal",
			"uri":"T_Trim_01_Normal.png"
		},
		{
			"mimeType":"image/png",
			"name":"T_Trim_01_BaseColor_Red",
			"uri":"T_Trim_01_BaseColor_Red.png"
		},
		{
			"mimeType":"image/png",
			"name":"T_Trim_01_ORM",
			"uri":"T_Trim_01_ORM.png"
		}
	],
	"accessors":[
		{
			"bufferView":0,
			"componentType":5126,
			"count":946,
			"max":[
				1.7802024103730218e-06,
				5.000000953674316,
				-2.224610398116056e-05
			],
			"min":[
				-4.090722560882568,
				2.999999761581421,
				-4.090721130371094
			],
			"type":"VEC3"
		},
		{
			"bufferView":1,
			"componentType":5126,
			"count":946,
			"type":"VEC3"
		},
		{
			"bufferView":2,
			"componentType":5126,
			"count":946,
			"type":"VEC2"
		},
		{
			"bufferView":3,
			"componentType":5123,
			"count":2784,
			"type":"SCALAR"
		},
		{
			"bufferView":4,
			"componentType":5126,
			"count":24,
			"max":[
				-3.7037220001220703,
				5,
				0
			],
			"min":[
				-4,
				3,
				-0.7803612947463989
			],
			"type":"VEC3"
		},
		{
			"bufferView":5,
			"componentType":5126,
			"count":24,
			"type":"VEC3"
		},
		{
			"bufferView":6,
			"componentType":5126,
			"count":24,
			"type":"VEC2"
		},
		{
			"bufferView":7,
			"componentType":5123,
			"count":36,
			"type":"SCALAR"
		},
		{
			"bufferView":8,
			"componentType":5126,
			"count":24,
			"max":[
				-3.1398637294769287,
				5,
				-1.4451206922531128
			],
			"min":[
				-3.6955177783966064,
				3,
				-2.222280979156494
			],
			"type":"VEC3"
		},
		{
			"bufferView":9,
			"componentType":5126,
			"count":24,
			"type":"VEC3"
		},
		{
			"bufferView":10,
			"componentType":5126,
			"count":24,
			"type":"VEC2"
		},
		{
			"bufferView":11,
			"componentType":5123,
			"count":36,
			"type":"SCALAR"
		},
		{
			"bufferView":12,
			"componentType":5126,
			"count":24,
			"max":[
				-2.097989797592163,
				5,
				-2.6702346801757812
			],
			"min":[
				-2.8284263610839844,
				3,
				-3.325878143310547
			],
			"type":"VEC3"
		},
		{
			"bufferView":13,
			"componentType":5126,
			"count":24,
			"type":"VEC3"
		},
		{
			"bufferView":14,
			"componentType":5126,
			"count":24,
			"type":"VEC2"
		},
		{
			"bufferView":15,
			"componentType":5123,
			"count":36,
			"type":"SCALAR"
		},
		{
			"bufferView":16,
			"componentType":5126,
			"count":24,
			"max":[
				-0.7367159128189087,
				5,
				-3.4888296127319336
			],
			"min":[
				-1.5307328701019287,
				3,
				-3.923140287399292
			],
			"type":"VEC3"
		},
		{
			"bufferView":17,
			"componentType":5126,
			"count":24,
			"type":"VEC3"
		},
		{
			"bufferView":18,
			"componentType":5126,
			"count":24,
			"type":"VEC2"
		},
		{
			"bufferView":19,
			"componentType":5126,
			"count":24,
			"max":[
				-3.4888298511505127,
				5,
				-0.7367161512374878
			],
			"min":[
				-3.9231410026550293,
				3,
				-1.5307337045669556
			],
			"type":"VEC3"
		},
		{
			"bufferView":20,
			"componentType":5126,
			"count":24,
			"type":"VEC3"
		},
		{
			"bufferView":21,
			"componentType":5126,
			"count":24,
			"type":"VEC2"
		},
		{
			"bufferView":22,
			"componentType":5126,
			"count":24,
			"max":[
				-2.6702346801757812,
				5,
				-2.097990036010742
			],
			"min":[
				-3.3258779048919678,
				3,
				-2.8284270763397217
			],
			"type":"VEC3"
		},
		{
			"bufferView":23,
			"componentType":5126,
			"count":24,
			"type":"VEC3"
		},
		{
			"bufferView":24,
			"componentType":5126,
			"count":24,
			"type":"VEC2"
		},
		{
			"bufferView":25,
			"componentType":5126,
			"count":24,
			"max":[
				-1.4451204538345337,
				5,
				-3.1398637294769287
			],
			"min":[
				-2.2222800254821777,
				3,
				-3.6955175399780273
			],
			"type":"VEC3"
		},
		{
			"bufferView":26,
			"componentType":5126,
			"count":24,
			"type":"VEC3"
		},
		{
			"bufferView":27,
			"componentType":5126,
			"count":24,
			"type":"VEC2"
		},
		{
			"bufferView":28,
			"componentType":5126,
			"count":24,
			"max":[
				6.556510925292969e-07,
				5,
				-3.703721523284912
			],
			"min":[
				-0.7803605198860168,
				3,
				-3.9999988079071045
			],
			"type":"VEC3"
		},
		{
			"bufferView":29,
			"componentType":5126,
			"count":24,
			"type":"VEC3"
		},
		{
			"bufferView":30,
			"componentType":5126,
			"count":24,
			"type":"VEC2"
		},
		{
			"bufferView":31,
			"componentType":5123,
			"count":36,
			"type":"SCALAR"
		},
		{
			"bufferView":32,
			"componentType":5126,
			"count":24,
			"max":[
				-2.162627696990967,
				4.8225836753845215,
				-2.752502918243408
			],
			"min":[
				-2.9155683517456055,
				3.108621835708618,
				-3.4283463954925537
			],
			"type":"VEC3"
		},
		{
			"bufferView":33,
			"componentType":5126,
			"count":24,
			"type":"VEC3"
		},
		{
			"bufferView":34,
			"componentType":5126,
			"count":24,
			"type":"VEC2"
		},
		{
			"bufferView":35,
			"componentType":5126,
			"count":24,
			"max":[
				-3.81783127784729,
				4.8225836753845215,
				-0.1952003389596939
			],
			"min":[
				-4.102872848510742,
				3.108621835708618,
				-0.8044039011001587
			],
			"type":"VEC3"
		},
		{
			"bufferView":36,
			"componentType":5126,
			"count":24,
			"type":"VEC3"
		},
		{
			"bufferView":37,
			"componentType":5126,
			"count":24,
			"type":"VEC2"
		},
		{
			"bufferView":38,
			"componentType":5123,
			"count":36,
			"type":"SCALAR"
		},
		{
			"bufferView":39,
			"componentType":5126,
			"count":24,
			"max":[
				-3.236600875854492,
				4.8225836753845215,
				-1.4896440505981445
			],
			"min":[
				-3.8093743324279785,
				3.108621835708618,
				-2.290748119354248
			],
			"type":"VEC3"
		},
		{
			"bufferView":40,
			"componentType":5126,
			"count":24,
			"type":"VEC3"
		},
		{
			"bufferView":41,
			"componentType":5126,
			"count":24,
			"type":"VEC2"
		},
		{
			"bufferView":42,
			"componentType":5123,
			"count":36,
			"type":"SCALAR"
		},
		{
			"bufferView":43,
			"componentType":5126,
			"count":24,
			"max":[
				-0.7594138383865356,
				4.8225836753845215,
				-3.596318244934082
			],
			"min":[
				-1.577893853187561,
				3.108621835708618,
				-4.044009685516357
			],
			"type":"VEC3"
		},
		{
			"bufferView":44,
			"componentType":5126,
			"count":24,
			"type":"VEC3"
		},
		{
			"bufferView":45,
			"componentType":5126,
			"count":24,
			"type":"VEC2"
		},
		{
			"bufferView":46,
			"componentType":5123,
			"count":36,
			"type":"SCALAR"
		},
		{
			"bufferView":47,
			"componentType":5126,
			"count":24,
			"max":[
				-3.596318483352661,
				4.8225836753845215,
				-0.7594140768051147
			],
			"min":[
				-4.044010639190674,
				3.108621835708618,
				-1.5778948068618774
			],
			"type":"VEC3"
		},
		{
			"bufferView":48,
			"componentType":5126,
			"count":24,
			"type":"VEC3"
		},
		{
			"bufferView":49,
			"componentType":5126,
			"count":24,
			"type":"VEC2"
		},
		{
			"bufferView":50,
			"componentType":5126,
			"count":24,
			"max":[
				-2.752502918243408,
				4.8225836753845215,
				-2.162627935409546
			],
			"min":[
				-3.4283461570739746,
				3.108621835708618,
				-2.9155690670013428
			],
			"type":"VEC3"
		},
		{
			"bufferView":51,
			"componentType":5126,
			"count":24,
			"type":"VEC3"
		},
		{
			"bufferView":52,
			"componentType":5126,
			"count":24,
			"type":"VEC2"
		},
		{
			"bufferView":53,
			"componentType":5126,
			"count":24,
			"max":[
				-1.4896438121795654,
				4.8225836753845215,
				-3.236600875854492
			],
			"min":[
				-2.2907471656799316,
				3.108621835708618,
				-3.8093740940093994
			],
			"type":"VEC3"
		},
		{
			"bufferView":54,
			"componentType":5126,
			"count":24,
			"type":"VEC3"
		},
		{
			"bufferView":55,
			"componentType":5126,
			"count":24,
			"type":"VEC2"
		},
		{
			"bufferView":56,
			"componentType":5126,
			"count":24,
			"max":[
				-0.19539989531040192,
				4.8225836753845215,
				-3.817830801010132
			],
			"min":[
				-0.8044030666351318,
				3.108621835708618,
				-4.102850914001465
			],
			"type":"VEC3"
		},
		{
			"bufferView":57,
			"componentType":5126,
			"count":24,
			"type":"VEC3"
		},
		{
			"bufferView":58,
			"componentType":5126,
			"count":24,
			"type":"VEC2"
		},
		{
			"bufferView":59,
			"componentType":5123,
			"count":36,
			"type":"SCALAR"
		}
	],
	"bufferViews":[
		{
			"buffer":0,
			"byteLength":11352,
			"byteOffset":0,
			"target":34962
		},
		{
			"buffer":0,
			"byteLength":11352,
			"byteOffset":11352,
			"target":34962
		},
		{
			"buffer":0,
			"byteLength":7568,
			"byteOffset":22704,
			"target":34962
		},
		{
			"buffer":0,
			"byteLength":5568,
			"byteOffset":30272,
			"target":34963
		},
		{
			"buffer":0,
			"byteLength":288,
			"byteOffset":35840,
			"target":34962
		},
		{
			"buffer":0,
			"byteLength":288,
			"byteOffset":36128,
			"target":34962
		},
		{
			"buffer":0,
			"byteLength":192,
			"byteOffset":36416,
			"target":34962
		},
		{
			"buffer":0,
			"byteLength":72,
			"byteOffset":36608,
			"target":34963
		},
		{
			"buffer":0,
			"byteLength":288,
			"byteOffset":36680,
			"target":34962
		},
		{
			"buffer":0,
			"byteLength":288,
			"byteOffset":36968,
			"target":34962
		},
		{
			"buffer":0,
			"byteLength":192,
			"byteOffset":37256,
			"target":34962
		},
		{
			"buffer":0,
			"byteLength":72,
			"byteOffset":37448,
			"target":34963
		},
		{
			"buffer":0,
			"byteLength":288,
			"byteOffset":37520,
			"target":34962
		},
		{
			"buffer":0,
			"byteLength":288,
			"byteOffset":37808,
			"target":34962
		},
		{
			"buffer":0,
			"byteLength":192,
			"byteOffset":38096,
			"target":34962
		},
		{
			"buffer":0,
			"byteLength":72,
			"byteOffset":38288,
			"target":34963
		},
		{
			"buffer":0,
			"byteLength":288,
			"byteOffset":38360,
			"target":34962
		},
		{
			"buffer":0,
			"byteLength":288,
			"byteOffset":38648,
			"target":34962
		},
		{
			"buffer":0,
			"byteLength":192,
			"byteOffset":38936,
			"target":34962
		},
		{
			"buffer":0,
			"byteLength":288,
			"byteOffset":39128,
			"target":34962
		},
		{
			"buffer":0,
			"byteLength":288,
			"byteOffset":39416,
			"target":34962
		},
		{
			"buffer":0,
			"byteLength":192,
			"byteOffset":39704,
			"target":34962
		},
		{
			"buffer":0,
			"byteLength":288,
			"byteOffset":39896,
			"target":34962
		},
		{
			"buffer":0,
			"byteLength":288,
			"byteOffset":40184,
			"target":34962
		},
		{
			"buffer":0,
			"byteLength":192,
			"byteOffset":40472,
			"target":34962
		},
		{
			"buffer":0,
			"byteLength":288,
			"byteOffset":40664,
			"target":34962
		},
		{
			"buffer":0,
			"byteLength":288,
			"byteOffset":40952,
			"target":34962
		},
		{
			"buffer":0,
			"byteLength":192,
			"byteOffset":41240,
			"target":34962
		},
		{
			"buffer":0,
			"byteLength":288,
			"byteOffset":41432,
			"target":34962
		},
		{
			"buffer":0,
			"byteLength":288,
			"byteOffset":41720,
			"target":34962
		},
		{
			"buffer":0,
			"byteLength":192,
			"byteOffset":42008,
			"target":34962
		},
		{
			"buffer":0,
			"byteLength":72,
			"byteOffset":42200,
			"target":34963
		},
		{
			"buffer":0,
			"byteLength":288,
			"byteOffset":42272,
			"target":34962
		},
		{
			"buffer":0,
			"byteLength":288,
			"byteOffset":42560,
			"target":34962
		},
		{
			"buffer":0,
			"byteLength":192,
			"byteOffset":42848,
			"target":34962
		},
		{
			"buffer":0,
			"byteLength":288,
			"byteOffset":43040,
			"target":34962
		},
		{
			"buffer":0,
			"byteLength":288,
			"byteOffset":43328,
			"target":34962
		},
		{
			"buffer":0,
			"byteLength":192,
			"byteOffset":43616,
			"target":34962
		},
		{
			"buffer":0,
			"byteLength":72,
			"byteOffset":43808,
			"target":34963
		},
		{
			"buffer":0,
			"byteLength":288,
			"byteOffset":43880,
			"target":34962
		},
		{
			"buffer":0,
			"byteLength":288,
			"byteOffset":44168,
			"target":34962
		},
		{
			"buffer":0,
			"byteLength":192,
			"byteOffset":44456,
			"target":34962
		},
		{
			"buffer":0,
			"byteLength":72,
			"byteOffset":44648,
			"target":34963
		},
		{
			"buffer":0,
			"byteLength":288,
			"byteOffset":44720,
			"target":34962
		},
		{
			"buffer":0,
			"byteLength":288,
			"byteOffset":45008,
			"target":34962
		},
		{
			"buffer":0,
			"byteLength":192,
			"byteOffset":45296,
			"target":34962
		},
		{
			"buffer":0,
			"byteLength":72,
			"byteOffset":45488,
			"target":34963
		},
		{
			"buffer":0,
			"byteLength":288,
			"byteOffset":45560,
			"target":34962
		},
		{
			"buffer":0,
			"byteLength":288,
			"byteOffset":45848,
			"target":34962
		},
		{
			"buffer":0,
			"byteLength":192,
			"byteOffset":46136,
			"target":34962
		},
		{
			"buffer":0,
			"byteLength":288,
			"byteOffset":46328,
			"target":34962
		},
		{
			"buffer":0,
			"byteLength":288,
			"byteOffset":46616,
			"target":34962
		},
		{
			"buffer":0,
			"byteLength":192,
			"byteOffset":46904,
			"target":34962
		},
		{
			"buffer":0,
			"byteLength":288,
			"byteOffset":47096,
			"target":34962
		},
		{
			"buffer":0,
			"byteLength":288,
			"byteOffset":47384,
			"target":34962
		},
		{
			"buffer":0,
			"byteLength":192,
			"byteOffset":47672,
			"target":34962
		},
		{
			"buffer":0,
			"byteLength":288,
			"byteOffset":47864,
			"target":34962
		},
		{
			"buffer":0,
			"byteLength":288,
			"byteOffset":48152,
			"target":34962
		},
		{
			"buffer":0,
			"byteLength":192,
			"byteOffset":48440,
			"target":34962
		},
		{
			"buffer":0,
			"byteLength":72,
			"byteOffset":48632,
			"target":34963
		}
	],
	"samplers":[
		{
			"magFilter":9729,
			"minFilter":9987
		}
	],
	"buffers":[
		{
			"byteLength":48704,
			"uri":"TopPlates_Corner_Round_Outer.bin"
		}
	]
}
