{
	"asset":{
		"generator":"Khronos glTF Blender I/O v4.0.44",
		"version":"2.0"
	},
	"extensionsUsed":[
		"KHR_materials_specular",
		"KHR_materials_ior"
	],
	"scene":0,
	"scenes":[
		{
			"name":"Scene",
			"nodes":[
				0,
				1,
				2,
				3,
				4,
				5
			]
		}
	],
	"nodes":[
		{
			"mesh":0,
			"name":"TopPadded_Flat_Curve_Round_Inner"
		},
		{
			"mesh":1,
			"name":"TopPadded_Flat_Curve_Round_Inner_01_convcolonly"
		},
		{
			"mesh":2,
			"name":"TopPadded_Flat_Curve_Round_Inner_02_convcolonly"
		},
		{
			"mesh":3,
			"name":"TopPadded_Flat_Curve_Round_Inner_03_convcolonly"
		},
		{
			"mesh":4,
			"name":"TopPadded_Flat_Curve_Round_Inner_04_convcolonly"
		},
		{
			"mesh":5,
			"name":"TopPadded_Flat_Curve_Round_Inner_05_convcolonly"
		}
	],
	"materials":[
		{
			"doubleSided":true,
			"extensions":{
				"KHR_materials_specular":{
					"specularFactor":0
				},
				"KHR_materials_ior":{
					"ior":1.4500000476837158
				}
			},
			"name":"MI_PaddedWall",
			"normalTexture":{
				"index":0
			},
			"pbrMetallicRoughness":{
				"baseColorTexture":{
					"index":1
				},
				"metallicRoughnessTexture":{
					"index":2
				}
			}
		},
		{
			"doubleSided":true,
			"name":"MI_Trim_02",
			"normalTexture":{
				"index":3
			},
			"pbrMetallicRoughness":{
				"baseColorTexture":{
					"index":4
				},
				"metallicRoughnessTexture":{
					"index":5
				}
			}
		},
		{
			"doubleSided":true,
			"name":"Collision",
			"pbrMetallicRoughness":{
				"baseColorFactor":[
					0.11006110906600952,
					0.2556236684322357,
					0.8000785112380981,
					1
				],
				"metallicFactor":0,
				"roughnessFactor":0.5
			}
		}
	],
	"meshes":[
		{
			"name":"Plane.033",
			"primitives":[
				{
					"attributes":{
						"POSITION":0,
						"NORMAL":1,
						"TEXCOORD_0":2
					},
					"indices":3,
					"material":0
				},
				{
					"attributes":{
						"POSITION":4,
						"NORMAL":5,
						"TEXCOORD_0":6
					},
					"indices":7,
					"material":1
				}
			]
		},
		{
			"name":"UCX_TopPadded_Flat_Curve_Round_Outer_01",
			"primitives":[
				{
					"attributes":{
						"POSITION":8,
						"NORMAL":9,
						"TEXCOORD_0":10
					},
					"indices":11,
					"material":2
				}
			]
		},
		{
			"name":"UCX_TopPadded_Flat_Curve_Round_Outer_02",
			"primitives":[
				{
					"attributes":{
						"POSITION":12,
						"NORMAL":13,
						"TEXCOORD_0":14
					},
					"indices":15,
					"material":2
				}
			]
		},
		{
			"name":"UCX_TopPadded_Flat_Curve_Round_Outer_03",
			"primitives":[
				{
					"attributes":{
						"POSITION":16,
						"NORMAL":17,
						"TEXCOORD_0":18
					},
					"indices":19,
					"material":2
				}
			]
		},
		{
			"name":"UCX_TopPadded_Flat_Curve_Round_Outer_04",
			"primitives":[
				{
					"attributes":{
						"POSITION":20,
						"NORMAL":21,
						"TEXCOORD_0":22
					},
					"indices":23,
					"material":2
				}
			]
		},
		{
			"name":"UCX_TopPadded_Flat_Curve_Round_Outer_05",
			"primitives":[
				{
					"attributes":{
						"POSITION":24,
						"NORMAL":25,
						"TEXCOORD_0":26
					},
					"indices":27,
					"material":2
				}
			]
		}
	],
	"textures":[
		{
			"sampler":0,
			"source":0
		},
		{
			"sampler":0,
			"source":1
		},
		{
			"sampler":0,
			"source":2
		},
		{
			"sampler":0,
			"source":3
		},
		{
			"sampler":0,
			"source":4
		},
		{
			"sampler":0,
			"source":5
		}
	],
	"images":[
		{
			"mimeType":"image/png",
			"name":"T_PaddedWall_Normal",
			"uri":"T_PaddedWall_Normal.png"
		},
		{
			"mimeType":"image/png",
			"name":"T_PaddedWall_BaseColor",
			"uri":"T_PaddedWall_BaseColor.png"
		},
		{
			"mimeType":"image/png",
			"name":"T_PaddedWall_ORM",
			"uri":"T_PaddedWall_ORM.png"
		},
		{
			"mimeType":"image/png",
			"name":"T_Trim_02_Normal",
			"uri":"T_Trim_02_Normal.png"
		},
		{
			"mimeType":"image/png",
			"name":"T_Trim_02_BaseColor_Red",
			"uri":"T_Trim_02_BaseColor_Red.png"
		},
		{
			"mimeType":"image/png",
			"name":"T_Trim_02_ORM",
			"uri":"T_Trim_02_ORM.png"
		}
	],
	"accessors":[
		{
			"bufferView":0,
			"componentType":5126,
			"count":843,
			"max":[
				1.7769815485735307e-06,
				4.999845504760742,
				-0.0006697308272123337
			],
			"min":[
				-3.993962526321411,
				3.0001564025878906,
				-3.9939799308776855
			],
			"type":"VEC3"
		},
		{
			"bufferView":1,
			"componentType":5126,
			"count":843,
			"type":"VEC3"
		},
		{
			"bufferView":2,
			"componentType":5126,
			"count":843,
			"type":"VEC2"
		},
		{
			"bufferView":3,
			"componentType":5123,
			"count":3276,
			"type":"SCALAR"
		},
		{
			"bufferView":4,
			"componentType":5126,
			"count":1249,
			"max":[
				1.7769815485735307e-06,
				5.000159740447998,
				-0.0006697308272123337
			],
			"min":[
				-4.03416109085083,
				2.9998419284820557,
				-4.034279823303223
			],
			"type":"VEC3"
		},
		{
			"bufferView":5,
			"componentType":5126,
			"count":1249,
			"type":"VEC3"
		},
		{
			"bufferView":6,
			"componentType":5126,
			"count":1249,
			"type":"VEC2"
		},
		{
			"bufferView":7,
			"componentType":5123,
			"count":3561,
			"type":"SCALAR"
		},
		{
			"bufferView":8,
			"componentType":5126,
			"count":24,
			"max":[
				-2.3511412143707275,
				5,
				-2.3511409759521484
			],
			"min":[
				-3.397871732711792,
				3,
				-3.397871732711792
			],
			"type":"VEC3"
		},
		{
			"bufferView":9,
			"componentType":5126,
			"count":24,
			"type":"VEC3"
		},
		{
			"bufferView":10,
			"componentType":5126,
			"count":24,
			"type":"VEC2"
		},
		{
			"bufferView":11,
			"componentType":5123,
			"count":36,
			"type":"SCALAR"
		},
		{
			"bufferView":12,
			"componentType":5126,
			"count":24,
			"max":[
				-1.2360681295394897,
				5,
				-3.2360682487487793
			],
			"min":[
				-2.468698501586914,
				3,
				-3.9944379329681396
			],
			"type":"VEC3"
		},
		{
			"bufferView":13,
			"componentType":5126,
			"count":24,
			"type":"VEC3"
		},
		{
			"bufferView":14,
			"componentType":5126,
			"count":24,
			"type":"VEC2"
		},
		{
			"bufferView":15,
			"componentType":5123,
			"count":36,
			"type":"SCALAR"
		},
		{
			"bufferView":16,
			"componentType":5126,
			"count":24,
			"max":[
				-3.2360682487487793,
				5,
				-1.2360680103302002
			],
			"min":[
				-3.9944376945495605,
				3,
				-2.468698263168335
			],
			"type":"VEC3"
		},
		{
			"bufferView":17,
			"componentType":5126,
			"count":24,
			"type":"VEC3"
		},
		{
			"bufferView":18,
			"componentType":5126,
			"count":24,
			"type":"VEC2"
		},
		{
			"bufferView":19,
			"componentType":5123,
			"count":36,
			"type":"SCALAR"
		},
		{
			"bufferView":20,
			"componentType":5126,
			"count":24,
			"max":[
				0,
				5,
				-3.8042263984680176
			],
			"min":[
				-1.2978715896606445,
				3,
				-4.200000762939453
			],
			"type":"VEC3"
		},
		{
			"bufferView":21,
			"componentType":5126,
			"count":24,
			"type":"VEC3"
		},
		{
			"bufferView":22,
			"componentType":5126,
			"count":24,
			"type":"VEC2"
		},
		{
			"bufferView":23,
			"componentType":5123,
			"count":36,
			"type":"SCALAR"
		},
		{
			"bufferView":24,
			"componentType":5126,
			"count":24,
			"max":[
				-3.8042261600494385,
				5,
				0
			],
			"min":[
				-4.199999809265137,
				3,
				-1.2978713512420654
			],
			"type":"VEC3"
		},
		{
			"bufferView":25,
			"componentType":5126,
			"count":24,
			"type":"VEC3"
		},
		{
			"bufferView":26,
			"componentType":5126,
			"count":24,
			"type":"VEC2"
		},
		{
			"bufferView":27,
			"componentType":5123,
			"count":36,
			"type":"SCALAR"
		}
	],
	"bufferViews":[
		{
			"buffer":0,
			"byteLength":10116,
			"byteOffset":0,
			"target":34962
		},
		{
			"buffer":0,
			"byteLength":10116,
			"byteOffset":10116,
			"target":34962
		},
		{
			"buffer":0,
			"byteLength":6744,
			"byteOffset":20232,
			"target":34962
		},
		{
			"buffer":0,
			"byteLength":6552,
			"byteOffset":26976,
			"target":34963
		},
		{
			"buffer":0,
			"byteLength":14988,
			"byteOffset":33528,
			"target":34962
		},
		{
			"buffer":0,
			"byteLength":14988,
			"byteOffset":48516,
			"target":34962
		},
		{
			"buffer":0,
			"byteLength":9992,
			"byteOffset":63504,
			"target":34962
		},
		{
			"buffer":0,
			"byteLength":7122,
			"byteOffset":73496,
			"target":34963
		},
		{
			"buffer":0,
			"byteLength":288,
			"byteOffset":80620,
			"target":34962
		},
		{
			"buffer":0,
			"byteLength":288,
			"byteOffset":80908,
			"target":34962
		},
		{
			"buffer":0,
			"byteLength":192,
			"byteOffset":81196,
			"target":34962
		},
		{
			"buffer":0,
			"byteLength":72,
			"byteOffset":81388,
			"target":34963
		},
		{
			"buffer":0,
			"byteLength":288,
			"byteOffset":81460,
			"target":34962
		},
		{
			"buffer":0,
			"byteLength":288,
			"byteOffset":81748,
			"target":34962
		},
		{
			"buffer":0,
			"byteLength":192,
			"byteOffset":82036,
			"target":34962
		},
		{
			"buffer":0,
			"byteLength":72,
			"byteOffset":82228,
			"target":34963
		},
		{
			"buffer":0,
			"byteLength":288,
			"byteOffset":82300,
			"target":34962
		},
		{
			"buffer":0,
			"byteLength":288,
			"byteOffset":82588,
			"target":34962
		},
		{
			"buffer":0,
			"byteLength":192,
			"byteOffset":82876,
			"target":34962
		},
		{
			"buffer":0,
			"byteLength":72,
			"byteOffset":83068,
			"target":34963
		},
		{
			"buffer":0,
			"byteLength":288,
			"byteOffset":83140,
			"target":34962
		},
		{
			"buffer":0,
			"byteLength":288,
			"byteOffset":83428,
			"target":34962
		},
		{
			"buffer":0,
			"byteLength":192,
			"byteOffset":83716,
			"target":34962
		},
		{
			"buffer":0,
			"byteLength":72,
			"byteOffset":83908,
			"target":34963
		},
		{
			"buffer":0,
			"byteLength":288,
			"byteOffset":83980,
			"target":34962
		},
		{
			"buffer":0,
			"byteLength":288,
			"byteOffset":84268,
			"target":34962
		},
		{
			"buffer":0,
			"byteLength":192,
			"byteOffset":84556,
			"target":34962
		},
		{
			"buffer":0,
			"byteLength":72,
			"byteOffset":84748,
			"target":34963
		}
	],
	"samplers":[
		{
			"magFilter":9729,
			"minFilter":9987
		}
	],
	"buffers":[
		{
			"byteLength":84820,
			"uri":"TopPadded_Flat_Curve_Round_Inner.bin"
		}
	]
}
