{
	"asset":{
		"generator":"Khronos glTF Blender I/O v4.0.44",
		"version":"2.0"
	},
	"extensionsUsed":[
		"KHR_materials_specular",
		"KHR_materials_ior"
	],
	"scene":0,
	"scenes":[
		{
			"name":"Scene",
			"nodes":[
				0,
				1,
				2,
				3,
				4,
				5,
				6,
				7,
				8,
				9,
				10,
				11,
				12,
				13,
				14,
				15,
				16
			]
		}
	],
	"nodes":[
		{
			"mesh":0,
			"name":"TopPlastic_Corner_Round_Inner"
		},
		{
			"mesh":1,
			"name":"TopPlastic_Corner_Round_Inner_00_convcolonly"
		},
		{
			"mesh":2,
			"name":"TopPlastic_Corner_Round_Inner_01_convcolonly"
		},
		{
			"mesh":3,
			"name":"TopPlastic_Corner_Round_Inner_02_convcolonly"
		},
		{
			"mesh":4,
			"name":"TopPlastic_Corner_Round_Inner_03_convcolonly"
		},
		{
			"mesh":5,
			"name":"TopPlastic_Corner_Round_Inner_04_convcolonly"
		},
		{
			"mesh":6,
			"name":"TopPlastic_Corner_Round_Inner_05_convcolonly"
		},
		{
			"mesh":7,
			"name":"TopPlastic_Corner_Round_Inner_06_convcolonly"
		},
		{
			"mesh":8,
			"name":"TopPlastic_Corner_Round_Inner_07_convcolonly"
		},
		{
			"mesh":9,
			"name":"TopPlastic_Corner_Round_Inner_08_convcolonly"
		},
		{
			"mesh":10,
			"name":"TopPlastic_Corner_Round_Inner_09_convcolonly"
		},
		{
			"mesh":11,
			"name":"TopPlastic_Corner_Round_Inner_10_convcolonly"
		},
		{
			"mesh":12,
			"name":"TopPlastic_Corner_Round_Inner_11_convcolonly"
		},
		{
			"mesh":13,
			"name":"TopPlastic_Corner_Round_Inner_12_convcolonly"
		},
		{
			"mesh":14,
			"name":"TopPlastic_Corner_Round_Inner_13_convcolonly"
		},
		{
			"mesh":15,
			"name":"TopPlastic_Corner_Round_Inner_14_convcolonly"
		},
		{
			"mesh":16,
			"name":"TopPlastic_Corner_Round_Inner_15_convcolonly"
		}
	],
	"materials":[
		{
			"doubleSided":true,
			"name":"MI_Trim_02",
			"normalTexture":{
				"index":0
			},
			"pbrMetallicRoughness":{
				"baseColorTexture":{
					"index":1
				},
				"metallicRoughnessTexture":{
					"index":2
				}
			}
		},
		{
			"doubleSided":true,
			"extensions":{
				"KHR_materials_specular":{
					"specularFactor":0
				},
				"KHR_materials_ior":{
					"ior":1.4500000476837158
				}
			},
			"name":"MI_Trim_01",
			"normalTexture":{
				"index":3
			},
			"pbrMetallicRoughness":{
				"baseColorTexture":{
					"index":4
				},
				"metallicRoughnessTexture":{
					"index":5
				}
			}
		},
		{
			"doubleSided":true,
			"name":"MI_Trim_02_Variation",
			"normalTexture":{
				"index":6
			},
			"pbrMetallicRoughness":{
				"baseColorTexture":{
					"index":7
				},
				"metallicRoughnessTexture":{
					"index":8
				}
			}
		},
		{
			"doubleSided":true,
			"name":"Collision",
			"pbrMetallicRoughness":{
				"baseColorFactor":[
					0.11006110906600952,
					0.2556236684322357,
					0.8000785112380981,
					1
				],
				"metallicFactor":0,
				"roughnessFactor":0.5
			}
		}
	],
	"meshes":[
		{
			"name":"Plane.071",
			"primitives":[
				{
					"attributes":{
						"POSITION":0,
						"NORMAL":1,
						"TEXCOORD_0":2
					},
					"indices":3,
					"material":0
				},
				{
					"attributes":{
						"POSITION":4,
						"NORMAL":5,
						"TEXCOORD_0":6
					},
					"indices":7,
					"material":1
				},
				{
					"attributes":{
						"POSITION":8,
						"NORMAL":9,
						"TEXCOORD_0":10
					},
					"indices":11,
					"material":2
				}
			]
		},
		{
			"name":"UCX_TopPlastic_Corner_Round_Inner_00",
			"primitives":[
				{
					"attributes":{
						"POSITION":12,
						"NORMAL":13,
						"TEXCOORD_0":14
					},
					"indices":15,
					"material":3
				}
			]
		},
		{
			"name":"UCX_TopPlastic_Corner_Round_Inner_01",
			"primitives":[
				{
					"attributes":{
						"POSITION":16,
						"NORMAL":17,
						"TEXCOORD_0":18
					},
					"indices":19,
					"material":3
				}
			]
		},
		{
			"name":"UCX_TopPlastic_Corner_Round_Inner_02",
			"primitives":[
				{
					"attributes":{
						"POSITION":20,
						"NORMAL":21,
						"TEXCOORD_0":22
					},
					"indices":23,
					"material":3
				}
			]
		},
		{
			"name":"UCX_TopPlastic_Corner_Round_Inner_03",
			"primitives":[
				{
					"attributes":{
						"POSITION":24,
						"NORMAL":25,
						"TEXCOORD_0":26
					},
					"indices":27,
					"material":3
				}
			]
		},
		{
			"name":"UCX_TopPlastic_Corner_Round_Inner_04",
			"primitives":[
				{
					"attributes":{
						"POSITION":28,
						"NORMAL":29,
						"TEXCOORD_0":30
					},
					"indices":31,
					"material":3
				}
			]
		},
		{
			"name":"UCX_TopPlastic_Corner_Round_Inner_05",
			"primitives":[
				{
					"attributes":{
						"POSITION":32,
						"NORMAL":33,
						"TEXCOORD_0":34
					},
					"indices":35,
					"material":3
				}
			]
		},
		{
			"name":"UCX_TopPlastic_Corner_Round_Inner_06",
			"primitives":[
				{
					"attributes":{
						"POSITION":36,
						"NORMAL":37,
						"TEXCOORD_0":38
					},
					"indices":39,
					"material":3
				}
			]
		},
		{
			"name":"UCX_TopPlastic_Corner_Round_Inner_07",
			"primitives":[
				{
					"attributes":{
						"POSITION":40,
						"NORMAL":41,
						"TEXCOORD_0":42
					},
					"indices":43,
					"material":3
				}
			]
		},
		{
			"name":"UCX_TopPlastic_Corner_Round_Inner_08",
			"primitives":[
				{
					"attributes":{
						"POSITION":44,
						"NORMAL":45,
						"TEXCOORD_0":46
					},
					"indices":47,
					"material":3
				}
			]
		},
		{
			"name":"UCX_TopPlastic_Corner_Round_Inner_09",
			"primitives":[
				{
					"attributes":{
						"POSITION":48,
						"NORMAL":49,
						"TEXCOORD_0":50
					},
					"indices":51,
					"material":3
				}
			]
		},
		{
			"name":"UCX_TopPlastic_Corner_Round_Inner_10",
			"primitives":[
				{
					"attributes":{
						"POSITION":52,
						"NORMAL":53,
						"TEXCOORD_0":54
					},
					"indices":47,
					"material":3
				}
			]
		},
		{
			"name":"UCX_TopPlastic_Corner_Round_Inner_11",
			"primitives":[
				{
					"attributes":{
						"POSITION":55,
						"NORMAL":56,
						"TEXCOORD_0":57
					},
					"indices":51,
					"material":3
				}
			]
		},
		{
			"name":"UCX_TopPlastic_Corner_Round_Inner_12",
			"primitives":[
				{
					"attributes":{
						"POSITION":58,
						"NORMAL":59,
						"TEXCOORD_0":60
					},
					"indices":39,
					"material":3
				}
			]
		},
		{
			"name":"UCX_TopPlastic_Corner_Round_Inner_13",
			"primitives":[
				{
					"attributes":{
						"POSITION":61,
						"NORMAL":62,
						"TEXCOORD_0":63
					},
					"indices":43,
					"material":3
				}
			]
		},
		{
			"name":"UCX_TopPlastic_Corner_Round_Inner_14",
			"primitives":[
				{
					"attributes":{
						"POSITION":64,
						"NORMAL":65,
						"TEXCOORD_0":66
					},
					"indices":67,
					"material":3
				}
			]
		},
		{
			"name":"UCX_TopPlastic_Corner_Round_Inner_15",
			"primitives":[
				{
					"attributes":{
						"POSITION":68,
						"NORMAL":69,
						"TEXCOORD_0":70
					},
					"indices":71,
					"material":3
				}
			]
		}
	],
	"textures":[
		{
			"sampler":0,
			"source":0
		},
		{
			"sampler":0,
			"source":1
		},
		{
			"sampler":0,
			"source":2
		},
		{
			"sampler":0,
			"source":3
		},
		{
			"sampler":0,
			"source":4
		},
		{
			"sampler":0,
			"source":5
		},
		{
			"sampler":0,
			"source":0
		},
		{
			"sampler":0,
			"source":6
		},
		{
			"sampler":0,
			"source":2
		}
	],
	"images":[
		{
			"mimeType":"image/png",
			"name":"T_Trim_02_Normal",
			"uri":"T_Trim_02_Normal.png"
		},
		{
			"mimeType":"image/png",
			"name":"T_Trim_02_BaseColor_Red",
			"uri":"T_Trim_02_BaseColor_Red.png"
		},
		{
			"mimeType":"image/png",
			"name":"T_Trim_02_ORM",
			"uri":"T_Trim_02_ORM.png"
		},
		{
			"mimeType":"image/png",
			"name":"T_Trim_01_Normal",
			"uri":"T_Trim_01_Normal.png"
		},
		{
			"mimeType":"image/png",
			"name":"T_Trim_01_BaseColor_Red",
			"uri":"T_Trim_01_BaseColor_Red.png"
		},
		{
			"mimeType":"image/png",
			"name":"T_Trim_01_ORM",
			"uri":"T_Trim_01_ORM.png"
		},
		{
			"mimeType":"image/png",
			"name":"T_Trim_02_BaseColor",
			"uri":"T_Trim_02_BaseColor.png"
		}
	],
	"accessors":[
		{
			"bufferView":0,
			"componentType":5126,
			"count":72,
			"max":[
				1.4821793001829064e-06,
				3.500000476837158,
				-2.224610398116056e-05
			],
			"min":[
				-4.000000476837158,
				3,
				-4
			],
			"type":"VEC3"
		},
		{
			"bufferView":1,
			"componentType":5126,
			"count":72,
			"type":"VEC3"
		},
		{
			"bufferView":2,
			"componentType":5126,
			"count":72,
			"type":"VEC2"
		},
		{
			"bufferView":3,
			"componentType":5123,
			"count":192,
			"type":"SCALAR"
		},
		{
			"bufferView":4,
			"componentType":5126,
			"count":81,
			"max":[
				1.5696573427703697e-06,
				3.5177483558654785,
				-2.1744044715887867e-05
			],
			"min":[
				-4,
				3.499999761581421,
				-4
			],
			"type":"VEC3"
		},
		{
			"bufferView":5,
			"componentType":5126,
			"count":81,
			"type":"VEC3"
		},
		{
			"bufferView":6,
			"componentType":5126,
			"count":81,
			"type":"VEC2"
		},
		{
			"bufferView":7,
			"componentType":5123,
			"count":204,
			"type":"SCALAR"
		},
		{
			"bufferView":8,
			"componentType":5126,
			"count":400,
			"max":[
				1.5106434148037806e-06,
				5.01774787902832,
				-1.9312461517984048e-05
			],
			"min":[
				-3.904430866241455,
				3.499999761581421,
				-3.9044301509857178
			],
			"type":"VEC3"
		},
		{
			"bufferView":9,
			"componentType":5126,
			"count":400,
			"type":"VEC3"
		},
		{
			"bufferView":10,
			"componentType":5126,
			"count":400,
			"type":"VEC2"
		},
		{
			"bufferView":11,
			"componentType":5123,
			"count":1296,
			"type":"SCALAR"
		},
		{
			"bufferView":12,
			"componentType":5126,
			"count":24,
			"max":[
				-3.335838794708252,
				5,
				0
			],
			"min":[
				-4.22371768951416,
				3.468301773071289,
				-0.8240064382553101
			],
			"type":"VEC3"
		},
		{
			"bufferView":13,
			"componentType":5126,
			"count":24,
			"type":"VEC3"
		},
		{
			"bufferView":14,
			"componentType":5126,
			"count":24,
			"type":"VEC2"
		},
		{
			"bufferView":15,
			"componentType":5123,
			"count":36,
			"type":"SCALAR"
		},
		{
			"bufferView":16,
			"componentType":5126,
			"count":24,
			"max":[
				-3.9231410026550293,
				5,
				0
			],
			"min":[
				-4.22371768951416,
				3,
				-0.8240064382553101
			],
			"type":"VEC3"
		},
		{
			"bufferView":17,
			"componentType":5126,
			"count":24,
			"type":"VEC3"
		},
		{
			"bufferView":18,
			"componentType":5126,
			"count":24,
			"type":"VEC2"
		},
		{
			"bufferView":19,
			"componentType":5123,
			"count":36,
			"type":"SCALAR"
		},
		{
			"bufferView":20,
			"componentType":5126,
			"count":24,
			"max":[
				-2.8279874324798584,
				5,
				-1.3015797138214111
			],
			"min":[
				-3.9022059440612793,
				3.468301773071289,
				-2.346571683883667
			],
			"type":"VEC3"
		},
		{
			"bufferView":21,
			"componentType":5126,
			"count":24,
			"type":"VEC3"
		},
		{
			"bufferView":22,
			"componentType":5126,
			"count":24,
			"type":"VEC2"
		},
		{
			"bufferView":23,
			"componentType":5123,
			"count":36,
			"type":"SCALAR"
		},
		{
			"bufferView":24,
			"componentType":5126,
			"count":24,
			"max":[
				-3.3258779048919678,
				5,
				-1.5307337045669556
			],
			"min":[
				-3.9022059440612793,
				3,
				-2.346571683883667
			],
			"type":"VEC3"
		},
		{
			"bufferView":25,
			"componentType":5126,
			"count":24,
			"type":"VEC3"
		},
		{
			"bufferView":26,
			"componentType":5126,
			"count":24,
			"type":"VEC2"
		},
		{
			"bufferView":27,
			"componentType":5123,
			"count":36,
			"type":"SCALAR"
		},
		{
			"bufferView":28,
			"componentType":5126,
			"count":24,
			"max":[
				-1.8896007537841797,
				5,
				-2.40500545501709
			],
			"min":[
				-2.986618757247925,
				3.468301773071289,
				-3.511892318725586
			],
			"type":"VEC3"
		},
		{
			"bufferView":29,
			"componentType":5126,
			"count":24,
			"type":"VEC3"
		},
		{
			"bufferView":30,
			"componentType":5126,
			"count":24,
			"type":"VEC2"
		},
		{
			"bufferView":31,
			"componentType":5123,
			"count":36,
			"type":"SCALAR"
		},
		{
			"bufferView":32,
			"componentType":5126,
			"count":24,
			"max":[
				-2.2222800254821777,
				5,
				-2.8284270763397217
			],
			"min":[
				-2.986618757247925,
				3,
				-3.511892318725586
			],
			"type":"VEC3"
		},
		{
			"bufferView":33,
			"componentType":5126,
			"count":24,
			"type":"VEC3"
		},
		{
			"bufferView":34,
			"componentType":5126,
			"count":24,
			"type":"VEC2"
		},
		{
			"bufferView":35,
			"componentType":5123,
			"count":36,
			"type":"SCALAR"
		},
		{
			"bufferView":36,
			"componentType":5126,
			"count":24,
			"max":[
				-0.6635396480560303,
				5,
				-3.1422908306121826
			],
			"min":[
				-1.6163462400436401,
				3.468301773071289,
				-4.142559051513672
			],
			"type":"VEC3"
		},
		{
			"bufferView":37,
			"componentType":5126,
			"count":24,
			"type":"VEC3"
		},
		{
			"bufferView":38,
			"componentType":5126,
			"count":24,
			"type":"VEC2"
		},
		{
			"bufferView":39,
			"componentType":5123,
			"count":36,
			"type":"SCALAR"
		},
		{
			"bufferView":40,
			"componentType":5126,
			"count":24,
			"max":[
				-0.7803605198860168,
				5,
				-3.6955175399780273
			],
			"min":[
				-1.6163462400436401,
				3,
				-4.142559051513672
			],
			"type":"VEC3"
		},
		{
			"bufferView":41,
			"componentType":5126,
			"count":24,
			"type":"VEC3"
		},
		{
			"bufferView":42,
			"componentType":5126,
			"count":24,
			"type":"VEC2"
		},
		{
			"bufferView":43,
			"componentType":5123,
			"count":36,
			"type":"SCALAR"
		},
		{
			"bufferView":44,
			"componentType":5126,
			"count":24,
			"max":[
				-3.142291307449341,
				5,
				-0.6635396480560303
			],
			"min":[
				-4.142560005187988,
				3.468301773071289,
				-1.6163467168807983
			],
			"type":"VEC3"
		},
		{
			"bufferView":45,
			"componentType":5126,
			"count":24,
			"type":"VEC3"
		},
		{
			"bufferView":46,
			"componentType":5126,
			"count":24,
			"type":"VEC2"
		},
		{
			"bufferView":47,
			"componentType":5123,
			"count":36,
			"type":"SCALAR"
		},
		{
			"bufferView":48,
			"componentType":5126,
			"count":24,
			"max":[
				-3.6955177783966064,
				5,
				-0.7803612947463989
			],
			"min":[
				-4.142560005187988,
				3,
				-1.6163467168807983
			],
			"type":"VEC3"
		},
		{
			"bufferView":49,
			"componentType":5126,
			"count":24,
			"type":"VEC3"
		},
		{
			"bufferView":50,
			"componentType":5126,
			"count":24,
			"type":"VEC2"
		},
		{
			"bufferView":51,
			"componentType":5123,
			"count":36,
			"type":"SCALAR"
		},
		{
			"bufferView":52,
			"componentType":5126,
			"count":24,
			"max":[
				-2.40500545501709,
				5,
				-1.8896007537841797
			],
			"min":[
				-3.511892318725586,
				3.468301773071289,
				-2.986618995666504
			],
			"type":"VEC3"
		},
		{
			"bufferView":53,
			"componentType":5126,
			"count":24,
			"type":"VEC3"
		},
		{
			"bufferView":54,
			"componentType":5126,
			"count":24,
			"type":"VEC2"
		},
		{
			"bufferView":55,
			"componentType":5126,
			"count":24,
			"max":[
				-2.8284263610839844,
				5,
				-2.222280979156494
			],
			"min":[
				-3.511892318725586,
				3,
				-2.986618995666504
			],
			"type":"VEC3"
		},
		{
			"bufferView":56,
			"componentType":5126,
			"count":24,
			"type":"VEC3"
		},
		{
			"bufferView":57,
			"componentType":5126,
			"count":24,
			"type":"VEC2"
		},
		{
			"bufferView":58,
			"componentType":5126,
			"count":24,
			"max":[
				-1.3015797138214111,
				5,
				-2.8279871940612793
			],
			"min":[
				-2.346571207046509,
				3.468301773071289,
				-3.902205467224121
			],
			"type":"VEC3"
		},
		{
			"bufferView":59,
			"componentType":5126,
			"count":24,
			"type":"VEC3"
		},
		{
			"bufferView":60,
			"componentType":5126,
			"count":24,
			"type":"VEC2"
		},
		{
			"bufferView":61,
			"componentType":5126,
			"count":24,
			"max":[
				-1.5307328701019287,
				5,
				-3.325878143310547
			],
			"min":[
				-2.346571207046509,
				3,
				-3.902205467224121
			],
			"type":"VEC3"
		},
		{
			"bufferView":62,
			"componentType":5126,
			"count":24,
			"type":"VEC3"
		},
		{
			"bufferView":63,
			"componentType":5126,
			"count":24,
			"type":"VEC2"
		},
		{
			"bufferView":64,
			"componentType":5126,
			"count":24,
			"max":[
				2.980232238769531e-07,
				5,
				-3.3358380794525146
			],
			"min":[
				-0.8240060210227966,
				3.468301773071289,
				-4.2237162590026855
			],
			"type":"VEC3"
		},
		{
			"bufferView":65,
			"componentType":5126,
			"count":24,
			"type":"VEC3"
		},
		{
			"bufferView":66,
			"componentType":5126,
			"count":24,
			"type":"VEC2"
		},
		{
			"bufferView":67,
			"componentType":5123,
			"count":36,
			"type":"SCALAR"
		},
		{
			"bufferView":68,
			"componentType":5126,
			"count":24,
			"max":[
				6.556510925292969e-07,
				5,
				-3.923140287399292
			],
			"min":[
				-0.8240060210227966,
				3,
				-4.2237162590026855
			],
			"type":"VEC3"
		},
		{
			"bufferView":69,
			"componentType":5126,
			"count":24,
			"type":"VEC3"
		},
		{
			"bufferView":70,
			"componentType":5126,
			"count":24,
			"type":"VEC2"
		},
		{
			"bufferView":71,
			"componentType":5123,
			"count":36,
			"type":"SCALAR"
		}
	],
	"bufferViews":[
		{
			"buffer":0,
			"byteLength":864,
			"byteOffset":0,
			"target":34962
		},
		{
			"buffer":0,
			"byteLength":864,
			"byteOffset":864,
			"target":34962
		},
		{
			"buffer":0,
			"byteLength":576,
			"byteOffset":1728,
			"target":34962
		},
		{
			"buffer":0,
			"byteLength":384,
			"byteOffset":2304,
			"target":34963
		},
		{
			"buffer":0,
			"byteLength":972,
			"byteOffset":2688,
			"target":34962
		},
		{
			"buffer":0,
			"byteLength":972,
			"byteOffset":3660,
			"target":34962
		},
		{
			"buffer":0,
			"byteLength":648,
			"byteOffset":4632,
			"target":34962
		},
		{
			"buffer":0,
			"byteLength":408,
			"byteOffset":5280,
			"target":34963
		},
		{
			"buffer":0,
			"byteLength":4800,
			"byteOffset":5688,
			"target":34962
		},
		{
			"buffer":0,
			"byteLength":4800,
			"byteOffset":10488,
			"target":34962
		},
		{
			"buffer":0,
			"byteLength":3200,
			"byteOffset":15288,
			"target":34962
		},
		{
			"buffer":0,
			"byteLength":2592,
			"byteOffset":18488,
			"target":34963
		},
		{
			"buffer":0,
			"byteLength":288,
			"byteOffset":21080,
			"target":34962
		},
		{
			"buffer":0,
			"byteLength":288,
			"byteOffset":21368,
			"target":34962
		},
		{
			"buffer":0,
			"byteLength":192,
			"byteOffset":21656,
			"target":34962
		},
		{
			"buffer":0,
			"byteLength":72,
			"byteOffset":21848,
			"target":34963
		},
		{
			"buffer":0,
			"byteLength":288,
			"byteOffset":21920,
			"target":34962
		},
		{
			"buffer":0,
			"byteLength":288,
			"byteOffset":22208,
			"target":34962
		},
		{
			"buffer":0,
			"byteLength":192,
			"byteOffset":22496,
			"target":34962
		},
		{
			"buffer":0,
			"byteLength":72,
			"byteOffset":22688,
			"target":34963
		},
		{
			"buffer":0,
			"byteLength":288,
			"byteOffset":22760,
			"target":34962
		},
		{
			"buffer":0,
			"byteLength":288,
			"byteOffset":23048,
			"target":34962
		},
		{
			"buffer":0,
			"byteLength":192,
			"byteOffset":23336,
			"target":34962
		},
		{
			"buffer":0,
			"byteLength":72,
			"byteOffset":23528,
			"target":34963
		},
		{
			"buffer":0,
			"byteLength":288,
			"byteOffset":23600,
			"target":34962
		},
		{
			"buffer":0,
			"byteLength":288,
			"byteOffset":23888,
			"target":34962
		},
		{
			"buffer":0,
			"byteLength":192,
			"byteOffset":24176,
			"target":34962
		},
		{
			"buffer":0,
			"byteLength":72,
			"byteOffset":24368,
			"target":34963
		},
		{
			"buffer":0,
			"byteLength":288,
			"byteOffset":24440,
			"target":34962
		},
		{
			"buffer":0,
			"byteLength":288,
			"byteOffset":24728,
			"target":34962
		},
		{
			"buffer":0,
			"byteLength":192,
			"byteOffset":25016,
			"target":34962
		},
		{
			"buffer":0,
			"byteLength":72,
			"byteOffset":25208,
			"target":34963
		},
		{
			"buffer":0,
			"byteLength":288,
			"byteOffset":25280,
			"target":34962
		},
		{
			"buffer":0,
			"byteLength":288,
			"byteOffset":25568,
			"target":34962
		},
		{
			"buffer":0,
			"byteLength":192,
			"byteOffset":25856,
			"target":34962
		},
		{
			"buffer":0,
			"byteLength":72,
			"byteOffset":26048,
			"target":34963
		},
		{
			"buffer":0,
			"byteLength":288,
			"byteOffset":26120,
			"target":34962
		},
		{
			"buffer":0,
			"byteLength":288,
			"byteOffset":26408,
			"target":34962
		},
		{
			"buffer":0,
			"byteLength":192,
			"byteOffset":26696,
			"target":34962
		},
		{
			"buffer":0,
			"byteLength":72,
			"byteOffset":26888,
			"target":34963
		},
		{
			"buffer":0,
			"byteLength":288,
			"byteOffset":26960,
			"target":34962
		},
		{
			"buffer":0,
			"byteLength":288,
			"byteOffset":27248,
			"target":34962
		},
		{
			"buffer":0,
			"byteLength":192,
			"byteOffset":27536,
			"target":34962
		},
		{
			"buffer":0,
			"byteLength":72,
			"byteOffset":27728,
			"target":34963
		},
		{
			"buffer":0,
			"byteLength":288,
			"byteOffset":27800,
			"target":34962
		},
		{
			"buffer":0,
			"byteLength":288,
			"byteOffset":28088,
			"target":34962
		},
		{
			"buffer":0,
			"byteLength":192,
			"byteOffset":28376,
			"target":34962
		},
		{
			"buffer":0,
			"byteLength":72,
			"byteOffset":28568,
			"target":34963
		},
		{
			"buffer":0,
			"byteLength":288,
			"byteOffset":28640,
			"target":34962
		},
		{
			"buffer":0,
			"byteLength":288,
			"byteOffset":28928,
			"target":34962
		},
		{
			"buffer":0,
			"byteLength":192,
			"byteOffset":29216,
			"target":34962
		},
		{
			"buffer":0,
			"byteLength":72,
			"byteOffset":29408,
			"target":34963
		},
		{
			"buffer":0,
			"byteLength":288,
			"byteOffset":29480,
			"target":34962
		},
		{
			"buffer":0,
			"byteLength":288,
			"byteOffset":29768,
			"target":34962
		},
		{
			"buffer":0,
			"byteLength":192,
			"byteOffset":30056,
			"target":34962
		},
		{
			"buffer":0,
			"byteLength":288,
			"byteOffset":30248,
			"target":34962
		},
		{
			"buffer":0,
			"byteLength":288,
			"byteOffset":30536,
			"target":34962
		},
		{
			"buffer":0,
			"byteLength":192,
			"byteOffset":30824,
			"target":34962
		},
		{
			"buffer":0,
			"byteLength":288,
			"byteOffset":31016,
			"target":34962
		},
		{
			"buffer":0,
			"byteLength":288,
			"byteOffset":31304,
			"target":34962
		},
		{
			"buffer":0,
			"byteLength":192,
			"byteOffset":31592,
			"target":34962
		},
		{
			"buffer":0,
			"byteLength":288,
			"byteOffset":31784,
			"target":34962
		},
		{
			"buffer":0,
			"byteLength":288,
			"byteOffset":32072,
			"target":34962
		},
		{
			"buffer":0,
			"byteLength":192,
			"byteOffset":32360,
			"target":34962
		},
		{
			"buffer":0,
			"byteLength":288,
			"byteOffset":32552,
			"target":34962
		},
		{
			"buffer":0,
			"byteLength":288,
			"byteOffset":32840,
			"target":34962
		},
		{
			"buffer":0,
			"byteLength":192,
			"byteOffset":33128,
			"target":34962
		},
		{
			"buffer":0,
			"byteLength":72,
			"byteOffset":33320,
			"target":34963
		},
		{
			"buffer":0,
			"byteLength":288,
			"byteOffset":33392,
			"target":34962
		},
		{
			"buffer":0,
			"byteLength":288,
			"byteOffset":33680,
			"target":34962
		},
		{
			"buffer":0,
			"byteLength":192,
			"byteOffset":33968,
			"target":34962
		},
		{
			"buffer":0,
			"byteLength":72,
			"byteOffset":34160,
			"target":34963
		}
	],
	"samplers":[
		{
			"magFilter":9729,
			"minFilter":9987
		}
	],
	"buffers":[
		{
			"byteLength":34232,
			"uri":"TopPlastic_Corner_Round_Inner.bin"
		}
	]
}
