{
	"asset":{
		"generator":"Khronos glTF Blender I/O v4.0.44",
		"version":"2.0"
	},
	"extensionsUsed":[
		"KHR_materials_specular",
		"KHR_materials_ior"
	],
	"scene":0,
	"scenes":[
		{
			"name":"Scene",
			"nodes":[
				0,
				1,
				2
			]
		}
	],
	"nodes":[
		{
			"mesh":0,
			"name":"TopPlates_Straight"
		},
		{
			"mesh":1,
			"name":"TopPlates_Straight_1_convcolonly"
		},
		{
			"mesh":2,
			"name":"TopPlates_Straight_2_convcolonly"
		}
	],
	"materials":[
		{
			"doubleSided":true,
			"extensions":{
				"KHR_materials_specular":{
					"specularFactor":0
				},
				"KHR_materials_ior":{
					"ior":1.4500000476837158
				}
			},
			"name":"MI_Trim_01",
			"normalTexture":{
				"index":0
			},
			"pbrMetallicRoughness":{
				"baseColorTexture":{
					"index":1
				},
				"metallicRoughnessTexture":{
					"index":2
				}
			}
		},
		{
			"doubleSided":true,
			"name":"Collision",
			"pbrMetallicRoughness":{
				"baseColorFactor":[
					0.11006110906600952,
					0.2556236684322357,
					0.8000785112380981,
					1
				],
				"metallicFactor":0,
				"roughnessFactor":0.5
			}
		}
	],
	"meshes":[
		{
			"name":"Plane.155",
			"primitives":[
				{
					"attributes":{
						"POSITION":0,
						"NORMAL":1,
						"TEXCOORD_0":2
					},
					"indices":3,
					"material":0
				}
			]
		},
		{
			"name":"Cube.204",
			"primitives":[
				{
					"attributes":{
						"POSITION":4,
						"NORMAL":5,
						"TEXCOORD_0":6
					},
					"indices":7,
					"material":1
				}
			]
		},
		{
			"name":"Cube.205",
			"primitives":[
				{
					"attributes":{
						"POSITION":8,
						"NORMAL":9,
						"TEXCOORD_0":10
					},
					"indices":11,
					"material":1
				}
			]
		}
	],
	"textures":[
		{
			"sampler":0,
			"source":0
		},
		{
			"sampler":0,
			"source":1
		},
		{
			"sampler":0,
			"source":2
		}
	],
	"images":[
		{
			"mimeType":"image/png",
			"name":"T_Trim_01_Normal",
			"uri":"T_Trim_01_Normal.png"
		},
		{
			"mimeType":"image/png",
			"name":"T_Trim_01_BaseColor_Red",
			"uri":"T_Trim_01_BaseColor_Red.png"
		},
		{
			"mimeType":"image/png",
			"name":"T_Trim_01_ORM",
			"uri":"T_Trim_01_ORM.png"
		}
	],
	"accessors":[
		{
			"bufferView":0,
			"componentType":5126,
			"count":381,
			"max":[
				-1.8933852910995483,
				5.000000476837158,
				2.0000009536743164
			],
			"min":[
				-2.0233190059661865,
				3,
				-1.9999995231628418
			],
			"type":"VEC3"
		},
		{
			"bufferView":1,
			"componentType":5126,
			"count":381,
			"type":"VEC3"
		},
		{
			"bufferView":2,
			"componentType":5126,
			"count":381,
			"type":"VEC2"
		},
		{
			"bufferView":3,
			"componentType":5123,
			"count":1050,
			"type":"SCALAR"
		},
		{
			"bufferView":4,
			"componentType":5126,
			"count":24,
			"max":[
				-2,
				5,
				2
			],
			"min":[
				-2.200000047683716,
				3,
				-2
			],
			"type":"VEC3"
		},
		{
			"bufferView":5,
			"componentType":5126,
			"count":24,
			"type":"VEC3"
		},
		{
			"bufferView":6,
			"componentType":5126,
			"count":24,
			"type":"VEC2"
		},
		{
			"bufferView":7,
			"componentType":5123,
			"count":36,
			"type":"SCALAR"
		},
		{
			"bufferView":8,
			"componentType":5126,
			"count":24,
			"max":[
				-1.8883813619613647,
				4.878006935119629,
				1.8467711210250854
			],
			"min":[
				-2.0201573371887207,
				3.0305399894714355,
				-1.8467711210250854
			],
			"type":"VEC3"
		},
		{
			"bufferView":9,
			"componentType":5126,
			"count":24,
			"type":"VEC3"
		},
		{
			"bufferView":10,
			"componentType":5126,
			"count":24,
			"type":"VEC2"
		},
		{
			"bufferView":11,
			"componentType":5123,
			"count":36,
			"type":"SCALAR"
		}
	],
	"bufferViews":[
		{
			"buffer":0,
			"byteLength":4572,
			"byteOffset":0,
			"target":34962
		},
		{
			"buffer":0,
			"byteLength":4572,
			"byteOffset":4572,
			"target":34962
		},
		{
			"buffer":0,
			"byteLength":3048,
			"byteOffset":9144,
			"target":34962
		},
		{
			"buffer":0,
			"byteLength":2100,
			"byteOffset":12192,
			"target":34963
		},
		{
			"buffer":0,
			"byteLength":288,
			"byteOffset":14292,
			"target":34962
		},
		{
			"buffer":0,
			"byteLength":288,
			"byteOffset":14580,
			"target":34962
		},
		{
			"buffer":0,
			"byteLength":192,
			"byteOffset":14868,
			"target":34962
		},
		{
			"buffer":0,
			"byteLength":72,
			"byteOffset":15060,
			"target":34963
		},
		{
			"buffer":0,
			"byteLength":288,
			"byteOffset":15132,
			"target":34962
		},
		{
			"buffer":0,
			"byteLength":288,
			"byteOffset":15420,
			"target":34962
		},
		{
			"buffer":0,
			"byteLength":192,
			"byteOffset":15708,
			"target":34962
		},
		{
			"buffer":0,
			"byteLength":72,
			"byteOffset":15900,
			"target":34963
		}
	],
	"samplers":[
		{
			"magFilter":9729,
			"minFilter":9987
		}
	],
	"buffers":[
		{
			"byteLength":15972,
			"uri":"TopPlates_Straight.bin"
		}
	]
}
