{
	"asset":{
		"generator":"Khronos glTF Blender I/O v4.0.44",
		"version":"2.0"
	},
	"extensionsUsed":[
		"KHR_materials_specular",
		"KHR_materials_ior"
	],
	"scene":0,
	"scenes":[
		{
			"name":"Scene",
			"nodes":[
				0,
				1,
				2,
				3,
				4,
				5,
				6,
				7,
				8,
				9,
				10
			]
		}
	],
	"nodes":[
		{
			"mesh":0,
			"name":"TopPadded_Incline_Curve_Round_Inner"
		},
		{
			"mesh":1,
			"name":"TopPadded_Incline_Curve_Round_Inner_01_convcolonly"
		},
		{
			"mesh":2,
			"name":"TopPadded_Incline_Curve_Round_Inner_02_convcolonly"
		},
		{
			"mesh":3,
			"name":"TopPadded_Incline_Curve_Round_Inner_03_convcolonly"
		},
		{
			"mesh":4,
			"name":"TopPadded_Incline_Curve_Round_Inner_04_convcolonly"
		},
		{
			"mesh":5,
			"name":"TopPadded_Incline_Curve_Round_Inner_05_convcolonly"
		},
		{
			"mesh":6,
			"name":"TopPadded_Incline_Curve_Round_Inner_06_convcolonly"
		},
		{
			"mesh":7,
			"name":"TopPadded_Incline_Curve_Round_Inner_07_convcolonly"
		},
		{
			"mesh":8,
			"name":"TopPadded_Incline_Curve_Round_Inner_08_convcolonly"
		},
		{
			"mesh":9,
			"name":"TopPadded_Incline_Curve_Round_Inner_09_convcolonly"
		},
		{
			"mesh":10,
			"name":"TopPadded_Incline_Curve_Round_Inner_10_convcolonly"
		}
	],
	"materials":[
		{
			"doubleSided":true,
			"extensions":{
				"KHR_materials_specular":{
					"specularFactor":0
				},
				"KHR_materials_ior":{
					"ior":1.4500000476837158
				}
			},
			"name":"MI_PaddedWall",
			"normalTexture":{
				"index":0
			},
			"pbrMetallicRoughness":{
				"baseColorTexture":{
					"index":1
				},
				"metallicRoughnessTexture":{
					"index":2
				}
			}
		},
		{
			"doubleSided":true,
			"name":"MI_Trim_02",
			"normalTexture":{
				"index":3
			},
			"pbrMetallicRoughness":{
				"baseColorTexture":{
					"index":4
				},
				"metallicRoughnessTexture":{
					"index":5
				}
			}
		},
		{
			"doubleSided":true,
			"name":"Collision",
			"pbrMetallicRoughness":{
				"baseColorFactor":[
					0.11006110906600952,
					0.2556236684322357,
					0.8000785112380981,
					1
				],
				"metallicFactor":0,
				"roughnessFactor":0.5
			}
		}
	],
	"meshes":[
		{
			"name":"Plane.067",
			"primitives":[
				{
					"attributes":{
						"POSITION":0,
						"NORMAL":1,
						"TEXCOORD_0":2
					},
					"indices":3,
					"material":0
				},
				{
					"attributes":{
						"POSITION":4,
						"NORMAL":5,
						"TEXCOORD_0":6
					},
					"indices":7,
					"material":1
				}
			]
		},
		{
			"name":"Cube.269",
			"primitives":[
				{
					"attributes":{
						"POSITION":8,
						"NORMAL":9,
						"TEXCOORD_0":10
					},
					"indices":11,
					"material":2
				}
			]
		},
		{
			"name":"Cube.270",
			"primitives":[
				{
					"attributes":{
						"POSITION":12,
						"NORMAL":13,
						"TEXCOORD_0":14
					},
					"indices":15,
					"material":2
				}
			]
		},
		{
			"name":"Cube.271",
			"primitives":[
				{
					"attributes":{
						"POSITION":16,
						"NORMAL":17,
						"TEXCOORD_0":18
					},
					"indices":19,
					"material":2
				}
			]
		},
		{
			"name":"Cube.272",
			"primitives":[
				{
					"attributes":{
						"POSITION":20,
						"NORMAL":21,
						"TEXCOORD_0":22
					},
					"indices":23,
					"material":2
				}
			]
		},
		{
			"name":"Cube.273",
			"primitives":[
				{
					"attributes":{
						"POSITION":24,
						"NORMAL":25,
						"TEXCOORD_0":26
					},
					"indices":23,
					"material":2
				}
			]
		},
		{
			"name":"Cube.274",
			"primitives":[
				{
					"attributes":{
						"POSITION":27,
						"NORMAL":28,
						"TEXCOORD_0":29
					},
					"indices":15,
					"material":2
				}
			]
		},
		{
			"name":"Cube.275",
			"primitives":[
				{
					"attributes":{
						"POSITION":30,
						"NORMAL":31,
						"TEXCOORD_0":32
					},
					"indices":15,
					"material":2
				}
			]
		},
		{
			"name":"Cube.276",
			"primitives":[
				{
					"attributes":{
						"POSITION":33,
						"NORMAL":34,
						"TEXCOORD_0":35
					},
					"indices":23,
					"material":2
				}
			]
		},
		{
			"name":"Cube.277",
			"primitives":[
				{
					"attributes":{
						"POSITION":36,
						"NORMAL":37,
						"TEXCOORD_0":38
					},
					"indices":23,
					"material":2
				}
			]
		},
		{
			"name":"Cube.278",
			"primitives":[
				{
					"attributes":{
						"POSITION":39,
						"NORMAL":40,
						"TEXCOORD_0":41
					},
					"indices":42,
					"material":2
				}
			]
		}
	],
	"textures":[
		{
			"sampler":0,
			"source":0
		},
		{
			"sampler":0,
			"source":1
		},
		{
			"sampler":0,
			"source":2
		},
		{
			"sampler":0,
			"source":3
		},
		{
			"sampler":0,
			"source":4
		},
		{
			"sampler":0,
			"source":5
		}
	],
	"images":[
		{
			"mimeType":"image/png",
			"name":"T_PaddedWall_Normal",
			"uri":"T_PaddedWall_Normal.png"
		},
		{
			"mimeType":"image/png",
			"name":"T_PaddedWall_BaseColor",
			"uri":"T_PaddedWall_BaseColor.png"
		},
		{
			"mimeType":"image/png",
			"name":"T_PaddedWall_ORM",
			"uri":"T_PaddedWall_ORM.png"
		},
		{
			"mimeType":"image/png",
			"name":"T_Trim_02_Normal",
			"uri":"T_Trim_02_Normal.png"
		},
		{
			"mimeType":"image/png",
			"name":"T_Trim_02_BaseColor_Red",
			"uri":"T_Trim_02_BaseColor_Red.png"
		},
		{
			"mimeType":"image/png",
			"name":"T_Trim_02_ORM",
			"uri":"T_Trim_02_ORM.png"
		}
	],
	"accessors":[
		{
			"bufferView":0,
			"componentType":5126,
			"count":837,
			"max":[
				-0.001362600247375667,
				4.984519958496094,
				9.53736389419646e-07
			],
			"min":[
				-3.9989161491394043,
				3.0001564025878906,
				-3.9989144802093506
			],
			"type":"VEC3"
		},
		{
			"bufferView":1,
			"componentType":5126,
			"count":837,
			"type":"VEC3"
		},
		{
			"bufferView":2,
			"componentType":5126,
			"count":837,
			"type":"VEC2"
		},
		{
			"bufferView":3,
			"componentType":5123,
			"count":3258,
			"type":"SCALAR"
		},
		{
			"bufferView":4,
			"componentType":5126,
			"count":1273,
			"max":[
				-0.001362600247375667,
				5.004560947418213,
				9.72388420450443e-07
			],
			"min":[
				-4.029785633087158,
				3.0001564025878906,
				-4.029661655426025
			],
			"type":"VEC3"
		},
		{
			"bufferView":5,
			"componentType":5126,
			"count":1273,
			"type":"VEC3"
		},
		{
			"bufferView":6,
			"componentType":5126,
			"count":1273,
			"type":"VEC2"
		},
		{
			"bufferView":7,
			"componentType":5123,
			"count":3525,
			"type":"SCALAR"
		},
		{
			"bufferView":8,
			"componentType":5126,
			"count":24,
			"max":[
				-2.9502551555633545,
				5,
				0
			],
			"min":[
				-4.22371768951416,
				3,
				-0.6607350707054138
			],
			"type":"VEC3"
		},
		{
			"bufferView":9,
			"componentType":5126,
			"count":24,
			"type":"VEC3"
		},
		{
			"bufferView":10,
			"componentType":5126,
			"count":24,
			"type":"VEC2"
		},
		{
			"bufferView":11,
			"componentType":5123,
			"count":36,
			"type":"SCALAR"
		},
		{
			"bufferView":12,
			"componentType":5126,
			"count":24,
			"max":[
				-2.661463737487793,
				5,
				-0.9230432510375977
			],
			"min":[
				-4.016994476318359,
				3,
				-1.9175279140472412
			],
			"type":"VEC3"
		},
		{
			"bufferView":13,
			"componentType":5126,
			"count":24,
			"type":"VEC3"
		},
		{
			"bufferView":14,
			"componentType":5126,
			"count":24,
			"type":"VEC2"
		},
		{
			"bufferView":15,
			"componentType":5123,
			"count":36,
			"type":"SCALAR"
		},
		{
			"bufferView":16,
			"componentType":5126,
			"count":24,
			"max":[
				-2.112149715423584,
				5,
				-1.7557326555252075
			],
			"min":[
				-3.4170596599578857,
				3,
				-2.9866199493408203
			],
			"type":"VEC3"
		},
		{
			"bufferView":17,
			"componentType":5126,
			"count":24,
			"type":"VEC3"
		},
		{
			"bufferView":18,
			"componentType":5126,
			"count":24,
			"type":"VEC2"
		},
		{
			"bufferView":19,
			"componentType":5123,
			"count":36,
			"type":"SCALAR"
		},
		{
			"bufferView":20,
			"componentType":5126,
			"count":24,
			"max":[
				-1.3560833930969238,
				5,
				-2.4165587425231934
			],
			"min":[
				-2.4826390743255615,
				3,
				-3.7633607387542725
			],
			"type":"VEC3"
		},
		{
			"bufferView":21,
			"componentType":5126,
			"count":24,
			"type":"VEC3"
		},
		{
			"bufferView":22,
			"componentType":5126,
			"count":24,
			"type":"VEC2"
		},
		{
			"bufferView":23,
			"componentType":5123,
			"count":36,
			"type":"SCALAR"
		},
		{
			"bufferView":24,
			"componentType":5126,
			"count":24,
			"max":[
				-0.4672743082046509,
				5,
				-2.8408350944519043
			],
			"min":[
				-1.3052005767822266,
				3,
				-4.171717643737793
			],
			"type":"VEC3"
		},
		{
			"bufferView":25,
			"componentType":5126,
			"count":24,
			"type":"VEC3"
		},
		{
			"bufferView":26,
			"componentType":5126,
			"count":24,
			"type":"VEC2"
		},
		{
			"bufferView":27,
			"componentType":5126,
			"count":24,
			"max":[
				-2.840834856033325,
				5,
				-0.46727454662323
			],
			"min":[
				-4.171716690063477,
				3,
				-1.3052005767822266
			],
			"type":"VEC3"
		},
		{
			"bufferView":28,
			"componentType":5126,
			"count":24,
			"type":"VEC3"
		},
		{
			"bufferView":29,
			"componentType":5126,
			"count":24,
			"type":"VEC2"
		},
		{
			"bufferView":30,
			"componentType":5126,
			"count":24,
			"max":[
				-2.4165585041046143,
				5,
				-1.356083631515503
			],
			"min":[
				-3.7633602619171143,
				3,
				-2.4826393127441406
			],
			"type":"VEC3"
		},
		{
			"bufferView":31,
			"componentType":5126,
			"count":24,
			"type":"VEC3"
		},
		{
			"bufferView":32,
			"componentType":5126,
			"count":24,
			"type":"VEC2"
		},
		{
			"bufferView":33,
			"componentType":5126,
			"count":24,
			"max":[
				-1.755732536315918,
				5,
				-2.112149715423584
			],
			"min":[
				-2.986619472503662,
				3,
				-3.417060136795044
			],
			"type":"VEC3"
		},
		{
			"bufferView":34,
			"componentType":5126,
			"count":24,
			"type":"VEC3"
		},
		{
			"bufferView":35,
			"componentType":5126,
			"count":24,
			"type":"VEC2"
		},
		{
			"bufferView":36,
			"componentType":5126,
			"count":24,
			"max":[
				-0.9230430126190186,
				5,
				-2.661463975906372
			],
			"min":[
				-1.9175277948379517,
				3,
				-4.016994953155518
			],
			"type":"VEC3"
		},
		{
			"bufferView":37,
			"componentType":5126,
			"count":24,
			"type":"VEC3"
		},
		{
			"bufferView":38,
			"componentType":5126,
			"count":24,
			"type":"VEC2"
		},
		{
			"bufferView":39,
			"componentType":5126,
			"count":24,
			"max":[
				4.172325134277344e-07,
				5,
				-2.9502556324005127
			],
			"min":[
				-0.6607348918914795,
				3,
				-4.223718643188477
			],
			"type":"VEC3"
		},
		{
			"bufferView":40,
			"componentType":5126,
			"count":24,
			"type":"VEC3"
		},
		{
			"bufferView":41,
			"componentType":5126,
			"count":24,
			"type":"VEC2"
		},
		{
			"bufferView":42,
			"componentType":5123,
			"count":36,
			"type":"SCALAR"
		}
	],
	"bufferViews":[
		{
			"buffer":0,
			"byteLength":10044,
			"byteOffset":0,
			"target":34962
		},
		{
			"buffer":0,
			"byteLength":10044,
			"byteOffset":10044,
			"target":34962
		},
		{
			"buffer":0,
			"byteLength":6696,
			"byteOffset":20088,
			"target":34962
		},
		{
			"buffer":0,
			"byteLength":6516,
			"byteOffset":26784,
			"target":34963
		},
		{
			"buffer":0,
			"byteLength":15276,
			"byteOffset":33300,
			"target":34962
		},
		{
			"buffer":0,
			"byteLength":15276,
			"byteOffset":48576,
			"target":34962
		},
		{
			"buffer":0,
			"byteLength":10184,
			"byteOffset":63852,
			"target":34962
		},
		{
			"buffer":0,
			"byteLength":7050,
			"byteOffset":74036,
			"target":34963
		},
		{
			"buffer":0,
			"byteLength":288,
			"byteOffset":81088,
			"target":34962
		},
		{
			"buffer":0,
			"byteLength":288,
			"byteOffset":81376,
			"target":34962
		},
		{
			"buffer":0,
			"byteLength":192,
			"byteOffset":81664,
			"target":34962
		},
		{
			"buffer":0,
			"byteLength":72,
			"byteOffset":81856,
			"target":34963
		},
		{
			"buffer":0,
			"byteLength":288,
			"byteOffset":81928,
			"target":34962
		},
		{
			"buffer":0,
			"byteLength":288,
			"byteOffset":82216,
			"target":34962
		},
		{
			"buffer":0,
			"byteLength":192,
			"byteOffset":82504,
			"target":34962
		},
		{
			"buffer":0,
			"byteLength":72,
			"byteOffset":82696,
			"target":34963
		},
		{
			"buffer":0,
			"byteLength":288,
			"byteOffset":82768,
			"target":34962
		},
		{
			"buffer":0,
			"byteLength":288,
			"byteOffset":83056,
			"target":34962
		},
		{
			"buffer":0,
			"byteLength":192,
			"byteOffset":83344,
			"target":34962
		},
		{
			"buffer":0,
			"byteLength":72,
			"byteOffset":83536,
			"target":34963
		},
		{
			"buffer":0,
			"byteLength":288,
			"byteOffset":83608,
			"target":34962
		},
		{
			"buffer":0,
			"byteLength":288,
			"byteOffset":83896,
			"target":34962
		},
		{
			"buffer":0,
			"byteLength":192,
			"byteOffset":84184,
			"target":34962
		},
		{
			"buffer":0,
			"byteLength":72,
			"byteOffset":84376,
			"target":34963
		},
		{
			"buffer":0,
			"byteLength":288,
			"byteOffset":84448,
			"target":34962
		},
		{
			"buffer":0,
			"byteLength":288,
			"byteOffset":84736,
			"target":34962
		},
		{
			"buffer":0,
			"byteLength":192,
			"byteOffset":85024,
			"target":34962
		},
		{
			"buffer":0,
			"byteLength":288,
			"byteOffset":85216,
			"target":34962
		},
		{
			"buffer":0,
			"byteLength":288,
			"byteOffset":85504,
			"target":34962
		},
		{
			"buffer":0,
			"byteLength":192,
			"byteOffset":85792,
			"target":34962
		},
		{
			"buffer":0,
			"byteLength":288,
			"byteOffset":85984,
			"target":34962
		},
		{
			"buffer":0,
			"byteLength":288,
			"byteOffset":86272,
			"target":34962
		},
		{
			"buffer":0,
			"byteLength":192,
			"byteOffset":86560,
			"target":34962
		},
		{
			"buffer":0,
			"byteLength":288,
			"byteOffset":86752,
			"target":34962
		},
		{
			"buffer":0,
			"byteLength":288,
			"byteOffset":87040,
			"target":34962
		},
		{
			"buffer":0,
			"byteLength":192,
			"byteOffset":87328,
			"target":34962
		},
		{
			"buffer":0,
			"byteLength":288,
			"byteOffset":87520,
			"target":34962
		},
		{
			"buffer":0,
			"byteLength":288,
			"byteOffset":87808,
			"target":34962
		},
		{
			"buffer":0,
			"byteLength":192,
			"byteOffset":88096,
			"target":34962
		},
		{
			"buffer":0,
			"byteLength":288,
			"byteOffset":88288,
			"target":34962
		},
		{
			"buffer":0,
			"byteLength":288,
			"byteOffset":88576,
			"target":34962
		},
		{
			"buffer":0,
			"byteLength":192,
			"byteOffset":88864,
			"target":34962
		},
		{
			"buffer":0,
			"byteLength":72,
			"byteOffset":89056,
			"target":34963
		}
	],
	"samplers":[
		{
			"magFilter":9729,
			"minFilter":9987
		}
	],
	"buffers":[
		{
			"byteLength":89128,
			"uri":"TopPadded_Incline_Curve_Round_Inner.bin"
		}
	]
}
