{
	"asset":{
		"generator":"Khronos glTF Blender I/O v4.0.44",
		"version":"2.0"
	},
	"extensionsUsed":[
		"KHR_materials_specular",
		"KHR_materials_ior"
	],
	"scene":0,
	"scenes":[
		{
			"name":"Scene",
			"nodes":[
				0,
				1,
				2,
				3,
				4,
				5,
				6,
				7,
				8,
				9,
				10
			]
		}
	],
	"nodes":[
		{
			"mesh":0,
			"name":"TopPadded_Flat_Curve_Round_Outer"
		},
		{
			"mesh":1,
			"name":"TopPadded_Flat_Curve_Round_Outer_01_convcolonly"
		},
		{
			"mesh":2,
			"name":"TopPadded_Flat_Curve_Round_Outer_02_convcolonly"
		},
		{
			"mesh":3,
			"name":"TopPadded_Flat_Curve_Round_Outer_03_convcolonly"
		},
		{
			"mesh":4,
			"name":"TopPadded_Flat_Curve_Round_Outer_04_convcolonly"
		},
		{
			"mesh":5,
			"name":"TopPadded_Flat_Curve_Round_Outer_05_convcolonly"
		},
		{
			"mesh":6,
			"name":"TopPadded_Flat_Curve_Round_Outer_06_convcolonly"
		},
		{
			"mesh":7,
			"name":"TopPadded_Flat_Curve_Round_Outer_07_convcolonly"
		},
		{
			"mesh":8,
			"name":"TopPadded_Flat_Curve_Round_Outer_08_convcolonly"
		},
		{
			"mesh":9,
			"name":"TopPadded_Flat_Curve_Round_Outer_09_convcolonly"
		},
		{
			"mesh":10,
			"name":"TopPadded_Flat_Curve_Round_Outer_10_convcolonly"
		}
	],
	"materials":[
		{
			"doubleSided":true,
			"extensions":{
				"KHR_materials_specular":{
					"specularFactor":0
				},
				"KHR_materials_ior":{
					"ior":1.4500000476837158
				}
			},
			"name":"MI_PaddedWall",
			"normalTexture":{
				"index":0
			},
			"pbrMetallicRoughness":{
				"baseColorTexture":{
					"index":1
				},
				"metallicRoughnessTexture":{
					"index":2
				}
			}
		},
		{
			"doubleSided":true,
			"name":"MI_Trim_02",
			"normalTexture":{
				"index":3
			},
			"pbrMetallicRoughness":{
				"baseColorTexture":{
					"index":4
				},
				"metallicRoughnessTexture":{
					"index":5
				}
			}
		},
		{
			"doubleSided":true,
			"name":"Collision",
			"pbrMetallicRoughness":{
				"baseColorFactor":[
					0.11006110906600952,
					0.2556236684322357,
					0.8000785112380981,
					1
				],
				"metallicFactor":0,
				"roughnessFactor":0.5
			}
		}
	],
	"meshes":[
		{
			"name":"Plane.191",
			"primitives":[
				{
					"attributes":{
						"POSITION":0,
						"NORMAL":1,
						"TEXCOORD_0":2
					},
					"indices":3,
					"material":0
				},
				{
					"attributes":{
						"POSITION":4,
						"NORMAL":5,
						"TEXCOORD_0":6
					},
					"indices":7,
					"material":1
				}
			]
		},
		{
			"name":"UCX_TopPadded_Flat_Curve_Round_Outer_01.001",
			"primitives":[
				{
					"attributes":{
						"POSITION":8,
						"NORMAL":9,
						"TEXCOORD_0":10
					},
					"indices":11,
					"material":2
				}
			]
		},
		{
			"name":"UCX_TopPadded_Flat_Curve_Round_Outer_02.001",
			"primitives":[
				{
					"attributes":{
						"POSITION":12,
						"NORMAL":13,
						"TEXCOORD_0":14
					},
					"indices":15,
					"material":2
				}
			]
		},
		{
			"name":"UCX_TopPadded_Flat_Curve_Round_Outer_03.001",
			"primitives":[
				{
					"attributes":{
						"POSITION":16,
						"NORMAL":17,
						"TEXCOORD_0":18
					},
					"indices":15,
					"material":2
				}
			]
		},
		{
			"name":"UCX_TopPadded_Flat_Curve_Round_Outer_04.001",
			"primitives":[
				{
					"attributes":{
						"POSITION":19,
						"NORMAL":20,
						"TEXCOORD_0":21
					},
					"indices":22,
					"material":2
				}
			]
		},
		{
			"name":"UCX_TopPadded_Flat_Curve_Round_Outer_05.001",
			"primitives":[
				{
					"attributes":{
						"POSITION":23,
						"NORMAL":24,
						"TEXCOORD_0":25
					},
					"indices":22,
					"material":2
				}
			]
		},
		{
			"name":"UCX_TopPadded_Flat_Curve_Round_Outer_06",
			"primitives":[
				{
					"attributes":{
						"POSITION":26,
						"NORMAL":27,
						"TEXCOORD_0":28
					},
					"indices":15,
					"material":2
				}
			]
		},
		{
			"name":"UCX_TopPadded_Flat_Curve_Round_Outer_07",
			"primitives":[
				{
					"attributes":{
						"POSITION":29,
						"NORMAL":30,
						"TEXCOORD_0":31
					},
					"indices":15,
					"material":2
				}
			]
		},
		{
			"name":"UCX_TopPadded_Flat_Curve_Round_Outer_08",
			"primitives":[
				{
					"attributes":{
						"POSITION":32,
						"NORMAL":33,
						"TEXCOORD_0":34
					},
					"indices":22,
					"material":2
				}
			]
		},
		{
			"name":"UCX_TopPadded_Flat_Curve_Round_Outer_09",
			"primitives":[
				{
					"attributes":{
						"POSITION":35,
						"NORMAL":36,
						"TEXCOORD_0":37
					},
					"indices":22,
					"material":2
				}
			]
		},
		{
			"name":"UCX_TopPadded_Flat_Curve_Round_Outer_10",
			"primitives":[
				{
					"attributes":{
						"POSITION":38,
						"NORMAL":39,
						"TEXCOORD_0":40
					},
					"indices":41,
					"material":2
				}
			]
		}
	],
	"textures":[
		{
			"sampler":0,
			"source":0
		},
		{
			"sampler":0,
			"source":1
		},
		{
			"sampler":0,
			"source":2
		},
		{
			"sampler":0,
			"source":3
		},
		{
			"sampler":0,
			"source":4
		},
		{
			"sampler":0,
			"source":5
		}
	],
	"images":[
		{
			"mimeType":"image/png",
			"name":"T_PaddedWall_Normal",
			"uri":"T_PaddedWall_Normal.png"
		},
		{
			"mimeType":"image/png",
			"name":"T_PaddedWall_BaseColor",
			"uri":"T_PaddedWall_BaseColor.png"
		},
		{
			"mimeType":"image/png",
			"name":"T_PaddedWall_ORM",
			"uri":"T_PaddedWall_ORM.png"
		},
		{
			"mimeType":"image/png",
			"name":"T_Trim_02_Normal",
			"uri":"T_Trim_02_Normal.png"
		},
		{
			"mimeType":"image/png",
			"name":"T_Trim_02_BaseColor_Red",
			"uri":"T_Trim_02_BaseColor_Red.png"
		},
		{
			"mimeType":"image/png",
			"name":"T_Trim_02_ORM",
			"uri":"T_Trim_02_ORM.png"
		}
	],
	"accessors":[
		{
			"bufferView":0,
			"componentType":5126,
			"count":843,
			"max":[
				1.6689300537109375e-06,
				4.999845504760742,
				-7.785135494486894e-06
			],
			"min":[
				-4.046555519104004,
				3.0001561641693115,
				-4.045453071594238
			],
			"type":"VEC3"
		},
		{
			"bufferView":1,
			"componentType":5126,
			"count":843,
			"type":"VEC3"
		},
		{
			"bufferView":2,
			"componentType":5126,
			"count":843,
			"type":"VEC2"
		},
		{
			"bufferView":3,
			"componentType":5123,
			"count":3276,
			"type":"SCALAR"
		},
		{
			"bufferView":4,
			"componentType":5126,
			"count":1249,
			"max":[
				1.5896105196588906e-06,
				5.000160217285156,
				1.172454904008191e-05
			],
			"min":[
				-4.009767532348633,
				2.9998416900634766,
				-4.009884834289551
			],
			"type":"VEC3"
		},
		{
			"bufferView":5,
			"componentType":5126,
			"count":1249,
			"type":"VEC3"
		},
		{
			"bufferView":6,
			"componentType":5126,
			"count":1249,
			"type":"VEC2"
		},
		{
			"bufferView":7,
			"componentType":5123,
			"count":3561,
			"type":"SCALAR"
		},
		{
			"bufferView":8,
			"componentType":5126,
			"count":24,
			"max":[
				-3.753216028213501,
				4.999999523162842,
				0
			],
			"min":[
				-4.062628269195557,
				2.999999761581421,
				-0.6355351805686951
			],
			"type":"VEC3"
		},
		{
			"bufferView":9,
			"componentType":5126,
			"count":24,
			"type":"VEC3"
		},
		{
			"bufferView":10,
			"componentType":5126,
			"count":24,
			"type":"VEC2"
		},
		{
			"bufferView":11,
			"componentType":5123,
			"count":36,
			"type":"SCALAR"
		},
		{
			"bufferView":12,
			"componentType":5126,
			"count":24,
			"max":[
				-3.3858253955841064,
				4.999999523162842,
				-1.1742647886276245
			],
			"min":[
				-3.8637890815734863,
				2.999999761581421,
				-1.8443950414657593
			],
			"type":"VEC3"
		},
		{
			"bufferView":13,
			"componentType":5126,
			"count":24,
			"type":"VEC3"
		},
		{
			"bufferView":14,
			"componentType":5126,
			"count":24,
			"type":"VEC2"
		},
		{
			"bufferView":15,
			"componentType":5123,
			"count":36,
			"type":"SCALAR"
		},
		{
			"bufferView":16,
			"componentType":5126,
			"count":24,
			"max":[
				-2.6870062351226807,
				4.999999523162842,
				-2.233584403991699
			],
			"min":[
				-3.286735773086548,
				2.999999761581421,
				-2.8727128505706787
			],
			"type":"VEC3"
		},
		{
			"bufferView":17,
			"componentType":5126,
			"count":24,
			"type":"VEC3"
		},
		{
			"bufferView":18,
			"componentType":5126,
			"count":24,
			"type":"VEC2"
		},
		{
			"bufferView":19,
			"componentType":5126,
			"count":24,
			"max":[
				-1.7251641750335693,
				4.999999523162842,
				-3.0742650032043457
			],
			"min":[
				-2.387953281402588,
				2.999999761581421,
				-3.6198294162750244
			],
			"type":"VEC3"
		},
		{
			"bufferView":20,
			"componentType":5126,
			"count":24,
			"type":"VEC3"
		},
		{
			"bufferView":21,
			"componentType":5126,
			"count":24,
			"type":"VEC2"
		},
		{
			"bufferView":22,
			"componentType":5123,
			"count":36,
			"type":"SCALAR"
		},
		{
			"bufferView":23,
			"componentType":5126,
			"count":24,
			"max":[
				-0.5944509506225586,
				4.999999523162842,
				-3.614015579223633
			],
			"min":[
				-1.2554210424423218,
				2.999999761581421,
				-4.0126118659973145
			],
			"type":"VEC3"
		},
		{
			"bufferView":24,
			"componentType":5126,
			"count":24,
			"type":"VEC3"
		},
		{
			"bufferView":25,
			"componentType":5126,
			"count":24,
			"type":"VEC2"
		},
		{
			"bufferView":26,
			"componentType":5126,
			"count":24,
			"max":[
				-3.6140153408050537,
				4.999999523162842,
				-0.5944510698318481
			],
			"min":[
				-4.01261043548584,
				2.999999761581421,
				-1.2554212808609009
			],
			"type":"VEC3"
		},
		{
			"bufferView":27,
			"componentType":5126,
			"count":24,
			"type":"VEC3"
		},
		{
			"bufferView":28,
			"componentType":5126,
			"count":24,
			"type":"VEC2"
		},
		{
			"bufferView":29,
			"componentType":5126,
			"count":24,
			"max":[
				-3.0742650032043457,
				4.999999523162842,
				-1.7251642942428589
			],
			"min":[
				-3.619828462600708,
				2.999999761581421,
				-2.387953758239746
			],
			"type":"VEC3"
		},
		{
			"bufferView":30,
			"componentType":5126,
			"count":24,
			"type":"VEC3"
		},
		{
			"bufferView":31,
			"componentType":5126,
			"count":24,
			"type":"VEC2"
		},
		{
			"bufferView":32,
			"componentType":5126,
			"count":24,
			"max":[
				-2.233584403991699,
				4.999999523162842,
				-2.6870062351226807
			],
			"min":[
				-2.8727123737335205,
				2.999999761581421,
				-3.286736488342285
			],
			"type":"VEC3"
		},
		{
			"bufferView":33,
			"componentType":5126,
			"count":24,
			"type":"VEC3"
		},
		{
			"bufferView":34,
			"componentType":5126,
			"count":24,
			"type":"VEC2"
		},
		{
			"bufferView":35,
			"componentType":5126,
			"count":24,
			"max":[
				-1.174264669418335,
				4.999999523162842,
				-3.3858253955841064
			],
			"min":[
				-1.8443948030471802,
				2.999999761581421,
				-3.863790273666382
			],
			"type":"VEC3"
		},
		{
			"bufferView":36,
			"componentType":5126,
			"count":24,
			"type":"VEC3"
		},
		{
			"bufferView":37,
			"componentType":5126,
			"count":24,
			"type":"VEC2"
		},
		{
			"bufferView":38,
			"componentType":5126,
			"count":24,
			"max":[
				4.2376515807518444e-07,
				4.999999523162842,
				-3.7532167434692383
			],
			"min":[
				-0.6355348825454712,
				2.999999761581421,
				-4.062629222869873
			],
			"type":"VEC3"
		},
		{
			"bufferView":39,
			"componentType":5126,
			"count":24,
			"type":"VEC3"
		},
		{
			"bufferView":40,
			"componentType":5126,
			"count":24,
			"type":"VEC2"
		},
		{
			"bufferView":41,
			"componentType":5123,
			"count":36,
			"type":"SCALAR"
		}
	],
	"bufferViews":[
		{
			"buffer":0,
			"byteLength":10116,
			"byteOffset":0,
			"target":34962
		},
		{
			"buffer":0,
			"byteLength":10116,
			"byteOffset":10116,
			"target":34962
		},
		{
			"buffer":0,
			"byteLength":6744,
			"byteOffset":20232,
			"target":34962
		},
		{
			"buffer":0,
			"byteLength":6552,
			"byteOffset":26976,
			"target":34963
		},
		{
			"buffer":0,
			"byteLength":14988,
			"byteOffset":33528,
			"target":34962
		},
		{
			"buffer":0,
			"byteLength":14988,
			"byteOffset":48516,
			"target":34962
		},
		{
			"buffer":0,
			"byteLength":9992,
			"byteOffset":63504,
			"target":34962
		},
		{
			"buffer":0,
			"byteLength":7122,
			"byteOffset":73496,
			"target":34963
		},
		{
			"buffer":0,
			"byteLength":288,
			"byteOffset":80620,
			"target":34962
		},
		{
			"buffer":0,
			"byteLength":288,
			"byteOffset":80908,
			"target":34962
		},
		{
			"buffer":0,
			"byteLength":192,
			"byteOffset":81196,
			"target":34962
		},
		{
			"buffer":0,
			"byteLength":72,
			"byteOffset":81388,
			"target":34963
		},
		{
			"buffer":0,
			"byteLength":288,
			"byteOffset":81460,
			"target":34962
		},
		{
			"buffer":0,
			"byteLength":288,
			"byteOffset":81748,
			"target":34962
		},
		{
			"buffer":0,
			"byteLength":192,
			"byteOffset":82036,
			"target":34962
		},
		{
			"buffer":0,
			"byteLength":72,
			"byteOffset":82228,
			"target":34963
		},
		{
			"buffer":0,
			"byteLength":288,
			"byteOffset":82300,
			"target":34962
		},
		{
			"buffer":0,
			"byteLength":288,
			"byteOffset":82588,
			"target":34962
		},
		{
			"buffer":0,
			"byteLength":192,
			"byteOffset":82876,
			"target":34962
		},
		{
			"buffer":0,
			"byteLength":288,
			"byteOffset":83068,
			"target":34962
		},
		{
			"buffer":0,
			"byteLength":288,
			"byteOffset":83356,
			"target":34962
		},
		{
			"buffer":0,
			"byteLength":192,
			"byteOffset":83644,
			"target":34962
		},
		{
			"buffer":0,
			"byteLength":72,
			"byteOffset":83836,
			"target":34963
		},
		{
			"buffer":0,
			"byteLength":288,
			"byteOffset":83908,
			"target":34962
		},
		{
			"buffer":0,
			"byteLength":288,
			"byteOffset":84196,
			"target":34962
		},
		{
			"buffer":0,
			"byteLength":192,
			"byteOffset":84484,
			"target":34962
		},
		{
			"buffer":0,
			"byteLength":288,
			"byteOffset":84676,
			"target":34962
		},
		{
			"buffer":0,
			"byteLength":288,
			"byteOffset":84964,
			"target":34962
		},
		{
			"buffer":0,
			"byteLength":192,
			"byteOffset":85252,
			"target":34962
		},
		{
			"buffer":0,
			"byteLength":288,
			"byteOffset":85444,
			"target":34962
		},
		{
			"buffer":0,
			"byteLength":288,
			"byteOffset":85732,
			"target":34962
		},
		{
			"buffer":0,
			"byteLength":192,
			"byteOffset":86020,
			"target":34962
		},
		{
			"buffer":0,
			"byteLength":288,
			"byteOffset":86212,
			"target":34962
		},
		{
			"buffer":0,
			"byteLength":288,
			"byteOffset":86500,
			"target":34962
		},
		{
			"buffer":0,
			"byteLength":192,
			"byteOffset":86788,
			"target":34962
		},
		{
			"buffer":0,
			"byteLength":288,
			"byteOffset":86980,
			"target":34962
		},
		{
			"buffer":0,
			"byteLength":288,
			"byteOffset":87268,
			"target":34962
		},
		{
			"buffer":0,
			"byteLength":192,
			"byteOffset":87556,
			"target":34962
		},
		{
			"buffer":0,
			"byteLength":288,
			"byteOffset":87748,
			"target":34962
		},
		{
			"buffer":0,
			"byteLength":288,
			"byteOffset":88036,
			"target":34962
		},
		{
			"buffer":0,
			"byteLength":192,
			"byteOffset":88324,
			"target":34962
		},
		{
			"buffer":0,
			"byteLength":72,
			"byteOffset":88516,
			"target":34963
		}
	],
	"samplers":[
		{
			"magFilter":9729,
			"minFilter":9987
		}
	],
	"buffers":[
		{
			"byteLength":88588,
			"uri":"TopPadded_Flat_Curve_Round_Outer.bin"
		}
	]
}
