{
	"asset":{
		"generator":"Khronos glTF Blender I/O v4.0.44",
		"version":"2.0"
	},
	"extensionsUsed":[
		"KHR_materials_specular",
		"KHR_materials_ior"
	],
	"scene":0,
	"scenes":[
		{
			"name":"Scene",
			"nodes":[
				0,
				1,
				2,
				3,
				4,
				5,
				6,
				7,
				8,
				9,
				10
			]
		}
	],
	"nodes":[
		{
			"mesh":0,
			"name":"TopPadded_Incline_Curve_Round_Outer"
		},
		{
			"mesh":1,
			"name":"TopPadded_Incline_Curve_Round_Outer_01_convcolonly"
		},
		{
			"mesh":2,
			"name":"TopPadded_Incline_Curve_Round_Outer_02_convcolonly"
		},
		{
			"mesh":3,
			"name":"TopPadded_Incline_Curve_Round_Outer_03_convcolonly"
		},
		{
			"mesh":4,
			"name":"TopPadded_Incline_Curve_Round_Outer_04_convcolonly"
		},
		{
			"mesh":5,
			"name":"TopPadded_Incline_Curve_Round_Outer_05_convcolonly"
		},
		{
			"mesh":6,
			"name":"TopPadded_Incline_Curve_Round_Outer_06_convcolonly"
		},
		{
			"mesh":7,
			"name":"TopPadded_Incline_Curve_Round_Outer_07_convcolonly"
		},
		{
			"mesh":8,
			"name":"TopPadded_Incline_Curve_Round_Outer_08_convcolonly"
		},
		{
			"mesh":9,
			"name":"TopPadded_Incline_Curve_Round_Outer_09_convcolonly"
		},
		{
			"mesh":10,
			"name":"TopPadded_Incline_Curve_Round_Outer_10_convcolonly"
		}
	],
	"materials":[
		{
			"doubleSided":true,
			"extensions":{
				"KHR_materials_specular":{
					"specularFactor":0
				},
				"KHR_materials_ior":{
					"ior":1.4500000476837158
				}
			},
			"name":"MI_PaddedWall",
			"normalTexture":{
				"index":0
			},
			"pbrMetallicRoughness":{
				"baseColorTexture":{
					"index":1
				},
				"metallicRoughnessTexture":{
					"index":2
				}
			}
		},
		{
			"doubleSided":true,
			"name":"MI_Trim_02",
			"normalTexture":{
				"index":3
			},
			"pbrMetallicRoughness":{
				"baseColorTexture":{
					"index":4
				},
				"metallicRoughnessTexture":{
					"index":5
				}
			}
		},
		{
			"doubleSided":true,
			"name":"Collision",
			"pbrMetallicRoughness":{
				"baseColorFactor":[
					0.11006110906600952,
					0.2556236684322357,
					0.8000785112380981,
					1
				],
				"metallicFactor":0,
				"roughnessFactor":0.5
			}
		}
	],
	"meshes":[
		{
			"name":"Plane.059",
			"primitives":[
				{
					"attributes":{
						"POSITION":0,
						"NORMAL":1,
						"TEXCOORD_0":2
					},
					"indices":3,
					"material":0
				},
				{
					"attributes":{
						"POSITION":4,
						"NORMAL":5,
						"TEXCOORD_0":6
					},
					"indices":7,
					"material":1
				}
			]
		},
		{
			"name":"Cube.279",
			"primitives":[
				{
					"attributes":{
						"POSITION":8,
						"NORMAL":9,
						"TEXCOORD_0":10
					},
					"indices":11,
					"material":2
				}
			]
		},
		{
			"name":"Cube.280",
			"primitives":[
				{
					"attributes":{
						"POSITION":12,
						"NORMAL":13,
						"TEXCOORD_0":14
					},
					"indices":15,
					"material":2
				}
			]
		},
		{
			"name":"Cube.281",
			"primitives":[
				{
					"attributes":{
						"POSITION":16,
						"NORMAL":17,
						"TEXCOORD_0":18
					},
					"indices":15,
					"material":2
				}
			]
		},
		{
			"name":"Cube.282",
			"primitives":[
				{
					"attributes":{
						"POSITION":19,
						"NORMAL":20,
						"TEXCOORD_0":21
					},
					"indices":22,
					"material":2
				}
			]
		},
		{
			"name":"Cube.283",
			"primitives":[
				{
					"attributes":{
						"POSITION":23,
						"NORMAL":24,
						"TEXCOORD_0":25
					},
					"indices":22,
					"material":2
				}
			]
		},
		{
			"name":"Cube.284",
			"primitives":[
				{
					"attributes":{
						"POSITION":26,
						"NORMAL":27,
						"TEXCOORD_0":28
					},
					"indices":15,
					"material":2
				}
			]
		},
		{
			"name":"Cube.285",
			"primitives":[
				{
					"attributes":{
						"POSITION":29,
						"NORMAL":30,
						"TEXCOORD_0":31
					},
					"indices":15,
					"material":2
				}
			]
		},
		{
			"name":"Cube.286",
			"primitives":[
				{
					"attributes":{
						"POSITION":32,
						"NORMAL":33,
						"TEXCOORD_0":34
					},
					"indices":22,
					"material":2
				}
			]
		},
		{
			"name":"Cube.287",
			"primitives":[
				{
					"attributes":{
						"POSITION":35,
						"NORMAL":36,
						"TEXCOORD_0":37
					},
					"indices":22,
					"material":2
				}
			]
		},
		{
			"name":"Cube.288",
			"primitives":[
				{
					"attributes":{
						"POSITION":38,
						"NORMAL":39,
						"TEXCOORD_0":40
					},
					"indices":41,
					"material":2
				}
			]
		}
	],
	"textures":[
		{
			"sampler":0,
			"source":0
		},
		{
			"sampler":0,
			"source":1
		},
		{
			"sampler":0,
			"source":2
		},
		{
			"sampler":0,
			"source":3
		},
		{
			"sampler":0,
			"source":4
		},
		{
			"sampler":0,
			"source":5
		}
	],
	"images":[
		{
			"mimeType":"image/png",
			"name":"T_PaddedWall_Normal",
			"uri":"T_PaddedWall_Normal.png"
		},
		{
			"mimeType":"image/png",
			"name":"T_PaddedWall_BaseColor",
			"uri":"T_PaddedWall_BaseColor.png"
		},
		{
			"mimeType":"image/png",
			"name":"T_PaddedWall_ORM",
			"uri":"T_PaddedWall_ORM.png"
		},
		{
			"mimeType":"image/png",
			"name":"T_Trim_02_Normal",
			"uri":"T_Trim_02_Normal.png"
		},
		{
			"mimeType":"image/png",
			"name":"T_Trim_02_BaseColor_Red",
			"uri":"T_Trim_02_BaseColor_Red.png"
		},
		{
			"mimeType":"image/png",
			"name":"T_Trim_02_ORM",
			"uri":"T_Trim_02_ORM.png"
		}
	],
	"accessors":[
		{
			"bufferView":0,
			"componentType":5126,
			"count":837,
			"max":[
				-0.001812527421861887,
				4.984519958496094,
				-1.3426925988824223e-06
			],
			"min":[
				-5.000698566436768,
				3.0001566410064697,
				-5.00057315826416
			],
			"type":"VEC3"
		},
		{
			"bufferView":1,
			"componentType":5126,
			"count":837,
			"type":"VEC3"
		},
		{
			"bufferView":2,
			"componentType":5126,
			"count":837,
			"type":"VEC2"
		},
		{
			"bufferView":3,
			"componentType":5123,
			"count":3258,
			"type":"SCALAR"
		},
		{
			"bufferView":4,
			"componentType":5126,
			"count":1250,
			"max":[
				-0.0017968604806810617,
				5.004561424255371,
				-1.3426925988824223e-06
			],
			"min":[
				-5.000698566436768,
				3.0001566410064697,
				-5.00057315826416
			],
			"type":"VEC3"
		},
		{
			"bufferView":5,
			"componentType":5126,
			"count":1250,
			"type":"VEC3"
		},
		{
			"bufferView":6,
			"componentType":5126,
			"count":1250,
			"type":"VEC2"
		},
		{
			"bufferView":7,
			"componentType":5123,
			"count":3528,
			"type":"SCALAR"
		},
		{
			"bufferView":8,
			"componentType":5126,
			"count":24,
			"max":[
				-3.729790210723877,
				5,
				0
			],
			"min":[
				-5.012969493865967,
				3,
				-0.7842012643814087
			],
			"type":"VEC3"
		},
		{
			"bufferView":9,
			"componentType":5126,
			"count":24,
			"type":"VEC3"
		},
		{
			"bufferView":10,
			"componentType":5126,
			"count":24,
			"type":"VEC2"
		},
		{
			"bufferView":11,
			"componentType":5123,
			"count":36,
			"type":"SCALAR"
		},
		{
			"bufferView":12,
			"componentType":5126,
			"count":24,
			"max":[
				-3.364692449569702,
				5,
				-1.1669355630874634
			],
			"min":[
				-4.767617702484131,
				3,
				-2.2758407592773438
			],
			"type":"VEC3"
		},
		{
			"bufferView":13,
			"componentType":5126,
			"count":24,
			"type":"VEC3"
		},
		{
			"bufferView":14,
			"componentType":5126,
			"count":24,
			"type":"VEC2"
		},
		{
			"bufferView":15,
			"componentType":5123,
			"count":36,
			"type":"SCALAR"
		},
		{
			"bufferView":16,
			"componentType":5126,
			"count":24,
			"max":[
				-2.6702351570129395,
				5,
				-2.2196433544158936
			],
			"min":[
				-4.055577754974365,
				3,
				-3.544705390930176
			],
			"type":"VEC3"
		},
		{
			"bufferView":17,
			"componentType":5126,
			"count":24,
			"type":"VEC3"
		},
		{
			"bufferView":18,
			"componentType":5126,
			"count":24,
			"type":"VEC2"
		},
		{
			"bufferView":19,
			"componentType":5126,
			"count":24,
			"max":[
				-1.7143964767456055,
				5,
				-3.055076837539673
			],
			"min":[
				-2.946549892425537,
				3,
				-4.466589450836182
			],
			"type":"VEC3"
		},
		{
			"bufferView":20,
			"componentType":5126,
			"count":24,
			"type":"VEC3"
		},
		{
			"bufferView":21,
			"componentType":5126,
			"count":24,
			"type":"VEC2"
		},
		{
			"bufferView":22,
			"componentType":5123,
			"count":36,
			"type":"SCALAR"
		},
		{
			"bufferView":23,
			"componentType":5126,
			"count":24,
			"max":[
				-0.5907406806945801,
				5,
				-3.591458320617676
			],
			"min":[
				-1.5490927696228027,
				3,
				-4.951252460479736
			],
			"type":"VEC3"
		},
		{
			"bufferView":24,
			"componentType":5126,
			"count":24,
			"type":"VEC3"
		},
		{
			"bufferView":25,
			"componentType":5126,
			"count":24,
			"type":"VEC2"
		},
		{
			"bufferView":26,
			"componentType":5126,
			"count":24,
			"max":[
				-3.5914580821990967,
				5,
				-0.5907407402992249
			],
			"min":[
				-4.95125150680542,
				3,
				-1.5490928888320923
			],
			"type":"VEC3"
		},
		{
			"bufferView":27,
			"componentType":5126,
			"count":24,
			"type":"VEC3"
		},
		{
			"bufferView":28,
			"componentType":5126,
			"count":24,
			"type":"VEC2"
		},
		{
			"bufferView":29,
			"componentType":5126,
			"count":24,
			"max":[
				-3.055076837539673,
				5,
				-1.7143964767456055
			],
			"min":[
				-4.466588973999023,
				3,
				-2.946549892425537
			],
			"type":"VEC3"
		},
		{
			"bufferView":30,
			"componentType":5126,
			"count":24,
			"type":"VEC3"
		},
		{
			"bufferView":31,
			"componentType":5126,
			"count":24,
			"type":"VEC2"
		},
		{
			"bufferView":32,
			"componentType":5126,
			"count":24,
			"max":[
				-2.2196433544158936,
				5,
				-2.6702351570129395
			],
			"min":[
				-3.5447051525115967,
				3,
				-4.055578231811523
			],
			"type":"VEC3"
		},
		{
			"bufferView":33,
			"componentType":5126,
			"count":24,
			"type":"VEC3"
		},
		{
			"bufferView":34,
			"componentType":5126,
			"count":24,
			"type":"VEC2"
		},
		{
			"bufferView":35,
			"componentType":5126,
			"count":24,
			"max":[
				-1.1669354438781738,
				5,
				-3.3646926879882812
			],
			"min":[
				-2.2758407592773438,
				3,
				-4.767618179321289
			],
			"type":"VEC3"
		},
		{
			"bufferView":36,
			"componentType":5126,
			"count":24,
			"type":"VEC3"
		},
		{
			"bufferView":37,
			"componentType":5126,
			"count":24,
			"type":"VEC2"
		},
		{
			"bufferView":38,
			"componentType":5126,
			"count":24,
			"max":[
				4.172325134277344e-07,
				5,
				-3.729790687561035
			],
			"min":[
				-0.7842010855674744,
				3,
				-5.012970447540283
			],
			"type":"VEC3"
		},
		{
			"bufferView":39,
			"componentType":5126,
			"count":24,
			"type":"VEC3"
		},
		{
			"bufferView":40,
			"componentType":5126,
			"count":24,
			"type":"VEC2"
		},
		{
			"bufferView":41,
			"componentType":5123,
			"count":36,
			"type":"SCALAR"
		}
	],
	"bufferViews":[
		{
			"buffer":0,
			"byteLength":10044,
			"byteOffset":0,
			"target":34962
		},
		{
			"buffer":0,
			"byteLength":10044,
			"byteOffset":10044,
			"target":34962
		},
		{
			"buffer":0,
			"byteLength":6696,
			"byteOffset":20088,
			"target":34962
		},
		{
			"buffer":0,
			"byteLength":6516,
			"byteOffset":26784,
			"target":34963
		},
		{
			"buffer":0,
			"byteLength":15000,
			"byteOffset":33300,
			"target":34962
		},
		{
			"buffer":0,
			"byteLength":15000,
			"byteOffset":48300,
			"target":34962
		},
		{
			"buffer":0,
			"byteLength":10000,
			"byteOffset":63300,
			"target":34962
		},
		{
			"buffer":0,
			"byteLength":7056,
			"byteOffset":73300,
			"target":34963
		},
		{
			"buffer":0,
			"byteLength":288,
			"byteOffset":80356,
			"target":34962
		},
		{
			"buffer":0,
			"byteLength":288,
			"byteOffset":80644,
			"target":34962
		},
		{
			"buffer":0,
			"byteLength":192,
			"byteOffset":80932,
			"target":34962
		},
		{
			"buffer":0,
			"byteLength":72,
			"byteOffset":81124,
			"target":34963
		},
		{
			"buffer":0,
			"byteLength":288,
			"byteOffset":81196,
			"target":34962
		},
		{
			"buffer":0,
			"byteLength":288,
			"byteOffset":81484,
			"target":34962
		},
		{
			"buffer":0,
			"byteLength":192,
			"byteOffset":81772,
			"target":34962
		},
		{
			"buffer":0,
			"byteLength":72,
			"byteOffset":81964,
			"target":34963
		},
		{
			"buffer":0,
			"byteLength":288,
			"byteOffset":82036,
			"target":34962
		},
		{
			"buffer":0,
			"byteLength":288,
			"byteOffset":82324,
			"target":34962
		},
		{
			"buffer":0,
			"byteLength":192,
			"byteOffset":82612,
			"target":34962
		},
		{
			"buffer":0,
			"byteLength":288,
			"byteOffset":82804,
			"target":34962
		},
		{
			"buffer":0,
			"byteLength":288,
			"byteOffset":83092,
			"target":34962
		},
		{
			"buffer":0,
			"byteLength":192,
			"byteOffset":83380,
			"target":34962
		},
		{
			"buffer":0,
			"byteLength":72,
			"byteOffset":83572,
			"target":34963
		},
		{
			"buffer":0,
			"byteLength":288,
			"byteOffset":83644,
			"target":34962
		},
		{
			"buffer":0,
			"byteLength":288,
			"byteOffset":83932,
			"target":34962
		},
		{
			"buffer":0,
			"byteLength":192,
			"byteOffset":84220,
			"target":34962
		},
		{
			"buffer":0,
			"byteLength":288,
			"byteOffset":84412,
			"target":34962
		},
		{
			"buffer":0,
			"byteLength":288,
			"byteOffset":84700,
			"target":34962
		},
		{
			"buffer":0,
			"byteLength":192,
			"byteOffset":84988,
			"target":34962
		},
		{
			"buffer":0,
			"byteLength":288,
			"byteOffset":85180,
			"target":34962
		},
		{
			"buffer":0,
			"byteLength":288,
			"byteOffset":85468,
			"target":34962
		},
		{
			"buffer":0,
			"byteLength":192,
			"byteOffset":85756,
			"target":34962
		},
		{
			"buffer":0,
			"byteLength":288,
			"byteOffset":85948,
			"target":34962
		},
		{
			"buffer":0,
			"byteLength":288,
			"byteOffset":86236,
			"target":34962
		},
		{
			"buffer":0,
			"byteLength":192,
			"byteOffset":86524,
			"target":34962
		},
		{
			"buffer":0,
			"byteLength":288,
			"byteOffset":86716,
			"target":34962
		},
		{
			"buffer":0,
			"byteLength":288,
			"byteOffset":87004,
			"target":34962
		},
		{
			"buffer":0,
			"byteLength":192,
			"byteOffset":87292,
			"target":34962
		},
		{
			"buffer":0,
			"byteLength":288,
			"byteOffset":87484,
			"target":34962
		},
		{
			"buffer":0,
			"byteLength":288,
			"byteOffset":87772,
			"target":34962
		},
		{
			"buffer":0,
			"byteLength":192,
			"byteOffset":88060,
			"target":34962
		},
		{
			"buffer":0,
			"byteLength":72,
			"byteOffset":88252,
			"target":34963
		}
	],
	"samplers":[
		{
			"magFilter":9729,
			"minFilter":9987
		}
	],
	"buffers":[
		{
			"byteLength":88324,
			"uri":"TopPadded_Incline_Curve_Round_Outer.bin"
		}
	]
}
