{
	"asset":{
		"generator":"Khronos glTF Blender I/O v4.0.44",
		"version":"2.0"
	},
	"extensionsUsed":[
		"KHR_materials_specular",
		"KHR_materials_ior"
	],
	"scene":0,
	"scenes":[
		{
			"name":"Scene",
			"nodes":[
				0,
				1,
				2,
				3,
				4,
				5
			]
		}
	],
	"nodes":[
		{
			"mesh":0,
			"name":"WallWideBand_Corner_Round_Outer"
		},
		{
			"mesh":1,
			"name":"WallWideBand_Corner_Round_Outer_001_convcolonly"
		},
		{
			"mesh":2,
			"name":"WallWideBand_Corner_Round_Outer_002_convcolonly"
		},
		{
			"mesh":3,
			"name":"WallWideBand_Corner_Round_Outer_003_convcolonly"
		},
		{
			"mesh":4,
			"name":"WallWideBand_Corner_Round_Outer_004_convcolonly"
		},
		{
			"mesh":5,
			"name":"WallWideBand_Corner_Round_Outer_005_convcolonly"
		}
	],
	"materials":[
		{
			"doubleSided":true,
			"name":"MI_Trim_02_NoAccent",
			"normalTexture":{
				"index":0
			},
			"pbrMetallicRoughness":{
				"baseColorTexture":{
					"index":1
				},
				"metallicRoughnessTexture":{
					"index":2
				}
			}
		},
		{
			"doubleSided":true,
			"extensions":{
				"KHR_materials_specular":{
					"specularFactor":0
				},
				"KHR_materials_ior":{
					"ior":1.4500000476837158
				}
			},
			"name":"MI_Trim_01",
			"normalTexture":{
				"index":3
			},
			"pbrMetallicRoughness":{
				"baseColorTexture":{
					"index":4
				},
				"metallicRoughnessTexture":{
					"index":5
				}
			}
		},
		{
			"doubleSided":true,
			"name":"M_Decal_White",
			"pbrMetallicRoughness":{
				"baseColorTexture":{
					"index":6
				},
				"metallicFactor":0,
				"roughnessFactor":0.5
			}
		},
		{
			"doubleSided":true,
			"name":"MI_Trim_02_Color",
			"normalTexture":{
				"index":7
			},
			"pbrMetallicRoughness":{
				"baseColorTexture":{
					"index":8
				},
				"metallicRoughnessTexture":{
					"index":9
				}
			}
		},
		{
			"doubleSided":true,
			"name":"Collision",
			"pbrMetallicRoughness":{
				"baseColorFactor":[
					0.11006110906600952,
					0.2556236684322357,
					0.8000785112380981,
					1
				],
				"metallicFactor":0,
				"roughnessFactor":0.5
			}
		}
	],
	"meshes":[
		{
			"name":"Plane.149",
			"primitives":[
				{
					"attributes":{
						"POSITION":0,
						"NORMAL":1,
						"TEXCOORD_0":2
					},
					"indices":3,
					"material":0
				},
				{
					"attributes":{
						"POSITION":4,
						"NORMAL":5,
						"TEXCOORD_0":6
					},
					"indices":7,
					"material":1
				},
				{
					"attributes":{
						"POSITION":8,
						"NORMAL":9,
						"TEXCOORD_0":10
					},
					"indices":11,
					"material":2
				},
				{
					"attributes":{
						"POSITION":12,
						"NORMAL":13,
						"TEXCOORD_0":14
					},
					"indices":15,
					"material":3
				}
			]
		},
		{
			"name":"Cube.086",
			"primitives":[
				{
					"attributes":{
						"POSITION":16,
						"NORMAL":17,
						"TEXCOORD_0":18
					},
					"indices":19,
					"material":4
				}
			]
		},
		{
			"name":"Cube.087",
			"primitives":[
				{
					"attributes":{
						"POSITION":20,
						"NORMAL":21,
						"TEXCOORD_0":22
					},
					"indices":23,
					"material":4
				}
			]
		},
		{
			"name":"Cube.088",
			"primitives":[
				{
					"attributes":{
						"POSITION":24,
						"NORMAL":25,
						"TEXCOORD_0":26
					},
					"indices":27,
					"material":4
				}
			]
		},
		{
			"name":"Cube.089",
			"primitives":[
				{
					"attributes":{
						"POSITION":28,
						"NORMAL":29,
						"TEXCOORD_0":30
					},
					"indices":31,
					"material":4
				}
			]
		},
		{
			"name":"Cube.090",
			"primitives":[
				{
					"attributes":{
						"POSITION":32,
						"NORMAL":33,
						"TEXCOORD_0":34
					},
					"indices":35,
					"material":4
				}
			]
		}
	],
	"textures":[
		{
			"sampler":0,
			"source":0
		},
		{
			"sampler":0,
			"source":1
		},
		{
			"sampler":0,
			"source":0
		},
		{
			"sampler":0,
			"source":2
		},
		{
			"sampler":0,
			"source":3
		},
		{
			"sampler":0,
			"source":4
		},
		{
			"sampler":0,
			"source":5
		},
		{
			"sampler":0,
			"source":0
		},
		{
			"sampler":0,
			"source":6
		},
		{
			"sampler":0,
			"source":7
		}
	],
	"images":[
		{
			"mimeType":"image/png",
			"name":"T_Trim_02_Normal",
			"uri":"T_Trim_02_Normal.png"
		},
		{
			"mimeType":"image/png",
			"name":"T_Trim_02_BaseColor",
			"uri":"T_Trim_02_BaseColor.png"
		},
		{
			"mimeType":"image/png",
			"name":"T_Trim_01_Normal",
			"uri":"T_Trim_01_Normal.png"
		},
		{
			"mimeType":"image/png",
			"name":"T_Trim_01_BaseColor_Red",
			"uri":"T_Trim_01_BaseColor_Red.png"
		},
		{
			"mimeType":"image/png",
			"name":"T_Trim_01_ORM",
			"uri":"T_Trim_01_ORM.png"
		},
		{
			"mimeType":"image/png",
			"name":"T_Decals",
			"uri":"T_Decals.png"
		},
		{
			"mimeType":"image/png",
			"name":"T_Trim_02_BaseColor_Blue",
			"uri":"T_Trim_02_BaseColor_Blue.png"
		},
		{
			"mimeType":"image/png",
			"name":"T_Trim_02_ORM",
			"uri":"T_Trim_02_ORM.png"
		}
	],
	"accessors":[
		{
			"bufferView":0,
			"componentType":5126,
			"count":106,
			"max":[
				1.6767946817708435e-06,
				3.0000007152557373,
				-1.8455617464496754e-05
			],
			"min":[
				-4.000001430511475,
				-1.8567095594335115e-07,
				-4
			],
			"type":"VEC3"
		},
		{
			"bufferView":1,
			"componentType":5126,
			"count":106,
			"type":"VEC3"
		},
		{
			"bufferView":2,
			"componentType":5126,
			"count":106,
			"type":"VEC2"
		},
		{
			"bufferView":3,
			"componentType":5123,
			"count":384,
			"type":"SCALAR"
		},
		{
			"bufferView":4,
			"componentType":5126,
			"count":34,
			"max":[
				1.6163412510650232e-06,
				0.20000013709068298,
				-1.986696952371858e-05
			],
			"min":[
				-3.928460121154785,
				0.19999966025352478,
				-3.9284591674804688
			],
			"type":"VEC3"
		},
		{
			"bufferView":5,
			"componentType":5126,
			"count":34,
			"type":"VEC3"
		},
		{
			"bufferView":6,
			"componentType":5126,
			"count":34,
			"type":"VEC2"
		},
		{
			"bufferView":7,
			"componentType":5123,
			"count":96,
			"type":"SCALAR"
		},
		{
			"bufferView":8,
			"componentType":5126,
			"count":24,
			"max":[
				-0.004448238760232925,
				2.8449153900146484,
				-0.047179561108350754
			],
			"min":[
				-4.004332065582275,
				1.0208770036697388,
				-4.001683235168457
			],
			"type":"VEC3"
		},
		{
			"bufferView":9,
			"componentType":5126,
			"count":24,
			"type":"VEC3"
		},
		{
			"bufferView":10,
			"componentType":5126,
			"count":24,
			"type":"VEC2"
		},
		{
			"bufferView":11,
			"componentType":5123,
			"count":36,
			"type":"SCALAR"
		},
		{
			"bufferView":12,
			"componentType":5126,
			"count":70,
			"max":[
				1.5978157534846105e-06,
				1.228448748588562,
				-1.8450989955454133e-05
			],
			"min":[
				-4.000000953674316,
				0.19999966025352478,
				-3.999999761581421
			],
			"type":"VEC3"
		},
		{
			"bufferView":13,
			"componentType":5126,
			"count":70,
			"type":"VEC3"
		},
		{
			"bufferView":14,
			"componentType":5126,
			"count":70,
			"type":"VEC2"
		},
		{
			"bufferView":15,
			"componentType":5123,
			"count":192,
			"type":"SCALAR"
		},
		{
			"bufferView":16,
			"componentType":5126,
			"count":24,
			"max":[
				-3.6140151023864746,
				3,
				0
			],
			"min":[
				-4,
				0,
				-1.2360680103302002
			],
			"type":"VEC3"
		},
		{
			"bufferView":17,
			"componentType":5126,
			"count":24,
			"type":"VEC3"
		},
		{
			"bufferView":18,
			"componentType":5126,
			"count":24,
			"type":"VEC2"
		},
		{
			"bufferView":19,
			"componentType":5123,
			"count":36,
			"type":"SCALAR"
		},
		{
			"bufferView":20,
			"componentType":5126,
			"count":24,
			"max":[
				-2.233583927154541,
				3,
				-2.23358416557312
			],
			"min":[
				-3.2360680103302,
				0,
				-3.2360682487487793
			],
			"type":"VEC3"
		},
		{
			"bufferView":21,
			"componentType":5126,
			"count":24,
			"type":"VEC3"
		},
		{
			"bufferView":22,
			"componentType":5126,
			"count":24,
			"type":"VEC2"
		},
		{
			"bufferView":23,
			"componentType":5123,
			"count":36,
			"type":"SCALAR"
		},
		{
			"bufferView":24,
			"componentType":5126,
			"count":24,
			"max":[
				1.1920928955078125e-07,
				3,
				-3.6140148639678955
			],
			"min":[
				-1.2360678911209106,
				0,
				-4.000000476837158
			],
			"type":"VEC3"
		},
		{
			"bufferView":25,
			"componentType":5126,
			"count":24,
			"type":"VEC3"
		},
		{
			"bufferView":26,
			"componentType":5126,
			"count":24,
			"type":"VEC2"
		},
		{
			"bufferView":27,
			"componentType":5123,
			"count":36,
			"type":"SCALAR"
		},
		{
			"bufferView":28,
			"componentType":5126,
			"count":24,
			"max":[
				-3.0742647647857666,
				3,
				-1.174264669418335
			],
			"min":[
				-3.8042261600494385,
				0,
				-2.3511412143707275
			],
			"type":"VEC3"
		},
		{
			"bufferView":29,
			"componentType":5126,
			"count":24,
			"type":"VEC3"
		},
		{
			"bufferView":30,
			"componentType":5126,
			"count":24,
			"type":"VEC2"
		},
		{
			"bufferView":31,
			"componentType":5123,
			"count":36,
			"type":"SCALAR"
		},
		{
			"bufferView":32,
			"componentType":5126,
			"count":24,
			"max":[
				-1.174264669418335,
				3,
				-3.0742647647857666
			],
			"min":[
				-2.3511409759521484,
				0,
				-3.8042263984680176
			],
			"type":"VEC3"
		},
		{
			"bufferView":33,
			"componentType":5126,
			"count":24,
			"type":"VEC3"
		},
		{
			"bufferView":34,
			"componentType":5126,
			"count":24,
			"type":"VEC2"
		},
		{
			"bufferView":35,
			"componentType":5123,
			"count":36,
			"type":"SCALAR"
		}
	],
	"bufferViews":[
		{
			"buffer":0,
			"byteLength":1272,
			"byteOffset":0,
			"target":34962
		},
		{
			"buffer":0,
			"byteLength":1272,
			"byteOffset":1272,
			"target":34962
		},
		{
			"buffer":0,
			"byteLength":848,
			"byteOffset":2544,
			"target":34962
		},
		{
			"buffer":0,
			"byteLength":768,
			"byteOffset":3392,
			"target":34963
		},
		{
			"buffer":0,
			"byteLength":408,
			"byteOffset":4160,
			"target":34962
		},
		{
			"buffer":0,
			"byteLength":408,
			"byteOffset":4568,
			"target":34962
		},
		{
			"buffer":0,
			"byteLength":272,
			"byteOffset":4976,
			"target":34962
		},
		{
			"buffer":0,
			"byteLength":192,
			"byteOffset":5248,
			"target":34963
		},
		{
			"buffer":0,
			"byteLength":288,
			"byteOffset":5440,
			"target":34962
		},
		{
			"buffer":0,
			"byteLength":288,
			"byteOffset":5728,
			"target":34962
		},
		{
			"buffer":0,
			"byteLength":192,
			"byteOffset":6016,
			"target":34962
		},
		{
			"buffer":0,
			"byteLength":72,
			"byteOffset":6208,
			"target":34963
		},
		{
			"buffer":0,
			"byteLength":840,
			"byteOffset":6280,
			"target":34962
		},
		{
			"buffer":0,
			"byteLength":840,
			"byteOffset":7120,
			"target":34962
		},
		{
			"buffer":0,
			"byteLength":560,
			"byteOffset":7960,
			"target":34962
		},
		{
			"buffer":0,
			"byteLength":384,
			"byteOffset":8520,
			"target":34963
		},
		{
			"buffer":0,
			"byteLength":288,
			"byteOffset":8904,
			"target":34962
		},
		{
			"buffer":0,
			"byteLength":288,
			"byteOffset":9192,
			"target":34962
		},
		{
			"buffer":0,
			"byteLength":192,
			"byteOffset":9480,
			"target":34962
		},
		{
			"buffer":0,
			"byteLength":72,
			"byteOffset":9672,
			"target":34963
		},
		{
			"buffer":0,
			"byteLength":288,
			"byteOffset":9744,
			"target":34962
		},
		{
			"buffer":0,
			"byteLength":288,
			"byteOffset":10032,
			"target":34962
		},
		{
			"buffer":0,
			"byteLength":192,
			"byteOffset":10320,
			"target":34962
		},
		{
			"buffer":0,
			"byteLength":72,
			"byteOffset":10512,
			"target":34963
		},
		{
			"buffer":0,
			"byteLength":288,
			"byteOffset":10584,
			"target":34962
		},
		{
			"buffer":0,
			"byteLength":288,
			"byteOffset":10872,
			"target":34962
		},
		{
			"buffer":0,
			"byteLength":192,
			"byteOffset":11160,
			"target":34962
		},
		{
			"buffer":0,
			"byteLength":72,
			"byteOffset":11352,
			"target":34963
		},
		{
			"buffer":0,
			"byteLength":288,
			"byteOffset":11424,
			"target":34962
		},
		{
			"buffer":0,
			"byteLength":288,
			"byteOffset":11712,
			"target":34962
		},
		{
			"buffer":0,
			"byteLength":192,
			"byteOffset":12000,
			"target":34962
		},
		{
			"buffer":0,
			"byteLength":72,
			"byteOffset":12192,
			"target":34963
		},
		{
			"buffer":0,
			"byteLength":288,
			"byteOffset":12264,
			"target":34962
		},
		{
			"buffer":0,
			"byteLength":288,
			"byteOffset":12552,
			"target":34962
		},
		{
			"buffer":0,
			"byteLength":192,
			"byteOffset":12840,
			"target":34962
		},
		{
			"buffer":0,
			"byteLength":72,
			"byteOffset":13032,
			"target":34963
		}
	],
	"samplers":[
		{
			"magFilter":9729,
			"minFilter":9987
		}
	],
	"buffers":[
		{
			"byteLength":13104,
			"uri":"WallWideBand_Corner_Round_Outer.bin"
		}
	]
}
