{
	"asset":{
		"generator":"Khronos glTF Blender I/O v4.0.44",
		"version":"2.0"
	},
	"extensionsUsed":[
		"KHR_materials_specular",
		"KHR_materials_ior"
	],
	"scene":0,
	"scenes":[
		{
			"name":"Scene",
			"nodes":[
				0,
				1,
				2
			]
		}
	],
	"nodes":[
		{
			"mesh":0,
			"name":"WallWindow_Corner_Square_Inner"
		},
		{
			"mesh":1,
			"name":"WallWindow_Corner_Square_Inner_1_convcolonly"
		},
		{
			"mesh":2,
			"name":"WallWindow_Corner_Square_Inner_2_convcolonly"
		}
	],
	"materials":[
		{
			"doubleSided":true,
			"name":"MI_Trim_02",
			"normalTexture":{
				"index":0
			},
			"pbrMetallicRoughness":{
				"baseColorTexture":{
					"index":1
				},
				"metallicRoughnessTexture":{
					"index":2
				}
			}
		},
		{
			"doubleSided":true,
			"extensions":{
				"KHR_materials_specular":{
					"specularFactor":0
				},
				"KHR_materials_ior":{
					"ior":1.4500000476837158
				}
			},
			"name":"MI_Trim_01",
			"normalTexture":{
				"index":3
			},
			"pbrMetallicRoughness":{
				"baseColorTexture":{
					"index":4
				},
				"metallicRoughnessTexture":{
					"index":5
				}
			}
		},
		{
			"doubleSided":true,
			"name":"M_Glass",
			"pbrMetallicRoughness":{
				"baseColorFactor":[
					0.800000011920929,
					0.800000011920929,
					0.800000011920929,
					1
				],
				"metallicFactor":0,
				"roughnessFactor":0.5
			}
		},
		{
			"doubleSided":true,
			"extensions":{
				"KHR_materials_specular":{
					"specularFactor":0
				},
				"KHR_materials_ior":{
					"ior":1.4500000476837158
				}
			},
			"name":"MI_PaddedWall",
			"normalTexture":{
				"index":6
			},
			"pbrMetallicRoughness":{
				"baseColorTexture":{
					"index":7
				},
				"metallicRoughnessTexture":{
					"index":8
				}
			}
		},
		{
			"doubleSided":true,
			"name":"Collision",
			"pbrMetallicRoughness":{
				"baseColorFactor":[
					0.11006110906600952,
					0.2556236684322357,
					0.8000785112380981,
					1
				],
				"metallicFactor":0,
				"roughnessFactor":0.5
			}
		}
	],
	"meshes":[
		{
			"name":"Plane.153",
			"primitives":[
				{
					"attributes":{
						"POSITION":0,
						"NORMAL":1,
						"TEXCOORD_0":2
					},
					"indices":3,
					"material":0
				},
				{
					"attributes":{
						"POSITION":4,
						"NORMAL":5,
						"TEXCOORD_0":6
					},
					"indices":7,
					"material":1
				},
				{
					"attributes":{
						"POSITION":8,
						"NORMAL":9,
						"TEXCOORD_0":10
					},
					"indices":11,
					"material":2
				},
				{
					"attributes":{
						"POSITION":12,
						"NORMAL":13,
						"TEXCOORD_0":14
					},
					"indices":15,
					"material":3
				}
			]
		},
		{
			"name":"Cube.111",
			"primitives":[
				{
					"attributes":{
						"POSITION":16,
						"NORMAL":17,
						"TEXCOORD_0":18
					},
					"indices":19,
					"material":4
				}
			]
		},
		{
			"name":"Cube.112",
			"primitives":[
				{
					"attributes":{
						"POSITION":20,
						"NORMAL":21,
						"TEXCOORD_0":22
					},
					"indices":23,
					"material":4
				}
			]
		}
	],
	"textures":[
		{
			"sampler":0,
			"source":0
		},
		{
			"sampler":0,
			"source":1
		},
		{
			"sampler":0,
			"source":2
		},
		{
			"sampler":0,
			"source":3
		},
		{
			"sampler":0,
			"source":4
		},
		{
			"sampler":0,
			"source":5
		},
		{
			"sampler":0,
			"source":6
		},
		{
			"sampler":0,
			"source":7
		},
		{
			"sampler":0,
			"source":8
		}
	],
	"images":[
		{
			"mimeType":"image/png",
			"name":"T_Trim_02_Normal",
			"uri":"T_Trim_02_Normal.png"
		},
		{
			"mimeType":"image/png",
			"name":"T_Trim_02_BaseColor_Red",
			"uri":"T_Trim_02_BaseColor_Red.png"
		},
		{
			"mimeType":"image/png",
			"name":"T_Trim_02_ORM",
			"uri":"T_Trim_02_ORM.png"
		},
		{
			"mimeType":"image/png",
			"name":"T_Trim_01_Normal",
			"uri":"T_Trim_01_Normal.png"
		},
		{
			"mimeType":"image/png",
			"name":"T_Trim_01_BaseColor_Red",
			"uri":"T_Trim_01_BaseColor_Red.png"
		},
		{
			"mimeType":"image/png",
			"name":"T_Trim_01_ORM",
			"uri":"T_Trim_01_ORM.png"
		},
		{
			"mimeType":"image/png",
			"name":"T_PaddedWall_Normal",
			"uri":"T_PaddedWall_Normal.png"
		},
		{
			"mimeType":"image/png",
			"name":"T_PaddedWall_BaseColor",
			"uri":"T_PaddedWall_BaseColor.png"
		},
		{
			"mimeType":"image/png",
			"name":"T_PaddedWall_ORM",
			"uri":"T_PaddedWall_ORM.png"
		}
	],
	"accessors":[
		{
			"bufferView":0,
			"componentType":5126,
			"count":727,
			"max":[
				2.384185791015625e-07,
				3.186552047729492,
				7.152557373046875e-07
			],
			"min":[
				-4.200000286102295,
				0.7999997138977051,
				-4.200000286102295
			],
			"type":"VEC3"
		},
		{
			"bufferView":1,
			"componentType":5126,
			"count":727,
			"type":"VEC3"
		},
		{
			"bufferView":2,
			"componentType":5126,
			"count":727,
			"type":"VEC2"
		},
		{
			"bufferView":3,
			"componentType":5123,
			"count":1872,
			"type":"SCALAR"
		},
		{
			"bufferView":4,
			"componentType":5126,
			"count":64,
			"max":[
				-2.384185791015625e-07,
				1.2689471244812012,
				4.76837158203125e-07
			],
			"min":[
				-4.200000286102295,
				-3.2584125619905535e-07,
				-4.200000286102295
			],
			"type":"VEC3"
		},
		{
			"bufferView":5,
			"componentType":5126,
			"count":64,
			"type":"VEC3"
		},
		{
			"bufferView":6,
			"componentType":5126,
			"count":64,
			"type":"VEC2"
		},
		{
			"bufferView":7,
			"componentType":5123,
			"count":174,
			"type":"SCALAR"
		},
		{
			"bufferView":8,
			"componentType":5126,
			"count":8,
			"max":[
				0,
				3.000150203704834,
				2.384185791015625e-07
			],
			"min":[
				-4.068199157714844,
				0.9999997019767761,
				-4.068199157714844
			],
			"type":"VEC3"
		},
		{
			"bufferView":9,
			"componentType":5126,
			"count":8,
			"type":"VEC3"
		},
		{
			"bufferView":10,
			"componentType":5126,
			"count":8,
			"type":"VEC2"
		},
		{
			"bufferView":11,
			"componentType":5123,
			"count":12,
			"type":"SCALAR"
		},
		{
			"bufferView":12,
			"componentType":5126,
			"count":210,
			"max":[
				2.384185791015625e-07,
				3,
				-2.384185791015625e-07
			],
			"min":[
				-3.999999523162842,
				1.000742793083191,
				-4
			],
			"type":"VEC3"
		},
		{
			"bufferView":13,
			"componentType":5126,
			"count":210,
			"type":"VEC3"
		},
		{
			"bufferView":14,
			"componentType":5126,
			"count":210,
			"type":"VEC2"
		},
		{
			"bufferView":15,
			"componentType":5123,
			"count":690,
			"type":"SCALAR"
		},
		{
			"bufferView":16,
			"componentType":5126,
			"count":24,
			"max":[
				-4,
				3,
				0
			],
			"min":[
				-4.199999809265137,
				0,
				-4.200000286102295
			],
			"type":"VEC3"
		},
		{
			"bufferView":17,
			"componentType":5126,
			"count":24,
			"type":"VEC3"
		},
		{
			"bufferView":18,
			"componentType":5126,
			"count":24,
			"type":"VEC2"
		},
		{
			"bufferView":19,
			"componentType":5123,
			"count":36,
			"type":"SCALAR"
		},
		{
			"bufferView":20,
			"componentType":5126,
			"count":24,
			"max":[
				1.8358782938321383e-07,
				3,
				-4
			],
			"min":[
				-4.200000286102295,
				0,
				-4.199999809265137
			],
			"type":"VEC3"
		},
		{
			"bufferView":21,
			"componentType":5126,
			"count":24,
			"type":"VEC3"
		},
		{
			"bufferView":22,
			"componentType":5126,
			"count":24,
			"type":"VEC2"
		},
		{
			"bufferView":23,
			"componentType":5123,
			"count":36,
			"type":"SCALAR"
		}
	],
	"bufferViews":[
		{
			"buffer":0,
			"byteLength":8724,
			"byteOffset":0,
			"target":34962
		},
		{
			"buffer":0,
			"byteLength":8724,
			"byteOffset":8724,
			"target":34962
		},
		{
			"buffer":0,
			"byteLength":5816,
			"byteOffset":17448,
			"target":34962
		},
		{
			"buffer":0,
			"byteLength":3744,
			"byteOffset":23264,
			"target":34963
		},
		{
			"buffer":0,
			"byteLength":768,
			"byteOffset":27008,
			"target":34962
		},
		{
			"buffer":0,
			"byteLength":768,
			"byteOffset":27776,
			"target":34962
		},
		{
			"buffer":0,
			"byteLength":512,
			"byteOffset":28544,
			"target":34962
		},
		{
			"buffer":0,
			"byteLength":348,
			"byteOffset":29056,
			"target":34963
		},
		{
			"buffer":0,
			"byteLength":96,
			"byteOffset":29404,
			"target":34962
		},
		{
			"buffer":0,
			"byteLength":96,
			"byteOffset":29500,
			"target":34962
		},
		{
			"buffer":0,
			"byteLength":64,
			"byteOffset":29596,
			"target":34962
		},
		{
			"buffer":0,
			"byteLength":24,
			"byteOffset":29660,
			"target":34963
		},
		{
			"buffer":0,
			"byteLength":2520,
			"byteOffset":29684,
			"target":34962
		},
		{
			"buffer":0,
			"byteLength":2520,
			"byteOffset":32204,
			"target":34962
		},
		{
			"buffer":0,
			"byteLength":1680,
			"byteOffset":34724,
			"target":34962
		},
		{
			"buffer":0,
			"byteLength":1380,
			"byteOffset":36404,
			"target":34963
		},
		{
			"buffer":0,
			"byteLength":288,
			"byteOffset":37784,
			"target":34962
		},
		{
			"buffer":0,
			"byteLength":288,
			"byteOffset":38072,
			"target":34962
		},
		{
			"buffer":0,
			"byteLength":192,
			"byteOffset":38360,
			"target":34962
		},
		{
			"buffer":0,
			"byteLength":72,
			"byteOffset":38552,
			"target":34963
		},
		{
			"buffer":0,
			"byteLength":288,
			"byteOffset":38624,
			"target":34962
		},
		{
			"buffer":0,
			"byteLength":288,
			"byteOffset":38912,
			"target":34962
		},
		{
			"buffer":0,
			"byteLength":192,
			"byteOffset":39200,
			"target":34962
		},
		{
			"buffer":0,
			"byteLength":72,
			"byteOffset":39392,
			"target":34963
		}
	],
	"samplers":[
		{
			"magFilter":9729,
			"minFilter":9987
		}
	],
	"buffers":[
		{
			"byteLength":39464,
			"uri":"WallWindow_Corner_Square_Inner.bin"
		}
	]
}
