{
	"asset":{
		"generator":"Khronos glTF Blender I/O v4.0.44",
		"version":"2.0"
	},
	"extensionsUsed":[
		"KHR_materials_specular",
		"KHR_materials_ior"
	],
	"scene":0,
	"scenes":[
		{
			"name":"Scene",
			"nodes":[
				0,
				1,
				2,
				3,
				4,
				5
			]
		}
	],
	"nodes":[
		{
			"mesh":0,
			"name":"WallBand_Corner_Round_Outer"
		},
		{
			"mesh":1,
			"name":"WallBand_Corner_Round_Outer_01_convcolonly"
		},
		{
			"mesh":2,
			"name":"WallBand_Corner_Round_Outer_02_convcolonly"
		},
		{
			"mesh":3,
			"name":"WallBand_Corner_Round_Outer_03_convcolonly"
		},
		{
			"mesh":4,
			"name":"WallBand_Corner_Round_Outer_04_convcolonly"
		},
		{
			"mesh":5,
			"name":"WallBand_Corner_Round_Outer_05_convcolonly"
		}
	],
	"materials":[
		{
			"doubleSided":true,
			"name":"MI_Trim_02",
			"normalTexture":{
				"index":0
			},
			"pbrMetallicRoughness":{
				"baseColorTexture":{
					"index":1
				},
				"metallicRoughnessTexture":{
					"index":2
				}
			}
		},
		{
			"doubleSided":true,
			"extensions":{
				"KHR_materials_specular":{
					"specularFactor":0
				},
				"KHR_materials_ior":{
					"ior":1.4500000476837158
				}
			},
			"name":"MI_Trim_01",
			"normalTexture":{
				"index":3
			},
			"pbrMetallicRoughness":{
				"baseColorTexture":{
					"index":4
				},
				"metallicRoughnessTexture":{
					"index":5
				}
			}
		},
		{
			"doubleSided":true,
			"name":"M_Decal_White",
			"pbrMetallicRoughness":{
				"baseColorTexture":{
					"index":6
				},
				"metallicFactor":0,
				"roughnessFactor":0.5
			}
		},
		{
			"doubleSided":true,
			"name":"Collision",
			"pbrMetallicRoughness":{
				"baseColorFactor":[
					0.11006110906600952,
					0.2556236684322357,
					0.8000785112380981,
					1
				],
				"metallicFactor":0,
				"roughnessFactor":0.5
			}
		}
	],
	"meshes":[
		{
			"name":"Plane.127",
			"primitives":[
				{
					"attributes":{
						"POSITION":0,
						"NORMAL":1,
						"TEXCOORD_0":2
					},
					"indices":3,
					"material":0
				},
				{
					"attributes":{
						"POSITION":4,
						"NORMAL":5,
						"TEXCOORD_0":6
					},
					"indices":7,
					"material":1
				},
				{
					"attributes":{
						"POSITION":8,
						"NORMAL":9,
						"TEXCOORD_0":10
					},
					"indices":11,
					"material":2
				}
			]
		},
		{
			"name":"Cube.137",
			"primitives":[
				{
					"attributes":{
						"POSITION":12,
						"NORMAL":13,
						"TEXCOORD_0":14
					},
					"indices":15,
					"material":3
				}
			]
		},
		{
			"name":"Cube.138",
			"primitives":[
				{
					"attributes":{
						"POSITION":16,
						"NORMAL":17,
						"TEXCOORD_0":18
					},
					"indices":19,
					"material":3
				}
			]
		},
		{
			"name":"Cube.139",
			"primitives":[
				{
					"attributes":{
						"POSITION":20,
						"NORMAL":21,
						"TEXCOORD_0":22
					},
					"indices":23,
					"material":3
				}
			]
		},
		{
			"name":"Cube.140",
			"primitives":[
				{
					"attributes":{
						"POSITION":24,
						"NORMAL":25,
						"TEXCOORD_0":26
					},
					"indices":27,
					"material":3
				}
			]
		},
		{
			"name":"Cube.141",
			"primitives":[
				{
					"attributes":{
						"POSITION":28,
						"NORMAL":29,
						"TEXCOORD_0":30
					},
					"indices":31,
					"material":3
				}
			]
		}
	],
	"textures":[
		{
			"sampler":0,
			"source":0
		},
		{
			"sampler":0,
			"source":1
		},
		{
			"sampler":0,
			"source":2
		},
		{
			"sampler":0,
			"source":3
		},
		{
			"sampler":0,
			"source":4
		},
		{
			"sampler":0,
			"source":5
		},
		{
			"sampler":0,
			"source":6
		}
	],
	"images":[
		{
			"mimeType":"image/png",
			"name":"T_Trim_02_Normal",
			"uri":"T_Trim_02_Normal.png"
		},
		{
			"mimeType":"image/png",
			"name":"T_Trim_02_BaseColor_Red",
			"uri":"T_Trim_02_BaseColor_Red.png"
		},
		{
			"mimeType":"image/png",
			"name":"T_Trim_02_ORM",
			"uri":"T_Trim_02_ORM.png"
		},
		{
			"mimeType":"image/png",
			"name":"T_Trim_01_Normal",
			"uri":"T_Trim_01_Normal.png"
		},
		{
			"mimeType":"image/png",
			"name":"T_Trim_01_BaseColor_Red",
			"uri":"T_Trim_01_BaseColor_Red.png"
		},
		{
			"mimeType":"image/png",
			"name":"T_Trim_01_ORM",
			"uri":"T_Trim_01_ORM.png"
		},
		{
			"mimeType":"image/png",
			"name":"T_Decals",
			"uri":"T_Decals.png"
		}
	],
	"accessors":[
		{
			"bufferView":0,
			"componentType":5126,
			"count":72,
			"max":[
				1.5417838312714593e-06,
				3.0000007152557373,
				-2.120500721503049e-05
			],
			"min":[
				-4.000000953674316,
				0.8000000715255737,
				-3.999999761581421
			],
			"type":"VEC3"
		},
		{
			"bufferView":1,
			"componentType":5126,
			"count":72,
			"type":"VEC3"
		},
		{
			"bufferView":2,
			"componentType":5126,
			"count":72,
			"type":"VEC2"
		},
		{
			"bufferView":3,
			"componentType":5123,
			"count":192,
			"type":"SCALAR"
		},
		{
			"bufferView":4,
			"componentType":5126,
			"count":36,
			"max":[
				1.342505242973857e-06,
				0.8000001907348633,
				-2.120500721503049e-05
			],
			"min":[
				-4.000000953674316,
				-2.842170943040401e-14,
				-3.999999761581421
			],
			"type":"VEC3"
		},
		{
			"bufferView":5,
			"componentType":5126,
			"count":36,
			"type":"VEC3"
		},
		{
			"bufferView":6,
			"componentType":5126,
			"count":36,
			"type":"VEC2"
		},
		{
			"bufferView":7,
			"componentType":5123,
			"count":96,
			"type":"SCALAR"
		},
		{
			"bufferView":8,
			"componentType":5126,
			"count":8,
			"max":[
				-2.536660671234131,
				2.8449158668518066,
				-0.03938782215118408
			],
			"min":[
				-4.007316589355469,
				2.6019325256347656,
				-3.103153705596924
			],
			"type":"VEC3"
		},
		{
			"bufferView":9,
			"componentType":5126,
			"count":8,
			"type":"VEC3"
		},
		{
			"bufferView":10,
			"componentType":5126,
			"count":8,
			"type":"VEC2"
		},
		{
			"bufferView":11,
			"componentType":5123,
			"count":12,
			"type":"SCALAR"
		},
		{
			"bufferView":12,
			"componentType":5126,
			"count":24,
			"max":[
				-3.6140151023864746,
				3,
				0
			],
			"min":[
				-4,
				0,
				-1.2360680103302002
			],
			"type":"VEC3"
		},
		{
			"bufferView":13,
			"componentType":5126,
			"count":24,
			"type":"VEC3"
		},
		{
			"bufferView":14,
			"componentType":5126,
			"count":24,
			"type":"VEC2"
		},
		{
			"bufferView":15,
			"componentType":5123,
			"count":36,
			"type":"SCALAR"
		},
		{
			"bufferView":16,
			"componentType":5126,
			"count":24,
			"max":[
				-2.233583927154541,
				3,
				-2.23358416557312
			],
			"min":[
				-3.2360680103302,
				0,
				-3.2360682487487793
			],
			"type":"VEC3"
		},
		{
			"bufferView":17,
			"componentType":5126,
			"count":24,
			"type":"VEC3"
		},
		{
			"bufferView":18,
			"componentType":5126,
			"count":24,
			"type":"VEC2"
		},
		{
			"bufferView":19,
			"componentType":5123,
			"count":36,
			"type":"SCALAR"
		},
		{
			"bufferView":20,
			"componentType":5126,
			"count":24,
			"max":[
				1.1920928955078125e-07,
				3,
				-3.6140148639678955
			],
			"min":[
				-1.2360678911209106,
				0,
				-4.000000476837158
			],
			"type":"VEC3"
		},
		{
			"bufferView":21,
			"componentType":5126,
			"count":24,
			"type":"VEC3"
		},
		{
			"bufferView":22,
			"componentType":5126,
			"count":24,
			"type":"VEC2"
		},
		{
			"bufferView":23,
			"componentType":5123,
			"count":36,
			"type":"SCALAR"
		},
		{
			"bufferView":24,
			"componentType":5126,
			"count":24,
			"max":[
				-3.0742647647857666,
				3,
				-1.174264669418335
			],
			"min":[
				-3.8042261600494385,
				0,
				-2.3511412143707275
			],
			"type":"VEC3"
		},
		{
			"bufferView":25,
			"componentType":5126,
			"count":24,
			"type":"VEC3"
		},
		{
			"bufferView":26,
			"componentType":5126,
			"count":24,
			"type":"VEC2"
		},
		{
			"bufferView":27,
			"componentType":5123,
			"count":36,
			"type":"SCALAR"
		},
		{
			"bufferView":28,
			"componentType":5126,
			"count":24,
			"max":[
				-1.174264669418335,
				3,
				-3.0742647647857666
			],
			"min":[
				-2.3511409759521484,
				0,
				-3.8042263984680176
			],
			"type":"VEC3"
		},
		{
			"bufferView":29,
			"componentType":5126,
			"count":24,
			"type":"VEC3"
		},
		{
			"bufferView":30,
			"componentType":5126,
			"count":24,
			"type":"VEC2"
		},
		{
			"bufferView":31,
			"componentType":5123,
			"count":36,
			"type":"SCALAR"
		}
	],
	"bufferViews":[
		{
			"buffer":0,
			"byteLength":864,
			"byteOffset":0,
			"target":34962
		},
		{
			"buffer":0,
			"byteLength":864,
			"byteOffset":864,
			"target":34962
		},
		{
			"buffer":0,
			"byteLength":576,
			"byteOffset":1728,
			"target":34962
		},
		{
			"buffer":0,
			"byteLength":384,
			"byteOffset":2304,
			"target":34963
		},
		{
			"buffer":0,
			"byteLength":432,
			"byteOffset":2688,
			"target":34962
		},
		{
			"buffer":0,
			"byteLength":432,
			"byteOffset":3120,
			"target":34962
		},
		{
			"buffer":0,
			"byteLength":288,
			"byteOffset":3552,
			"target":34962
		},
		{
			"buffer":0,
			"byteLength":192,
			"byteOffset":3840,
			"target":34963
		},
		{
			"buffer":0,
			"byteLength":96,
			"byteOffset":4032,
			"target":34962
		},
		{
			"buffer":0,
			"byteLength":96,
			"byteOffset":4128,
			"target":34962
		},
		{
			"buffer":0,
			"byteLength":64,
			"byteOffset":4224,
			"target":34962
		},
		{
			"buffer":0,
			"byteLength":24,
			"byteOffset":4288,
			"target":34963
		},
		{
			"buffer":0,
			"byteLength":288,
			"byteOffset":4312,
			"target":34962
		},
		{
			"buffer":0,
			"byteLength":288,
			"byteOffset":4600,
			"target":34962
		},
		{
			"buffer":0,
			"byteLength":192,
			"byteOffset":4888,
			"target":34962
		},
		{
			"buffer":0,
			"byteLength":72,
			"byteOffset":5080,
			"target":34963
		},
		{
			"buffer":0,
			"byteLength":288,
			"byteOffset":5152,
			"target":34962
		},
		{
			"buffer":0,
			"byteLength":288,
			"byteOffset":5440,
			"target":34962
		},
		{
			"buffer":0,
			"byteLength":192,
			"byteOffset":5728,
			"target":34962
		},
		{
			"buffer":0,
			"byteLength":72,
			"byteOffset":5920,
			"target":34963
		},
		{
			"buffer":0,
			"byteLength":288,
			"byteOffset":5992,
			"target":34962
		},
		{
			"buffer":0,
			"byteLength":288,
			"byteOffset":6280,
			"target":34962
		},
		{
			"buffer":0,
			"byteLength":192,
			"byteOffset":6568,
			"target":34962
		},
		{
			"buffer":0,
			"byteLength":72,
			"byteOffset":6760,
			"target":34963
		},
		{
			"buffer":0,
			"byteLength":288,
			"byteOffset":6832,
			"target":34962
		},
		{
			"buffer":0,
			"byteLength":288,
			"byteOffset":7120,
			"target":34962
		},
		{
			"buffer":0,
			"byteLength":192,
			"byteOffset":7408,
			"target":34962
		},
		{
			"buffer":0,
			"byteLength":72,
			"byteOffset":7600,
			"target":34963
		},
		{
			"buffer":0,
			"byteLength":288,
			"byteOffset":7672,
			"target":34962
		},
		{
			"buffer":0,
			"byteLength":288,
			"byteOffset":7960,
			"target":34962
		},
		{
			"buffer":0,
			"byteLength":192,
			"byteOffset":8248,
			"target":34962
		},
		{
			"buffer":0,
			"byteLength":72,
			"byteOffset":8440,
			"target":34963
		}
	],
	"samplers":[
		{
			"magFilter":9729,
			"minFilter":9987
		}
	],
	"buffers":[
		{
			"byteLength":8512,
			"uri":"WallBand_Corner_Round_Outer.bin"
		}
	]
}
