{
	"asset":{
		"generator":"Khronos glTF Blender I/O v4.0.44",
		"version":"2.0"
	},
	"extensionsUsed":[
		"KHR_materials_specular",
		"KHR_materials_ior"
	],
	"scene":0,
	"scenes":[
		{
			"name":"Scene",
			"nodes":[
				0,
				1,
				2,
				3
			]
		}
	],
	"nodes":[
		{
			"mesh":0,
			"name":"WallBand_Straight_Broken"
		},
		{
			"mesh":1,
			"name":"WallBand_Straight_Broken_001_convcolonly"
		},
		{
			"mesh":2,
			"name":"WallBand_Straight_Broken_002_convcolonly"
		},
		{
			"mesh":3,
			"name":"WallBand_Straight_Broken_003_convcolonly"
		}
	],
	"materials":[
		{
			"doubleSided":true,
			"name":"MI_Trim_02",
			"normalTexture":{
				"index":0
			},
			"pbrMetallicRoughness":{
				"baseColorTexture":{
					"index":1
				},
				"metallicRoughnessTexture":{
					"index":2
				}
			}
		},
		{
			"doubleSided":true,
			"extensions":{
				"KHR_materials_specular":{
					"specularFactor":0
				},
				"KHR_materials_ior":{
					"ior":1.4500000476837158
				}
			},
			"name":"MI_Trim_01",
			"normalTexture":{
				"index":3
			},
			"pbrMetallicRoughness":{
				"baseColorTexture":{
					"index":4
				},
				"metallicRoughnessTexture":{
					"index":5
				}
			}
		},
		{
			"doubleSided":true,
			"name":"M_Decal_White",
			"pbrMetallicRoughness":{
				"baseColorTexture":{
					"index":6
				},
				"metallicFactor":0,
				"roughnessFactor":0.5
			}
		},
		{
			"doubleSided":true,
			"name":"Collision",
			"pbrMetallicRoughness":{
				"baseColorFactor":[
					0.11006110906600952,
					0.2556236684322357,
					0.8000785112380981,
					1
				],
				"metallicFactor":0,
				"roughnessFactor":0.5
			}
		}
	],
	"meshes":[
		{
			"name":"Plane.039",
			"primitives":[
				{
					"attributes":{
						"POSITION":0,
						"NORMAL":1,
						"TEXCOORD_0":2
					},
					"indices":3,
					"material":0
				},
				{
					"attributes":{
						"POSITION":4,
						"NORMAL":5,
						"TEXCOORD_0":6
					},
					"indices":7,
					"material":1
				},
				{
					"attributes":{
						"POSITION":8,
						"NORMAL":9,
						"TEXCOORD_0":10
					},
					"indices":11,
					"material":2
				}
			]
		},
		{
			"name":"Cube.147",
			"primitives":[
				{
					"attributes":{
						"POSITION":12,
						"NORMAL":13,
						"TEXCOORD_0":14
					},
					"indices":15,
					"material":3
				}
			]
		},
		{
			"name":"Cube.148",
			"primitives":[
				{
					"attributes":{
						"POSITION":16,
						"NORMAL":17,
						"TEXCOORD_0":18
					},
					"indices":19,
					"material":3
				}
			]
		},
		{
			"name":"Cube.149",
			"primitives":[
				{
					"attributes":{
						"POSITION":20,
						"NORMAL":21,
						"TEXCOORD_0":22
					},
					"indices":23,
					"material":3
				}
			]
		}
	],
	"textures":[
		{
			"sampler":0,
			"source":0
		},
		{
			"sampler":0,
			"source":1
		},
		{
			"sampler":0,
			"source":2
		},
		{
			"sampler":0,
			"source":3
		},
		{
			"sampler":0,
			"source":4
		},
		{
			"sampler":0,
			"source":5
		},
		{
			"sampler":0,
			"source":6
		}
	],
	"images":[
		{
			"mimeType":"image/png",
			"name":"T_Trim_02_Normal",
			"uri":"T_Trim_02_Normal.png"
		},
		{
			"mimeType":"image/png",
			"name":"T_Trim_02_BaseColor_Red",
			"uri":"T_Trim_02_BaseColor_Red.png"
		},
		{
			"mimeType":"image/png",
			"name":"T_Trim_02_ORM",
			"uri":"T_Trim_02_ORM.png"
		},
		{
			"mimeType":"image/png",
			"name":"T_Trim_01_Normal",
			"uri":"T_Trim_01_Normal.png"
		},
		{
			"mimeType":"image/png",
			"name":"T_Trim_01_BaseColor_Red",
			"uri":"T_Trim_01_BaseColor_Red.png"
		},
		{
			"mimeType":"image/png",
			"name":"T_Trim_01_ORM",
			"uri":"T_Trim_01_ORM.png"
		},
		{
			"mimeType":"image/png",
			"name":"T_Decals",
			"uri":"T_Decals.png"
		}
	],
	"accessors":[
		{
			"bufferView":0,
			"componentType":5126,
			"count":109,
			"max":[
				-1.5210380554199219,
				3,
				2.000000476837158
			],
			"min":[
				-2.200000286102295,
				-0.011731147766113281,
				-2.823317050933838
			],
			"type":"VEC3"
		},
		{
			"bufferView":1,
			"componentType":5126,
			"count":109,
			"type":"VEC3"
		},
		{
			"bufferView":2,
			"componentType":5126,
			"count":109,
			"type":"VEC2"
		},
		{
			"bufferView":3,
			"componentType":5123,
			"count":306,
			"type":"SCALAR"
		},
		{
			"bufferView":4,
			"componentType":5126,
			"count":26,
			"max":[
				-1.9999996423721313,
				2.9763669967651367,
				2.000000476837158
			],
			"min":[
				-2.200000286102295,
				0,
				-1.9999995231628418
			],
			"type":"VEC3"
		},
		{
			"bufferView":5,
			"componentType":5126,
			"count":26,
			"type":"VEC3"
		},
		{
			"bufferView":6,
			"componentType":5126,
			"count":26,
			"type":"VEC2"
		},
		{
			"bufferView":7,
			"componentType":5123,
			"count":42,
			"type":"SCALAR"
		},
		{
			"bufferView":8,
			"componentType":5126,
			"count":4,
			"max":[
				-1.8821401596069336,
				1.8319448232650757,
				1.1172082424163818
			],
			"min":[
				-1.9125697612762451,
				1.5903029441833496,
				0.7279847860336304
			],
			"type":"VEC3"
		},
		{
			"bufferView":9,
			"componentType":5126,
			"count":4,
			"type":"VEC3"
		},
		{
			"bufferView":10,
			"componentType":5126,
			"count":4,
			"type":"VEC2"
		},
		{
			"bufferView":11,
			"componentType":5123,
			"count":6,
			"type":"SCALAR"
		},
		{
			"bufferView":12,
			"componentType":5126,
			"count":24,
			"max":[
				-2,
				3,
				2
			],
			"min":[
				-2.200000047683716,
				0,
				-2
			],
			"type":"VEC3"
		},
		{
			"bufferView":13,
			"componentType":5126,
			"count":24,
			"type":"VEC3"
		},
		{
			"bufferView":14,
			"componentType":5126,
			"count":24,
			"type":"VEC2"
		},
		{
			"bufferView":15,
			"componentType":5123,
			"count":36,
			"type":"SCALAR"
		},
		{
			"bufferView":16,
			"componentType":5126,
			"count":24,
			"max":[
				-1.693337321281433,
				2.004136562347412,
				1.171694278717041
			],
			"min":[
				-2.093564033508301,
				0,
				-2.828305959701538
			],
			"type":"VEC3"
		},
		{
			"bufferView":17,
			"componentType":5126,
			"count":24,
			"type":"VEC3"
		},
		{
			"bufferView":18,
			"componentType":5126,
			"count":24,
			"type":"VEC2"
		},
		{
			"bufferView":19,
			"componentType":5123,
			"count":36,
			"type":"SCALAR"
		},
		{
			"bufferView":20,
			"componentType":5126,
			"count":24,
			"max":[
				-1.5146832466125488,
				0.5382140874862671,
				-1.3682221174240112
			],
			"min":[
				-2.046186923980713,
				-0.00307517871260643,
				-2.8092737197875977
			],
			"type":"VEC3"
		},
		{
			"bufferView":21,
			"componentType":5126,
			"count":24,
			"type":"VEC3"
		},
		{
			"bufferView":22,
			"componentType":5126,
			"count":24,
			"type":"VEC2"
		},
		{
			"bufferView":23,
			"componentType":5123,
			"count":36,
			"type":"SCALAR"
		}
	],
	"bufferViews":[
		{
			"buffer":0,
			"byteLength":1308,
			"byteOffset":0,
			"target":34962
		},
		{
			"buffer":0,
			"byteLength":1308,
			"byteOffset":1308,
			"target":34962
		},
		{
			"buffer":0,
			"byteLength":872,
			"byteOffset":2616,
			"target":34962
		},
		{
			"buffer":0,
			"byteLength":612,
			"byteOffset":3488,
			"target":34963
		},
		{
			"buffer":0,
			"byteLength":312,
			"byteOffset":4100,
			"target":34962
		},
		{
			"buffer":0,
			"byteLength":312,
			"byteOffset":4412,
			"target":34962
		},
		{
			"buffer":0,
			"byteLength":208,
			"byteOffset":4724,
			"target":34962
		},
		{
			"buffer":0,
			"byteLength":84,
			"byteOffset":4932,
			"target":34963
		},
		{
			"buffer":0,
			"byteLength":48,
			"byteOffset":5016,
			"target":34962
		},
		{
			"buffer":0,
			"byteLength":48,
			"byteOffset":5064,
			"target":34962
		},
		{
			"buffer":0,
			"byteLength":32,
			"byteOffset":5112,
			"target":34962
		},
		{
			"buffer":0,
			"byteLength":12,
			"byteOffset":5144,
			"target":34963
		},
		{
			"buffer":0,
			"byteLength":288,
			"byteOffset":5156,
			"target":34962
		},
		{
			"buffer":0,
			"byteLength":288,
			"byteOffset":5444,
			"target":34962
		},
		{
			"buffer":0,
			"byteLength":192,
			"byteOffset":5732,
			"target":34962
		},
		{
			"buffer":0,
			"byteLength":72,
			"byteOffset":5924,
			"target":34963
		},
		{
			"buffer":0,
			"byteLength":288,
			"byteOffset":5996,
			"target":34962
		},
		{
			"buffer":0,
			"byteLength":288,
			"byteOffset":6284,
			"target":34962
		},
		{
			"buffer":0,
			"byteLength":192,
			"byteOffset":6572,
			"target":34962
		},
		{
			"buffer":0,
			"byteLength":72,
			"byteOffset":6764,
			"target":34963
		},
		{
			"buffer":0,
			"byteLength":288,
			"byteOffset":6836,
			"target":34962
		},
		{
			"buffer":0,
			"byteLength":288,
			"byteOffset":7124,
			"target":34962
		},
		{
			"buffer":0,
			"byteLength":192,
			"byteOffset":7412,
			"target":34962
		},
		{
			"buffer":0,
			"byteLength":72,
			"byteOffset":7604,
			"target":34963
		}
	],
	"samplers":[
		{
			"magFilter":9729,
			"minFilter":9987
		}
	],
	"buffers":[
		{
			"byteLength":7676,
			"uri":"WallBand_Straight_Broken.bin"
		}
	]
}
