{
	"asset":{
		"generator":"Khronos glTF Blender I/O v4.0.44",
		"version":"2.0"
	},
	"extensionsUsed":[
		"KHR_materials_specular",
		"KHR_materials_ior"
	],
	"scene":0,
	"scenes":[
		{
			"name":"Scene",
			"nodes":[
				0,
				1,
				2,
				3,
				4,
				5
			]
		}
	],
	"nodes":[
		{
			"mesh":0,
			"name":"WallPipe_Corner_Round_Inner"
		},
		{
			"mesh":1,
			"name":"WallPipe_Corner_Round_Inner_001_convcolonly"
		},
		{
			"mesh":2,
			"name":"WallPipe_Corner_Round_Inner_002_convcolonly"
		},
		{
			"mesh":3,
			"name":"WallPipe_Corner_Round_Inner_003_convcolonly"
		},
		{
			"mesh":4,
			"name":"WallPipe_Corner_Round_Inner_004_convcolonly"
		},
		{
			"mesh":5,
			"name":"WallPipe_Corner_Round_Inner_005_convcolonly"
		}
	],
	"materials":[
		{
			"doubleSided":true,
			"name":"MI_Trim_02",
			"normalTexture":{
				"index":0
			},
			"pbrMetallicRoughness":{
				"baseColorTexture":{
					"index":1
				},
				"metallicRoughnessTexture":{
					"index":2
				}
			}
		},
		{
			"doubleSided":true,
			"extensions":{
				"KHR_materials_specular":{
					"specularFactor":0
				},
				"KHR_materials_ior":{
					"ior":1.4500000476837158
				}
			},
			"name":"MI_Trim_01",
			"normalTexture":{
				"index":3
			},
			"pbrMetallicRoughness":{
				"baseColorTexture":{
					"index":4
				},
				"metallicRoughnessTexture":{
					"index":5
				}
			}
		},
		{
			"doubleSided":true,
			"name":"MI_Trim_03_Dark",
			"normalTexture":{
				"index":6
			},
			"pbrMetallicRoughness":{
				"baseColorTexture":{
					"index":7
				},
				"metallicRoughnessTexture":{
					"index":8
				}
			}
		},
		{
			"doubleSided":true,
			"name":"MI_Trim_03",
			"normalTexture":{
				"index":9
			},
			"pbrMetallicRoughness":{
				"baseColorTexture":{
					"index":10
				},
				"metallicRoughnessTexture":{
					"index":11
				}
			}
		},
		{
			"doubleSided":true,
			"name":"Collision",
			"pbrMetallicRoughness":{
				"baseColorFactor":[
					0.11006110906600952,
					0.2556236684322357,
					0.8000785112380981,
					1
				],
				"metallicFactor":0,
				"roughnessFactor":0.5
			}
		}
	],
	"meshes":[
		{
			"name":"Plane.045",
			"primitives":[
				{
					"attributes":{
						"POSITION":0,
						"NORMAL":1,
						"TEXCOORD_0":2
					},
					"indices":3,
					"material":0
				},
				{
					"attributes":{
						"POSITION":4,
						"NORMAL":5,
						"TEXCOORD_0":6
					},
					"indices":7,
					"material":1
				},
				{
					"attributes":{
						"POSITION":8,
						"NORMAL":9,
						"TEXCOORD_0":10
					},
					"indices":11,
					"material":2
				},
				{
					"attributes":{
						"POSITION":12,
						"NORMAL":13,
						"TEXCOORD_0":14
					},
					"indices":15,
					"material":3
				}
			]
		},
		{
			"name":"Cube.039",
			"primitives":[
				{
					"attributes":{
						"POSITION":16,
						"NORMAL":17,
						"TEXCOORD_0":18
					},
					"indices":19,
					"material":4
				}
			]
		},
		{
			"name":"Cube.041",
			"primitives":[
				{
					"attributes":{
						"POSITION":20,
						"NORMAL":21,
						"TEXCOORD_0":22
					},
					"indices":23,
					"material":4
				}
			]
		},
		{
			"name":"Cube.042",
			"primitives":[
				{
					"attributes":{
						"POSITION":24,
						"NORMAL":25,
						"TEXCOORD_0":26
					},
					"indices":27,
					"material":4
				}
			]
		},
		{
			"name":"Cube.043",
			"primitives":[
				{
					"attributes":{
						"POSITION":28,
						"NORMAL":29,
						"TEXCOORD_0":30
					},
					"indices":31,
					"material":4
				}
			]
		},
		{
			"name":"Cube.044",
			"primitives":[
				{
					"attributes":{
						"POSITION":32,
						"NORMAL":33,
						"TEXCOORD_0":34
					},
					"indices":35,
					"material":4
				}
			]
		}
	],
	"textures":[
		{
			"sampler":0,
			"source":0
		},
		{
			"sampler":0,
			"source":1
		},
		{
			"sampler":0,
			"source":2
		},
		{
			"sampler":0,
			"source":3
		},
		{
			"sampler":0,
			"source":4
		},
		{
			"sampler":0,
			"source":5
		},
		{
			"sampler":0,
			"source":6
		},
		{
			"sampler":0,
			"source":7
		},
		{
			"sampler":0,
			"source":8
		},
		{
			"sampler":0,
			"source":6
		},
		{
			"sampler":0,
			"source":9
		},
		{
			"sampler":0,
			"source":8
		}
	],
	"images":[
		{
			"mimeType":"image/png",
			"name":"T_Trim_02_Normal",
			"uri":"T_Trim_02_Normal.png"
		},
		{
			"mimeType":"image/png",
			"name":"T_Trim_02_BaseColor_Red",
			"uri":"T_Trim_02_BaseColor_Red.png"
		},
		{
			"mimeType":"image/png",
			"name":"T_Trim_02_ORM",
			"uri":"T_Trim_02_ORM.png"
		},
		{
			"mimeType":"image/png",
			"name":"T_Trim_01_Normal",
			"uri":"T_Trim_01_Normal.png"
		},
		{
			"mimeType":"image/png",
			"name":"T_Trim_01_BaseColor_Red",
			"uri":"T_Trim_01_BaseColor_Red.png"
		},
		{
			"mimeType":"image/png",
			"name":"T_Trim_01_ORM",
			"uri":"T_Trim_01_ORM.png"
		},
		{
			"mimeType":"image/png",
			"name":"T_Trim_03_Normal",
			"uri":"T_Trim_03_Normal.png"
		},
		{
			"mimeType":"image/png",
			"name":"T_Trim_03_Cables",
			"uri":"T_Trim_03_Cables.png"
		},
		{
			"mimeType":"image/png",
			"name":"T_Trim_03_ORM",
			"uri":"T_Trim_03_ORM.png"
		},
		{
			"mimeType":"image/png",
			"name":"T_Trim_03_BaseColor",
			"uri":"T_Trim_03_BaseColor.png"
		}
	],
	"accessors":[
		{
			"bufferView":0,
			"componentType":5126,
			"count":252,
			"max":[
				1.5417841723319725e-06,
				3.0000007152557373,
				-2.0341441995697096e-05
			],
			"min":[
				-4.200000762939453,
				0.38082650303840637,
				-4.200000286102295
			],
			"type":"VEC3"
		},
		{
			"bufferView":1,
			"componentType":5126,
			"count":252,
			"type":"VEC3"
		},
		{
			"bufferView":2,
			"componentType":5126,
			"count":252,
			"type":"VEC2"
		},
		{
			"bufferView":3,
			"componentType":5123,
			"count":576,
			"type":"SCALAR"
		},
		{
			"bufferView":4,
			"componentType":5126,
			"count":579,
			"max":[
				1.5417841723319725e-06,
				2.7550101280212402,
				-2.0341441995697096e-05
			],
			"min":[
				-4.114328384399414,
				0.38082650303840637,
				-4.114327907562256
			],
			"type":"VEC3"
		},
		{
			"bufferView":5,
			"componentType":5126,
			"count":579,
			"type":"VEC3"
		},
		{
			"bufferView":6,
			"componentType":5126,
			"count":579,
			"type":"VEC2"
		},
		{
			"bufferView":7,
			"componentType":5123,
			"count":1440,
			"type":"SCALAR"
		},
		{
			"bufferView":8,
			"componentType":5126,
			"count":116,
			"max":[
				1.676794454397168e-06,
				0.7013887166976929,
				-2.033376949839294e-05
			],
			"min":[
				-4.200000762939453,
				0,
				-4.200000286102295
			],
			"type":"VEC3"
		},
		{
			"bufferView":9,
			"componentType":5126,
			"count":116,
			"type":"VEC3"
		},
		{
			"bufferView":10,
			"componentType":5126,
			"count":116,
			"type":"VEC2"
		},
		{
			"bufferView":11,
			"componentType":5123,
			"count":264,
			"type":"SCALAR"
		},
		{
			"bufferView":12,
			"componentType":5126,
			"count":72,
			"max":[
				-1.4948922395706177,
				0.543329656124115,
				-1.494913101196289
			],
			"min":[
				-4.013139247894287,
				0.26214197278022766,
				-4.013145446777344
			],
			"type":"VEC3"
		},
		{
			"bufferView":13,
			"componentType":5126,
			"count":72,
			"type":"VEC3"
		},
		{
			"bufferView":14,
			"componentType":5126,
			"count":72,
			"type":"VEC2"
		},
		{
			"bufferView":15,
			"componentType":5123,
			"count":120,
			"type":"SCALAR"
		},
		{
			"bufferView":16,
			"componentType":5126,
			"count":24,
			"max":[
				-1.2360681295394897,
				3,
				-3.2360682487487793
			],
			"min":[
				-2.468698501586914,
				0,
				-3.9944379329681396
			],
			"type":"VEC3"
		},
		{
			"bufferView":17,
			"componentType":5126,
			"count":24,
			"type":"VEC3"
		},
		{
			"bufferView":18,
			"componentType":5126,
			"count":24,
			"type":"VEC2"
		},
		{
			"bufferView":19,
			"componentType":5123,
			"count":36,
			"type":"SCALAR"
		},
		{
			"bufferView":20,
			"componentType":5126,
			"count":24,
			"max":[
				-3.8042261600494385,
				3,
				0
			],
			"min":[
				-4.199999809265137,
				0,
				-1.2978713512420654
			],
			"type":"VEC3"
		},
		{
			"bufferView":21,
			"componentType":5126,
			"count":24,
			"type":"VEC3"
		},
		{
			"bufferView":22,
			"componentType":5126,
			"count":24,
			"type":"VEC2"
		},
		{
			"bufferView":23,
			"componentType":5123,
			"count":36,
			"type":"SCALAR"
		},
		{
			"bufferView":24,
			"componentType":5126,
			"count":24,
			"max":[
				-3.2360682487487793,
				3,
				-1.2360680103302002
			],
			"min":[
				-3.9944376945495605,
				0,
				-2.468698263168335
			],
			"type":"VEC3"
		},
		{
			"bufferView":25,
			"componentType":5126,
			"count":24,
			"type":"VEC3"
		},
		{
			"bufferView":26,
			"componentType":5126,
			"count":24,
			"type":"VEC2"
		},
		{
			"bufferView":27,
			"componentType":5123,
			"count":36,
			"type":"SCALAR"
		},
		{
			"bufferView":28,
			"componentType":5126,
			"count":24,
			"max":[
				-2.3511412143707275,
				3,
				-2.3511409759521484
			],
			"min":[
				-3.397871732711792,
				0,
				-3.397871732711792
			],
			"type":"VEC3"
		},
		{
			"bufferView":29,
			"componentType":5126,
			"count":24,
			"type":"VEC3"
		},
		{
			"bufferView":30,
			"componentType":5126,
			"count":24,
			"type":"VEC2"
		},
		{
			"bufferView":31,
			"componentType":5123,
			"count":36,
			"type":"SCALAR"
		},
		{
			"bufferView":32,
			"componentType":5126,
			"count":24,
			"max":[
				0,
				3,
				-3.8042263984680176
			],
			"min":[
				-1.2978715896606445,
				0,
				-4.200000762939453
			],
			"type":"VEC3"
		},
		{
			"bufferView":33,
			"componentType":5126,
			"count":24,
			"type":"VEC3"
		},
		{
			"bufferView":34,
			"componentType":5126,
			"count":24,
			"type":"VEC2"
		},
		{
			"bufferView":35,
			"componentType":5123,
			"count":36,
			"type":"SCALAR"
		}
	],
	"bufferViews":[
		{
			"buffer":0,
			"byteLength":3024,
			"byteOffset":0,
			"target":34962
		},
		{
			"buffer":0,
			"byteLength":3024,
			"byteOffset":3024,
			"target":34962
		},
		{
			"buffer":0,
			"byteLength":2016,
			"byteOffset":6048,
			"target":34962
		},
		{
			"buffer":0,
			"byteLength":1152,
			"byteOffset":8064,
			"target":34963
		},
		{
			"buffer":0,
			"byteLength":6948,
			"byteOffset":9216,
			"target":34962
		},
		{
			"buffer":0,
			"byteLength":6948,
			"byteOffset":16164,
			"target":34962
		},
		{
			"buffer":0,
			"byteLength":4632,
			"byteOffset":23112,
			"target":34962
		},
		{
			"buffer":0,
			"byteLength":2880,
			"byteOffset":27744,
			"target":34963
		},
		{
			"buffer":0,
			"byteLength":1392,
			"byteOffset":30624,
			"target":34962
		},
		{
			"buffer":0,
			"byteLength":1392,
			"byteOffset":32016,
			"target":34962
		},
		{
			"buffer":0,
			"byteLength":928,
			"byteOffset":33408,
			"target":34962
		},
		{
			"buffer":0,
			"byteLength":528,
			"byteOffset":34336,
			"target":34963
		},
		{
			"buffer":0,
			"byteLength":864,
			"byteOffset":34864,
			"target":34962
		},
		{
			"buffer":0,
			"byteLength":864,
			"byteOffset":35728,
			"target":34962
		},
		{
			"buffer":0,
			"byteLength":576,
			"byteOffset":36592,
			"target":34962
		},
		{
			"buffer":0,
			"byteLength":240,
			"byteOffset":37168,
			"target":34963
		},
		{
			"buffer":0,
			"byteLength":288,
			"byteOffset":37408,
			"target":34962
		},
		{
			"buffer":0,
			"byteLength":288,
			"byteOffset":37696,
			"target":34962
		},
		{
			"buffer":0,
			"byteLength":192,
			"byteOffset":37984,
			"target":34962
		},
		{
			"buffer":0,
			"byteLength":72,
			"byteOffset":38176,
			"target":34963
		},
		{
			"buffer":0,
			"byteLength":288,
			"byteOffset":38248,
			"target":34962
		},
		{
			"buffer":0,
			"byteLength":288,
			"byteOffset":38536,
			"target":34962
		},
		{
			"buffer":0,
			"byteLength":192,
			"byteOffset":38824,
			"target":34962
		},
		{
			"buffer":0,
			"byteLength":72,
			"byteOffset":39016,
			"target":34963
		},
		{
			"buffer":0,
			"byteLength":288,
			"byteOffset":39088,
			"target":34962
		},
		{
			"buffer":0,
			"byteLength":288,
			"byteOffset":39376,
			"target":34962
		},
		{
			"buffer":0,
			"byteLength":192,
			"byteOffset":39664,
			"target":34962
		},
		{
			"buffer":0,
			"byteLength":72,
			"byteOffset":39856,
			"target":34963
		},
		{
			"buffer":0,
			"byteLength":288,
			"byteOffset":39928,
			"target":34962
		},
		{
			"buffer":0,
			"byteLength":288,
			"byteOffset":40216,
			"target":34962
		},
		{
			"buffer":0,
			"byteLength":192,
			"byteOffset":40504,
			"target":34962
		},
		{
			"buffer":0,
			"byteLength":72,
			"byteOffset":40696,
			"target":34963
		},
		{
			"buffer":0,
			"byteLength":288,
			"byteOffset":40768,
			"target":34962
		},
		{
			"buffer":0,
			"byteLength":288,
			"byteOffset":41056,
			"target":34962
		},
		{
			"buffer":0,
			"byteLength":192,
			"byteOffset":41344,
			"target":34962
		},
		{
			"buffer":0,
			"byteLength":72,
			"byteOffset":41536,
			"target":34963
		}
	],
	"samplers":[
		{
			"magFilter":9729,
			"minFilter":9987
		}
	],
	"buffers":[
		{
			"byteLength":41608,
			"uri":"WallPipe_Corner_Round_Inner.bin"
		}
	]
}
