{
	"asset":{
		"generator":"Khronos glTF Blender I/O v4.0.44",
		"version":"2.0"
	},
	"extensionsUsed":[
		"KHR_materials_specular",
		"KHR_materials_ior"
	],
	"scene":0,
	"scenes":[
		{
			"name":"Scene",
			"nodes":[
				0,
				1,
				2,
				3,
				4
			]
		}
	],
	"nodes":[
		{
			"mesh":0,
			"name":"WallAstra_Corner_Square_Inner"
		},
		{
			"mesh":1,
			"name":"WallAstra_Corner_Square_Inner_01_convcolonly"
		},
		{
			"mesh":2,
			"name":"WallAstra_Corner_Square_Inner_02_convcolonly"
		},
		{
			"mesh":3,
			"name":"WallAstra_Corner_Square_Inner_03_convcolonly"
		},
		{
			"mesh":4,
			"name":"WallAstra_Corner_Square_Inner_04_convcolonly"
		}
	],
	"materials":[
		{
			"doubleSided":true,
			"name":"MI_Trim_03",
			"normalTexture":{
				"index":0
			},
			"pbrMetallicRoughness":{
				"baseColorTexture":{
					"index":1
				},
				"metallicRoughnessTexture":{
					"index":2
				}
			}
		},
		{
			"doubleSided":true,
			"name":"MI_Trim_02",
			"normalTexture":{
				"index":3
			},
			"pbrMetallicRoughness":{
				"baseColorTexture":{
					"index":4
				},
				"metallicRoughnessTexture":{
					"index":5
				}
			}
		},
		{
			"doubleSided":true,
			"extensions":{
				"KHR_materials_specular":{
					"specularFactor":0
				},
				"KHR_materials_ior":{
					"ior":1.4500000476837158
				}
			},
			"name":"MI_Trim_01",
			"normalTexture":{
				"index":6
			},
			"pbrMetallicRoughness":{
				"baseColorTexture":{
					"index":7
				},
				"metallicRoughnessTexture":{
					"index":8
				}
			}
		},
		{
			"doubleSided":true,
			"name":"MI_Decal_Red",
			"pbrMetallicRoughness":{
				"baseColorTexture":{
					"index":9
				},
				"metallicFactor":0,
				"roughnessFactor":0.5
			}
		},
		{
			"doubleSided":true,
			"name":"MI_Trim_03_Dark",
			"normalTexture":{
				"index":10
			},
			"pbrMetallicRoughness":{
				"baseColorTexture":{
					"index":11
				},
				"metallicRoughnessTexture":{
					"index":12
				}
			}
		},
		{
			"doubleSided":true,
			"name":"Collision",
			"pbrMetallicRoughness":{
				"baseColorFactor":[
					0.11006110906600952,
					0.2556236684322357,
					0.8000785112380981,
					1
				],
				"metallicFactor":0,
				"roughnessFactor":0.5
			}
		}
	],
	"meshes":[
		{
			"name":"Cube.048",
			"primitives":[
				{
					"attributes":{
						"POSITION":0,
						"NORMAL":1,
						"TEXCOORD_0":2
					},
					"indices":3,
					"material":0
				},
				{
					"attributes":{
						"POSITION":4,
						"NORMAL":5,
						"TEXCOORD_0":6
					},
					"indices":7,
					"material":1
				},
				{
					"attributes":{
						"POSITION":8,
						"NORMAL":9,
						"TEXCOORD_0":10
					},
					"indices":11,
					"material":2
				},
				{
					"attributes":{
						"POSITION":12,
						"NORMAL":13,
						"TEXCOORD_0":14
					},
					"indices":15,
					"material":3
				},
				{
					"attributes":{
						"POSITION":16,
						"NORMAL":17,
						"TEXCOORD_0":18
					},
					"indices":19,
					"material":4
				}
			]
		},
		{
			"name":"Cube.175",
			"primitives":[
				{
					"attributes":{
						"POSITION":20,
						"NORMAL":21,
						"TEXCOORD_0":22
					},
					"indices":23
				}
			]
		},
		{
			"name":"Cube.176",
			"primitives":[
				{
					"attributes":{
						"POSITION":24,
						"NORMAL":25,
						"TEXCOORD_0":26
					},
					"indices":27
				}
			]
		},
		{
			"name":"Cube.179",
			"primitives":[
				{
					"attributes":{
						"POSITION":28,
						"NORMAL":29,
						"TEXCOORD_0":30
					},
					"indices":31,
					"material":5
				}
			]
		},
		{
			"name":"Cube.180",
			"primitives":[
				{
					"attributes":{
						"POSITION":32,
						"NORMAL":33,
						"TEXCOORD_0":34
					},
					"indices":27,
					"material":5
				}
			]
		}
	],
	"textures":[
		{
			"sampler":0,
			"source":0
		},
		{
			"sampler":0,
			"source":1
		},
		{
			"sampler":0,
			"source":2
		},
		{
			"sampler":0,
			"source":3
		},
		{
			"sampler":0,
			"source":4
		},
		{
			"sampler":0,
			"source":5
		},
		{
			"sampler":0,
			"source":6
		},
		{
			"sampler":0,
			"source":7
		},
		{
			"sampler":0,
			"source":8
		},
		{
			"sampler":0,
			"source":9
		},
		{
			"sampler":0,
			"source":0
		},
		{
			"sampler":0,
			"source":10
		},
		{
			"sampler":0,
			"source":2
		}
	],
	"images":[
		{
			"mimeType":"image/png",
			"name":"T_Trim_03_Normal",
			"uri":"T_Trim_03_Normal.png"
		},
		{
			"mimeType":"image/png",
			"name":"T_Trim_03_BaseColor",
			"uri":"T_Trim_03_BaseColor.png"
		},
		{
			"mimeType":"image/png",
			"name":"T_Trim_03_ORM",
			"uri":"T_Trim_03_ORM.png"
		},
		{
			"mimeType":"image/png",
			"name":"T_Trim_02_Normal",
			"uri":"T_Trim_02_Normal.png"
		},
		{
			"mimeType":"image/png",
			"name":"T_Trim_02_BaseColor_Red",
			"uri":"T_Trim_02_BaseColor_Red.png"
		},
		{
			"mimeType":"image/png",
			"name":"T_Trim_02_ORM",
			"uri":"T_Trim_02_ORM.png"
		},
		{
			"mimeType":"image/png",
			"name":"T_Trim_01_Normal",
			"uri":"T_Trim_01_Normal.png"
		},
		{
			"mimeType":"image/png",
			"name":"T_Trim_01_BaseColor_Red",
			"uri":"T_Trim_01_BaseColor_Red.png"
		},
		{
			"mimeType":"image/png",
			"name":"T_Trim_01_ORM",
			"uri":"T_Trim_01_ORM.png"
		},
		{
			"mimeType":"image/png",
			"name":"T_Decals",
			"uri":"T_Decals.png"
		},
		{
			"mimeType":"image/png",
			"name":"T_Trim_03_Cables",
			"uri":"T_Trim_03_Cables.png"
		}
	],
	"accessors":[
		{
			"bufferView":0,
			"componentType":5126,
			"count":388,
			"max":[
				4.76837158203125e-07,
				3.021496057510376,
				9.5367431640625e-07
			],
			"min":[
				-4.773996829986572,
				0.19871604442596436,
				-4.7739973068237305
			],
			"type":"VEC3"
		},
		{
			"bufferView":1,
			"componentType":5126,
			"count":388,
			"type":"VEC3"
		},
		{
			"bufferView":2,
			"componentType":5126,
			"count":388,
			"type":"VEC2"
		},
		{
			"bufferView":3,
			"componentType":5123,
			"count":1086,
			"type":"SCALAR"
		},
		{
			"bufferView":4,
			"componentType":5126,
			"count":106,
			"max":[
				-1.1920928955078125e-07,
				2.999999761581421,
				2.384185791015625e-07
			],
			"min":[
				-4.260663986206055,
				-0.006465164944529533,
				-4.260664463043213
			],
			"type":"VEC3"
		},
		{
			"bufferView":5,
			"componentType":5126,
			"count":106,
			"type":"VEC3"
		},
		{
			"bufferView":6,
			"componentType":5126,
			"count":106,
			"type":"VEC2"
		},
		{
			"bufferView":7,
			"componentType":5123,
			"count":330,
			"type":"SCALAR"
		},
		{
			"bufferView":8,
			"componentType":5126,
			"count":52,
			"max":[
				-1.9286208152770996,
				0.08160069584846497,
				-1.9286209344863892
			],
			"min":[
				-3.6134157180786133,
				0.006236742716282606,
				-3.6134157180786133
			],
			"type":"VEC3"
		},
		{
			"bufferView":9,
			"componentType":5126,
			"count":52,
			"type":"VEC3"
		},
		{
			"bufferView":10,
			"componentType":5126,
			"count":52,
			"type":"VEC2"
		},
		{
			"bufferView":11,
			"componentType":5123,
			"count":96,
			"type":"SCALAR"
		},
		{
			"bufferView":12,
			"componentType":5126,
			"count":30,
			"max":[
				-0.633805513381958,
				1.4798996448516846,
				-0.6338062286376953
			],
			"min":[
				-4.163668632507324,
				1.2144479751586914,
				-4.163668632507324
			],
			"type":"VEC3"
		},
		{
			"bufferView":13,
			"componentType":5126,
			"count":30,
			"type":"VEC3"
		},
		{
			"bufferView":14,
			"componentType":5126,
			"count":30,
			"type":"VEC2"
		},
		{
			"bufferView":15,
			"componentType":5123,
			"count":48,
			"type":"SCALAR"
		},
		{
			"bufferView":16,
			"componentType":5126,
			"count":188,
			"max":[
				0,
				0.8000003695487976,
				9.5367431640625e-07
			],
			"min":[
				-4.100000381469727,
				1.1920928955078125e-07,
				-4.100000381469727
			],
			"type":"VEC3"
		},
		{
			"bufferView":17,
			"componentType":5126,
			"count":188,
			"type":"VEC3"
		},
		{
			"bufferView":18,
			"componentType":5126,
			"count":188,
			"type":"VEC2"
		},
		{
			"bufferView":19,
			"componentType":5123,
			"count":630,
			"type":"SCALAR"
		},
		{
			"bufferView":20,
			"componentType":5126,
			"count":24,
			"max":[
				-3.535889148712158,
				3,
				-1.8054924011230469
			],
			"min":[
				-4.3319878578186035,
				0,
				-2.1919188499450684
			],
			"type":"VEC3"
		},
		{
			"bufferView":21,
			"componentType":5126,
			"count":24,
			"type":"VEC3"
		},
		{
			"bufferView":22,
			"componentType":5126,
			"count":24,
			"type":"VEC2"
		},
		{
			"bufferView":23,
			"componentType":5123,
			"count":36,
			"type":"SCALAR"
		},
		{
			"bufferView":24,
			"componentType":5126,
			"count":24,
			"max":[
				-1.8054921627044678,
				3,
				-3.5387659072875977
			],
			"min":[
				-2.1919186115264893,
				0,
				-4.334864616394043
			],
			"type":"VEC3"
		},
		{
			"bufferView":25,
			"componentType":5126,
			"count":24,
			"type":"VEC3"
		},
		{
			"bufferView":26,
			"componentType":5126,
			"count":24,
			"type":"VEC2"
		},
		{
			"bufferView":27,
			"componentType":5123,
			"count":36,
			"type":"SCALAR"
		},
		{
			"bufferView":28,
			"componentType":5126,
			"count":24,
			"max":[
				-4,
				3,
				0
			],
			"min":[
				-4.199999809265137,
				0,
				-4.200000286102295
			],
			"type":"VEC3"
		},
		{
			"bufferView":29,
			"componentType":5126,
			"count":24,
			"type":"VEC3"
		},
		{
			"bufferView":30,
			"componentType":5126,
			"count":24,
			"type":"VEC2"
		},
		{
			"bufferView":31,
			"componentType":5123,
			"count":36,
			"type":"SCALAR"
		},
		{
			"bufferView":32,
			"componentType":5126,
			"count":24,
			"max":[
				1.8358782938321383e-07,
				3,
				-4
			],
			"min":[
				-4.200000286102295,
				0,
				-4.199999809265137
			],
			"type":"VEC3"
		},
		{
			"bufferView":33,
			"componentType":5126,
			"count":24,
			"type":"VEC3"
		},
		{
			"bufferView":34,
			"componentType":5126,
			"count":24,
			"type":"VEC2"
		}
	],
	"bufferViews":[
		{
			"buffer":0,
			"byteLength":4656,
			"byteOffset":0,
			"target":34962
		},
		{
			"buffer":0,
			"byteLength":4656,
			"byteOffset":4656,
			"target":34962
		},
		{
			"buffer":0,
			"byteLength":3104,
			"byteOffset":9312,
			"target":34962
		},
		{
			"buffer":0,
			"byteLength":2172,
			"byteOffset":12416,
			"target":34963
		},
		{
			"buffer":0,
			"byteLength":1272,
			"byteOffset":14588,
			"target":34962
		},
		{
			"buffer":0,
			"byteLength":1272,
			"byteOffset":15860,
			"target":34962
		},
		{
			"buffer":0,
			"byteLength":848,
			"byteOffset":17132,
			"target":34962
		},
		{
			"buffer":0,
			"byteLength":660,
			"byteOffset":17980,
			"target":34963
		},
		{
			"buffer":0,
			"byteLength":624,
			"byteOffset":18640,
			"target":34962
		},
		{
			"buffer":0,
			"byteLength":624,
			"byteOffset":19264,
			"target":34962
		},
		{
			"buffer":0,
			"byteLength":416,
			"byteOffset":19888,
			"target":34962
		},
		{
			"buffer":0,
			"byteLength":192,
			"byteOffset":20304,
			"target":34963
		},
		{
			"buffer":0,
			"byteLength":360,
			"byteOffset":20496,
			"target":34962
		},
		{
			"buffer":0,
			"byteLength":360,
			"byteOffset":20856,
			"target":34962
		},
		{
			"buffer":0,
			"byteLength":240,
			"byteOffset":21216,
			"target":34962
		},
		{
			"buffer":0,
			"byteLength":96,
			"byteOffset":21456,
			"target":34963
		},
		{
			"buffer":0,
			"byteLength":2256,
			"byteOffset":21552,
			"target":34962
		},
		{
			"buffer":0,
			"byteLength":2256,
			"byteOffset":23808,
			"target":34962
		},
		{
			"buffer":0,
			"byteLength":1504,
			"byteOffset":26064,
			"target":34962
		},
		{
			"buffer":0,
			"byteLength":1260,
			"byteOffset":27568,
			"target":34963
		},
		{
			"buffer":0,
			"byteLength":288,
			"byteOffset":28828,
			"target":34962
		},
		{
			"buffer":0,
			"byteLength":288,
			"byteOffset":29116,
			"target":34962
		},
		{
			"buffer":0,
			"byteLength":192,
			"byteOffset":29404,
			"target":34962
		},
		{
			"buffer":0,
			"byteLength":72,
			"byteOffset":29596,
			"target":34963
		},
		{
			"buffer":0,
			"byteLength":288,
			"byteOffset":29668,
			"target":34962
		},
		{
			"buffer":0,
			"byteLength":288,
			"byteOffset":29956,
			"target":34962
		},
		{
			"buffer":0,
			"byteLength":192,
			"byteOffset":30244,
			"target":34962
		},
		{
			"buffer":0,
			"byteLength":72,
			"byteOffset":30436,
			"target":34963
		},
		{
			"buffer":0,
			"byteLength":288,
			"byteOffset":30508,
			"target":34962
		},
		{
			"buffer":0,
			"byteLength":288,
			"byteOffset":30796,
			"target":34962
		},
		{
			"buffer":0,
			"byteLength":192,
			"byteOffset":31084,
			"target":34962
		},
		{
			"buffer":0,
			"byteLength":72,
			"byteOffset":31276,
			"target":34963
		},
		{
			"buffer":0,
			"byteLength":288,
			"byteOffset":31348,
			"target":34962
		},
		{
			"buffer":0,
			"byteLength":288,
			"byteOffset":31636,
			"target":34962
		},
		{
			"buffer":0,
			"byteLength":192,
			"byteOffset":31924,
			"target":34962
		}
	],
	"samplers":[
		{
			"magFilter":9729,
			"minFilter":9987
		}
	],
	"buffers":[
		{
			"byteLength":32116,
			"uri":"WallAstra_Corner_Square_Inner.bin"
		}
	]
}
