{
	"asset":{
		"generator":"Khronos glTF Blender I/O v4.0.44",
		"version":"2.0"
	},
	"extensionsUsed":[
		"KHR_materials_specular",
		"KHR_materials_ior"
	],
	"scene":0,
	"scenes":[
		{
			"name":"Scene",
			"nodes":[
				0,
				1,
				2,
				3,
				4,
				5
			]
		}
	],
	"nodes":[
		{
			"mesh":0,
			"name":"WallWindow_Corner_Round_Outer"
		},
		{
			"mesh":1,
			"name":"WallWindow_Corner_Round_Outer_01_convcolonly"
		},
		{
			"mesh":2,
			"name":"WallWindow_Corner_Round_Outer_02_convcolonly"
		},
		{
			"mesh":3,
			"name":"WallWindow_Corner_Round_Outer_03_convcolonly"
		},
		{
			"mesh":4,
			"name":"WallWindow_Corner_Round_Outer_04_convcolonly"
		},
		{
			"mesh":5,
			"name":"WallWindow_Corner_Round_Outer_05_convcolonly"
		}
	],
	"materials":[
		{
			"doubleSided":true,
			"name":"MI_Trim_02",
			"normalTexture":{
				"index":0
			},
			"pbrMetallicRoughness":{
				"baseColorTexture":{
					"index":1
				},
				"metallicRoughnessTexture":{
					"index":2
				}
			}
		},
		{
			"doubleSided":true,
			"extensions":{
				"KHR_materials_specular":{
					"specularFactor":0
				},
				"KHR_materials_ior":{
					"ior":1.4500000476837158
				}
			},
			"name":"MI_Trim_01",
			"normalTexture":{
				"index":3
			},
			"pbrMetallicRoughness":{
				"baseColorTexture":{
					"index":4
				},
				"metallicRoughnessTexture":{
					"index":5
				}
			}
		},
		{
			"doubleSided":true,
			"name":"M_Glass",
			"pbrMetallicRoughness":{
				"baseColorFactor":[
					0.800000011920929,
					0.800000011920929,
					0.800000011920929,
					1
				],
				"metallicFactor":0,
				"roughnessFactor":0.5
			}
		},
		{
			"doubleSided":true,
			"extensions":{
				"KHR_materials_specular":{
					"specularFactor":0
				},
				"KHR_materials_ior":{
					"ior":1.4500000476837158
				}
			},
			"name":"MI_PaddedWall",
			"normalTexture":{
				"index":6
			},
			"pbrMetallicRoughness":{
				"baseColorTexture":{
					"index":7
				},
				"metallicRoughnessTexture":{
					"index":8
				}
			}
		},
		{
			"doubleSided":true,
			"name":"Collision",
			"pbrMetallicRoughness":{
				"baseColorFactor":[
					0.11006110906600952,
					0.2556236684322357,
					0.8000785112380981,
					1
				],
				"metallicFactor":0,
				"roughnessFactor":0.5
			}
		}
	],
	"meshes":[
		{
			"name":"Plane.096",
			"primitives":[
				{
					"attributes":{
						"POSITION":0,
						"NORMAL":1,
						"TEXCOORD_0":2
					},
					"indices":3,
					"material":0
				},
				{
					"attributes":{
						"POSITION":4,
						"NORMAL":5,
						"TEXCOORD_0":6
					},
					"indices":7,
					"material":1
				},
				{
					"attributes":{
						"POSITION":8,
						"NORMAL":9,
						"TEXCOORD_0":10
					},
					"indices":11,
					"material":2
				},
				{
					"attributes":{
						"POSITION":12,
						"NORMAL":13,
						"TEXCOORD_0":14
					},
					"indices":15,
					"material":3
				}
			]
		},
		{
			"name":"Cube.097",
			"primitives":[
				{
					"attributes":{
						"POSITION":16,
						"NORMAL":17,
						"TEXCOORD_0":18
					},
					"indices":19,
					"material":4
				}
			]
		},
		{
			"name":"Cube.102",
			"primitives":[
				{
					"attributes":{
						"POSITION":20,
						"NORMAL":21,
						"TEXCOORD_0":22
					},
					"indices":23,
					"material":4
				}
			]
		},
		{
			"name":"Cube.103",
			"primitives":[
				{
					"attributes":{
						"POSITION":24,
						"NORMAL":25,
						"TEXCOORD_0":26
					},
					"indices":27,
					"material":4
				}
			]
		},
		{
			"name":"Cube.104",
			"primitives":[
				{
					"attributes":{
						"POSITION":28,
						"NORMAL":29,
						"TEXCOORD_0":30
					},
					"indices":31,
					"material":4
				}
			]
		},
		{
			"name":"Cube.105",
			"primitives":[
				{
					"attributes":{
						"POSITION":32,
						"NORMAL":33,
						"TEXCOORD_0":34
					},
					"indices":35,
					"material":4
				}
			]
		}
	],
	"textures":[
		{
			"sampler":0,
			"source":0
		},
		{
			"sampler":0,
			"source":1
		},
		{
			"sampler":0,
			"source":2
		},
		{
			"sampler":0,
			"source":3
		},
		{
			"sampler":0,
			"source":4
		},
		{
			"sampler":0,
			"source":5
		},
		{
			"sampler":0,
			"source":6
		},
		{
			"sampler":0,
			"source":7
		},
		{
			"sampler":0,
			"source":8
		}
	],
	"images":[
		{
			"mimeType":"image/png",
			"name":"T_Trim_02_Normal",
			"uri":"T_Trim_02_Normal.png"
		},
		{
			"mimeType":"image/png",
			"name":"T_Trim_02_BaseColor_Red",
			"uri":"T_Trim_02_BaseColor_Red.png"
		},
		{
			"mimeType":"image/png",
			"name":"T_Trim_02_ORM",
			"uri":"T_Trim_02_ORM.png"
		},
		{
			"mimeType":"image/png",
			"name":"T_Trim_01_Normal",
			"uri":"T_Trim_01_Normal.png"
		},
		{
			"mimeType":"image/png",
			"name":"T_Trim_01_BaseColor_Red",
			"uri":"T_Trim_01_BaseColor_Red.png"
		},
		{
			"mimeType":"image/png",
			"name":"T_Trim_01_ORM",
			"uri":"T_Trim_01_ORM.png"
		},
		{
			"mimeType":"image/png",
			"name":"T_PaddedWall_Normal",
			"uri":"T_PaddedWall_Normal.png"
		},
		{
			"mimeType":"image/png",
			"name":"T_PaddedWall_BaseColor",
			"uri":"T_PaddedWall_BaseColor.png"
		},
		{
			"mimeType":"image/png",
			"name":"T_PaddedWall_ORM",
			"uri":"T_PaddedWall_ORM.png"
		}
	],
	"accessors":[
		{
			"bufferView":0,
			"componentType":5126,
			"count":803,
			"max":[
				1.7327683963230811e-06,
				3.161181688308716,
				-1.9968001652159728e-05
			],
			"min":[
				-4.00827693939209,
				0.7999997735023499,
				-4.008275508880615
			],
			"type":"VEC3"
		},
		{
			"bufferView":1,
			"componentType":5126,
			"count":803,
			"type":"VEC3"
		},
		{
			"bufferView":2,
			"componentType":5126,
			"count":803,
			"type":"VEC2"
		},
		{
			"bufferView":3,
			"componentType":5123,
			"count":2166,
			"type":"SCALAR"
		},
		{
			"bufferView":4,
			"componentType":5126,
			"count":88,
			"max":[
				1.3276040817800094e-06,
				1.2689471244812012,
				-2.0333773136371747e-05
			],
			"min":[
				-4.000001430511475,
				-3.258412846207648e-07,
				-3.999999761581421
			],
			"type":"VEC3"
		},
		{
			"bufferView":5,
			"componentType":5126,
			"count":88,
			"type":"VEC3"
		},
		{
			"bufferView":6,
			"componentType":5126,
			"count":88,
			"type":"VEC2"
		},
		{
			"bufferView":7,
			"componentType":5123,
			"count":243,
			"type":"SCALAR"
		},
		{
			"bufferView":8,
			"componentType":5126,
			"count":36,
			"max":[
				1.5791669056852697e-06,
				3.0001509189605713,
				-2.188722646678798e-05
			],
			"min":[
				-3.931802749633789,
				0.9999997615814209,
				-3.9318017959594727
			],
			"type":"VEC3"
		},
		{
			"bufferView":9,
			"componentType":5126,
			"count":36,
			"type":"VEC3"
		},
		{
			"bufferView":10,
			"componentType":5126,
			"count":36,
			"type":"VEC2"
		},
		{
			"bufferView":11,
			"componentType":5123,
			"count":96,
			"type":"SCALAR"
		},
		{
			"bufferView":12,
			"componentType":5126,
			"count":298,
			"max":[
				1.5550717762380373e-06,
				3.000000476837158,
				-2.2265343432081863e-05
			],
			"min":[
				-4.00827693939209,
				1.0007429122924805,
				-4.008275508880615
			],
			"type":"VEC3"
		},
		{
			"bufferView":13,
			"componentType":5126,
			"count":298,
			"type":"VEC3"
		},
		{
			"bufferView":14,
			"componentType":5126,
			"count":298,
			"type":"VEC2"
		},
		{
			"bufferView":15,
			"componentType":5123,
			"count":1056,
			"type":"SCALAR"
		},
		{
			"bufferView":16,
			"componentType":5126,
			"count":24,
			"max":[
				-3.6140151023864746,
				3,
				0
			],
			"min":[
				-4.0344014167785645,
				0,
				-1.2466986179351807
			],
			"type":"VEC3"
		},
		{
			"bufferView":17,
			"componentType":5126,
			"count":24,
			"type":"VEC3"
		},
		{
			"bufferView":18,
			"componentType":5126,
			"count":24,
			"type":"VEC2"
		},
		{
			"bufferView":19,
			"componentType":5123,
			"count":36,
			"type":"SCALAR"
		},
		{
			"bufferView":20,
			"componentType":5126,
			"count":24,
			"max":[
				-2.233583927154541,
				3,
				-2.23358416557312
			],
			"min":[
				-3.263899087905884,
				0,
				-3.263899326324463
			],
			"type":"VEC3"
		},
		{
			"bufferView":21,
			"componentType":5126,
			"count":24,
			"type":"VEC3"
		},
		{
			"bufferView":22,
			"componentType":5126,
			"count":24,
			"type":"VEC2"
		},
		{
			"bufferView":23,
			"componentType":5123,
			"count":36,
			"type":"SCALAR"
		},
		{
			"bufferView":24,
			"componentType":5126,
			"count":24,
			"max":[
				1.202345316642095e-07,
				3,
				-3.6140148639678955
			],
			"min":[
				-1.2466984987258911,
				0,
				-4.034401893615723
			],
			"type":"VEC3"
		},
		{
			"bufferView":25,
			"componentType":5126,
			"count":24,
			"type":"VEC3"
		},
		{
			"bufferView":26,
			"componentType":5126,
			"count":24,
			"type":"VEC2"
		},
		{
			"bufferView":27,
			"componentType":5123,
			"count":36,
			"type":"SCALAR"
		},
		{
			"bufferView":28,
			"componentType":5126,
			"count":24,
			"max":[
				-3.0742647647857666,
				3,
				-1.174264669418335
			],
			"min":[
				-3.8369436264038086,
				0,
				-2.37136173248291
			],
			"type":"VEC3"
		},
		{
			"bufferView":29,
			"componentType":5126,
			"count":24,
			"type":"VEC3"
		},
		{
			"bufferView":30,
			"componentType":5126,
			"count":24,
			"type":"VEC2"
		},
		{
			"bufferView":31,
			"componentType":5123,
			"count":36,
			"type":"SCALAR"
		},
		{
			"bufferView":32,
			"componentType":5126,
			"count":24,
			"max":[
				-1.174264669418335,
				3,
				-3.0742647647857666
			],
			"min":[
				-2.371361494064331,
				0,
				-3.8369438648223877
			],
			"type":"VEC3"
		},
		{
			"bufferView":33,
			"componentType":5126,
			"count":24,
			"type":"VEC3"
		},
		{
			"bufferView":34,
			"componentType":5126,
			"count":24,
			"type":"VEC2"
		},
		{
			"bufferView":35,
			"componentType":5123,
			"count":36,
			"type":"SCALAR"
		}
	],
	"bufferViews":[
		{
			"buffer":0,
			"byteLength":9636,
			"byteOffset":0,
			"target":34962
		},
		{
			"buffer":0,
			"byteLength":9636,
			"byteOffset":9636,
			"target":34962
		},
		{
			"buffer":0,
			"byteLength":6424,
			"byteOffset":19272,
			"target":34962
		},
		{
			"buffer":0,
			"byteLength":4332,
			"byteOffset":25696,
			"target":34963
		},
		{
			"buffer":0,
			"byteLength":1056,
			"byteOffset":30028,
			"target":34962
		},
		{
			"buffer":0,
			"byteLength":1056,
			"byteOffset":31084,
			"target":34962
		},
		{
			"buffer":0,
			"byteLength":704,
			"byteOffset":32140,
			"target":34962
		},
		{
			"buffer":0,
			"byteLength":486,
			"byteOffset":32844,
			"target":34963
		},
		{
			"buffer":0,
			"byteLength":432,
			"byteOffset":33332,
			"target":34962
		},
		{
			"buffer":0,
			"byteLength":432,
			"byteOffset":33764,
			"target":34962
		},
		{
			"buffer":0,
			"byteLength":288,
			"byteOffset":34196,
			"target":34962
		},
		{
			"buffer":0,
			"byteLength":192,
			"byteOffset":34484,
			"target":34963
		},
		{
			"buffer":0,
			"byteLength":3576,
			"byteOffset":34676,
			"target":34962
		},
		{
			"buffer":0,
			"byteLength":3576,
			"byteOffset":38252,
			"target":34962
		},
		{
			"buffer":0,
			"byteLength":2384,
			"byteOffset":41828,
			"target":34962
		},
		{
			"buffer":0,
			"byteLength":2112,
			"byteOffset":44212,
			"target":34963
		},
		{
			"buffer":0,
			"byteLength":288,
			"byteOffset":46324,
			"target":34962
		},
		{
			"buffer":0,
			"byteLength":288,
			"byteOffset":46612,
			"target":34962
		},
		{
			"buffer":0,
			"byteLength":192,
			"byteOffset":46900,
			"target":34962
		},
		{
			"buffer":0,
			"byteLength":72,
			"byteOffset":47092,
			"target":34963
		},
		{
			"buffer":0,
			"byteLength":288,
			"byteOffset":47164,
			"target":34962
		},
		{
			"buffer":0,
			"byteLength":288,
			"byteOffset":47452,
			"target":34962
		},
		{
			"buffer":0,
			"byteLength":192,
			"byteOffset":47740,
			"target":34962
		},
		{
			"buffer":0,
			"byteLength":72,
			"byteOffset":47932,
			"target":34963
		},
		{
			"buffer":0,
			"byteLength":288,
			"byteOffset":48004,
			"target":34962
		},
		{
			"buffer":0,
			"byteLength":288,
			"byteOffset":48292,
			"target":34962
		},
		{
			"buffer":0,
			"byteLength":192,
			"byteOffset":48580,
			"target":34962
		},
		{
			"buffer":0,
			"byteLength":72,
			"byteOffset":48772,
			"target":34963
		},
		{
			"buffer":0,
			"byteLength":288,
			"byteOffset":48844,
			"target":34962
		},
		{
			"buffer":0,
			"byteLength":288,
			"byteOffset":49132,
			"target":34962
		},
		{
			"buffer":0,
			"byteLength":192,
			"byteOffset":49420,
			"target":34962
		},
		{
			"buffer":0,
			"byteLength":72,
			"byteOffset":49612,
			"target":34963
		},
		{
			"buffer":0,
			"byteLength":288,
			"byteOffset":49684,
			"target":34962
		},
		{
			"buffer":0,
			"byteLength":288,
			"byteOffset":49972,
			"target":34962
		},
		{
			"buffer":0,
			"byteLength":192,
			"byteOffset":50260,
			"target":34962
		},
		{
			"buffer":0,
			"byteLength":72,
			"byteOffset":50452,
			"target":34963
		}
	],
	"samplers":[
		{
			"magFilter":9729,
			"minFilter":9987
		}
	],
	"buffers":[
		{
			"byteLength":50524,
			"uri":"WallWindow_Corner_Round_Outer.bin"
		}
	]
}
