{
	"asset":{
		"generator":"Khronos glTF Blender I/O v4.0.44",
		"version":"2.0"
	},
	"extensionsUsed":[
		"KHR_materials_specular",
		"KHR_materials_ior"
	],
	"scene":0,
	"scenes":[
		{
			"name":"Scene",
			"nodes":[
				0,
				1,
				2,
				3,
				4,
				5
			]
		}
	],
	"nodes":[
		{
			"mesh":0,
			"name":"WallWindow_Corner_Round_Inner"
		},
		{
			"mesh":1,
			"name":"WallWindow_Corner_Round_Inner_01_convcolonly"
		},
		{
			"mesh":2,
			"name":"WallWindow_Corner_Round_Inner_02_convcolonly"
		},
		{
			"mesh":3,
			"name":"WallWindow_Corner_Round_Inner_03_convcolonly"
		},
		{
			"mesh":4,
			"name":"WallWindow_Corner_Round_Inner_04_convcolonly"
		},
		{
			"mesh":5,
			"name":"WallWindow_Corner_Round_Inner_05_convcolonly"
		}
	],
	"materials":[
		{
			"doubleSided":true,
			"name":"MI_Trim_02",
			"normalTexture":{
				"index":0
			},
			"pbrMetallicRoughness":{
				"baseColorTexture":{
					"index":1
				},
				"metallicRoughnessTexture":{
					"index":2
				}
			}
		},
		{
			"doubleSided":true,
			"extensions":{
				"KHR_materials_specular":{
					"specularFactor":0
				},
				"KHR_materials_ior":{
					"ior":1.4500000476837158
				}
			},
			"name":"MI_Trim_01",
			"normalTexture":{
				"index":3
			},
			"pbrMetallicRoughness":{
				"baseColorTexture":{
					"index":4
				},
				"metallicRoughnessTexture":{
					"index":5
				}
			}
		},
		{
			"doubleSided":true,
			"name":"M_Glass",
			"pbrMetallicRoughness":{
				"baseColorFactor":[
					0.800000011920929,
					0.800000011920929,
					0.800000011920929,
					1
				],
				"metallicFactor":0,
				"roughnessFactor":0.5
			}
		},
		{
			"doubleSided":true,
			"extensions":{
				"KHR_materials_specular":{
					"specularFactor":0
				},
				"KHR_materials_ior":{
					"ior":1.4500000476837158
				}
			},
			"name":"MI_PaddedWall",
			"normalTexture":{
				"index":6
			},
			"pbrMetallicRoughness":{
				"baseColorTexture":{
					"index":7
				},
				"metallicRoughnessTexture":{
					"index":8
				}
			}
		},
		{
			"doubleSided":true,
			"name":"Collision",
			"pbrMetallicRoughness":{
				"baseColorFactor":[
					0.11006110906600952,
					0.2556236684322357,
					0.8000785112380981,
					1
				],
				"metallicFactor":0,
				"roughnessFactor":0.5
			}
		}
	],
	"meshes":[
		{
			"name":"Plane.113",
			"primitives":[
				{
					"attributes":{
						"POSITION":0,
						"NORMAL":1,
						"TEXCOORD_0":2
					},
					"indices":3,
					"material":0
				},
				{
					"attributes":{
						"POSITION":4,
						"NORMAL":5,
						"TEXCOORD_0":6
					},
					"indices":7,
					"material":1
				},
				{
					"attributes":{
						"POSITION":8,
						"NORMAL":9,
						"TEXCOORD_0":10
					},
					"indices":11,
					"material":2
				},
				{
					"attributes":{
						"POSITION":12,
						"NORMAL":13,
						"TEXCOORD_0":14
					},
					"indices":15,
					"material":3
				}
			]
		},
		{
			"name":"Cube.106",
			"primitives":[
				{
					"attributes":{
						"POSITION":16,
						"NORMAL":17,
						"TEXCOORD_0":18
					},
					"indices":19,
					"material":4
				}
			]
		},
		{
			"name":"Cube.107",
			"primitives":[
				{
					"attributes":{
						"POSITION":20,
						"NORMAL":21,
						"TEXCOORD_0":22
					},
					"indices":23,
					"material":4
				}
			]
		},
		{
			"name":"Cube.108",
			"primitives":[
				{
					"attributes":{
						"POSITION":24,
						"NORMAL":25,
						"TEXCOORD_0":26
					},
					"indices":27,
					"material":4
				}
			]
		},
		{
			"name":"Cube.109",
			"primitives":[
				{
					"attributes":{
						"POSITION":28,
						"NORMAL":29,
						"TEXCOORD_0":30
					},
					"indices":31,
					"material":4
				}
			]
		},
		{
			"name":"Cube.110",
			"primitives":[
				{
					"attributes":{
						"POSITION":32,
						"NORMAL":33,
						"TEXCOORD_0":34
					},
					"indices":35,
					"material":4
				}
			]
		}
	],
	"textures":[
		{
			"sampler":0,
			"source":0
		},
		{
			"sampler":0,
			"source":1
		},
		{
			"sampler":0,
			"source":2
		},
		{
			"sampler":0,
			"source":3
		},
		{
			"sampler":0,
			"source":4
		},
		{
			"sampler":0,
			"source":5
		},
		{
			"sampler":0,
			"source":6
		},
		{
			"sampler":0,
			"source":7
		},
		{
			"sampler":0,
			"source":8
		}
	],
	"images":[
		{
			"mimeType":"image/png",
			"name":"T_Trim_02_Normal",
			"uri":"T_Trim_02_Normal.png"
		},
		{
			"mimeType":"image/png",
			"name":"T_Trim_02_BaseColor_Red",
			"uri":"T_Trim_02_BaseColor_Red.png"
		},
		{
			"mimeType":"image/png",
			"name":"T_Trim_02_ORM",
			"uri":"T_Trim_02_ORM.png"
		},
		{
			"mimeType":"image/png",
			"name":"T_Trim_01_Normal",
			"uri":"T_Trim_01_Normal.png"
		},
		{
			"mimeType":"image/png",
			"name":"T_Trim_01_BaseColor_Red",
			"uri":"T_Trim_01_BaseColor_Red.png"
		},
		{
			"mimeType":"image/png",
			"name":"T_Trim_01_ORM",
			"uri":"T_Trim_01_ORM.png"
		},
		{
			"mimeType":"image/png",
			"name":"T_PaddedWall_Normal",
			"uri":"T_PaddedWall_Normal.png"
		},
		{
			"mimeType":"image/png",
			"name":"T_PaddedWall_BaseColor",
			"uri":"T_PaddedWall_BaseColor.png"
		},
		{
			"mimeType":"image/png",
			"name":"T_PaddedWall_ORM",
			"uri":"T_PaddedWall_ORM.png"
		}
	],
	"accessors":[
		{
			"bufferView":0,
			"componentType":5126,
			"count":821,
			"max":[
				1.7856816612038529e-06,
				3.1691131591796875,
				-2.0722845874843188e-05
			],
			"min":[
				-4.200000286102295,
				0.7999997138977051,
				-4.200000286102295
			],
			"type":"VEC3"
		},
		{
			"bufferView":1,
			"componentType":5126,
			"count":821,
			"type":"VEC3"
		},
		{
			"bufferView":2,
			"componentType":5126,
			"count":821,
			"type":"VEC2"
		},
		{
			"bufferView":3,
			"componentType":5123,
			"count":2268,
			"type":"SCALAR"
		},
		{
			"bufferView":4,
			"componentType":5126,
			"count":88,
			"max":[
				1.368533844470221e-06,
				1.2689471244812012,
				-2.033376949839294e-05
			],
			"min":[
				-4.200000286102295,
				-3.2584125619905535e-07,
				-4.200000286102295
			],
			"type":"VEC3"
		},
		{
			"bufferView":5,
			"componentType":5126,
			"count":88,
			"type":"VEC3"
		},
		{
			"bufferView":6,
			"componentType":5126,
			"count":88,
			"type":"VEC2"
		},
		{
			"bufferView":7,
			"componentType":5123,
			"count":246,
			"type":"SCALAR"
		},
		{
			"bufferView":8,
			"componentType":5126,
			"count":36,
			"max":[
				1.4073633565203636e-06,
				3.000150680541992,
				-2.2592590539716184e-05
			],
			"min":[
				-4.068199157714844,
				0.9999997615814209,
				-4.0681986808776855
			],
			"type":"VEC3"
		},
		{
			"bufferView":9,
			"componentType":5126,
			"count":36,
			"type":"VEC3"
		},
		{
			"bufferView":10,
			"componentType":5126,
			"count":36,
			"type":"VEC2"
		},
		{
			"bufferView":11,
			"componentType":5123,
			"count":96,
			"type":"SCALAR"
		},
		{
			"bufferView":12,
			"componentType":5126,
			"count":298,
			"max":[
				1.7856816612038529e-06,
				3.000000476837158,
				-2.219710950157605e-05
			],
			"min":[
				-3.996279716491699,
				1.0007429122924805,
				-3.996279716491699
			],
			"type":"VEC3"
		},
		{
			"bufferView":13,
			"componentType":5126,
			"count":298,
			"type":"VEC3"
		},
		{
			"bufferView":14,
			"componentType":5126,
			"count":298,
			"type":"VEC2"
		},
		{
			"bufferView":15,
			"componentType":5123,
			"count":1056,
			"type":"SCALAR"
		},
		{
			"bufferView":16,
			"componentType":5126,
			"count":24,
			"max":[
				-1.2360681295394897,
				3,
				-3.2360682487487793
			],
			"min":[
				-2.468698501586914,
				0,
				-3.9944379329681396
			],
			"type":"VEC3"
		},
		{
			"bufferView":17,
			"componentType":5126,
			"count":24,
			"type":"VEC3"
		},
		{
			"bufferView":18,
			"componentType":5126,
			"count":24,
			"type":"VEC2"
		},
		{
			"bufferView":19,
			"componentType":5123,
			"count":36,
			"type":"SCALAR"
		},
		{
			"bufferView":20,
			"componentType":5126,
			"count":24,
			"max":[
				-3.8042261600494385,
				3,
				0
			],
			"min":[
				-4.199999809265137,
				0,
				-1.2978713512420654
			],
			"type":"VEC3"
		},
		{
			"bufferView":21,
			"componentType":5126,
			"count":24,
			"type":"VEC3"
		},
		{
			"bufferView":22,
			"componentType":5126,
			"count":24,
			"type":"VEC2"
		},
		{
			"bufferView":23,
			"componentType":5123,
			"count":36,
			"type":"SCALAR"
		},
		{
			"bufferView":24,
			"componentType":5126,
			"count":24,
			"max":[
				-3.2360682487487793,
				3,
				-1.2360680103302002
			],
			"min":[
				-3.9944376945495605,
				0,
				-2.468698263168335
			],
			"type":"VEC3"
		},
		{
			"bufferView":25,
			"componentType":5126,
			"count":24,
			"type":"VEC3"
		},
		{
			"bufferView":26,
			"componentType":5126,
			"count":24,
			"type":"VEC2"
		},
		{
			"bufferView":27,
			"componentType":5123,
			"count":36,
			"type":"SCALAR"
		},
		{
			"bufferView":28,
			"componentType":5126,
			"count":24,
			"max":[
				-2.3511412143707275,
				3,
				-2.3511409759521484
			],
			"min":[
				-3.397871732711792,
				0,
				-3.397871732711792
			],
			"type":"VEC3"
		},
		{
			"bufferView":29,
			"componentType":5126,
			"count":24,
			"type":"VEC3"
		},
		{
			"bufferView":30,
			"componentType":5126,
			"count":24,
			"type":"VEC2"
		},
		{
			"bufferView":31,
			"componentType":5123,
			"count":36,
			"type":"SCALAR"
		},
		{
			"bufferView":32,
			"componentType":5126,
			"count":24,
			"max":[
				0,
				3,
				-3.8042263984680176
			],
			"min":[
				-1.2978715896606445,
				0,
				-4.200000762939453
			],
			"type":"VEC3"
		},
		{
			"bufferView":33,
			"componentType":5126,
			"count":24,
			"type":"VEC3"
		},
		{
			"bufferView":34,
			"componentType":5126,
			"count":24,
			"type":"VEC2"
		},
		{
			"bufferView":35,
			"componentType":5123,
			"count":36,
			"type":"SCALAR"
		}
	],
	"bufferViews":[
		{
			"buffer":0,
			"byteLength":9852,
			"byteOffset":0,
			"target":34962
		},
		{
			"buffer":0,
			"byteLength":9852,
			"byteOffset":9852,
			"target":34962
		},
		{
			"buffer":0,
			"byteLength":6568,
			"byteOffset":19704,
			"target":34962
		},
		{
			"buffer":0,
			"byteLength":4536,
			"byteOffset":26272,
			"target":34963
		},
		{
			"buffer":0,
			"byteLength":1056,
			"byteOffset":30808,
			"target":34962
		},
		{
			"buffer":0,
			"byteLength":1056,
			"byteOffset":31864,
			"target":34962
		},
		{
			"buffer":0,
			"byteLength":704,
			"byteOffset":32920,
			"target":34962
		},
		{
			"buffer":0,
			"byteLength":492,
			"byteOffset":33624,
			"target":34963
		},
		{
			"buffer":0,
			"byteLength":432,
			"byteOffset":34116,
			"target":34962
		},
		{
			"buffer":0,
			"byteLength":432,
			"byteOffset":34548,
			"target":34962
		},
		{
			"buffer":0,
			"byteLength":288,
			"byteOffset":34980,
			"target":34962
		},
		{
			"buffer":0,
			"byteLength":192,
			"byteOffset":35268,
			"target":34963
		},
		{
			"buffer":0,
			"byteLength":3576,
			"byteOffset":35460,
			"target":34962
		},
		{
			"buffer":0,
			"byteLength":3576,
			"byteOffset":39036,
			"target":34962
		},
		{
			"buffer":0,
			"byteLength":2384,
			"byteOffset":42612,
			"target":34962
		},
		{
			"buffer":0,
			"byteLength":2112,
			"byteOffset":44996,
			"target":34963
		},
		{
			"buffer":0,
			"byteLength":288,
			"byteOffset":47108,
			"target":34962
		},
		{
			"buffer":0,
			"byteLength":288,
			"byteOffset":47396,
			"target":34962
		},
		{
			"buffer":0,
			"byteLength":192,
			"byteOffset":47684,
			"target":34962
		},
		{
			"buffer":0,
			"byteLength":72,
			"byteOffset":47876,
			"target":34963
		},
		{
			"buffer":0,
			"byteLength":288,
			"byteOffset":47948,
			"target":34962
		},
		{
			"buffer":0,
			"byteLength":288,
			"byteOffset":48236,
			"target":34962
		},
		{
			"buffer":0,
			"byteLength":192,
			"byteOffset":48524,
			"target":34962
		},
		{
			"buffer":0,
			"byteLength":72,
			"byteOffset":48716,
			"target":34963
		},
		{
			"buffer":0,
			"byteLength":288,
			"byteOffset":48788,
			"target":34962
		},
		{
			"buffer":0,
			"byteLength":288,
			"byteOffset":49076,
			"target":34962
		},
		{
			"buffer":0,
			"byteLength":192,
			"byteOffset":49364,
			"target":34962
		},
		{
			"buffer":0,
			"byteLength":72,
			"byteOffset":49556,
			"target":34963
		},
		{
			"buffer":0,
			"byteLength":288,
			"byteOffset":49628,
			"target":34962
		},
		{
			"buffer":0,
			"byteLength":288,
			"byteOffset":49916,
			"target":34962
		},
		{
			"buffer":0,
			"byteLength":192,
			"byteOffset":50204,
			"target":34962
		},
		{
			"buffer":0,
			"byteLength":72,
			"byteOffset":50396,
			"target":34963
		},
		{
			"buffer":0,
			"byteLength":288,
			"byteOffset":50468,
			"target":34962
		},
		{
			"buffer":0,
			"byteLength":288,
			"byteOffset":50756,
			"target":34962
		},
		{
			"buffer":0,
			"byteLength":192,
			"byteOffset":51044,
			"target":34962
		},
		{
			"buffer":0,
			"byteLength":72,
			"byteOffset":51236,
			"target":34963
		}
	],
	"samplers":[
		{
			"magFilter":9729,
			"minFilter":9987
		}
	],
	"buffers":[
		{
			"byteLength":51308,
			"uri":"WallWindow_Corner_Round_Inner.bin"
		}
	]
}
