{
	"asset":{
		"generator":"Khronos glTF Blender I/O v4.0.44",
		"version":"2.0"
	},
	"extensionsUsed":[
		"KHR_materials_specular",
		"KHR_materials_ior"
	],
	"scene":0,
	"scenes":[
		{
			"name":"Scene",
			"nodes":[
				0,
				1,
				2,
				3,
				4,
				5,
				6,
				7
			]
		}
	],
	"nodes":[
		{
			"mesh":0,
			"name":"WallPadded_Curve_Round_Inner"
		},
		{
			"mesh":1,
			"name":"WallPadded_Curve_Round_Inner_01_convcolonly"
		},
		{
			"mesh":2,
			"name":"WallPadded_Curve_Round_Inner_02_convcolonly"
		},
		{
			"mesh":3,
			"name":"WallPadded_Curve_Round_Inner_03_convcolonly"
		},
		{
			"mesh":4,
			"name":"WallPadded_Curve_Round_Inner_04_convcolonly"
		},
		{
			"mesh":5,
			"name":"WallPadded_Curve_Round_Inner_05_convcolonly"
		},
		{
			"mesh":6,
			"name":"WallPadded_Curve_Round_Inner_06_convcolonly"
		},
		{
			"mesh":7,
			"name":"WallPadded_Curve_Round_Inner_07_convcolonly"
		}
	],
	"materials":[
		{
			"doubleSided":true,
			"name":"MI_Trim_03",
			"normalTexture":{
				"index":0
			},
			"pbrMetallicRoughness":{
				"baseColorTexture":{
					"index":1
				},
				"metallicRoughnessTexture":{
					"index":2
				}
			}
		},
		{
			"doubleSided":true,
			"extensions":{
				"KHR_materials_specular":{
					"specularFactor":0
				},
				"KHR_materials_ior":{
					"ior":1.4500000476837158
				}
			},
			"name":"MI_Trim_01",
			"normalTexture":{
				"index":3
			},
			"pbrMetallicRoughness":{
				"baseColorTexture":{
					"index":4
				},
				"metallicRoughnessTexture":{
					"index":5
				}
			}
		},
		{
			"doubleSided":true,
			"name":"MI_Trim_02",
			"normalTexture":{
				"index":6
			},
			"pbrMetallicRoughness":{
				"baseColorTexture":{
					"index":7
				},
				"metallicRoughnessTexture":{
					"index":8
				}
			}
		},
		{
			"doubleSided":true,
			"name":"MI_Trim_03_Dark",
			"normalTexture":{
				"index":9
			},
			"pbrMetallicRoughness":{
				"baseColorTexture":{
					"index":10
				},
				"metallicRoughnessTexture":{
					"index":11
				}
			}
		},
		{
			"doubleSided":true,
			"extensions":{
				"KHR_materials_specular":{
					"specularFactor":0
				},
				"KHR_materials_ior":{
					"ior":1.4500000476837158
				}
			},
			"name":"MI_PaddedWall",
			"normalTexture":{
				"index":12
			},
			"pbrMetallicRoughness":{
				"baseColorTexture":{
					"index":13
				},
				"metallicRoughnessTexture":{
					"index":14
				}
			}
		},
		{
			"doubleSided":true,
			"name":"Collision",
			"pbrMetallicRoughness":{
				"baseColorFactor":[
					0.11006110906600952,
					0.2556236684322357,
					0.8000785112380981,
					1
				],
				"metallicFactor":0,
				"roughnessFactor":0.5
			}
		}
	],
	"meshes":[
		{
			"name":"Plane.182",
			"primitives":[
				{
					"attributes":{
						"POSITION":0,
						"NORMAL":1,
						"TEXCOORD_0":2
					},
					"indices":3,
					"material":0
				},
				{
					"attributes":{
						"POSITION":4,
						"NORMAL":5,
						"TEXCOORD_0":6
					},
					"indices":7,
					"material":1
				},
				{
					"attributes":{
						"POSITION":8,
						"NORMAL":9,
						"TEXCOORD_0":10
					},
					"indices":11,
					"material":2
				},
				{
					"attributes":{
						"POSITION":12,
						"NORMAL":13,
						"TEXCOORD_0":14
					},
					"indices":15,
					"material":3
				},
				{
					"attributes":{
						"POSITION":16,
						"NORMAL":17,
						"TEXCOORD_0":18
					},
					"indices":19,
					"material":4
				}
			]
		},
		{
			"name":"Cube.123",
			"primitives":[
				{
					"attributes":{
						"POSITION":20,
						"NORMAL":21,
						"TEXCOORD_0":22
					},
					"indices":23
				}
			]
		},
		{
			"name":"Cube.124",
			"primitives":[
				{
					"attributes":{
						"POSITION":24,
						"NORMAL":25,
						"TEXCOORD_0":26
					},
					"indices":27
				}
			]
		},
		{
			"name":"Cube.125",
			"primitives":[
				{
					"attributes":{
						"POSITION":28,
						"NORMAL":29,
						"TEXCOORD_0":30
					},
					"indices":31,
					"material":5
				}
			]
		},
		{
			"name":"Cube.126",
			"primitives":[
				{
					"attributes":{
						"POSITION":32,
						"NORMAL":33,
						"TEXCOORD_0":34
					},
					"indices":35,
					"material":5
				}
			]
		},
		{
			"name":"Cube.127",
			"primitives":[
				{
					"attributes":{
						"POSITION":36,
						"NORMAL":37,
						"TEXCOORD_0":38
					},
					"indices":39,
					"material":5
				}
			]
		},
		{
			"name":"Cube.128",
			"primitives":[
				{
					"attributes":{
						"POSITION":40,
						"NORMAL":41,
						"TEXCOORD_0":42
					},
					"indices":43,
					"material":5
				}
			]
		},
		{
			"name":"Cube.129",
			"primitives":[
				{
					"attributes":{
						"POSITION":44,
						"NORMAL":45,
						"TEXCOORD_0":46
					},
					"indices":47,
					"material":5
				}
			]
		}
	],
	"textures":[
		{
			"sampler":0,
			"source":0
		},
		{
			"sampler":0,
			"source":1
		},
		{
			"sampler":0,
			"source":2
		},
		{
			"sampler":0,
			"source":3
		},
		{
			"sampler":0,
			"source":4
		},
		{
			"sampler":0,
			"source":5
		},
		{
			"sampler":0,
			"source":6
		},
		{
			"sampler":0,
			"source":7
		},
		{
			"sampler":0,
			"source":8
		},
		{
			"sampler":0,
			"source":0
		},
		{
			"sampler":0,
			"source":9
		},
		{
			"sampler":0,
			"source":2
		},
		{
			"sampler":0,
			"source":10
		},
		{
			"sampler":0,
			"source":11
		},
		{
			"sampler":0,
			"source":12
		}
	],
	"images":[
		{
			"mimeType":"image/png",
			"name":"T_Trim_03_Normal",
			"uri":"T_Trim_03_Normal.png"
		},
		{
			"mimeType":"image/png",
			"name":"T_Trim_03_BaseColor",
			"uri":"T_Trim_03_BaseColor.png"
		},
		{
			"mimeType":"image/png",
			"name":"T_Trim_03_ORM",
			"uri":"T_Trim_03_ORM.png"
		},
		{
			"mimeType":"image/png",
			"name":"T_Trim_01_Normal",
			"uri":"T_Trim_01_Normal.png"
		},
		{
			"mimeType":"image/png",
			"name":"T_Trim_01_BaseColor_Red",
			"uri":"T_Trim_01_BaseColor_Red.png"
		},
		{
			"mimeType":"image/png",
			"name":"T_Trim_01_ORM",
			"uri":"T_Trim_01_ORM.png"
		},
		{
			"mimeType":"image/png",
			"name":"T_Trim_02_Normal",
			"uri":"T_Trim_02_Normal.png"
		},
		{
			"mimeType":"image/png",
			"name":"T_Trim_02_BaseColor_Red",
			"uri":"T_Trim_02_BaseColor_Red.png"
		},
		{
			"mimeType":"image/png",
			"name":"T_Trim_02_ORM",
			"uri":"T_Trim_02_ORM.png"
		},
		{
			"mimeType":"image/png",
			"name":"T_Trim_03_Cables",
			"uri":"T_Trim_03_Cables.png"
		},
		{
			"mimeType":"image/png",
			"name":"T_PaddedWall_Normal",
			"uri":"T_PaddedWall_Normal.png"
		},
		{
			"mimeType":"image/png",
			"name":"T_PaddedWall_BaseColor",
			"uri":"T_PaddedWall_BaseColor.png"
		},
		{
			"mimeType":"image/png",
			"name":"T_PaddedWall_ORM",
			"uri":"T_PaddedWall_ORM.png"
		}
	],
	"accessors":[
		{
			"bufferView":0,
			"componentType":5126,
			"count":361,
			"max":[
				1.771691700014344e-06,
				3.021496057510376,
				-2.0620645955204964e-05
			],
			"min":[
				-4.465093612670898,
				0.19871610403060913,
				-4.468453407287598
			],
			"type":"VEC3"
		},
		{
			"bufferView":1,
			"componentType":5126,
			"count":361,
			"type":"VEC3"
		},
		{
			"bufferView":2,
			"componentType":5126,
			"count":361,
			"type":"VEC2"
		},
		{
			"bufferView":3,
			"componentType":5123,
			"count":1050,
			"type":"SCALAR"
		},
		{
			"bufferView":4,
			"componentType":5126,
			"count":80,
			"max":[
				1.9457590383353818e-07,
				2.7486703395843506,
				0
			],
			"min":[
				-4.451377868652344,
				0.006236672401428223,
				-4.451377868652344
			],
			"type":"VEC3"
		},
		{
			"bufferView":5,
			"componentType":5126,
			"count":80,
			"type":"VEC3"
		},
		{
			"bufferView":6,
			"componentType":5126,
			"count":80,
			"type":"VEC2"
		},
		{
			"bufferView":7,
			"componentType":5123,
			"count":168,
			"type":"SCALAR"
		},
		{
			"bufferView":8,
			"componentType":5126,
			"count":166,
			"max":[
				1.5473476651095552e-06,
				3.0000007152557373,
				0
			],
			"min":[
				-4.451377868652344,
				-0.0064650774002075195,
				-4.451377868652344
			],
			"type":"VEC3"
		},
		{
			"bufferView":9,
			"componentType":5126,
			"count":166,
			"type":"VEC3"
		},
		{
			"bufferView":10,
			"componentType":5126,
			"count":166,
			"type":"VEC2"
		},
		{
			"bufferView":11,
			"componentType":5123,
			"count":468,
			"type":"SCALAR"
		},
		{
			"bufferView":12,
			"componentType":5126,
			"count":162,
			"max":[
				1.3915489489590982e-06,
				0.8202562928199768,
				-2.2236810764297843e-05
			],
			"min":[
				-4.124267578125,
				-2.564870555943344e-07,
				-4.124266624450684
			],
			"type":"VEC3"
		},
		{
			"bufferView":13,
			"componentType":5126,
			"count":162,
			"type":"VEC3"
		},
		{
			"bufferView":14,
			"componentType":5126,
			"count":162,
			"type":"VEC2"
		},
		{
			"bufferView":15,
			"componentType":5123,
			"count":576,
			"type":"SCALAR"
		},
		{
			"bufferView":16,
			"componentType":5126,
			"count":392,
			"max":[
				-0.008824835531413555,
				2.7486705780029297,
				-0.0059095644392073154
			],
			"min":[
				-4.4379096031188965,
				0.9072249531745911,
				-4.437909126281738
			],
			"type":"VEC3"
		},
		{
			"bufferView":17,
			"componentType":5126,
			"count":392,
			"type":"VEC3"
		},
		{
			"bufferView":18,
			"componentType":5126,
			"count":392,
			"type":"VEC2"
		},
		{
			"bufferView":19,
			"componentType":5123,
			"count":1848,
			"type":"SCALAR"
		},
		{
			"bufferView":20,
			"componentType":5126,
			"count":24,
			"max":[
				-3.157048225402832,
				3,
				-1.1845475435256958
			],
			"min":[
				-3.9190878868103027,
				0,
				-1.7618716955184937
			],
			"type":"VEC3"
		},
		{
			"bufferView":21,
			"componentType":5126,
			"count":24,
			"type":"VEC3"
		},
		{
			"bufferView":22,
			"componentType":5126,
			"count":24,
			"type":"VEC2"
		},
		{
			"bufferView":23,
			"componentType":5123,
			"count":36,
			"type":"SCALAR"
		},
		{
			"bufferView":24,
			"componentType":5126,
			"count":24,
			"max":[
				-1.1773533821105957,
				3,
				-3.1612610816955566
			],
			"min":[
				-1.7499111890792847,
				0,
				-3.922821044921875
			],
			"type":"VEC3"
		},
		{
			"bufferView":25,
			"componentType":5126,
			"count":24,
			"type":"VEC3"
		},
		{
			"bufferView":26,
			"componentType":5126,
			"count":24,
			"type":"VEC2"
		},
		{
			"bufferView":27,
			"componentType":5123,
			"count":36,
			"type":"SCALAR"
		},
		{
			"bufferView":28,
			"componentType":5126,
			"count":24,
			"max":[
				-1.2360681295394897,
				3,
				-3.2360682487487793
			],
			"min":[
				-2.468698501586914,
				0,
				-3.9944379329681396
			],
			"type":"VEC3"
		},
		{
			"bufferView":29,
			"componentType":5126,
			"count":24,
			"type":"VEC3"
		},
		{
			"bufferView":30,
			"componentType":5126,
			"count":24,
			"type":"VEC2"
		},
		{
			"bufferView":31,
			"componentType":5123,
			"count":36,
			"type":"SCALAR"
		},
		{
			"bufferView":32,
			"componentType":5126,
			"count":24,
			"max":[
				-3.8042261600494385,
				3,
				0
			],
			"min":[
				-4.199999809265137,
				0,
				-1.2978713512420654
			],
			"type":"VEC3"
		},
		{
			"bufferView":33,
			"componentType":5126,
			"count":24,
			"type":"VEC3"
		},
		{
			"bufferView":34,
			"componentType":5126,
			"count":24,
			"type":"VEC2"
		},
		{
			"bufferView":35,
			"componentType":5123,
			"count":36,
			"type":"SCALAR"
		},
		{
			"bufferView":36,
			"componentType":5126,
			"count":24,
			"max":[
				-3.2360682487487793,
				3,
				-1.2360680103302002
			],
			"min":[
				-3.9944376945495605,
				0,
				-2.468698263168335
			],
			"type":"VEC3"
		},
		{
			"bufferView":37,
			"componentType":5126,
			"count":24,
			"type":"VEC3"
		},
		{
			"bufferView":38,
			"componentType":5126,
			"count":24,
			"type":"VEC2"
		},
		{
			"bufferView":39,
			"componentType":5123,
			"count":36,
			"type":"SCALAR"
		},
		{
			"bufferView":40,
			"componentType":5126,
			"count":24,
			"max":[
				-2.3511412143707275,
				3,
				-2.3511409759521484
			],
			"min":[
				-3.397871732711792,
				0,
				-3.397871732711792
			],
			"type":"VEC3"
		},
		{
			"bufferView":41,
			"componentType":5126,
			"count":24,
			"type":"VEC3"
		},
		{
			"bufferView":42,
			"componentType":5126,
			"count":24,
			"type":"VEC2"
		},
		{
			"bufferView":43,
			"componentType":5123,
			"count":36,
			"type":"SCALAR"
		},
		{
			"bufferView":44,
			"componentType":5126,
			"count":24,
			"max":[
				0,
				3,
				-3.8042263984680176
			],
			"min":[
				-1.2978715896606445,
				0,
				-4.200000762939453
			],
			"type":"VEC3"
		},
		{
			"bufferView":45,
			"componentType":5126,
			"count":24,
			"type":"VEC3"
		},
		{
			"bufferView":46,
			"componentType":5126,
			"count":24,
			"type":"VEC2"
		},
		{
			"bufferView":47,
			"componentType":5123,
			"count":36,
			"type":"SCALAR"
		}
	],
	"bufferViews":[
		{
			"buffer":0,
			"byteLength":4332,
			"byteOffset":0,
			"target":34962
		},
		{
			"buffer":0,
			"byteLength":4332,
			"byteOffset":4332,
			"target":34962
		},
		{
			"buffer":0,
			"byteLength":2888,
			"byteOffset":8664,
			"target":34962
		},
		{
			"buffer":0,
			"byteLength":2100,
			"byteOffset":11552,
			"target":34963
		},
		{
			"buffer":0,
			"byteLength":960,
			"byteOffset":13652,
			"target":34962
		},
		{
			"buffer":0,
			"byteLength":960,
			"byteOffset":14612,
			"target":34962
		},
		{
			"buffer":0,
			"byteLength":640,
			"byteOffset":15572,
			"target":34962
		},
		{
			"buffer":0,
			"byteLength":336,
			"byteOffset":16212,
			"target":34963
		},
		{
			"buffer":0,
			"byteLength":1992,
			"byteOffset":16548,
			"target":34962
		},
		{
			"buffer":0,
			"byteLength":1992,
			"byteOffset":18540,
			"target":34962
		},
		{
			"buffer":0,
			"byteLength":1328,
			"byteOffset":20532,
			"target":34962
		},
		{
			"buffer":0,
			"byteLength":936,
			"byteOffset":21860,
			"target":34963
		},
		{
			"buffer":0,
			"byteLength":1944,
			"byteOffset":22796,
			"target":34962
		},
		{
			"buffer":0,
			"byteLength":1944,
			"byteOffset":24740,
			"target":34962
		},
		{
			"buffer":0,
			"byteLength":1296,
			"byteOffset":26684,
			"target":34962
		},
		{
			"buffer":0,
			"byteLength":1152,
			"byteOffset":27980,
			"target":34963
		},
		{
			"buffer":0,
			"byteLength":4704,
			"byteOffset":29132,
			"target":34962
		},
		{
			"buffer":0,
			"byteLength":4704,
			"byteOffset":33836,
			"target":34962
		},
		{
			"buffer":0,
			"byteLength":3136,
			"byteOffset":38540,
			"target":34962
		},
		{
			"buffer":0,
			"byteLength":3696,
			"byteOffset":41676,
			"target":34963
		},
		{
			"buffer":0,
			"byteLength":288,
			"byteOffset":45372,
			"target":34962
		},
		{
			"buffer":0,
			"byteLength":288,
			"byteOffset":45660,
			"target":34962
		},
		{
			"buffer":0,
			"byteLength":192,
			"byteOffset":45948,
			"target":34962
		},
		{
			"buffer":0,
			"byteLength":72,
			"byteOffset":46140,
			"target":34963
		},
		{
			"buffer":0,
			"byteLength":288,
			"byteOffset":46212,
			"target":34962
		},
		{
			"buffer":0,
			"byteLength":288,
			"byteOffset":46500,
			"target":34962
		},
		{
			"buffer":0,
			"byteLength":192,
			"byteOffset":46788,
			"target":34962
		},
		{
			"buffer":0,
			"byteLength":72,
			"byteOffset":46980,
			"target":34963
		},
		{
			"buffer":0,
			"byteLength":288,
			"byteOffset":47052,
			"target":34962
		},
		{
			"buffer":0,
			"byteLength":288,
			"byteOffset":47340,
			"target":34962
		},
		{
			"buffer":0,
			"byteLength":192,
			"byteOffset":47628,
			"target":34962
		},
		{
			"buffer":0,
			"byteLength":72,
			"byteOffset":47820,
			"target":34963
		},
		{
			"buffer":0,
			"byteLength":288,
			"byteOffset":47892,
			"target":34962
		},
		{
			"buffer":0,
			"byteLength":288,
			"byteOffset":48180,
			"target":34962
		},
		{
			"buffer":0,
			"byteLength":192,
			"byteOffset":48468,
			"target":34962
		},
		{
			"buffer":0,
			"byteLength":72,
			"byteOffset":48660,
			"target":34963
		},
		{
			"buffer":0,
			"byteLength":288,
			"byteOffset":48732,
			"target":34962
		},
		{
			"buffer":0,
			"byteLength":288,
			"byteOffset":49020,
			"target":34962
		},
		{
			"buffer":0,
			"byteLength":192,
			"byteOffset":49308,
			"target":34962
		},
		{
			"buffer":0,
			"byteLength":72,
			"byteOffset":49500,
			"target":34963
		},
		{
			"buffer":0,
			"byteLength":288,
			"byteOffset":49572,
			"target":34962
		},
		{
			"buffer":0,
			"byteLength":288,
			"byteOffset":49860,
			"target":34962
		},
		{
			"buffer":0,
			"byteLength":192,
			"byteOffset":50148,
			"target":34962
		},
		{
			"buffer":0,
			"byteLength":72,
			"byteOffset":50340,
			"target":34963
		},
		{
			"buffer":0,
			"byteLength":288,
			"byteOffset":50412,
			"target":34962
		},
		{
			"buffer":0,
			"byteLength":288,
			"byteOffset":50700,
			"target":34962
		},
		{
			"buffer":0,
			"byteLength":192,
			"byteOffset":50988,
			"target":34962
		},
		{
			"buffer":0,
			"byteLength":72,
			"byteOffset":51180,
			"target":34963
		}
	],
	"samplers":[
		{
			"magFilter":9729,
			"minFilter":9987
		}
	],
	"buffers":[
		{
			"byteLength":51252,
			"uri":"WallPadded_Curve_Round_Inner.bin"
		}
	]
}
