{
	"asset":{
		"generator":"Khronos glTF Blender I/O v4.0.44",
		"version":"2.0"
	},
	"extensionsUsed":[
		"KHR_materials_specular",
		"KHR_materials_ior"
	],
	"scene":0,
	"scenes":[
		{
			"name":"Scene",
			"nodes":[
				0,
				1
			]
		}
	],
	"nodes":[
		{
			"mesh":0,
			"name":"Column_MetalSupports"
		},
		{
			"mesh":1,
			"name":"Column_MetalSupports_1_convcolonly"
		}
	],
	"materials":[
		{
			"doubleSided":true,
			"extensions":{
				"KHR_materials_specular":{
					"specularFactor":0
				},
				"KHR_materials_ior":{
					"ior":1.4500000476837158
				}
			},
			"name":"MI_PaddedWall",
			"normalTexture":{
				"index":0
			},
			"pbrMetallicRoughness":{
				"baseColorTexture":{
					"index":1
				},
				"metallicRoughnessTexture":{
					"index":2
				}
			}
		},
		{
			"doubleSided":true,
			"name":"MI_Trim_02",
			"normalTexture":{
				"index":3
			},
			"pbrMetallicRoughness":{
				"baseColorTexture":{
					"index":4
				},
				"metallicRoughnessTexture":{
					"index":5
				}
			}
		}
	],
	"meshes":[
		{
			"name":"Plane.010",
			"primitives":[
				{
					"attributes":{
						"POSITION":0,
						"NORMAL":1,
						"TEXCOORD_0":2
					},
					"indices":3,
					"material":0
				},
				{
					"attributes":{
						"POSITION":4,
						"NORMAL":5,
						"TEXCOORD_0":6
					},
					"indices":7,
					"material":1
				}
			]
		},
		{
			"name":"Cube.470",
			"primitives":[
				{
					"attributes":{
						"POSITION":8,
						"NORMAL":9,
						"TEXCOORD_0":10
					},
					"indices":11
				}
			]
		}
	],
	"textures":[
		{
			"sampler":0,
			"source":0
		},
		{
			"sampler":0,
			"source":1
		},
		{
			"sampler":0,
			"source":2
		},
		{
			"sampler":0,
			"source":3
		},
		{
			"sampler":0,
			"source":4
		},
		{
			"sampler":0,
			"source":5
		}
	],
	"images":[
		{
			"mimeType":"image/png",
			"name":"T_PaddedWall_Normal",
			"uri":"T_PaddedWall_Normal.png"
		},
		{
			"mimeType":"image/png",
			"name":"T_PaddedWall_BaseColor",
			"uri":"T_PaddedWall_BaseColor.png"
		},
		{
			"mimeType":"image/png",
			"name":"T_PaddedWall_ORM",
			"uri":"T_PaddedWall_ORM.png"
		},
		{
			"mimeType":"image/png",
			"name":"T_Trim_02_Normal",
			"uri":"T_Trim_02_Normal.png"
		},
		{
			"mimeType":"image/png",
			"name":"T_Trim_02_BaseColor_Red",
			"uri":"T_Trim_02_BaseColor_Red.png"
		},
		{
			"mimeType":"image/png",
			"name":"T_Trim_02_ORM",
			"uri":"T_Trim_02_ORM.png"
		}
	],
	"accessors":[
		{
			"bufferView":0,
			"componentType":5126,
			"count":2184,
			"max":[
				0.43735116720199585,
				5,
				0.43735119700431824
			],
			"min":[
				-0.43727707862854004,
				0,
				-0.43727707862854004
			],
			"type":"VEC3"
		},
		{
			"bufferView":1,
			"componentType":5126,
			"count":2184,
			"type":"VEC3"
		},
		{
			"bufferView":2,
			"componentType":5126,
			"count":2184,
			"type":"VEC2"
		},
		{
			"bufferView":3,
			"componentType":5123,
			"count":7008,
			"type":"SCALAR"
		},
		{
			"bufferView":4,
			"componentType":5126,
			"count":2296,
			"max":[
				0.43735116720199585,
				5,
				0.43735119700431824
			],
			"min":[
				-0.43727707862854004,
				0,
				-0.43727707862854004
			],
			"type":"VEC3"
		},
		{
			"bufferView":5,
			"componentType":5126,
			"count":2296,
			"type":"VEC3"
		},
		{
			"bufferView":6,
			"componentType":5126,
			"count":2296,
			"type":"VEC2"
		},
		{
			"bufferView":7,
			"componentType":5123,
			"count":6456,
			"type":"SCALAR"
		},
		{
			"bufferView":8,
			"componentType":5126,
			"count":24,
			"max":[
				0.45020461082458496,
				5,
				0.45020461082458496
			],
			"min":[
				-0.45020461082458496,
				0,
				-0.45020461082458496
			],
			"type":"VEC3"
		},
		{
			"bufferView":9,
			"componentType":5126,
			"count":24,
			"type":"VEC3"
		},
		{
			"bufferView":10,
			"componentType":5126,
			"count":24,
			"type":"VEC2"
		},
		{
			"bufferView":11,
			"componentType":5123,
			"count":36,
			"type":"SCALAR"
		}
	],
	"bufferViews":[
		{
			"buffer":0,
			"byteLength":26208,
			"byteOffset":0,
			"target":34962
		},
		{
			"buffer":0,
			"byteLength":26208,
			"byteOffset":26208,
			"target":34962
		},
		{
			"buffer":0,
			"byteLength":17472,
			"byteOffset":52416,
			"target":34962
		},
		{
			"buffer":0,
			"byteLength":14016,
			"byteOffset":69888,
			"target":34963
		},
		{
			"buffer":0,
			"byteLength":27552,
			"byteOffset":83904,
			"target":34962
		},
		{
			"buffer":0,
			"byteLength":27552,
			"byteOffset":111456,
			"target":34962
		},
		{
			"buffer":0,
			"byteLength":18368,
			"byteOffset":139008,
			"target":34962
		},
		{
			"buffer":0,
			"byteLength":12912,
			"byteOffset":157376,
			"target":34963
		},
		{
			"buffer":0,
			"byteLength":288,
			"byteOffset":170288,
			"target":34962
		},
		{
			"buffer":0,
			"byteLength":288,
			"byteOffset":170576,
			"target":34962
		},
		{
			"buffer":0,
			"byteLength":192,
			"byteOffset":170864,
			"target":34962
		},
		{
			"buffer":0,
			"byteLength":72,
			"byteOffset":171056,
			"target":34963
		}
	],
	"samplers":[
		{
			"magFilter":9729,
			"minFilter":9987
		}
	],
	"buffers":[
		{
			"byteLength":171128,
			"uri":"Column_MetalSupports.bin"
		}
	]
}
