{
	"asset":{
		"generator":"Khronos glTF Blender I/O v4.0.44",
		"version":"2.0"
	},
	"extensionsUsed":[
		"KHR_materials_specular",
		"KHR_materials_ior"
	],
	"scene":0,
	"scenes":[
		{
			"name":"Scene",
			"nodes":[
				0,
				1,
				2,
				3,
				4,
				5,
				6,
				7,
				8,
				9,
				10
			]
		}
	],
	"nodes":[
		{
			"mesh":0,
			"name":"Column_MetalSupport_Curve"
		},
		{
			"mesh":1,
			"name":"Column_MetalSupport_Curve_06_convcolonly"
		},
		{
			"mesh":2,
			"name":"Column_MetalSupport_Curve_07_convcolonly"
		},
		{
			"mesh":3,
			"name":"Column_MetalSupport_Curve_08_convcolonly"
		},
		{
			"mesh":4,
			"name":"Column_MetalSupport_Curve_09_convcolonly"
		},
		{
			"mesh":5,
			"name":"Column_MetalSupport_Curve_01_convcolonly"
		},
		{
			"mesh":6,
			"name":"Column_MetalSupport_Curve_10_convcolonly"
		},
		{
			"mesh":7,
			"name":"Column_MetalSupport_Curve_02_convcolonly"
		},
		{
			"mesh":8,
			"name":"Column_MetalSupport_Curve_03_convcolonly"
		},
		{
			"mesh":9,
			"name":"Column_MetalSupport_Curve_04_convcolonly"
		},
		{
			"mesh":10,
			"name":"Column_MetalSupport_Curve_05_convcolonly"
		}
	],
	"materials":[
		{
			"doubleSided":true,
			"extensions":{
				"KHR_materials_specular":{
					"specularFactor":0
				},
				"KHR_materials_ior":{
					"ior":1.4500000476837158
				}
			},
			"name":"MI_PaddedWall",
			"normalTexture":{
				"index":0
			},
			"pbrMetallicRoughness":{
				"baseColorTexture":{
					"index":1
				},
				"metallicRoughnessTexture":{
					"index":2
				}
			}
		},
		{
			"doubleSided":true,
			"name":"MI_Trim_02",
			"normalTexture":{
				"index":3
			},
			"pbrMetallicRoughness":{
				"baseColorTexture":{
					"index":4
				},
				"metallicRoughnessTexture":{
					"index":5
				}
			}
		}
	],
	"meshes":[
		{
			"name":"Plane.122",
			"primitives":[
				{
					"attributes":{
						"POSITION":0,
						"NORMAL":1,
						"TEXCOORD_0":2
					},
					"indices":3,
					"material":0
				},
				{
					"attributes":{
						"POSITION":4,
						"NORMAL":5,
						"TEXCOORD_0":6
					},
					"indices":7,
					"material":1
				}
			]
		},
		{
			"name":"Cube.460",
			"primitives":[
				{
					"attributes":{
						"POSITION":8,
						"NORMAL":9,
						"TEXCOORD_0":10
					},
					"indices":11
				}
			]
		},
		{
			"name":"Cube.461",
			"primitives":[
				{
					"attributes":{
						"POSITION":12,
						"NORMAL":13,
						"TEXCOORD_0":14
					},
					"indices":11
				}
			]
		},
		{
			"name":"Cube.462",
			"primitives":[
				{
					"attributes":{
						"POSITION":15,
						"NORMAL":16,
						"TEXCOORD_0":17
					},
					"indices":18
				}
			]
		},
		{
			"name":"Cube.463",
			"primitives":[
				{
					"attributes":{
						"POSITION":19,
						"NORMAL":20,
						"TEXCOORD_0":21
					},
					"indices":18
				}
			]
		},
		{
			"name":"Cube.455",
			"primitives":[
				{
					"attributes":{
						"POSITION":22,
						"NORMAL":23,
						"TEXCOORD_0":24
					},
					"indices":25
				}
			]
		},
		{
			"name":"Cube.464",
			"primitives":[
				{
					"attributes":{
						"POSITION":26,
						"NORMAL":27,
						"TEXCOORD_0":28
					},
					"indices":29
				}
			]
		},
		{
			"name":"Cube.456",
			"primitives":[
				{
					"attributes":{
						"POSITION":30,
						"NORMAL":31,
						"TEXCOORD_0":32
					},
					"indices":11
				}
			]
		},
		{
			"name":"Cube.457",
			"primitives":[
				{
					"attributes":{
						"POSITION":33,
						"NORMAL":34,
						"TEXCOORD_0":35
					},
					"indices":11
				}
			]
		},
		{
			"name":"Cube.458",
			"primitives":[
				{
					"attributes":{
						"POSITION":36,
						"NORMAL":37,
						"TEXCOORD_0":38
					},
					"indices":18
				}
			]
		},
		{
			"name":"Cube.459",
			"primitives":[
				{
					"attributes":{
						"POSITION":39,
						"NORMAL":40,
						"TEXCOORD_0":41
					},
					"indices":18
				}
			]
		}
	],
	"textures":[
		{
			"sampler":0,
			"source":0
		},
		{
			"sampler":0,
			"source":1
		},
		{
			"sampler":0,
			"source":2
		},
		{
			"sampler":0,
			"source":3
		},
		{
			"sampler":0,
			"source":4
		},
		{
			"sampler":0,
			"source":5
		}
	],
	"images":[
		{
			"mimeType":"image/png",
			"name":"T_PaddedWall_Normal",
			"uri":"T_PaddedWall_Normal.png"
		},
		{
			"mimeType":"image/png",
			"name":"T_PaddedWall_BaseColor",
			"uri":"T_PaddedWall_BaseColor.png"
		},
		{
			"mimeType":"image/png",
			"name":"T_PaddedWall_ORM",
			"uri":"T_PaddedWall_ORM.png"
		},
		{
			"mimeType":"image/png",
			"name":"T_Trim_02_Normal",
			"uri":"T_Trim_02_Normal.png"
		},
		{
			"mimeType":"image/png",
			"name":"T_Trim_02_BaseColor_Red",
			"uri":"T_Trim_02_BaseColor_Red.png"
		},
		{
			"mimeType":"image/png",
			"name":"T_Trim_02_ORM",
			"uri":"T_Trim_02_ORM.png"
		}
	],
	"accessors":[
		{
			"bufferView":0,
			"componentType":5126,
			"count":712,
			"max":[
				1.4182734275891562e-06,
				0.022009752690792084,
				1.5711910236859694e-05
			],
			"min":[
				-4.470939636230469,
				-0.02199912816286087,
				-4.470938682556152
			],
			"type":"VEC3"
		},
		{
			"bufferView":1,
			"componentType":5126,
			"count":712,
			"type":"VEC3"
		},
		{
			"bufferView":2,
			"componentType":5126,
			"count":712,
			"type":"VEC2"
		},
		{
			"bufferView":3,
			"componentType":5123,
			"count":2322,
			"type":"SCALAR"
		},
		{
			"bufferView":4,
			"componentType":5126,
			"count":690,
			"max":[
				1.4182734275891562e-06,
				0.022009752690792084,
				1.5711910236859694e-05
			],
			"min":[
				-4.470939636230469,
				-0.02199912816286087,
				-4.470938682556152
			],
			"type":"VEC3"
		},
		{
			"bufferView":5,
			"componentType":5126,
			"count":690,
			"type":"VEC3"
		},
		{
			"bufferView":6,
			"componentType":5126,
			"count":690,
			"type":"VEC2"
		},
		{
			"bufferView":7,
			"componentType":5123,
			"count":1974,
			"type":"SCALAR"
		},
		{
			"bufferView":8,
			"componentType":5126,
			"count":24,
			"max":[
				-3.346252202987671,
				0.025182973593473434,
				-0.5300478935241699
			],
			"min":[
				-4.428757667541504,
				-0.025182973593473434,
				-1.3660157918930054
			],
			"type":"VEC3"
		},
		{
			"bufferView":9,
			"componentType":5126,
			"count":24,
			"type":"VEC3"
		},
		{
			"bufferView":10,
			"componentType":5126,
			"count":24,
			"type":"VEC2"
		},
		{
			"bufferView":11,
			"componentType":5123,
			"count":36,
			"type":"SCALAR"
		},
		{
			"bufferView":12,
			"componentType":5126,
			"count":24,
			"max":[
				-2.8528614044189453,
				0.025182966142892838,
				-1.57698655128479
			],
			"min":[
				-4.001372814178467,
				-0.025182966142892838,
				-2.6179211139678955
			],
			"type":"VEC3"
		},
		{
			"bufferView":13,
			"componentType":5126,
			"count":24,
			"type":"VEC3"
		},
		{
			"bufferView":14,
			"componentType":5126,
			"count":24,
			"type":"VEC2"
		},
		{
			"bufferView":15,
			"componentType":5126,
			"count":24,
			"max":[
				-2.0802128314971924,
				0.02518295869231224,
				-2.4695582389831543
			],
			"min":[
				-3.1823058128356934,
				-0.02518295869231224,
				-3.613565444946289
			],
			"type":"VEC3"
		},
		{
			"bufferView":16,
			"componentType":5126,
			"count":24,
			"type":"VEC3"
		},
		{
			"bufferView":17,
			"componentType":5126,
			"count":24,
			"type":"VEC2"
		},
		{
			"bufferView":18,
			"componentType":5123,
			"count":36,
			"type":"SCALAR"
		},
		{
			"bufferView":19,
			"componentType":5126,
			"count":24,
			"max":[
				-1.1039388179779053,
				0.025182951241731644,
				-3.120392322540283
			],
			"min":[
				-2.0517332553863525,
				-0.025182951241731644,
				-4.255488872528076
			],
			"type":"VEC3"
		},
		{
			"bufferView":20,
			"componentType":5126,
			"count":24,
			"type":"VEC3"
		},
		{
			"bufferView":21,
			"componentType":5126,
			"count":24,
			"type":"VEC2"
		},
		{
			"bufferView":22,
			"componentType":5126,
			"count":24,
			"max":[
				-3.4719152450561523,
				0.025182977318763733,
				0.01960521750152111
			],
			"min":[
				-4.480857849121094,
				-0.025182977318763733,
				-0.6815968751907349
			],
			"type":"VEC3"
		},
		{
			"bufferView":23,
			"componentType":5126,
			"count":24,
			"type":"VEC3"
		},
		{
			"bufferView":24,
			"componentType":5126,
			"count":24,
			"type":"VEC2"
		},
		{
			"bufferView":25,
			"componentType":5123,
			"count":36,
			"type":"SCALAR"
		},
		{
			"bufferView":26,
			"componentType":5126,
			"count":24,
			"max":[
				-0.019603582099080086,
				0.025182945653796196,
				-3.465780019760132
			],
			"min":[
				-0.7203224897384644,
				-0.025182945653796196,
				-4.480855464935303
			],
			"type":"VEC3"
		},
		{
			"bufferView":27,
			"componentType":5126,
			"count":24,
			"type":"VEC3"
		},
		{
			"bufferView":28,
			"componentType":5126,
			"count":24,
			"type":"VEC2"
		},
		{
			"bufferView":29,
			"componentType":5123,
			"count":36,
			"type":"SCALAR"
		},
		{
			"bufferView":30,
			"componentType":5126,
			"count":24,
			"max":[
				-3.138193130493164,
				0.025182969868183136,
				-1.0666494369506836
			],
			"min":[
				-4.267606258392334,
				-0.025182969868183136,
				-2.016798734664917
			],
			"type":"VEC3"
		},
		{
			"bufferView":31,
			"componentType":5126,
			"count":24,
			"type":"VEC3"
		},
		{
			"bufferView":32,
			"componentType":5126,
			"count":24,
			"type":"VEC2"
		},
		{
			"bufferView":33,
			"componentType":5126,
			"count":24,
			"max":[
				-2.4972829818725586,
				0.02518296241760254,
				-2.048492670059204
			],
			"min":[
				-3.6366117000579834,
				-0.02518296241760254,
				-3.1545815467834473
			],
			"type":"VEC3"
		},
		{
			"bufferView":34,
			"componentType":5126,
			"count":24,
			"type":"VEC3"
		},
		{
			"bufferView":35,
			"componentType":5126,
			"count":24,
			"type":"VEC2"
		},
		{
			"bufferView":36,
			"componentType":5126,
			"count":24,
			"max":[
				-1.6119213104248047,
				0.025182954967021942,
				-2.829814910888672
			],
			"min":[
				-2.6496410369873047,
				-0.025182954967021942,
				-3.983571767807007
			],
			"type":"VEC3"
		},
		{
			"bufferView":37,
			"componentType":5126,
			"count":24,
			"type":"VEC3"
		},
		{
			"bufferView":38,
			"componentType":5126,
			"count":24,
			"type":"VEC2"
		},
		{
			"bufferView":39,
			"componentType":5126,
			"count":24,
			"max":[
				-0.5687737464904785,
				0.025182949379086494,
				-3.334134817123413
			],
			"min":[
				-1.4033046960830688,
				-0.025182949379086494,
				-4.422621726989746
			],
			"type":"VEC3"
		},
		{
			"bufferView":40,
			"componentType":5126,
			"count":24,
			"type":"VEC3"
		},
		{
			"bufferView":41,
			"componentType":5126,
			"count":24,
			"type":"VEC2"
		}
	],
	"bufferViews":[
		{
			"buffer":0,
			"byteLength":8544,
			"byteOffset":0,
			"target":34962
		},
		{
			"buffer":0,
			"byteLength":8544,
			"byteOffset":8544,
			"target":34962
		},
		{
			"buffer":0,
			"byteLength":5696,
			"byteOffset":17088,
			"target":34962
		},
		{
			"buffer":0,
			"byteLength":4644,
			"byteOffset":22784,
			"target":34963
		},
		{
			"buffer":0,
			"byteLength":8280,
			"byteOffset":27428,
			"target":34962
		},
		{
			"buffer":0,
			"byteLength":8280,
			"byteOffset":35708,
			"target":34962
		},
		{
			"buffer":0,
			"byteLength":5520,
			"byteOffset":43988,
			"target":34962
		},
		{
			"buffer":0,
			"byteLength":3948,
			"byteOffset":49508,
			"target":34963
		},
		{
			"buffer":0,
			"byteLength":288,
			"byteOffset":53456,
			"target":34962
		},
		{
			"buffer":0,
			"byteLength":288,
			"byteOffset":53744,
			"target":34962
		},
		{
			"buffer":0,
			"byteLength":192,
			"byteOffset":54032,
			"target":34962
		},
		{
			"buffer":0,
			"byteLength":72,
			"byteOffset":54224,
			"target":34963
		},
		{
			"buffer":0,
			"byteLength":288,
			"byteOffset":54296,
			"target":34962
		},
		{
			"buffer":0,
			"byteLength":288,
			"byteOffset":54584,
			"target":34962
		},
		{
			"buffer":0,
			"byteLength":192,
			"byteOffset":54872,
			"target":34962
		},
		{
			"buffer":0,
			"byteLength":288,
			"byteOffset":55064,
			"target":34962
		},
		{
			"buffer":0,
			"byteLength":288,
			"byteOffset":55352,
			"target":34962
		},
		{
			"buffer":0,
			"byteLength":192,
			"byteOffset":55640,
			"target":34962
		},
		{
			"buffer":0,
			"byteLength":72,
			"byteOffset":55832,
			"target":34963
		},
		{
			"buffer":0,
			"byteLength":288,
			"byteOffset":55904,
			"target":34962
		},
		{
			"buffer":0,
			"byteLength":288,
			"byteOffset":56192,
			"target":34962
		},
		{
			"buffer":0,
			"byteLength":192,
			"byteOffset":56480,
			"target":34962
		},
		{
			"buffer":0,
			"byteLength":288,
			"byteOffset":56672,
			"target":34962
		},
		{
			"buffer":0,
			"byteLength":288,
			"byteOffset":56960,
			"target":34962
		},
		{
			"buffer":0,
			"byteLength":192,
			"byteOffset":57248,
			"target":34962
		},
		{
			"buffer":0,
			"byteLength":72,
			"byteOffset":57440,
			"target":34963
		},
		{
			"buffer":0,
			"byteLength":288,
			"byteOffset":57512,
			"target":34962
		},
		{
			"buffer":0,
			"byteLength":288,
			"byteOffset":57800,
			"target":34962
		},
		{
			"buffer":0,
			"byteLength":192,
			"byteOffset":58088,
			"target":34962
		},
		{
			"buffer":0,
			"byteLength":72,
			"byteOffset":58280,
			"target":34963
		},
		{
			"buffer":0,
			"byteLength":288,
			"byteOffset":58352,
			"target":34962
		},
		{
			"buffer":0,
			"byteLength":288,
			"byteOffset":58640,
			"target":34962
		},
		{
			"buffer":0,
			"byteLength":192,
			"byteOffset":58928,
			"target":34962
		},
		{
			"buffer":0,
			"byteLength":288,
			"byteOffset":59120,
			"target":34962
		},
		{
			"buffer":0,
			"byteLength":288,
			"byteOffset":59408,
			"target":34962
		},
		{
			"buffer":0,
			"byteLength":192,
			"byteOffset":59696,
			"target":34962
		},
		{
			"buffer":0,
			"byteLength":288,
			"byteOffset":59888,
			"target":34962
		},
		{
			"buffer":0,
			"byteLength":288,
			"byteOffset":60176,
			"target":34962
		},
		{
			"buffer":0,
			"byteLength":192,
			"byteOffset":60464,
			"target":34962
		},
		{
			"buffer":0,
			"byteLength":288,
			"byteOffset":60656,
			"target":34962
		},
		{
			"buffer":0,
			"byteLength":288,
			"byteOffset":60944,
			"target":34962
		},
		{
			"buffer":0,
			"byteLength":192,
			"byteOffset":61232,
			"target":34962
		}
	],
	"samplers":[
		{
			"magFilter":9729,
			"minFilter":9987
		}
	],
	"buffers":[
		{
			"byteLength":61424,
			"uri":"Column_MetalSupport_Curve.bin"
		}
	]
}
