{
	"asset":{
		"generator":"Khronos glTF Blender I/O v4.0.44",
		"version":"2.0"
	},
	"extensionsUsed":[
		"KHR_materials_specular",
		"KHR_materials_ior"
	],
	"scene":0,
	"scenes":[
		{
			"name":"Scene",
			"nodes":[
				0,
				1
			]
		}
	],
	"nodes":[
		{
			"mesh":0,
			"name":"Door_Simple"
		},
		{
			"mesh":1,
			"name":"Door_Simple_1_convcolonly"
		}
	],
	"materials":[
		{
			"doubleSided":true,
			"extensions":{
				"KHR_materials_specular":{
					"specularFactor":0
				},
				"KHR_materials_ior":{
					"ior":1.4500000476837158
				}
			},
			"name":"MI_Trim_01",
			"pbrMetallicRoughness":{
				"baseColorFactor":[
					0.800000011920929,
					0.800000011920929,
					0.800000011920929,
					1
				],
				"metallicFactor":0,
				"roughnessFactor":0.5
			}
		},
		{
			"doubleSided":true,
			"name":"MI_Trim_03",
			"pbrMetallicRoughness":{
				"baseColorFactor":[
					0.800000011920929,
					0.800000011920929,
					0.800000011920929,
					1
				],
				"metallicFactor":0,
				"roughnessFactor":0.5
			}
		},
		{
			"doubleSided":true,
			"name":"MI_Trim_03_Dark",
			"pbrMetallicRoughness":{
				"baseColorFactor":[
					0.800000011920929,
					0.800000011920929,
					0.800000011920929,
					1
				],
				"metallicFactor":0,
				"roughnessFactor":0.5
			}
		}
	],
	"meshes":[
		{
			"name":"Cube.026",
			"primitives":[
				{
					"attributes":{
						"POSITION":0,
						"NORMAL":1,
						"TEXCOORD_0":2
					},
					"indices":3,
					"material":0
				},
				{
					"attributes":{
						"POSITION":4,
						"NORMAL":5,
						"TEXCOORD_0":6
					},
					"indices":7,
					"material":1
				},
				{
					"attributes":{
						"POSITION":8,
						"NORMAL":9,
						"TEXCOORD_0":10
					},
					"indices":11,
					"material":2
				}
			]
		},
		{
			"name":"Cube.081",
			"primitives":[
				{
					"attributes":{
						"POSITION":12,
						"NORMAL":13,
						"TEXCOORD_0":14
					},
					"indices":15
				}
			]
		}
	],
	"accessors":[
		{
			"bufferView":0,
			"componentType":5126,
			"count":50,
			"max":[
				0,
				4.0489020347595215,
				0.1363188922405243
			],
			"min":[
				-2.1057209968566895,
				0,
				0
			],
			"type":"VEC3"
		},
		{
			"bufferView":1,
			"componentType":5126,
			"count":50,
			"type":"VEC3"
		},
		{
			"bufferView":2,
			"componentType":5126,
			"count":50,
			"type":"VEC2"
		},
		{
			"bufferView":3,
			"componentType":5123,
			"count":90,
			"type":"SCALAR"
		},
		{
			"bufferView":4,
			"componentType":5126,
			"count":12,
			"max":[
				-0.24097800254821777,
				4.0489020347595215,
				0.10160236060619354
			],
			"min":[
				-2.1057209968566895,
				0,
				0.07711811363697052
			],
			"type":"VEC3"
		},
		{
			"bufferView":5,
			"componentType":5126,
			"count":12,
			"type":"VEC3"
		},
		{
			"bufferView":6,
			"componentType":5126,
			"count":12,
			"type":"VEC2"
		},
		{
			"bufferView":7,
			"componentType":5123,
			"count":18,
			"type":"SCALAR"
		},
		{
			"bufferView":8,
			"componentType":5126,
			"count":4,
			"max":[
				-0.011078166775405407,
				4.0489020347595215,
				0.1363188922405243
			],
			"min":[
				-0.22307421267032623,
				0,
				0.1363188922405243
			],
			"type":"VEC3"
		},
		{
			"bufferView":9,
			"componentType":5126,
			"count":4,
			"type":"VEC3"
		},
		{
			"bufferView":10,
			"componentType":5126,
			"count":4,
			"type":"VEC2"
		},
		{
			"bufferView":11,
			"componentType":5123,
			"count":6,
			"type":"SCALAR"
		},
		{
			"bufferView":12,
			"componentType":5126,
			"count":24,
			"max":[
				0,
				4.0465240478515625,
				0.15500271320343018
			],
			"min":[
				-2.1206111907958984,
				0,
				-0.15500271320343018
			],
			"type":"VEC3"
		},
		{
			"bufferView":13,
			"componentType":5126,
			"count":24,
			"type":"VEC3"
		},
		{
			"bufferView":14,
			"componentType":5126,
			"count":24,
			"type":"VEC2"
		},
		{
			"bufferView":15,
			"componentType":5123,
			"count":36,
			"type":"SCALAR"
		}
	],
	"bufferViews":[
		{
			"buffer":0,
			"byteLength":600,
			"byteOffset":0,
			"target":34962
		},
		{
			"buffer":0,
			"byteLength":600,
			"byteOffset":600,
			"target":34962
		},
		{
			"buffer":0,
			"byteLength":400,
			"byteOffset":1200,
			"target":34962
		},
		{
			"buffer":0,
			"byteLength":180,
			"byteOffset":1600,
			"target":34963
		},
		{
			"buffer":0,
			"byteLength":144,
			"byteOffset":1780,
			"target":34962
		},
		{
			"buffer":0,
			"byteLength":144,
			"byteOffset":1924,
			"target":34962
		},
		{
			"buffer":0,
			"byteLength":96,
			"byteOffset":2068,
			"target":34962
		},
		{
			"buffer":0,
			"byteLength":36,
			"byteOffset":2164,
			"target":34963
		},
		{
			"buffer":0,
			"byteLength":48,
			"byteOffset":2200,
			"target":34962
		},
		{
			"buffer":0,
			"byteLength":48,
			"byteOffset":2248,
			"target":34962
		},
		{
			"buffer":0,
			"byteLength":32,
			"byteOffset":2296,
			"target":34962
		},
		{
			"buffer":0,
			"byteLength":12,
			"byteOffset":2328,
			"target":34963
		},
		{
			"buffer":0,
			"byteLength":288,
			"byteOffset":2340,
			"target":34962
		},
		{
			"buffer":0,
			"byteLength":288,
			"byteOffset":2628,
			"target":34962
		},
		{
			"buffer":0,
			"byteLength":192,
			"byteOffset":2916,
			"target":34962
		},
		{
			"buffer":0,
			"byteLength":72,
			"byteOffset":3108,
			"target":34963
		}
	],
	"buffers":[
		{
			"byteLength":3180,
			"uri":"Door_Simple.bin"
		}
	]
}
