{
	"asset":{
		"generator":"Khronos glTF Blender I/O v4.0.44",
		"version":"2.0"
	},
	"extensionsUsed":[
		"KHR_materials_specular",
		"KHR_materials_ior"
	],
	"scene":0,
	"scenes":[
		{
			"name":"Scene",
			"nodes":[
				0,
				1
			]
		}
	],
	"nodes":[
		{
			"mesh":0,
			"name":"Door_Metal"
		},
		{
			"mesh":1,
			"name":"Door_Metal_1_convcolonly"
		}
	],
	"materials":[
		{
			"doubleSided":true,
			"extensions":{
				"KHR_materials_specular":{
					"specularFactor":0
				},
				"KHR_materials_ior":{
					"ior":1.4500000476837158
				}
			},
			"name":"MI_Trim_01",
			"pbrMetallicRoughness":{
				"baseColorFactor":[
					0.800000011920929,
					0.800000011920929,
					0.800000011920929,
					1
				],
				"metallicFactor":0,
				"roughnessFactor":0.5
			}
		},
		{
			"doubleSided":true,
			"name":"MI_Trim_02",
			"pbrMetallicRoughness":{
				"baseColorFactor":[
					0.800000011920929,
					0.800000011920929,
					0.800000011920929,
					1
				],
				"metallicFactor":0,
				"roughnessFactor":0.5
			}
		}
	],
	"meshes":[
		{
			"name":"Cube.037",
			"primitives":[
				{
					"attributes":{
						"POSITION":0,
						"NORMAL":1,
						"TEXCOORD_0":2
					},
					"indices":3,
					"material":0
				},
				{
					"attributes":{
						"POSITION":4,
						"NORMAL":5,
						"TEXCOORD_0":6
					},
					"indices":7,
					"material":1
				}
			]
		},
		{
			"name":"Cube.336",
			"primitives":[
				{
					"attributes":{
						"POSITION":8,
						"NORMAL":9,
						"TEXCOORD_0":10
					},
					"indices":11
				}
			]
		}
	],
	"accessors":[
		{
			"bufferView":0,
			"componentType":5126,
			"count":8,
			"max":[
				0,
				4.0489020347595215,
				0.10160236060619354
			],
			"min":[
				-0.24097800254821777,
				0,
				0.09052419662475586
			],
			"type":"VEC3"
		},
		{
			"bufferView":1,
			"componentType":5126,
			"count":8,
			"type":"VEC3"
		},
		{
			"bufferView":2,
			"componentType":5126,
			"count":8,
			"type":"VEC2"
		},
		{
			"bufferView":3,
			"componentType":5123,
			"count":12,
			"type":"SCALAR"
		},
		{
			"bufferView":4,
			"componentType":5126,
			"count":20,
			"max":[
				0,
				4.0489020347595215,
				0.10160236060619354
			],
			"min":[
				-2.1057209968566895,
				0,
				0
			],
			"type":"VEC3"
		},
		{
			"bufferView":5,
			"componentType":5126,
			"count":20,
			"type":"VEC3"
		},
		{
			"bufferView":6,
			"componentType":5126,
			"count":20,
			"type":"VEC2"
		},
		{
			"bufferView":7,
			"componentType":5123,
			"count":36,
			"type":"SCALAR"
		},
		{
			"bufferView":8,
			"componentType":5126,
			"count":24,
			"max":[
				0,
				4.0465240478515625,
				0.15500271320343018
			],
			"min":[
				-2.1206111907958984,
				0,
				-0.15500271320343018
			],
			"type":"VEC3"
		},
		{
			"bufferView":9,
			"componentType":5126,
			"count":24,
			"type":"VEC3"
		},
		{
			"bufferView":10,
			"componentType":5126,
			"count":24,
			"type":"VEC2"
		},
		{
			"bufferView":11,
			"componentType":5123,
			"count":36,
			"type":"SCALAR"
		}
	],
	"bufferViews":[
		{
			"buffer":0,
			"byteLength":96,
			"byteOffset":0,
			"target":34962
		},
		{
			"buffer":0,
			"byteLength":96,
			"byteOffset":96,
			"target":34962
		},
		{
			"buffer":0,
			"byteLength":64,
			"byteOffset":192,
			"target":34962
		},
		{
			"buffer":0,
			"byteLength":24,
			"byteOffset":256,
			"target":34963
		},
		{
			"buffer":0,
			"byteLength":240,
			"byteOffset":280,
			"target":34962
		},
		{
			"buffer":0,
			"byteLength":240,
			"byteOffset":520,
			"target":34962
		},
		{
			"buffer":0,
			"byteLength":160,
			"byteOffset":760,
			"target":34962
		},
		{
			"buffer":0,
			"byteLength":72,
			"byteOffset":920,
			"target":34963
		},
		{
			"buffer":0,
			"byteLength":288,
			"byteOffset":992,
			"target":34962
		},
		{
			"buffer":0,
			"byteLength":288,
			"byteOffset":1280,
			"target":34962
		},
		{
			"buffer":0,
			"byteLength":192,
			"byteOffset":1568,
			"target":34962
		},
		{
			"buffer":0,
			"byteLength":72,
			"byteOffset":1760,
			"target":34963
		}
	],
	"buffers":[
		{
			"byteLength":1832,
			"uri":"Door_Metal.bin"
		}
	]
}
