{
	"asset":{
		"generator":"Khronos glTF Blender I/O v4.0.44",
		"version":"2.0"
	},
	"extensionsUsed":[
		"KHR_materials_specular",
		"KHR_materials_ior"
	],
	"scene":0,
	"scenes":[
		{
			"name":"Scene",
			"nodes":[
				0,
				1,
				2,
				3,
				4
			]
		}
	],
	"nodes":[
		{
			"mesh":0,
			"name":"Door_Frame_A_Side"
		},
		{
			"mesh":1,
			"name":"Door_Frame_A_Side_01_convcolonly"
		},
		{
			"mesh":2,
			"name":"Door_Frame_A_Side_04_convcolonly"
		},
		{
			"mesh":3,
			"name":"Door_Frame_A_Side_03_convcolonly"
		},
		{
			"mesh":4,
			"name":"Door_Frame_A_Side_02_convcolonly"
		}
	],
	"materials":[
		{
			"doubleSided":true,
			"extensions":{
				"KHR_materials_specular":{
					"specularFactor":0
				},
				"KHR_materials_ior":{
					"ior":1.4500000476837158
				}
			},
			"name":"MI_Trim_01",
			"pbrMetallicRoughness":{
				"baseColorFactor":[
					0.800000011920929,
					0.800000011920929,
					0.800000011920929,
					1
				],
				"metallicFactor":0,
				"roughnessFactor":0.5
			}
		},
		{
			"doubleSided":true,
			"name":"MI_Trim_02",
			"pbrMetallicRoughness":{
				"baseColorFactor":[
					0.800000011920929,
					0.800000011920929,
					0.800000011920929,
					1
				],
				"metallicFactor":0,
				"roughnessFactor":0.5
			}
		}
	],
	"meshes":[
		{
			"name":"Cube.028",
			"primitives":[
				{
					"attributes":{
						"POSITION":0,
						"NORMAL":1,
						"TEXCOORD_0":2
					},
					"indices":3,
					"material":0
				},
				{
					"attributes":{
						"POSITION":4,
						"NORMAL":5,
						"TEXCOORD_0":6
					},
					"indices":7,
					"material":1
				}
			]
		},
		{
			"name":"Cube.396",
			"primitives":[
				{
					"attributes":{
						"POSITION":8,
						"NORMAL":9,
						"TEXCOORD_0":10
					},
					"indices":11
				}
			]
		},
		{
			"name":"Cube.399",
			"primitives":[
				{
					"attributes":{
						"POSITION":12,
						"NORMAL":13,
						"TEXCOORD_0":14
					},
					"indices":15
				}
			]
		},
		{
			"name":"Cube.398",
			"primitives":[
				{
					"attributes":{
						"POSITION":16,
						"NORMAL":17,
						"TEXCOORD_0":18
					},
					"indices":19
				}
			]
		},
		{
			"name":"Cube.397",
			"primitives":[
				{
					"attributes":{
						"POSITION":20,
						"NORMAL":21,
						"TEXCOORD_0":22
					},
					"indices":23
				}
			]
		}
	],
	"accessors":[
		{
			"bufferView":0,
			"componentType":5126,
			"count":52,
			"max":[
				1,
				3.834150791168213,
				0.4000000059604645
			],
			"min":[
				-1.1057209968566895,
				-0.11896133422851562,
				0
			],
			"type":"VEC3"
		},
		{
			"bufferView":1,
			"componentType":5126,
			"count":52,
			"type":"VEC3"
		},
		{
			"bufferView":2,
			"componentType":5126,
			"count":52,
			"type":"VEC2"
		},
		{
			"bufferView":3,
			"componentType":5123,
			"count":84,
			"type":"SCALAR"
		},
		{
			"bufferView":4,
			"componentType":5126,
			"count":54,
			"max":[
				1,
				5.039759159088135,
				0.4000000059604645
			],
			"min":[
				-1.399999976158142,
				-0.11896133422851562,
				0
			],
			"type":"VEC3"
		},
		{
			"bufferView":5,
			"componentType":5126,
			"count":54,
			"type":"VEC3"
		},
		{
			"bufferView":6,
			"componentType":5126,
			"count":54,
			"type":"VEC2"
		},
		{
			"bufferView":7,
			"componentType":5123,
			"count":138,
			"type":"SCALAR"
		},
		{
			"bufferView":8,
			"componentType":5126,
			"count":24,
			"max":[
				1,
				5.038220405578613,
				0.46718573570251465
			],
			"min":[
				0.599326491355896,
				3.840902805328369,
				-0.46718573570251465
			],
			"type":"VEC3"
		},
		{
			"bufferView":9,
			"componentType":5126,
			"count":24,
			"type":"VEC3"
		},
		{
			"bufferView":10,
			"componentType":5126,
			"count":24,
			"type":"VEC2"
		},
		{
			"bufferView":11,
			"componentType":5123,
			"count":36,
			"type":"SCALAR"
		},
		{
			"bufferView":12,
			"componentType":5126,
			"count":34,
			"max":[
				0.6217052340507507,
				5.038220405578613,
				0.46718573570251465
			],
			"min":[
				-1.4351105690002441,
				0.7707695960998535,
				-0.46718573570251465
			],
			"type":"VEC3"
		},
		{
			"bufferView":13,
			"componentType":5126,
			"count":34,
			"type":"VEC3"
		},
		{
			"bufferView":14,
			"componentType":5126,
			"count":34,
			"type":"VEC2"
		},
		{
			"bufferView":15,
			"componentType":5123,
			"count":60,
			"type":"SCALAR"
		},
		{
			"bufferView":16,
			"componentType":5126,
			"count":24,
			"max":[
				-0.4748345613479614,
				1.0245604515075684,
				0.3568759858608246
			],
			"min":[
				-1.0298638343811035,
				-0.005303680896759033,
				-0.3568759262561798
			],
			"type":"VEC3"
		},
		{
			"bufferView":17,
			"componentType":5126,
			"count":24,
			"type":"VEC3"
		},
		{
			"bufferView":18,
			"componentType":5126,
			"count":24,
			"type":"VEC2"
		},
		{
			"bufferView":19,
			"componentType":5123,
			"count":36,
			"type":"SCALAR"
		},
		{
			"bufferView":20,
			"componentType":5126,
			"count":24,
			"max":[
				-0.5812629461288452,
				0.7707695960998535,
				0.46718573570251465
			],
			"min":[
				-1.4351105690002441,
				-0.07898485660552979,
				-0.46718573570251465
			],
			"type":"VEC3"
		},
		{
			"bufferView":21,
			"componentType":5126,
			"count":24,
			"type":"VEC3"
		},
		{
			"bufferView":22,
			"componentType":5126,
			"count":24,
			"type":"VEC2"
		},
		{
			"bufferView":23,
			"componentType":5123,
			"count":36,
			"type":"SCALAR"
		}
	],
	"bufferViews":[
		{
			"buffer":0,
			"byteLength":624,
			"byteOffset":0,
			"target":34962
		},
		{
			"buffer":0,
			"byteLength":624,
			"byteOffset":624,
			"target":34962
		},
		{
			"buffer":0,
			"byteLength":416,
			"byteOffset":1248,
			"target":34962
		},
		{
			"buffer":0,
			"byteLength":168,
			"byteOffset":1664,
			"target":34963
		},
		{
			"buffer":0,
			"byteLength":648,
			"byteOffset":1832,
			"target":34962
		},
		{
			"buffer":0,
			"byteLength":648,
			"byteOffset":2480,
			"target":34962
		},
		{
			"buffer":0,
			"byteLength":432,
			"byteOffset":3128,
			"target":34962
		},
		{
			"buffer":0,
			"byteLength":276,
			"byteOffset":3560,
			"target":34963
		},
		{
			"buffer":0,
			"byteLength":288,
			"byteOffset":3836,
			"target":34962
		},
		{
			"buffer":0,
			"byteLength":288,
			"byteOffset":4124,
			"target":34962
		},
		{
			"buffer":0,
			"byteLength":192,
			"byteOffset":4412,
			"target":34962
		},
		{
			"buffer":0,
			"byteLength":72,
			"byteOffset":4604,
			"target":34963
		},
		{
			"buffer":0,
			"byteLength":408,
			"byteOffset":4676,
			"target":34962
		},
		{
			"buffer":0,
			"byteLength":408,
			"byteOffset":5084,
			"target":34962
		},
		{
			"buffer":0,
			"byteLength":272,
			"byteOffset":5492,
			"target":34962
		},
		{
			"buffer":0,
			"byteLength":120,
			"byteOffset":5764,
			"target":34963
		},
		{
			"buffer":0,
			"byteLength":288,
			"byteOffset":5884,
			"target":34962
		},
		{
			"buffer":0,
			"byteLength":288,
			"byteOffset":6172,
			"target":34962
		},
		{
			"buffer":0,
			"byteLength":192,
			"byteOffset":6460,
			"target":34962
		},
		{
			"buffer":0,
			"byteLength":72,
			"byteOffset":6652,
			"target":34963
		},
		{
			"buffer":0,
			"byteLength":288,
			"byteOffset":6724,
			"target":34962
		},
		{
			"buffer":0,
			"byteLength":288,
			"byteOffset":7012,
			"target":34962
		},
		{
			"buffer":0,
			"byteLength":192,
			"byteOffset":7300,
			"target":34962
		},
		{
			"buffer":0,
			"byteLength":72,
			"byteOffset":7492,
			"target":34963
		}
	],
	"buffers":[
		{
			"byteLength":7564,
			"uri":"Door_Frame_A_Side.bin"
		}
	]
}
