{
	"asset":{
		"generator":"Khronos glTF Blender I/O v4.0.44",
		"version":"2.0"
	},
	"scene":0,
	"scenes":[
		{
			"name":"Scene",
			"nodes":[
				0,
				1
			]
		}
	],
	"nodes":[
		{
			"mesh":0,
			"name":"Platform_Simple2"
		},
		{
			"mesh":1,
			"name":"Platform_Simple2_1_convcolonly"
		}
	],
	"materials":[
		{
			"doubleSided":true,
			"name":"MI_Trim_03",
			"pbrMetallicRoughness":{
				"baseColorFactor":[
					0.800000011920929,
					0.800000011920929,
					0.800000011920929,
					1
				],
				"metallicFactor":0,
				"roughnessFactor":0.5
			}
		}
	],
	"meshes":[
		{
			"name":"Plane.133",
			"primitives":[
				{
					"attributes":{
						"POSITION":0,
						"NORMAL":1,
						"TEXCOORD_0":2
					},
					"indices":3,
					"material":0
				}
			]
		},
		{
			"name":"Cube.189",
			"primitives":[
				{
					"attributes":{
						"POSITION":4,
						"NORMAL":5,
						"TEXCOORD_0":6
					},
					"indices":7
				}
			]
		}
	],
	"accessors":[
		{
			"bufferView":0,
			"componentType":5126,
			"count":9,
			"max":[
				2,
				0,
				2
			],
			"min":[
				-2,
				0,
				-2
			],
			"type":"VEC3"
		},
		{
			"bufferView":1,
			"componentType":5126,
			"count":9,
			"type":"VEC3"
		},
		{
			"bufferView":2,
			"componentType":5126,
			"count":9,
			"type":"VEC2"
		},
		{
			"bufferView":3,
			"componentType":5123,
			"count":24,
			"type":"SCALAR"
		},
		{
			"bufferView":4,
			"componentType":5126,
			"count":24,
			"max":[
				2,
				0,
				2
			],
			"min":[
				-2,
				-0.19999998807907104,
				-2
			],
			"type":"VEC3"
		},
		{
			"bufferView":5,
			"componentType":5126,
			"count":24,
			"type":"VEC3"
		},
		{
			"bufferView":6,
			"componentType":5126,
			"count":24,
			"type":"VEC2"
		},
		{
			"bufferView":7,
			"componentType":5123,
			"count":36,
			"type":"SCALAR"
		}
	],
	"bufferViews":[
		{
			"buffer":0,
			"byteLength":108,
			"byteOffset":0,
			"target":34962
		},
		{
			"buffer":0,
			"byteLength":108,
			"byteOffset":108,
			"target":34962
		},
		{
			"buffer":0,
			"byteLength":72,
			"byteOffset":216,
			"target":34962
		},
		{
			"buffer":0,
			"byteLength":48,
			"byteOffset":288,
			"target":34963
		},
		{
			"buffer":0,
			"byteLength":288,
			"byteOffset":336,
			"target":34962
		},
		{
			"buffer":0,
			"byteLength":288,
			"byteOffset":624,
			"target":34962
		},
		{
			"buffer":0,
			"byteLength":192,
			"byteOffset":912,
			"target":34962
		},
		{
			"buffer":0,
			"byteLength":72,
			"byteOffset":1104,
			"target":34963
		}
	],
	"buffers":[
		{
			"byteLength":1176,
			"uri":"Platform_Simple2.bin"
		}
	]
}
