{
	"asset":{
		"generator":"Khronos glTF Blender I/O v4.0.44",
		"version":"2.0"
	},
	"extensionsUsed":[
		"KHR_materials_specular",
		"KHR_materials_ior"
	],
	"scene":0,
	"scenes":[
		{
			"name":"Scene",
			"nodes":[
				0,
				1
			]
		}
	],
	"nodes":[
		{
			"mesh":0,
			"name":"Platform_Padded"
		},
		{
			"mesh":1,
			"name":"Platform_Padded_1_convcolonly"
		}
	],
	"materials":[
		{
			"doubleSided":true,
			"extensions":{
				"KHR_materials_specular":{
					"specularFactor":0
				},
				"KHR_materials_ior":{
					"ior":1.4500000476837158
				}
			},
			"name":"MI_PaddedWall",
			"pbrMetallicRoughness":{
				"baseColorFactor":[
					0.800000011920929,
					0.800000011920929,
					0.800000011920929,
					1
				],
				"metallicFactor":0,
				"roughnessFactor":0.5
			}
		},
		{
			"doubleSided":true,
			"name":"MI_Trim_02",
			"pbrMetallicRoughness":{
				"baseColorFactor":[
					0.800000011920929,
					0.800000011920929,
					0.800000011920929,
					1
				],
				"metallicFactor":0,
				"roughnessFactor":0.5
			}
		}
	],
	"meshes":[
		{
			"name":"Plane.046",
			"primitives":[
				{
					"attributes":{
						"POSITION":0,
						"NORMAL":1,
						"TEXCOORD_0":2
					},
					"indices":3,
					"material":0
				},
				{
					"attributes":{
						"POSITION":4,
						"NORMAL":5,
						"TEXCOORD_0":6
					},
					"indices":7,
					"material":1
				}
			]
		},
		{
			"name":"Cube.178",
			"primitives":[
				{
					"attributes":{
						"POSITION":8,
						"NORMAL":9,
						"TEXCOORD_0":10
					},
					"indices":11
				}
			]
		}
	],
	"accessors":[
		{
			"bufferView":0,
			"componentType":5126,
			"count":879,
			"max":[
				2.00000262260437,
				0.06696831434965134,
				2.000000238418579
			],
			"min":[
				-2.0000030994415283,
				-0.0444498285651207,
				-2.000000476837158
			],
			"type":"VEC3"
		},
		{
			"bufferView":1,
			"componentType":5126,
			"count":879,
			"type":"VEC3"
		},
		{
			"bufferView":2,
			"componentType":5126,
			"count":879,
			"type":"VEC2"
		},
		{
			"bufferView":3,
			"componentType":5123,
			"count":3216,
			"type":"SCALAR"
		},
		{
			"bufferView":4,
			"componentType":5126,
			"count":1448,
			"max":[
				2.00000262260437,
				0.01967623271048069,
				2.000000238418579
			],
			"min":[
				-2.0000030994415283,
				-0.0444498285651207,
				-2.000000476837158
			],
			"type":"VEC3"
		},
		{
			"bufferView":5,
			"componentType":5126,
			"count":1448,
			"type":"VEC3"
		},
		{
			"bufferView":6,
			"componentType":5126,
			"count":1448,
			"type":"VEC2"
		},
		{
			"bufferView":7,
			"componentType":5123,
			"count":4128,
			"type":"SCALAR"
		},
		{
			"bufferView":8,
			"componentType":5126,
			"count":24,
			"max":[
				2,
				0,
				2
			],
			"min":[
				-2,
				-0.19999998807907104,
				-2
			],
			"type":"VEC3"
		},
		{
			"bufferView":9,
			"componentType":5126,
			"count":24,
			"type":"VEC3"
		},
		{
			"bufferView":10,
			"componentType":5126,
			"count":24,
			"type":"VEC2"
		},
		{
			"bufferView":11,
			"componentType":5123,
			"count":36,
			"type":"SCALAR"
		}
	],
	"bufferViews":[
		{
			"buffer":0,
			"byteLength":10548,
			"byteOffset":0,
			"target":34962
		},
		{
			"buffer":0,
			"byteLength":10548,
			"byteOffset":10548,
			"target":34962
		},
		{
			"buffer":0,
			"byteLength":7032,
			"byteOffset":21096,
			"target":34962
		},
		{
			"buffer":0,
			"byteLength":6432,
			"byteOffset":28128,
			"target":34963
		},
		{
			"buffer":0,
			"byteLength":17376,
			"byteOffset":34560,
			"target":34962
		},
		{
			"buffer":0,
			"byteLength":17376,
			"byteOffset":51936,
			"target":34962
		},
		{
			"buffer":0,
			"byteLength":11584,
			"byteOffset":69312,
			"target":34962
		},
		{
			"buffer":0,
			"byteLength":8256,
			"byteOffset":80896,
			"target":34963
		},
		{
			"buffer":0,
			"byteLength":288,
			"byteOffset":89152,
			"target":34962
		},
		{
			"buffer":0,
			"byteLength":288,
			"byteOffset":89440,
			"target":34962
		},
		{
			"buffer":0,
			"byteLength":192,
			"byteOffset":89728,
			"target":34962
		},
		{
			"buffer":0,
			"byteLength":72,
			"byteOffset":89920,
			"target":34963
		}
	],
	"buffers":[
		{
			"byteLength":89992,
			"uri":"Platform_Padded.bin"
		}
	]
}
