{
	"asset":{
		"generator":"Khronos glTF Blender I/O v4.0.44",
		"version":"2.0"
	},
	"scene":0,
	"scenes":[
		{
			"name":"Scene",
			"nodes":[
				0
			]
		}
	],
	"nodes":[
		{
			"mesh":0,
			"name":"Prop_Cable3"
		}
	],
	"materials":[
		{
			"doubleSided":true,
			"name":"MI_Trim_03_Cables",
			"pbrMetallicRoughness":{
				"baseColorFactor":[
					0.800000011920929,
					0.800000011920929,
					0.800000011920929,
					1
				],
				"metallicFactor":0,
				"roughnessFactor":0.5
			}
		},
		{
			"doubleSided":true,
			"name":"MI_Trim_02",
			"pbrMetallicRoughness":{
				"baseColorFactor":[
					0.800000011920929,
					0.800000011920929,
					0.800000011920929,
					1
				],
				"metallicFactor":0,
				"roughnessFactor":0.5
			}
		}
	],
	"meshes":[
		{
			"name":"BezierCurve.008",
			"primitives":[
				{
					"attributes":{
						"POSITION":0,
						"NORMAL":1,
						"TEXCOORD_0":2
					},
					"indices":3,
					"material":0
				},
				{
					"attributes":{
						"POSITION":4,
						"NORMAL":5,
						"TEXCOORD_0":6
					},
					"indices":7,
					"material":1
				}
			]
		}
	],
	"accessors":[
		{
			"bufferView":0,
			"componentType":5126,
			"count":2482,
			"max":[
				1.4041962623596191,
				0.1039402112364769,
				2.855494260787964
			],
			"min":[
				-0.1523417830467224,
				-0.00889551267027855,
				-2.74999737739563
			],
			"type":"VEC3"
		},
		{
			"bufferView":1,
			"componentType":5126,
			"count":2482,
			"type":"VEC3"
		},
		{
			"bufferView":2,
			"componentType":5126,
			"count":2482,
			"type":"VEC2"
		},
		{
			"bufferView":3,
			"componentType":5123,
			"count":13824,
			"type":"SCALAR"
		},
		{
			"bufferView":4,
			"componentType":5126,
			"count":648,
			"max":[
				1.407554030418396,
				0.09222282469272614,
				2.907241106033325
			],
			"min":[
				0.3865782916545868,
				-0.01304243691265583,
				-2.8273069858551025
			],
			"type":"VEC3"
		},
		{
			"bufferView":5,
			"componentType":5126,
			"count":648,
			"type":"VEC3"
		},
		{
			"bufferView":6,
			"componentType":5126,
			"count":648,
			"type":"VEC2"
		},
		{
			"bufferView":7,
			"componentType":5123,
			"count":1968,
			"type":"SCALAR"
		}
	],
	"bufferViews":[
		{
			"buffer":0,
			"byteLength":29784,
			"byteOffset":0,
			"target":34962
		},
		{
			"buffer":0,
			"byteLength":29784,
			"byteOffset":29784,
			"target":34962
		},
		{
			"buffer":0,
			"byteLength":19856,
			"byteOffset":59568,
			"target":34962
		},
		{
			"buffer":0,
			"byteLength":27648,
			"byteOffset":79424,
			"target":34963
		},
		{
			"buffer":0,
			"byteLength":7776,
			"byteOffset":107072,
			"target":34962
		},
		{
			"buffer":0,
			"byteLength":7776,
			"byteOffset":114848,
			"target":34962
		},
		{
			"buffer":0,
			"byteLength":5184,
			"byteOffset":122624,
			"target":34962
		},
		{
			"buffer":0,
			"byteLength":3936,
			"byteOffset":127808,
			"target":34963
		}
	],
	"buffers":[
		{
			"byteLength":131744,
			"uri":"Prop_Cable3.bin"
		}
	]
}
