{
	"asset":{
		"generator":"Khronos glTF Blender I/O v4.0.44",
		"version":"2.0"
	},
	"extensionsUsed":[
		"KHR_materials_specular",
		"KHR_materials_ior"
	],
	"scene":0,
	"scenes":[
		{
			"name":"Scene",
			"nodes":[
				0,
				1
			]
		}
	],
	"nodes":[
		{
			"mesh":0,
			"name":"Prop_Pipe_Medium_Straight"
		},
		{
			"mesh":1,
			"name":"Prop_Pipe_Medium_Straight_1_convcolonly"
		}
	],
	"materials":[
		{
			"doubleSided":true,
			"extensions":{
				"KHR_materials_specular":{
					"specularFactor":0
				},
				"KHR_materials_ior":{
					"ior":1.4500000476837158
				}
			},
			"name":"MI_Trim_01",
			"pbrMetallicRoughness":{
				"baseColorFactor":[
					0.800000011920929,
					0.800000011920929,
					0.800000011920929,
					1
				],
				"metallicFactor":0,
				"roughnessFactor":0.5
			}
		},
		{
			"doubleSided":true,
			"name":"MI_Trim_02",
			"pbrMetallicRoughness":{
				"baseColorFactor":[
					0.800000011920929,
					0.800000011920929,
					0.800000011920929,
					1
				],
				"metallicFactor":0,
				"roughnessFactor":0.5
			}
		}
	],
	"meshes":[
		{
			"name":"Cylinder",
			"primitives":[
				{
					"attributes":{
						"POSITION":0,
						"NORMAL":1,
						"TEXCOORD_0":2
					},
					"indices":3,
					"material":0
				},
				{
					"attributes":{
						"POSITION":4,
						"NORMAL":5,
						"TEXCOORD_0":6
					},
					"indices":7,
					"material":1
				}
			]
		},
		{
			"name":"Cylinder.043",
			"primitives":[
				{
					"attributes":{
						"POSITION":8,
						"NORMAL":9,
						"TEXCOORD_0":10
					},
					"indices":11
				}
			]
		}
	],
	"accessors":[
		{
			"bufferView":0,
			"componentType":5126,
			"count":195,
			"max":[
				0.13548234105110168,
				0.13548249006271362,
				1.5668357610702515
			],
			"min":[
				-0.13548234105110168,
				-0.13548234105110168,
				-1.5668357610702515
			],
			"type":"VEC3"
		},
		{
			"bufferView":1,
			"componentType":5126,
			"count":195,
			"type":"VEC3"
		},
		{
			"bufferView":2,
			"componentType":5126,
			"count":195,
			"type":"VEC2"
		},
		{
			"bufferView":3,
			"componentType":5123,
			"count":576,
			"type":"SCALAR"
		},
		{
			"bufferView":4,
			"componentType":5126,
			"count":156,
			"max":[
				0.13999411463737488,
				0.1399942934513092,
				2
			],
			"min":[
				-0.13999411463737488,
				-0.13999412953853607,
				-2
			],
			"type":"VEC3"
		},
		{
			"bufferView":5,
			"componentType":5126,
			"count":156,
			"type":"VEC3"
		},
		{
			"bufferView":6,
			"componentType":5126,
			"count":156,
			"type":"VEC2"
		},
		{
			"bufferView":7,
			"componentType":5123,
			"count":432,
			"type":"SCALAR"
		},
		{
			"bufferView":8,
			"componentType":5126,
			"count":48,
			"max":[
				0.14516311883926392,
				0.14516320824623108,
				1.9853769540786743
			],
			"min":[
				-0.14516311883926392,
				-0.14516320824623108,
				-1.9853769540786743
			],
			"type":"VEC3"
		},
		{
			"bufferView":9,
			"componentType":5126,
			"count":48,
			"type":"VEC3"
		},
		{
			"bufferView":10,
			"componentType":5126,
			"count":48,
			"type":"VEC2"
		},
		{
			"bufferView":11,
			"componentType":5123,
			"count":84,
			"type":"SCALAR"
		}
	],
	"bufferViews":[
		{
			"buffer":0,
			"byteLength":2340,
			"byteOffset":0,
			"target":34962
		},
		{
			"buffer":0,
			"byteLength":2340,
			"byteOffset":2340,
			"target":34962
		},
		{
			"buffer":0,
			"byteLength":1560,
			"byteOffset":4680,
			"target":34962
		},
		{
			"buffer":0,
			"byteLength":1152,
			"byteOffset":6240,
			"target":34963
		},
		{
			"buffer":0,
			"byteLength":1872,
			"byteOffset":7392,
			"target":34962
		},
		{
			"buffer":0,
			"byteLength":1872,
			"byteOffset":9264,
			"target":34962
		},
		{
			"buffer":0,
			"byteLength":1248,
			"byteOffset":11136,
			"target":34962
		},
		{
			"buffer":0,
			"byteLength":864,
			"byteOffset":12384,
			"target":34963
		},
		{
			"buffer":0,
			"byteLength":576,
			"byteOffset":13248,
			"target":34962
		},
		{
			"buffer":0,
			"byteLength":576,
			"byteOffset":13824,
			"target":34962
		},
		{
			"buffer":0,
			"byteLength":384,
			"byteOffset":14400,
			"target":34962
		},
		{
			"buffer":0,
			"byteLength":168,
			"byteOffset":14784,
			"target":34963
		}
	],
	"buffers":[
		{
			"byteLength":14952,
			"uri":"Prop_Pipe_Medium_Straight.bin"
		}
	]
}
