{
	"asset":{
		"generator":"Khronos glTF Blender I/O v4.0.44",
		"version":"2.0"
	},
	"extensionsUsed":[
		"KHR_materials_specular",
		"KHR_materials_ior"
	],
	"scene":0,
	"scenes":[
		{
			"name":"Scene",
			"nodes":[
				0,
				1
			]
		}
	],
	"nodes":[
		{
			"mesh":0,
			"name":"Prop_Pipe_Small_Straight"
		},
		{
			"mesh":1,
			"name":"Prop_Pipe_Small_Straight_1_convcolonly"
		}
	],
	"materials":[
		{
			"doubleSided":true,
			"extensions":{
				"KHR_materials_specular":{
					"specularFactor":0
				},
				"KHR_materials_ior":{
					"ior":1.4500000476837158
				}
			},
			"name":"MI_Trim_01",
			"pbrMetallicRoughness":{
				"baseColorFactor":[
					0.800000011920929,
					0.800000011920929,
					0.800000011920929,
					1
				],
				"metallicFactor":0,
				"roughnessFactor":0.5
			}
		},
		{
			"doubleSided":true,
			"name":"MI_Trim_02",
			"pbrMetallicRoughness":{
				"baseColorFactor":[
					0.800000011920929,
					0.800000011920929,
					0.800000011920929,
					1
				],
				"metallicFactor":0,
				"roughnessFactor":0.5
			}
		}
	],
	"meshes":[
		{
			"name":"Cylinder.004",
			"primitives":[
				{
					"attributes":{
						"POSITION":0,
						"NORMAL":1,
						"TEXCOORD_0":2
					},
					"indices":3,
					"material":0
				},
				{
					"attributes":{
						"POSITION":4,
						"NORMAL":5,
						"TEXCOORD_0":6
					},
					"indices":7,
					"material":1
				}
			]
		},
		{
			"name":"Cylinder.045",
			"primitives":[
				{
					"attributes":{
						"POSITION":8,
						"NORMAL":9,
						"TEXCOORD_0":10
					},
					"indices":11
				}
			]
		}
	],
	"accessors":[
		{
			"bufferView":0,
			"componentType":5126,
			"count":228,
			"max":[
				0.06999748200178146,
				0.06999705731868744,
				2
			],
			"min":[
				-0.06999748200178146,
				-0.06999705731868744,
				-2
			],
			"type":"VEC3"
		},
		{
			"bufferView":1,
			"componentType":5126,
			"count":228,
			"type":"VEC3"
		},
		{
			"bufferView":2,
			"componentType":5126,
			"count":228,
			"type":"VEC2"
		},
		{
			"bufferView":3,
			"componentType":5123,
			"count":720,
			"type":"SCALAR"
		},
		{
			"bufferView":4,
			"componentType":5126,
			"count":96,
			"max":[
				0.06999742984771729,
				0.06999705731868744,
				1.7692030668258667
			],
			"min":[
				-0.06999742984771729,
				-0.06999705731868744,
				-1.7692030668258667
			],
			"type":"VEC3"
		},
		{
			"bufferView":5,
			"componentType":5126,
			"count":96,
			"type":"VEC3"
		},
		{
			"bufferView":6,
			"componentType":5126,
			"count":96,
			"type":"VEC2"
		},
		{
			"bufferView":7,
			"componentType":5123,
			"count":288,
			"type":"SCALAR"
		},
		{
			"bufferView":8,
			"componentType":5126,
			"count":48,
			"max":[
				0.08374755084514618,
				0.08374760299921036,
				1.9853769540786743
			],
			"min":[
				-0.08374755084514618,
				-0.08374760299921036,
				-1.9853769540786743
			],
			"type":"VEC3"
		},
		{
			"bufferView":9,
			"componentType":5126,
			"count":48,
			"type":"VEC3"
		},
		{
			"bufferView":10,
			"componentType":5126,
			"count":48,
			"type":"VEC2"
		},
		{
			"bufferView":11,
			"componentType":5123,
			"count":84,
			"type":"SCALAR"
		}
	],
	"bufferViews":[
		{
			"buffer":0,
			"byteLength":2736,
			"byteOffset":0,
			"target":34962
		},
		{
			"buffer":0,
			"byteLength":2736,
			"byteOffset":2736,
			"target":34962
		},
		{
			"buffer":0,
			"byteLength":1824,
			"byteOffset":5472,
			"target":34962
		},
		{
			"buffer":0,
			"byteLength":1440,
			"byteOffset":7296,
			"target":34963
		},
		{
			"buffer":0,
			"byteLength":1152,
			"byteOffset":8736,
			"target":34962
		},
		{
			"buffer":0,
			"byteLength":1152,
			"byteOffset":9888,
			"target":34962
		},
		{
			"buffer":0,
			"byteLength":768,
			"byteOffset":11040,
			"target":34962
		},
		{
			"buffer":0,
			"byteLength":576,
			"byteOffset":11808,
			"target":34963
		},
		{
			"buffer":0,
			"byteLength":576,
			"byteOffset":12384,
			"target":34962
		},
		{
			"buffer":0,
			"byteLength":576,
			"byteOffset":12960,
			"target":34962
		},
		{
			"buffer":0,
			"byteLength":384,
			"byteOffset":13536,
			"target":34962
		},
		{
			"buffer":0,
			"byteLength":168,
			"byteOffset":13920,
			"target":34963
		}
	],
	"buffers":[
		{
			"byteLength":14088,
			"uri":"Prop_Pipe_Small_Straight.bin"
		}
	]
}
