{
	"asset":{
		"generator":"Khronos glTF Blender I/O v4.0.44",
		"version":"2.0"
	},
	"scene":0,
	"scenes":[
		{
			"name":"Scene",
			"nodes":[
				0
			]
		}
	],
	"nodes":[
		{
			"mesh":0,
			"name":"Prop_Cable4"
		}
	],
	"materials":[
		{
			"doubleSided":true,
			"name":"MI_Trim_03_Cables",
			"pbrMetallicRoughness":{
				"baseColorFactor":[
					0.800000011920929,
					0.800000011920929,
					0.800000011920929,
					1
				],
				"metallicFactor":0,
				"roughnessFactor":0.5
			}
		},
		{
			"doubleSided":true,
			"name":"MI_Trim_02",
			"pbrMetallicRoughness":{
				"baseColorFactor":[
					0.800000011920929,
					0.800000011920929,
					0.800000011920929,
					1
				],
				"metallicFactor":0,
				"roughnessFactor":0.5
			}
		}
	],
	"meshes":[
		{
			"name":"BezierCurve.009",
			"primitives":[
				{
					"attributes":{
						"POSITION":0,
						"NORMAL":1,
						"TEXCOORD_0":2
					},
					"indices":3,
					"material":0
				},
				{
					"attributes":{
						"POSITION":4,
						"NORMAL":5,
						"TEXCOORD_0":6
					},
					"indices":7,
					"material":1
				}
			]
		}
	],
	"accessors":[
		{
			"bufferView":0,
			"componentType":5126,
			"count":1870,
			"max":[
				0.0858631506562233,
				0.10393030941486359,
				2.4477124214172363
			],
			"min":[
				-0.39713892340660095,
				-0.00889551267027855,
				-2.4691460132598877
			],
			"type":"VEC3"
		},
		{
			"bufferView":1,
			"componentType":5126,
			"count":1870,
			"type":"VEC3"
		},
		{
			"bufferView":2,
			"componentType":5126,
			"count":1870,
			"type":"VEC2"
		},
		{
			"bufferView":3,
			"componentType":5123,
			"count":10368,
			"type":"SCALAR"
		},
		{
			"bufferView":4,
			"componentType":5126,
			"count":648,
			"max":[
				0.059805404394865036,
				0.06813313066959381,
				2.533797264099121
			],
			"min":[
				-0.46003568172454834,
				-0.011487964540719986,
				-2.5287628173828125
			],
			"type":"VEC3"
		},
		{
			"bufferView":5,
			"componentType":5126,
			"count":648,
			"type":"VEC3"
		},
		{
			"bufferView":6,
			"componentType":5126,
			"count":648,
			"type":"VEC2"
		},
		{
			"bufferView":7,
			"componentType":5123,
			"count":1968,
			"type":"SCALAR"
		}
	],
	"bufferViews":[
		{
			"buffer":0,
			"byteLength":22440,
			"byteOffset":0,
			"target":34962
		},
		{
			"buffer":0,
			"byteLength":22440,
			"byteOffset":22440,
			"target":34962
		},
		{
			"buffer":0,
			"byteLength":14960,
			"byteOffset":44880,
			"target":34962
		},
		{
			"buffer":0,
			"byteLength":20736,
			"byteOffset":59840,
			"target":34963
		},
		{
			"buffer":0,
			"byteLength":7776,
			"byteOffset":80576,
			"target":34962
		},
		{
			"buffer":0,
			"byteLength":7776,
			"byteOffset":88352,
			"target":34962
		},
		{
			"buffer":0,
			"byteLength":5184,
			"byteOffset":96128,
			"target":34962
		},
		{
			"buffer":0,
			"byteLength":3936,
			"byteOffset":101312,
			"target":34963
		}
	],
	"buffers":[
		{
			"byteLength":105248,
			"uri":"Prop_Cable4.bin"
		}
	]
}
