{
	"asset":{
		"generator":"Khronos glTF Blender I/O v4.0.44",
		"version":"2.0"
	},
	"scene":0,
	"scenes":[
		{
			"name":"Scene",
			"nodes":[
				0
			]
		}
	],
	"nodes":[
		{
			"mesh":0,
			"name":"Prop_Cable1"
		}
	],
	"materials":[
		{
			"doubleSided":true,
			"name":"MI_Trim_03_Cables",
			"pbrMetallicRoughness":{
				"baseColorFactor":[
					0.800000011920929,
					0.800000011920929,
					0.800000011920929,
					1
				],
				"metallicFactor":0,
				"roughnessFactor":0.5
			}
		},
		{
			"doubleSided":true,
			"name":"MI_Trim_02",
			"pbrMetallicRoughness":{
				"baseColorFactor":[
					0.800000011920929,
					0.800000011920929,
					0.800000011920929,
					1
				],
				"metallicFactor":0,
				"roughnessFactor":0.5
			}
		}
	],
	"meshes":[
		{
			"name":"Plane.148",
			"primitives":[
				{
					"attributes":{
						"POSITION":0,
						"NORMAL":1,
						"TEXCOORD_0":2
					},
					"indices":3,
					"material":0
				},
				{
					"attributes":{
						"POSITION":4,
						"NORMAL":5,
						"TEXCOORD_0":6
					},
					"indices":7,
					"material":1
				}
			]
		}
	],
	"accessors":[
		{
			"bufferView":0,
			"componentType":5126,
			"count":1241,
			"max":[
				0.5298477411270142,
				0.12994162738323212,
				0.976235032081604
			],
			"min":[
				-0.4886114299297333,
				-0.014547169208526611,
				-0.5750444531440735
			],
			"type":"VEC3"
		},
		{
			"bufferView":1,
			"componentType":5126,
			"count":1241,
			"type":"VEC3"
		},
		{
			"bufferView":2,
			"componentType":5126,
			"count":1241,
			"type":"VEC2"
		},
		{
			"bufferView":3,
			"componentType":5123,
			"count":6912,
			"type":"SCALAR"
		},
		{
			"bufferView":4,
			"componentType":5126,
			"count":324,
			"max":[
				-0.0679108127951622,
				0.08996552973985672,
				1.071864366531372
			],
			"min":[
				-0.21306964755058289,
				-0.01830253005027771,
				0.12268165498971939
			],
			"type":"VEC3"
		},
		{
			"bufferView":5,
			"componentType":5126,
			"count":324,
			"type":"VEC3"
		},
		{
			"bufferView":6,
			"componentType":5126,
			"count":324,
			"type":"VEC2"
		},
		{
			"bufferView":7,
			"componentType":5123,
			"count":984,
			"type":"SCALAR"
		}
	],
	"bufferViews":[
		{
			"buffer":0,
			"byteLength":14892,
			"byteOffset":0,
			"target":34962
		},
		{
			"buffer":0,
			"byteLength":14892,
			"byteOffset":14892,
			"target":34962
		},
		{
			"buffer":0,
			"byteLength":9928,
			"byteOffset":29784,
			"target":34962
		},
		{
			"buffer":0,
			"byteLength":13824,
			"byteOffset":39712,
			"target":34963
		},
		{
			"buffer":0,
			"byteLength":3888,
			"byteOffset":53536,
			"target":34962
		},
		{
			"buffer":0,
			"byteLength":3888,
			"byteOffset":57424,
			"target":34962
		},
		{
			"buffer":0,
			"byteLength":2592,
			"byteOffset":61312,
			"target":34962
		},
		{
			"buffer":0,
			"byteLength":1968,
			"byteOffset":63904,
			"target":34963
		}
	],
	"buffers":[
		{
			"byteLength":65872,
			"uri":"Prop_Cable1.bin"
		}
	]
}
