{
	"asset":{
		"generator":"Khronos glTF Blender I/O v4.0.44",
		"version":"2.0"
	},
	"extensionsUsed":[
		"KHR_materials_specular",
		"KHR_materials_ior"
	],
	"scene":0,
	"scenes":[
		{
			"name":"Scene",
			"nodes":[
				0,
				1
			]
		}
	],
	"nodes":[
		{
			"mesh":0,
			"name":"Prop_PipeHolder"
		},
		{
			"mesh":1,
			"name":"Prop_PipeHolder_1_convcolonly"
		}
	],
	"materials":[
		{
			"doubleSided":true,
			"extensions":{
				"KHR_materials_specular":{
					"specularFactor":0
				},
				"KHR_materials_ior":{
					"ior":1.4500000476837158
				}
			},
			"name":"MI_PaddedWall",
			"pbrMetallicRoughness":{
				"baseColorFactor":[
					0.800000011920929,
					0.800000011920929,
					0.800000011920929,
					1
				],
				"metallicFactor":0,
				"roughnessFactor":0.5
			}
		},
		{
			"doubleSided":true,
			"name":"MI_Trim_02",
			"pbrMetallicRoughness":{
				"baseColorFactor":[
					0.800000011920929,
					0.800000011920929,
					0.800000011920929,
					1
				],
				"metallicFactor":0,
				"roughnessFactor":0.5
			}
		},
		{
			"doubleSided":true,
			"extensions":{
				"KHR_materials_specular":{
					"specularFactor":0
				},
				"KHR_materials_ior":{
					"ior":1.4500000476837158
				}
			},
			"name":"MI_Trim_01",
			"pbrMetallicRoughness":{
				"baseColorFactor":[
					0.800000011920929,
					0.800000011920929,
					0.800000011920929,
					1
				],
				"metallicFactor":0,
				"roughnessFactor":0.5
			}
		}
	],
	"meshes":[
		{
			"name":"Plane.050",
			"primitives":[
				{
					"attributes":{
						"POSITION":0,
						"NORMAL":1,
						"TEXCOORD_0":2
					},
					"indices":3,
					"material":0
				},
				{
					"attributes":{
						"POSITION":4,
						"NORMAL":5,
						"TEXCOORD_0":6
					},
					"indices":7,
					"material":1
				},
				{
					"attributes":{
						"POSITION":8,
						"NORMAL":9,
						"TEXCOORD_0":10
					},
					"indices":11,
					"material":2
				}
			]
		},
		{
			"name":"Cube.291",
			"primitives":[
				{
					"attributes":{
						"POSITION":12,
						"NORMAL":13,
						"TEXCOORD_0":14
					},
					"indices":15
				}
			]
		}
	],
	"accessors":[
		{
			"bufferView":0,
			"componentType":5126,
			"count":720,
			"max":[
				1.8864470720291138,
				0.9148412346839905,
				0.5806915163993835
			],
			"min":[
				-1.8864470720291138,
				0.007752552628517151,
				-0.5806915163993835
			],
			"type":"VEC3"
		},
		{
			"bufferView":1,
			"componentType":5126,
			"count":720,
			"type":"VEC3"
		},
		{
			"bufferView":2,
			"componentType":5126,
			"count":720,
			"type":"VEC2"
		},
		{
			"bufferView":3,
			"componentType":5123,
			"count":2328,
			"type":"SCALAR"
		},
		{
			"bufferView":4,
			"componentType":5126,
			"count":2700,
			"max":[
				2.0530879497528076,
				0.9351769089698792,
				0.5806915163993835
			],
			"min":[
				-2.0637807846069336,
				0.007752552628517151,
				-0.5806915163993835
			],
			"type":"VEC3"
		},
		{
			"bufferView":5,
			"componentType":5126,
			"count":2700,
			"type":"VEC3"
		},
		{
			"bufferView":6,
			"componentType":5126,
			"count":2700,
			"type":"VEC2"
		},
		{
			"bufferView":7,
			"componentType":5123,
			"count":7368,
			"type":"SCALAR"
		},
		{
			"bufferView":8,
			"componentType":5126,
			"count":866,
			"max":[
				1.8639090061187744,
				0.7651497721672058,
				0.5689570903778076
			],
			"min":[
				-1.8639090061187744,
				0.04677682742476463,
				-0.5689569711685181
			],
			"type":"VEC3"
		},
		{
			"bufferView":9,
			"componentType":5126,
			"count":866,
			"type":"VEC3"
		},
		{
			"bufferView":10,
			"componentType":5126,
			"count":866,
			"type":"VEC2"
		},
		{
			"bufferView":11,
			"componentType":5123,
			"count":3474,
			"type":"SCALAR"
		},
		{
			"bufferView":12,
			"componentType":5126,
			"count":24,
			"max":[
				2.0473694801330566,
				0.9198951721191406,
				0.6021753549575806
			],
			"min":[
				-2.0332086086273193,
				-0.003062235889956355,
				-0.6021753549575806
			],
			"type":"VEC3"
		},
		{
			"bufferView":13,
			"componentType":5126,
			"count":24,
			"type":"VEC3"
		},
		{
			"bufferView":14,
			"componentType":5126,
			"count":24,
			"type":"VEC2"
		},
		{
			"bufferView":15,
			"componentType":5123,
			"count":36,
			"type":"SCALAR"
		}
	],
	"bufferViews":[
		{
			"buffer":0,
			"byteLength":8640,
			"byteOffset":0,
			"target":34962
		},
		{
			"buffer":0,
			"byteLength":8640,
			"byteOffset":8640,
			"target":34962
		},
		{
			"buffer":0,
			"byteLength":5760,
			"byteOffset":17280,
			"target":34962
		},
		{
			"buffer":0,
			"byteLength":4656,
			"byteOffset":23040,
			"target":34963
		},
		{
			"buffer":0,
			"byteLength":32400,
			"byteOffset":27696,
			"target":34962
		},
		{
			"buffer":0,
			"byteLength":32400,
			"byteOffset":60096,
			"target":34962
		},
		{
			"buffer":0,
			"byteLength":21600,
			"byteOffset":92496,
			"target":34962
		},
		{
			"buffer":0,
			"byteLength":14736,
			"byteOffset":114096,
			"target":34963
		},
		{
			"buffer":0,
			"byteLength":10392,
			"byteOffset":128832,
			"target":34962
		},
		{
			"buffer":0,
			"byteLength":10392,
			"byteOffset":139224,
			"target":34962
		},
		{
			"buffer":0,
			"byteLength":6928,
			"byteOffset":149616,
			"target":34962
		},
		{
			"buffer":0,
			"byteLength":6948,
			"byteOffset":156544,
			"target":34963
		},
		{
			"buffer":0,
			"byteLength":288,
			"byteOffset":163492,
			"target":34962
		},
		{
			"buffer":0,
			"byteLength":288,
			"byteOffset":163780,
			"target":34962
		},
		{
			"buffer":0,
			"byteLength":192,
			"byteOffset":164068,
			"target":34962
		},
		{
			"buffer":0,
			"byteLength":72,
			"byteOffset":164260,
			"target":34963
		}
	],
	"buffers":[
		{
			"byteLength":164332,
			"uri":"Prop_PipeHolder.bin"
		}
	]
}
