{
	"asset":{
		"generator":"Khronos glTF Blender I/O v4.0.44",
		"version":"2.0"
	},
	"scene":0,
	"scenes":[
		{
			"name":"Scene",
			"nodes":[
				0,
				1,
				2
			]
		}
	],
	"nodes":[
		{
			"mesh":0,
			"name":"Decal_Line_90_Round"
		},
		{
			"mesh":1,
			"name":"Decal_Line_90"
		},
		{
			"mesh":2,
			"name":"Decal_Line_90_Round_Large"
		}
	],
	"materials":[
		{
			"doubleSided":true,
			"name":"MI_Decal_Line",
			"pbrMetallicRoughness":{
				"baseColorFactor":[
					0.8001017570495605,
					0.18927901983261108,
					0,
					1
				],
				"metallicFactor":0,
				"roughnessFactor":0.5
			}
		}
	],
	"meshes":[
		{
			"name":"Plane.252",
			"primitives":[
				{
					"attributes":{
						"POSITION":0,
						"NORMAL":1,
						"TEXCOORD_0":2
					},
					"indices":3,
					"material":0
				}
			]
		},
		{
			"name":"Plane.255",
			"primitives":[
				{
					"attributes":{
						"POSITION":4,
						"NORMAL":5,
						"TEXCOORD_0":6
					},
					"indices":7,
					"material":0
				}
			]
		},
		{
			"name":"Plane.057",
			"primitives":[
				{
					"attributes":{
						"POSITION":8,
						"NORMAL":9,
						"TEXCOORD_0":10
					},
					"indices":11,
					"material":0
				}
			]
		}
	],
	"accessors":[
		{
			"bufferView":0,
			"componentType":5126,
			"count":34,
			"max":[
				2.000000476837158,
				0,
				2
			],
			"min":[
				-0.07200000435113907,
				0,
				-0.07199982553720474
			],
			"type":"VEC3"
		},
		{
			"bufferView":1,
			"componentType":5126,
			"count":34,
			"type":"VEC3"
		},
		{
			"bufferView":2,
			"componentType":5126,
			"count":34,
			"type":"VEC2"
		},
		{
			"bufferView":3,
			"componentType":5123,
			"count":96,
			"type":"SCALAR"
		},
		{
			"bufferView":4,
			"componentType":5126,
			"count":30,
			"max":[
				2,
				0,
				2
			],
			"min":[
				-0.07206864655017853,
				0,
				-0.0720127522945404
			],
			"type":"VEC3"
		},
		{
			"bufferView":5,
			"componentType":5126,
			"count":30,
			"type":"VEC3"
		},
		{
			"bufferView":6,
			"componentType":5126,
			"count":30,
			"type":"VEC2"
		},
		{
			"bufferView":7,
			"componentType":5123,
			"count":84,
			"type":"SCALAR"
		},
		{
			"bufferView":8,
			"componentType":5126,
			"count":26,
			"max":[
				3.0000009536743164,
				0,
				3
			],
			"min":[
				-0.07200000435113907,
				0,
				-0.07200199365615845
			],
			"type":"VEC3"
		},
		{
			"bufferView":9,
			"componentType":5126,
			"count":26,
			"type":"VEC3"
		},
		{
			"bufferView":10,
			"componentType":5126,
			"count":26,
			"type":"VEC2"
		},
		{
			"bufferView":11,
			"componentType":5123,
			"count":72,
			"type":"SCALAR"
		}
	],
	"bufferViews":[
		{
			"buffer":0,
			"byteLength":408,
			"byteOffset":0,
			"target":34962
		},
		{
			"buffer":0,
			"byteLength":408,
			"byteOffset":408,
			"target":34962
		},
		{
			"buffer":0,
			"byteLength":272,
			"byteOffset":816,
			"target":34962
		},
		{
			"buffer":0,
			"byteLength":192,
			"byteOffset":1088,
			"target":34963
		},
		{
			"buffer":0,
			"byteLength":360,
			"byteOffset":1280,
			"target":34962
		},
		{
			"buffer":0,
			"byteLength":360,
			"byteOffset":1640,
			"target":34962
		},
		{
			"buffer":0,
			"byteLength":240,
			"byteOffset":2000,
			"target":34962
		},
		{
			"buffer":0,
			"byteLength":168,
			"byteOffset":2240,
			"target":34963
		},
		{
			"buffer":0,
			"byteLength":312,
			"byteOffset":2408,
			"target":34962
		},
		{
			"buffer":0,
			"byteLength":312,
			"byteOffset":2720,
			"target":34962
		},
		{
			"buffer":0,
			"byteLength":208,
			"byteOffset":3032,
			"target":34962
		},
		{
			"buffer":0,
			"byteLength":144,
			"byteOffset":3240,
			"target":34963
		}
	],
	"buffers":[
		{
			"byteLength":3384,
			"uri":"Decal_Line.bin"
		}
	]
}
