{
	"asset":{
		"generator":"Khronos glTF Blender I/O v4.0.44",
		"version":"2.0"
	},
	"extensionsUsed":[
		"KHR_materials_specular",
		"KHR_materials_ior"
	],
	"scene":0,
	"scenes":[
		{
			"name":"Scene",
			"nodes":[
				0,
				1,
				2
			]
		}
	],
	"nodes":[
		{
			"mesh":0,
			"name":"BottomAccent_Corner_Square_Inner"
		},
		{
			"mesh":1,
			"name":"BottomAccent_Corner_Square_Inner_01_convcolonly"
		},
		{
			"mesh":2,
			"name":"BottomAccent_Corner_Square_Inner_02_convcolonly"
		}
	],
	"materials":[
		{
			"doubleSided":true,
			"extensions":{
				"KHR_materials_specular":{
					"specularFactor":0
				},
				"KHR_materials_ior":{
					"ior":1.4500000476837158
				}
			},
			"name":"MI_Trim_01",
			"pbrMetallicRoughness":{
				"baseColorFactor":[
					0.800000011920929,
					0.800000011920929,
					0.800000011920929,
					1
				],
				"metallicFactor":0,
				"roughnessFactor":0.5
			}
		},
		{
			"doubleSided":true,
			"name":"MI_Trim_02",
			"pbrMetallicRoughness":{
				"baseColorFactor":[
					0.800000011920929,
					0.800000011920929,
					0.800000011920929,
					1
				],
				"metallicFactor":0,
				"roughnessFactor":0.5
			}
		},
		{
			"doubleSided":true,
			"name":"MI_Trim_03_Dark",
			"pbrMetallicRoughness":{
				"baseColorFactor":[
					0.800000011920929,
					0.800000011920929,
					0.800000011920929,
					1
				],
				"metallicFactor":0,
				"roughnessFactor":0.5
			}
		}
	],
	"meshes":[
		{
			"name":"Plane.086",
			"primitives":[
				{
					"attributes":{
						"POSITION":0,
						"NORMAL":1,
						"TEXCOORD_0":2
					},
					"indices":3,
					"material":0
				},
				{
					"attributes":{
						"POSITION":4,
						"NORMAL":5,
						"TEXCOORD_0":6
					},
					"indices":7,
					"material":1
				}
			]
		},
		{
			"name":"Plane.205",
			"primitives":[
				{
					"attributes":{
						"POSITION":8,
						"NORMAL":9,
						"TEXCOORD_0":10
					},
					"indices":11,
					"material":2
				}
			]
		},
		{
			"name":"Plane.206",
			"primitives":[
				{
					"attributes":{
						"POSITION":12,
						"NORMAL":13,
						"TEXCOORD_0":14
					},
					"indices":15,
					"material":2
				}
			]
		}
	],
	"accessors":[
		{
			"bufferView":0,
			"componentType":5126,
			"count":26,
			"max":[
				-3.5762786865234375e-07,
				0.02000032551586628,
				4.7683710135970614e-07
			],
			"min":[
				-4.000000476837158,
				-3.258412277773459e-07,
				-4
			],
			"type":"VEC3"
		},
		{
			"bufferView":1,
			"componentType":5126,
			"count":26,
			"type":"VEC3"
		},
		{
			"bufferView":2,
			"componentType":5126,
			"count":26,
			"type":"VEC2"
		},
		{
			"bufferView":3,
			"componentType":5123,
			"count":54,
			"type":"SCALAR"
		},
		{
			"bufferView":4,
			"componentType":5126,
			"count":30,
			"max":[
				-3.5762786865234375e-07,
				0.02000032551586628,
				4.7683710135970614e-07
			],
			"min":[
				-4,
				-3.2584125619905535e-07,
				-4
			],
			"type":"VEC3"
		},
		{
			"bufferView":5,
			"componentType":5126,
			"count":30,
			"type":"VEC3"
		},
		{
			"bufferView":6,
			"componentType":5126,
			"count":30,
			"type":"VEC2"
		},
		{
			"bufferView":7,
			"componentType":5123,
			"count":54,
			"type":"SCALAR"
		},
		{
			"bufferView":8,
			"componentType":5126,
			"count":24,
			"max":[
				6.516826260849484e-07,
				0.02000032551586628,
				-3.4000000953674316
			],
			"min":[
				-3.999999761581421,
				3.2584142672931193e-07,
				-3.999999761581421
			],
			"type":"VEC3"
		},
		{
			"bufferView":9,
			"componentType":5126,
			"count":24,
			"type":"VEC3"
		},
		{
			"bufferView":10,
			"componentType":5126,
			"count":24,
			"type":"VEC2"
		},
		{
			"bufferView":11,
			"componentType":5123,
			"count":36,
			"type":"SCALAR"
		},
		{
			"bufferView":12,
			"componentType":5126,
			"count":24,
			"max":[
				-3.4000000953674316,
				0.02000032551586628,
				4.7683710135970614e-07
			],
			"min":[
				-3.999999523162842,
				3.2584142672931193e-07,
				-4
			],
			"type":"VEC3"
		},
		{
			"bufferView":13,
			"componentType":5126,
			"count":24,
			"type":"VEC3"
		},
		{
			"bufferView":14,
			"componentType":5126,
			"count":24,
			"type":"VEC2"
		},
		{
			"bufferView":15,
			"componentType":5123,
			"count":36,
			"type":"SCALAR"
		}
	],
	"bufferViews":[
		{
			"buffer":0,
			"byteLength":312,
			"byteOffset":0,
			"target":34962
		},
		{
			"buffer":0,
			"byteLength":312,
			"byteOffset":312,
			"target":34962
		},
		{
			"buffer":0,
			"byteLength":208,
			"byteOffset":624,
			"target":34962
		},
		{
			"buffer":0,
			"byteLength":108,
			"byteOffset":832,
			"target":34963
		},
		{
			"buffer":0,
			"byteLength":360,
			"byteOffset":940,
			"target":34962
		},
		{
			"buffer":0,
			"byteLength":360,
			"byteOffset":1300,
			"target":34962
		},
		{
			"buffer":0,
			"byteLength":240,
			"byteOffset":1660,
			"target":34962
		},
		{
			"buffer":0,
			"byteLength":108,
			"byteOffset":1900,
			"target":34963
		},
		{
			"buffer":0,
			"byteLength":288,
			"byteOffset":2008,
			"target":34962
		},
		{
			"buffer":0,
			"byteLength":288,
			"byteOffset":2296,
			"target":34962
		},
		{
			"buffer":0,
			"byteLength":192,
			"byteOffset":2584,
			"target":34962
		},
		{
			"buffer":0,
			"byteLength":72,
			"byteOffset":2776,
			"target":34963
		},
		{
			"buffer":0,
			"byteLength":288,
			"byteOffset":2848,
			"target":34962
		},
		{
			"buffer":0,
			"byteLength":288,
			"byteOffset":3136,
			"target":34962
		},
		{
			"buffer":0,
			"byteLength":192,
			"byteOffset":3424,
			"target":34962
		},
		{
			"buffer":0,
			"byteLength":72,
			"byteOffset":3616,
			"target":34963
		}
	],
	"buffers":[
		{
			"byteLength":3688,
			"uri":"BottomAccent_Corner_Square_Inner.bin"
		}
	]
}
