{
	"asset":{
		"generator":"Khronos glTF Blender I/O v4.0.44",
		"version":"2.0"
	},
	"extensionsUsed":[
		"KHR_materials_specular",
		"KHR_materials_ior"
	],
	"scene":0,
	"scenes":[
		{
			"name":"Scene",
			"nodes":[
				0,
				1,
				2,
				3,
				4,
				5,
				6,
				7,
				8
			]
		}
	],
	"nodes":[
		{
			"mesh":0,
			"name":"TopWindow_Corner_Curve_Outer"
		},
		{
			"mesh":1,
			"name":"TopWindow_Corner_Curve_Outer_01_convcolonly"
		},
		{
			"mesh":2,
			"name":"TopWindow_Corner_Curve_Outer_02_convcolonly"
		},
		{
			"mesh":3,
			"name":"TopWindow_Corner_Curve_Outer_03_convcolonly"
		},
		{
			"mesh":4,
			"name":"TopWindow_Corner_Curve_Outer_04_convcolonly"
		},
		{
			"mesh":5,
			"name":"TopWindow_Corner_Curve_Outer_05_convcolonly"
		},
		{
			"mesh":6,
			"name":"TopWindow_Corner_Curve_Outer_06_convcolonly"
		},
		{
			"mesh":7,
			"name":"TopWindow_Corner_Curve_Outer_07_convcolonly"
		},
		{
			"mesh":8,
			"name":"TopWindow_Corner_Curve_Outer_08_convcolonly"
		}
	],
	"materials":[
		{
			"doubleSided":true,
			"name":"MI_Trim_02",
			"pbrMetallicRoughness":{
				"baseColorFactor":[
					0.800000011920929,
					0.800000011920929,
					0.800000011920929,
					1
				],
				"metallicFactor":0,
				"roughnessFactor":0.5
			}
		},
		{
			"doubleSided":true,
			"name":"M_Glass",
			"pbrMetallicRoughness":{
				"baseColorFactor":[
					0.800000011920929,
					0.800000011920929,
					0.800000011920929,
					1
				],
				"metallicFactor":0,
				"roughnessFactor":0.5
			}
		},
		{
			"doubleSided":true,
			"extensions":{
				"KHR_materials_specular":{
					"specularFactor":0
				},
				"KHR_materials_ior":{
					"ior":1.4500000476837158
				}
			},
			"name":"MI_PaddedWall",
			"pbrMetallicRoughness":{
				"baseColorFactor":[
					0.800000011920929,
					0.800000011920929,
					0.800000011920929,
					1
				],
				"metallicFactor":0,
				"roughnessFactor":0.5
			}
		},
		{
			"doubleSided":true,
			"name":"MI_Trim_02_Variation",
			"pbrMetallicRoughness":{
				"baseColorFactor":[
					0.800000011920929,
					0.800000011920929,
					0.800000011920929,
					1
				],
				"metallicFactor":0,
				"roughnessFactor":0.5
			}
		},
		{
			"doubleSided":true,
			"name":"Collision",
			"pbrMetallicRoughness":{
				"baseColorFactor":[
					0.11006110906600952,
					0.2556236684322357,
					0.8000785112380981,
					1
				],
				"metallicFactor":0,
				"roughnessFactor":0.5
			}
		}
	],
	"meshes":[
		{
			"name":"Plane.174",
			"primitives":[
				{
					"attributes":{
						"POSITION":0,
						"NORMAL":1,
						"TEXCOORD_0":2
					},
					"indices":3,
					"material":0
				},
				{
					"attributes":{
						"POSITION":4,
						"NORMAL":5,
						"TEXCOORD_0":6
					},
					"indices":7,
					"material":1
				},
				{
					"attributes":{
						"POSITION":8,
						"NORMAL":9,
						"TEXCOORD_0":10
					},
					"indices":11,
					"material":2
				},
				{
					"attributes":{
						"POSITION":12,
						"NORMAL":13,
						"TEXCOORD_0":14
					},
					"indices":15,
					"material":3
				}
			]
		},
		{
			"name":"UCX_TopWindow_Corner_Curve_Outer_01",
			"primitives":[
				{
					"attributes":{
						"POSITION":16,
						"NORMAL":17,
						"TEXCOORD_0":18
					},
					"indices":19,
					"material":4
				}
			]
		},
		{
			"name":"UCX_TopWindow_Corner_Curve_Outer_02",
			"primitives":[
				{
					"attributes":{
						"POSITION":20,
						"NORMAL":21,
						"TEXCOORD_0":22
					},
					"indices":23,
					"material":4
				}
			]
		},
		{
			"name":"UCX_TopWindow_Corner_Curve_Outer_03",
			"primitives":[
				{
					"attributes":{
						"POSITION":24,
						"NORMAL":25,
						"TEXCOORD_0":26
					},
					"indices":27,
					"material":4
				}
			]
		},
		{
			"name":"UCX_TopWindow_Corner_Curve_Outer_04",
			"primitives":[
				{
					"attributes":{
						"POSITION":28,
						"NORMAL":29,
						"TEXCOORD_0":30
					},
					"indices":27,
					"material":4
				}
			]
		},
		{
			"name":"UCX_TopWindow_Corner_Curve_Outer_05",
			"primitives":[
				{
					"attributes":{
						"POSITION":31,
						"NORMAL":32,
						"TEXCOORD_0":33
					},
					"indices":34,
					"material":4
				}
			]
		},
		{
			"name":"UCX_TopWindow_Corner_Curve_Outer_06",
			"primitives":[
				{
					"attributes":{
						"POSITION":35,
						"NORMAL":36,
						"TEXCOORD_0":37
					},
					"indices":34,
					"material":4
				}
			]
		},
		{
			"name":"UCX_TopWindow_Corner_Curve_Outer_07",
			"primitives":[
				{
					"attributes":{
						"POSITION":38,
						"NORMAL":39,
						"TEXCOORD_0":40
					},
					"indices":41,
					"material":4
				}
			]
		},
		{
			"name":"UCX_TopWindow_Corner_Curve_Outer_08",
			"primitives":[
				{
					"attributes":{
						"POSITION":42,
						"NORMAL":43,
						"TEXCOORD_0":44
					},
					"indices":45,
					"material":4
				}
			]
		}
	],
	"accessors":[
		{
			"bufferView":0,
			"componentType":5126,
			"count":438,
			"max":[
				1.7268173451157054e-06,
				4.081438064575195,
				-2.1735348127549514e-05
			],
			"min":[
				-4.570519924163818,
				2.997406244277954,
				-4.570518970489502
			],
			"type":"VEC3"
		},
		{
			"bufferView":1,
			"componentType":5126,
			"count":438,
			"type":"VEC3"
		},
		{
			"bufferView":2,
			"componentType":5126,
			"count":438,
			"type":"VEC2"
		},
		{
			"bufferView":3,
			"componentType":5123,
			"count":1320,
			"type":"SCALAR"
		},
		{
			"bufferView":4,
			"componentType":5126,
			"count":24,
			"max":[
				-0.03388857841491699,
				3.8312301635742188,
				-0.033910058438777924
			],
			"min":[
				-4.521363258361816,
				3.0154988765716553,
				-4.5213623046875
			],
			"type":"VEC3"
		},
		{
			"bufferView":5,
			"componentType":5126,
			"count":24,
			"type":"VEC3"
		},
		{
			"bufferView":6,
			"componentType":5126,
			"count":24,
			"type":"VEC2"
		},
		{
			"bufferView":7,
			"componentType":5123,
			"count":60,
			"type":"SCALAR"
		},
		{
			"bufferView":8,
			"componentType":5126,
			"count":186,
			"max":[
				1.608473439773661e-06,
				3.8219215869903564,
				-2.22455091716256e-05
			],
			"min":[
				-4.570519924163818,
				2.997406244277954,
				-4.570518970489502
			],
			"type":"VEC3"
		},
		{
			"bufferView":9,
			"componentType":5126,
			"count":186,
			"type":"VEC3"
		},
		{
			"bufferView":10,
			"componentType":5126,
			"count":186,
			"type":"VEC2"
		},
		{
			"bufferView":11,
			"componentType":5123,
			"count":576,
			"type":"SCALAR"
		},
		{
			"bufferView":12,
			"componentType":5126,
			"count":172,
			"max":[
				1.7268173451157054e-06,
				5.01774787902832,
				-2.04066964215599e-05
			],
			"min":[
				-4.567864418029785,
				4.081437110900879,
				-4.5678629875183105
			],
			"type":"VEC3"
		},
		{
			"bufferView":13,
			"componentType":5126,
			"count":172,
			"type":"VEC3"
		},
		{
			"bufferView":14,
			"componentType":5126,
			"count":172,
			"type":"VEC2"
		},
		{
			"bufferView":15,
			"componentType":5123,
			"count":300,
			"type":"SCALAR"
		},
		{
			"bufferView":16,
			"componentType":5126,
			"count":34,
			"max":[
				-3.7037220001220703,
				5,
				0
			],
			"min":[
				-4.599999904632568,
				3,
				-0.8974154591560364
			],
			"type":"VEC3"
		},
		{
			"bufferView":17,
			"componentType":5126,
			"count":34,
			"type":"VEC3"
		},
		{
			"bufferView":18,
			"componentType":5126,
			"count":34,
			"type":"VEC2"
		},
		{
			"bufferView":19,
			"componentType":5123,
			"count":60,
			"type":"SCALAR"
		},
		{
			"bufferView":20,
			"componentType":5126,
			"count":34,
			"max":[
				-3.1398637294769287,
				5,
				-1.4451206922531128
			],
			"min":[
				-4.249845504760742,
				3,
				-2.5556228160858154
			],
			"type":"VEC3"
		},
		{
			"bufferView":21,
			"componentType":5126,
			"count":34,
			"type":"VEC3"
		},
		{
			"bufferView":22,
			"componentType":5126,
			"count":34,
			"type":"VEC2"
		},
		{
			"bufferView":23,
			"componentType":5123,
			"count":60,
			"type":"SCALAR"
		},
		{
			"bufferView":24,
			"componentType":5126,
			"count":34,
			"max":[
				-2.097989797592163,
				5,
				-2.6702346801757812
			],
			"min":[
				-3.252690553665161,
				3,
				-3.8247597217559814
			],
			"type":"VEC3"
		},
		{
			"bufferView":25,
			"componentType":5126,
			"count":34,
			"type":"VEC3"
		},
		{
			"bufferView":26,
			"componentType":5126,
			"count":34,
			"type":"VEC2"
		},
		{
			"bufferView":27,
			"componentType":5123,
			"count":60,
			"type":"SCALAR"
		},
		{
			"bufferView":28,
			"componentType":5126,
			"count":34,
			"max":[
				-0.7367159128189087,
				5,
				-3.4888296127319336
			],
			"min":[
				-1.760343313217163,
				3,
				-4.511610984802246
			],
			"type":"VEC3"
		},
		{
			"bufferView":29,
			"componentType":5126,
			"count":34,
			"type":"VEC3"
		},
		{
			"bufferView":30,
			"componentType":5126,
			"count":34,
			"type":"VEC2"
		},
		{
			"bufferView":31,
			"componentType":5126,
			"count":34,
			"max":[
				-3.4888298511505127,
				5,
				-0.7367161512374878
			],
			"min":[
				-4.5116119384765625,
				3,
				-1.7603436708450317
			],
			"type":"VEC3"
		},
		{
			"bufferView":32,
			"componentType":5126,
			"count":34,
			"type":"VEC3"
		},
		{
			"bufferView":33,
			"componentType":5126,
			"count":34,
			"type":"VEC2"
		},
		{
			"bufferView":34,
			"componentType":5123,
			"count":60,
			"type":"SCALAR"
		},
		{
			"bufferView":35,
			"componentType":5126,
			"count":34,
			"max":[
				-2.6702346801757812,
				5,
				-2.097990036010742
			],
			"min":[
				-3.8247597217559814,
				3,
				-3.2526907920837402
			],
			"type":"VEC3"
		},
		{
			"bufferView":36,
			"componentType":5126,
			"count":34,
			"type":"VEC3"
		},
		{
			"bufferView":37,
			"componentType":5126,
			"count":34,
			"type":"VEC2"
		},
		{
			"bufferView":38,
			"componentType":5126,
			"count":34,
			"max":[
				-1.4451204538345337,
				5,
				-3.1398637294769287
			],
			"min":[
				-2.5556225776672363,
				3,
				-4.249845027923584
			],
			"type":"VEC3"
		},
		{
			"bufferView":39,
			"componentType":5126,
			"count":34,
			"type":"VEC3"
		},
		{
			"bufferView":40,
			"componentType":5126,
			"count":34,
			"type":"VEC2"
		},
		{
			"bufferView":41,
			"componentType":5123,
			"count":60,
			"type":"SCALAR"
		},
		{
			"bufferView":42,
			"componentType":5126,
			"count":34,
			"max":[
				6.556510925292969e-07,
				5,
				-3.703721523284912
			],
			"min":[
				-0.8974151015281677,
				3,
				-4.599998474121094
			],
			"type":"VEC3"
		},
		{
			"bufferView":43,
			"componentType":5126,
			"count":34,
			"type":"VEC3"
		},
		{
			"bufferView":44,
			"componentType":5126,
			"count":34,
			"type":"VEC2"
		},
		{
			"bufferView":45,
			"componentType":5123,
			"count":60,
			"type":"SCALAR"
		}
	],
	"bufferViews":[
		{
			"buffer":0,
			"byteLength":5256,
			"byteOffset":0,
			"target":34962
		},
		{
			"buffer":0,
			"byteLength":5256,
			"byteOffset":5256,
			"target":34962
		},
		{
			"buffer":0,
			"byteLength":3504,
			"byteOffset":10512,
			"target":34962
		},
		{
			"buffer":0,
			"byteLength":2640,
			"byteOffset":14016,
			"target":34963
		},
		{
			"buffer":0,
			"byteLength":288,
			"byteOffset":16656,
			"target":34962
		},
		{
			"buffer":0,
			"byteLength":288,
			"byteOffset":16944,
			"target":34962
		},
		{
			"buffer":0,
			"byteLength":192,
			"byteOffset":17232,
			"target":34962
		},
		{
			"buffer":0,
			"byteLength":120,
			"byteOffset":17424,
			"target":34963
		},
		{
			"buffer":0,
			"byteLength":2232,
			"byteOffset":17544,
			"target":34962
		},
		{
			"buffer":0,
			"byteLength":2232,
			"byteOffset":19776,
			"target":34962
		},
		{
			"buffer":0,
			"byteLength":1488,
			"byteOffset":22008,
			"target":34962
		},
		{
			"buffer":0,
			"byteLength":1152,
			"byteOffset":23496,
			"target":34963
		},
		{
			"buffer":0,
			"byteLength":2064,
			"byteOffset":24648,
			"target":34962
		},
		{
			"buffer":0,
			"byteLength":2064,
			"byteOffset":26712,
			"target":34962
		},
		{
			"buffer":0,
			"byteLength":1376,
			"byteOffset":28776,
			"target":34962
		},
		{
			"buffer":0,
			"byteLength":600,
			"byteOffset":30152,
			"target":34963
		},
		{
			"buffer":0,
			"byteLength":408,
			"byteOffset":30752,
			"target":34962
		},
		{
			"buffer":0,
			"byteLength":408,
			"byteOffset":31160,
			"target":34962
		},
		{
			"buffer":0,
			"byteLength":272,
			"byteOffset":31568,
			"target":34962
		},
		{
			"buffer":0,
			"byteLength":120,
			"byteOffset":31840,
			"target":34963
		},
		{
			"buffer":0,
			"byteLength":408,
			"byteOffset":31960,
			"target":34962
		},
		{
			"buffer":0,
			"byteLength":408,
			"byteOffset":32368,
			"target":34962
		},
		{
			"buffer":0,
			"byteLength":272,
			"byteOffset":32776,
			"target":34962
		},
		{
			"buffer":0,
			"byteLength":120,
			"byteOffset":33048,
			"target":34963
		},
		{
			"buffer":0,
			"byteLength":408,
			"byteOffset":33168,
			"target":34962
		},
		{
			"buffer":0,
			"byteLength":408,
			"byteOffset":33576,
			"target":34962
		},
		{
			"buffer":0,
			"byteLength":272,
			"byteOffset":33984,
			"target":34962
		},
		{
			"buffer":0,
			"byteLength":120,
			"byteOffset":34256,
			"target":34963
		},
		{
			"buffer":0,
			"byteLength":408,
			"byteOffset":34376,
			"target":34962
		},
		{
			"buffer":0,
			"byteLength":408,
			"byteOffset":34784,
			"target":34962
		},
		{
			"buffer":0,
			"byteLength":272,
			"byteOffset":35192,
			"target":34962
		},
		{
			"buffer":0,
			"byteLength":408,
			"byteOffset":35464,
			"target":34962
		},
		{
			"buffer":0,
			"byteLength":408,
			"byteOffset":35872,
			"target":34962
		},
		{
			"buffer":0,
			"byteLength":272,
			"byteOffset":36280,
			"target":34962
		},
		{
			"buffer":0,
			"byteLength":120,
			"byteOffset":36552,
			"target":34963
		},
		{
			"buffer":0,
			"byteLength":408,
			"byteOffset":36672,
			"target":34962
		},
		{
			"buffer":0,
			"byteLength":408,
			"byteOffset":37080,
			"target":34962
		},
		{
			"buffer":0,
			"byteLength":272,
			"byteOffset":37488,
			"target":34962
		},
		{
			"buffer":0,
			"byteLength":408,
			"byteOffset":37760,
			"target":34962
		},
		{
			"buffer":0,
			"byteLength":408,
			"byteOffset":38168,
			"target":34962
		},
		{
			"buffer":0,
			"byteLength":272,
			"byteOffset":38576,
			"target":34962
		},
		{
			"buffer":0,
			"byteLength":120,
			"byteOffset":38848,
			"target":34963
		},
		{
			"buffer":0,
			"byteLength":408,
			"byteOffset":38968,
			"target":34962
		},
		{
			"buffer":0,
			"byteLength":408,
			"byteOffset":39376,
			"target":34962
		},
		{
			"buffer":0,
			"byteLength":272,
			"byteOffset":39784,
			"target":34962
		},
		{
			"buffer":0,
			"byteLength":120,
			"byteOffset":40056,
			"target":34963
		}
	],
	"buffers":[
		{
			"byteLength":40176,
			"uri":"TopWindow_Corner_Curve_Outer.bin"
		}
	]
}
