{
	"asset":{
		"generator":"Khronos glTF Blender I/O v4.0.44",
		"version":"2.0"
	},
	"extensionsUsed":[
		"KHR_materials_specular",
		"KHR_materials_ior"
	],
	"scene":0,
	"scenes":[
		{
			"name":"Scene",
			"nodes":[
				0,
				1
			]
		}
	],
	"nodes":[
		{
			"mesh":0,
			"name":"WallWideBand_Straight_Transition2_1_convcolonly"
		},
		{
			"mesh":1,
			"name":"WallWideBand_Straight_Transition2"
		}
	],
	"materials":[
		{
			"doubleSided":true,
			"name":"Collision",
			"pbrMetallicRoughness":{
				"baseColorFactor":[
					0.11006110906600952,
					0.2556236684322357,
					0.8000785112380981,
					1
				],
				"metallicFactor":0,
				"roughnessFactor":0.5
			}
		},
		{
			"doubleSided":true,
			"name":"MI_Trim_02_NoAccent",
			"pbrMetallicRoughness":{
				"baseColorFactor":[
					0.800000011920929,
					0.800000011920929,
					0.800000011920929,
					1
				],
				"metallicFactor":0,
				"roughnessFactor":0.5
			}
		},
		{
			"doubleSided":true,
			"extensions":{
				"KHR_materials_specular":{
					"specularFactor":0
				},
				"KHR_materials_ior":{
					"ior":1.4500000476837158
				}
			},
			"name":"MI_Trim_01",
			"pbrMetallicRoughness":{
				"baseColorFactor":[
					0.800000011920929,
					0.800000011920929,
					0.800000011920929,
					1
				],
				"metallicFactor":0,
				"roughnessFactor":0.5
			}
		},
		{
			"doubleSided":true,
			"name":"M_Decal_White",
			"pbrMetallicRoughness":{
				"baseColorFactor":[
					0.800000011920929,
					0.800000011920929,
					0.800000011920929,
					1
				],
				"metallicFactor":0,
				"roughnessFactor":0.5
			}
		},
		{
			"doubleSided":true,
			"name":"MI_Trim_02_Color",
			"pbrMetallicRoughness":{
				"baseColorFactor":[
					0.800000011920929,
					0.800000011920929,
					0.800000011920929,
					1
				],
				"metallicFactor":0,
				"roughnessFactor":0.5
			}
		}
	],
	"meshes":[
		{
			"name":"Cube.066",
			"primitives":[
				{
					"attributes":{
						"POSITION":0,
						"NORMAL":1,
						"TEXCOORD_0":2
					},
					"indices":3,
					"material":0
				}
			]
		},
		{
			"name":"Plane.103",
			"primitives":[
				{
					"attributes":{
						"POSITION":4,
						"NORMAL":5,
						"TEXCOORD_0":6
					},
					"indices":7,
					"material":1
				},
				{
					"attributes":{
						"POSITION":8,
						"NORMAL":9,
						"TEXCOORD_0":10
					},
					"indices":11,
					"material":2
				},
				{
					"attributes":{
						"POSITION":12,
						"NORMAL":13,
						"TEXCOORD_0":14
					},
					"indices":15,
					"material":3
				},
				{
					"attributes":{
						"POSITION":16,
						"NORMAL":17,
						"TEXCOORD_0":18
					},
					"indices":19,
					"material":4
				}
			]
		}
	],
	"accessors":[
		{
			"bufferView":0,
			"componentType":5126,
			"count":24,
			"max":[
				-2,
				3,
				2
			],
			"min":[
				-2.200000047683716,
				0,
				-2
			],
			"type":"VEC3"
		},
		{
			"bufferView":1,
			"componentType":5126,
			"count":24,
			"type":"VEC3"
		},
		{
			"bufferView":2,
			"componentType":5126,
			"count":24,
			"type":"VEC2"
		},
		{
			"bufferView":3,
			"componentType":5123,
			"count":36,
			"type":"SCALAR"
		},
		{
			"bufferView":4,
			"componentType":5126,
			"count":42,
			"max":[
				-1.9999996423721313,
				3,
				2.000000476837158
			],
			"min":[
				-2.0715413093566895,
				0,
				-2.000000476837158
			],
			"type":"VEC3"
		},
		{
			"bufferView":5,
			"componentType":5126,
			"count":42,
			"type":"VEC3"
		},
		{
			"bufferView":6,
			"componentType":5126,
			"count":42,
			"type":"VEC2"
		},
		{
			"bufferView":7,
			"componentType":5123,
			"count":141,
			"type":"SCALAR"
		},
		{
			"bufferView":8,
			"componentType":5126,
			"count":14,
			"max":[
				-2.0715408325195312,
				0.1999998390674591,
				2.000000476837158
			],
			"min":[
				-2.1000003814697266,
				0.19999980926513672,
				-2.000000476837158
			],
			"type":"VEC3"
		},
		{
			"bufferView":9,
			"componentType":5126,
			"count":14,
			"type":"VEC3"
		},
		{
			"bufferView":10,
			"componentType":5126,
			"count":14,
			"type":"VEC2"
		},
		{
			"bufferView":11,
			"componentType":5123,
			"count":36,
			"type":"SCALAR"
		},
		{
			"bufferView":12,
			"componentType":5126,
			"count":8,
			"max":[
				-1.9924991130828857,
				2.8449156284332275,
				1.9398940801620483
			],
			"min":[
				-1.99801766872406,
				1.0208768844604492,
				-1.986748456954956
			],
			"type":"VEC3"
		},
		{
			"bufferView":13,
			"componentType":5126,
			"count":8,
			"type":"VEC3"
		},
		{
			"bufferView":14,
			"componentType":5126,
			"count":8,
			"type":"VEC2"
		},
		{
			"bufferView":15,
			"componentType":5123,
			"count":12,
			"type":"SCALAR"
		},
		{
			"bufferView":16,
			"componentType":5126,
			"count":37,
			"max":[
				-1.999999761581421,
				1.9969828128814697,
				2.000000476837158
			],
			"min":[
				-2.1000003814697266,
				0.1999998241662979,
				-2.000000476837158
			],
			"type":"VEC3"
		},
		{
			"bufferView":17,
			"componentType":5126,
			"count":37,
			"type":"VEC3"
		},
		{
			"bufferView":18,
			"componentType":5126,
			"count":37,
			"type":"VEC2"
		},
		{
			"bufferView":19,
			"componentType":5123,
			"count":111,
			"type":"SCALAR"
		}
	],
	"bufferViews":[
		{
			"buffer":0,
			"byteLength":288,
			"byteOffset":0,
			"target":34962
		},
		{
			"buffer":0,
			"byteLength":288,
			"byteOffset":288,
			"target":34962
		},
		{
			"buffer":0,
			"byteLength":192,
			"byteOffset":576,
			"target":34962
		},
		{
			"buffer":0,
			"byteLength":72,
			"byteOffset":768,
			"target":34963
		},
		{
			"buffer":0,
			"byteLength":504,
			"byteOffset":840,
			"target":34962
		},
		{
			"buffer":0,
			"byteLength":504,
			"byteOffset":1344,
			"target":34962
		},
		{
			"buffer":0,
			"byteLength":336,
			"byteOffset":1848,
			"target":34962
		},
		{
			"buffer":0,
			"byteLength":282,
			"byteOffset":2184,
			"target":34963
		},
		{
			"buffer":0,
			"byteLength":168,
			"byteOffset":2468,
			"target":34962
		},
		{
			"buffer":0,
			"byteLength":168,
			"byteOffset":2636,
			"target":34962
		},
		{
			"buffer":0,
			"byteLength":112,
			"byteOffset":2804,
			"target":34962
		},
		{
			"buffer":0,
			"byteLength":72,
			"byteOffset":2916,
			"target":34963
		},
		{
			"buffer":0,
			"byteLength":96,
			"byteOffset":2988,
			"target":34962
		},
		{
			"buffer":0,
			"byteLength":96,
			"byteOffset":3084,
			"target":34962
		},
		{
			"buffer":0,
			"byteLength":64,
			"byteOffset":3180,
			"target":34962
		},
		{
			"buffer":0,
			"byteLength":24,
			"byteOffset":3244,
			"target":34963
		},
		{
			"buffer":0,
			"byteLength":444,
			"byteOffset":3268,
			"target":34962
		},
		{
			"buffer":0,
			"byteLength":444,
			"byteOffset":3712,
			"target":34962
		},
		{
			"buffer":0,
			"byteLength":296,
			"byteOffset":4156,
			"target":34962
		},
		{
			"buffer":0,
			"byteLength":222,
			"byteOffset":4452,
			"target":34963
		}
	],
	"buffers":[
		{
			"byteLength":4676,
			"uri":"WallWideBand_Straight_Transition2.bin"
		}
	]
}
