{
	"asset":{
		"generator":"Khronos glTF Blender I/O v4.0.44",
		"version":"2.0"
	},
	"extensionsUsed":[
		"KHR_materials_specular",
		"KHR_materials_ior"
	],
	"scene":0,
	"scenes":[
		{
			"name":"Scene",
			"nodes":[
				0
			]
		}
	],
	"nodes":[
		{
			"mesh":0,
			"name":"WallWindow_Cap_B"
		}
	],
	"materials":[
		{
			"doubleSided":true,
			"name":"MI_Trim_02",
			"pbrMetallicRoughness":{
				"baseColorFactor":[
					0.800000011920929,
					0.800000011920929,
					0.800000011920929,
					1
				],
				"metallicFactor":0,
				"roughnessFactor":0.5
			}
		},
		{
			"doubleSided":true,
			"extensions":{
				"KHR_materials_specular":{
					"specularFactor":0
				},
				"KHR_materials_ior":{
					"ior":1.4500000476837158
				}
			},
			"name":"MI_Trim_01",
			"pbrMetallicRoughness":{
				"baseColorFactor":[
					0.800000011920929,
					0.800000011920929,
					0.800000011920929,
					1
				],
				"metallicFactor":0,
				"roughnessFactor":0.5
			}
		}
	],
	"meshes":[
		{
			"name":"Plane.166",
			"primitives":[
				{
					"attributes":{
						"POSITION":0,
						"NORMAL":1,
						"TEXCOORD_0":2
					},
					"indices":3,
					"material":0
				},
				{
					"attributes":{
						"POSITION":4,
						"NORMAL":5,
						"TEXCOORD_0":6
					},
					"indices":7,
					"material":1
				}
			]
		}
	],
	"accessors":[
		{
			"bufferView":0,
			"componentType":5126,
			"count":73,
			"max":[
				-1.9273405075073242,
				1.2688517570495605,
				2.196998357772827
			],
			"min":[
				-2.006993055343628,
				0.8731297850608826,
				1.8022887706756592
			],
			"type":"VEC3"
		},
		{
			"bufferView":1,
			"componentType":5126,
			"count":73,
			"type":"VEC3"
		},
		{
			"bufferView":2,
			"componentType":5126,
			"count":73,
			"type":"VEC2"
		},
		{
			"bufferView":3,
			"componentType":5123,
			"count":216,
			"type":"SCALAR"
		},
		{
			"bufferView":4,
			"componentType":5126,
			"count":52,
			"max":[
				-2.001236915588379,
				1.2689471244812012,
				2.197640895843506
			],
			"min":[
				-2.128108263015747,
				0.8731297850608826,
				1.8022887706756592
			],
			"type":"VEC3"
		},
		{
			"bufferView":5,
			"componentType":5126,
			"count":52,
			"type":"VEC3"
		},
		{
			"bufferView":6,
			"componentType":5126,
			"count":52,
			"type":"VEC2"
		},
		{
			"bufferView":7,
			"componentType":5123,
			"count":150,
			"type":"SCALAR"
		}
	],
	"bufferViews":[
		{
			"buffer":0,
			"byteLength":876,
			"byteOffset":0,
			"target":34962
		},
		{
			"buffer":0,
			"byteLength":876,
			"byteOffset":876,
			"target":34962
		},
		{
			"buffer":0,
			"byteLength":584,
			"byteOffset":1752,
			"target":34962
		},
		{
			"buffer":0,
			"byteLength":432,
			"byteOffset":2336,
			"target":34963
		},
		{
			"buffer":0,
			"byteLength":624,
			"byteOffset":2768,
			"target":34962
		},
		{
			"buffer":0,
			"byteLength":624,
			"byteOffset":3392,
			"target":34962
		},
		{
			"buffer":0,
			"byteLength":416,
			"byteOffset":4016,
			"target":34962
		},
		{
			"buffer":0,
			"byteLength":300,
			"byteOffset":4432,
			"target":34963
		}
	],
	"buffers":[
		{
			"byteLength":4732,
			"uri":"WallWindow_Cap_B.bin"
		}
	]
}
