{
	"asset":{
		"generator":"Khronos glTF Blender I/O v4.0.44",
		"version":"2.0"
	},
	"extensionsUsed":[
		"KHR_materials_specular",
		"KHR_materials_ior"
	],
	"scene":0,
	"scenes":[
		{
			"name":"Scene",
			"nodes":[
				0,
				1,
				2
			]
		}
	],
	"nodes":[
		{
			"mesh":0,
			"name":"WallWideBand_Corner_Square_Inner_1_convcolonly"
		},
		{
			"mesh":1,
			"name":"WallWideBand_Corner_Square_Inner_2_convcolonly"
		},
		{
			"mesh":2,
			"name":"WallWideBand_Corner_Square_Inner"
		}
	],
	"materials":[
		{
			"doubleSided":true,
			"name":"Collision",
			"pbrMetallicRoughness":{
				"baseColorFactor":[
					0.11006110906600952,
					0.2556236684322357,
					0.8000785112380981,
					1
				],
				"metallicFactor":0,
				"roughnessFactor":0.5
			}
		},
		{
			"doubleSided":true,
			"name":"MI_Trim_02_NoAccent",
			"pbrMetallicRoughness":{
				"baseColorFactor":[
					0.800000011920929,
					0.800000011920929,
					0.800000011920929,
					1
				],
				"metallicFactor":0,
				"roughnessFactor":0.5
			}
		},
		{
			"doubleSided":true,
			"extensions":{
				"KHR_materials_specular":{
					"specularFactor":0
				},
				"KHR_materials_ior":{
					"ior":1.4500000476837158
				}
			},
			"name":"MI_Trim_01",
			"pbrMetallicRoughness":{
				"baseColorFactor":[
					0.800000011920929,
					0.800000011920929,
					0.800000011920929,
					1
				],
				"metallicFactor":0,
				"roughnessFactor":0.5
			}
		},
		{
			"doubleSided":true,
			"name":"M_Decal_White",
			"pbrMetallicRoughness":{
				"baseColorFactor":[
					0.800000011920929,
					0.800000011920929,
					0.800000011920929,
					1
				],
				"metallicFactor":0,
				"roughnessFactor":0.5
			}
		},
		{
			"doubleSided":true,
			"name":"MI_Trim_02_Color",
			"pbrMetallicRoughness":{
				"baseColorFactor":[
					0.800000011920929,
					0.800000011920929,
					0.800000011920929,
					1
				],
				"metallicFactor":0,
				"roughnessFactor":0.5
			}
		}
	],
	"meshes":[
		{
			"name":"Cube.055",
			"primitives":[
				{
					"attributes":{
						"POSITION":0,
						"NORMAL":1,
						"TEXCOORD_0":2
					},
					"indices":3,
					"material":0
				}
			]
		},
		{
			"name":"Cube.058",
			"primitives":[
				{
					"attributes":{
						"POSITION":4,
						"NORMAL":5,
						"TEXCOORD_0":6
					},
					"indices":7,
					"material":0
				}
			]
		},
		{
			"name":"Plane.063",
			"primitives":[
				{
					"attributes":{
						"POSITION":8,
						"NORMAL":9,
						"TEXCOORD_0":10
					},
					"indices":11,
					"material":1
				},
				{
					"attributes":{
						"POSITION":12,
						"NORMAL":13,
						"TEXCOORD_0":14
					},
					"indices":15,
					"material":2
				},
				{
					"attributes":{
						"POSITION":16,
						"NORMAL":17,
						"TEXCOORD_0":18
					},
					"indices":19,
					"material":3
				},
				{
					"attributes":{
						"POSITION":20,
						"NORMAL":21,
						"TEXCOORD_0":22
					},
					"indices":23,
					"material":4
				}
			]
		}
	],
	"accessors":[
		{
			"bufferView":0,
			"componentType":5126,
			"count":24,
			"max":[
				-4,
				3,
				0
			],
			"min":[
				-4.199999809265137,
				0,
				-4.200000286102295
			],
			"type":"VEC3"
		},
		{
			"bufferView":1,
			"componentType":5126,
			"count":24,
			"type":"VEC3"
		},
		{
			"bufferView":2,
			"componentType":5126,
			"count":24,
			"type":"VEC2"
		},
		{
			"bufferView":3,
			"componentType":5123,
			"count":36,
			"type":"SCALAR"
		},
		{
			"bufferView":4,
			"componentType":5126,
			"count":24,
			"max":[
				1.8358782938321383e-07,
				3,
				-4
			],
			"min":[
				-4.200000286102295,
				0,
				-4.199999809265137
			],
			"type":"VEC3"
		},
		{
			"bufferView":5,
			"componentType":5126,
			"count":24,
			"type":"VEC3"
		},
		{
			"bufferView":6,
			"componentType":5126,
			"count":24,
			"type":"VEC2"
		},
		{
			"bufferView":7,
			"componentType":5123,
			"count":36,
			"type":"SCALAR"
		},
		{
			"bufferView":8,
			"componentType":5126,
			"count":96,
			"max":[
				6.873939355500625e-07,
				3.000000238418579,
				4.7683710135970614e-07
			],
			"min":[
				-4.0715413093566895,
				-3.2584134146418364e-07,
				-4.0715413093566895
			],
			"type":"VEC3"
		},
		{
			"bufferView":9,
			"componentType":5126,
			"count":96,
			"type":"VEC3"
		},
		{
			"bufferView":10,
			"componentType":5126,
			"count":96,
			"type":"VEC2"
		},
		{
			"bufferView":11,
			"componentType":5123,
			"count":348,
			"type":"SCALAR"
		},
		{
			"bufferView":12,
			"componentType":5126,
			"count":26,
			"max":[
				6.886378969284124e-07,
				0.20000015199184418,
				4.4425300416151003e-07
			],
			"min":[
				-4.100000381469727,
				0.19999949634075165,
				-4.100000381469727
			],
			"type":"VEC3"
		},
		{
			"bufferView":13,
			"componentType":5126,
			"count":26,
			"type":"VEC3"
		},
		{
			"bufferView":14,
			"componentType":5126,
			"count":26,
			"type":"VEC2"
		},
		{
			"bufferView":15,
			"componentType":5123,
			"count":72,
			"type":"SCALAR"
		},
		{
			"bufferView":16,
			"componentType":5126,
			"count":16,
			"max":[
				-0.013251201249659061,
				2.8449158668518066,
				-0.060106344521045685
			],
			"min":[
				-3.9980177879333496,
				1.0208766460418701,
				-3.9980175495147705
			],
			"type":"VEC3"
		},
		{
			"bufferView":17,
			"componentType":5126,
			"count":16,
			"type":"VEC3"
		},
		{
			"bufferView":18,
			"componentType":5126,
			"count":16,
			"type":"VEC2"
		},
		{
			"bufferView":19,
			"componentType":5123,
			"count":24,
			"type":"SCALAR"
		},
		{
			"bufferView":20,
			"componentType":5126,
			"count":60,
			"max":[
				6.886378969284124e-07,
				1.2284486293792725,
				4.4425300416151003e-07
			],
			"min":[
				-4.100000381469727,
				0.19999949634075165,
				-4.100000381469727
			],
			"type":"VEC3"
		},
		{
			"bufferView":21,
			"componentType":5126,
			"count":60,
			"type":"VEC3"
		},
		{
			"bufferView":22,
			"componentType":5126,
			"count":60,
			"type":"VEC2"
		},
		{
			"bufferView":23,
			"componentType":5123,
			"count":156,
			"type":"SCALAR"
		}
	],
	"bufferViews":[
		{
			"buffer":0,
			"byteLength":288,
			"byteOffset":0,
			"target":34962
		},
		{
			"buffer":0,
			"byteLength":288,
			"byteOffset":288,
			"target":34962
		},
		{
			"buffer":0,
			"byteLength":192,
			"byteOffset":576,
			"target":34962
		},
		{
			"buffer":0,
			"byteLength":72,
			"byteOffset":768,
			"target":34963
		},
		{
			"buffer":0,
			"byteLength":288,
			"byteOffset":840,
			"target":34962
		},
		{
			"buffer":0,
			"byteLength":288,
			"byteOffset":1128,
			"target":34962
		},
		{
			"buffer":0,
			"byteLength":192,
			"byteOffset":1416,
			"target":34962
		},
		{
			"buffer":0,
			"byteLength":72,
			"byteOffset":1608,
			"target":34963
		},
		{
			"buffer":0,
			"byteLength":1152,
			"byteOffset":1680,
			"target":34962
		},
		{
			"buffer":0,
			"byteLength":1152,
			"byteOffset":2832,
			"target":34962
		},
		{
			"buffer":0,
			"byteLength":768,
			"byteOffset":3984,
			"target":34962
		},
		{
			"buffer":0,
			"byteLength":696,
			"byteOffset":4752,
			"target":34963
		},
		{
			"buffer":0,
			"byteLength":312,
			"byteOffset":5448,
			"target":34962
		},
		{
			"buffer":0,
			"byteLength":312,
			"byteOffset":5760,
			"target":34962
		},
		{
			"buffer":0,
			"byteLength":208,
			"byteOffset":6072,
			"target":34962
		},
		{
			"buffer":0,
			"byteLength":144,
			"byteOffset":6280,
			"target":34963
		},
		{
			"buffer":0,
			"byteLength":192,
			"byteOffset":6424,
			"target":34962
		},
		{
			"buffer":0,
			"byteLength":192,
			"byteOffset":6616,
			"target":34962
		},
		{
			"buffer":0,
			"byteLength":128,
			"byteOffset":6808,
			"target":34962
		},
		{
			"buffer":0,
			"byteLength":48,
			"byteOffset":6936,
			"target":34963
		},
		{
			"buffer":0,
			"byteLength":720,
			"byteOffset":6984,
			"target":34962
		},
		{
			"buffer":0,
			"byteLength":720,
			"byteOffset":7704,
			"target":34962
		},
		{
			"buffer":0,
			"byteLength":480,
			"byteOffset":8424,
			"target":34962
		},
		{
			"buffer":0,
			"byteLength":312,
			"byteOffset":8904,
			"target":34963
		}
	],
	"buffers":[
		{
			"byteLength":9216,
			"uri":"WallWideBand_Corner_Square_Inner.bin"
		}
	]
}
